<svg fill="none" viewBox="0 0 197 131" xmlns="http://www.w3.org/2000/svg"><path fill="#fff" d="M58.9 3.7C57.9 1.4 55.8.1 53 .1c-2 0-4.8 1.1-6.2 4.4L36.5 26c-1.1 1.9-.7 3.2-.2 4 .7 1.1 2.1 1.6 2.8 1.6h.1c1.3 0 2.5-.8 3.1-2.1.2-.5 1-2.2 1.7-3.6.5-1 .8-1.6.9-1.9H53c1.8 0 3.2-1.5 3.2-3.4s-1.4-3.4-3.2-3.4h-4.9l4.5-9.3v-.1c.2-.4.3-.4.2-.4h.2c.1 0 .2.4.3.5l10.3 21.6c.3.6 1.1 1.6 2.3 2 .9.2 1.9.1 2.8-.6 1.5-.9 1.8-2.9.9-4.6L58.9 3.7Zm32.3 8.8h-8.7c-2.1 0-3.5-1.1-3.5-3s1.3-3 3.5-3h14.1c2 0 3-1.7 3-3.3 0-1.8-1.3-3.2-3-3.2H82.4c-5.5 0-9.6 4.1-9.6 9.4 0 5.4 4.1 9.4 9.6 9.4H91c2.1 0 3.5 1.3 3.5 3.2 0 1.9-1.3 3-3.5 3H77c-1.7 0-3 1.4-3 3.2 0 .9.3 1.8.9 2.4.6.6 1.3.9 2.1.9h14.1c5.5 0 9.5-4 9.5-9.4 0-5.3-4.1-9.6-9.4-9.6ZM129.4.1h-22.9c-1.9 0-3.4 1.4-3.4 3.2 0 1.7 1.5 3.2 3.4 3.2h8.1v21.9c0 1.9 1.5 3.4 3.4 3.4s3.4-1.5 3.4-3.4v-22h8.1c1.9 0 3.4-1.4 3.4-3.2-.1-1.7-1.6-3.1-3.5-3.1Zm10.4 6.4h20.4c1.9 0 3.4-1.4 3.4-3.2 0-1.8-1.5-3.2-3.4-3.2h-20.4c-1.9 0-3.4 1.4-3.4 3.2 0 1.8 1.5 3.2 3.4 3.2Zm4.7 12.3h15.8c1.9 0 3.4-1.4 3.4-3.2 0-1.7-1.5-3.2-3.4-3.2h-16.6c-.2 0-2.1 0-2.9.3-.5.2-1 .4-1.5.7-1.7 1.1-2.7 3-2.8 5.1V26c.2 1.9 1.2 3.6 2.7 4.6.4.3.9.5 1.5.7.8.3 2.8.3 2.9.3h16.7c1.9 0 3.4-1.4 3.4-3.2 0-1.8-1.5-3.2-3.4-3.2h-15.8c-.7 0-1.6-.4-1.6-1.3v-4c-.1-.8.4-1.1 1.6-1.1ZM4.2.1C2.3.1.8 1.6.8 3.5v24.7c0 1.9 1.5 3.4 3.4 3.4s3.4-1.5 3.4-3.4V3.5C7.6 1.6 6.1.1 4.2.1Zm26.7 25.6-11.4-9.8 11.3-9.7c1.3-1.1 1.6-2.9.8-4.3C31.1 1 30.2.4 29.2.2c-1-.2-2 .1-2.8.8L10.3 14.8c-.3.3-.5.7-.5 1.1 0 .4.2.8.5 1.1l16 13.8c.7.6 1.5.9 2.3.9.7 0 1.4-.2 2-.7.8-.6 1.3-1.6 1.3-2.6.2-1.1-.3-2.1-1-2.7ZM193.4.1c-2.1 0-3.4 1.8-3.4 3.2v19.1c-3-4.8-11.8-18.9-12-19.1-.8-1.2-2.7-3.2-5.2-3.2-3.1 0-5.6 2.7-5.6 6.1v22.1c0 1.9 1.4 3.4 3.2 3.4 1.8 0 3.2-1.5 3.2-3.4V8.5l12.2 19.3c1.3 1.8 2.9 3.9 5.5 3.9 3.3 0 5.6-2.4 5.6-6.1V3.5c-.1-1.9-1.6-3.4-3.5-3.4Zm-2 130.8H6.1c-3.1 0-5.6-2.5-5.6-5.6V43.5c0-3.1 2.5-5.6 5.6-5.6h185.2c3.1 0 5.6 2.5 5.6 5.6v81.8c.1 3.1-2.4 5.6-5.5 5.6Z"/><path fill="#2600FF" d="M29 53.5c-3.3 0-6.1 2.7-6.1 6.1v49.6c0 3.3 2.7 6.1 6.1 6.1 3.3 0 6.1-2.7 6.1-6.1V59.6c-.1-3.4-2.8-6.1-6.1-6.1Zm44 0c-1.4 0-2.7.5-3.8 1.5L58 65.1c-.1 0-.1.1-.1.1L39.2 82.1c-.7.6-1.4 1.2-1.4 2.2 0 1.2.9 2 1.6 2.6.2.2.4.3.5.5l13.2 11.4 16 15.2c1.2 1 2.6 1.5 4.2 1.3 1.5-.1 2.9-.9 3.9-2.1 2-2.5 1.7-6.3-.7-8.4L54.3 84.2l10.9-9.8c.2-.1.3-.2.4-.3L76.8 64c2.4-2.2 2.6-5.9.6-8.4-1-1.2-2.4-1.9-3.9-2-.2-.1-.3-.1-.5-.1Zm28.6 0h-5.7c-3.5 0-6.4 2.8-6.4 6.4 0 3.4 2.7 6.2 6 6.3v43c0 3.3 2.7 6.1 6.1 6.1 3.3 0 6.1-2.7 6.1-6.1V59.6c0-3.4-2.7-6.1-6.1-6.1Zm76.5 28.1-14.3-24.9c-1-1.9-3-3-5.1-3h-27.8c-2.1 0-4.1 1.1-5.1 3l-14.3 24.9c-.5.8-.7 1.6-.7 2.5 0 .9.2 1.8.7 2.6l14.3 24.9c1.1 1.9 3 3 5.1 3h27.8c2.1 0 4.1-1.1 5.1-3l14.3-24.9c.5-.8.7-1.7.7-2.6 0-.8-.2-1.7-.7-2.5Zm-22.9 21h-20.8l-10.5-18.4 10.5-18.3h20.8l10.5 18.3-10.5 18.4Z"/></svg>