<svg width="197" height="131" viewBox="0 0 197 131" fill="none" xmlns="http://www.w3.org/2000/svg">
<path d="M58.9 3.7C57.9 1.4 55.8 0.0999985 53 0.0999985C51 0.0999985 48.2 1.2 46.8 4.5L36.5 26C35.4 27.9 35.8 29.2 36.3 30C37 31.1 38.4 31.6 39.1 31.6H39.2C40.5 31.6 41.7 30.8 42.3 29.5C42.5 29 43.3 27.3 44 25.9C44.5 24.9 44.8 24.3 44.9 24H53C54.8 24 56.2 22.5 56.2 20.6C56.2 18.7 54.8 17.2 53 17.2H48.1L52.6 7.9V7.8C52.8 7.4 52.9 7.4 52.8 7.4C52.9 7.4 53 7.4 53 7.4C53.1 7.4 53.2 7.8 53.3 7.9L63.6 29.5C63.9 30.1 64.7 31.1 65.9 31.5C66.8 31.7 67.8 31.6 68.7 30.9C70.2 30 70.5 28 69.6 26.3L58.9 3.7Z" fill="white"/>
<path d="M91.2 12.5H82.5C80.4 12.5 79 11.4 79 9.5C79 7.6 80.3 6.5 82.5 6.5H96.6C98.6 6.5 99.6 4.8 99.6 3.2C99.6 1.4 98.3 0 96.6 0H82.4C76.9 0 72.8 4.1 72.8 9.4C72.8 14.8 76.9 18.8 82.4 18.8H91C93.1 18.8 94.5 20.1 94.5 22C94.5 23.9 93.2 25 91 25H77C75.3 25 74 26.4 74 28.2C74 29.1 74.3 30 74.9 30.6C75.5 31.2 76.2 31.5 77 31.5H91.1C96.6 31.5 100.6 27.5 100.6 22.1C100.6 16.8 96.5 12.5 91.2 12.5Z" fill="white"/>
<path d="M129.4 0.0999985H106.5C104.6 0.0999985 103.1 1.5 103.1 3.3C103.1 5 104.6 6.5 106.5 6.5H114.6V28.4C114.6 30.3 116.1 31.8 118 31.8C119.9 31.8 121.4 30.3 121.4 28.4V6.4H129.5C131.4 6.4 132.9 5 132.9 3.2C132.8 1.5 131.3 0.0999985 129.4 0.0999985Z" fill="white"/>
<path d="M139.8 6.5H160.2C162.1 6.5 163.6 5.1 163.6 3.3C163.6 1.5 162.1 0.0999985 160.2 0.0999985H139.8C137.9 0.0999985 136.4 1.5 136.4 3.3C136.4 5.1 137.9 6.5 139.8 6.5Z" fill="white"/>
<path d="M144.5 18.8H160.3C162.2 18.8 163.7 17.4 163.7 15.6C163.7 13.9 162.2 12.4 160.3 12.4H143.7C143.5 12.4 141.6 12.4 140.8 12.7C140.3 12.9 139.8 13.1 139.3 13.4C137.6 14.5 136.6 16.4 136.5 18.5V23.7V26C136.7 27.9 137.7 29.6 139.2 30.6C139.6 30.9 140.1 31.1 140.7 31.3C141.5 31.6 143.5 31.6 143.6 31.6H160.3C162.2 31.6 163.7 30.2 163.7 28.4C163.7 26.6 162.2 25.2 160.3 25.2H144.5C143.8 25.2 142.9 24.8 142.9 23.9V19.9C142.8 19.1 143.3 18.8 144.5 18.8Z" fill="white"/>
<path d="M4.2 0.0999985C2.3 0.0999985 0.799999 1.6 0.799999 3.5V28.2C0.799999 30.1 2.3 31.6 4.2 31.6C6.1 31.6 7.6 30.1 7.6 28.2V3.5C7.6 1.6 6.1 0.0999985 4.2 0.0999985Z" fill="white"/>
<path d="M30.9 25.7L19.5 15.9L30.8 6.2C32.1 5.1 32.4 3.3 31.6 1.9C31.1 1 30.2 0.4 29.2 0.2C28.2 4.02331e-07 27.2 0.300001 26.4 1L10.3 14.8C10 15.1 9.8 15.5 9.8 15.9C9.8 16.3 10 16.7 10.3 17L26.3 30.8C27 31.4 27.8 31.7 28.6 31.7C29.3 31.7 30 31.5 30.6 31C31.4 30.4 31.9 29.4 31.9 28.4C32.1 27.3 31.6 26.3 30.9 25.7Z" fill="white"/>
<path d="M193.4 0.0999985C191.3 0.0999985 190 1.9 190 3.3V22.4C187 17.6 178.2 3.5 178 3.3C177.2 2.1 175.3 0.0999985 172.8 0.0999985C169.7 0.0999985 167.2 2.8 167.2 6.2V28.3C167.2 30.2 168.6 31.7 170.4 31.7C172.2 31.7 173.6 30.2 173.6 28.3V8.5L185.8 27.8C187.1 29.6 188.7 31.7 191.3 31.7C194.6 31.7 196.9 29.3 196.9 25.6V3.5C196.8 1.6 195.3 0.0999985 193.4 0.0999985Z" fill="white"/>
<path d="M191.4 130.9H6.1C3 130.9 0.5 128.4 0.5 125.3V43.5C0.5 40.4 3 37.9 6.1 37.9H191.3C194.4 37.9 196.9 40.4 196.9 43.5V125.3C197 128.4 194.5 130.9 191.4 130.9Z" fill="white"/>
<path d="M29 53.5C25.7 53.5 22.9 56.2 22.9 59.6V109.2C22.9 112.5 25.6 115.3 29 115.3C32.3 115.3 35.1 112.6 35.1 109.2V59.6C35 56.2 32.3 53.5 29 53.5Z" fill="#2600FF"/>
<path d="M73 53.5C71.6 53.5 70.3 54 69.2 55L58 65.1C57.9 65.1 57.9 65.2 57.9 65.2L39.2 82.1C38.5 82.7 37.8 83.3 37.8 84.3C37.8 85.5 38.7 86.3 39.4 86.9C39.6 87.1 39.8 87.2 39.9 87.4L53.1 98.8L69.1 114C70.3 115 71.7 115.5 73.3 115.3C74.8 115.2 76.2 114.4 77.2 113.2C79.2 110.7 78.9 106.9 76.5 104.8L54.3 84.2L65.2 74.4C65.4 74.3 65.5 74.2 65.6 74.1L76.8 64C79.2 61.8 79.4 58.1 77.4 55.6C76.4 54.4 75 53.7 73.5 53.6C73.3 53.5 73.2 53.5 73 53.5Z" fill="#2600FF"/>
<path d="M101.6 53.5H101.5H101.4H95.9C92.4 53.5 89.5 56.3 89.5 59.9C89.5 63.3 92.2 66.1 95.5 66.2V109.2C95.5 112.5 98.2 115.3 101.6 115.3C104.9 115.3 107.7 112.6 107.7 109.2V59.9V59.6C107.7 56.2 105 53.5 101.6 53.5Z" fill="#2600FF"/>
<path d="M178.1 81.6L163.8 56.7C162.8 54.8 160.8 53.7 158.7 53.7H144.9H144.7H130.9C128.8 53.7 126.8 54.8 125.8 56.7L111.5 81.6C111 82.4 110.8 83.2 110.8 84.1C110.8 85 111 85.9 111.5 86.7L125.8 111.6C126.9 113.5 128.8 114.6 130.9 114.6C130.9 114.6 137.8 114.6 144.7 114.6C144.8 114.6 144.8 114.6 144.9 114.6C151.8 114.6 158.7 114.6 158.7 114.6C160.8 114.6 162.8 113.5 163.8 111.6L178.1 86.7C178.6 85.9 178.8 85 178.8 84.1C178.8 83.3 178.6 82.4 178.1 81.6ZM155.2 102.6H144.9H144.7H134.4L123.9 84.2L134.4 65.9H144.7H144.9H155.2L165.7 84.2L155.2 102.6Z" fill="#2600FF"/>
</svg>
