<?xml version="1.0" encoding="UTF-8" standalone="no"?>
<!-- Created with Inkscape (http://www.inkscape.org/) -->

<svg
   xmlns:dc="http://purl.org/dc/elements/1.1/"
   xmlns:cc="http://creativecommons.org/ns#"
   xmlns:rdf="http://www.w3.org/1999/02/22-rdf-syntax-ns#"
   xmlns:svg="http://www.w3.org/2000/svg"
   xmlns="http://www.w3.org/2000/svg"
   xmlns:sodipodi="http://sodipodi.sourceforge.net/DTD/sodipodi-0.dtd"
   xmlns:inkscape="http://www.inkscape.org/namespaces/inkscape"
   version="1.1"
   id="svg2"
   width="120"
   height="132"
   viewBox="0 0 120 132"
   sodipodi:docname="fhemicon.svg"
   inkscape:version="0.92.3 (2405546, 2018-03-11)">
  <metadata
     id="metadata8">
    <rdf:RDF>
      <cc:Work
         rdf:about="">
        <dc:format>image/svg+xml</dc:format>
        <dc:type
           rdf:resource="http://purl.org/dc/dcmitype/StillImage" />
      </cc:Work>
    </rdf:RDF>
  </metadata>
  <defs
     id="defs6" />
  <sodipodi:namedview
     pagecolor="#ffffff"
     bordercolor="#666666"
     borderopacity="1"
     objecttolerance="10"
     gridtolerance="10"
     guidetolerance="10"
     inkscape:pageopacity="0"
     inkscape:pageshadow="2"
     inkscape:window-width="1920"
     inkscape:window-height="1017"
     id="namedview4"
     showgrid="false"
     showguides="true"
     inkscape:guide-bbox="true"
     inkscape:zoom="1.7878788"
     inkscape:cx="69.635117"
     inkscape:cy="85.20402"
     inkscape:window-x="-8"
     inkscape:window-y="-8"
     inkscape:window-maximized="1"
     inkscape:current-layer="svg2" />
  <path
     style="fill:none;stroke:#cacd33;stroke-width:5;stroke-linecap:butt;stroke-linejoin:round;stroke-miterlimit:4;stroke-dasharray:none;stroke-opacity:1"
     d="m 19.972771,30.653021 -7.514508,60.610438 80.484331,9.096511 8.107756,-61.104815"
     id="path4524"
     inkscape:connector-curvature="0"
     sodipodi:nodetypes="cccc" />
  <path
     style="fill:none;stroke:#cacd33;stroke-width:7;stroke-linecap:butt;stroke-linejoin:round;stroke-miterlimit:4;stroke-dasharray:none;stroke-opacity:1"
     d="M 7.7616955,33.458602 64.169941,8.4061239 112.70588,45.592779"
     id="path4526"
     inkscape:connector-curvature="0"
     sodipodi:nodetypes="ccc" />
  <path
     style="fill:none;stroke:#02b025;stroke-width:4;stroke-linecap:butt;stroke-linejoin:miter;stroke-miterlimit:4;stroke-dasharray:none;stroke-opacity:1"
     d="M 9.8261802,34.193528 63.960462,10.569199 110.45205,45.775469"
     id="path4520"
     inkscape:connector-curvature="0"
     sodipodi:nodetypes="ccc" />
  <path
     style="fill:none;stroke:#02b025;stroke-width:4;stroke-linecap:butt;stroke-linejoin:round;stroke-miterlimit:4;stroke-dasharray:none;stroke-opacity:1"
     d="m 23.433399,27.884518 -7.910008,61.302563 75.342827,8.799885 7.712258,-61.104813"
     id="path4522"
     inkscape:connector-curvature="0"
     sodipodi:nodetypes="cccc" />
  <path
     style="fill:none;stroke:#02b025;stroke-width:3.5;stroke-linecap:round;stroke-linejoin:miter;stroke-miterlimit:4;stroke-dasharray:none;stroke-opacity:1"
     d="M 39.851695,42.997881 51.597458,40.271186"
     id="path4528"
     inkscape:connector-curvature="0"
     sodipodi:nodetypes="cc" />
  <path
     style="fill:none;stroke:#02b025;stroke-width:3.5;stroke-linecap:round;stroke-linejoin:miter;stroke-miterlimit:4;stroke-dasharray:none;stroke-opacity:1"
     d="M 79.5137,47.419953 68.706639,42.071574"
     id="path4528-8"
     inkscape:connector-curvature="0"
     sodipodi:nodetypes="cc" />
  <path
     style="fill:none;stroke:#02b025;stroke-width:3.5;stroke-linecap:round;stroke-linejoin:miter;stroke-miterlimit:4;stroke-dasharray:none;stroke-opacity:1"
     d="m 37.963983,58.519067 c 0,0 -1.557954,19.005615 17.898305,20.625001 18.874777,1.570988 19.786017,-15.521187 19.786017,-15.521187"
     id="path4549"
     inkscape:connector-curvature="0"
     sodipodi:nodetypes="csc" />
  <g
     aria-label="FHE"
     transform="scale(1.0130952,0.98707409)"
     style="font-style:normal;font-weight:normal;font-size:40.52380753px;line-height:1.25;font-family:sans-serif;letter-spacing:0px;word-spacing:0px;fill:#02b025;fill-opacity:1;stroke:none;stroke-width:1.01309514"
     id="text4553">
    <path
       d="m 23.140122,111.47179 h -8.488629 v 5.44143 h 7.095624 q 0.986712,0 1.465558,0.44982 0.493356,0.43532 0.493356,1.17535 0,0.74004 -0.493356,1.17535 -0.493356,0.43531 -1.465558,0.43531 h -7.095624 v 7.00856 q 0,1.33497 -0.60944,1.98794 -0.59493,0.63846 -1.538111,0.63846 -0.957691,0 -1.567131,-0.65297 -0.59493,-0.65297 -0.59493,-1.97343 V 110.7898 q 0,-0.92867 0.275699,-1.50909 0.275699,-0.59493 0.856118,-0.85612 0.59493,-0.2757 1.50909,-0.2757 h 10.157334 q 1.030244,0 1.523601,0.46433 0.507866,0.44983 0.507866,1.18986 0,0.75455 -0.507866,1.21888 -0.493357,0.44983 -1.523601,0.44983 z"
       style="letter-spacing:0px;fill:#02b025;fill-opacity:1;stroke-width:1.01309514"
       id="path4783" />
    <path
       d="m 32.702527,110.39801 v 6.0944 h 9.301216 v -6.0944 q 0,-1.30594 0.580419,-1.95891 0.59493,-0.65297 1.552621,-0.65297 0.972202,0 1.567132,0.65297 0.60944,0.63846 0.60944,1.95891 v 16.7596 q 0,1.32046 -0.60944,1.97343 -0.60944,0.65297 -1.567132,0.65297 -0.972202,0 -1.552621,-0.65297 -0.580419,-0.66748 -0.580419,-1.97343 v -7.15366 h -9.301216 v 7.15366 q 0,1.32046 -0.60944,1.97343 -0.609441,0.65297 -1.567132,0.65297 -0.972202,0 -1.552621,-0.65297 -0.580419,-0.66748 -0.580419,-1.97343 v -16.7596 q 0,-1.30594 0.565908,-1.95891 0.580419,-0.65297 1.567132,-0.65297 0.972202,0 1.567132,0.65297 0.60944,0.63846 0.60944,1.95891 z"
       style="letter-spacing:0px;fill:#02b025;fill-opacity:1;stroke-width:1.01309514"
       id="path4785" />
    <path
       d="m 64.959318,111.47179 h -9.70751 v 5.22377 h 8.938454 q 0.986713,0 1.465559,0.44983 0.493356,0.43531 0.493356,1.16083 0,0.72553 -0.478846,1.18986 -0.478846,0.44983 -1.480069,0.44983 h -8.938454 v 6.05087 h 10.041251 q 1.015733,0 1.5236,0.47884 0.522377,0.46434 0.522377,1.2479 0,0.75455 -0.522377,1.23339 -0.507867,0.46434 -1.5236,0.46434 H 53.583103 q -1.407516,0 -2.031467,-0.62395 -0.60944,-0.62395 -0.60944,-2.01696 V 110.7898 q 0,-0.92867 0.275699,-1.50909 0.275699,-0.59493 0.856118,-0.85612 0.59493,-0.2757 1.50909,-0.2757 h 11.376215 q 1.030244,0 1.5236,0.46433 0.507867,0.44983 0.507867,1.18986 0,0.75455 -0.507867,1.21888 -0.493356,0.44983 -1.5236,0.44983 z"
       style="letter-spacing:0px;fill:#02b025;fill-opacity:1;stroke-width:1.01309514"
       id="path4787" />
  </g>
  <g
     aria-label="M"
     transform="scale(1.1018321,0.90757929)"
     style="font-style:normal;font-weight:normal;font-size:44.07328415px;line-height:1.25;font-family:sans-serif;letter-spacing:0px;word-spacing:0px;fill:#02b025;fill-opacity:1;stroke:none;stroke-width:1.10183215"
     id="text4553-8">
    <path
       d="m 72.638863,137.30254 -4.231667,-14.7784 v 15.97083 c 0,0.88376 0.05392,1.5851 -0.34588,2.02698 -0.389276,0.44188 -0.640853,0.66282 -1.293152,0.66282 -0.631258,0 -0.967312,-0.21568 -1.367109,-0.64704 -0.399797,-0.44188 -0.441061,-1.07144 -0.441061,-1.96572 v -18.30648 c 0,-1.01001 0.10439,-1.72714 0.630439,-2.07433 0.526048,-0.35771 1.056739,-0.53657 1.951022,-0.53657 h 1.451893 c 0.87324,0 0.764828,0.0789 1.154104,0.23672 0.399797,0.15782 0.694384,0.44189 0.883761,0.8522 0.189377,0.41032 0.405057,1.0784 0.647039,2.00425 l 4.024524,14.81239 4.082533,-14.77387 c 0.241982,-0.92585 0.457662,-1.59393 0.647039,-2.00425 0.189377,-0.41031 0.478704,-0.69438 0.86798,-0.8522 0.399797,-0.15781 0.391826,-0.27524 1.265066,-0.27524 h 1.451893 c 0.894283,0 1.335237,0.17886 1.861285,0.53657 0.526049,0.34719 0.630439,1.0258 0.630439,2.03581 v 18.30648 c 0,0.88376 -0.04126,1.54658 -0.441062,1.98846 -0.389275,0.44188 -0.646112,0.66282 -1.308933,0.66282 -0.620737,0 -0.906662,-0.22094 -1.306459,-0.66282 -0.399797,-0.44188 -0.377607,-1.18173 -0.377607,-2.06549 v -15.97083 l -4.155071,14.81691 c -0.241982,0.95741 -0.44188,1.66231 -0.599695,2.11471 -0.147293,0.44188 -0.426099,0.84694 -0.836417,1.21517 -0.410317,0.36823 -0.978449,0.55235 -1.704396,0.55235 -0.54709,0 -1.010013,-0.12099 -1.388768,-0.36297 -0.378755,-0.23146 -0.673342,-0.53131 -0.883761,-0.89954 -0.210419,-0.36823 -0.378755,-0.77329 -0.505006,-1.21517 -0.115731,-0.45241 -0.236722,-0.92059 -0.362973,-1.40455 z"
       style="font-style:normal;font-variant:normal;font-weight:normal;font-stretch:normal;font-size:32.32040787px;font-family:'Arial Rounded MT Bold';-inkscape-font-specification:'Arial Rounded MT Bold, ';fill:#02b025;fill-opacity:1;stroke-width:1.10183215"
       id="path4780"
       inkscape:connector-curvature="0"
       sodipodi:nodetypes="ccscscsscsscccccccsscsscssscccsscscc" />
  </g>
</svg>
