<svg xml:space="preserve" fill-rule="evenodd" stroke-linecap="round" stroke-linejoin="round" stroke-miterlimit="1.5" clip-rule="evenodd" viewBox="0 0 512 512" xmlns="http://www.w3.org/2000/svg"><path fill="#00355b" d="M64.116 504.454c-11.522-20.405-16.014-40.699-16.014-59.375 0-73.854 26.002-145.386 85.006-188.049 72.485 21.553 146.409 39.613 214.373 64.58 2.936 1.079 7.596 12.105 10.704 12.022 10.643 67.411 1.879 135.041-61.877 175.855-57.864.579-96.061-.722-190.873-1.671-16.139-.162-29.796-1.119-41.319-3.362"/><path fill="#004b74" d="M296.308 509.487c38.114-48.911 61.048-109.793 61.877-175.855 54.254-1.452 105.304-15.496 150.182-39.237-.363 30.18-1.098 64.12-2.238 115.226-1.736 77.759-20.635 94.849-95.042 97.195-50.28 1.584-85.114 2.375-114.779 2.671"/><path fill="#005a90" d="M305.109 162.245c41.585 32.839 62.547 74.411 62.547 136.635 0 1.239-9.455 33.516-9.471 34.752q-4.662.125-9.355.125c-82.134 0-157.408-28.857-215.722-76.727 32.335-60.935 103.273-98.657 172.001-94.785"/><path fill="#009acf" d="M508.367 294.395c-44.878 23.741-95.928 37.785-150.182 39.237q.024-1.854.024-3.712c0-62.224-19.612-119.991-53.1-167.675a305 305 0 0 1 51.445-4.352c55.431 0 107.344 14.892 151.802 40.815.368 37.625.385 64.67.011 95.687"/><path fill="#004e86" d="M133.108 257.03C72.077 214.302 15.907 103.241 16.472 38.103c13.62-1.81 25.792-4.307 39.783-4.307 103.204 0 194.385 50.886 248.854 128.449-68.053 11.648-128.195 45.996-172.001 94.785"/><path fill="#003c6c" d="M64.116 504.454c-40.961-7.972-54.953-32.189-57.558-94.666-6.159-147.704-6.154-158.351-2-308.48.778-28.118 5.71-49.539 11.914-63.205C26.535 124.958 68.18 203.729 133.108 257.03c-46.182 51.435-74.209 118.919-74.209 192.772 0 18.677 1.792 36.946 5.217 54.652"/><path fill="#00ceff" d="M508.356 198.708c-44.458-25.923-96.371-40.815-151.802-40.815a305 305 0 0 0-51.445 4.352C250.64 84.682 159.459 33.796 56.255 33.796c-13.095 0-28.254 2.718-39.783 4.307 11.963-19.911 39.691-27.671 88.544-30.399 151.399-8.452 161.085-9.068 306.236-1 71.151 3.956 94.779 18.174 95.877 96.028.563 39.93.976 70.398 1.227 95.976"/><path fill="#fff" d="M437.12 145.353c1.072 49.611 2.946 170.576 0 220.847-2.696 46-24.426 68.38-70.435 70.434-45.732 2.042-166.845 5.766-221.847 0-52.471-5.5-65.079-24.199-70.314-70.314-5.691-50.133-5.889-171.269 0-221.271 5.06-42.958 20.619-67.391 70.011-70.01 49.791-2.641 171.457-4.425 222.27 0 43.644 3.8 69.366 26.44 70.315 70.314m-45.929 0c0-13.459-12.928-23.253-24.386-24.385-41.109-4.065-181.212-4.014-222.27 0-11.316 1.106-22.727 12.828-24.082 24.081-4.98 41.348-4.876 180.762 0 221.271 1.372 11.395 12.928 23.251 24.385 24.385 41.039 4.065 180.788 4.085 221.847 0 11.513-1.145 23.359-13.028 24.506-24.505 4.084-40.892 4.927-146.821 0-220.847"/></svg>