<svg xmlns="http://www.w3.org/2000/svg" xmlns:xlink="http://www.w3.org/1999/xlink" viewBox="0 0 218 218"><defs><clipPath id="prefix__b"><use xlink:href="#prefix__a"/></clipPath><path id="prefix__a" d="M159.8 110c0-16.733 4.417-31.6 13.25-44.6l22.4-22.4a121.188 121.188 0 00-9.55-10.95 114.123 114.123 0 00-8.5-7.7L158.1 43.6c-13.934 10.733-30.133 16.1-48.6 16.1-17.933 0-33.8-5.117-47.6-15.35L41.55 24a134.482 134.482 0 00-9 8.05 117.281 117.281 0 00-9.25 10.4l21.05 21c9.733 13.533 14.6 29.05 14.6 46.55 0 17.934-5.034 33.884-15.1 47.85l-19.15 19.2c2.433 2.934 5.05 5.8 7.85 8.601a95.87 95.87 0 0010.7 9.5L61.8 176.55c13.867-10.2 29.767-15.3 47.7-15.3 18.467 0 34.666 5.366 48.6 16.1l17.55 17.55a90.904 90.904 0 007.899-6.95c.866-.7 1.65-1.467 2.351-2.3 2.899-2.934 5.6-5.934 8.1-9l-19-18.95c-10.133-13.867-15.2-29.766-15.2-47.7"/></defs><symbol id="prefix__c" viewBox="-114.25 -98.617 228.55 197.233"><path d="M72.15 90.3l4.7-2.7 4.65 2.7v5.4l-4.65 2.7-4.7-2.7v-5.4zm-9.3 5.4l-4.65 2.7-4.65-2.7v-5.4l4.65-2.7 4.65 2.7v5.4l4.65 2.7 4.65-2.7m-9.3-5.4l4.65-2.7 4.65 2.7m-9.3-10.75v-5.4l4.65-2.7 4.65 2.7v5.4L67.5 82.2l-4.65-2.65-4.65 2.65-4.65-2.65m18.6-5.4l4.7-2.7 4.65 2.7v5.4l-4.65 2.65-4.7-2.65m4.7 8.05v-5.4m-9.35 5.4v-5.4m14 13.5l4.65 2.7 4.65-2.7 4.65 2.7 4.65-2.7 4.65 2.7 4.65-2.7v-5.4l4.65-2.7v-5.4l-4.65-2.65v-5.4l4.65-2.7v-5.4l-4.65-2.7v-5.4l4.65-2.7v-5.4l-4.65-2.65v-5.4l4.65-2.7v-5.4L109.4 31v-5.4l4.65-2.7v-5.4l-4.65-2.65v-5.4l4.65-2.7v-5.4l-4.65-2.7v-5.4l4.65-2.7v-5.4l-4.65-2.65v-5.4l4.65-2.7V-31l-4.65-2.7v-5.4l4.65-2.7v-5.4l-4.65-2.65v-5.4l4.65-2.7v-5.4l-4.65-2.7v-5.4l4.65-2.7v-5.4l-4.65-2.65v-5.4l4.65-2.7v-5.4l-4.65-2.7-4.65 2.7-4.65-2.7-4.65 2.7-4.65-2.7-4.65 2.7-4.65-2.7-4.65 2.7-4.7-2.7-4.65 2.7-4.65-2.7-4.65 2.7-4.65-2.7-4.65 2.7-4.65-2.7-4.65 2.7-4.65-2.7-4.65 2.7-4.7-2.7-4.65 2.7-4.65-2.7-4.65 2.7L7-98.4l-4.65 2.7-4.65-2.7-4.65 2.7-4.65-2.7-4.65 2.7-4.65-2.7-4.65 2.7-4.65-2.7-4.65 2.7-4.7-2.7-4.65 2.7-4.65-2.7-4.65 2.7-4.65-2.7-4.65 2.7-4.65-2.7-4.65 2.7-4.65-2.7-4.65 2.7-4.7-2.7-4.65 2.7-4.65-2.7-4.65 2.7-4.65-2.7-4.65 2.7v5.4l-4.65 2.7v5.4l4.65 2.65v5.4l-4.65 2.7v5.4l4.65 2.7v5.4l-4.65 2.7v5.4l4.65 2.65v5.4l-4.65 2.7v5.4l4.65 2.7v5.4l-4.65 2.7v5.4l4.65 2.65v5.4l-4.65 2.7v5.4l4.65 2.7v5.4l-4.65 2.7v5.4l4.65 2.65v5.4l-4.65 2.7V31l4.65 2.7v5.4l-4.65 2.7v5.4l4.65 2.65v5.4l-4.65 2.7v5.4l4.65 2.7v5.4l-4.65 2.7v5.4l4.65 2.65v5.4l-4.65 2.7v5.4l4.65 2.7 4.65-2.7 4.65 2.7 4.65-2.7 4.65 2.7 4.65-2.7 4.7 2.7 4.65-2.7 4.65 2.7 4.65-2.7 4.65 2.7 4.65-2.7 4.65 2.7 4.65-2.7 4.65 2.7 4.65-2.7 4.7 2.7 4.65-2.7 4.65 2.7 4.65-2.7 4.65 2.7 4.65-2.7 4.65 2.7 4.65-2.7 4.65 2.7L7 95.7l4.65 2.7 4.65-2.7 4.65 2.7 4.65-2.7 4.7 2.7 4.65-2.7 4.65 2.7 4.65-2.7 4.65 2.7 4.65-2.7m-9.3 0v-5.4l4.65-2.7 4.65 2.7m-9.3-10.75v-5.4l4.65-2.7 4.65 2.7v5.4L48.9 82.2l-4.65-2.65-4.65 2.65-4.65-2.65M58.2 87.6v-5.4m-9.3 5.4v-5.4m4.65-18.85v-5.4l4.65-2.7 4.65 2.7v5.4l-4.65 2.7-4.65-2.7-4.65 2.7-4.65-2.7v-5.4l4.65-2.7 4.65 2.7m9.3 16.2l-4.65-2.7v-5.4m-4.65 8.1l4.65-2.7m-9.3 0v-5.4m0-10.8v-5.4l4.65-2.65 4.65 2.65v5.4m9.3 16.2v-5.4l4.65-2.7 4.7 2.7v5.4m-9.35-5.4l-4.65-2.7m-4.65-13.5l4.65-2.65 4.65 2.65v5.4l-4.65 2.7m9.3 5.4v-5.4l4.7-2.7 4.65 2.7v5.4l-4.65 2.7m0-10.8v-5.4l4.65-2.65 4.65 2.65v5.4l-4.65 2.7m-14-2.7l4.65 2.7M34.95 95.7v-5.4l4.65-2.7 4.65 2.7M16.3 95.7v-5.4l4.65-2.7 4.65 2.7v5.4m0-5.4l4.7-2.7 4.65 2.7M25.6 79.55v-5.4l4.7-2.7 4.65 2.7v5.4L30.3 82.2l-4.7-2.65-4.65 2.65-4.65-2.65v-5.4l4.65-2.7 4.65 2.7M20.95 87.6v-5.4m18.65 5.4v-5.4m-9.3 5.4v-5.4M7 95.7v-5.4l4.65-2.7 4.65 2.7m-18.6 5.4v-5.4l4.65-2.7L7 90.3m-4.65-8.1l-4.65-2.65v-5.4l4.65-2.7L7 74.15v5.4L2.35 82.2zm13.95-2.65l-4.65 2.65L7 79.55M2.35 87.6v-5.4m9.3 5.4v-5.4m4.65-8.05l-4.65-2.7v-5.4l4.65-2.7 4.65 2.7v5.4m-18.6 0v-5.4L7 63.35l4.65 2.7m-9.3-16.2L7 47.2l4.65 2.65v5.4L7 57.95l-4.65-2.7v-5.4L-2.3 47.2v-5.4l4.65-2.7L7 41.8v5.4m4.65 8.05l4.65 2.7v5.4M7 74.15l4.65-2.7M7 57.95v5.4m23.3 8.1v-5.4l4.65-2.7 4.65 2.7v5.4l-4.65 2.7M16.3 57.95l4.65-2.7 4.65 2.7v5.4l-4.65 2.7m9.35 0l-4.7-2.7m4.7-13.5l4.65-2.65 4.65 2.65v5.4l-4.65 2.7-4.65-2.7v-5.4l-4.7-2.65v-5.4l-4.65-2.7v-5.4L25.6 31l4.7 2.7v5.4l-4.7 2.7m-13.95 8.05l4.65-2.65 4.65 2.65v5.4m4.65 2.7l4.7-2.7m4.65 2.7v5.4m0-16.15v-5.4l4.65-2.7 4.65 2.7v5.4l-4.65 2.65M25.6 31v-5.4l4.7-2.7 4.65 2.7V31l-4.65 2.7m4.65-8.1l4.65-2.7 4.65 2.7V31l-4.65 2.7-4.65-2.7m-4.65 8.1l4.65 2.7m4.65-2.7v-5.4m-18.65 5.4l-4.65 2.7-4.65-2.7v-5.4L16.3 31l4.65 2.7m-4.65 8.1v5.4M2.35 33.7L-2.3 31v-5.4l4.65-2.7L7 25.6V31l-4.65 2.7zM7 25.6l4.65-2.7 4.65 2.7V31M2.35 39.1v-5.4m9.3 0L7 31m0 10.8l4.65-2.7m0-21.6L7 14.85v-5.4l4.65-2.7 4.65 2.7v5.4l-4.65 2.65zm0 5.4v-5.4m-9.3 5.4v-5.4L7 14.85m0-5.4l-4.65-2.7v-5.4L7-1.35l4.65 2.7v5.4m23.3 8.1v-5.4l4.65-2.7 4.65 2.7v5.4L39.6 17.5l-4.65-2.65zm4.65 8.05v-5.4m-14 8.1l-4.65-2.7v-5.4l4.65-2.65 4.7 2.65v5.4m-14-13.45l4.65-2.7 4.65 2.7v5.4m9.35-5.4l-4.65-2.7v-5.4l4.65-2.7 4.65 2.7v5.4m-27.95-5.4l4.65-2.7 4.65 2.7v5.4m4.65 2.7l4.7-2.7m0 10.75l4.65-2.65M16.3 25.6l4.65-2.7m0-5.4l-4.65-2.65m60.55 35l-4.7-2.65v-5.4l4.7-2.7 4.65 2.7v5.4m-18.65 0v-5.4l4.65-2.7 4.65 2.7m-9.3-16.2l4.65-2.7 4.65 2.7V31l-4.65 2.7-4.65-2.7v-5.4l-4.65-2.7v-5.4m13.95 8.1l4.7-2.7 4.65 2.7V31l-4.65 2.7-4.7-2.7m4.7 8.1v-5.4m-9.35 5.4v-5.4M53.55 47.2v-5.4l4.65-2.7 4.65 2.7m-18.6 0l4.65-2.7 4.65 2.7m-9.3-16.2l4.65-2.7 4.65 2.7V31l-4.65 2.7-4.65-2.7m18.6 0l-4.65 2.7-4.65-2.7m4.65 8.1v-5.4m-9.3 5.4v-5.4m4.65-18.85v-5.4l4.65-2.7 4.65 2.7v5.4L58.2 17.5l-4.65-2.65-4.65 2.65-4.65-2.65m4.65 8.05v-5.4m4.65-8.05l-4.65-2.7v-5.4l4.65-2.7 4.65 2.7v5.4m-13.95 2.7l4.65-2.7M76.85 22.9v-5.4l4.65-2.65 4.65 2.65v5.4l-4.65 2.7m-4.65-8.1l-4.7-2.65v-5.4l4.7-2.7 4.65 2.7v5.4m-14 8.05v-5.4l4.65-2.65M67.5 17.5l-4.65-2.65m9.3-5.4l-4.65-2.7v-5.4l4.65-2.7 4.7 2.7v5.4m-14 2.7l4.65-2.7M53.55 25.6l4.65-2.7M44.25 63.35l-4.65 2.7m0-10.8l4.65 2.7m-4.65 13.5l4.65 2.7m23.25-24.3l4.65-2.65M48.9 49.85l-4.65-2.65m-18.65 0l-4.65 2.65m83.8 37.75l-4.65 2.7-4.65-2.7v-5.4l4.65-2.65 4.65 2.65v5.4l4.65 2.7m0-10.75l-4.65 2.65m-4.65 13.5v-5.4m-18.6 0l4.65-2.7 4.65 2.7v5.4m-9.3-21.55l4.65-2.7 4.65 2.7v5.4l-4.65 2.65-4.65-2.65m9.3 0l4.65 2.65m-9.3 5.4v-5.4m4.65 8.1l4.65-2.7m0-16.15v-5.4l4.65-2.7 4.65 2.7v5.4l-4.65 2.7-4.65-2.7-4.65 2.7m-4.65-18.9l4.65 2.7v5.4l-4.65 2.7-4.65-2.7m4.65 8.1v-5.4m9.3-10.8v-5.4l4.65-2.65 4.65 2.65v5.4l-4.65 2.7-4.65-2.7-4.65 2.7m9.3 5.4v-5.4m-9.3 5.4l4.65 2.7m13.95-2.7l-4.65 2.7m0 5.4l4.65 2.7m-4.65-18.9l4.65 2.7m-9.3 21.6v-5.4m0-26.95v-5.4l4.65-2.7 4.65 2.7m-9.3 0l-4.65-2.7v-5.4l4.65-2.7 4.65 2.7v5.4m4.65-8.1l-4.65 2.7M81.5 41.8l4.65-2.7 4.65 2.7v5.4l-4.65 2.65m0-26.95l4.65 2.7V31l-4.65 2.7L81.5 31m18.6 0v-5.4l4.65-2.7 4.65 2.7M90.8 31l4.65 2.7m-9.3 5.4v-5.4m4.65 8.1l4.65-2.7m-9.3-21.6l4.65-2.65 4.65 2.65v5.4l-4.65 2.7m0-10.75v-5.4l4.65-2.7 4.65 2.7v5.4l-4.65 2.65M81.5 9.45l4.65-2.7 4.65 2.7m-4.65-2.7v-5.4l4.65-2.7 4.65 2.7v5.4m4.65 8.1l4.65 2.65v5.4m4.65-8.05l-4.65 2.65m-4.65-8.05l4.65-2.7 4.65 2.7m-13.95-8.1l4.65-2.7 4.65 2.7v5.4m-9.3 16.15l4.65 2.7m9.3 21.6l-4.65 2.65M90.8 47.2l4.65 2.65m9.3-59.3l-4.65 2.7-4.65-2.7v-5.4l4.65-2.65 4.65 2.65v5.4l4.65 2.7m0-10.75l-4.65 2.65m-4.65 13.5v-5.4m-9.3 5.4v-5.4l4.65-2.7M81.5-6.75l-4.65-2.7v-5.4l4.65-2.65 4.65 2.65v5.4l-4.65 2.7v5.4l-4.65 2.7m13.95-8.1l-4.65-2.7m9.3-5.4L90.8-17.5v-5.4l4.65-2.7 4.65 2.7v5.4m-23.25 2.65l-4.7-2.65v-5.4l4.7-2.7 4.65 2.7v5.4m4.65 2.65l4.65-2.65M95.45-31l-4.65-2.7v-5.4l4.65-2.7 4.65 2.7v5.4L95.45-31zm0 5.4V-31m-4.65 8.1l-4.65-2.7V-31l4.65-2.7M86.15-31l-4.65-2.7v-5.4l4.65-2.7 4.65 2.7m-4.65-2.7v-5.4l4.65-2.65 4.65 2.65v5.4m4.65 8.1l4.65 2.7v5.4l-4.65 2.7m9.3-10.8l-4.65 2.7m-9.3-16.2l4.65-2.65 4.65 2.65v5.4l-4.65 2.7m4.65-2.7l4.65 2.7M81.5-22.9l4.65-2.7m18.6 0l4.65 2.7m-9.3-26.95v-5.4l4.65-2.7 4.65 2.7m0-10.8l-4.65 2.7-4.65-2.7v-5.4l4.65-2.7 4.65 2.7m-4.65 8.1v5.4m-4.65 2.7l-4.65-2.7v-5.4l4.65-2.7M86.15-47.2l-4.65-2.65v-5.4l4.65-2.7 4.65 2.7v5.4m-4.65-24.3l4.65 2.7v5.4l-4.65 2.7-4.65-2.7v-5.4l4.65-2.7v-5.4l4.65-2.65 4.65 2.65m-4.65 8.1l4.65-2.7 4.65 2.7m-4.65 8.1l-4.65-2.7m0 10.8l4.65-2.7m-9.3 0v-5.4m9.3-10.8v-5.4l4.65-2.65 4.65 2.65v5.4m-23.25 2.7l-4.65-2.7v-5.4l4.65-2.65 4.65 2.65M81.5-82.2v-5.4l4.65-2.7 4.65 2.7v5.4m-4.65-8.1v-5.4m18.6 0v5.4l-4.65 2.7-4.65-2.7v-5.4m4.65 13.5v-5.4m-4.65-2.7l-4.65 2.7m18.6 5.4l-4.65 2.65m0-10.75l4.65 2.7m0 37.75l-4.65 2.65M72.15-1.35v-5.4l4.7-2.7M67.5 1.35l-4.65-2.7v-5.4l4.65-2.7 4.65 2.7m0-10.75l-4.65 2.65-4.65-2.65v-5.4l4.65-2.7 4.65 2.7m-4.65 8.05v5.4m-13.95 8.1v-5.4l4.65-2.7 4.65 2.7M48.9 1.35l-4.65-2.7v-5.4l4.65-2.7 4.65 2.7m-9.3-16.15l4.65-2.7 4.65 2.7v5.4l-4.65 2.65-4.65-2.65v-5.4l-4.65-2.7V-31m13.95 13.5l4.65 2.65v5.4m-9.3 0v-5.4m4.65-18.85v-5.4l4.65-2.7 4.65 2.7v5.4L58.2-31l-4.65-2.7zm9.3 10.8l-4.65-2.7V-31m-9.3 5.4V-31l4.65-2.7M48.9-31l-4.65-2.7v-5.4l4.65-2.7 4.65 2.7m-4.65-2.7v-5.4l4.65-2.65 4.65 2.65v5.4m18.65 16.2V-31l4.65-2.7M76.85-31l-4.7-2.7v-5.4l4.7-2.7 4.65 2.7m-18.65 5.4L67.5-31v5.4m4.65-13.5l-4.65-2.7v-5.4l4.65-2.65 4.7 2.65v5.4m-14 2.7l4.65-2.7m4.65 8.1L67.5-31m-13.95 8.1l4.65-2.7m0 10.75l4.65-2.65M30.3 1.35l-4.7-2.7v-5.4l4.7-2.7 4.65 2.7v5.4m-4.65-8.1v-5.4l4.65-2.65 4.65 2.65v5.4l-4.65 2.7M16.3-1.35v-5.4l4.65-2.7 4.65 2.7m4.7-8.1l-4.7-2.65v-5.4l4.7-2.7 4.65 2.7v5.4m-9.35 0l-4.65 2.65-4.65-2.65v-5.4l4.65-2.7 4.65 2.7m-4.65 8.05v5.4m-4.65 2.7l-4.65-2.7v-5.4l4.65-2.65M2.35 1.35l-4.65-2.7v-5.4l4.65-2.7L7-6.75v5.4M7-17.5l-4.65 2.65-4.65-2.65v-5.4l4.65-2.7L7-22.9v5.4l4.65 2.65m0 5.4L7-6.75m-4.65-2.7v-5.4M11.65-31L7-33.7v-5.4l4.65-2.7 4.65 2.7v5.4L11.65-31zm4.65 8.1l-4.65-2.7V-31m-9.3 5.4V-31L7-33.7m0-5.4l-4.65-2.7v-5.4L7-49.85l4.65 2.65v5.4m32.6 8.1L39.6-31l-4.65-2.7v-5.4l4.65-2.7 4.65 2.7m-23.3 13.5V-31l4.65-2.7 4.7 2.7v5.4m-9.35-21.6l4.65-2.65 4.7 2.65v5.4l-4.7 2.7-4.65-2.7v-5.4l-4.65-2.65v-5.4l4.65-2.7 4.65 2.7m4.7 8.05l4.65-2.65 4.65 2.65v5.4m-9.3 0l4.65 2.7m-9.35 5.4v-5.4m9.35 5.4L30.3-31m4.65 8.1l4.65-2.7M20.95-31l-4.65-2.7m0-5.4l4.65-2.7M7-22.9l4.65-2.7m23.3-29.65l-4.65-2.7v-5.4l4.65-2.7 4.65 2.7v5.4l-4.65 2.7v5.4m-9.35 0v-5.4l4.7-2.7m0-5.4l-4.7-2.7v-5.4l4.7-2.7 4.65 2.7v5.4m-9.35 0l-4.65 2.7-4.65-2.7v-5.4l4.65-2.7 4.65 2.7m4.7-2.7v-5.4l4.65-2.65 4.65 2.65v5.4l-4.65 2.7m-14 8.1v5.4M7-49.85v-5.4l4.65-2.7 4.65 2.7M2.35-47.2l-4.65-2.65v-5.4l4.65-2.7L7-55.25m-4.65-8.1l-4.65-2.7v-5.4l4.65-2.7L7-71.45v5.4l-4.65 2.7zm13.95-8.1l-4.65-2.7v-5.4l4.65-2.65 4.65 2.65v5.4m-9.3 16.2v-5.4l4.65-2.7m-13.95 8.1v-5.4M7-66.05l4.65 2.7m0-10.8L7-71.45m-4.65-2.7v-5.4L7-82.2l4.65 2.65m0-16.15v5.4L7-87.6l-4.65-2.7v-5.4m18.6 0v5.4l-4.65 2.7-4.65-2.7M7-87.6v5.4m9.3-5.4v5.4m4.65-8.1l4.65 2.7v5.4l-4.65 2.65m9.35 0l-4.7-2.65m4.7-13.5v5.4l-4.7 2.7m23.3-8.1v5.4l-4.65 2.7-4.65-2.7v-5.4m-4.65 13.5v-5.4l4.65-2.7m-9.3 0l4.65 2.7m37.2 37.75v-5.4l4.7-2.7 4.65 2.7m-14 8.05l-4.65-2.65v-5.4l4.65-2.7 4.65 2.7m-4.65-18.9l4.65 2.7v5.4l-4.65 2.7-4.65-2.7v-5.4l4.65-2.7v-5.4l4.65-2.65 4.7 2.65m4.65 13.5l-4.65 2.7-4.7-2.7m0-5.4l4.7-2.7m0 10.8v5.4m-9.35 0v-5.4m-13.95 13.5v-5.4l4.65-2.7 4.65 2.7M48.9-47.2l-4.65-2.65v-5.4l4.65-2.7 4.65 2.7m-9.3-10.8v-5.4l4.65-2.7 4.65 2.7v5.4l-4.65 2.7-4.65-2.7-4.65 2.7m23.25-2.7l-4.65 2.7-4.65-2.7m0-5.4l4.65-2.7 4.65 2.7m-4.65 13.5v-5.4m-9.3 5.4v-5.4m0-10.8v-5.4l4.65-2.65 4.65 2.65v5.4m-9.3-5.4l-4.65-2.65v-5.4m13.95-8.1v5.4l-4.65 2.7-4.65-2.7m4.65 2.7v5.4m4.65 2.65l4.65-2.65 4.65 2.65m-4.65-2.65v-5.4l4.65-2.7 4.65 2.7v5.4m-4.65-8.1v-5.4m9.35 0v5.4l-4.7 2.7M58.2-90.3l4.65 2.7m-18.6 70.1l-4.65 2.65m0 5.4l4.65 2.7m-4.65-67.4l4.65 2.7m-4.65 13.5l4.65 2.7m0 5.4L39.6-47.2m23.25-2.65L58.2-47.2m-41.9-2.65l-4.65 2.65m32.6-35l-4.65 2.65M76.85-90.3l4.65 2.7m0 37.75l-4.65 2.65m9.3 48.55l-4.65-2.7m-37.25 0l-4.65 2.7m23.25-2.7l-4.65 2.7m51.2-2.7l-4.65 2.7M25.6-1.35l-4.65 2.7M-95.4 95.7v-5.4l4.65-2.7 4.65 2.7v5.4m0-5.4l4.7-2.7 4.65 2.7v5.4m-27.95 0v-5.4l4.65-2.7 4.65 2.7m-4.65-8.1l-4.65-2.65v-5.4l4.65-2.7 4.65 2.7v5.4l-4.65 2.65zm4.65-8.05l4.65-2.7 4.65 2.7v5.4l-4.65 2.65-4.65-2.65m9.3-5.4l4.7-2.7 4.65 2.7v5.4l-4.65 2.65-4.7-2.65m-13.95 8.05v-5.4m9.3 5.4v-5.4m9.35 5.4v-5.4m-27.95 5.4l4.65 2.7m0-10.75l-4.65 2.65m0-26.95l4.65 2.7v5.4l-4.65 2.7m0 5.4l4.65 2.7m13.95-8.1l-4.65-2.7v-5.4l4.65-2.7 4.65 2.7v5.4l-4.65 2.7v5.4m4.65-13.5l4.7-2.7 4.65 2.7v5.4l-4.65 2.7-4.7-2.7m4.7 8.1v-5.4m-18.65 5.4v-5.4l4.65-2.7m0-5.4l-4.65-2.7v-5.4l4.65-2.65 4.65 2.65v5.4m9.35 0v-5.4l4.65-2.65 4.65 2.65v5.4l-4.65 2.7m-23.3 8.1l-4.65-2.7m0-5.4l4.65-2.7M-86.1 41.8l-4.65-2.7v-5.4l4.65-2.7 4.7 2.7v5.4l-4.7 2.7zm4.7 8.05l-4.7-2.65v-5.4m-13.95 8.05l-4.65-2.65v-5.4l4.65-2.7 4.65 2.7v5.4m0-16.2l-4.65 2.7-4.65-2.7v-5.4l4.65-2.7 4.65 2.7V31l4.65 2.7m4.65-2.7v-5.4l4.7-2.7 4.65 2.7V31l-4.65 2.7m-18.65 5.4v-5.4m9.3 5.4l-4.65 2.7m-13.95-2.7l4.65 2.7m0-10.8l-4.65 2.7m0-26.95l4.65 2.7v5.4l-4.65 2.65m23.25-2.65v-5.4l4.7-2.7 4.65 2.7v5.4l-4.65 2.65-4.7-2.65zm4.7 8.05v-5.4m-4.7 8.1l-4.65-2.7v-5.4l4.65-2.65m-13.95 8.05v-5.4l4.65-2.65 4.65 2.65m-9.3-10.75v-5.4l4.65-2.7 4.65 2.7v5.4l-4.65 2.7-4.65-2.7zm18.65 0v-5.4l4.65-2.7 4.65 2.7v5.4l-4.65 2.7m-14-2.7l4.65 2.7m-9.3 5.4v-5.4m0 16.15l4.65-2.7m-9.3-5.4l-4.65-2.65m0-5.4l4.65-2.7m-9.3 16.15l4.65 2.7m18.6 21.6l-4.65 2.65m-13.95-2.65l-4.65 2.65M-11.6 95.7v-5.4l4.65-2.7 4.65 2.7m-18.6 5.4v-5.4l4.65-2.7 4.65 2.7m-4.65-8.1l-4.65-2.65v-5.4l4.65-2.7 4.65 2.7v5.4l-4.65 2.65v5.4m13.95-8.05l-4.65 2.65-4.65-2.65m4.65 2.65v5.4m-23.25 8.1v-5.4l4.65-2.7 4.65 2.7m-18.65 5.4v-5.4l4.7-2.7 4.65 2.7m-9.35-10.75v-5.4l4.7-2.7 4.65 2.7v5.4l-4.65 2.65-4.7-2.65-4.65 2.65-4.65-2.65m27.95 0l-4.65 2.65-4.65-2.65m-4.65 8.05v-5.4m9.3 5.4v-5.4m4.65-8.05l-4.65-2.7v-5.4l4.65-2.7 4.65 2.7v5.4m-13.95 2.7l4.65-2.7m0-5.4l-4.65-2.7v-5.4l4.65-2.7 4.65 2.7v5.4m-18.65 10.8l-4.65-2.7v-5.4l4.65-2.7 4.7 2.7v5.4m4.65-13.5l-4.65-2.7v-5.4l4.65-2.65 4.65 2.65v5.4m-14 8.1v-5.4l4.7-2.7m4.65 8.1l-4.65 2.7m23.25 8.1l4.65-2.7 4.65 2.7m-4.65-8.1l-4.65-2.7v-5.4l4.65-2.7 4.65 2.7v5.4l-4.65 2.7v5.4m-9.3-5.4l4.65-2.7m0-5.4l-4.65-2.7v-5.4l4.65-2.65 4.65 2.65v5.4m-9.3 0l-4.65 2.7M-48.85 95.7v-5.4l4.65-2.7 4.65 2.7m-18.6 5.4v-5.4l4.65-2.7 4.65 2.7m-9.3-10.75v-5.4l4.65-2.7 4.65 2.7v5.4l-4.65 2.65-4.65-2.65-4.65 2.65-4.65-2.65m23.25 8.05v-5.4m-9.3 5.4v-5.4m-13.95 13.5v-5.4l4.65-2.7 4.65 2.7m-18.6 0l4.65-2.7 4.65 2.7m-9.3-16.15l4.65-2.7 4.65 2.7v5.4l-4.65 2.65-4.65-2.65m13.95 8.05v-5.4m-9.3 5.4v-5.4m4.65-8.05l4.65-2.7 4.65 2.7m-4.65-2.7v-5.4l4.65-2.7 4.65 2.7v5.4m-9.3-5.4l-4.65-2.7v-5.4l4.65-2.7 4.65 2.7v5.4m-18.6 0l4.65 2.7v5.4m9.3-16.2v-5.4l4.65-2.65 4.65 2.65v5.4l-4.65 2.7m-9.3 5.4l-4.65 2.7m0-10.8l4.65 2.7m18.6 16.2l4.65-2.7m0-5.4l-4.65-2.7v-5.4l4.65-2.7 4.65 2.7m-13.95-8.1l4.65-2.65 4.65 2.65v5.4m-9.3 10.8l4.65-2.7m-4.65-8.1l4.65 2.7m0-10.75v-5.4l4.65-2.7 4.65 2.7v5.4l-4.65 2.65m-13.95-2.65v-5.4l4.65-2.7 4.65 2.7m-9.3-16.2l4.65-2.7 4.65 2.7V31l-4.65 2.7-4.65-2.7v-5.4l-4.65-2.7v-5.4m13.95 8.1l4.65-2.7 4.65 2.7V31l-4.65 2.7-4.65-2.7m4.65 8.1v-5.4m-9.3 5.4v-5.4m-9.3 16.15l-4.65-2.65v-5.4l4.65-2.7 4.65 2.7m-18.6 5.4v-5.4l4.65-2.7 4.65 2.7m-9.3-16.2l4.65-2.7 4.65 2.7V31l-4.65 2.7-4.65-2.7m18.6 0l-4.65 2.7-4.65-2.7m-4.65 8.1v-5.4m9.3 5.4v-5.4m-4.65-18.85v-5.4l4.65-2.7 4.65 2.7v5.4l-4.65 2.65-4.65-2.65-4.65 2.65-4.65-2.65m4.65 8.05v-5.4m9.3-10.75v-5.4l4.65-2.7 4.65 2.7v5.4l-4.65 2.7m-13.95-2.7l4.65 2.7M-44.2 22.9v-5.4l4.65-2.65 4.7 2.65v5.4l-4.7 2.7m-4.65-8.1l-4.65-2.65v-5.4l4.65-2.7 4.65 2.7v5.4m-9.3 0l-4.65 2.65-4.65-2.65m4.65 8.05v-5.4m9.3-10.75v-5.4l4.65-2.7 4.7 2.7v5.4l-4.7 2.7m-13.95-2.7l4.65 2.7m-18.6 16.15l4.65-2.7m51.2 24.3v-5.4l4.65-2.7 4.65 2.7m-9.3 0l-4.65-2.7v-5.4l4.65-2.7 4.65 2.7v5.4m-9.3-5.4L-20.9 31v-5.4l4.65-2.7 4.65 2.7V31m9.3 0l-4.65 2.7M-30.2 47.2v-5.4l4.65-2.7 4.65 2.7v5.4l-4.65 2.65m-14-8.05l4.7-2.7 4.65 2.7m-4.65-18.9l4.65 2.7V31l-4.65 2.7-4.7-2.7m18.65 0l-4.65 2.7-4.65-2.7m-4.65 8.1v-5.4m9.3 5.4v-5.4m4.65-8.1l-4.65-2.7v-5.4l4.65-2.65 4.65 2.65v5.4m-9.3-5.4l-4.65-2.65v-5.4l4.65-2.7 4.65 2.7v5.4m-4.65-8.1v-5.4l4.65-2.7 4.65 2.7v5.4l-4.65 2.7m-9.3 5.4l-4.65 2.65m0-10.75l4.65 2.7m23.25 8.05l-4.65-2.65v-5.4l4.65-2.7 4.65 2.7v5.4l-4.65 2.65v5.4l-4.65 2.7m0-10.75l-4.65 2.65m0-10.75l4.65 2.7m-4.65-8.1l4.65-2.7 4.65 2.7v5.4m0 16.15l4.65 2.7m-27.9 0l4.65-2.7m9.3 16.2l-4.65 2.7m-46.55 5.4l-4.65 2.65m69.8-2.65l-4.65 2.65m-27.9 0l-4.7-2.65m23.3 2.65l-4.65-2.65m-60.5-8.1l4.65 2.7M-11.6-1.35v-5.4l4.65-2.7 4.65 2.7m-9.3 0l-4.65-2.7v-5.4l4.65-2.65 4.65 2.65v5.4m-9.3-5.4l-4.65-2.65v-5.4l4.65-2.7 4.65 2.7v5.4m9.3 0l-4.65 2.65M-20.9-1.35v-5.4l4.65-2.7m-4.65 2.7l-4.65-2.7v-5.4l4.65-2.65m-4.65 8.05l-4.65 2.7-4.65-2.7v-5.4l4.65-2.65 4.65 2.65m-4.65 8.1v5.4l-4.65 2.7m-4.7-2.7v-5.4l4.7-2.7m0-5.4l-4.7-2.65v-5.4l4.7-2.7 4.65 2.7v5.4m0-16.2v-5.4l4.65-2.7 4.65 2.7v5.4l-4.65 2.7-4.65-2.7-4.65 2.7-4.7-2.7v-5.4l4.7-2.7 4.65 2.7m9.3 16.2l-4.65-2.7V-31m-9.3 5.4V-31m-4.7-8.1l-4.65-2.7v-5.4l4.65-2.65 4.7 2.65v5.4m9.3 0v-5.4l4.65-2.65 4.65 2.65v5.4l-4.65 2.7M-6.95-31l-4.65-2.7v-5.4l4.65-2.7 4.65 2.7v5.4L-6.95-31v5.4l-4.65 2.7m-4.65-2.7V-31l4.65-2.7m-4.65-8.1l4.65 2.7m-4.65-8.1l4.65-2.65 4.65 2.65v5.4M-30.2-22.9l4.65-2.7m9.3-5.4l-4.65-2.7m13.95 8.1l4.65 2.7M-44.2 1.35l-4.65-2.7v-5.4l4.65-2.7 4.65 2.7m-18.6 5.4v-5.4l4.65-2.7 4.65 2.7m-9.3 0l-4.65-2.7v-5.4l4.65-2.65 4.65 2.65v5.4m-9.3-5.4l-4.65-2.65v-5.4l4.65-2.7 4.65 2.7v5.4m18.6 0l-4.65 2.65-4.65-2.65v-5.4l4.65-2.7 4.65 2.7M-44.2-9.45v-5.4m-9.3 0l4.65-2.65M-62.8 1.35l-4.65-2.7v-5.4l4.65-2.7m-13.95 2.7l-4.65-2.7v-5.4l4.65-2.65 4.65 2.65v5.4l-4.65 2.7v5.4m0-16.15v-5.4l4.65-2.7 4.65 2.7m0 5.4l-4.65 2.65m0 5.4l4.65 2.7m0-26.95v-5.4l4.65-2.7 4.65 2.7v5.4L-62.8-31l-4.65-2.7zm4.65 8.1V-31m-9.3 5.4V-31l4.65-2.7M-72.1-31l-4.65-2.7v-5.4l4.65-2.7 4.65 2.7m-9.3 0l-4.65-2.7v-5.4l4.65-2.65 4.65 2.65v5.4m9.3 0v-5.4l4.65-2.65 4.65 2.65v5.4l-4.65 2.7m13.95 13.5V-31l4.65-2.7M-44.2-31l-4.65-2.7v-5.4l4.65-2.7m-4.65 8.1L-53.5-31l-4.65-2.7m9.3 10.8l-4.65-2.7V-31m0-10.8l4.65 2.7m-9.3 16.2l4.65-2.7m-4.65-24.25v-5.4l4.65-2.7 4.65 2.7v5.4l-4.65 2.65m4.65-8.05l4.65-2.7 4.65 2.7v5.4m-18.6-21.6l4.65-2.7 4.65 2.7v5.4l-4.65 2.7-4.65-2.7v-5.4zm9.3 0l4.65-2.7 4.65 2.7v5.4l-4.65 2.7-4.65-2.7m4.65 8.1v-5.4m-9.3 5.4v-5.4m-23.25 13.5v-5.4l4.65-2.7 4.65 2.7v5.4l-4.65 2.65m4.65-8.05l4.65-2.7 4.65 2.7m-18.6 0l-4.65-2.7v-5.4l4.65-2.7 4.65 2.7v5.4m-9.3-5.4l-4.7-2.7v-5.4l4.7-2.7 4.65 2.7v5.4m-4.65-8.1v-5.4l4.65-2.65 4.65 2.65v5.4l-4.65 2.7m18.6 5.4l-4.65 2.7-4.65-2.7v-5.4l4.65-2.7 4.65 2.7m-4.65 13.5v-5.4m-9.3-10.8l4.65 2.7m0 5.4l-4.65 2.7m4.65-18.85v-5.4l4.65-2.7 4.65 2.7v5.4l-4.65 2.65-4.65-2.65-4.65 2.65m-4.65-2.65v-5.4l4.65-2.7 4.65 2.7m-4.65-2.7v-5.4m9.3 5.4v-5.4m9.3 21.55v-5.4l4.65-2.65 4.65 2.65v5.4m-13.95-8.05l4.65 2.65m-4.65-8.05l4.65-2.7 4.65 2.7v5.4m-4.65-8.1v-5.4m9.3 0v5.4l-4.65 2.7M-62.8-74.15v-5.4m51.2 29.7v-5.4l4.65-2.7 4.65 2.7m-18.6 5.4v-5.4l4.65-2.7 4.65 2.7m-4.65-8.1l-4.65-2.7v-5.4l4.65-2.7 4.65 2.7v5.4l-4.65 2.7v5.4m13.95-8.1l-4.65 2.7-4.65-2.7m0-5.4l4.65-2.7 4.65 2.7m-4.65 8.1v5.4m-18.6 10.75l-4.65-2.65v-5.4l4.65-2.7 4.65 2.7m-18.65 0l4.7-2.7 4.65 2.7m-9.35-16.2l4.7-2.7 4.65 2.7v5.4l-4.65 2.7-4.7-2.7m18.65-5.4l-4.65-2.7v-5.4l4.65-2.65 4.65 2.65v5.4m-4.65 8.1l-4.65 2.7-4.65-2.7m4.65-8.1l-4.65 2.7m-4.65 8.1v5.4m9.3 0v-5.4m-9.3-10.8v-5.4l4.65-2.65 4.65 2.65m-18.65 0l4.65-2.65 4.7 2.65m-4.7-2.65v-5.4l4.7-2.7 4.65 2.7v5.4m-4.65-8.1v-5.4m18.6 0v5.4l-4.65 2.7-4.65-2.7v-5.4m0 5.4l-4.65 2.7m9.3 5.4v-5.4m13.95 8.05l-4.65-2.65v-5.4l4.65-2.7 4.65 2.7v5.4l-4.65 2.65v5.4m-9.3-5.4l4.65-2.65m0-5.4l-4.65-2.7m9.3-5.4v5.4m-37.25 0l4.65 2.7M-62.8-47.2l-4.65-2.65m23.25 2.65l-4.65-2.65m18.65 0l-4.65 2.65m32.55-2.65l-4.65 2.65M-95.4-1.35v-5.4l4.65-2.7 4.65 2.7v5.4l-4.65 2.7m4.65-8.1l4.7-2.7m-18.65 10.8l-4.65-2.7v-5.4l4.65-2.7 4.65 2.7m0-10.75l-4.65 2.65-4.65-2.65v-5.4l4.65-2.7 4.65 2.7v5.4zm0-5.4l4.65-2.7 4.65 2.7v5.4l-4.65 2.65-4.65-2.65m14 2.65l-4.7-2.65m-13.95 8.05v-5.4m9.3 0v5.4m-18.6 0l4.65 2.7m0-10.75l-4.65 2.65m0-26.95l4.65 2.7v5.4l-4.65 2.7m18.6 5.4V-31l4.65-2.7 4.7 2.7v5.4l-4.7 2.7m-13.95-2.7V-31l4.65-2.7 4.65 2.7m-9.3-16.2l4.65-2.65 4.65 2.65v5.4l-4.65 2.7-4.65-2.7v-5.4l-4.65-2.65m13.95 8.05l4.65 2.7v5.4m0-5.4l4.7-2.7m-14 8.1v-5.4m-13.95 13.5l4.65 2.7m4.65-8.1l-4.65-2.7m0-5.4l4.65-2.7m4.65-8.05v-5.4l4.65-2.7 4.65 2.7v5.4l-4.65 2.65m4.65-8.05l4.7-2.7m-14 2.7l-4.65-2.7v-5.4l4.65-2.7 4.65 2.7v5.4m-9.3-5.4l-4.65-2.7v-5.4l4.65-2.7 4.65 2.7v5.4m0-5.4l4.65-2.7 4.65 2.7m0 5.4l-4.65 2.7m-18.6 5.4l4.65 2.7v5.4l-4.65 2.65m0-26.95l4.65 2.7m0 5.4l-4.65 2.7m0-26.95l4.65 2.7v5.4l-4.65 2.65m27.95 0l-4.7-2.65v-5.4l4.7-2.7 4.65 2.7m-9.35 5.4l-4.65 2.65-4.65-2.65v-5.4l4.65-2.7 4.65 2.7m-13.95 13.45v-5.4l4.65-2.65m0-5.4l-4.65-2.7v-5.4m18.65 0v5.4m-9.35-5.4v5.4m0 10.75v5.4m-13.95 18.9l4.65-2.7m0-21.6l-4.65-2.65m0-5.4l4.65-2.7m18.65 43.1l-4.7-2.65m9.35 16.15L-81.4-31m0 5.4l4.65 2.7m9.3 21.55l-4.65 2.7m-32.6-2.7l-4.65 2.7m27.95 0l-4.7-2.7m60.55 2.7l-4.65-2.7m-23.3 2.7l4.65-2.7m46.55 0l-4.65 2.7m4.65 56.6l4.65-2.7m0 10.8l-4.65-2.7m0-102.45l4.65-2.7m0 10.8l-4.65-2.7m4.65-45.85L-2.3-82.2m0-5.4l4.65-2.7M-2.3 9.45l4.65-2.7m0 10.75l-4.65-2.65" fill="none" stroke-miterlimit="1" stroke="#989898" fill-rule="evenodd" stroke-linecap="square" stroke-width=".5"/></symbol><path d="M217.5 108.95c0 29.833-10.533 55.399-31.6 76.7-.7.833-1.484 1.6-2.351 2.3a93.038 93.038 0 01-11 9.25c-18.267 13.467-39.366 20.2-63.3 20.2-23.967 0-45.033-6.733-63.2-20.2-4.8-3.4-9.3-7.25-13.5-11.55-16.367-16.267-26.417-35.167-30.15-56.7-.733-4.2-1.217-8.467-1.45-12.8-.1-2.4-.15-4.801-.15-7.2 0-2.534.05-4.95.15-7.25 0-.233.066-.467.2-.7 1.567-26.6 12.033-49.583 31.4-68.95C53.85 11.017 79.417.5 109.25.5c29.934 0 55.483 10.517 76.65 31.55 21.067 21.433 31.6 47.067 31.6 76.9" fill="#efeeee" fill-rule="evenodd"/><path d="M195.45 43l-22.4 22.4c-8.833 13-13.25 27.867-13.25 44.6 0 17.934 5.067 33.833 15.2 47.7l19 18.95c-2.5 3.066-5.2 6.066-8.1 9-.7.833-1.484 1.6-2.351 2.3a90.904 90.904 0 01-7.899 6.95l-17.55-17.55c-13.934-10.733-30.133-16.1-48.6-16.1-17.933 0-33.833 5.1-47.7 15.3l-18.55 18.6a95.782 95.782 0 01-10.7-9.5 125.357 125.357 0 01-7.85-8.601l19.15-19.2c10.066-13.966 15.1-29.916 15.1-47.85 0-17.5-4.867-33.017-14.6-46.55l-21.05-21c2.833-3.6 5.917-7.067 9.25-10.4a134.482 134.482 0 019-8.05L61.9 44.35C75.7 54.583 91.567 59.7 109.5 59.7c18.467 0 34.666-5.367 48.6-16.1l19.3-19.25a114.123 114.123 0 018.5 7.7A121.188 121.188 0 01195.45 43" fill="#010101" fill-rule="evenodd"/><g clip-path="url(#prefix__b)"><use xlink:href="#prefix__c" width="228.55" height="197.233" x="-114.25" y="-98.617" transform="matrix(1.1415 0 0 -1.1415 105.5 107.75)"/></g><g fill-rule="evenodd"><path d="M79.1 110.95a40.448 40.448 0 010-4c0-.067.017-.134.05-.2.434-7.367 3.333-13.733 8.7-19.1 5.9-5.833 12.983-8.75 21.25-8.75 8.301 0 15.384 2.917 21.25 8.75 5.834 5.934 8.75 13.033 8.75 21.3 0 8.267-2.916 15.35-8.75 21.25-.199.233-.416.45-.649.649a27.447 27.447 0 01-3.05 2.551c-5.066 3.733-10.917 5.6-17.551 5.6-6.633 0-12.466-1.866-17.5-5.6a26.18 26.18 0 01-3.75-3.2c-4.533-4.5-7.317-9.733-8.35-15.7-.2-1.166-.333-2.35-.4-3.55m47 16.3l3.601 3.6-3.601-3.6" fill="#35c6f4"/><g fill="none" stroke-miterlimit="1" stroke="#35c6f4"><path d="M158.6 60.25l-15 14.65M31.7 33.1l40.75 40.65m53.65 53.5l3.601 3.6M157.05 158l27.65 28.6m-31.65-32.65l-10.75-11.2M186.6 33l-28 27.25m-125.45 126l27.35-27.4" stroke-width="2"/><path d="M158.6 60.25l-16.949 17.2M59.4 61.35L76.6 78.5m-16.1 80.35l16.75-17.399m75.8 12.499l4 4.05m-17.6-17.6l13.6 13.55" stroke-width="7"/></g></g></svg>