<svg viewBox="0 0 1200 1200" xmlns="http://www.w3.org/2000/svg"><circle cx="600" cy="600" r="566" style="fill-rule:nonzero;paint-order:fill;stroke:#333;stroke-width:60px;fill:#ff69b4"/><path d="M143.133 291.96q-1.926 0-1.312-2.461.587-2.354 3.42-5.992l28.067-29.746q12.938-13.696 19.727-22.47t7.695-12.412q.427-1.712-.644-2.568t-2.702-1.177-3.13-.321q-9.095 0-28.134 11.128-5.374 3.103-10.187 6.955t-9.223 8.239q-8.607 8.774-10.101 14.766-1.148 4.601 2.892 5.564 1.499.428 3.532.428 3.852 0 8.184-1.926t8.717-4.922q3.369-2.354 3.797-2.354t.134.749q-1.202 2.247-4.17 4.28t-6.805 3.691-7.542 2.568-6.38.91q-4.28 0-6.942-2.194-2.664-2.193-1.596-6.473 1.627-6.527 11.598-16.05 9.57-9.202 22.058-16.371 5.134-2.996 11.7-5.725t12.997-4.494 11.14-1.765q8.453 0 7.066 5.564-1.681 6.741-15.954 23.219-9.997 11.342-25.662 26.964-12.965 12.947-13.072 12.947.32 0 13.02-11.021 7.806-6.848 14.557-12.252 6.75-5.403 12.365-9.469 2.754-2.033 6.724-5.083l9.264-7.115q4.6-3.424 8.877-6.206t7.274-2.782q3.103 0 3.693 1.498-12.885 12.198-25.847 29.853-9.247 12.626-10.875 19.153-.96 3.852.646 5.564t4.923 1.712q3.638 0 8.158-2.033t9.278-5.243 9.064-6.741q15.4-12.412 26.277-26.857 8.5-11.342 10.18-18.083.16-.642.24-1.177t.08-.963q-2.248 0-4.229-2.354-1.285-1.284-.938-2.675.32-1.284 1.604-2.14 1.283-.856 2.674-.856 2.033 0 2.543 1.819.214.856 1.178 2.14.643.856.429 1.284.402.963 1.9.963t3.156-1.284 3.262-1.284q.856 0 .696.642-.293 1.177-2.593 2.247-1.257.749-2.808.963-.883.107-1.752.16-.87.054-1.672-.16.217 4.28-.29 6.313-2.134 8.56-13.655 22.149-5.773 6.848-12.537 12.947-6.763 6.099-14.624 11.449-15.668 10.914-25.726 10.914-11.021 0-8.46-10.272 1.2-4.815 4.767-10.968t7.87-12.251l11.892-16.799q-5.615 3.638-9.13 5.938-3.517 2.301-5.897 3.906t-4.558 3.263-5.227 4.013q-3.342 2.675-9.077 7.65t-13.567 12.359l-16.2 15.194q-1.39 1.284-3.048 2.354t-3.049 1.07" style="fill:#333;white-space:pre" transform="matrix(7.98613 .00046 -.13594 8.98858 -961.198 -1658.145)"/></svg>