<svg viewBox="0 0 157 48" xmlns="http://www.w3.org/2000/svg"><g fill="#76B83F" fill-rule="evenodd"><path d="M155.531 22.78v2.532h-2.812v6.766c0 .63.124 1.052.335 1.265.215.212.647.316 1.28.316.213 0 .44-.011.632-.029.193-.018 1.222-.043 1.41-.075v2.896c-.376.056-1.52.089-1.906.107-.387.02-.775.03-1.143.03a11 11 0 0 1-1.652-.122 4 4 0 0 1-1.376-.46c-.394-.23-.686-.555-.914-.976s-.322-.977-.322-1.66v-8.058h-2.344v-2.531h2.344V18.75h3.656v4.031zm-84.375-1.687v-3.468h14.907v3.468h-5.344v15.375H76.5V21.093z"/><path d="M83.26 26.685c.336-.89.807-1.643 1.424-2.266a6.4 6.4 0 0 1 2.215-1.454q1.292-.513 2.902-.514 1.606.001 2.912.514 1.303.515 2.23 1.454a6.4 6.4 0 0 1 1.424 2.266q.5 1.333.5 2.965c0 1.094-.167 2.074-.5 2.953a6.4 6.4 0 0 1-1.424 2.256 6.2 6.2 0 0 1-2.23 1.434q-1.306.502-2.912.503-1.61-.001-2.902-.503a6.2 6.2 0 0 1-2.215-1.434c-.617-.625-1.088-1.377-1.424-2.256-.331-.88-.5-1.859-.5-2.953q.002-1.633.5-2.965m3.403 4.56q.159.78.54 1.398.38.622 1.017.987.632.37 1.581.368.949.002 1.594-.368a2.8 2.8 0 0 0 1.028-.987q.384-.617.542-1.399a8.2 8.2 0 0 0 0-3.202 4.1 4.1 0 0 0-.542-1.397 3 3 0 0 0-1.028-.988c-.43-.258-.962-.381-1.594-.381s-1.16.123-1.58.38a3 3 0 0 0-1.017.99q-.382.607-.54 1.397a8.2 8.2 0 0 0 0 3.201m35.096 1.946c.563.548 1.369.812 2.425.812.755 0 1.405-.183 1.951-.56.545-.376.88-.817 1.003-1.192h3.294c-.524 1.593-1.337 2.794-2.423 3.503q-1.638 1.048-3.956 1.047c-1.074 0-2.04-.175-2.904-.516a6 6 0 0 1-2.185-1.464 6.6 6.6 0 0 1-1.385-2.267q-.49-1.32-.49-2.904c0-1.019.168-1.964.503-2.847a6.6 6.6 0 0 1 1.423-2.28 6.8 6.8 0 0 1 2.201-1.518q1.28-.552 2.837-.552c1.16 0 2.167.223 3.032.672a6.04 6.04 0 0 1 2.122 1.807 7.4 7.4 0 0 1 1.198 2.592c.25.966.337 2.008.267 3.039h-9.837c.052 1.219.364 2.083.923 2.629m4.235-7.157c-.452-.492-1.134-.747-2.046-.747-.6 0-1.094.092-1.488.295-.398.204-.716.45-.95.748-.24.3-.405.64-.503.971a4.4 4.4 0 0 0-.17.917h6.09c-.176-1.031-.488-1.69-.933-2.184m10.037-3.254v1.97h.126c.474-.844 1.09-1.383 1.845-1.743.756-.36 1.529-.548 2.323-.548q1.5-.002 2.46.404.963.41 1.518 1.134c.367.482.632 1.07.78 1.764.152.696.23 1.462.23 2.308v8.4h-3.75v-7.716q0-1.684-.528-2.517c-.354-.555-.975-.832-1.873-.832-1.02 0-1.778.304-2.236.912-.457.604-.707 1.603-.707 2.994v7.158h-3.656V22.781zm-29.343-.325-.09-.003q-.714 0-1.372.208-.66.214-1.241.594a4.6 4.6 0 0 0-1.027.905c-.3.358-.536.778-.711 1.153h-.06v-2.531h-3.562v13.687h3.75v-6.16q0-.917.186-1.712.186-.792.621-1.384a3.04 3.04 0 0 1 1.146-.935q.713-.345 1.74-.345c.2 0 .432.012.62.032zm9.843 0c-.093 0-.072-.003-.104-.003-.473 0-.937.07-1.376.208q-.662.214-1.24.594a4.6 4.6 0 0 0-1.031.905c-.299.358-.54.778-.713 1.153h-.036v-2.531h-3.562v13.687h3.75v-6.16c0-.612.053-1.181.175-1.712.122-.527.323-.99.615-1.384a3 3 0 0 1 1.143-.935c.474-.23 1.065-.345 1.75-.345.199 0 .442.012.63.032zM69 36.562v-1.969h-.075c-.247.375-.524.74-.836 1.02a5.6 5.6 0 0 1-.947.711 4.3 4.3 0 0 1-.916.415 2.7 2.7 0 0 1-.758.134q-.8 0-1.278-.172a2 2 0 0 1-.721-.44v5.082h-3.75V22.781h3.75v7.757q0 1.705.532 2.546c.357.555.986.837 1.891.837q1.543-.002 2.231-.92.692-.919.69-3.02v-7.2h3.75v13.781zM27.368 47.76c8.894-1.25 16.222-7.372 19.198-15.578-.235.087-.522.19-.864.292-4 1.18-6.808-.932-7.374-1.297-.567-.362-1.173-.96-1.287-.93-.366 2.266-2.436 5.413-7.16 6.84-2.588.784-5.374.802-7.361-.312l.655 1.644c.263.655.703 1.73.976 2.383 0 0 1.717 4.088 3.217 6.959"/><path d="m5.446 14.188 7.081-1.32c.645-.117 1.36.249 1.587.813l4.865 12.142c.662 1.266.797 1.546 1.228 2.086 0 0 3.36 4.796 8.48 3.624 3.454-.789 5.066-3.381 5.175-5.225.114-.592-.063-1.337-.37-2.032l-5.828-13.174c-.234-.532.043-1.053.612-1.162l5.905-1.1c.542-.097 1.177.24 1.413.753l6.455 13.819c.26.553.787 1.424 1.175 1.932 0 0 1.343 1.928 3.494 1.562.531 0 1.137-.288 1.137-.288Q48 25.328 48 24C48 10.744 37.254 0 23.997 0 10.744 0 0 10.744 0 24c0 10.635 6.92 19.652 16.505 22.8a50 50 0 0 1-1.839-4.242L4.596 15.497c-.222-.594.166-1.181.85-1.31"/></g></svg>