<?xml version="1.0" encoding="UTF-8" standalone="no"?>
<svg
   width="250"
   height="250"
   fill="none"
   viewBox="0 0 250 250"
   version="1.1"
   id="svg40"
   sodipodi:docname="overseerr.svg"
   inkscape:version="1.1.2 (0a00cf5339, 2022-02-04, custom)"
   xmlns:inkscape="http://www.inkscape.org/namespaces/inkscape"
   xmlns:sodipodi="http://sodipodi.sourceforge.net/DTD/sodipodi-0.dtd"
   xmlns="http://www.w3.org/2000/svg"
   xmlns:svg="http://www.w3.org/2000/svg">
  <sodipodi:namedview
     id="namedview42"
     pagecolor="#ffffff"
     bordercolor="#666666"
     borderopacity="1.0"
     inkscape:pageshadow="2"
     inkscape:pageopacity="0.0"
     inkscape:pagecheckerboard="0"
     showgrid="false"
     fit-margin-top="0"
     fit-margin-left="0"
     fit-margin-right="0"
     fit-margin-bottom="0"
     inkscape:zoom="3.186747"
     inkscape:cx="47.854442"
     inkscape:cy="82.529301"
     inkscape:window-width="1920"
     inkscape:window-height="1009"
     inkscape:window-x="-1928"
     inkscape:window-y="-8"
     inkscape:window-maximized="1"
     inkscape:current-layer="svg40" />
  <g
     id="g307"
     transform="scale(2.6041667)">
    <circle
       cx="52"
       cy="52"
       r="28"
       fill="#131928"
       id="circle2" />
    <path
       fill="url(#paint0_linear)"
       fill-rule="evenodd"
       d="M 48,96 C 74.51,96 96,74.5097 96,48 96,21.4903 74.51,0 48,0 21.49,0 0,21.4903 0,48 0,74.5097 21.49,96 48,96 Z M 80,52 C 80,67.464 67.464,80 52,80 36.536,80 24,67.464 24,52 24,49.1303 24.432,46.3615 25.234,43.7548 27.429,48.6165 32.319,52 38,52 45.732,52 52,45.732 52,38 52,32.3192 48.617,27.4287 43.755,25.2337 46.362,24.4317 49.13,24 52,24 67.464,24 80,36.536 80,52 Z"
       clip-rule="evenodd"
       id="path4"
       style="fill:url(#paint0_linear)" />
    <path
       fill="#131928"
       fill-rule="evenodd"
       d="M 80,52 C 80,67.464 67.464,80 52,80 36.864,80 24.533,67.9897 24.017,52.9791 24.006,53.318 24,53.6584 24,54 24,70.5686 37.431,84 54,84 70.569,84 84,70.5686 84,54 84,37.4315 70.569,24 54,24 53.66,24 53.321,24.0057 52.983,24.0169 67.992,24.5347 80,36.865 80,52 Z"
       clip-rule="evenodd"
       opacity="0.2"
       id="path6" />
    <path
       fill="url(#paint1_linear)"
       fill-rule="evenodd"
       d="M 48,12 C 28.118,12 12,28.1177 12,48 12,50.2091 10.209,52 8,52 5.791,52 4,50.2091 4,48 4,23.6995 23.699,4 48,4 c 2.209,0 4,1.79086 4,4 0,2.2091 -1.791,4 -4,4 z"
       clip-rule="evenodd"
       id="path8"
       style="fill:url(#paint1_linear)" />
  </g>
  <defs
     id="defs38">
    <linearGradient
       id="paint0_linear"
       x1="166"
       x2="235.5"
       y1="0"
       y2="69.5"
       gradientUnits="userSpaceOnUse"
       gradientTransform="translate(-118)">
      <stop
         stop-color="#C395FC"
         id="stop28" />
      <stop
         offset="1"
         stop-color="#4F65F5"
         id="stop30" />
    </linearGradient>
    <linearGradient
       id="paint1_linear"
       x1="146"
       x2="146"
       y1="8"
       y2="48"
       gradientUnits="userSpaceOnUse"
       gradientTransform="translate(-118)">
      <stop
         stop-color="#fff"
         stop-opacity=".4"
         id="stop33" />
      <stop
         offset="1"
         stop-color="#fff"
         stop-opacity="0"
         id="stop35" />
    </linearGradient>
  </defs>
</svg>
