<svg fill="none" viewBox="0 0 250 250" xmlns="http://www.w3.org/2000/svg"><g transform="scale(2.60417)"><circle cx="52" cy="52" r="28" fill="#131928"/><path fill="url(#a)" fill-rule="evenodd" d="M48 96c26.51 0 48-21.49 48-48S74.51 0 48 0 0 21.49 0 48s21.49 48 48 48Zm32-44c0 15.464-12.536 28-28 28S24 67.464 24 52c0-2.87.432-5.639 1.234-8.245C27.429 48.616 32.319 52 38 52c7.732 0 14-6.268 14-14 0-5.68-3.383-10.571-8.245-12.766A27.994 27.994 0 0 1 52 24c15.464 0 28 12.536 28 28Z" clip-rule="evenodd" style="fill:url(#a)"/><path fill="#131928" fill-rule="evenodd" d="M80 52c0 15.464-12.536 28-28 28-15.136 0-27.467-12.01-27.983-27.02-.011.338-.017.678-.017 1.02 0 16.569 13.431 30 30 30 16.569 0 30-13.431 30-30 0-16.569-13.431-30-30-30-.34 0-.679.006-1.017.017C67.992 24.535 80 36.865 80 52Z" clip-rule="evenodd" opacity=".2"/><path fill="url(#b)" fill-rule="evenodd" d="M48 12c-19.882 0-36 16.118-36 36a4 4 0 0 1-8 0C4 23.7 23.699 4 48 4a4 4 0 0 1 0 8z" clip-rule="evenodd" style="fill:url(#b)"/></g><defs><linearGradient id="a" x1="166" x2="235.5" y1="0" y2="69.5" gradientTransform="translate(-118)" gradientUnits="userSpaceOnUse"><stop stop-color="#C395FC"/><stop offset="1" stop-color="#4F65F5"/></linearGradient><linearGradient id="b" x1="146" x2="146" y1="8" y2="48" gradientTransform="translate(-118)" gradientUnits="userSpaceOnUse"><stop stop-color="#fff" stop-opacity=".4"/><stop offset="1" stop-color="#fff" stop-opacity="0"/></linearGradient></defs></svg>