<?xml version="1.0" encoding="UTF-8" standalone="no"?>
<!-- Created with Inkscape (http://www.inkscape.org/) -->

<svg
   xmlns:dc="http://purl.org/dc/elements/1.1/"
   xmlns:cc="http://creativecommons.org/ns#"
   xmlns:rdf="http://www.w3.org/1999/02/22-rdf-syntax-ns#"
   xmlns:svg="http://www.w3.org/2000/svg"
   xmlns="http://www.w3.org/2000/svg"
   xmlns:xlink="http://www.w3.org/1999/xlink"
   xmlns:sodipodi="http://sodipodi.sourceforge.net/DTD/sodipodi-0.dtd"
   xmlns:inkscape="http://www.inkscape.org/namespaces/inkscape"
   width="125.22519mm"
   height="135.40532mm"
   viewBox="0 0 125.22519 135.40532"
   version="1.1"
   id="svg8"
   inkscape:version="0.92.4 (5da689c313, 2019-01-14)"
   sodipodi:docname="FAH Logo.svg">
  <defs
     id="defs2">
    <linearGradient
       inkscape:collect="always"
       id="linearGradient863">
      <stop
         style="stop-color:#ffffff;stop-opacity:1"
         offset="0"
         id="stop859" />
      <stop
         style="stop-color:#ffffff;stop-opacity:0"
         offset="1"
         id="stop861" />
    </linearGradient>
    <linearGradient
       inkscape:collect="always"
       id="linearGradient836">
      <stop
         style="stop-color:#ffffff;stop-opacity:1;"
         offset="0"
         id="stop832" />
      <stop
         style="stop-color:#ffffff;stop-opacity:0;"
         offset="1"
         id="stop834" />
    </linearGradient>
    <linearGradient
       inkscape:collect="always"
       xlink:href="#linearGradient836"
       id="linearGradient840"
       x1="48.501106"
       y1="196.64766"
       x2="48.233837"
       y2="217.22003"
       gradientUnits="userSpaceOnUse"
       gradientTransform="matrix(0.92129627,0,0,1.2965115,45.701851,-60.798587)" />
    <radialGradient
       inkscape:collect="always"
       xlink:href="#linearGradient863"
       id="radialGradient865-0"
       cx="116.26225"
       cy="207.33107"
       fx="116.26225"
       fy="207.33107"
       r="17.964283"
       gradientTransform="matrix(0.16052187,0,0,0.16171599,-133.60104,-196.97319)"
       gradientUnits="userSpaceOnUse" />
    <linearGradient
       inkscape:collect="always"
       xlink:href="#linearGradient863"
       id="linearGradient872-6"
       gradientUnits="userSpaceOnUse"
       gradientTransform="matrix(1.2231015,0,0,1.7212326,-174.64023,-522.81612)"
       x1="48.501106"
       y1="196.64766"
       x2="48.233837"
       y2="217.22003" />
    <radialGradient
       inkscape:collect="always"
       xlink:href="#linearGradient863"
       id="radialGradient865-9"
       cx="116.26225"
       cy="207.33107"
       fx="116.26225"
       fy="207.33107"
       r="17.964283"
       gradientTransform="matrix(0.35481526,0,0,0.35745472,52.845463,85.74806)"
       gradientUnits="userSpaceOnUse" />
    <radialGradient
       inkscape:collect="always"
       xlink:href="#linearGradient863"
       id="radialGradient865-0-1"
       cx="116.26225"
       cy="207.33107"
       fx="116.26225"
       fy="207.33107"
       r="17.964283"
       gradientTransform="matrix(0.14815767,0,0,0.14925982,-138.46003,-205.27159)"
       gradientUnits="userSpaceOnUse" />
    <linearGradient
       inkscape:collect="always"
       xlink:href="#linearGradient863"
       id="linearGradient872-6-7"
       gradientUnits="userSpaceOnUse"
       gradientTransform="matrix(0.86267386,0,0,1.214014,-162.90485,-427.77136)"
       x1="48.501106"
       y1="196.64766"
       x2="48.233837"
       y2="217.22003" />
    <filter
       inkscape:collect="always"
       style="color-interpolation-filters:sRGB"
       id="filter1843"
       x="-0.059960999"
       width="1.119922"
       y="-0.062491287"
       height="1.1249826">
      <feGaussianBlur
         inkscape:collect="always"
         stdDeviation="6.2433821"
         id="feGaussianBlur1845" />
    </filter>
    <radialGradient
       inkscape:collect="always"
       xlink:href="#linearGradient863"
       id="radialGradient865-6"
       cx="116.26225"
       cy="207.33107"
       fx="116.26225"
       fy="207.33107"
       r="17.964283"
       gradientTransform="matrix(0.24229923,0,0,0.24410169,36.676716,96.039879)"
       gradientUnits="userSpaceOnUse" />
    <linearGradient
       inkscape:collect="always"
       xlink:href="#linearGradient863"
       id="linearGradient872-5"
       gradientUnits="userSpaceOnUse"
       gradientTransform="matrix(1.4108295,0,0,1.9854163,-3.3007082,-267.83949)"
       x1="48.501106"
       y1="196.64766"
       x2="48.233837"
       y2="217.22003" />
    <radialGradient
       inkscape:collect="always"
       xlink:href="#linearGradient863"
       id="radialGradient865-5"
       cx="116.26225"
       cy="207.33107"
       fx="116.26225"
       fy="207.33107"
       r="17.964283"
       gradientTransform="matrix(0.17309939,0,0,0.17438707,33.758025,163.42129)"
       gradientUnits="userSpaceOnUse" />
    <linearGradient
       inkscape:collect="always"
       xlink:href="#linearGradient863"
       id="linearGradient872-1"
       gradientUnits="userSpaceOnUse"
       gradientTransform="matrix(1.096845,0,0,1.5435558,3.7379654,-123.1387)"
       x1="48.501106"
       y1="196.64766"
       x2="48.233837"
       y2="217.22003" />
    <linearGradient
       inkscape:collect="always"
       xlink:href="#linearGradient863"
       id="linearGradient872-1-1"
       gradientUnits="userSpaceOnUse"
       gradientTransform="matrix(0.93325096,0,0,1.313335,3.7959955,-65.040289)"
       x1="48.501106"
       y1="196.64766"
       x2="48.233837"
       y2="217.22003" />
    <radialGradient
       inkscape:collect="always"
       xlink:href="#linearGradient863"
       id="radialGradient865-5-0"
       cx="116.26225"
       cy="207.33107"
       fx="116.26225"
       fy="207.33107"
       r="17.964283"
       gradientTransform="matrix(0.16027876,0,0,0.16147107,30.240704,175.66263)"
       gradientUnits="userSpaceOnUse" />
    <filter
       inkscape:collect="always"
       style="color-interpolation-filters:sRGB"
       id="filter2698"
       x="-0.041810852"
       width="1.0836217"
       y="-0.039836872"
       height="1.0796736">
      <feGaussianBlur
         inkscape:collect="always"
         stdDeviation="6.5467598"
         id="feGaussianBlur2700" />
    </filter>
    <filter
       inkscape:collect="always"
       style="color-interpolation-filters:sRGB"
       id="filter3178"
       x="-0.068540804"
       width="1.1370816"
       y="-0.068259768"
       height="1.1365196">
      <feGaussianBlur
         inkscape:collect="always"
         stdDeviation="1.9105395"
         id="feGaussianBlur3180" />
    </filter>
  </defs>
  <sodipodi:namedview
     id="base"
     pagecolor="#ffffff"
     bordercolor="#666666"
     borderopacity="1.0"
     inkscape:pageopacity="0.0"
     inkscape:pageshadow="2"
     inkscape:zoom="0.98994949"
     inkscape:cx="98.670288"
     inkscape:cy="205.9198"
     inkscape:document-units="mm"
     inkscape:current-layer="layer1"
     showgrid="false"
     fit-margin-top="2"
     fit-margin-left="2"
     fit-margin-right="2"
     fit-margin-bottom="2"
     inkscape:window-width="2087"
     inkscape:window-height="1530"
     inkscape:window-x="709"
     inkscape:window-y="536"
     inkscape:window-maximized="0" />
  <metadata
     id="metadata5">
    <rdf:RDF>
      <cc:Work
         rdf:about="">
        <dc:format>image/svg+xml</dc:format>
        <dc:type
           rdf:resource="http://purl.org/dc/dcmitype/StillImage" />
        <dc:title></dc:title>
      </cc:Work>
    </rdf:RDF>
  </metadata>
  <g
     inkscape:label="Layer 1"
     inkscape:groupmode="layer"
     id="layer1"
     transform="translate(-22.446377,-113.17169)">
    <path
       inkscape:connector-curvature="0"
       id="ellipse3042"
       d="m 59.269101,174.81753 a 18.48723,18.624756 0 0 0 -18.487241,18.62522 18.48723,18.624756 0 0 0 0.390673,3.71295 24.239647,24.419963 0 0 0 -7.08174,12.52637 19.140913,19.283302 0 0 0 -5.059121,13.02659 19.140913,19.283302 0 0 0 19.14095,19.28306 19.140913,19.283302 0 0 0 9.575644,-2.61431 24.239647,24.419963 0 0 0 9.339479,-1.91409 18.48723,18.624756 0 0 0 10.355442,3.20187 18.48723,18.624756 0 0 0 18.487242,-18.6247 18.48723,18.624756 0 0 0 -16.804658,-18.53996 24.239647,24.419963 0 0 0 -2.46755,-3.80183 18.48723,18.624756 0 0 0 1.098124,-6.25595 18.48723,18.624756 0 0 0 -18.487244,-18.62522 z"
       style="opacity:1;fill:#000000;fill-opacity:0.73737368;stroke:none;stroke-width:0.54457098;stroke-linecap:round;stroke-linejoin:round;stroke-miterlimit:4;stroke-dasharray:none;stroke-opacity:1;filter:url(#filter3178)" />
    <ellipse
       style="opacity:1;fill:#ff02ef;fill-opacity:1;stroke:#000000;stroke-width:0.54457098;stroke-linecap:round;stroke-linejoin:round;stroke-miterlimit:4;stroke-dasharray:none;stroke-opacity:1"
       id="path826-5-5"
       cx="57.946068"
       cy="192.30861"
       rx="18.48723"
       ry="18.624756" />
    <ellipse
       style="opacity:1;fill:#ff02ef;fill-opacity:1;stroke:#000000;stroke-width:0.5291667;stroke-linecap:round;stroke-linejoin:round;stroke-miterlimit:4;stroke-dasharray:none;stroke-opacity:1"
       id="path826-5"
       cx="78.57724"
       cy="221.09546"
       rx="18.48723"
       ry="18.624756" />
    <ellipse
       style="opacity:1;fill:#ff0802;fill-opacity:1;stroke:#000000;stroke-width:0.5291667;stroke-linecap:round;stroke-linejoin:round;stroke-miterlimit:4;stroke-dasharray:none;stroke-opacity:1"
       id="path826-4-8"
       cx="58.873608"
       cy="214.01282"
       rx="24.239647"
       ry="24.419964" />
    <ellipse
       style="opacity:1;fill:url(#linearGradient872-1);fill-opacity:1;stroke:none;stroke-width:1.30133188;stroke-linecap:round;stroke-linejoin:round;stroke-miterlimit:4;stroke-dasharray:none;stroke-opacity:1"
       id="path830-0"
       ry="8.8697271"
       rx="15.830276"
       cy="201.01389"
       cx="56.79871" />
    <ellipse
       style="opacity:1;fill:#ff02ef;fill-opacity:1;stroke:#000000;stroke-width:0.5291667;stroke-linecap:round;stroke-linejoin:round;stroke-miterlimit:4;stroke-dasharray:none;stroke-opacity:1"
       id="path826-4"
       cx="49.306366"
       cy="221.76361"
       rx="19.140913"
       ry="19.283302" />
    <ellipse
       style="opacity:1;fill:url(#linearGradient872-1-1);fill-opacity:1;stroke:none;stroke-width:1.10723877;stroke-linecap:round;stroke-linejoin:round;stroke-miterlimit:4;stroke-dasharray:none;stroke-opacity:1"
       id="path830-0-6"
       ry="7.5468116"
       rx="13.469195"
       cy="210.76506"
       cx="48.942749" />
    <ellipse
       style="opacity:1;fill:url(#radialGradient865-5-0);fill-opacity:1;stroke:none;stroke-width:0.08481421;stroke-linecap:round;stroke-linejoin:round;stroke-miterlimit:4;stroke-dasharray:none;stroke-opacity:1"
       id="path826-8-3-8"
       cx="48.875072"
       cy="209.14061"
       rx="2.8792932"
       ry="2.9007118" />
    <path
       inkscape:connector-curvature="0"
       id="ellipse2510"
       transform="matrix(0.26458333,0,0,0.26458333,-0.5716395,3.2187682)"
       d="m 413.42383,464.49023 a 93.32787,94.022128 0 0 0 -79.50391,45.00196 149.42678,150.53837 0 0 0 -46.84765,14.84961 114.51071,115.36254 0 0 0 -41.60547,-7.94922 114.51071,115.36254 0 0 0 -114.50977,115.36328 114.51071,115.36254 0 0 0 103.20313,114.68164 149.42678,150.53837 0 0 0 45.09765,41.42578 114.51071,115.36254 0 0 0 105.60938,71.04102 114.51071,115.36254 0 0 0 114.51172,-115.36133 114.51071,115.36254 0 0 0 -4.60743,-32.17383 149.42678,150.53837 0 0 0 9.76368,-53.01367 149.42678,150.53837 0 0 0 -9.86914,-53.68359 93.32787,94.022128 0 0 0 12.08398,-46.16016 93.32787,94.022128 0 0 0 -93.32617,-94.02149 z"
       style="opacity:1;fill:#000000;fill-opacity:0.51010102;stroke:none;stroke-width:2.00000024;stroke-linecap:round;stroke-linejoin:round;stroke-miterlimit:4;stroke-dasharray:none;stroke-opacity:1;filter:url(#filter2698)" />
    <ellipse
       style="opacity:1;fill:#fd0802;fill-opacity:1;stroke:#000000;stroke-width:0.5291667;stroke-linecap:round;stroke-linejoin:round;stroke-miterlimit:4;stroke-dasharray:none;stroke-opacity:1"
       id="path826-3"
       cx="109.3848"
       cy="147.77292"
       rx="24.692999"
       ry="24.876688" />
    <ellipse
       style="opacity:1;fill:#ff0802;fill-opacity:1;stroke:#000000;stroke-width:0.5291667;stroke-linecap:round;stroke-linejoin:round;stroke-miterlimit:4;stroke-dasharray:none;stroke-opacity:1"
       id="path826-4-8-81"
       cx="101.82968"
       cy="196.72887"
       rx="30.297625"
       ry="30.523005" />
    <ellipse
       style="opacity:1;fill:#fdea05;fill-opacity:1;stroke:#000000;stroke-width:0.5291667;stroke-linecap:round;stroke-linejoin:round;stroke-miterlimit:4;stroke-dasharray:none;stroke-opacity:1"
       id="path826-0"
       cx="93.955933"
       cy="174.18964"
       rx="39.535835"
       ry="39.829945" />
    <path
       inkscape:connector-curvature="0"
       style="opacity:1;fill:#ff0802;fill-opacity:1;stroke:#000000;stroke-width:0.5291667;stroke-linecap:round;stroke-linejoin:round;stroke-miterlimit:4;stroke-dasharray:none;stroke-opacity:1"
       d="m 64.946423,136.62887 a 30.297625,30.523005 0 0 0 -30.297376,30.5232 30.297625,30.523005 0 0 0 30.297376,30.5232 30.297625,30.523005 0 0 0 6.325712,-0.71055 71.897787,72.432623 0 0 0 20.232356,-44.43656 30.297625,30.523005 0 0 0 -26.558068,-15.89929 z"
       id="path826-4-8-8" />
    <ellipse
       style="opacity:1;fill:url(#linearGradient872-5);fill-opacity:1;stroke:none;stroke-width:1.67385292;stroke-linecap:round;stroke-linejoin:round;stroke-miterlimit:4;stroke-dasharray:none;stroke-opacity:1"
       id="path830-9"
       ry="11.408788"
       rx="20.361874"
       cy="149.10545"
       cx="64.949272" />
    <ellipse
       style="opacity:1;fill:url(#radialGradient865-6);fill-opacity:1;stroke:none;stroke-width:0.12821671;stroke-linecap:round;stroke-linejoin:round;stroke-miterlimit:4;stroke-dasharray:none;stroke-opacity:1"
       id="path826-8-4"
       cx="64.84697"
       cy="146.6497"
       rx="4.3527322"
       ry="4.3851118" />
    <path
       inkscape:connector-curvature="0"
       id="ellipse1269"
       transform="matrix(0.26458333,0,0,0.26458333,-1.3276652,1.9242731)"
       d="m 470.73047,443.00586 a 69.873011,70.392785 0 0 0 -54.44922,26.37695 91.614421,92.295926 0 0 0 -23.12305,9.34961 79.797067,79.20785 69.471429 0 0 -51.15625,1.29297 79.797067,79.20785 69.471429 0 0 -46.19336,102.50586 79.797067,79.20785 69.471429 0 0 88.49024,50.67773 91.614421,92.295926 0 0 0 10.00195,6.5293 69.873011,70.392785 0 0 0 64.3086,43.04688 69.873011,70.392785 0 0 0 69.87304,-70.39258 69.873011,70.392785 0 0 0 -3.83203,-22.73047 91.614421,92.295926 0 0 0 5.37109,-30.80664 91.614421,92.295926 0 0 0 -0.3789,-7.75391 69.873011,70.392785 0 0 0 10.96094,-37.70312 69.873011,70.392785 0 0 0 -69.87305,-70.39258 z"
       style="opacity:1;fill:#000000;fill-opacity:0.54040402;stroke:none;stroke-width:2.0582211;stroke-linecap:round;stroke-linejoin:round;stroke-miterlimit:4;stroke-dasharray:none;stroke-opacity:1;filter:url(#filter1843)" />
    <ellipse
       style="opacity:1;fill:#04f0ff;fill-opacity:1;stroke:#000000;stroke-width:0.5291667;stroke-linecap:round;stroke-linejoin:round;stroke-miterlimit:4;stroke-dasharray:none;stroke-opacity:1"
       id="path826-4-8-4-8"
       cx="121.34037"
       cy="162.0289"
       rx="18.487234"
       ry="18.624758" />
    <ellipse
       style="opacity:1;fill:url(#linearGradient872-6-7);fill-opacity:1;stroke:none;stroke-width:1.02350378;stroke-linecap:round;stroke-linejoin:round;stroke-miterlimit:4;stroke-dasharray:none;stroke-opacity:1"
       id="path830-4-0"
       ry="6.9760828"
       rx="12.450588"
       cy="-172.82381"
       cx="-121.17233"
       transform="scale(-1)"
       inkscape:transform-center-x="8.9417708"
       inkscape:transform-center-y="-11.005241" />
    <ellipse
       style="opacity:1;fill:#04f0ff;fill-opacity:1;stroke:#000000;stroke-width:0.5291667;stroke-linecap:round;stroke-linejoin:round;stroke-miterlimit:4;stroke-dasharray:none;stroke-opacity:1"
       id="path826-4-8-4-8-5"
       cx="124.5476"
       cy="135.83649"
       rx="18.487234"
       ry="18.624758" />
    <ellipse
       style="opacity:1;fill:#0915e8;fill-opacity:1;stroke:#000000;stroke-width:0.5291667;stroke-linecap:round;stroke-linejoin:round;stroke-miterlimit:4;stroke-dasharray:none;stroke-opacity:1"
       id="path826-4-8-4"
       cx="115.99498"
       cy="147.8636"
       rx="24.239649"
       ry="24.419964" />
    <ellipse
       style="opacity:1;fill:url(#radialGradient865-0-1);fill-opacity:1;stroke:none;stroke-width:0.07840012;stroke-linecap:round;stroke-linejoin:round;stroke-miterlimit:4;stroke-dasharray:none;stroke-opacity:1"
       id="path826-8-1-3"
       cx="-121.23489"
       cy="-174.32542"
       rx="2.6615465"
       ry="2.6813455"
       transform="scale(-1)"
       inkscape:transform-center-x="8.8791964"
       inkscape:transform-center-y="-9.5036251" />
    <ellipse
       style="opacity:1;fill:url(#linearGradient872-6);fill-opacity:1;stroke:none;stroke-width:1.45112658;stroke-linecap:round;stroke-linejoin:round;stroke-miterlimit:4;stroke-dasharray:none;stroke-opacity:1"
       id="path830-4"
       ry="9.8907108"
       rx="17.652481"
       cy="-161.35072"
       cx="-115.47173"
       transform="scale(-1)"
       inkscape:transform-center-x="12.677658"
       inkscape:transform-center-y="-15.603268" />
    <path
       inkscape:connector-curvature="0"
       style="opacity:1;fill:#04f0ff;fill-opacity:1;stroke:#000000;stroke-width:0.5291667;stroke-linecap:round;stroke-linejoin:round;stroke-miterlimit:4;stroke-dasharray:none;stroke-opacity:1"
       d="m 90.488183,127.00683 a 21.112974,20.957077 69.471429 0 0 -12.222263,27.12142 21.112974,20.957077 69.471429 0 0 27.02992,12.42332 21.112974,20.957077 69.471429 0 0 3.92532,-1.99467 50.102148,49.732198 69.471429 0 0 2.32746,-33.69285 21.112974,20.957077 69.471429 0 0 -21.060437,-3.85722 z"
       id="path826-4-8-8-0" />
    <ellipse
       style="opacity:1;fill:url(#radialGradient865-0);fill-opacity:1;stroke:none;stroke-width:0.08494285;stroke-linecap:round;stroke-linejoin:round;stroke-miterlimit:4;stroke-dasharray:none;stroke-opacity:1"
       id="path826-8-1"
       cx="-114.93842"
       cy="-163.44444"
       rx="2.8836606"
       ry="2.9051118"
       transform="scale(-1)"
       inkscape:transform-center-x="9.6201854"
       inkscape:transform-center-y="-10.296751" />
    <ellipse
       style="opacity:0.97000002;fill:url(#radialGradient865-9);fill-opacity:1;stroke:none;stroke-width:0.18775646;stroke-linecap:round;stroke-linejoin:round;stroke-miterlimit:4;stroke-dasharray:none;stroke-opacity:1"
       id="path826-8-9"
       cx="94.097076"
       cy="159.8595"
       rx="6.374002"
       ry="6.4214177" />
    <ellipse
       style="opacity:1;fill:url(#radialGradient865-5);fill-opacity:1;stroke:none;stroke-width:0.09159847;stroke-linecap:round;stroke-linejoin:round;stroke-miterlimit:4;stroke-dasharray:none;stroke-opacity:1"
       id="path826-8-3"
       cx="53.882954"
       cy="199.57715"
       rx="3.1096065"
       ry="3.1327386" />
  </g>
</svg>
