<svg xml:space="preserve" viewBox="0 0 150 150" xmlns="http://www.w3.org/2000/svg"><linearGradient id="a" x1="74.468" x2="74.468" y1="5.556" y2="144.708" gradientUnits="userSpaceOnUse"><stop offset="0" style="stop-color:#fff"/><stop offset=".188" style="stop-color:#fff"/><stop offset=".477" style="stop-color:#eeefef"/><stop offset=".743" style="stop-color:#e7e9ea"/><stop offset="1" style="stop-color:#f4f2f3"/></linearGradient><linearGradient id="b" x1="74.468" x2="74.468" y1="4.083" y2="146.18" gradientUnits="userSpaceOnUse"><stop offset="0" style="stop-color:#a1b7cb"/><stop offset=".096" style="stop-color:#899fb3"/><stop offset=".268" style="stop-color:#6b8297"/><stop offset=".443" style="stop-color:#556e84"/><stop offset=".622" style="stop-color:#446278"/><stop offset=".805" style="stop-color:#3a5b71"/><stop offset="1" style="stop-color:#37596e"/></linearGradient><path fill="url(#a)" stroke="url(#b)" stroke-miterlimit="10" stroke-width="2.946" d="M144.271 132.672c0 6.647-5.39 12.035-12.036 12.035H16.702c-6.647 0-12.036-5.388-12.036-12.035V17.592c0-6.647 5.389-12.036 12.036-12.036h115.532c6.646 0 12.036 5.389 12.036 12.036v115.08z"/><path fill="#E57025" d="M79.124 33.484q-.001.224-.056.698-.056.475-.14 1.061a11 11 0 0 1-.252 1.228q-.167.642-.391 1.201c-.224.559-.316.67-.502.893q-.28.335-.614.335-.391 0-.977-.223a30 30 0 0 0-1.369-.475 19 19 0 0 0-1.842-.475 11.5 11.5 0 0 0-2.345-.224q-2.401 0-4.104.726t-2.931 2.261-2.066 3.88q-.837 2.345-1.452 5.527l-.949 5.025h11.223q.613 0 .977.419.363.419.363 1.368 0 .614-.112 1.284a15 15 0 0 1-.279 1.312 9 9 0 0 1-.418 1.229 6 6 0 0 1-.559 1.033q-.308.447-.698.726-.391.28-.782.279H57.573l-9.547 47.57q-.95 4.69-2.568 8.123-1.62 3.434-3.964 5.695a14.9 14.9 0 0 1-5.416 3.35q-3.07 1.089-6.923 1.089-2.512 0-4.104-.391-1.591-.391-1.982-.727a2 2 0 0 1-.335-.613q-.111-.336-.111-.894 0-.223.083-.754.085-.531.195-1.116.113-.588.279-1.229.168-.644.391-1.2.223-.56.502-.894.28-.335.67-.335.391 0 .754.084a20 20 0 0 0 1.786.335q.586.083 1.479.083 2.345 0 4.048-.726t2.903-2.261 2.01-3.881q.81-2.345 1.479-5.639l9.157-45.671h-7.146q-.56 0-.866-.363-.307-.363-.307-1.368 0-.447.056-1.089.055-.642.195-1.312.139-.67.363-1.284t.559-1.117a3.8 3.8 0 0 1 .698-.81q.363-.306.921-.307h7.035l1.396-6.979q.893-4.578 2.568-8.012 1.674-3.433 4.048-5.667a15.3 15.3 0 0 1 5.471-3.322q3.099-1.089 6.84-1.089 1.228 0 2.568.14a22 22 0 0 1 2.485.391q1.143.251 2.01.586.865.336 1.2.67.335.28.502.782.17.507.169 1.064"/><path fill="#69899F" d="M128.96 72.064q0 3.35-.614 7.397a49 49 0 0 1-1.981 8.151 52 52 0 0 1-3.434 7.984q-2.067 3.882-5.053 6.867-2.988 2.988-6.868 4.802c-3.88 1.814-5.499 1.814-8.737 1.814q-5.025 0-8.599-1.898t-6.364-5.471l-1.005 4.913q-.112.95-1.201 1.34t-3.321.391q-2.345 0-3.127-.446-.782-.448-.559-1.284l14.852-74.592q.111-.447.363-.782.25-.335.837-.559.587-.222 1.508-.335.92-.111 2.317-.111 1.34 0 2.177.111.838.113 1.34.335t.614.559q.111.335.057.782l-4.467 22.444q-.28 1.453-.67 3.015t-.81 3.099a97 97 0 0 1-.838 2.903c-.279.913.53 1.703-.754 2.373q.893-1.954 2.819-4.048c1.926-2.094 2.792-2.68 4.522-3.853q2.597-1.758 5.667-2.931c3.07-1.173 4.113-1.172 6.198-1.172q3.348 0 5.75.893 2.401.894 4.076 2.373a12.4 12.4 0 0 1 2.708 3.378 18.6 18.6 0 0 1 1.591 3.908 26 26 0 0 1 .782 3.992q.224 1.984.224 3.658m-9.659.782q0-1.507-.278-3.462a12.4 12.4 0 0 0-1.089-3.629 7.6 7.6 0 0 0-2.346-2.819q-1.535-1.145-4.104-1.145-3.016 0-6.142 1.731t-5.807 4.774q-2.68 3.043-4.773 7.146-2.094 4.103-3.043 8.961l-1.842 9.269q2.624 3.852 5.639 5.694c3.015 1.842 4.28 1.843 6.812 1.843q2.903 0 5.248-1.34c2.345-1.34 2.978-2.084 4.243-3.573q1.898-2.232 3.295-5.108a38.5 38.5 0 0 0 2.316-6.03q.92-3.155 1.396-6.337c.476-3.182.475-4.113.475-5.975"/></svg>