<svg xml:space="preserve" viewBox="0 0 150 150" xmlns="http://www.w3.org/2000/svg"><linearGradient id="a" x1="74.468" x2="74.468" y1="5.556" y2="144.708" gradientUnits="userSpaceOnUse"><stop offset="0" style="stop-color:#fff"/><stop offset=".188" style="stop-color:#fff"/><stop offset=".477" style="stop-color:#eeefef"/><stop offset=".743" style="stop-color:#e7e9ea"/><stop offset="1" style="stop-color:#f4f2f3"/></linearGradient><linearGradient id="b" x1="74.468" x2="74.468" y1="4.083" y2="146.18" gradientUnits="userSpaceOnUse"><stop offset="0" style="stop-color:#a1b7cb"/><stop offset=".096" style="stop-color:#899fb3"/><stop offset=".268" style="stop-color:#6b8297"/><stop offset=".443" style="stop-color:#556e84"/><stop offset=".622" style="stop-color:#446278"/><stop offset=".805" style="stop-color:#3a5b71"/><stop offset="1" style="stop-color:#37596e"/></linearGradient><path fill="url(#a)" stroke="url(#b)" stroke-miterlimit="10" stroke-width="2.946" d="M144.271 132.672c0 6.647-5.39 12.035-12.036 12.035H16.702c-6.647 0-12.036-5.388-12.036-12.035V17.592c0-6.647 5.389-12.036 12.036-12.036h115.532c6.646 0 12.036 5.389 12.036 12.036v115.08z"/><path fill="#E57025" d="M79.124 33.484c0 .149-.02.382-.056.698-.038.317-.084.67-.14 1.061a11 11 0 0 1-.252 1.228c-.111.428-.242.829-.391 1.201s-.316.67-.502.893c-.187.223-.391.335-.614.335-.261 0-.586-.074-.977-.223a29.795 29.795 0 0 0-1.369-.475 18.88 18.88 0 0 0-1.842-.475 11.47 11.47 0 0 0-2.345-.224c-1.601 0-2.969.243-4.104.726-1.136.484-2.113 1.238-2.931 2.261-.819 1.024-1.507 2.317-2.066 3.88-.558 1.563-1.042 3.406-1.452 5.527l-.949 5.025h11.223c.409 0 .734.14.977.419.242.279.363.735.363 1.368 0 .41-.038.837-.112 1.284a14.87 14.87 0 0 1-.279 1.312 8.705 8.705 0 0 1-.418 1.229 5.925 5.925 0 0 1-.559 1.033c-.205.298-.438.54-.698.726-.261.187-.521.279-.782.279H57.573l-9.547 47.57c-.633 3.126-1.489 5.834-2.568 8.123-1.08 2.289-2.401 4.188-3.964 5.695a14.885 14.885 0 0 1-5.416 3.35c-2.047.726-4.355 1.089-6.923 1.089-1.675 0-3.043-.131-4.104-.391-1.061-.261-1.721-.503-1.982-.727a2.027 2.027 0 0 1-.335-.613c-.074-.224-.111-.522-.111-.894 0-.149.028-.4.083-.754.056-.354.122-.726.195-1.116.075-.392.168-.802.279-1.229.112-.429.243-.829.391-1.2.149-.373.316-.671.502-.894.187-.224.41-.335.67-.335.261 0 .512.027.754.084a19.671 19.671 0 0 0 1.786.335c.391.056.884.083 1.479.083 1.563 0 2.913-.242 4.048-.726 1.135-.484 2.102-1.238 2.903-2.261.8-1.024 1.47-2.317 2.01-3.881.539-1.563 1.033-3.443 1.479-5.639l9.157-45.671h-7.146c-.373 0-.662-.12-.866-.363-.205-.242-.307-.698-.307-1.368 0-.298.019-.661.056-1.089.037-.428.102-.865.195-1.312.092-.447.214-.874.363-1.284.148-.409.335-.782.559-1.117a3.84 3.84 0 0 1 .698-.81c.242-.204.549-.307.921-.307h7.035l1.396-6.979c.595-3.052 1.452-5.723 2.568-8.012 1.116-2.289 2.465-4.178 4.048-5.667a15.308 15.308 0 0 1 5.471-3.322c2.066-.726 4.346-1.089 6.84-1.089.818 0 1.675.047 2.568.14a22.36 22.36 0 0 1 2.485.391c.762.167 1.432.363 2.01.586.576.224.977.447 1.2.67.223.187.391.447.502.782.113.338.169.693.169 1.064z"/><path fill="#69899F" d="M128.96 72.064c0 2.233-.205 4.699-.614 7.397a49.016 49.016 0 0 1-1.981 8.151 52.091 52.091 0 0 1-3.434 7.984c-1.378 2.588-3.063 4.877-5.053 6.867-1.992 1.992-4.281 3.593-6.868 4.802s-5.499 1.814-8.737 1.814c-3.35 0-6.217-.633-8.599-1.898-2.382-1.265-4.504-3.089-6.364-5.471l-1.005 4.913c-.075.633-.475 1.08-1.201 1.34-.726.26-1.833.391-3.321.391-1.563 0-2.606-.149-3.127-.446-.521-.298-.708-.727-.559-1.284l14.852-74.592c.074-.298.195-.559.363-.782.167-.224.446-.409.837-.559.391-.148.894-.26 1.508-.335.614-.074 1.386-.111 2.317-.111.893 0 1.619.037 2.177.111.559.075 1.005.187 1.34.335.335.149.54.335.614.559.074.223.093.484.057.782l-4.467 22.444c-.187.968-.41 1.974-.67 3.015-.261 1.042-.53 2.075-.81 3.099a97.04 97.04 0 0 1-.838 2.903c-.279.913.53 1.703-.754 2.373.595-1.303 1.535-2.652 2.819-4.048s2.792-2.68 4.522-3.853c1.731-1.172 3.62-2.149 5.667-2.931s4.113-1.172 6.198-1.172c2.232 0 4.149.298 5.75.893 1.601.596 2.959 1.387 4.076 2.373a12.402 12.402 0 0 1 2.708 3.378 18.57 18.57 0 0 1 1.591 3.908 25.67 25.67 0 0 1 .782 3.992c.149 1.323.224 2.542.224 3.658zm-9.659.782c0-1.005-.093-2.158-.278-3.462a12.36 12.36 0 0 0-1.089-3.629 7.603 7.603 0 0 0-2.346-2.819c-1.023-.763-2.392-1.145-4.104-1.145-2.01 0-4.058.578-6.142 1.731-2.085 1.154-4.02 2.746-5.807 4.774-1.786 2.029-3.378 4.411-4.773 7.146-1.396 2.735-2.41 5.723-3.043 8.961l-1.842 9.269c1.749 2.568 3.629 4.466 5.639 5.694s4.28 1.843 6.812 1.843c1.935 0 3.685-.446 5.248-1.34s2.978-2.084 4.243-3.573c1.266-1.488 2.363-3.191 3.295-5.108a38.52 38.52 0 0 0 2.316-6.03c.614-2.103 1.079-4.216 1.396-6.337s.475-4.113.475-5.975z"/></svg>