<svg viewBox="0 0 374.821 356.871" xmlns="http://www.w3.org/2000/svg"><path fill="#3d5263" d="M55.948 213.25c.073-20.261-.716-17.26-3.656-39.267 2.228-22.44-7.628-38.859-7.669-58.34 0-4.716-5.806-6.781-4.761-11.138-6.292 13.037-9.833 27.707-9.833 43.222 0 25.946 9.89 49.533 26.027 67.059a35.788 35.788 0 0 1-.108-1.536z"/><path fill="#f9e82d" d="m254.808 180.412-.567.455c-10.49 39.88-40.951 71.658-80.048 83.996l10.952 9.206 53.296 44.799 31.601 26.563a17.847 17.847 0 0 0 1.231-6.478l.001-.02V167.219ZM23.027 185.52l-6.574-5.225L.001 167.219v171.714c0 2.295.447 4.481 1.233 6.499l58.39-48.683 26.964-22.481 12.38-10.321c-36.238-12.423-64.661-41.673-75.941-78.427Z"/><path fill="#edd514" fill-opacity=".895" d="m238.441 318.868-53.296-44.799-10.952-9.206a120.166 120.166 0 0 1-36.22 5.558c-13.653 0-26.772-2.28-39.004-6.474l-12.38 10.321-26.965 22.482-58.39 48.683c2.605 6.69 9.094 11.438 16.706 11.438h235.394c7.613 0 14.103-4.749 16.707-11.44z"/><g fill="#3d5263"><path d="M238.441 318.868c-41.457 4.008-115.073 5.566-178.816-22.118-21.543-9.356-41.959-22.05-59.623-39.123v81.307c0 2.295.447 4.481 1.233 6.499 2.605 6.69 9.094 11.438 16.706 11.438h235.394c7.613 0 14.103-4.749 16.707-11.44a17.847 17.847 0 0 0 1.231-6.478v-24.584s-12.58 2.541-32.832 4.499z" opacity=".1"/><path d="M86.588 274.268c14.979 6.703 31.579 10.435 49.051 10.435 17.648 0 34.408-3.803 49.505-10.634 37.082-16.777 64.125-51.824 69.664-93.657l-.567.455c-10.49 39.88-40.951 71.658-80.048 83.996a120.166 120.166 0 0 1-36.22 5.558c-13.653 0-26.772-2.28-39.004-6.474-36.238-12.423-64.661-41.673-75.941-78.427l-6.574-5.225c5.525 42.054 32.786 77.261 70.134 93.973z" opacity=".1"/></g><g fill="#fff"><path d="M54.293 63.875a121.144 121.144 0 0 0-5.229 5.402l-.127.139c-.234.258-.473.51-.705.77l.166-.163c21.76-21.782 51.828-35.259 85.046-35.259 66.396 0 120.222 53.826 120.222 120.223 0 30.718-11.526 58.74-30.482 79.991 21.633-21.737 35.006-51.7 35.01-84.791v-.013c0-21.143-5.465-41.007-15.049-58.269a120.626 120.626 0 0 0-23.509-29.95 120.67 120.67 0 0 0-19.26-14.558 119.724 119.724 0 0 0-13.341-7.006 119.422 119.422 0 0 0-34.062-9.509 121.196 121.196 0 0 0-31.931.258 119.316 119.316 0 0 0-34.784 10.487 120.182 120.182 0 0 0-13.688 7.672 120.925 120.925 0 0 0-18.277 14.576z"/><path d="M95.828 118.535a4.628 4.628 0 1 0 0-9.255 4.633 4.633 0 0 0-4.634 4.626 4.633 4.633 0 0 0 4.634 4.629zm91.022 0a4.628 4.628 0 1 0 0-9.255 4.63 4.63 0 0 0-4.631 4.626 4.63 4.63 0 0 0 4.631 4.629z"/></g><path fill="#f1f2f2" d="M223.701 234.394c18.648-21.18 29.965-48.971 29.965-79.408 0-66.396-53.825-120.223-120.222-120.223-33.218 0-63.286 13.477-85.046 35.259a120.695 120.695 0 0 0-16.727 23.987 119.405 119.405 0 0 0-13.301 43.893 121.577 121.577 0 0 0-.622 12.298c0 3.849.188 7.653.542 11.409.776 8.241 2.38 16.24 4.735 23.912 11.281 36.754 39.703 66.004 75.941 78.427 12.231 4.193 25.351 6.474 39.004 6.474 12.623 0 24.79-1.95 36.22-5.558 18.139-5.725 34.412-15.64 47.7-28.603.536-.522 1.811-1.867 1.811-1.867zm-5.788-58.356a98.496 98.496 0 0 1-8.668 20.495c-16.571 29.372-47.64 49.146-83.233 49.146-27.584 0-52.447-11.88-69.956-30.895-16.137-17.524-26.026-41.111-26.026-67.058 0-15.515 3.54-30.185 9.833-43.222 15.648-32.42 48.344-54.73 86.15-54.73 3.967 0 7.876.25 11.717.728 47.479 5.898 84.262 47.175 84.262 97.224a99.865 99.865 0 0 1-4.079 28.312zM49.064 69.277l-.127.139Z"/><path fill="#5a3620" d="M257.626 161.89a119.752 119.752 0 0 1-3.386 18.976l.567-.455 16.466-13.193v-.023zM.001 167.219l16.451 13.076 6.574 5.225a119.732 119.732 0 0 1-4.735-23.912l-2.85.871L0 167.196m87.491 25.141c-6.21 0-11.254 5.034-11.254 11.257 0 6.216 5.043 11.257 11.254 11.257 6.221 0 11.261-5.041 11.261-11.257 0-6.223-5.041-11.257-11.261-11.257zm93.816 0c-6.218 0-11.259 5.034-11.259 11.257 0 6.216 5.041 11.257 11.259 11.257 6.22 0 11.257-5.041 11.257-11.257 0-6.223-5.037-11.257-11.257-11.257zm1.69-90.087c-6.963 0-15.442 7.767-15.442 14.736 0 6.965 8.125 17.207 15.088 17.207 6.968 0 15.8-9.536 15.8-16.5 0-6.97-8.478-15.442-15.446-15.442zm3.853 16.285a4.63 4.63 0 0 1-4.631-4.629 4.63 4.63 0 0 1 9.26 0 4.628 4.628 0 0 1-4.629 4.629zm-97.14-15.931c-6.971 0-14.38 8.12-14.38 15.089 0 6.965 8.825 16.147 15.794 16.147 6.963 0 15.793-9.183 15.793-16.147.001-6.97-10.243-15.089-17.207-15.089zm6.118 15.931a4.631 4.631 0 0 1-4.634-4.629 4.633 4.633 0 0 1 9.264 0 4.627 4.627 0 0 1-4.63 4.629z"/><path fill="#fef3df" d="M336.302 256.425c3.59-9.155 7.701-11 9.346-11.346-40.757 3.757-36.661 27.769-34.026 35.96.55 1.712 1.037 2.733 1.037 2.733s2.031 4.787 7.536 8.748c4.149 2.986 10.27 5.503 18.995 5.144 27.063.461 35.631-50.166 35.631-50.166-6.654 11.655-26.404 9.876-38.519 8.927zM48.937 69.415l.127-.139a121.144 121.144 0 0 1 5.229-5.402c-8.915-6.977-24.344-15.826-41.744-11.633 0 0 2.814 20.458 23.437 34.287a120.756 120.756 0 0 1 12.413-16.507l-.166.163c.231-.258.47-.511.704-.769zm209.875-17.173c-15.831-3.815-30.029 3.169-39.176 9.714a120.828 120.828 0 0 1 18.885 22.307c17.763-13.689 20.291-32.021 20.291-32.021ZM134.269 160.225c-43.299 0-78.388 22.964-78.388 51.289 0 .582.038 1.157.067 1.735.026.514.06 1.025.108 1.535 17.508 19.015 42.371 30.895 69.956 30.895 35.594 0 66.662-19.774 83.233-49.146-9.796-21.016-39.651-36.308-74.976-36.308zM87.491 214.85c-6.211 0-11.254-5.041-11.254-11.257 0-6.223 5.044-11.257 11.254-11.257 6.22 0 11.261 5.034 11.261 11.257 0 6.216-5.04 11.257-11.261 11.257zm93.816 0c-6.218 0-11.259-5.041-11.259-11.257 0-6.223 5.041-11.257 11.259-11.257 6.22 0 11.257 5.034 11.257 11.257 0 6.216-5.037 11.257-11.257 11.257zM86.265 0c-18.163 16.373-.152 41.427-.007 41.628a119.316 119.316 0 0 1 34.784-10.487C97.629 27.686 86.265 0 86.265 0Zm99.939 0s-10.863 26.476-33.231 30.883a119.39 119.39 0 0 1 34.062 9.509c3.348-5.256 15.001-26.121-.831-40.392Z"/><path fill="#87654a" d="M217.913 176.038c2.647-8.964 6.552-25.892 6.552-35.737 0-50.049-39.257-83.901-86.737-89.799-2.157 28.03 3.629 87.043 80.185 125.536zm-47.53-58.345c0-6.97 5.651-12.614 12.614-12.614 6.968 0 12.617 5.645 12.617 12.614 0 6.964-5.649 12.611-12.617 12.611-6.963 0-12.614-5.646-12.614-12.611z"/><path fill="#b58765" d="M312.658 283.772s-.487-1.021-1.037-2.733c-3.758 3.317-13.036 10.236-27.03 12.416v-.001l-.027.005a57.784 57.784 0 0 1-13.29.497v28.141a206.116 206.116 0 0 0 7.477-3.083c5.462-2.377 12.093-5.542 18.771-9.395l.081-.047c8.158-4.713 16.37-10.452 22.593-17.052-5.506-3.961-7.538-8.748-7.538-8.748zM12.549 52.242c17.4-4.193 32.83 4.656 41.744 11.633A120.85 120.85 0 0 1 72.57 49.301c-24.298-30.803-70.401-12.1-70.401-12.1-3.283 30.301 13.119 47.393 29.503 56.809a120.502 120.502 0 0 1 4.314-7.48C15.363 72.699 12.549 52.242 12.549 52.242Zm187.827-4.844a120.775 120.775 0 0 1 19.26 14.558c9.146-6.545 23.345-13.529 39.176-9.714 0 0-2.527 18.332-20.291 32.021a120.063 120.063 0 0 1 4.624 7.643c15.141-9.784 29.097-26.539 26.046-54.704 0-.001-44.152-17.909-68.815 10.196zm-61.522 3.104c-3.841-.478-8.875-.728-12.842-.728-37.806 0-70.502 22.31-86.15 54.73a58.19 58.19 0 0 0-1.603 13.612c0 1.454.085 2.787.121 4.175.127 3.935.448 7.585.855 11.135 4.292 24.958 7.96 42.492 13.464 66.758.056.407.164.804.224 1.211a63.841 63.841 0 0 0 3.025 11.854c-.029-.578-.067-1.153-.067-1.735 0-28.325 35.089-51.289 78.388-51.289 35.325 0 65.181 15.292 74.977 36.308a98.45 98.45 0 0 0 8.668-20.495c-37.925-23.49-53.915-41.148-64.66-64.217-10.747-23.068-15.479-47.304-14.4-61.319zm-47.73 79.802c-6.97 0-12.612-5.646-12.612-12.611 0-6.97 5.642-12.614 12.612-12.614 6.964 0 12.611 5.645 12.611 12.614.001 6.964-5.648 12.611-12.611 12.611z"/></svg>