<svg viewBox="0 0 250 250" xmlns="http://www.w3.org/2000/svg"><path d="M238.889 40.278 250 29.167C230.556 9.722 205.556 0 180.556 0s-50 9.722-69.445 29.167l11.111 11.11c16.667-15.277 37.5-23.61 58.334-23.61 20.833 0 41.666 8.333 58.333 23.61zm-12.5 11.11c-12.5-12.5-29.167-19.444-45.833-19.444-16.667 0-33.334 6.945-45.834 19.445L145.833 62.5c9.723-9.722 22.223-13.889 34.723-13.889s25 4.167 34.722 13.889zm-4.167 87.5h-27.778V83.334h-27.777v55.556H27.777C12.5 138.889 0 151.389 0 166.667v55.555C0 237.5 12.5 250 27.778 250h194.444C237.5 250 250 237.5 250 222.222v-55.555c0-15.278-12.5-27.778-27.778-27.778zM69.444 208.334H41.667v-27.777h27.777zm48.612 0H90.278v-27.777h27.778zm48.61 0H138.89v-27.777h27.778z" style="stroke-width:13.8889"/></svg>