<svg preserveAspectRatio="xMidYMid" viewBox="0 0 255.373 245.388" xmlns="http://www.w3.org/2000/svg"><defs><linearGradient id="a" x1="171.694" x2="58.639" y1="368.871" y2="239.065" gradientTransform="matrix(1.41353 0 0 .70745 -.001 0)" gradientUnits="userSpaceOnUse"><stop offset="18%" stop-color="#0052CC"/><stop offset="100%" stop-color="#2684FF"/></linearGradient><linearGradient id="b" x1="8.974" x2="122.094" y1="-21.811" y2="108.01" gradientTransform="matrix(1.41308 0 0 .70768 -.001 0)" gradientUnits="userSpaceOnUse"><stop offset="18%" stop-color="#0052CC"/><stop offset="100%" stop-color="#2684FF"/></linearGradient></defs><path fill="url(#a)" d="M9.259 187.33c-2.64 4.307-5.607 9.305-8.126 13.287a8.127 8.127 0 0 0 2.722 11.052l52.823 32.507a8.127 8.127 0 0 0 11.256-2.763c2.113-3.536 4.835-8.127 7.8-13.044 20.927-34.538 41.975-30.312 79.926-12.19l52.376 24.908a8.127 8.127 0 0 0 10.93-4.063l25.152-56.886a8.127 8.127 0 0 0-4.063-10.646c-11.052-5.201-33.034-15.562-52.823-25.111C116.042 109.8 55.54 112.037 9.26 187.33z" style="fill:url(#a)"/><path fill="url(#b)" d="M246.114 58.232c2.64-4.307 5.607-9.305 8.127-13.287a8.127 8.127 0 0 0-2.723-11.052L198.695 1.386a8.127 8.127 0 0 0-11.58 2.682c-2.113 3.535-4.835 8.127-7.802 13.043-20.926 34.538-41.974 30.313-79.925 12.19L47.175 4.515a8.127 8.127 0 0 0-10.93 4.063L11.092 65.465a8.127 8.127 0 0 0 4.063 10.645c11.052 5.202 33.035 15.563 52.823 25.112 71.35 34.538 131.854 32.222 178.135-42.99z" style="fill:url(#b)"/></svg>