<?xml version="1.0" encoding="UTF-8" standalone="no"?>
<svg
   width="918.53461"
   height="111.30045"
   id="svg2"
   version="1.1"
   xmlns="http://www.w3.org/2000/svg"
   xmlns:svg="http://www.w3.org/2000/svg"
   xmlns:rdf="http://www.w3.org/1999/02/22-rdf-syntax-ns#"
   xmlns:cc="http://creativecommons.org/ns#"
   xmlns:dc="http://purl.org/dc/elements/1.1/">
  <metadata
     id="metadata42">
    <rdf:RDF>
      <cc:Work
         rdf:about="">
        <dc:format>image/svg+xml</dc:format>
        <dc:type
           rdf:resource="http://purl.org/dc/dcmitype/StillImage" />
      </cc:Work>
    </rdf:RDF>
  </metadata>
  <defs
     id="defs40">
    <rect
       x="876.10492"
       y="22.103912"
       width="38.343555"
       height="62.424702"
       id="rect386" />
  </defs>
  <g
     id="g4"
     transform="translate(10.197477,206.25266)">
    <title
       id="title6">Layer 1</title>
    <g
       id="svg_1"
       transform="matrix(2.5352753,0,0,2.5352753,-8.1974772,-204.25266)"
       style="fill:#001589;fill-opacity:1">
      <path
         id="svg_2"
         d="m 85.814003,8.834 -6.922005,24.507 h -3.365997 l -5.042,-17.91 c -0.216003,-0.763 -0.348,-1.594999 -0.392998,-2.495 h -0.068 c -0.068,0.844 -0.217003,1.664001 -0.444,2.461 L 64.503997,33.340999 H 61.171001 L 53.993,8.833999 h 3.160999 l 5.213001,18.799 c 0.216,0.786001 0.353001,1.606001 0.41,2.461 h 0.086 c 0.057,-0.604 0.232002,-1.424 0.528999,-2.461 l 5.417999,-18.799 h 2.750999 l 5.195,18.936001 c 0.182007,0.649 0.318001,1.413 0.410004,2.289999 h 0.068 c 0.045,-0.591999 0.198997,-1.378 0.461998,-2.358 l 5.007004,-18.867 h 3.111 v -10e-4 z"
         style="fill:#001589;fill-opacity:1" />
      <path
         id="svg_3"
         d="m 89.674004,11.397 c -0.502007,0 -0.929001,-0.171 -1.282005,-0.513 C 88.039002,10.542 87.863,10.11 87.863,9.585 c 0,-0.523 0.177002,-0.96 0.528999,-1.308 0.354004,-0.347001 0.779999,-0.521 1.282005,-0.521 0.512993,0 0.947998,0.175 1.307999,0.521 0.357994,0.348 0.537994,0.783999 0.537994,1.308 0,0.502 -0.18,0.929 -0.537994,1.282 -0.360001,0.354 -0.795006,0.530001 -1.307999,0.530001 z m 1.366997,21.943999 H 88.238 v -17.5 h 2.803001 z"
         style="fill:#001589;fill-opacity:1" />
      <path
         id="svg_4"
         d="m 109.877,33.341 h -2.803 v -9.98 c 0,-3.714001 -1.356,-5.570999 -4.067,-5.570999 -1.401,0 -2.561,0.526999 -3.478,1.580999 -0.917999,1.053999 -1.375999,2.383999 -1.375999,3.99 v 9.98 H 95.35 v -17.5 h 2.803001 v 2.905001 h 0.068 C 99.542001,16.536 101.456,15.431 103.963,15.431 c 1.914,0 3.37801,0.618 4.39201,1.854 1.01499,1.236 1.52099,3.021999 1.52099,5.357 v 10.698999 h 10e-4 z"
         style="fill:#001589;fill-opacity:1" />
      <path
         id="svg_5"
         d="m 129.815,33.341 h -2.803 v -2.973999 h -0.068 c -1.299,2.256001 -3.305,3.383999 -6.016,3.383999 -2.199,0 -3.956,-0.783001 -5.272,-2.35 -1.315,-1.566 -1.974,-3.699999 -1.974,-6.4 0,-2.893999 0.729,-5.212999 2.188,-6.955 1.458,-1.743999 3.4,-2.615 5.828,-2.615 2.403,0 4.152,0.946001 5.246,2.837 h 0.068 V 7.433 h 2.803 z m -2.802,-7.911999 V 22.848 c 0,-1.411999 -0.468,-2.608 -1.401,-3.588999 -0.935,-0.979 -2.119,-1.470001 -3.555,-1.470001 -1.709,0 -3.054,0.627001 -4.033,1.880001 -0.98,1.254 -1.47,2.984999 -1.47,5.195 0,2.017 0.47,3.608999 1.41,4.775999 0.939,1.168001 2.201,1.752001 3.785,1.752001 1.561,0 2.828,-0.563 3.803,-1.691999 0.973,-1.127001 1.461,-2.552 1.461,-4.271001 z"
         style="fill:#001589;fill-opacity:1" />
      <path
         id="svg_6"
         d="m 142.067,33.750999 c -2.58701,0 -4.651,-0.817001 -6.19501,-2.452 -1.544,-1.634999 -2.31498,-3.802999 -2.31498,-6.503 0,-2.938999 0.80299,-5.234999 2.40998,-6.886999 1.60502,-1.652 3.77601,-2.479 6.51101,-2.479 2.608,0 4.64599,0.802999 6.10901,2.41 1.46398,1.605 2.19599,3.834 2.19599,6.681999 0,2.792 -0.789,5.027 -2.367,6.708 -1.578,1.681 -3.694,2.521 -6.349,2.521 z m 0.205,-15.962 c -1.80101,0 -3.225,0.612 -4.272,1.837 -1.049,1.226 -1.57201,2.914001 -1.57201,5.067001 0,2.073999 0.52901,3.707998 1.59002,4.904999 1.05899,1.195 2.47799,1.794001 4.25499,1.794001 1.81201,0 3.20401,-0.587 4.179,-1.761 0.974,-1.173 1.461,-2.842001 1.461,-5.007 0,-2.188 -0.487,-3.873001 -1.461,-5.059 -0.97499,-1.183001 -2.368,-1.776001 -4.18,-1.776001 z"
         style="fill:#001589;fill-opacity:1" />
      <path
         id="svg_7"
         d="m 176.03999,15.841 -5.24598,17.5 H 167.888 l -3.605,-12.527 c -0.13701,-0.479 -0.229,-1.018999 -0.27301,-1.622999 h -0.068 c -0.034,0.41 -0.15401,0.938999 -0.35901,1.59 L 159.67,33.342 h -2.803 l -5.298,-17.499999 h 2.939 l 3.622,13.158 c 0.11299,0.399 0.193,0.923 0.239,1.572001 h 0.137 c 0.034,-0.501001 0.137,-1.036001 0.30799,-1.606001 l 4.03301,-13.125 h 2.563 l 3.623,13.193001 c 0.11299,0.421999 0.19899,0.945999 0.25699,1.572001 h 0.13701 c 0.022,-0.444 0.119,-0.968 0.29,-1.572001 l 3.555,-13.193001 h 2.76799 v 0 z"
         style="fill:#001589;fill-opacity:1" />
      <path
         id="svg_8"
         d="m 177.339,32.708 v -3.007999 c 1.52601,1.129 3.20701,1.691999 5.041,1.691999 2.461,0 3.691,-0.82 3.691,-2.461 0,-0.466999 -0.105,-0.862999 -0.315,-1.188 -0.20999,-0.325001 -0.49601,-0.612 -0.85401,-0.863001 -0.35899,-0.25 -0.78099,-0.476 -1.26399,-0.674999 -0.48399,-0.198999 -1.007,-0.407 -1.56399,-0.624001 C 181.299,25.273 180.618,24.962999 180.032,24.649 c -0.58699,-0.313 -1.07601,-0.666 -1.47,-1.059999 -0.39299,-0.393002 -0.689,-0.84 -0.88899,-1.342001 -0.19901,-0.500999 -0.29902,-1.087 -0.29902,-1.76 0,-0.82 0.18801,-1.546999 0.56301,-2.178999 0.377,-0.633001 0.878,-1.162001 1.504,-1.59 0.627,-0.427 1.34201,-0.749001 2.14601,-0.966001 0.80299,-0.216 1.63099,-0.323999 2.485,-0.323999 1.515,0 2.87099,0.263 4.06799,0.786 v 2.837 c -1.289,-0.843 -2.77,-1.265001 -4.444,-1.265001 -0.524,0 -0.996,0.06 -1.418,0.18 -0.42199,0.118999 -0.783,0.288 -1.085,0.504 -0.30199,0.217001 -0.53499,0.476 -0.7,0.777 -0.166,0.302999 -0.248,0.636 -0.248,1 0,0.455999 0.082,0.837 0.248,1.146 0.16501,0.307001 0.407,0.58 0.726,0.82 0.32,0.238001 0.707,0.455 1.162,0.648001 0.457,0.194 0.97501,0.405001 1.55701,0.632999 0.77299,0.297001 1.46899,0.602001 2.084,0.914001 0.61499,0.313 1.13899,0.667 1.57199,1.059999 0.433,0.393999 0.766,0.847 1,1.358 0.233,0.514 0.35,1.122999 0.35,1.829 0,0.865999 -0.18899,1.618 -0.572,2.255999 -0.38199,0.639 -0.89099,1.167999 -1.52899,1.589001 -0.63901,0.422001 -1.373,0.735001 -2.20501,0.939999 -0.83,0.205002 -1.70199,0.308002 -2.61399,0.308002 -1.80301,0.003 -3.364,-0.345001 -4.685,-1.040001 z"
         style="fill:#001589;fill-opacity:1" />
      <path
         id="svg_9"
         d="m 197.50999,32.349998 v -3.383999 c 0.387,0.342001 0.85199,0.649 1.39299,0.923 0.541,0.274 1.11101,0.504 1.709,0.691999 0.59801,0.188 1.19901,0.333 1.80301,0.436001 0.60401,0.103001 1.16201,0.153999 1.676,0.153999 1.765,0 3.084,-0.327999 3.955,-0.983 0.872,-0.653999 1.30901,-1.598 1.30901,-2.827999 0,-0.66 -0.14601,-1.236 -0.43701,-1.726 -0.29,-0.490002 -0.69201,-0.938002 -1.20499,-1.342001 -0.51299,-0.403999 -1.11801,-0.792 -1.82001,-1.162001 -0.7,-0.369999 -1.45399,-0.761 -2.265,-1.171 -0.854,-0.433001 -1.651,-0.872 -2.393,-1.315001 -0.73999,-0.445 -1.38401,-0.934999 -1.93,-1.470999 -0.54699,-0.535 -0.979,-1.142 -1.29,-1.819 -0.314,-0.677999 -0.472,-1.473001 -0.472,-2.384 0,-1.117001 0.24501,-2.088 0.736,-2.914001 0.48799,-0.826 1.133,-1.507 1.93,-2.043 0.79901,-0.535 1.707,-0.933999 2.727,-1.195 1.02001,-0.263 2.05901,-0.394 3.119,-0.394 2.416,0 4.17501,0.29 5.281,0.872 v 3.229 c -1.447,-1.002 -3.305,-1.504 -5.571,-1.504 -0.62799,0 -1.25499,0.065 -1.881,0.196 -0.62599,0.132 -1.185,0.345 -1.675,0.641 -0.48999,0.297 -0.889,0.679 -1.195,1.146 -0.309,0.468 -0.46299,1.037001 -0.46299,1.709001 0,0.627 0.11699,1.167999 0.35199,1.624 0.23201,0.455 0.57701,0.871 1.033,1.247 0.456,0.376 1.011,0.741001 1.666,1.094 0.65601,0.354 1.41001,0.741001 2.265,1.162001 0.87801,0.434 1.709,0.889 2.495,1.367001 0.787,0.479 1.47601,1.008999 2.068,1.588999 0.592,0.582001 1.062,1.226 1.41001,1.932001 0.34799,0.706999 0.52099,1.515999 0.52099,2.427 0,1.208 -0.236,2.23 -0.709,3.066999 -0.475,0.837999 -1.111,1.518999 -1.91501,2.042999 -0.804,0.522999 -1.72898,0.902 -2.776,1.136002 -1.04899,0.232998 -2.153,0.350998 -3.31599,0.350998 -0.38699,0 -0.86501,-0.031 -1.43601,-0.094 -0.569,-0.063 -1.151,-0.153999 -1.74198,-0.273003 -0.59401,-0.119999 -1.15401,-0.267998 -1.68401,-0.443996 -0.53,-0.175998 -0.954,-0.375 -1.273,-0.591003 z"
         style="fill:#001589;fill-opacity:1" />
      <path
         id="svg_10"
         d="m 229.354,25.292 h -12.35501 c 0.044,1.947001 0.56801,3.451 1.57201,4.512001 1.00101,1.059 2.38,1.588999 4.13499,1.588999 1.97101,0 3.78202,-0.649 5.43601,-1.948 v 2.632 c -1.539,1.117001 -3.57199,1.674999 -6.10201,1.674999 -2.47299,0 -4.416,-0.794998 -5.82798,-2.383999 C 214.8,29.778 214.093,27.542999 214.093,24.66 c 0,-2.723 0.771,-4.941 2.316,-6.656 1.543,-1.715 3.461,-2.572 5.75,-2.572 2.291,0 4.063,0.741 5.315,2.221999 1.253,1.481001 1.88,3.538 1.88,6.169001 z m -2.871,-2.375999 C 226.47099,21.299 226.08099,20.039 225.313,19.14 c -0.77099,-0.9 -1.83799,-1.351 -3.205,-1.351 -1.322,0 -2.444,0.473 -3.367,1.419001 -0.92301,0.945 -1.49201,2.181999 -1.709,3.708 z"
         style="fill:#001589;fill-opacity:1" />
      <path
         id="svg_11"
         d="m 242.202,18.677999 c -0.48999,-0.375999 -1.196,-0.563 -2.11901,-0.563 -1.19499,0 -2.19499,0.563 -2.99899,1.691 -0.804,1.128 -1.204,2.666 -1.204,4.614 v 8.921 h -2.804 v -17.5 h 2.804 v 3.605 h 0.067 c 0.39898,-1.23 1.00898,-2.188999 1.82899,-2.879 0.82001,-0.690001 1.73599,-1.033999 2.752,-1.033999 0.728,0 1.287,0.08 1.674,0.239 v 2.905999 0 z"
         style="fill:#001589;fill-opacity:1" />
      <path
         id="svg_12"
         d="m 259.94299,15.841 -6.972,17.5 h -2.752 l -6.63099,-17.5 h 3.076 l 4.44299,12.715 c 0.33001,0.934999 0.53501,1.749001 0.61602,2.443001 h 0.067 C 251.903,30.122 252.086,29.331 252.337,28.624001 L 256.98498,15.841 Z"
         style="fill:#001589;fill-opacity:1" />
      <path
         id="svg_13"
         d="m 275.68301,25.292 h -12.35702 c 0.045,1.947001 0.569,3.451 1.573,4.512001 1.001,1.059 2.38101,1.588999 4.13501,1.588999 1.971,0 3.78299,-0.649 5.436,-1.948 v 2.632 c -1.539,1.117001 -3.57199,1.674999 -6.10199,1.674999 -2.47302,0 -4.41601,-0.794998 -5.828,-2.383999 -1.41202,-1.59 -2.11902,-3.825001 -2.11902,-6.708 0,-2.723 0.771,-4.941 2.31601,-6.656 1.543,-1.715 3.45999,-2.572 5.75,-2.572 2.29102,0 4.06299,0.741 5.31399,2.221999 1.254,1.481001 1.88202,3.538 1.88202,6.169001 z m -2.872,-2.375999 C 272.79901,21.299 272.409,20.039 271.64099,19.14 c -0.77099,-0.9 -1.83798,-1.351 -3.20498,-1.351 -1.322,0 -2.44401,0.473 -3.36701,1.419001 -0.923,0.945 -1.49301,2.181999 -1.70901,3.708 h 9.45101 v 0 z"
         style="fill:#001589;fill-opacity:1" />
      <path
         id="svg_14"
         d="m 288.10501,18.677999 c -0.48901,-0.375999 -1.19601,-0.563 -2.11801,-0.563 -1.19699,0 -2.19699,0.563 -3,1.691 -0.80399,1.128 -1.20499,2.666 -1.20499,4.614 v 8.921 H 278.979 v -17.5 h 2.80301 v 3.605 h 0.068 c 0.39798,-1.23 1.009,-2.188999 1.82998,-2.879 0.82001,-0.688999 1.73599,-1.033999 2.75,-1.033999 0.72901,0 1.28702,0.08 1.67502,0.239 z"
         style="fill:#001589;fill-opacity:1" />
      <path
         id="svg_15"
         d="m 307.38,15.26 c 0,-0.752 -0.11599,-1.407001 -0.35101,-1.966001 -0.233,-0.558 -0.55298,-1.021 -0.957,-1.393 -0.40399,-0.37 -0.88,-0.646 -1.427,-0.828 -0.54599,-0.183 -1.13999,-0.273 -1.776,-0.273 -0.54798,0 -1.08399,0.074 -1.607,0.222 -0.52398,0.148 -1.03299,0.354 -1.52899,0.615 -0.496,0.263 -0.97501,0.575 -1.436,0.94 -0.461,0.364 -0.891,0.769 -1.28901,1.213 v -3.008 c 0.784,-0.763 1.66602,-1.346999 2.63901,-1.752 0.97501,-0.403999 2.16199,-0.606 3.564,-0.606 1.001,0 1.931,0.146 2.78399,0.436 0.85502,0.291 1.59702,0.716001 2.224,1.273001 0.625,0.559 1.11801,1.247 1.47702,2.066999 0.35898,0.820001 0.538,1.761001 0.538,2.820001 0,0.969 -0.11002,1.845999 -0.33301,2.632 -0.22101,0.785999 -0.55899,1.527 -1.008,2.222 -0.45001,0.695 -1.01699,1.361 -1.70001,2 -0.68399,0.637999 -1.487,1.286999 -2.409,1.946999 -1.152,0.820002 -2.10098,1.521 -2.846,2.103001 -0.74601,0.580999 -1.33899,1.125 -1.77799,1.632 -0.43802,0.507999 -0.746,1.014999 -0.923,1.521 -0.176,0.507 -0.26401,1.091 -0.26401,1.752001 h 12.20102 V 33.341 h -15.12402 v -1.213001 c 0,-1.048998 0.113,-1.971998 0.34201,-2.769999 0.22799,-0.796999 0.604,-1.555 1.12799,-2.271999 0.52301,-0.718 1.20999,-1.436001 2.05899,-2.153 0.85,-0.718 1.889,-1.526001 3.11902,-2.427 0.88897,-0.638 1.63198,-1.247 2.22998,-1.829 0.59802,-0.58 1.08001,-1.162001 1.445,-1.742001 0.36301,-0.581999 0.62201,-1.171 0.776,-1.769999 C 307.30301,16.567 307.38,15.933 307.38,15.26 Z"
         style="fill:#001589;fill-opacity:1" />
      <path
         id="svg_16"
         d="m 329.93799,20.985001 c 0,2.050999 -0.18601,3.868 -0.555,5.451 -0.371,1.584 -0.906,2.92 -1.60699,4.007999 -0.70001,1.087999 -1.56101,1.914001 -2.58002,2.478001 -1.02099,0.563999 -2.17898,0.847 -3.479,0.847 -1.22998,0 -2.32599,-0.271 -3.289,-0.813 -0.96301,-0.542 -1.775,-1.330002 -2.43598,-2.367001 -0.66,-1.036001 -1.16201,-2.310001 -1.50402,-3.819 -0.34198,-1.509001 -0.513,-3.238001 -0.513,-5.187 0,-2.142 0.181,-4.033001 0.539,-5.674 0.358,-1.640999 0.88501,-3.017 1.58102,-4.127001 0.69299,-1.111 1.55698,-1.948 2.58798,-2.513 1.03101,-0.563 2.21302,-0.846 3.547,-0.846 5.14002,9.99e-4 7.70801,4.186999 7.70801,12.562 z m -2.871,0.274 C 327.06699,14.286 325.409,10.8 322.09399,10.8 c -3.49801,0 -5.246,3.549 -5.246,10.645999 0,6.620001 1.715,9.93 5.14301,9.93 3.384,0 5.07599,-3.372999 5.07599,-10.116999 z"
         style="fill:#001589;fill-opacity:1" />
      <path
         id="svg_17"
         d="m 340.32101,33.341 h -2.803 V 12.167 c -0.21702,0.216001 -0.53303,0.464 -0.947,0.743 -0.41601,0.279 -0.88501,0.556 -1.402,0.829 -0.51902,0.273 -1.064,0.528999 -1.641,0.769 -0.57699,0.240001 -1.13601,0.427 -1.68402,0.563 v -2.836 c 0.61503,-0.172 1.26801,-0.401999 1.957,-0.691999 0.689,-0.291 1.36701,-0.615 2.03303,-0.975 0.66699,-0.358 1.29599,-0.734 1.88998,-1.128 0.591,-0.393 1.104,-0.776999 1.53799,-1.153 h 1.05902 z"
         style="fill:#001589;fill-opacity:1" />
      <g
         id="svg_19"
         style="fill:#001589;fill-opacity:1">
        <path
           id="svg_20"
           d="m 291.741,19.569 c -0.61899,0 -1.14801,-0.218 -1.586,-0.653999 -0.43601,-0.436001 -0.65399,-0.964001 -0.65399,-1.584002 0,-0.620001 0.21899,-1.147999 0.65399,-1.584999 0.43799,-0.438001 0.96701,-0.656 1.586,-0.656 0.61899,0 1.14599,0.217999 1.582,0.656 0.43799,0.437 0.656,0.965 0.656,1.584999 0,0.619999 -0.21899,1.148001 -0.656,1.584002 -0.43601,0.436998 -0.96302,0.653999 -1.582,0.653999 z m 0.004,-4.128 c -0.521,0 -0.97001,0.184 -1.33799,0.552 -0.37201,0.370001 -0.556,0.813999 -0.556,1.337999 0,0.521 0.18399,0.966002 0.556,1.333 0.36798,0.370001 0.81598,0.554001 1.33799,0.554001 0.522,0 0.96499,-0.184 1.332,-0.554001 0.36901,-0.366999 0.55099,-0.812 0.55099,-1.333 0,-0.522999 -0.18198,-0.967999 -0.55099,-1.337999 -0.36798,-0.368 -0.81,-0.552 -1.332,-0.552 z m 1.08401,3.291 h -0.51602 L 292.004,18.048 c -0.15799,-0.345001 -0.32801,-0.516001 -0.51001,-0.516001 h -0.194 V 18.731 H 290.862 v -2.851001 h 0.80399 c 0.332,0 0.58801,0.069 0.768,0.209001 0.18201,0.139999 0.271,0.328999 0.271,0.567999 0,0.193001 -0.063,0.360001 -0.189,0.499001 -0.12799,0.136999 -0.30398,0.23 -0.531,0.278 v 0.011 c 0.15701,0.034 0.315,0.210001 0.471,0.526001 l 0.37302,0.761 z m -1.52902,-2.48 v 0.914999 h 0.35303 c 0.39297,0 0.58898,-0.153 0.58898,-0.459999 0,-0.177 -0.053,-0.297001 -0.15899,-0.359001 -0.10501,-0.064 -0.27301,-0.096 -0.50202,-0.096 z"
           style="fill:#001589;fill-opacity:1" />
      </g>
      <g
         id="Winlogo"
         style="fill:#001589;fill-opacity:1">
        <g
           id="TM"
           style="fill:#001589;fill-opacity:1">
          <path
             id="svg_21"
             d="M 44.971001,39.973999 H 44.259999 V 42.174 h -0.287998 v -2.200001 h -0.708 v -0.259998 h 1.707001 z"
             style="fill:#001589;fill-opacity:1" />
          <path
             id="svg_22"
             d="M 47.689999,42.174 H 47.403 v -1.650002 c 0,-0.129997 0.009,-0.289997 0.023,-0.479 H 47.42 c -0.028,0.111 -0.053,0.190002 -0.074,0.239002 l -0.84,1.890999 H 46.365002 L 45.523999,40.298 c -0.023,-0.056 -0.049,-0.139999 -0.073,-0.253002 h -0.007 c 0.01,0.099 0.014,0.260002 0.014,0.483002 v 1.646 h -0.277 V 39.714001 H 45.561 l 0.756001,1.716 c 0.058,0.132 0.096,0.23 0.112999,0.294998 h 0.01 c 0.05,-0.134998 0.089,-0.234997 0.118999,-0.301998 l 0.77,-1.709 h 0.361 z"
             style="fill:#001589;fill-opacity:1" />
        </g>
        <polygon
           id="svg_23"
           points="18.502,3.389 18.502,20.219 41.727,20.219 41.727,0 "
           style="fill:#001589;fill-opacity:1" />
        <polygon
           id="svg_24"
           points="0,20.219 16.865,20.219 16.865,3.627 0,6.087 "
           style="fill:#001589;fill-opacity:1" />
        <polygon
           id="svg_25"
           points="16.865,38.655 16.865,21.855 0,21.855 0,36.167 "
           style="fill:#001589;fill-opacity:1" />
        <polygon
           id="svg_26"
           points="41.727,21.855 18.502,21.855 18.502,38.897 41.727,42.323 "
           style="fill:#001589;fill-opacity:1" />
      </g>
    </g>
    <g
       aria-label="6"
       transform="matrix(10.823304,0,0,10.850207,-8619.2274,-437.61802)"
       id="text384"
       style="font-size:8px;font-family:'Segoe Pro';-inkscape-font-specification:'Segoe Pro, Normal';white-space:pre;shape-inside:url(#rect386)">
      <path
         d="m 880.09766,27.422164 q 0,0.53125 -0.23047,0.964844 -0.22657,0.433593 -0.62891,0.671875 -0.40234,0.238281 -0.90234,0.238281 -0.83985,0 -1.32032,-0.675781 -0.47656,-0.675782 -0.47656,-1.886719 0,-0.960938 0.28125,-1.695313 0.28516,-0.738281 0.80469,-1.136718 0.51953,-0.398438 1.19922,-0.398438 0.57812,0 0.92969,0.160156 v 0.605469 q -0.4336,-0.222656 -0.91407,-0.222656 -0.74218,0 -1.1914,0.667969 -0.44532,0.664062 -0.44532,1.773437 h 0.0156 q 0.38672,-0.792969 1.27734,-0.792969 0.72657,0 1.16407,0.476563 0.4375,0.472656 0.4375,1.25 z m -0.65625,0.08203 q 0,-0.585937 -0.28907,-0.925781 -0.28515,-0.339844 -0.80078,-0.339844 -0.46875,0 -0.78906,0.332031 -0.32031,0.328125 -0.32031,0.796875 0,0.589844 0.3164,0.988282 0.32032,0.394531 0.80469,0.394531 0.48047,0 0.77734,-0.34375 0.30079,-0.347656 0.30079,-0.902344 z"
         style="fill:#001589"
         id="path1219" />
    </g>
  </g>
</svg>
