<svg preserveAspectRatio="xMidYMid" viewBox="0 0 256 255.079" xmlns="http://www.w3.org/2000/svg"><path fill="#00abe4" d="m51.092 28.487-1.268 1.153 44.393 43.817a65.5 65.5 0 0 0-9.8 35.169 60.767 60.767 0 0 0 63.303 62.611 65.7 65.7 0 0 0 35.514-9.8l44.624 44.392a125.57 125.57 0 0 1-101.009 49.237A124.993 124.993 0 0 1 .011 129.726 122.57 122.57 0 0 1 51.092 28.488Zm24.791-16.95a128.8 128.8 0 0 1 54.08-11.53 124.76 124.76 0 0 1 126.03 125.338c.197 18.694-3.74 37.2-11.53 54.194l-39.782-39.78a65.84 65.84 0 0 0 9.801-34.593 60.88 60.88 0 0 0-63.418-63.303 64.7 64.7 0 0 0-34.593 9.801zm75.872 129.72a36.67 36.67 0 0 1-37.936-37.474 36.67 36.67 0 0 1 37.936-38.052 37.014 37.014 0 0 1 37.821 38.052 36.437 36.437 0 0 1-37.82 37.82z"/></svg>