<svg viewBox="0 0 1024 1024" xmlns="http://www.w3.org/2000/svg"><path fill="none" d="M-1-1h1026v1026H-1z"/><circle cx="512" cy="512" r="510" fill="#eee" stroke="#443c3c" stroke-width="1.5"/><circle cx="512" cy="512" r="440" fill="#443c3c" stroke="#443c3c" stroke-width="1.5"/><circle cx="512" cy="512" r="387" fill="#8e2222" stroke="#443c3c" stroke-width="1.5"/><circle cx="512" cy="512" r="378" fill="#eee" stroke="#8e2222" stroke-width="1.5"/><circle cx="510.667" cy="513.333" r="265" fill="#443c3c" stroke="#443c3c" stroke-width="1.5"/><path fill="#eee" stroke="#8e2222" stroke-width="10" d="M175.71 681.237S170.634 325.23 170 324.572c.634-53.106 17.5-47.83 30.454-49.405 198.583 10.83 270.91 71.251 275.351 73.499 13.324 5.018 20.937 31.782 20.303 31.123.634.659 4.44 420.602 3.806 419.943 3.172 22.455-13.323 21.002-13.958 20.343C360.97 721.924 188.4 697.221 187.765 696.563c-12.055-.795-12.055-15.326-12.055-15.326zm670.08.827s5.075-356.878 5.71-357.538c-.635-53.236-17.502-47.946-30.457-49.526-198.6 10.857-270.933 71.426-275.375 73.68-13.324 5.03-20.938 31.858-20.304 31.198-.634.66-4.441 421.63-3.807 420.97-3.172 22.51 13.325 21.053 13.96 20.393 124.997-98.391 297.582-123.154 298.217-123.814 12.055-.797 12.055-15.363 12.055-15.363z"/><path fill="#8e2222" stroke="#8e2222" stroke-width="5" d="M173.136 738.57s-5.158-356.007-5.803-356.665c.645-53.106 17.783-47.83 30.946-49.405 201.789 10.83 275.284 71.252 279.797 73.5 13.539 5.017 21.275 31.78 20.63 31.122.645.659 4.513 420.602 3.868 419.944 3.224 22.454-13.538 21.001-14.183 20.343-127.005-98.152-302.362-122.854-303.006-123.513-12.25-.795-12.25-15.325-12.25-15.325zm675.228.494s5.158-356.878 5.802-357.538c-.644-53.236-17.784-47.946-30.948-49.526-201.806 10.857-275.307 71.426-279.82 73.68-13.54 5.03-21.277 31.858-20.632 31.198-.645.66-4.514 421.63-3.869 420.97-3.224 22.51 13.54 21.053 14.185 20.393 127.015-98.391 302.387-123.154 303.031-123.814 12.25-.797 12.25-15.363 12.25-15.363z"/></svg>