<svg xml:space="preserve" xmlns:xlink="http://www.w3.org/1999/xlink" viewBox="0 0 159.145 136.46" xmlns="http://www.w3.org/2000/svg"><defs><linearGradient id="d"><stop offset="0" style="stop-color:var(--color-logo-eye-gradient1, #ae303b);stop-opacity:1"/><stop offset=".383" style="stop-color:var(--color-logo-eye-gradient1, #ae303b);stop-opacity:1"/><stop offset=".568" style="stop-color:var(--color-logo-eye-gradient2, #ec4050);stop-opacity:1"/><stop offset=".749" style="stop-color:var(--color-logo-eye-gradient2, #ec4050);stop-opacity:1"/><stop offset=".78" style="stop-color:var(--color-logo-eye-gradient3, #fd877d);stop-opacity:1"/><stop offset="1" style="stop-color:var(--color-logo-eye-gradient3, #fd877d);stop-opacity:1"/></linearGradient><linearGradient id="a"><stop offset="0" style="stop-color:var(--color-logo-hair-gradient1, #c33144);stop-opacity:1"/><stop offset=".42" style="stop-color:var(--color-logo-hair-gradient2, #6b8cdb);stop-opacity:1"/><stop offset="1" style="stop-color:var(--color-logo-hair-gradient3, #79f0f8);stop-opacity:1"/></linearGradient><linearGradient xlink:href="#a" id="g" x1="134.232" x2="132.768" y1="153.61" y2="41.357" gradientUnits="userSpaceOnUse"/><mask id="f" maskUnits="userSpaceOnUse"><use xlink:href="#b" style="display:inline;fill-opacity:1"/></mask><mask id="e" maskUnits="userSpaceOnUse"><use xlink:href="#b" style="display:inline;fill-opacity:1"/></mask><radialGradient xlink:href="#d" id="h" cx="153.23" cy="118.852" r="7.05" fx="153.23" fy="118.852" gradientTransform="matrix(.02065 1.86452 -2.5407 .02814 453.75 -174.37)" gradientUnits="userSpaceOnUse"/></defs><g style="display:inline;opacity:1"><path d="M97.565 155.43c-2.3-2.209-5.946-5.58-6.52-7.002 4.323 9.97 5.619 9.827 5.882 12.5-.066 2.897-2.695 2.657-3.873 1.232-2.864-3.951-4.523-5.594-6.385-9.196-1.768-3.417-3.487-9.102-3.903-10.862-.36-1.523-1.873-2.172-2.294-2.426-.785-.475-1.715-1.48-2.288-2.435-.707-1.18-1.013-2.567-1.32-3.907-.29-1.271-.22-1.294-.481-3.881-.069-.68-.762-.572-.838-.096-.593 3.716-1.292 7.546-1.49 11.36-.19 3.651.417 10.308.295 10.965.025.67-2.242 1.633-3.464.55-1.52-1.347-1.542-4.456-1.749-6.781-.492-5.547.171-11.225 1.26-16.658.535-2.675.861-4.599 2.288-8.147.371-.724-.426-.933-1.008-.402-4.22 3.054-8.871 5.259-13.813 5.708-.825.054-1.572-.07-1.902-1.483-.031-.964.649-1.914 1.263-2.619 4.112-4.725 7.503-10.413 10.628-16.002 3.179-5.686 6.11-11.394 8.203-17.737-1.687 1.438-3.858 3.734-5.752 3.9-1.87.053-3.266-1.879-2.025-3.392.833-1.257 6.445-4.929 9.242-9.17 4.275-6.482 8.41-14.81 13.819-21.33 6.353-7.658 16.307-12.5 25.902-15.57 8.454-2.706 17.75-3.261 26.548-2.081 8.703 1.167 17.22 4.46 24.792 8.905 4.829 2.835 9.247 7.497 12.663 11.037 1.43 1.482 4.038 3.496 5.821 3.83 1.568.293 4.219.395 4.637.723 1.53 1.466.916 2.7.472 3.162-1.193 1.24-2.991 1.344-5.216.774 4.728 10.852 13.448 17.465 15.423 19.36 1.571 1.974-.659 4.056-2.698 3.296-1.528-1.025-4.89-3.973-6.888-6.601 4.988 11.785 7.892 17.75 13.014 25.967 2.688 4.312 8.92 11.682 9.229 12.133.345.594-.694 3.16-2.224 3.085-3.115-.444-6.773-1.897-9.943-3.385-1.797-.843-3.414-1.95-5.078-3.11 2.331 6.627 2.548 8.359 3.182 12.666.682 4.642 1.223 9.406.645 14.063-.255 2.057-.348 4.193-1.793 5.955-1.508 1.155-3.645.329-3.58-.997.043-1.692.526-9.507.021-14.22-.291-2.724-1.284-7.83-1.75-8.03-.383 1.98-.324 3.634-1.048 5.273-.6 1.359-1.428 2.732-2.644 3.585-.614.432-1.306.63-2.158.642-.499 4.462-1.56 8.17-3.335 11.882-2.242 4.687-7.264 11.99-9.04 12.7-1.97.652-2.294-.806-2.258-1.436.04-1.685.309-2.532.822-3.802 1.1-2.486 2.139-4.897 2.44-6.386-3.82 4.294-7.944 7.33-12.273 10.733-4.394 3.51-3.668 3.11-5.216 4.56-1.846 1.73-1.731 5.416-2.096 8.298-.607 2.963-3.156-1.605-4.246-5.488-1.613-5.744-.278-7.855.799-10.067-5.457 5.158-13.037 8.656-18.871 12.501-7.183-4.441-13.564-8.368-19.588-12.716 2.174 3.133 2.127 7.356 1.578 9.615-.582 2.395-1.245 3.97-2.354 5.862-.856 1.31-2.591 2.69-2.563-.202.045-4.622-1.141-7.518-3.706-9.602-3.895-3.075-7.65-6.198-11.197-9.604" style="display:inline;fill:var(--color-logo-outline, #000000);fill-opacity:1;stroke-width:.264583" transform="translate(-55.96 -39.881)"/></g><g style="display:inline;fill-opacity:1" transform="translate(-55.96 -39.881)"><path id="b" d="M135.251 160.723c8.651-1.467 16.63-5.76 21.832-9.412 7.611-5.345 11.86-10.353 12.877-14.584.306-1.27.056-1.355-.763-.31-5.04 6.434-9.466 9.879-11.12 9.133-1.117-.503-2.154-2.405-1.055-3.52 2.919-2.961 6.475-5.187 8.688-10.08 1.44-3.181 3.149-6.021 3.59-10.782.144-1.551.218-3.182.051-4.608-.789-2.964-2.124-4.251-3.462-6.206-2.033-2.972-4.653-5.5-6.888-8.323-3.266-4.128-6.872-8.244-9.525-12.593-.49 5.842-2.43 10.451-4.969 15.104-2.874 5.27-6.988 9.853-11.336 13.991-3.712 3.532-8.157 6.211-12.407 9.072-1.848 1.243-2.994 2.33-5.684 3.512-.981.431-2.352.028-1.535-1.34.969-1.622 1.164-1.446 2.227-2.991-.269-.166-.741-.233-1.544.411-4.62 3.708-7.801 6.71-10.199 10.634-1.127 1.906-1.038 3.817-.299 4.657 3.757 4.27 5.546 5.631 9.601 8.513 4.314 2.953 13.4 8.378 21.92 9.722" style="display:inline;fill:var(--color-logo-skin, #fdf5e8);fill-opacity:1;stroke-width:.264583"/><path d="M130.09 120.76c.37 4.344-.992 6.687-1.853 8.115-3.257 3.627-6.964 6.565-11.034 8.948-4 2.432-8.8 5.575-12.38 6.533l-2.218-2.28.077-3.03 4.771-7.092 7.437-6.124 1.598.798-2.641 3.384.886.362 5.365-2.98z" mask="url(#e)" style="display:inline;fill:var(--color-logo-face-shadow, #fe514d);fill-opacity:1;stroke-width:.264583"/><path d="M167.037 131.162c-.642-.915-1.723-3.235-1.775-4.488.593-2.442.623-3.958.608-5.716-3.166-6.018-6.818-9.512-9.524-12.398-1.017-1.755-1.408-2.15-3.853-6.449-1.32-2.416-3.384-5.42-4.219-8.26l.897-5.776 9.113 10.547 7.964 9.4 4.771 7.534-.035 7.713-1.65 5.094z" mask="url(#f)" style="display:inline;fill:var(--color-logo-face-shadow, #fe514d);fill-opacity:1;stroke-width:.264583"/><path d="M135.162 136.247c-.281-.001-.633.06-.79.292-.207.307-.058.751.033 1.11.066.263.133.586.365.726a.78.78 0 0 0 .782-.013c.231-.157.268-.499.325-.772.073-.348.212-.773.012-1.067-.146-.214-.468-.275-.727-.276" style="display:inline;fill:var(--color-logo-outline, #000000);fill-opacity:1;stroke-width:.264583"/><path d="M130.749 147.198c-.574-.484.285-1.822 1.22-1.202.48.366 1.16.696 1.808.846.867.201 1.79.18 2.67.047.619-.093.742-.165 1.786-.586.942-.456 1.289.502.938 1.138-.255.298-1.226.663-1.897.814-1.252.281-2.406.341-3.846.14-.935-.132-2.06-.661-2.679-1.197" style="display:inline;opacity:1;fill:var(--color-logo-outline, #000000);fill-opacity:1;stroke-width:.264583"/></g><g style="display:inline;opacity:1"><path d="M171.783 153.145c-.91.547-1.626.388-.976-1.155 2.454-5.826 3.26-9.457 3.554-12.768.548-4.444.625-7.332.693-12.08.016-1.145 1.188-7.722 1.304-11.616.135-4.537-.033-9.11-.71-13.598-.732-4.846-2.251-9.545-3.603-14.256-.753-2.627-1.946-5.131-2.51-7.805-.376-1.788-.533-3.43-.57-5.45-.034-1.82-.215-2.673-.38-3.78-.352-2.35-2.71-4.997-3.444-5.053-.551-.03-1.122.005-1.45-.4-1.608-2.368-3.317-5.307-5.368-8.005-2.2-2.892-5.336-5.028-8.478-6.852-2.195-1.274-4.57-2.141-7.092-2.767-1.053-.262-1.127.421-.065.95 2.616 1.301 4.704 2.985 6.862 4.737 1.795 1.456 3.334 2.773 5.03 4.773.24.283.376 1.049-.403.447-1.266-.979-2.456-2.157-4.198-2.587-.726-.18-.69.339-.042.983 4.053 4.034 6.36 7.874 9.161 12.08 3.391 5.089 5.114 10.267 6.84 14.069 2.731 6.017 4.085 11.446 5.194 17.394.765 4.101.821 8.194.98 12.476.017.437-.32.722-.508.03-.905-3.334-2.003-4.696-2.65-7.156-.495-1.875-.612-4.445-.928-5.744-.282-1.153-.847-1.572-1.231-1.86-2.627-1.97-4.064-3.694-5.882-5.745-2.03-2.288-3.896-4.522-5.582-7.283-.35-.575-1.243-1.086-.576.49 1.404 3.31 3.211 6.285 5.274 9.498 1.41 2.197 2.98 4.097 4.341 6.34.284.467-.144.512-.422.213a117 117 0 0 1-6.214-7.196c-1.827-2.304-3.646-4.63-5.185-7.134-1.62-2.635-3.092-5.296-4.231-8.257-.784-2.036-1.316-3.733-1.963-6.243-.088-.345-.388-.295-.4.19-.122 5.324.46 10.55-.324 15.687-.557 3.644-1.565 6.927-2.974 10.122-1.02 2.668-1.848 4.657-3.832 7.419-2.531 3.523-5.48 6.75-8.586 9.78-1.435 1.4-2.922 2.839-4.617 3.856-.367.22-.85.263-.203-.609 3.25-4.376 5.839-8.87 8.118-13.648 2.429-5.09 4.46-10.409 5.862-15.872 1.327-5.175 2.04-10.52 2.368-15.852.059-.953-.041-2.069-.073-2.863-.075-1.811-.791-1.339-1.016-.338-.95 4.235-2.29 7.123-3.56 10.642-1.432 3.97-2.934 8.051-4.578 11.805a71 71 0 0 1-6.805 13.604c-2.55 4.68-4.804 6.785-7.52 9.58-2.66 2.735-5.209 5.55-8.095 8.09-1.462 1.286-2.871 2.664-4.3 3.952-.147-2.243.294-2.435.522-3.417.83-3.566 3.013-6.69 4.871-9.843 2.385-4.05 5.459-8.333 8.02-11.595 3.074-3.993 4.151-6.128 6.267-9.165 2.325-3.338 3.543-7.36 4.754-11.246.81-2.597 1.345-5.29 1.656-7.992.278-2.406.274-4.662.183-7.264-.065-1.83-.518-1.266-.938-.015-.855 2.542-1.493 5.163-2.337 7.714-1.44 4.352-2.787 8.704-4.65 12.943-2.12 4.828-4.607 9.53-7.305 14.076-1.671 2.816-3.606 5.467-5.484 8.149-1.242 1.772-2.55 3.397-3.824 5.248-.27.39-1.03.957-.604-.244.922-2.596 2.147-4.803 3.095-7.256.556-1.437 1.504-2.878 1.519-4.365.006-.594-.076-1.257-.535-.26-1.022 2.22-2.358 4.152-3.518 6.085-1.72 2.779-2.849 5.807-4.134 8.774-.865 1.995-1.407 3.546-2.403 6.064-.366.926-.899 1.59-.657-.18.095-.7 1.743-8.65 2.875-13.155 1.085-4.32 2.597-8.847 4.105-13.201 1.41-4.073 3.007-8.079 4.616-12.077 1.05-2.609 2.029-5.005 3.285-7.77.523-1.15.747-1.912-.734-.453-2.915 2.87-4.932 5.484-6.826 8.622-2.069 3.426-3.533 7.202-4.86 10.978-1.364 3.885-2.262 7.922-3.16 11.94-.927 4.148-1.79 8.497-2.296 12.54-1.022-2.317-1.568-5.482-1.635-9.292-.067-3.811.248-8.858.964-13.217.555-3.378 1.663-6.153 2.568-9.942.34-1.426-.174-1.154-.843-.357-2.985 3.558-4.78 7.044-6.038 11.047-1.59 5.064-1.924 10.526-1.725 15.83.221 5.864 1.534 11.687 3.218 17.31 1.03 3.44 2.734 6.64 4.175 9.929 1.065 2.43 2.553 4.43 3.305 7.242-1.664-1.38-3.647-4.807-4.98-7.303-1.29-2.418-1.734.89-1.159 2.3.771 1.89 1.801 4.007 1.902 5.548-1.258-1.088-4.129-3.195-5.22-4.297-1.585-1.6-3.62-1.97-4.79-4.528-1.677-3.67-2.24-6.518-2.755-9.242-.367-1.942-.669-3.732-.847-5.433-.693-6.592-.159-12.945 1.244-19.283 1.025-4.633 2.828-9.419 4.689-13.985 1.643-4.034 3.3-8.065 5.105-12.029.453-.994 1.093-2.094 1.436-2.945.752-1.862.266-1.873-.873-.683-1.697 1.77-3.384 4.077-4.78 6.32-1.906 3.064-2.946 5.722-4.927 9.624-2.277 4.483-4.902 8.81-7.872 12.867-1.855 2.535-3.882 4.97-6.176 7.116-1.575 1.474-3.042 2.615-5.16 3.907-1.486.908-2.15.337-.725-.913 4.953-4.347 12.747-21.782 13.689-24.162 1.955-4.938 6.421-19.64 11.308-26.553 3.112-4.401 6.825-8.604 11.379-11.734 8.915-6.125 20.811-11.584 31.117-10.952 7.557-.223 12.907.338 19.05 2.09 5.086 1.452 9.898 3.94 14.313 6.853 4.27 2.82 8.124 6.316 11.539 10.128 4.04 4.511 6.82 11.025 8.554 15.792 2.09 5.742 3.641 10.492 5.836 15.588 2.01 4.666 4.14 9.302 6.7 13.69 1.925 3.298 6.483 9.445 6.483 9.445.402.585-.064.928-.52.627-8.44-5.563-10.975-9.88-14.925-16.014-3.058-4.748-5.753-10.595-8.12-15.345-.297-.594-5.396-8.72-7.825-10.763-.731-.615-.985 0-.55.9 2.434 5.049 4.71 9.348 6.711 14.18 2.41 5.818 4.716 11.71 6.358 17.79 1.103 4.087 1.934 8.271 2.326 12.487.26 2.796.142 7.891.01 8.425-.13.553-.497.926-.527.438-.284-4.582-1.728-7.721-3.194-10.78-.446-.93-.431.392-.38.787.618 4.696.75 7.938.394 11.886-.184 2.043-.487 4.133-1.302 6.015-1.687 3.897-4.412 7.314-7.236 10.486-1.424 1.599-2.956 3.111-4.829 4.235" style="display:inline;fill:url(#g);fill-opacity:1;stroke-width:.264583" transform="translate(-55.96 -39.881)"/><path d="M109.242 63.751c.527-.466.016-.9-.503-.61-3.567 1.996-6.364 4.888-8.538 8.646-.318.55-.68 1.679-.036 2.691.599.94 1.557.9 2.027.143.881-1.418 2.084-4.073 3.318-6.027 1.134-1.793 2.4-3.665 3.732-4.843m6.816-10.478c-.737.505-1.31 2.541.524 3.045.692.19 1.087.005 1.718-.318 1.012-.518 2.871-2.539 4.849-3.907 1.311-.908 3.273-2.11 5.39-2.93.871-.337.667-.622-.043-.624-2.577-.007-4.75.73-7.11 1.65-1.913.747-3.636 1.925-5.328 3.084" style="display:inline;fill:var(--color-logo-outline, #000000);fill-opacity:1;stroke-width:.264583" transform="translate(-55.96 -39.881)"/></g><g style="display:inline;opacity:1"><path d="m147.768 115.094 1.516-3.04 13.284-.376.984 3.573s.416 5.532-.284 8.164c-.41 1.543-1.163 3.051-2.232 4.237-.98 1.086-2.255 2.002-3.653 2.435-1.341.415-2.853.405-4.211.05-1.426-.372-2.819-1.135-3.83-2.206-1.086-1.15-1.76-2.7-2.132-4.237-.406-1.676-.261-3.463-.05-5.175.162-1.318 1.003-3.855 1.003-3.855z" style="display:inline;opacity:1;fill:var(--color-logo-outline, #000000);fill-opacity:1;stroke-width:.264583" transform="translate(-55.96 -39.881)"/><path d="M162.125 102.577c-3.365.751-6.331 1.106-10.096 2.252-2.12.9-5.573 2.708-5.86 3.132-.15.276-.466.97.438.668 2.736-.936 4.071-1.602 6.87-2.437 2.438-.543 4.27-.915 7.018-1.233 1.963-.218 1.76-.138 2.415-.193z" style="display:inline;fill:var(--color-logo-outline, #000000);fill-opacity:1;stroke-width:.264583" transform="translate(-55.96 -39.881)"/><path d="M148.83 114.651c-1.13 2.46-.587 5.637.116 8.12.518 1.83 1.743 3.326 3.302 4.17 1.453.787 3.355.938 4.934.453 1.458-.448 2.65-1.662 3.535-2.904.862-1.209 1.47-2.693 1.55-4.176.093-1.746-.367-3.646-1.29-5.086-.534-.832-1.613-1.38-2.546-1.866-.936-.49-1.951-.888-2.999-1.026-1.376-.183-2.867-.241-4.157.275-.985.394-2.002 1.076-2.445 2.04" style="display:inline;opacity:1;fill:url(#h);fill-opacity:1;stroke-width:.264583" transform="translate(-55.96 -39.881)"/><path d="M144.168 118.947c.016.496.283.757.625.201.923-1.335 1.846-2.507 3.037-3.485.981-.806 2.077-1.57 3.304-1.897 2.495-.663 5.281-.759 7.744.014 1.67.523 3.148 1.638 4.313 2.989.902 1.046 2.122 2.943 2.247 3.475.187.794.398 1.585.567 2.419.088.433.484.68.658-.23a19.3 19.3 0 0 0 .554-4.594c-.06-.933-.806-2.215-1.394-3.125-.257-.53.133-.632.389-.537.137.056 1.416 1.121 2.038 1.78.325.302.98.975 1.412 1.214.734-.227.539-1.506-.305-2.283a193 193 0 0 1-2.69-2.229c-2.113-1.776-4.502-3.32-7.23-3.932a16.8 16.8 0 0 0-5.656-.279 16.2 16.2 0 0 0-5.125 1.522c-1.436.701-2.76 1.667-3.905 2.783-.87.849-2.15 2.733-2.293 3.272-.237 1.269.602.828.939.452.612-.605 1.126-1.14 1.836-1.817.45-.43.708-.279.524.29-.227.701-.766 1.28-1.126 1.935-.337.612-.457 1.328-.463 2.062" style="display:inline;fill:var(--color-logo-outline, #000000);fill-opacity:1;stroke-width:.264583" transform="translate(-55.96 -39.881)"/><path d="M151.726 121.382c1.702 2.582 3.609 1.865 3.942 1.69 2.048-1.075 2.618-4.35 2.478-6.253-.158-2.153-1.054-4-3.264-4.345-1.004-.104-1.868-.022-2.621.688-.952.897-2.458 5.017-.535 8.22" style="display:inline;opacity:1;fill:var(--color-logo-outline, #000000);fill-opacity:1;stroke-width:.264583" transform="translate(-55.96 -39.881)"/><path d="M150.534 114.12c-.798.155-1.587.667-2.035 1.346-.265.4-.368.949-.26 1.417.106.463.414.943.842 1.148.419.2.959.106 1.39-.063.372-.145.675-.453.915-.771.31-.408.596-.888.637-1.4.04-.5-.029-1.109-.394-1.452-.272-.255-.729-.295-1.095-.224" style="display:inline;fill:var(--color-logo-eye-ref1, #e3e4d6);fill-opacity:1;stroke-width:.264583" transform="translate(-55.96 -39.881)"/><path d="M149.74 119.246a.46.46 0 0 0-.228.382c.006.181.159.349.312.447.246.16.572.185.864.162.208-.017.489-.028.59-.21.134-.238.043-.629-.17-.799-.356-.284-.972-.209-1.367.018m10.031-.103a.75.75 0 0 0-.143.628c.068.254.294.48.538.579.227.09.51.057.731-.045a1 1 0 0 0 .484-.498c.12-.286.224-.698.018-.93-.202-.226-.607-.142-.906-.088-.263.048-.555.144-.722.354" style="display:inline;fill:var(--color-logo-eye-ref2, #e8c8bb);fill-opacity:1;stroke-width:.264583" transform="translate(-55.96 -39.881)"/><path d="M156.563 116.907a1.62 1.62 0 0 0-1.218.685 1.43 1.43 0 0 0-.126 1.243c.144.362.511.66.887.761.316.085.691.001.964-.177.342-.224.608-.614.685-1.015.07-.357 0-.783-.228-1.066a1.23 1.23 0 0 0-.964-.43" style="display:inline;fill:var(--color-logo-eye-ref3, #ffc2b2);fill-opacity:1;stroke-width:.264583" transform="translate(-55.96 -39.881)"/></g></svg>