<?xml version="1.0" encoding="UTF-8" standalone="no"?>
<!-- Created with Inkscape (http://www.inkscape.org/) -->

<svg
   width="159.14481mm"
   height="136.46048mm"
   viewBox="0 0 159.14481 136.46048"
   version="1.1"
   id="svg1"
   xml:space="preserve"
   xmlns:xlink="http://www.w3.org/1999/xlink"
   xmlns="http://www.w3.org/2000/svg"
   xmlns:svg="http://www.w3.org/2000/svg"><defs
     id="defs1"><linearGradient
       id="linearGradient27"><stop
         style="stop-color:var(--color-logo-eye-gradient1, #ae303b);stop-opacity:1;"
         offset="0"
         id="stop27" /><stop
         style="stop-color:var(--color-logo-eye-gradient1, #ae303b);stop-opacity:1;"
         offset="0.38321319"
         id="stop29" /><stop
         style="stop-color:var(--color-logo-eye-gradient2, #ec4050);stop-opacity:1;"
         offset="0.56830317"
         id="stop30" /><stop
         style="stop-color:var(--color-logo-eye-gradient2, #ec4050);stop-opacity:1;"
         offset="0.74884325"
         id="stop31" /><stop
         style="stop-color:var(--color-logo-eye-gradient3, #fd877d);stop-opacity:1;"
         offset="0.7798844"
         id="stop32" /><stop
         style="stop-color:var(--color-logo-eye-gradient3, #fd877d);stop-opacity:1;"
         offset="1"
         id="stop28" /></linearGradient><linearGradient
       id="linearGradient4"><stop
         style="stop-color:var(--color-logo-hair-gradient1, #c33144);stop-opacity:1;"
         offset="0"
         id="stop4" /><stop
         style="stop-color:var(--color-logo-hair-gradient2, #6b8cdb);stop-opacity:1;"
         offset="0.42048931"
         id="stop6" /><stop
         style="stop-color:var(--color-logo-hair-gradient3, #79f0f8);stop-opacity:1;"
         offset="1"
         id="stop5" /></linearGradient><mask
       maskUnits="userSpaceOnUse"
       id="mask1"><use
         x="0"
         y="0"
         xlink:href="#path2"
         id="use2"
         style="display:inline;fill-opacity:1" /></mask><mask
       maskUnits="userSpaceOnUse"
       id="mask3"><use
         x="0"
         y="0"
         xlink:href="#path2"
         id="use4"
         style="display:inline;fill-opacity:1" /></mask><linearGradient
       xlink:href="#linearGradient4"
       id="linearGradient5"
       x1="134.23183"
       y1="153.61011"
       x2="132.76767"
       y2="41.356907"
       gradientUnits="userSpaceOnUse" /><radialGradient
       xlink:href="#linearGradient27"
       id="radialGradient28"
       cx="153.23048"
       cy="118.852"
       fx="153.23048"
       fy="118.852"
       r="7.0497861"
       gradientTransform="matrix(0.02065418,1.8645171,-2.5407,0.02814458,453.75063,-174.36967)"
       gradientUnits="userSpaceOnUse" /></defs><g
     id="layer2"
     style="display:inline;opacity:1"
     transform="translate(-55.960674,-39.881454)"><path
       style="display:inline;fill:var(--color-logo-outline, #000000);fill-opacity:1;stroke-width:0.264583"
       d="m 97.565151,155.42945 c -2.300488,-2.20847 -5.946606,-5.57868 -6.519565,-7.00155 4.322625,9.97021 5.617932,9.82674 5.881401,12.49927 -0.06574,2.89795 -2.694696,2.65826 -3.873478,1.2328 -2.863836,-3.95099 -4.52226,-5.59386 -6.384886,-9.19577 -1.767223,-3.41742 -3.48629,-9.10258 -3.902899,-10.86204 -0.360589,-1.52287 -1.872927,-2.17218 -2.293314,-2.4264 -0.785463,-0.47499 -1.715702,-1.47974 -2.288378,-2.43513 -0.706646,-1.17889 -1.013024,-2.56673 -1.319133,-3.90667 -0.29035,-1.27096 -0.220997,-1.29415 -0.481991,-3.88129 -0.06851,-0.6791 -0.761471,-0.57153 -0.837538,-0.0952 -0.59327,3.71507 -1.29247,7.54576 -1.490158,11.35962 -0.189266,3.65137 0.416467,10.30841 0.294584,10.96485 0.02475,0.67084 -2.241557,1.63282 -3.463932,0.54934 -1.519275,-1.34665 -1.542241,-4.45536 -1.74849,-6.78025 -0.492064,-5.54669 0.171019,-11.22496 1.258696,-16.65794 0.535494,-2.6748 0.861939,-4.59888 2.289063,-8.14717 0.370842,-0.72412 -0.426385,-0.93296 -1.007981,-0.40183 -4.220354,3.05429 -8.87129,5.25847 -13.81285,5.70779 -0.824911,0.0546 -1.572641,-0.0694 -1.902595,-1.48242 -0.03116,-0.96412 0.64931,-1.91437 1.262944,-2.61949 4.111968,-4.72502 7.503736,-10.41252 10.628226,-16.00172 3.178656,-5.68609 6.109744,-11.393816 8.203615,-17.737532 -1.687269,1.437842 -3.858806,3.734269 -5.752211,3.900625 -1.870995,0.05291 -3.266511,-1.879029 -2.025106,-3.391992 0.833189,-1.257637 6.445313,-4.929366 9.242065,-9.170284 4.274879,-6.48231 8.408836,-14.81062 13.818302,-21.330436 6.35335,-7.657443 16.307688,-12.499549 25.902258,-15.570056 8.45411,-2.705532 17.75029,-3.260591 26.54802,-2.080792 8.70324,1.167128 17.2201,4.459352 24.79266,8.905135 4.82842,2.834723 9.24661,7.497379 12.66229,11.036749 1.43097,1.482788 4.0382,3.496014 5.82165,3.829702 1.56804,0.293383 4.21845,0.396087 4.6368,0.723393 1.52971,1.466625 0.91627,2.700567 0.47185,3.162668 -1.19289,1.240358 -2.99144,1.343071 -5.21627,0.77332 4.72805,10.85185 13.44803,17.46558 15.42295,19.359825 1.57172,1.974149 -0.65872,4.056669 -2.69758,3.296211 -1.52793,-1.024592 -4.89052,-3.972362 -6.88814,-6.601129 4.98779,11.785444 7.89179,17.750833 13.0136,25.966933 2.68816,4.31221 8.92103,11.68206 9.22934,12.13306 0.34551,0.59439 -0.69377,3.15996 -2.22429,3.08532 -3.11454,-0.44408 -6.77313,-1.89712 -9.94224,-3.38463 -1.79702,-0.84348 -3.41395,-1.951 -5.07843,-3.11068 2.33139,6.62748 2.54839,8.3591 3.18168,12.66593 0.68269,4.64277 1.22309,9.40622 0.64577,14.06327 -0.25506,2.05747 -0.34826,4.19351 -1.79379,5.95537 -1.50725,1.15527 -3.64492,0.32858 -3.57961,-0.99731 0.0434,-1.69165 0.52544,-9.50679 0.0211,-14.21983 -0.2915,-2.72412 -1.28371,-7.83069 -1.75101,-8.03032 -0.38166,1.98076 -0.32362,3.63399 -1.04737,5.27353 -0.59956,1.35822 -1.42827,2.73165 -2.6433,3.58484 -0.61441,0.43143 -1.30626,0.62956 -2.15887,0.64179 -0.49828,4.46235 -1.55971,8.17077 -3.33464,11.88176 -2.24213,4.68781 -7.26423,11.99041 -9.04068,12.7 -1.96918,0.6519 -2.29341,-0.80615 -2.25778,-1.43557 0.0404,-1.68524 0.30952,-2.53169 0.82275,-3.80228 1.09885,-2.48571 2.13838,-4.89728 2.43955,-6.38588 -3.81934,4.29411 -7.94423,7.33054 -12.2731,10.73299 -4.39345,3.50952 -3.66803,3.1095 -5.21564,4.56016 -1.84649,1.73083 -1.73103,5.41545 -2.09621,8.29764 -0.60723,2.96371 -3.15561,-1.60427 -4.24608,-5.48764 -1.6131,-5.74458 -0.27782,-7.85533 0.79883,-10.06699 -5.45651,5.15796 -13.03686,8.6555 -18.87106,12.50095 -7.18293,-4.44141 -13.56379,-8.36842 -19.5877,-12.7162 2.17375,3.13301 2.12745,7.35642 1.57853,9.61469 -0.58231,2.39564 -1.2451,3.97104 -2.35474,5.8626 -0.85517,1.31065 -2.59104,2.69059 -2.56278,-0.2022 0.0452,-4.62169 -1.14114,-7.518 -3.7057,-9.60163 -3.89488,-3.07487 -7.64982,-6.19858 -11.197009,-9.60388 z"
       id="path1" /></g><g
     id="layer3"
     style="display:inline;fill-opacity:1"
     transform="translate(-55.960674,-39.881454)"><path
       style="display:inline;fill:var(--color-logo-skin, #fdf5e8);fill-opacity:1;stroke-width:0.264583"
       d="m 135.2514,160.72315 c 8.65084,-1.46704 16.63045,-5.75946 21.83146,-9.41187 7.61156,-5.34522 11.85987,-10.35361 12.87745,-14.58444 0.30534,-1.26951 0.0557,-1.35472 -0.76328,-0.30926 -5.03966,6.43302 -9.46607,9.87805 -11.11997,9.1327 -1.11681,-0.5033 -2.15413,-2.40525 -1.05526,-3.52017 2.91873,-2.96135 6.47506,-5.18683 8.68808,-10.07927 1.43942,-3.1822 3.14876,-6.02199 3.59012,-10.78311 0.14375,-1.55069 0.21758,-3.18177 0.0512,-4.60757 -0.78923,-2.96419 -2.12427,-4.25144 -3.46201,-6.20649 -2.03365,-2.97209 -4.65331,-5.49923 -6.88813,-8.32317 -3.26604,-4.127013 -6.87191,-8.243553 -9.525,-12.59237 -0.49007,5.841922 -2.43065,10.450948 -4.96879,15.10367 -2.87463,5.26954 -6.98822,9.85365 -11.33672,13.99153 -3.71133,3.53157 -8.15658,6.21073 -12.40665,9.07129 -1.84757,1.24354 -2.99351,2.33009 -5.68368,3.51211 -0.98164,0.43132 -2.35221,0.0286 -1.53513,-1.33976 0.96866,-1.62225 1.16412,-1.44629 2.22702,-2.99134 -0.2688,-0.16566 -0.74126,-0.23228 -1.54393,0.41168 -4.62089,3.70725 -7.80145,6.71036 -10.19884,10.63332 -1.12719,1.90599 -1.03797,3.81735 -0.29894,4.65738 3.75663,4.27002 5.54535,5.631 9.60088,8.51283 4.31351,2.95318 13.39924,8.37784 21.9201,9.72231 z"
       id="path2" /><path
       style="display:inline;fill:var(--color-logo-face-shadow, #fe514d);fill-opacity:1;stroke-width:0.264583"
       d="m 130.08994,120.75963 c 0.36922,4.34466 -0.9916,6.68759 -1.85313,8.11573 -3.25671,3.62688 -6.96411,6.56446 -11.03379,8.94799 -4.00045,2.43163 -8.79919,5.57438 -12.38062,6.53315 l -2.21751,-2.28057 0.0774,-3.02982 4.77119,-7.09177 7.4362,-6.12419 1.59849,0.79744 -2.64135,3.38445 0.88608,0.36227 5.36464,-2.98058 z"
       id="path16"
       mask="url(#mask3)" /><path
       style="display:inline;fill:var(--color-logo-face-shadow, #fe514d);fill-opacity:1;stroke-width:0.264583"
       d="m 167.03728,131.16157 c -0.64254,-0.91492 -1.72292,-3.23506 -1.77488,-4.48745 0.59213,-2.44242 0.6222,-3.95832 0.60727,-5.71573 -3.16607,-6.01791 -6.81777,-9.51195 -9.52335,-12.39851 -1.01752,-1.75456 -1.40842,-2.14946 -3.85357,-6.44892 -1.32059,-2.415668 -3.38332,-5.419683 -4.21847,-8.26012 l 0.8969,-5.775988 9.11242,10.547456 7.96441,9.399432 4.77147,7.5339 -0.0359,7.71328 -1.65029,5.09435 z"
       id="path17"
       mask="url(#mask1)" /><path
       style="display:inline;fill:var(--color-logo-outline, #000000);fill-opacity:1;stroke-width:0.264583"
       d="m 135.16185,136.24675 c -0.28081,-0.001 -0.63304,0.0597 -0.79004,0.29247 -0.20688,0.3068 -0.0579,0.75091 0.0329,1.10961 0.0666,0.26283 0.13372,0.5863 0.36579,0.72648 0.22292,0.13466 0.56544,0.1322 0.78116,-0.0137 0.23131,-0.15643 0.26861,-0.4985 0.32549,-0.77187 0.0724,-0.34801 0.21211,-0.77254 0.012,-1.06631 -0.14604,-0.21437 -0.46793,-0.27553 -0.72732,-0.27669 z"
       id="path15" /><path
       style="display:inline;opacity:1;fill:var(--color-logo-outline, #000000);fill-opacity:1;stroke-width:0.264583"
       d="m 130.74901,147.19801 c -0.57441,-0.48434 0.28506,-1.82213 1.21977,-1.20183 0.47973,0.36595 1.15977,0.69599 1.80801,0.84614 0.86698,0.20082 1.78943,0.17963 2.66939,0.0468 0.61975,-0.0936 0.74301,-0.16481 1.78651,-0.58651 0.94275,-0.45535 1.28893,0.50288 0.93814,1.13795 -0.25495,0.29852 -1.22572,0.66386 -1.89725,0.81464 -1.25166,0.28104 -2.4059,0.34083 -3.84594,0.13914 -0.93466,-0.13091 -2.05871,-0.66076 -2.67863,-1.19591 z"
       id="path27" /></g><g
     id="layer4"
     style="display:inline;opacity:1"
     transform="translate(-55.960674,-39.881454)"><path
       style="display:inline;fill:url(#linearGradient5);fill-opacity:1;stroke-width:0.264583"
       d="m 171.78307,153.14506 c -0.91089,0.54652 -1.62618,0.38789 -0.97629,-1.15514 2.45382,-5.82613 3.25992,-9.45701 3.55459,-12.76804 0.54736,-4.44435 0.62494,-7.33189 0.69237,-12.08077 0.0162,-1.14418 1.18813,-7.72103 1.30427,-11.61545 0.13529,-4.53657 -0.0328,-9.10949 -0.7103,-13.59722 -0.73171,-4.846691 -2.25084,-9.545159 -3.60225,-14.256793 -0.75348,-2.626964 -1.94648,-5.13082 -2.51015,-7.804947 -0.37677,-1.787454 -0.53353,-3.42995 -0.57068,-5.4504 -0.0335,-1.8202 -0.21465,-2.672339 -0.38015,-3.779973 -0.3511,-2.349744 -2.70915,-4.996822 -3.44324,-5.052736 -0.55151,-0.02961 -1.12249,0.0058 -1.45032,-0.399733 -1.60836,-2.368176 -3.31683,-5.306563 -5.36824,-8.00449 -2.19938,-2.89253 -5.33519,-5.028753 -8.47795,-6.852783 -2.19469,-1.273783 -4.56932,-2.140706 -7.09208,-2.766822 -1.05313,-0.261372 -1.12697,0.421471 -0.0648,0.949918 2.61565,1.301338 4.70426,2.985801 6.86262,4.737355 1.79453,1.456304 3.33385,2.772807 5.02904,4.77277 0.24022,0.283416 0.37642,1.049008 -0.4027,0.446774 -1.26576,-0.978395 -2.45548,-2.156901 -4.19749,-2.586921 -0.72594,-0.179199 -0.68993,0.339009 -0.0424,0.983514 4.05258,4.033809 6.35931,7.873792 9.16137,12.079288 3.39095,5.089321 5.1136,10.267113 6.83945,14.069413 2.73134,6.017542 4.08546,11.445804 5.19448,17.394486 0.76451,4.10076 0.82084,8.19344 0.98053,12.47576 0.0163,0.4372 -0.32049,0.72204 -0.50849,0.0297 -0.90537,-3.33414 -2.00346,-4.69564 -2.65113,-7.15538 -0.49386,-1.8756 -0.61097,-4.4453 -0.92758,-5.74418 -0.28112,-1.153307 -0.8468,-1.571905 -1.2305,-1.859811 -2.62692,-1.971093 -4.06366,-3.694921 -5.88232,-5.745537 -2.02951,-2.28837 -3.89547,-4.522042 -5.58154,-7.283311 -0.35111,-0.57502 -1.24332,-1.085264 -0.57576,0.489696 1.40338,3.310936 3.21105,6.285445 5.27401,9.49888 1.41036,2.196885 2.97971,4.097209 4.34093,6.340643 0.28313,0.46664 -0.1439,0.51097 -0.42273,0.21214 -2.22571,-2.38536 -4.24477,-4.713028 -6.21387,-7.196394 -1.82637,-2.303362 -3.64608,-4.628844 -5.18518,-7.133298 -1.61919,-2.634803 -3.09113,-5.296069 -4.23098,-8.256797 -0.78384,-2.035976 -1.31523,-3.73309 -1.96218,-6.243894 -0.0887,-0.3442 -0.38851,-0.294375 -0.39972,0.191159 -0.12288,5.32315 0.45867,10.548942 -0.32518,15.686198 -0.55608,3.644485 -1.56412,6.926588 -2.97304,10.121596 -1.02098,2.66857 -1.84875,4.65791 -3.83255,7.41933 -2.53102,3.52315 -5.48083,6.7507 -8.58586,9.78014 -1.4352,1.40026 -2.92161,2.83892 -4.61696,3.85593 -0.36706,0.22019 -0.85073,0.26331 -0.20295,-0.60883 3.25004,-4.3757 5.83835,-8.87066 8.11775,-13.64796 2.42872,-5.09025 4.46093,-10.408831 5.86197,-15.872014 1.32718,-5.175177 2.0408,-10.519417 2.36814,-15.852025 0.0585,-0.95281 -0.0411,-2.069031 -0.0735,-2.862866 -0.0741,-1.811632 -0.79089,-1.338756 -1.01521,-0.338625 -0.9499,4.235055 -2.28975,7.123567 -3.55962,10.641894 -1.43294,3.970128 -2.93476,8.051741 -4.57854,11.805682 -1.79887,4.810309 -4.05029,9.319284 -6.8051,13.603824 -2.55077,4.67998 -4.80434,6.78544 -7.52037,9.57941 -2.6591,2.7354 -5.20829,5.54993 -8.09481,8.0903 -1.46153,1.28626 -2.87099,2.6645 -4.30073,3.95205 -0.14615,-2.24299 0.29494,-2.43527 0.52334,-3.41725 0.82924,-3.56549 3.01281,-6.6886 4.87065,-9.84277 2.38498,-4.04914 5.4586,-8.33272 8.01935,-11.59496 3.07466,-3.993014 4.15188,-6.128269 6.26716,-9.165253 2.32486,-3.33789 3.54319,-7.360104 4.75431,-11.245433 0.80965,-2.597406 1.34488,-5.289399 1.65635,-7.992182 0.2773,-2.406266 0.27408,-4.66221 0.1825,-7.264284 -0.0644,-1.830328 -0.51751,-1.26522 -0.93824,-0.01459 -0.85507,2.541712 -1.49301,5.163329 -2.33692,7.714134 -1.43987,4.352151 -2.78635,8.703495 -4.64919,12.942756 -2.12141,4.827675 -4.60786,9.530085 -7.3057,14.076262 -1.67084,2.81557 -3.60591,5.46672 -5.48426,8.14832 -1.24186,1.77293 -2.54977,3.39725 -3.82397,5.24851 -0.2687,0.39039 -1.02974,0.95675 -0.60321,-0.24445 0.92159,-2.59541 2.14661,-4.80294 3.09489,-7.25523 0.55565,-1.43693 1.50424,-2.87868 1.51847,-4.36531 0.006,-0.59377 -0.0754,-1.25744 -0.53453,-0.25983 -1.02181,2.21999 -2.35795,4.1513 -3.51766,6.0847 -1.72116,2.77893 -2.8495,5.80703 -4.13469,8.77364 -0.86432,1.99511 -1.40655,3.54691 -2.40267,6.06422 -0.36659,0.9264 -0.89894,1.58954 -0.6573,-0.18017 0.0954,-0.69879 1.74357,-8.64914 2.87507,-13.15509 1.08472,-4.31967 2.59749,-8.84611 4.10504,-13.200577 1.40995,-4.072526 3.00736,-8.078768 4.61616,-12.076918 1.04963,-2.608539 2.02887,-5.005455 3.2851,-7.769426 0.52311,-1.150961 0.74708,-1.912606 -0.73439,-0.453546 -2.91439,2.870297 -4.93141,5.483913 -6.82605,8.621966 -2.06831,3.425707 -3.53298,7.202143 -4.85896,10.977743 -1.36433,3.884818 -2.26278,7.922718 -3.160983,11.940978 -0.926985,4.14704 -1.789254,8.49577 -2.295426,12.53979 -1.022627,-2.31709 -1.568275,-5.48235 -1.63544,-9.29299 -0.06716,-3.81064 0.248003,-8.85784 0.963982,-13.216702 0.554789,-3.377536 1.662863,-6.152604 2.568302,-9.942016 0.340671,-1.425763 -0.174655,-1.153619 -0.843629,-0.356341 -2.984919,3.557405 -4.779693,7.0433 -6.037225,11.046709 -1.590628,5.06383 -1.924622,10.52559 -1.725021,15.82961 0.220695,5.86456 1.534091,11.68753 3.217376,17.30965 1.029839,3.43963 2.733888,6.64087 4.175207,9.92937 1.065214,2.43038 2.552617,4.43068 3.304857,7.2423 -1.663636,-1.38033 -3.646913,-4.80758 -4.979143,-7.30275 -1.291342,-2.41858 -1.734343,0.89039 -1.159597,2.29899 0.771283,1.89027 1.80125,4.00777 1.902169,5.54868 -1.25861,-1.08786 -4.128811,-3.19478 -5.220617,-4.29683 -1.584846,-1.59973 -3.619472,-1.96935 -4.789215,-4.52867 -1.677445,-3.67013 -2.240124,-6.51773 -2.755367,-9.24168 -0.367326,-1.94196 -0.668555,-3.73207 -0.84736,-5.43318 -0.692843,-6.59154 -0.158428,-12.94473 1.244156,-19.28303 1.025227,-4.63311 2.827985,-9.418339 4.688746,-13.984317 1.643896,-4.033829 3.299518,-8.065284 5.105719,-12.029097 0.452834,-0.993769 1.092792,-2.093966 1.436015,-2.944756 0.751466,-1.862752 0.265941,-1.873351 -0.873597,-0.683807 -1.696611,1.771064 -3.383709,4.077346 -4.778953,6.319819 -1.906612,3.064358 -2.946557,5.722681 -4.92814,9.624593 -2.276706,4.483036 -4.901877,8.809995 -7.87177,12.867185 -1.855122,2.53428 -3.881892,4.97061 -6.1755,7.11618 -1.575401,1.47372 -3.042095,2.61434 -5.159603,3.90667 -1.486767,0.90739 -2.15058,0.33718 -0.72576,-0.91324 4.952776,-4.34653 12.746559,-21.781604 13.688783,-24.161398 1.955223,-4.938343 6.421423,-19.64128 11.308163,-26.553115 3.111799,-4.401349 6.824628,-8.604754 11.378721,-11.733866 8.91514,-6.125594 20.81144,-11.584377 31.1172,-10.952683 7.55718,-0.222831 12.90678,0.338422 19.04971,2.09099 5.08661,1.451201 9.89844,3.938352 14.31299,6.852332 4.27119,2.81935 8.12485,6.315518 11.53911,10.127957 4.04005,4.511216 6.82044,11.024494 8.55477,15.791447 2.08923,5.742439 3.64054,10.492598 5.83523,15.588289 2.00973,4.666244 4.13956,9.302147 6.70075,13.689987 1.92499,3.29791 6.48275,9.4451 6.48275,9.4451 0.40184,0.58546 -0.064,0.92762 -0.52054,0.62673 -8.43953,-5.56249 -10.97444,-9.8791 -14.92506,-16.01408 -3.05747,-4.747992 -5.75268,-10.594224 -8.12,-15.344419 -0.29621,-0.59437 -5.39578,-8.720645 -7.82454,-10.763572 -0.73112,-0.614975 -0.98514,1.3e-5 -0.55084,0.900638 2.43446,5.048401 4.7111,9.347966 6.71206,14.179191 2.4097,5.818106 4.71599,11.710652 6.35737,17.790362 1.10358,4.08768 1.9344,8.27141 2.32619,12.48728 0.25986,2.79623 0.14172,7.8914 0.01,8.42484 -0.12976,0.55284 -0.49671,0.92656 -0.52698,0.43829 -0.28406,-4.58255 -1.72804,-7.72122 -3.19429,-10.7794 -0.44589,-0.93 -0.43067,0.39111 -0.3788,0.78598 0.61702,4.69659 0.75009,7.93803 0.39366,11.88622 -0.18445,2.04318 -0.48691,4.13256 -1.30205,6.01515 -1.68743,3.89717 -4.41255,7.31389 -7.23644,10.4858 -1.42358,1.59903 -2.9558,3.11153 -4.82855,4.23515 -8e-5,5e-5 -2e-4,-6e-5 -2.8e-4,-1e-5 z"
       id="path3" /><path
       style="display:inline;fill:var(--color-logo-outline, #000000);fill-opacity:1;stroke-width:0.264583"
       d="m 109.24151,63.751125 c 0.52723,-0.466224 0.0167,-0.900229 -0.50225,-0.609885 -3.56698,1.995619 -6.36397,4.887419 -8.53842,8.646044 -0.317707,0.54917 -0.680336,1.678486 -0.0359,2.690677 0.59882,0.94055 1.55708,0.899506 2.02698,0.143504 0.88134,-1.417965 2.08385,-4.073893 3.3185,-6.02712 1.13368,-1.793497 2.39964,-3.665819 3.73109,-4.84322 z"
       id="path4" /><path
       style="display:inline;fill:var(--color-logo-outline, #000000);fill-opacity:1;stroke-width:0.264583"
       d="m 116.05839,53.272703 c -0.73762,0.50545 -1.3103,2.541683 0.5239,3.045753 0.6913,0.189973 1.08621,0.0046 1.71778,-0.318699 1.01238,-0.518165 2.8713,-2.538476 4.84866,-3.906664 1.31176,-0.907641 3.27345,-2.110424 5.39069,-2.929998 0.87101,-0.337162 0.66668,-0.622419 -0.0439,-0.624291 -2.5769,-0.0068 -4.74932,0.729823 -7.11001,1.6508 -1.91243,0.746096 -3.6355,1.923931 -5.32712,3.083099 z"
       id="path5" /></g><g
     id="layer6"
     style="display:inline;opacity:1"
     transform="translate(-55.960674,-39.881454)"><path
       style="display:inline;opacity:1;fill:var(--color-logo-outline, #000000);fill-opacity:1;stroke-width:0.264583"
       d="m 147.76833,115.0944 1.51518,-3.04086 13.2844,-0.37542 0.98364,3.57284 c 0,0 0.4162,5.53252 -0.2834,8.16413 -0.4101,1.54263 -1.1633,3.05114 -2.23238,4.23645 -0.98016,1.08673 -2.25491,2.00281 -3.65299,2.43533 -1.34109,0.41488 -2.8528,0.40528 -4.21108,0.0507 -1.42585,-0.37218 -2.81849,-1.1359 -3.83056,-2.20701 -1.08563,-1.14896 -1.75835,-2.70025 -2.1309,-4.23644 -0.40658,-1.67651 -0.26136,-3.46287 -0.0507,-5.17507 0.16215,-1.31794 1.00346,-3.85519 1.00346,-3.85519 z"
       id="path8" /><path
       style="display:inline;fill:var(--color-logo-outline, #000000);fill-opacity:1;stroke-width:0.264583"
       d="m 162.12549,102.5774 c -3.36539,0.75067 -6.33184,1.10584 -10.09618,2.25202 -2.12093,0.89881 -5.57329,2.70716 -5.86038,3.13182 -0.15023,0.27619 -0.46613,0.97015 0.43826,0.66759 2.73617,-0.93627 4.07084,-1.60205 6.86907,-2.43675 2.43894,-0.54331 4.27151,-0.91546 7.01915,-1.23305 1.96234,-0.21801 1.76013,-0.13832 2.41457,-0.19267 z"
       id="path6" /><path
       style="display:inline;opacity:1;fill:url(#radialGradient28);fill-opacity:1;stroke-width:0.264583"
       d="m 148.82955,114.65138 c -1.12983,2.45986 -0.58688,5.63624 0.11631,8.11991 0.51797,1.8295 1.74315,3.32583 3.30237,4.17007 1.45234,0.78637 3.35524,0.93788 4.93396,0.45279 1.45773,-0.4479 2.64995,-1.66226 3.53503,-2.90412 0.86167,-1.20901 1.47026,-2.69317 1.54957,-4.1757 0.0934,-1.74679 -0.36702,-3.64589 -1.29048,-5.08671 -0.53287,-0.83135 -1.61244,-1.37893 -2.54484,-1.86574 -0.93661,-0.48901 -1.9516,-0.88742 -2.99902,-1.02628 -1.37673,-0.18252 -2.86789,-0.24085 -4.15722,0.27521 -0.9857,0.39453 -2.00254,1.07575 -2.44568,2.04057 z"
       id="path7" /><path
       style="display:inline;fill:var(--color-logo-outline, #000000);fill-opacity:1;stroke-width:0.264583"
       d="m 144.16789,118.94673 c 0.0164,0.49633 0.28329,0.75678 0.62549,0.20141 0.92212,-1.33485 1.84559,-2.50722 3.0362,-3.48513 0.98147,-0.80614 2.077,-1.57084 3.30452,-1.89697 2.49483,-0.66283 5.28104,-0.75891 7.74412,0.0136 1.66889,0.52342 3.14766,1.63794 4.31255,2.98907 0.90245,1.04673 2.12218,2.9436 2.24724,3.4754 0.18677,0.79422 0.39803,1.58524 0.56718,2.41857 0.088,0.43364 0.48372,0.68085 0.65791,-0.2295 0.40896,-1.69819 0.5493,-3.15812 0.55374,-4.59467 -0.0597,-0.93211 -0.80541,-2.21472 -1.39433,-3.12481 -0.25606,-0.53012 0.13356,-0.63185 0.38948,-0.53715 0.13748,0.0569 1.41621,1.12168 2.03774,1.77988 0.32557,0.30241 0.98015,0.97566 1.41182,1.21441 0.73441,-0.22717 0.5394,-1.50543 -0.30503,-2.28248 -0.89593,-0.72538 -1.83211,-1.50924 -2.689,-2.22931 -2.11317,-1.77575 -4.50286,-3.31924 -7.22987,-3.93203 -1.84204,-0.41393 -3.78259,-0.50454 -5.65705,-0.27905 -1.76911,0.21282 -3.52292,0.74072 -5.12433,1.52208 -1.43664,0.70096 -2.7612,1.66677 -3.90539,2.78305 -0.86978,0.84857 -2.15038,2.73286 -2.2931,3.27193 -0.23702,1.26883 0.60248,0.82783 0.93915,0.45228 0.61198,-0.60575 1.12643,-1.13966 1.83594,-1.81726 0.45073,-0.43046 0.70798,-0.2786 0.52402,0.28955 -0.2271,0.70137 -0.76574,1.28014 -1.12617,1.93561 -0.33626,0.61152 -0.45662,1.32788 -0.46279,2.06148 z"
       id="path9" /><path
       style="display:inline;opacity:1;fill:var(--color-logo-outline, #000000);fill-opacity:1;stroke-width:0.264583"
       d="m 151.72628,121.38204 c 1.70128,2.58244 3.60829,1.86472 3.94207,1.68956 2.04793,-1.07473 2.61804,-4.3495 2.47791,-6.25215 -0.15863,-2.15367 -1.05429,-3.99969 -3.26442,-4.34573 -1.00397,-0.10399 -1.86757,-0.0221 -2.62104,0.688 -0.95216,0.8973 -2.45747,5.0172 -0.53452,8.22032 z"
       id="path10" /><path
       style="display:inline;fill:var(--color-logo-eye-ref1, #e3e4d6);fill-opacity:1;stroke-width:0.264583"
       d="m 150.53446,114.12061 c -0.79866,0.15434 -1.58732,0.66681 -2.03595,1.34534 -0.26488,0.4006 -0.36769,0.94904 -0.2601,1.41709 0.10637,0.46271 0.41477,0.94317 0.84308,1.14803 0.41847,0.20015 0.95818,0.10619 1.39018,-0.0628 0.37147,-0.14528 0.67386,-0.45348 0.91483,-0.77132 0.30958,-0.40833 0.59536,-0.88842 0.6368,-1.39916 0.0406,-0.50022 -0.0288,-1.10945 -0.39463,-1.45296 -0.27144,-0.25484 -0.72866,-0.29489 -1.09421,-0.22425 z"
       id="path11" /><path
       style="display:inline;fill:var(--color-logo-eye-ref2, #e8c8bb);fill-opacity:1;stroke-width:0.264583"
       d="m 149.7407,119.24636 c -0.12846,0.0739 -0.23374,0.23308 -0.22871,0.38117 0.006,0.18177 0.15905,0.34905 0.31181,0.44775 0.24613,0.15901 0.57199,0.18439 0.86411,0.16144 0.20842,-0.0164 0.48901,-0.0276 0.59097,-0.21007 0.13269,-0.23752 0.0422,-0.6285 -0.17041,-0.79824 -0.35635,-0.28445 -0.97247,-0.2093 -1.36777,0.0179 z"
       id="path12" /><path
       style="display:inline;fill:var(--color-logo-eye-ref2, #e8c8bb);fill-opacity:1;stroke-width:0.264583"
       d="m 159.77245,119.14321 c -0.13325,0.16831 -0.19917,0.4205 -0.14351,0.62783 0.0683,0.25436 0.29357,0.48078 0.53814,0.5785 0.22669,0.0906 0.5091,0.057 0.73097,-0.0449 0.21041,-0.0966 0.39515,-0.28413 0.48432,-0.49778 0.11934,-0.28591 0.22368,-0.6978 0.0177,-0.92928 -0.20161,-0.22664 -0.6072,-0.14278 -0.90567,-0.0887 -0.26378,0.0478 -0.5556,0.1441 -0.722,0.35428 z"
       id="path13" /><path
       style="display:inline;fill:var(--color-logo-eye-ref3, #ffc2b2);fill-opacity:1;stroke-width:0.264583"
       d="m 156.56308,116.90722 c -0.4652,0.0214 -0.96243,0.29541 -1.21766,0.68493 -0.22827,0.34837 -0.28142,0.85629 -0.12684,1.24304 0.14467,0.36196 0.51151,0.6596 0.88788,0.76103 0.31548,0.085 0.69061,10e-4 0.96398,-0.17757 0.34143,-0.22351 0.60733,-0.61408 0.68493,-1.01472 0.0691,-0.35659 2.5e-4,-0.78317 -0.22831,-1.06546 -0.22151,-0.27358 -0.61233,-0.44739 -0.96398,-0.43125 z"
       id="path18" /></g></svg>
