<svg fill="#fff" fill-rule="evenodd" stroke="#000" stroke-linecap="round" stroke-linejoin="round" width="54.195" height="64" xmlns:xlink="http://www.w3.org/1999/xlink" xmlns="http://www.w3.org/2000/svg"><use xlink:href="#a" x=".5" y=".5" width="100%" height="100%"/><symbol id="a" overflow="visible" transform="translate(-.5 -.5)"><g stroke="none" fill-rule="nonzero"><path d="m10.095 27.966-9.68-7.26c-.27-.27-.403-.538-.403-.672a.74.74 0 0 1 .403-.672l9.68-7.26c.672-.538 2.017-.538 2.824 0l9.68 7.26c.27.27.403.538.403.672a.74.74 0 0 1-.403.672l-9.68 7.26c-.807.538-2.15.538-2.824 0" fill="#95c840"/><path d="M10.095 51.36.403 44.1c-.27-.27-.403-.538-.403-.672a.74.74 0 0 1 .403-.672l9.68-7.26c.672-.538 2.017-.538 2.824 0l9.68 7.26c.27.27.403.538.403.672a.74.74 0 0 1-.403.672l-9.68 7.26c-.807.672-2.15.672-2.824 0" fill="#59c9e6"/><use xlink:href="#b" fill="#ebe719" width="100%" height="100%"/><path d="m25.691 39.798-9.68-7.26c-.27-.27-.403-.538-.403-.672a.74.74 0 0 1 .403-.672l9.68-7.26c.807-.538 2.017-.538 2.824 0l9.68 7.26c.27.27.403.538.403.672a.74.74 0 0 1-.403.672l-9.68 7.26c-.807.538-2.017.538-2.824 0" fill="#50c0af"/><use xlink:href="#b" y="47.194" fill="#0377bb" width="100%" height="100%"/><path d="m41.288 27.966-9.68-7.26c-.27-.27-.403-.538-.403-.672a.74.74 0 0 1 .403-.672l9.68-7.26c.672-.538 2.017-.538 2.824 0l9.68 7.26c.27.27.403.538.403.672a.74.74 0 0 1-.403.672l-9.68 7.26c-.672.538-2.017.538-2.824 0" fill="#78bc43"/><path d="m41.288 51.36-9.68-7.26c-.27-.27-.403-.538-.403-.672a.74.74 0 0 1 .403-.672l9.68-7.26c.672-.538 2.017-.538 2.824 0l9.68 7.26c.27.27.403.538.403.672a.74.74 0 0 1-.403.672l-9.68 7.26c-.672.672-2.017.672-2.824 0" fill="#109fda"/></g></symbol><defs><path id="b" d="m25.691 16.403-9.68-7.26c-.27-.27-.403-.538-.403-.807a.74.74 0 0 1 .403-.672l9.68-7.26c.807-.538 2.017-.538 2.824 0l9.68 7.26c.27.27.403.538.403.672 0 .27-.134.538-.403.807l-9.68 7.26c-.807.538-2.017.538-2.824 0"/></defs></svg>