<svg xmlns:xlink="http://www.w3.org/1999/xlink" fill="#fff" fill-rule="evenodd" stroke="#000" stroke-linecap="round" stroke-linejoin="round" viewBox="0 0 54.195 64" xmlns="http://www.w3.org/2000/svg"><use xlink:href="#a" width="100%" height="100%" x=".5" y=".5"/><symbol id="a" overflow="visible" transform="translate(-.5 -.5)"><g fill-rule="nonzero" stroke="none"><path fill="#95c840" d="m10.095 27.966-9.68-7.26c-.27-.27-.403-.538-.403-.672a.74.74 0 0 1 .403-.672l9.68-7.26c.672-.538 2.017-.538 2.824 0l9.68 7.26c.27.27.403.538.403.672a.74.74 0 0 1-.403.672l-9.68 7.26c-.807.538-2.15.538-2.824 0"/><path fill="#59c9e6" d="M10.095 51.36.403 44.1c-.27-.27-.403-.538-.403-.672a.74.74 0 0 1 .403-.672l9.68-7.26c.672-.538 2.017-.538 2.824 0l9.68 7.26c.27.27.403.538.403.672a.74.74 0 0 1-.403.672l-9.68 7.26c-.807.672-2.15.672-2.824 0"/><use xlink:href="#b" width="100%" height="100%" fill="#ebe719"/><path fill="#50c0af" d="m25.691 39.798-9.68-7.26c-.27-.27-.403-.538-.403-.672a.74.74 0 0 1 .403-.672l9.68-7.26c.807-.538 2.017-.538 2.824 0l9.68 7.26c.27.27.403.538.403.672a.74.74 0 0 1-.403.672l-9.68 7.26c-.807.538-2.017.538-2.824 0"/><use xlink:href="#b" width="100%" height="100%" y="47.194" fill="#0377bb"/><path fill="#78bc43" d="m41.288 27.966-9.68-7.26c-.27-.27-.403-.538-.403-.672a.74.74 0 0 1 .403-.672l9.68-7.26c.672-.538 2.017-.538 2.824 0l9.68 7.26c.27.27.403.538.403.672a.74.74 0 0 1-.403.672l-9.68 7.26c-.672.538-2.017.538-2.824 0"/><path fill="#109fda" d="m41.288 51.36-9.68-7.26c-.27-.27-.403-.538-.403-.672a.74.74 0 0 1 .403-.672l9.68-7.26c.672-.538 2.017-.538 2.824 0l9.68 7.26c.27.27.403.538.403.672a.74.74 0 0 1-.403.672l-9.68 7.26c-.672.672-2.017.672-2.824 0"/></g></symbol><defs><path id="b" d="m25.691 16.403-9.68-7.26c-.27-.27-.403-.538-.403-.807a.74.74 0 0 1 .403-.672l9.68-7.26c.807-.538 2.017-.538 2.824 0l9.68 7.26c.27.27.403.538.403.672 0 .27-.134.538-.403.807l-9.68 7.26c-.807.538-2.017.538-2.824 0"/></defs></svg>