<svg viewBox="0 0 147.244 129.039" xmlns="http://www.w3.org/2000/svg"><defs><clipPath id="a" clipPathUnits="userSpaceOnUse"><path d="M-83-347.714h436.402v326.41H-83z" style="fill:#e57000;fill-opacity:1;fill-rule:evenodd;stroke:none" transform="matrix(.7345 .67862 -.78497 .61953 0 0)"/></clipPath></defs><g style="fill:#000"><g clip-path="url(#a)" style="font-style:normal;font-variant:normal;font-weight:400;font-stretch:normal;font-size:144px;line-height:125%;font-family:Helion;-inkscape-font-specification:Helion;letter-spacing:0;word-spacing:0;fill:#000;fill-opacity:1;stroke:none" transform="matrix(-.23853 0 0 .23853 139.53 6.637)"><path d="M276.304 226.623 466.892 17.021Q455.803 5.931 441.058-.405q-14.745-6.337-31.684-6.459-17.989.138-32.963 7.129-14.973 6.992-26.017 19.193l-74.09 80.915L202.7 19.458Q191.26 7.257 176.073.265q-15.186-6.991-32.84-7.129-16.94.122-31.684 6.459T85.714 17.021l190.594 209.597" style="fill:#000;fill-opacity:1"/></g><g clip-path="url(#a)" style="font-style:normal;font-variant:normal;font-weight:400;font-stretch:normal;font-size:144px;line-height:125%;font-family:Helion;-inkscape-font-specification:Helion;letter-spacing:0;word-spacing:0;fill:#000;fill-opacity:1;stroke:none" transform="matrix(.23853 0 0 -.23853 7.714 122.402)"><path d="M276.304 226.623 466.892 17.021Q455.803 5.931 441.058-.405q-14.745-6.337-31.684-6.459-17.989.138-32.963 7.129-14.973 6.992-26.017 19.193l-74.09 80.915L202.7 19.458Q191.26 7.257 176.073.265q-15.186-6.991-32.84-7.129-16.94.122-31.684 6.459T85.714 17.021l190.594 209.597" style="fill:#000;fill-opacity:1"/></g><path d="m1160.63 988.205-143.267-157.112q-12.499-13.33-29.093-20.97t-35.884-7.79q-18.507.135-34.618 7.057-16.11 6.924-28.227 19.04l145.397 159.778-145.397 159.777q12.115 12.5 28.227 19.507 16.11 7.006 34.618 7.123 19.34-.15 36.084-7.79 16.743-7.638 28.893-20.97zm31.991 0 143.267-157.112q12.499-13.33 29.093-20.97t35.883-7.79q18.508.135 34.619 7.057 16.11 6.924 28.227 19.04l-145.397 159.778 145.397 159.777q-12.116 12.5-28.227 19.507-16.11 7.006-34.618 7.123-19.34-.15-36.084-7.79-16.743-7.638-28.893-20.97z" style="font-style:normal;font-variant:normal;font-weight:400;font-stretch:normal;font-size:1059.61px;line-height:125%;font-family:Helion;-inkscape-font-specification:Helion;letter-spacing:0;word-spacing:0;fill:#e57000;fill-opacity:1;stroke:none" transform="translate(-207.627 -171.69)scale(.23903)"/></g></svg>