<svg id="svg36" version="1.1" viewBox="0 0 1237.26 1237.26" xmlns="http://www.w3.org/2000/svg"><defs id="defs9"><linearGradient id="linear-gradient" x1="617.37" x2="617.37" y1="20.7" y2="1216.56" gradientUnits="userSpaceOnUse"><stop id="stop4" offset=".32" stop-color="#cd9d49"/><stop id="stop6" offset=".99" stop-color="#875d27"/></linearGradient><style id="style2">.cls-1{fill:#fff}</style></defs><g id="Layer_2-2" data-name="Layer 2"><g id="Layer_4" data-name="Layer 4"><g id="Layer_5" data-name="Layer 5"><circle id="circle13" cx="618.63" cy="618.63" r="618.63" class="cls-1"/></g><circle id="circle16" cx="617.37" cy="618.63" r="597.93" style="fill:url(#linear-gradient)"/></g><path id="path19" d="M1005.57 574.08c-4.84-4-12.37-10-22.58-17v-79.2c0-201.93-163.69-365.63-365.62-365.63s-365.63 163.7-365.63 365.63v79.2c-10.21 7-17.74 13-22.58 17a18.15 18.15 0 0 0-6.53 13.92v94.89a18.15 18.15 0 0 0 6.53 14c11.29 9.4 37.19 29.1 77.52 49.31v9.22c0 24.88 16 45 35.84 45 19.79 0 35.84-20.16 35.84-45V527.83c0-24.87-16.05-45-35.84-45-19 0-34.48 18.51-35.75 41.94h-.09v-46.9c0-171.59 139.1-310.69 310.69-310.69 171.58 0 310.68 139.1 310.68 310.69v46.9h-.08c-1.27-23.43-16.79-41.94-35.76-41.94-19.79 0-35.83 20.17-35.83 45V755.4c0 24.88 16 45 35.83 45 19.8 0 35.84-20.16 35.84-45v-9.22c40.33-20.21 66.24-39.91 77.52-49.31a18.15 18.15 0 0 0 6.53-14V588a18.15 18.15 0 0 0-6.53-13.92z" class="cls-1"/><path id="path21" d="M489.87 969.71a43.31 43.31 0 0 0 43.3-43.3V441.64a43.3 43.3 0 0 0-43.3-43.29h-44.72a43.3 43.3 0 0 0-43.3 43.29v484.77a43.31 43.31 0 0 0 43.3 43.3zm-71.69-455.1h98.67v10.31h-98.67z" class="cls-1"/><path id="path23" d="M639.73 969.71a43.3 43.3 0 0 0 43.27-43.3V441.64a43.29 43.29 0 0 0-43.29-43.29H595a43.29 43.29 0 0 0-43.29 43.29v484.77a43.3 43.3 0 0 0 43.29 43.3ZM568 514.61h98.7v10.31H568Z" class="cls-1"/><path id="path25" d="M789.59 969.71a43.3 43.3 0 0 0 43.29-43.3V441.64a43.29 43.29 0 0 0-43.29-43.29h-44.73a43.3 43.3 0 0 0-43.3 43.29v484.77a43.31 43.31 0 0 0 43.3 43.3zm-71.7-455.1h98.67v10.31h-98.67z" class="cls-1"/><rect id="rect27" width="645.74" height="65.25" x="294.5" y="984.69" class="cls-1" rx="32.63"/></g></svg>