<svg xml:space="preserve" viewBox="0 0 64 92" xmlns="http://www.w3.org/2000/svg"><path d="M21.267 80.827c-.473 0-.971-.031-1.494-.096-3.67-.459-6.484-2.862-7.531-6.428-1.109-3.789.053-8.048 2.826-10.359a2.696 2.696 0 1 1 3.451 4.142c-1.138.948-1.611 2.968-1.104 4.7.309 1.051 1.083 2.353 3.025 2.596 1.399.175 2.459-.063 3.246-.724 1.435-1.209 1.869-3.684 1.922-4.596V53.077a2.695 2.695 0 1 1 5.392 0v17.051l-.001.098c-.02.558-.297 5.538-3.803 8.525-1.165.991-3.089 2.076-5.929 2.076z" style="fill:#3389ff" transform="matrix(1.007 0 0 1.0059 -11.908 -8.556)"/><path d="M31.435 99.967c-.473 0-.971-.031-1.494-.096-3.67-.46-6.486-2.862-7.531-6.428-1.109-3.789.051-8.048 2.826-10.358a2.696 2.696 0 1 1 3.451 4.141c-1.138.947-1.612 2.968-1.104 4.701.308 1.049 1.082 2.351 3.025 2.594 1.404.177 2.473-.065 3.259-.735 1.638-1.394 1.887-4.275 1.909-4.586V52.238a2.696 2.696 0 1 1 5.39 0v37.031c0 .032 0 .062-.002.097-.019.558-.296 5.538-3.803 8.525-1.162.991-3.086 2.076-5.926 2.076zm34.506-19.14c-2.84 0-4.764-1.085-5.928-2.076-3.507-2.987-3.784-7.968-3.803-8.525-.002-.032-.002-.064-.002-.098V53.077a2.694 2.694 0 1 1 5.39 0v16.991c.05.889.482 3.377 1.923 4.591.786.66 1.849.899 3.245.723 1.942-.242 2.718-1.544 3.025-2.595.509-1.732.034-3.752-1.104-4.7a2.695 2.695 0 1 1 3.451-4.142c2.774 2.312 3.936 6.57 2.826 10.359-1.045 3.565-3.861 5.969-7.53 6.428-.522.064-1.02.095-1.493.095z" style="fill:#3389ff" transform="matrix(1.007 0 0 1.0059 -11.908 -8.556)"/><path d="M55.773 99.967c-2.84 0-4.764-1.085-5.928-2.076-3.507-2.987-3.783-7.968-3.803-8.525-.002-.034-.002-.064-.002-.097V52.238a2.696 2.696 0 1 1 5.39 0v36.967c.051.891.482 3.379 1.923 4.592.786.661 1.847.9 3.245.724 1.942-.243 2.718-1.545 3.025-2.594.509-1.733.034-3.754-1.104-4.701a2.696 2.696 0 1 1 3.452-4.141c2.774 2.311 3.935 6.569 2.825 10.358-1.045 3.565-3.861 5.968-7.53 6.428-.522.065-1.019.096-1.493.096z" style="fill:#3389ff" transform="matrix(1.007 0 0 1.0059 -11.908 -8.556)"/><path d="M64.793 38.868c-.178-1.947 3.787-1.169 3.311-2.94C63.147 17.484 43.646 8.512 43.632 8.506c-.015.006-19.516 8.978-24.472 27.422-.478 1.771 3.487.993 3.31 2.94-.217 2.364-4.765 3.333-4.172 10.121.641 7.341 7.182 14.765 7.418 18.873h5.295v-.153a2.388 2.388 0 0 1 4.777 0v.153l5.39-2.695v-.107a2.435 2.435 0 1 1 4.87 0v.107l5.375 2.695v-.153a2.388 2.388 0 0 1 2.389-2.388 2.387 2.387 0 0 1 2.389 2.388v.153h5.391c.542-5.791 6.735-11.532 7.376-18.873.59-6.788-3.959-7.757-4.175-10.121z" style="fill:#3389ff" transform="matrix(1.007 0 0 1.0059 -11.908 -8.556)"/></svg>