<svg xmlns:xlink="http://www.w3.org/1999/xlink" viewBox="0 0 238.86 216.13" xmlns="http://www.w3.org/2000/svg"><defs><linearGradient id="linear-gradient" x1="175.51" x2="64.11" y1="30.59" y2="184.49" gradientUnits="userSpaceOnUse"><stop offset="0" stop-color="#340b4e"/><stop offset="1" stop-color="#06051c"/></linearGradient><linearGradient id="linear-gradient-2" x1="0" x2="238.86" y1="108.06" y2="108.06" gradientUnits="userSpaceOnUse"><stop offset="0" stop-color="#ee17fe"/><stop offset="1" stop-color="#19d0e0"/></linearGradient><linearGradient xlink:href="#linear-gradient-2" id="linear-gradient-3" x1="55.86" x2="183" y1="107.93" y2="107.93"/><linearGradient xlink:href="#linear-gradient-2" id="linear-gradient-4" x1="55.86" x2="183" y1="133.28" y2="133.28"/><linearGradient id="linear-gradient-5" x1="119.43" x2="119.43" y1="54.36" y2="107.06" gradientUnits="userSpaceOnUse"><stop offset="0" stop-color="#fff"/><stop offset="1" stop-color="#ee17fe"/></linearGradient><style>@keyframes slideInDown{0%{transform:translateY(-100%);opacity:0}to{transform:translateY(0);opacity:1}}</style></defs><g style="isolation:isolate"><g id="Ebene_1" data-name="Ebene 1"><path d="M151.05 197.42H87.81c-12.36 0-23.78-6.59-29.96-17.3l-31.62-54.76a34.59 34.59 0 0 1 0-34.59l31.62-54.76c6.18-10.7 17.6-17.3 29.96-17.3h63.24c12.36 0 23.78 6.59 29.96 17.3l31.62 54.76a34.59 34.59 0 0 1 0 34.59l-31.62 54.76a34.6 34.6 0 0 1-29.96 17.3" style="fill:url(#linear-gradient)"/><path d="M161.85 0H77.01C64.65 0 53.23 6.59 47.05 17.3L4.63 90.76a34.59 34.59 0 0 0 0 34.59l42.42 73.47c6.18 10.7 17.6 17.3 29.96 17.3h84.84c12.36 0 23.78-6.59 29.96-17.3l42.42-73.47a34.59 34.59 0 0 0 0-34.59l-42.42-73.47a34.6 34.6 0 0 0-29.96-17.3Zm-10.8 197.42H87.81c-12.36 0-23.78-6.59-29.96-17.3l-31.62-54.76a34.59 34.59 0 0 1 0-34.59l31.62-54.76c6.18-10.7 17.6-17.3 29.96-17.3h63.24c12.36 0 23.78 6.59 29.96 17.3l31.62 54.76a34.59 34.59 0 0 1 0 34.59l-31.62 54.76a34.6 34.6 0 0 1-29.96 17.3" style="fill:url(#linear-gradient-2)"/></g></g></svg>