<?xml version="1.0" encoding="UTF-8"?>
<svg id="Layer_1" xmlns="http://www.w3.org/2000/svg" version="1.1" viewBox="413.74 383.63 1177.33 348.53">
  <!-- Generator: Adobe Illustrator 30.0.0, SVG Export Plug-In . SVG Version: 2.1.1 Build 123)  -->
  <defs>
    <style>
      .st0 {
        fill: #00a4eb;
      }

      .st1 {
        fill: #002f6c;
      }
    </style>
  </defs>
  <g>
    <polygon class="st1" points="613.04 496.82 560.33 588.31 518.61 588.35 571.32 496.86 613.04 496.82"/>
    <polygon class="st0" points="717.91 588.08 646.34 588.23 667.17 552.08 669.76 552.08 697.1 551.97 717.91 588.08"/>
    <polygon class="st0" points="538.08 665.34 635.19 496.8 697.1 496.71 717.91 532.82 656.08 532.9 558.93 701.53 538.08 665.34"/>
    <polygon class="st0" points="413.74 497.08 485.3 496.93 464.47 533.08 461.89 533.08 434.55 533.2 413.74 497.08"/>
    <polygon class="st0" points="593.56 419.82 496.46 588.36 434.55 588.45 413.74 552.35 475.57 552.26 572.72 383.63 593.56 419.82"/>
  </g>
  <g>
    <path class="st1" d="M609.71,731.18l25.98-121.97h61.31c30.25,0,38.9,12.85,32.11,44.72-7.31,34.31-17.45,46.02-51.44,46.02h-28.79l-6.65,31.22h-32.53ZM677.19,671.65c12.95-.49,15.05-1.95,18.41-17.73,2.67-12.52,1.55-16.43-11.14-16.43h-22.28l-7.28,34.15h22.28Z"/>
    <path class="st1" d="M773.23,718.49h-.98c-4.61,11.71-17.71,13.66-27.47,13.66-19.52,0-29.89-4.72-25.25-26.51,4.37-20.49,16.45-26.83,36.62-26.83,7.97,0,20.2-.16,21.21,9.6h1.3l2.88-13.5c1.7-7.97,2.28-13.01-9.91-13.01-6.99,0-11.73,1.63-13.36,9.27h-27.97c5.65-26.51,24.96-26.35,44.97-26.35,28.62,0,39.9,3.58,33.62,33.01l-11.36,53.34h-27.97l3.68-12.69ZM747.68,704.83c-1.97,9.27,5.99,9.27,10.22,9.27,11.71,0,15.6-1.46,17.5-10.41,1.52-7.16-4.52-7.81-13.62-7.81-6.83,0-12.44,1.14-14.1,8.94Z"/>
    <path class="st1" d="M894.33,697.02c-3.4,15.94-8.03,24.72-15.7,29.44-7.54,4.88-17.96,5.69-33.09,5.69-33.01,0-38.71-9.92-31.54-43.59,6.17-28.95,15.17-43.75,50.14-43.75,24.56,0,40.75,2.6,34.27,33.01h-27.97c1.13-4.55,1.23-7.32-.34-9.11-1.57-1.79-4.68-2.44-10.54-2.44-9.92,0-13.44,2.76-17.59,22.28-4.26,20-2.43,22.12,8.14,22.12,12.69,0,13.99-3.09,16.25-13.66h27.97Z"/>
    <path class="st1" d="M932.92,677.83h4.88l23.74-32.04h30.74l-32.8,40.98,20.14,44.4h-32.69l-13.11-34.64h-4.88l-7.38,34.64h-27.97l25.98-121.97h27.97l-14.62,68.63Z"/>
    <path class="st1" d="M1061.57,702.72c-2.74,12.85-8.52,20.17-16.74,24.39-8.18,4.07-18.8,5.04-31.16,5.04-33.66,0-39.3-11.71-32.51-43.59,7-32.85,16.8-43.75,51.11-43.75,32.04,0,39.73,8.94,32.31,43.75l-1,4.72h-55.46c-3.19,14.96-1.85,19.35,9.7,19.35,8.62,0,14.36-.98,16.26-9.92h27.48ZM1038.9,677.83c2.7-12.68-1.84-13.5-11.27-13.5-9.92,0-13.5,2.28-16.21,13.5h27.48Z"/>
    <path class="st1" d="M1139.53,666.29h-32.36l-8.14,38.22c-.91,5.04-.39,7.16,4.82,7.16,7.32,0,8.1-5.2,9.67-11.06l1.13-4.55h22.28l-1.63,7.64c-4.95,23.26-14.68,28.46-37.45,28.46-17.89,0-32.2-2.28-27.63-23.74l8.97-42.12h-10.41l4.37-20.49h10.41l3.85-18.05h27.97l-3.85,18.05h32.36l-4.37,20.49Z"/>
    <path class="st1" d="M1183.78,659.78h49.76l-5.68,26.67h-49.76l-9.53,44.72h-32.53l25.98-121.97h86.52l-5.68,26.67h-53.99l-5.09,23.91Z"/>
    <path class="st1" d="M1313.51,702.72c-2.74,12.85-8.52,20.17-16.74,24.39-8.19,4.07-18.8,5.04-31.16,5.04-33.66,0-39.3-11.71-32.51-43.59,7-32.85,16.8-43.75,51.11-43.75,32.04,0,39.73,8.94,32.31,43.75l-1.01,4.72h-55.46c-3.19,14.96-1.85,19.35,9.7,19.35,8.62,0,14.36-.98,16.26-9.92h27.48ZM1290.83,677.83c2.7-12.68-1.84-13.5-11.27-13.5-9.92,0-13.5,2.28-16.21,13.5h27.48Z"/>
    <path class="st1" d="M1360.91,645.8l-3.4,15.94h1.14c6.94-13.5,15.96-16.91,29.14-16.91,18.86,0,25.58,8.94,21.66,27.32l-12.58,59.03h-27.97l11.19-52.53c1.6-8.29.19-12.36-8.91-12.36-12.52,0-16.23,7.48-18.45,17.89l-10.01,47h-27.97l18.19-85.38h27.97Z"/>
    <path class="st1" d="M1492.62,697.02c-3.39,15.94-8.03,24.72-15.7,29.44-7.54,4.88-17.96,5.69-33.09,5.69-33.01,0-38.71-9.92-31.54-43.59,6.17-28.95,15.17-43.75,50.14-43.75,24.56,0,40.75,2.6,34.27,33.01h-27.97c1.13-4.55,1.23-7.32-.34-9.11-1.57-1.79-4.68-2.44-10.54-2.44-9.92,0-13.44,2.76-17.59,22.28-4.26,20-2.43,22.12,8.14,22.12,12.69,0,13.99-3.09,16.25-13.66h27.97Z"/>
    <path class="st1" d="M1580.64,702.72c-2.74,12.85-8.52,20.17-16.74,24.39-8.18,4.07-18.8,5.04-31.16,5.04-33.66,0-39.3-11.71-32.51-43.59,7-32.85,16.8-43.75,51.11-43.75,32.04,0,39.73,8.94,32.31,43.75l-1,4.72h-55.46c-3.19,14.96-1.85,19.35,9.7,19.35,8.62,0,14.36-.98,16.26-9.92h27.48ZM1557.97,677.83c2.7-12.68-1.84-13.5-11.27-13.5-9.92,0-13.5,2.28-16.21,13.5h27.48Z"/>
  </g>
</svg>