<svg xml:space="preserve" viewBox="0 0 256 256" xmlns="http://www.w3.org/2000/svg"><path d="M202.9 112.7c-22.5 16.1-54.5 12.8-74.9 6.3l14.8-11.8 14.1-11.3L206 56.6l-51.2 35.9-14.3 10-14.9 10.5c.7-21.2 7-49.9 28.6-65.4 1.8-1.3 3.9-2.6 6.1-3.8 2.7-1.5 5.7-2.9 8.8-4.1 27.1-11.1 68.5-15.3 85.2-9.5.1 16.2-15.9 45.4-33.9 65.9-2.4 2.8-4.9 5.4-7.4 7.8-3.4 3.5-6.8 6.4-10.1 8.8" style="fill:#95c980"/><path d="M213.1 104c-22.2 12.6-51.4 9.3-70.3 3.2l14.1-11.3L206 56.6l-51.2 35.9-14.3 10c.5-18.1 4.9-42.1 19.7-58.6 2.7-1.5 5.7-2.9 8.8-4.1 27.1-11.1 68.5-15.3 85.2-9.5.1 16.2-15.9 45.4-33.9 65.9-2.3 2.8-4.8 5.4-7.2 7.8" style="fill:#72b755"/><path d="M220.5 96.2c-21.1 8.6-46.6 5.3-63.7-.2L206 56.6l-51.2 35.9c.3-15.8 3.5-36.6 14.3-52.8 27.1-11.1 68.5-15.3 85.2-9.5.1 16.2-15.9 45.4-33.8 66" style="fill:#4fa52b"/><path d="M106.7 179c-5.8-21 5.2-43.8 15.5-57.2L127 136l4.5 13.4 15.9 47-12.8-47.6-3.6-13.2-3.7-13.9c15.5 6.2 35.1 18.6 40.7 38.8.5 1.7.9 3.6 1.2 5.5.4 2.4.6 5 .7 7.7.9 23.1-7.1 54.9-15.9 65.7-12-4.3-29.3-24-39.7-42.8-1.4-2.6-2.7-5.1-3.8-7.6-1.6-3.5-2.9-6.8-3.8-10" style="fill:#ee8c89"/><path d="M110.4 188.9c-3.4-19.8 6.9-40.5 16.6-52.9l4.5 13.4 15.9 47-12.8-47.6-3.6-13.2c13.3 5.2 29.9 15 38.1 30.4.4 2.4.6 5 .7 7.7.9 23.1-7.1 54.9-15.9 65.7-12-4.3-29.3-24-39.7-42.8-1.4-2.6-2.7-5.2-3.8-7.7" style="fill:#e96562"/><path d="M114.2 196.5c-.7-18 8.6-35.9 17.3-47.1l15.9 47-12.8-47.6c11.6 4.4 26.1 12.4 35.2 24.8.9 23.1-7.1 54.9-15.9 65.7-12-4.3-29.3-24-39.7-42.8" style="fill:#e33f3b"/><path d="M86.3 59.1C108 70 118.7 95.7 122.1 114l-15.2-6.6-14.5-6.3-50.6-22L90.6 104l13.6 6.9 14.3 7.3c-16.6 7.9-41.3 14.5-62.1 4.1-1.8-.9-3.6-1.9-5.4-3.2-2.3-1.5-4.5-3.2-6.8-5.1C24.3 97.6 3.9 67.6 1.5 52.5c12.4-6.5 41.5-5.8 64.8-.3 3.2.8 6.2 1.6 9.1 2.5 4 1.3 7.6 2.8 10.9 4.4" style="fill:#efb075"/><path d="M75.4 54.8c18.9 12 28.4 35.6 31.6 52.6l-14.5-6.3-50.6-22L90.6 104l13.6 6.9c-14.1 6.8-34.5 13-53.3 8.2-2.3-1.5-4.5-3.2-6.8-5.1C24.3 97.6 3.9 67.6 1.5 52.5c12.4-6.5 41.5-5.8 64.8-.3 3.1.8 6.2 1.6 9.1 2.6" style="fill:#e99547"/><path d="M66.3 52.2C81.6 65 89.6 85.8 92.4 101.1l-50.6-22L90.6 104c-12.2 6-29.6 11.8-46.5 10C24.3 97.6 3.9 67.6 1.5 52.5c12.4-6.5 41.5-5.8 64.8-.3" style="fill:#e47b19"/></svg>