<svg viewBox="0 0 164.179 151.11" xmlns="http://www.w3.org/2000/svg"><defs><linearGradient id="a" x1="259.78" x2="463.85" y1="261.15" y2="456.49" gradientUnits="userSpaceOnUse"><stop offset="0%" stop-color="#5cdd8b"/><stop offset="100%" stop-color="#86e6a9"/></linearGradient></defs><path d="M490.4 235.64c53.69 122.74 53.69 199.7 0 230.86-80.55 46.74-290.44 60.99-350.86-10.86-40.28-47.9-40.28-121.24 0-220 40.96-67.46 99.17-101.19 174.63-101.19 75.47 0 134.21 33.73 176.23 101.19z" style="fill:url(#a)" transform="translate(-2.685 -9.115) scale(.26458)"/><path fill="none" d="M490.4 235.64c53.69 122.74 53.69 199.7 0 230.86-80.55 46.74-290.44 60.99-350.86-10.86-40.28-47.9-40.28-121.24 0-220 40.96-67.46 99.17-101.19 174.63-101.19 75.47 0 134.21 33.73 176.23 101.19z" style="fill-opacity:0;stroke:#f2f2f2;stroke-width:200;stroke-opacity:.51" transform="translate(-2.685 -9.115) scale(.26458)"/></svg>