<svg fill-rule="evenodd" stroke-linejoin="round" stroke-miterlimit="1.414" clip-rule="evenodd" viewBox="0 0 605.054 604.101" xmlns="http://www.w3.org/2000/svg"><path fill="none" stroke="#000" stroke-width="44.978" d="M120.725 22.146H484.33v266.135h97.89L302.528 581.956 22.835 288.278h97.89V22.151Z"/><path fill="#ffb300" d="M120.725 22.146h363.604v266.135h97.89l-279.69 293.667L22.835 288.281h97.89z"/><path fill="#ffca28" d="M302.529 582.03 121.139 22.208h362.78z"/><path fill="none" stroke="#000" stroke-linecap="round" stroke-width="45.004" d="M199.022 511.103H49.325V479.6h88.824v-27.95H49.325v-90.48h149.697v31.263h-88.823v27.95h88.823v90.718zm88.823-31.503h27.95v-27.95h-27.95zm88.824 31.503H226.972v-90.718h88.823v-27.95h-88.823V361.17h149.697zm88.823-31.503h27.95v-87.165h-27.95zm-60.874 31.503v-209.15h60.874v59.216h88.823v149.934z"/><path fill="#fff" fill-rule="nonzero" d="M199.022 511.103H49.325V479.6h88.824v-27.95H49.325v-90.48h149.697v31.263h-88.823v27.95h88.823v90.718zm88.823-31.503h27.95v-27.95h-27.95zm88.824 31.503H226.972v-90.718h88.823v-27.95h-88.823V361.17h149.697zm88.823-31.503h27.95v-87.165h-27.95zm-60.874 31.503v-209.15h60.874v59.216h88.823v149.934z"/></svg>