<svg viewBox="0 0 165.943 137.062" xmlns="http://www.w3.org/2000/svg"><g fill="none"><path fill="#005982" stroke="#005982" d="M94.115 40.239c-2.188-8.59-18.381-17.036-46.674-17.036-28.271 0-44.463 8.435-46.668 17.019-.17.33-.273.7-.273 1.097v78.028c0 .748.344 1.407.873 1.855 3.745 7.98 19.621 15.36 46.068 15.36 26.454 0 42.332-7.384 46.072-15.368a2.42 2.42 0 0 0 .865-1.846v-1.778l.002-.043-.002-.024v-25.37l.002-.042-.002-.024v-24.86l.002-.042-.002-.025V42.281l.002-.043-.002-.044v-.875c0-.39-.1-.753-.263-1.08zM89.5 92.12c-.051 6.689-17.308 14.128-42.06 14.128-24.787 0-42.061-7.461-42.061-14.158l-.003-.025V75.771c6.953 5.846 21.229 10.428 42.064 10.428 20.833 0 35.105-4.58 42.06-10.424zm0-24.926c-.051 6.688-17.309 14.128-42.06 14.128-24.787 0-42.061-7.461-42.061-14.159l-.003-.024V50.845c6.953 5.845 21.229 10.427 42.064 10.427 20.833 0 35.105-4.579 42.06-10.423zM47.44 28.08c24.751 0 42.009 7.44 42.06 14.128v.06c-.051 6.688-17.308 14.128-42.06 14.128-24.787 0-42.061-7.462-42.061-14.158S22.654 28.08 47.44 28.08Zm0 103.604c-24.787 0-42.061-7.462-42.061-14.157l-.003-.024v-16.805c6.953 5.847 21.229 10.428 42.064 10.428 20.833 0 35.105-4.58 42.06-10.424v16.854c-.051 6.69-17.309 14.128-42.06 14.128z"/><path fill="red" d="m122.605 47.324-22.212-18.719 22.212-18.686 5.142 5.207L111.4 28.54l16.347 13.578Zm43.338-33.021q0 2.768-.84 4.96a10.95 10.95 0 0 1-2.407 3.79q-1.565 1.599-3.773 2.587-2.208.99-4.943 1.35l-.33 6.197h-6.888l-.593-12.392h4.779q1.614 0 2.784-.46 1.17-.462 1.912-1.253a4.9 4.9 0 0 0 1.087-1.83 6.9 6.9 0 0 0 .346-2.191 6.6 6.6 0 0 0-.675-2.95q-.675-1.367-2.11-2.405-1.434-1.039-3.641-1.632-2.208-.593-5.306-.593h-1.944V0h2.273q5.076 0 8.866 1.203t6.327 3.197 3.807 4.564q1.268 2.57 1.269 5.339M155.66 42.052q0 1.087-.428 2.043a5.6 5.6 0 0 1-1.154 1.68 5.3 5.3 0 0 1-1.713 1.137 5.4 5.4 0 0 1-2.11.412 5.3 5.3 0 0 1-3.79-1.548 5.6 5.6 0 0 1-1.153-1.681 4.9 4.9 0 0 1-.428-2.043q0-1.087.428-2.044a5.6 5.6 0 0 1 1.154-1.68 5.3 5.3 0 0 1 3.79-1.55q1.12 0 2.109.413a5.2 5.2 0 0 1 1.713 1.137 5.6 5.6 0 0 1 1.154 1.68q.428.957.428 2.044"/></g></svg>