<svg xml:space="preserve" viewBox="0 0 2598.534 3572.78" xmlns="http://www.w3.org/2000/svg"><path fill="#37ABE9" d="M0 2118.88h2598.534v726.95H0z"/><path d="M0 733.874h2598.534v690.069H0z"/><path fill="#37ABE9" d="M134.647 665.444q-13.923 0-23.916-7.8-8.314-7.22-8.314-17.147 0-12.439-.193-35.969.708-7.412 2.062-11.218 3.417-8.12 10.83-11.667 7.349-3.415 18.179-3.416 14.954.001 24.431 3.416v15.922h-.193q-7.415-3.737-19.661-3.738h-2.063q-10.767 0-13.537 5.607-.71 1.678-1.032 4.062l.129.321v15.278l18.759-.387q22.24.387 27.267 12.313a22.8 22.8 0 0 1 1.676 8.639v1.998q0 14.567-15.792 20.885-7.416 2.901-18.632 2.901m21.981-83.929q15.794 6.382 15.794 20.886v1.998q-.001 4.513-1.676 8.703-5.029 11.86-27.269 12.247l-18.757-.387-18.309-.064q-.644-8.83-.644-21.337 0-9.862 8.316-17.147 9.992-7.798 23.916-7.799 11.217-.001 18.629 2.9m-35.389 50.988v6.318q0 6.254 7.479 8.638 3.287.84 6.253.839h1.675q9.605 0 12.893-5.223a8.4 8.4 0 0 0 .709-3.415q0-7.157-12.57-7.157zm19.79-20.948q12.57 0 12.57-7.156 0-1.804-.708-3.352-3.289-5.285-12.893-5.286h-1.676q-2.965 0-6.253.838-7.476 2.387-7.477 8.702v6.254zm69.297-13.151q19.982 0 25.85 13.086 1.998 5.736 1.999 10.894v19.854q0 13.666-16.052 20.563-6.962 2.321-13.859 2.32-24.11 0-30.233-15.148-1.095-3.544-1.095-6.704V641.4q0-12.505 11.989-16.824 6.769-1.997 15.6-1.998h16.052q.32.001.322-.322 0-9.54-13.408-9.541h-1.87q-11.024 0-18.242 3.481v-14.697q8.506-3.095 22.947-3.095m-16.115 43.512q-.001 6.188 10.765 7.477h3.287q9.345.001 12.313-6.124a10.4 10.4 0 0 0 .322-2.643v-5.736H205.75q-8.573.001-10.701 3.545-.839 1.483-.838 3.481m68.587-41.256q6.381-4.061 14.632-4.062h.646q10.765 0 19.467 4.834 15.406 10.187 15.406 29.267 0 11.733-5.802 20.435-9.928 13.987-29.265 13.987-13.151 0-21.982-6.252-13.216-10.056-13.215-27.203v-58.982h20.113zm30.233 23.915q-4-11.86-15.473-11.861-2.899.001-6.769 1.418-9.154 4.966-9.153 16.244v.968q0 3.545 1.29 7.542 4.576 9.992 13.988 9.991h1.29q3.932 0 7.541-1.934 8.058-5.222 8.058-16.244.001-1.998-.772-6.124m37.388-25.333h1.289l14.247 43.318 18.242-43.318h19.339l-39.064 91.342-17.276-7.735 10.83-26.494-7.67-3.479-18.244-53.763q17.404.13 18.307.129m77.74 1.418q6.38-4.061 14.633-4.062h.644q10.765 0 19.468 4.834 15.406 10.187 15.407 29.267 0 11.733-5.802 20.435-9.927 13.987-29.266 13.987-13.151 0-21.981-6.252-13.216-10.056-13.215-27.203v-58.982h20.112zm30.233 23.915q-3.999-11.86-15.471-11.861-2.9.001-6.769 1.418-9.155 4.966-9.155 16.244v.968q0 3.545 1.29 7.542 4.576 9.992 13.987 9.991h1.29q3.93 0 7.542-1.934 8.059-5.222 8.058-16.244.001-1.998-.772-6.124m42.738-25.333h1.29l-.129 32.037q0 5.157 3.416 11.087 4.964 6.254 12.441 6.254h1.29q9.604-.001 14.245-10.121 1.29-4.123 1.29-7.734v-31.522h19.274v31.908q0 17.405-13.41 27.589-9.025 6.382-22.368 6.382-19.663.001-29.781-14.245-5.866-8.831-5.866-20.758v-31.006q17.469.13 18.308.129m107.78-26.558h20.111v58.982q0 17.148-13.215 27.203-8.831 6.252-21.979 6.252-19.339 0-29.267-13.987-5.8-8.702-5.801-20.435-.001-19.08 15.406-29.267 8.702-4.834 19.468-4.834h.644q8.25 0 14.633 4.062zm-31.007 58.015q0 11.023 8.059 16.244 3.608 1.934 7.542 1.934h1.288q9.412.001 13.988-9.991 1.29-3.997 1.29-7.542v-.968q-.001-11.28-9.154-16.244-3.868-1.417-6.768-1.418-11.475.001-15.471 11.861-.773 4.126-.774 6.124m105.784-58.015H683.8v58.982q-.002 17.148-13.215 27.203c-5.89 4.168-13.214 6.252-21.982 6.252q-19.34 0-29.267-13.987-5.8-8.702-5.801-20.435-.002-19.08 15.407-29.267 8.7-4.834 19.467-4.834h.644q8.253 0 14.634 4.062zm-31.007 58.015q-.002 11.023 8.059 16.244 3.608 1.934 7.542 1.934h1.289q9.41.001 13.988-9.991 1.289-3.997 1.289-7.542v-.968q-.001-11.28-9.153-16.244-3.868-1.417-6.769-1.418-11.475.001-15.471 11.861-.774 4.126-.774 6.124m73.939-31.457h1.289l14.248 43.318 18.242-43.318h19.337l-39.064 91.342-17.275-7.735 10.831-26.494-7.672-3.479-18.242-53.763q17.401.13 18.306.129m670.868-225.647q-22.076 0-37.918-12.367-13.183-11.446-13.183-27.187 0-19.722-.307-57.028 1.122-11.753 3.269-17.785 5.417-12.875 17.17-18.498 11.653-5.415 28.823-5.416 23.71.001 38.735 5.416v25.243h-.307q-11.757-5.925-31.172-5.926h-3.271q-17.07 0-21.462 8.891-1.126 2.66-1.637 6.438l.204.511v24.223l29.742-.613q35.262.613 43.231 19.521 2.657 6.541 2.657 13.696v3.168q-.001 23.096-25.039 33.113-11.75 4.6-29.535 4.6m34.851-133.071q25.041 10.118 25.042 33.115v3.169q-.002 7.153-2.658 13.797-7.973 18.804-43.233 19.418l-29.739-.613-29.027-.102c-.682-9.336-1.021-20.609-1.021-33.83q0-15.636 13.185-27.187 15.841-12.363 37.917-12.365 17.78.001 29.534 4.598m-56.109 80.843v10.017q0 9.915 11.856 13.695c3.476.887 6.778 1.33 9.914 1.33h2.656q15.228 0 20.441-8.28a13.3 13.3 0 0 0 1.125-5.415q0-11.346-19.93-11.347zm31.375-33.215q19.93 0 19.931-11.344c0-1.907-.374-3.682-1.124-5.315q-5.214-8.38-20.44-8.38h-2.657q-4.702 0-9.914 1.327c-7.903 2.524-11.855 7.12-11.855 13.798v9.914zm109.871-20.849q31.682 0 40.983 20.747 3.168 9.096 3.169 17.272v31.479q0 21.67-25.45 32.603-11.037 3.68-21.973 3.679-38.225 0-47.934-24.018-1.736-5.619-1.736-10.629v-2.965q0-19.825 19.008-26.673 10.73-3.168 24.733-3.169h25.45q.509.002.511-.511c0-10.082-7.088-15.127-21.258-15.127h-2.965c-11.65 0-21.294 1.84-28.923 5.52v-23.303q13.49-4.905 36.385-4.905m-25.55 68.987q-.001 9.813 17.068 11.855h5.211q14.819.002 19.521-9.71.509-1.938.511-4.19v-9.095h-24.019q-13.594.001-16.966 5.62-1.328 2.354-1.326 5.52m108.743-65.41q10.118-6.438 23.199-6.439h1.023q17.067 0 30.865 7.665 24.426 16.15 24.427 46.401 0 18.601-9.199 32.398c-10.492 14.785-25.961 22.177-46.399 22.177-13.899 0-25.519-3.305-34.852-9.914q-20.954-15.942-20.953-43.129v-93.516h31.889zm47.935 37.918q-6.34-18.805-24.531-18.807-4.597.001-10.731 2.249-14.514 7.871-14.513 25.754v1.534q0 5.621 2.045 11.957 7.255 15.844 22.178 15.843h2.045q6.234 0 11.957-3.066 12.775-8.28 12.775-25.755c-.001-2.111-.409-5.35-1.225-9.709m59.277-40.167h2.043l22.588 68.681 28.923-68.681h30.661l-61.936 144.822-27.391-12.265 17.17-42.006-12.16-5.518-28.926-85.238q27.597.206 29.028.205m123.256 2.249q10.117-6.438 23.201-6.439h1.021q17.067 0 30.865 7.665 24.426 16.15 24.427 46.401 0 18.601-9.198 32.398-15.739 22.177-46.4 22.177-20.85 0-34.852-9.914-20.952-15.942-20.951-43.129v-93.516h31.887zm47.934 37.918q-6.341-18.805-24.529-18.807-4.6.001-10.731 2.249-14.513 7.871-14.514 25.754v1.534q0 5.621 2.045 11.957 7.255 15.844 22.177 15.843h2.045q6.231 0 11.957-3.066 12.777-8.28 12.776-25.755c0-2.111-.408-5.35-1.226-9.709m67.76-40.167h2.045l-.204 50.796q0 8.176 5.415 17.578 7.87 9.914 19.726 9.914h2.045q15.229-.001 22.586-16.046 2.045-6.537 2.045-12.264V268.63h30.56v50.592q-.001 27.594-21.26 43.741-14.309 10.118-35.464 10.118c-20.784 0-36.522-7.526-47.217-22.586-6.201-9.335-9.302-20.302-9.302-32.91v-49.159q27.695.206 29.025.205m170.884-42.108h31.887v93.516q0 27.187-20.951 43.129-14.002 9.914-34.85 9.914-30.662 0-46.401-22.177-9.197-13.797-9.197-32.398-.002-30.251 24.427-46.401 13.795-7.664 30.865-7.665h1.021q13.08 0 23.199 6.439zm-49.16 91.984q0 17.475 12.776 25.755 5.722 3.067 11.959 3.066h2.043q14.923.002 22.177-15.843 2.046-6.335 2.045-11.957v-1.534q0-17.882-14.512-25.754-6.133-2.248-10.731-2.249-18.193.001-24.528 18.807c-.818 4.359-1.229 7.598-1.229 9.709m167.717-91.984h31.89v93.516c0 18.126-6.988 32.5-20.952 43.129-9.337 6.609-20.952 9.914-34.854 9.914-20.44 0-35.911-7.392-46.401-22.177q-9.197-13.797-9.197-32.398c0-20.168 8.137-35.634 24.427-46.401q13.793-7.664 30.865-7.665h1.021q13.084 0 23.201 6.439zm-49.162 91.984q-.002 17.475 12.776 25.755 5.722 3.067 11.959 3.066h2.043q14.921.002 22.18-15.843 2.042-6.335 2.043-11.957v-1.534q-.002-17.882-14.513-25.754-6.132-2.248-10.731-2.249-18.193.001-24.529 18.807c-.816 4.359-1.228 7.598-1.228 9.709m117.231-49.876h2.043l22.59 68.681 28.923-68.681h30.659l-61.936 144.822-27.391-12.265 17.173-42.006-12.164-5.518-28.923-85.238q27.59.206 29.026.205M1271.859 499.167c0 8.662-7.021 15.685-15.686 15.685h-389.38c-8.664 0-15.686-7.022-15.686-15.685V109.786c0-8.662 7.021-15.686 15.686-15.686h389.381c8.664 0 15.686 7.024 15.686 15.686z"/><path fill="#FFF" d="M1200.013 289.791a29 29 0 0 0-2.981.153c-10.43-49.48-47.266-89.23-95.077-103.813-.516-.923-1.054-1.834-1.589-3.831-2.725-11.934-10.685-21.883-21.299-27.854-11.277-5.308-25.207-2.654-33.168 7.295-5.971 7.298-6.633 16.584-1.327 24.546 5.308 6.633 16.585 9.287 21.893 1.325 3.316-4.644 0-11.938-5.97-11.938-3.318 0-4.645 3.316-5.971 5.307-2.654 3.315-5.309-2.655-5.309-5.307 0-3.319.664-7.297 3.318-9.951 7.961-8.625 21.227-6.633 28.523 1.989 9.951 12.605 2.654 29.854-11.276 35.822-15.257 5.971-31.179-3.315-39.546-15.356-1.996-3.025-3.257-3.217-4.441-2.919-11.832 2.98-23.42 7.405-34.227 13.777a139 139 0 0 0-28.035 21.665c-18.618 18.616-31.954 42.51-37.59 69.242a29 29 0 0 0-2.986-.153c-15.938 0-28.86 12.926-28.86 28.863 0 15.938 12.923 28.863 28.86 28.863q1.514-.002 2.986-.153c13.223 62.729 68.881 109.819 135.543 109.819s122.32-47.091 135.542-109.819q1.473.152 2.986.153c15.939 0 28.859-12.925 28.859-28.863.001-15.936-12.919-28.862-28.858-28.862"/><path fill="#37ABE9" d="M1079.582 318.949c-.948-6.347-5.07-11.646-10.712-14.235l-3.097-72.083h-9.387l-3.096 72.083a18.8 18.8 0 0 0-5.639 3.976l-14.695-4.723-5.238 19.085 15.283 3.499a18.76 18.76 0 0 0 8.859 11.467l-.675 15.708h19.79l-.674-15.709a18.8 18.8 0 0 0 4.961-4.08l71.66 16.404 2.039-9.098z"/><ellipse cx="1011.378" cy="271.308" fill="#37ABE9" rx="23.249" ry="31.998"/><path fill="#FFF" d="M1013.129 261.77c0 6.369-3.755 11.536-8.383 11.536-4.631 0-8.383-5.167-8.383-11.536 0-6.375 3.752-11.54 8.383-11.54 4.628-.001 8.383 5.165 8.383 11.54"/><ellipse cx="1111.589" cy="271.308" fill="#37ABE9" rx="23.249" ry="31.998"/><path fill="#FFF" d="M1113.34 261.77c0 6.369-3.755 11.536-8.383 11.536-4.631 0-8.383-5.167-8.383-11.536 0-6.375 3.752-11.54 8.383-11.54 4.628-.001 8.383 5.165 8.383 11.54"/><path fill="#37ABE9" d="M1061.484 406.033c20.879 0 37.807-16.18 37.807-36.142h-75.613c0 19.963 16.926 36.142 37.806 36.142m-420.129 93.134c0 8.662-7.021 15.685-15.686 15.685h-389.38c-8.664 0-15.686-7.022-15.686-15.685V109.786c0-8.662 7.021-15.686 15.686-15.686H625.67c8.664 0 15.686 7.024 15.686 15.686z"/><path fill="#FFF" d="M569.508 289.791q-1.51.002-2.98.153c-10.43-49.48-47.266-89.23-95.077-103.813-.516-.923-1.054-1.834-1.589-3.831-2.725-11.934-10.685-21.883-21.299-27.854-11.277-5.308-25.207-2.654-33.168 7.295-5.971 7.298-6.633 16.584-1.327 24.546 5.308 6.633 16.585 9.287 21.893 1.325 3.316-4.644 0-11.938-5.97-11.938-3.318 0-4.645 3.316-5.971 5.307-2.654 3.315-5.309-2.655-5.309-5.307 0-3.319.664-7.297 3.318-9.951 7.961-8.625 21.227-6.633 28.523 1.989 9.951 12.605 2.654 29.854-11.276 35.822-15.257 5.971-31.179-3.315-39.546-15.356-1.996-3.025-3.257-3.217-4.441-2.919-11.832 2.98-23.42 7.405-34.227 13.777a139 139 0 0 0-28.035 21.665c-18.618 18.616-31.954 42.51-37.59 69.242a29 29 0 0 0-2.986-.153c-15.938 0-28.86 12.926-28.86 28.863 0 15.938 12.923 28.863 28.86 28.863q1.514-.002 2.986-.153c13.223 62.729 68.881 109.819 135.543 109.819s122.32-47.091 135.541-109.819a29 29 0 0 0 2.986.153c15.939 0 28.859-12.925 28.859-28.863.001-15.936-12.919-28.862-28.858-28.862"/><path fill="#37ABE9" d="M449.078 318.949c-.948-6.347-5.07-11.646-10.712-14.235l-3.097-72.083h-9.387l-3.096 72.083a18.8 18.8 0 0 0-5.639 3.976l-14.695-4.723-5.238 19.085 15.283 3.499a18.76 18.76 0 0 0 8.859 11.467l-.675 15.708h19.79l-.674-15.709a18.8 18.8 0 0 0 4.961-4.08l71.66 16.404 2.039-9.098z"/><ellipse cx="380.875" cy="271.308" fill="#37ABE9" rx="23.249" ry="31.998"/><path fill="#FFF" d="M382.625 261.77c0 6.369-3.755 11.536-8.383 11.536-4.631 0-8.383-5.167-8.383-11.536 0-6.375 3.752-11.54 8.383-11.54 4.628-.001 8.383 5.165 8.383 11.54"/><ellipse cx="481.085" cy="271.308" fill="#37ABE9" rx="23.249" ry="31.998"/><path fill="#FFF" d="M482.836 261.77c0 6.369-3.755 11.536-8.383 11.536-4.631 0-8.383-5.167-8.383-11.536 0-6.375 3.752-11.54 8.383-11.54 4.628-.001 8.383 5.165 8.383 11.54"/><path fill="#37ABE9" d="M430.98 406.033c20.879 0 37.807-16.18 37.807-36.142h-75.613c0 19.963 16.926 36.142 37.806 36.142"/><path fill="#FFF" d="M134.647 1361.929q-13.923 0-23.916-7.8-8.314-7.22-8.314-17.147 0-12.439-.193-35.969.708-7.412 2.062-11.218 3.417-8.12 10.83-11.667 7.349-3.415 18.179-3.416 14.954.001 24.431 3.416v15.922h-.193q-7.415-3.737-19.661-3.738h-2.063q-10.767 0-13.537 5.607-.71 1.678-1.032 4.062l.129.321v15.278l18.759-.387q22.24.387 27.267 12.313a22.8 22.8 0 0 1 1.676 8.639v1.998q0 14.568-15.792 20.885-7.416 2.9-18.632 2.901m21.981-83.93q15.794 6.382 15.794 20.886v1.998q-.001 4.513-1.676 8.703-5.029 11.86-27.269 12.247l-18.757-.387-18.309-.064q-.644-8.83-.644-21.337 0-9.862 8.316-17.147 9.992-7.798 23.916-7.799 11.217 0 18.629 2.9m-35.389 50.988v6.318q0 6.254 7.479 8.638 3.287.84 6.253.839h1.675q9.605 0 12.893-5.223a8.4 8.4 0 0 0 .709-3.415q0-7.157-12.57-7.157zm19.79-20.948q12.57 0 12.57-7.156 0-1.804-.708-3.352-3.289-5.285-12.893-5.286h-1.676q-2.965 0-6.253.838-7.476 2.387-7.477 8.702v6.254zm69.297-13.15q19.982 0 25.85 13.086 1.998 5.736 1.999 10.894v19.854q0 13.666-16.052 20.563-6.962 2.321-13.859 2.32-24.11 0-30.233-15.148-1.095-3.544-1.095-6.704v-1.869q0-12.505 11.989-16.824 6.769-1.997 15.6-1.998h16.052q.32.001.322-.322 0-9.54-13.408-9.541h-1.87q-11.024 0-18.242 3.481v-14.697q8.506-3.096 22.947-3.095m-16.115 43.511q-.001 6.188 10.765 7.477h3.287q9.345.001 12.313-6.124a10.4 10.4 0 0 0 .322-2.643v-5.736H205.75q-8.573.001-10.701 3.545-.839 1.483-.838 3.481m68.587-41.255q6.381-4.061 14.632-4.062h.646q10.765 0 19.467 4.834 15.406 10.187 15.406 29.267 0 11.733-5.802 20.435-9.928 13.987-29.265 13.987-13.151 0-21.982-6.252-13.216-10.056-13.215-27.203v-58.982h20.113zm30.233 23.915q-4-11.86-15.473-11.861-2.899.001-6.769 1.418-9.154 4.966-9.153 16.244v.968q0 3.545 1.29 7.542 4.576 9.992 13.988 9.991h1.29q3.932 0 7.541-1.934 8.058-5.222 8.058-16.244.001-1.998-.772-6.124m37.388-25.333h1.289l14.247 43.318 18.242-43.318h19.339l-39.064 91.342-17.276-7.735 10.83-26.494-7.67-3.479-18.244-53.763q17.404.13 18.307.129m77.74 1.418q6.38-4.061 14.633-4.062h.644q10.765 0 19.468 4.834 15.406 10.187 15.407 29.267 0 11.733-5.802 20.435-9.927 13.987-29.266 13.987-13.151 0-21.981-6.252-13.216-10.056-13.215-27.203v-58.982h20.112zm30.233 23.915q-3.999-11.86-15.471-11.861-2.9.001-6.769 1.418-9.155 4.966-9.155 16.244v.968q0 3.545 1.29 7.542 4.576 9.992 13.987 9.991h1.29q3.93 0 7.542-1.934 8.059-5.222 8.058-16.244.001-1.998-.772-6.124m42.738-25.333h1.29l-.129 32.037q0 5.157 3.416 11.087 4.964 6.254 12.441 6.254h1.29q9.604-.001 14.245-10.121 1.29-4.124 1.29-7.734v-31.522h19.274v31.908q0 17.405-13.41 27.589-9.025 6.382-22.368 6.382-19.663.001-29.781-14.245-5.866-8.831-5.866-20.758v-31.006q17.469.13 18.308.129m107.78-26.559h20.111v58.982q0 17.148-13.215 27.203-8.831 6.252-21.979 6.252-19.339 0-29.267-13.987-5.8-8.702-5.801-20.435-.001-19.08 15.406-29.267 8.702-4.834 19.468-4.834h.644q8.25 0 14.633 4.062zm-31.007 58.016q0 11.023 8.059 16.244 3.608 1.934 7.542 1.934h1.288q9.412.001 13.988-9.991 1.29-3.997 1.29-7.542v-.968q-.001-11.28-9.154-16.244-3.868-1.417-6.768-1.418-11.475.001-15.471 11.861-.773 4.126-.774 6.124m105.784-58.016H683.8v58.982c0 11.433-4.407 20.498-13.215 27.203-5.89 4.168-13.214 6.252-21.982 6.252q-19.34 0-29.267-13.987-5.8-8.702-5.801-20.435-.002-19.08 15.407-29.267 8.7-4.834 19.467-4.834h.644q8.253 0 14.634 4.062zm-31.007 58.016q-.002 11.023 8.059 16.244 3.608 1.934 7.542 1.934h1.289q9.41.001 13.988-9.991 1.289-3.997 1.289-7.542v-.968q-.001-11.28-9.153-16.244-3.868-1.417-6.769-1.418-11.475.001-15.471 11.861-.774 4.126-.774 6.124m73.939-31.457h1.289l14.248 43.318 18.242-43.318h19.337l-39.064 91.342-17.275-7.735 10.831-26.494-7.672-3.479-18.242-53.763q17.401.13 18.306.129m670.868-225.648q-22.076 0-37.918-12.367-13.183-11.446-13.183-27.187 0-19.722-.307-57.028 1.122-11.753 3.269-17.785 5.417-12.875 17.17-18.498 11.653-5.415 28.823-5.416 23.71.001 38.735 5.416v25.243h-.307q-11.757-5.925-31.172-5.926h-3.271q-17.07 0-21.462 8.891-1.126 2.66-1.637 6.438l.204.511v24.223l29.742-.613q35.262.614 43.231 19.521 2.657 6.541 2.657 13.696v3.168q-.001 23.096-25.039 33.113-11.75 4.6-29.535 4.6m34.851-133.07q25.041 10.118 25.042 33.115v3.169q-.002 7.153-2.658 13.797-7.973 18.804-43.233 19.418l-29.739-.613-29.027-.102c-.682-9.336-1.021-20.609-1.021-33.83q0-15.636 13.185-27.187 15.841-12.363 37.917-12.365 17.78 0 29.534 4.598m-56.109 80.843v10.017q0 9.915 11.856 13.695c3.476.887 6.778 1.33 9.914 1.33h2.656q15.228 0 20.441-8.28a13.3 13.3 0 0 0 1.125-5.415q0-11.346-19.93-11.347zm31.375-33.215q19.93 0 19.931-11.344c0-1.907-.374-3.682-1.124-5.315q-5.214-8.38-20.44-8.38h-2.657q-4.702 0-9.914 1.327c-7.903 2.524-11.855 7.12-11.855 13.798v9.914zm109.871-20.85q31.682 0 40.983 20.747 3.168 9.096 3.169 17.272v31.479q0 21.67-25.45 32.603-11.037 3.68-21.973 3.679-38.225 0-47.934-24.018-1.736-5.619-1.736-10.629v-2.965q0-19.825 19.008-26.673 10.73-3.168 24.733-3.169h25.45q.509.002.511-.511-.002-15.125-21.258-15.127h-2.965c-11.65 0-21.294 1.84-28.923 5.52v-23.303q13.49-4.905 36.385-4.905m-25.55 68.987q-.001 9.813 17.068 11.855h5.211q14.819.002 19.521-9.71.509-1.938.511-4.19v-9.095h-24.019q-13.594.001-16.966 5.62-1.328 2.354-1.326 5.52m108.743-65.41q10.118-6.439 23.199-6.439h1.023q17.067 0 30.865 7.665 24.426 16.15 24.427 46.401 0 18.601-9.199 32.398c-10.492 14.785-25.961 22.177-46.399 22.177-13.899 0-25.519-3.305-34.852-9.914q-20.954-15.942-20.953-43.129v-93.516h31.889zm47.935 37.918q-6.34-18.805-24.531-18.807-4.597.001-10.731 2.249-14.514 7.871-14.513 25.754v1.534q0 5.621 2.045 11.957 7.255 15.844 22.178 15.843h2.045q6.234 0 11.957-3.066 12.775-8.28 12.775-25.755-.001-3.167-1.225-9.709m59.277-40.167h2.043l22.588 68.681 28.923-68.681h30.661l-61.936 144.822-27.391-12.265 17.17-42.006-12.16-5.518-28.926-85.238q27.597.207 29.028.205m123.256 2.249q10.117-6.438 23.201-6.439h1.021q17.067 0 30.865 7.665 24.426 16.15 24.427 46.401 0 18.601-9.198 32.398-15.739 22.177-46.4 22.177-20.85 0-34.852-9.914-20.952-15.942-20.951-43.129v-93.516h31.887zm47.934 37.918q-6.341-18.805-24.529-18.807-4.6.001-10.731 2.249-14.513 7.871-14.514 25.754v1.534q0 5.621 2.045 11.957 7.255 15.844 22.177 15.843h2.045q6.231 0 11.957-3.066 12.777-8.28 12.776-25.755 0-3.167-1.226-9.709m67.76-40.167h2.045l-.204 50.796q0 8.176 5.415 17.578 7.87 9.914 19.726 9.914h2.045q15.229-.001 22.586-16.046 2.045-6.537 2.045-12.264v-49.979h30.56v50.592q-.001 27.594-21.26 43.741-14.309 10.119-35.464 10.118-31.175.002-47.217-22.586c-6.201-9.335-9.302-20.302-9.302-32.91V964.91q27.695.207 29.025.205m170.884-42.107h31.887v93.516q0 27.187-20.951 43.129-14.002 9.914-34.85 9.914-30.662 0-46.401-22.177-9.197-13.797-9.197-32.398-.002-30.251 24.427-46.401 13.795-7.664 30.865-7.665h1.021q13.08 0 23.199 6.439zm-49.16 91.983q0 17.475 12.776 25.755 5.722 3.067 11.959 3.066h2.043q14.923.002 22.177-15.843 2.046-6.336 2.045-11.957v-1.534q0-17.882-14.512-25.754-6.133-2.248-10.731-2.249-18.193.001-24.528 18.807-1.228 6.542-1.229 9.709m167.717-91.983h31.89v93.516c0 18.126-6.988 32.5-20.952 43.129-9.337 6.609-20.952 9.914-34.854 9.914-20.44 0-35.911-7.392-46.401-22.177q-9.197-13.797-9.197-32.398c0-20.168 8.137-35.634 24.427-46.401q13.793-7.664 30.865-7.665h1.021q13.084 0 23.201 6.439zm-49.162 91.983q-.002 17.475 12.776 25.755 5.722 3.067 11.959 3.066h2.043q14.921.002 22.18-15.843 2.042-6.336 2.043-11.957v-1.534q-.002-17.882-14.513-25.754-6.132-2.248-10.731-2.249-18.193.001-24.529 18.807c-.816 4.36-1.228 7.599-1.228 9.709m117.231-49.876h2.043l22.59 68.681 28.923-68.681h30.659l-61.936 144.822-27.391-12.265 17.173-42.006-12.164-5.518-28.923-85.238q27.59.207 29.026.205m-1012.481 230.536c0 8.662-7.021 15.685-15.686 15.685h-389.38c-8.664 0-15.686-7.022-15.686-15.685V806.27c0-8.662 7.021-15.686 15.686-15.686h389.381c8.664 0 15.686 7.023 15.686 15.686z"/><path d="M1200.013 986.275a29 29 0 0 0-2.981.153c-10.43-49.48-47.266-89.23-95.077-103.813-.516-.922-1.054-1.834-1.589-3.83-2.725-11.934-10.685-21.883-21.299-27.854-11.277-5.309-25.207-2.654-33.168 7.295-5.971 7.298-6.633 16.584-1.327 24.547 5.308 6.633 16.585 9.286 21.893 1.324 3.316-4.644 0-11.938-5.97-11.938-3.318 0-4.645 3.316-5.971 5.308-2.654 3.314-5.309-2.656-5.309-5.308 0-3.319.664-7.298 3.318-9.951 7.961-8.624 21.227-6.633 28.523 1.989 9.951 12.605 2.654 29.854-11.276 35.822-15.257 5.971-31.179-3.315-39.546-15.355-1.996-3.025-3.257-3.218-4.441-2.92-11.832 2.98-23.42 7.405-34.227 13.777a139 139 0 0 0-28.035 21.665c-18.618 18.616-31.954 42.51-37.59 69.242a29 29 0 0 0-2.986-.153c-15.938 0-28.86 12.926-28.86 28.863 0 15.938 12.923 28.863 28.86 28.863q1.514-.002 2.986-.153c13.223 62.729 68.881 109.819 135.543 109.819s122.32-47.091 135.542-109.819q1.473.152 2.986.153c15.939 0 28.859-12.925 28.859-28.863.001-15.937-12.919-28.863-28.858-28.863"/><path fill="#FFF" d="M1079.582 1015.434c-.948-6.347-5.07-11.646-10.712-14.235l-3.097-72.083h-9.387l-3.096 72.083a18.8 18.8 0 0 0-5.639 3.976l-14.695-4.723-5.238 19.085 15.283 3.499a18.76 18.76 0 0 0 8.859 11.467l-.675 15.708h19.79l-.674-15.709a18.8 18.8 0 0 0 4.961-4.08l71.66 16.404 2.039-9.098z"/><ellipse cx="1011.378" cy="967.792" fill="#FFF" rx="23.249" ry="31.998"/><path d="M1013.129 958.254c0 6.369-3.755 11.536-8.383 11.536-4.631 0-8.383-5.167-8.383-11.536 0-6.375 3.752-11.54 8.383-11.54 4.628 0 8.383 5.165 8.383 11.54"/><ellipse cx="1111.589" cy="967.792" fill="#FFF" rx="23.249" ry="31.998"/><path d="M1113.34 958.254c0 6.369-3.755 11.536-8.383 11.536-4.631 0-8.383-5.167-8.383-11.536 0-6.375 3.752-11.54 8.383-11.54 4.628 0 8.383 5.165 8.383 11.54"/><path fill="#FFF" d="M1061.484 1102.518c20.879 0 37.807-16.18 37.807-36.142h-75.613c0 19.962 16.926 36.142 37.806 36.142m-420.129 93.133c0 8.662-7.021 15.685-15.686 15.685h-389.38c-8.664 0-15.686-7.022-15.686-15.685V806.27c0-8.662 7.021-15.686 15.686-15.686H625.67c8.664 0 15.686 7.023 15.686 15.686z"/><path d="M569.508 986.275q-1.51.001-2.98.153c-10.43-49.48-47.266-89.23-95.077-103.813-.516-.922-1.054-1.834-1.589-3.83-2.725-11.934-10.685-21.883-21.299-27.854-11.277-5.309-25.207-2.654-33.168 7.295-5.971 7.298-6.633 16.584-1.327 24.547 5.308 6.633 16.585 9.286 21.893 1.324 3.316-4.644 0-11.938-5.97-11.938-3.318 0-4.645 3.316-5.971 5.308-2.654 3.314-5.309-2.656-5.309-5.308 0-3.319.664-7.298 3.318-9.951 7.961-8.624 21.227-6.633 28.523 1.989 9.951 12.605 2.654 29.854-11.276 35.822-15.257 5.971-31.179-3.315-39.546-15.355-1.996-3.025-3.257-3.218-4.441-2.92-11.832 2.98-23.42 7.405-34.227 13.777a139 139 0 0 0-28.035 21.665c-18.618 18.616-31.954 42.51-37.59 69.242a29 29 0 0 0-2.986-.153c-15.938 0-28.86 12.926-28.86 28.863 0 15.938 12.923 28.863 28.86 28.863q1.514-.002 2.986-.153c13.223 62.729 68.881 109.819 135.543 109.819s122.32-47.091 135.541-109.819a29 29 0 0 0 2.986.153c15.939 0 28.859-12.925 28.859-28.863.001-15.937-12.919-28.863-28.858-28.863"/><path fill="#FFF" d="M449.078 1015.434c-.948-6.347-5.07-11.646-10.712-14.235l-3.097-72.083h-9.387l-3.096 72.083a18.8 18.8 0 0 0-5.639 3.976l-14.695-4.723-5.238 19.085 15.283 3.499a18.76 18.76 0 0 0 8.859 11.467l-.675 15.708h19.79l-.674-15.709a18.8 18.8 0 0 0 4.961-4.08l71.66 16.404 2.039-9.098z"/><ellipse cx="380.875" cy="967.792" fill="#FFF" rx="23.249" ry="31.998"/><path d="M382.625 958.254c0 6.369-3.755 11.536-8.383 11.536-4.631 0-8.383-5.167-8.383-11.536 0-6.375 3.752-11.54 8.383-11.54 4.628 0 8.383 5.165 8.383 11.54"/><ellipse cx="481.085" cy="967.792" fill="#FFF" rx="23.249" ry="31.998"/><path d="M482.836 958.254c0 6.369-3.755 11.536-8.383 11.536-4.631 0-8.383-5.167-8.383-11.536 0-6.375 3.752-11.54 8.383-11.54 4.628 0 8.383 5.165 8.383 11.54"/><path fill="#FFF" d="M430.98 1102.518c20.879 0 37.807-16.18 37.807-36.142h-75.613c0 19.962 16.926 36.142 37.806 36.142"/><path d="M134.647 2058.413q-13.923 0-23.916-7.8-8.314-7.22-8.314-17.147 0-12.439-.193-35.969.708-7.412 2.062-11.218 3.417-8.12 10.83-11.667 7.349-3.415 18.179-3.416 14.954.001 24.431 3.416v15.922h-.193q-7.415-3.737-19.661-3.738h-2.063q-10.767 0-13.537 5.607-.71 1.678-1.032 4.062l.129.321v15.278l18.759-.387q22.24.387 27.267 12.313a22.8 22.8 0 0 1 1.676 8.639v1.998q0 14.567-15.792 20.885-7.416 2.9-18.632 2.901m21.981-83.93q15.794 6.382 15.794 20.886v1.998q-.001 4.513-1.676 8.703-5.029 11.86-27.269 12.247l-18.757-.387-18.309-.064q-.644-8.83-.644-21.337 0-9.862 8.316-17.147 9.992-7.798 23.916-7.799 11.217 0 18.629 2.9m-35.389 50.989v6.318q0 6.254 7.479 8.638 3.287.84 6.253.839h1.675q9.605 0 12.893-5.223a8.4 8.4 0 0 0 .709-3.415q0-7.157-12.57-7.157zm19.79-20.949q12.57 0 12.57-7.156 0-1.804-.708-3.352-3.289-5.285-12.893-5.286h-1.676q-2.965 0-6.253.838-7.476 2.387-7.477 8.702v6.254zm69.297-13.15q19.982 0 25.85 13.086 1.998 5.736 1.999 10.894v19.854q0 13.666-16.052 20.563-6.962 2.321-13.859 2.32-24.11 0-30.233-15.148-1.095-3.544-1.095-6.704v-1.869q0-12.505 11.989-16.824 6.769-1.997 15.6-1.998h16.052q.32.001.322-.322 0-9.54-13.408-9.541h-1.87q-11.024 0-18.242 3.481v-14.697q8.506-3.096 22.947-3.095m-16.115 43.512q-.001 6.188 10.765 7.477h3.287q9.345.001 12.313-6.124a10.4 10.4 0 0 0 .322-2.643v-5.736H205.75q-8.573.001-10.701 3.545-.839 1.483-.838 3.481m68.587-41.256q6.381-4.061 14.632-4.062h.646q10.765 0 19.467 4.834 15.406 10.187 15.406 29.267 0 11.733-5.802 20.435-9.928 13.987-29.265 13.987-13.151 0-21.982-6.252-13.216-10.056-13.215-27.203v-58.982h20.113zm30.233 23.915q-4-11.86-15.473-11.861-2.899.001-6.769 1.418-9.154 4.966-9.153 16.244v.968q0 3.545 1.29 7.542 4.576 9.992 13.988 9.991h1.29q3.932 0 7.541-1.934 8.058-5.222 8.058-16.244.001-1.998-.772-6.124m37.388-25.333h1.289l14.247 43.318 18.242-43.318h19.339l-39.064 91.342-17.276-7.735 10.83-26.494-7.67-3.479-18.244-53.763q17.404.13 18.307.129m77.74 1.418q6.38-4.061 14.633-4.062h.644q10.765 0 19.468 4.834 15.406 10.187 15.407 29.267 0 11.733-5.802 20.435-9.927 13.987-29.266 13.987-13.151 0-21.981-6.252-13.216-10.056-13.215-27.203v-58.982h20.112zm30.233 23.915q-3.999-11.86-15.471-11.861-2.9.001-6.769 1.418-9.155 4.966-9.155 16.244v.968q0 3.545 1.29 7.542 4.576 9.992 13.987 9.991h1.29q3.93 0 7.542-1.934 8.059-5.222 8.058-16.244.001-1.998-.772-6.124m42.738-25.333h1.29l-.129 32.037q0 5.157 3.416 11.087 4.964 6.254 12.441 6.254h1.29q9.604-.001 14.245-10.121 1.29-4.124 1.29-7.734v-31.522h19.274v31.908q0 17.405-13.41 27.589-9.025 6.382-22.368 6.382-19.663.001-29.781-14.245-5.866-8.831-5.866-20.758v-31.006q17.469.13 18.308.129m107.78-26.559h20.111v58.982q0 17.148-13.215 27.203-8.831 6.252-21.979 6.252-19.339 0-29.267-13.987-5.8-8.702-5.801-20.435-.001-19.08 15.406-29.267 8.702-4.834 19.468-4.834h.644q8.25 0 14.633 4.062zm-31.007 58.016q0 11.023 8.059 16.244 3.608 1.935 7.542 1.934h1.288q9.412.001 13.988-9.991 1.29-3.997 1.29-7.542v-.968q-.001-11.28-9.154-16.244-3.868-1.417-6.768-1.418-11.475.001-15.471 11.861-.773 4.126-.774 6.124m105.784-58.016H683.8v58.982q-.002 17.148-13.215 27.203c-5.89 4.168-13.214 6.252-21.982 6.252q-19.34 0-29.267-13.987-5.8-8.702-5.801-20.435-.002-19.08 15.407-29.267 8.7-4.834 19.467-4.834h.644q8.253 0 14.634 4.062zm-31.007 58.016q-.002 11.023 8.059 16.244 3.608 1.935 7.542 1.934h1.289q9.41.001 13.988-9.991 1.289-3.997 1.289-7.542v-.968q-.001-11.28-9.153-16.244-3.868-1.417-6.769-1.418-11.475.001-15.471 11.861-.774 4.126-.774 6.124m73.939-31.457h1.289l14.248 43.318 18.242-43.318h19.337l-39.064 91.342-17.275-7.735 10.831-26.494-7.672-3.479-18.242-53.763q17.401.13 18.306.129m670.868-225.648q-22.076 0-37.918-12.367-13.183-11.446-13.183-27.187 0-19.722-.307-57.028 1.122-11.753 3.269-17.785 5.417-12.875 17.17-18.498 11.653-5.415 28.823-5.416 23.71.001 38.735 5.416v25.243h-.307q-11.757-5.925-31.172-5.926h-3.271q-17.07 0-21.462 8.891-1.126 2.66-1.637 6.438l.204.511v24.223l29.742-.613q35.262.614 43.231 19.521 2.657 6.541 2.657 13.696v3.168q-.001 23.097-25.039 33.113-11.75 4.6-29.535 4.6m34.851-133.07q25.041 10.118 25.042 33.115v3.169q-.002 7.153-2.658 13.797-7.973 18.804-43.233 19.418l-29.739-.613-29.027-.102c-.682-9.336-1.021-20.609-1.021-33.83q0-15.636 13.185-27.187 15.841-12.363 37.917-12.365 17.78.001 29.534 4.598m-56.109 80.843v10.017q0 9.915 11.856 13.695c3.476.887 6.778 1.33 9.914 1.33h2.656q15.228 0 20.441-8.28a13.3 13.3 0 0 0 1.125-5.415q0-11.346-19.93-11.347zm31.375-33.215q19.93 0 19.931-11.344c0-1.907-.374-3.682-1.124-5.315q-5.214-8.38-20.44-8.38h-2.657q-4.702 0-9.914 1.327c-7.903 2.524-11.855 7.12-11.855 13.798v9.914zm109.871-20.85q31.682 0 40.983 20.747 3.168 9.096 3.169 17.272v31.479q0 21.67-25.45 32.603-11.037 3.68-21.973 3.679-38.225 0-47.934-24.018-1.736-5.619-1.736-10.629v-2.965q0-19.825 19.008-26.673 10.73-3.168 24.733-3.169h25.45q.509.002.511-.511-.001-15.125-21.258-15.127h-2.965c-11.65 0-21.294 1.84-28.923 5.52v-23.303q13.49-4.905 36.385-4.905m-25.55 68.988q-.001 9.813 17.068 11.855h5.211q14.819.002 19.521-9.71.509-1.938.511-4.19v-9.095h-24.019q-13.594.001-16.966 5.62-1.328 2.353-1.326 5.52m108.743-65.41q10.118-6.438 23.199-6.439h1.023q17.067 0 30.865 7.665 24.426 16.15 24.427 46.401 0 18.601-9.199 32.398c-10.492 14.785-25.961 22.177-46.399 22.177-13.899 0-25.519-3.305-34.852-9.914q-20.954-15.942-20.953-43.129v-93.516h31.889zm47.935 37.918q-6.34-18.805-24.531-18.807-4.597.001-10.731 2.249-14.514 7.872-14.513 25.754v1.534q0 5.621 2.045 11.957 7.255 15.844 22.178 15.843h2.045q6.234 0 11.957-3.066 12.775-8.28 12.775-25.755-.001-3.168-1.225-9.709m59.277-40.167h2.043l22.588 68.681 28.923-68.681h30.661l-61.936 144.822-27.391-12.265 17.17-42.006-12.16-5.518-28.926-85.238q27.597.206 29.028.205m123.256 2.249q10.117-6.438 23.201-6.439h1.021q17.067 0 30.865 7.665 24.426 16.15 24.427 46.401 0 18.601-9.198 32.398-15.739 22.177-46.4 22.177-20.85 0-34.852-9.914-20.952-15.942-20.951-43.129v-93.516h31.887zm47.934 37.918q-6.341-18.805-24.529-18.807-4.6.001-10.731 2.249-14.513 7.872-14.514 25.754v1.534q0 5.621 2.045 11.957 7.255 15.844 22.177 15.843h2.045q6.231 0 11.957-3.066 12.777-8.28 12.776-25.755 0-3.168-1.226-9.709m67.76-40.167h2.045l-.204 50.796q0 8.176 5.415 17.578 7.87 9.914 19.726 9.914h2.045q15.229-.001 22.586-16.046 2.045-6.537 2.045-12.264V1661.6h30.56v50.592q-.001 27.595-21.26 43.741-14.309 10.119-35.464 10.118-31.175.002-47.217-22.586c-6.201-9.335-9.302-20.302-9.302-32.91v-49.159q27.695.205 29.025.204m170.884-42.108h31.887v93.516q0 27.187-20.951 43.129-14.002 9.914-34.85 9.914-30.662 0-46.401-22.177-9.197-13.797-9.197-32.398-.002-30.251 24.427-46.401 13.795-7.664 30.865-7.665h1.021q13.08 0 23.199 6.439zm-49.16 91.984q0 17.475 12.776 25.755 5.722 3.067 11.959 3.066h2.043q14.923.002 22.177-15.843 2.046-6.336 2.045-11.957v-1.534q0-17.882-14.512-25.754-6.133-2.248-10.731-2.249-18.193.002-24.528 18.807-1.228 6.54-1.229 9.709m167.717-91.984h31.89v93.516c0 18.126-6.988 32.5-20.952 43.129-9.337 6.609-20.952 9.914-34.854 9.914-20.44 0-35.911-7.392-46.401-22.177q-9.197-13.797-9.197-32.398c0-20.168 8.137-35.634 24.427-46.401q13.793-7.664 30.865-7.665h1.021q13.084 0 23.201 6.439zm-49.162 91.984q-.002 17.475 12.776 25.755 5.722 3.067 11.959 3.066h2.043q14.921.002 22.18-15.843 2.042-6.336 2.043-11.957v-1.534q-.002-17.882-14.513-25.754-6.132-2.248-10.731-2.249-18.193.002-24.529 18.807c-.816 4.359-1.228 7.598-1.228 9.709m117.231-49.876h2.043l22.59 68.681 28.923-68.681h30.659l-61.936 144.822-27.391-12.265 17.173-42.006-12.164-5.518-28.923-85.238q27.59.206 29.026.205m-1012.481 230.536c0 8.662-7.021 15.685-15.686 15.685h-389.38c-8.664 0-15.686-7.022-15.686-15.685v-389.382c0-8.662 7.021-15.686 15.686-15.686h389.381c8.664 0 15.686 7.023 15.686 15.686z"/><path fill="#FFF" d="M1200.013 1682.76a29 29 0 0 0-2.981.153c-10.43-49.48-47.266-89.23-95.077-103.813-.516-.922-1.054-1.834-1.589-3.83-2.725-11.934-10.685-21.883-21.299-27.854-11.277-5.309-25.207-2.654-33.168 7.295-5.971 7.298-6.633 16.584-1.327 24.547 5.308 6.633 16.585 9.286 21.893 1.324 3.316-4.644 0-11.938-5.97-11.938-3.318 0-4.645 3.316-5.971 5.308-2.654 3.314-5.309-2.656-5.309-5.308 0-3.319.664-7.298 3.318-9.951 7.961-8.624 21.227-6.633 28.523 1.989 9.951 12.605 2.654 29.854-11.276 35.822-15.257 5.971-31.179-3.315-39.546-15.355-1.996-3.025-3.257-3.218-4.441-2.92-11.832 2.98-23.42 7.405-34.227 13.777a139 139 0 0 0-28.035 21.665c-18.618 18.616-31.954 42.51-37.59 69.242a29 29 0 0 0-2.986-.153c-15.938 0-28.86 12.926-28.86 28.863 0 15.938 12.923 28.863 28.86 28.863q1.514-.002 2.986-.153c13.223 62.729 68.881 109.819 135.543 109.819s122.32-47.091 135.542-109.819q1.473.152 2.986.153c15.939 0 28.859-12.925 28.859-28.863.001-15.937-12.919-28.863-28.858-28.863"/><path d="M1079.582 1711.918c-.948-6.347-5.07-11.646-10.712-14.235l-3.097-72.083h-9.387l-3.096 72.083a18.8 18.8 0 0 0-5.639 3.976l-14.695-4.723-5.238 19.085 15.283 3.499a18.76 18.76 0 0 0 8.859 11.467l-.675 15.708h19.79l-.674-15.709a18.8 18.8 0 0 0 4.961-4.08l71.66 16.404 2.039-9.098z"/><ellipse cx="1011.378" cy="1664.276" rx="23.249" ry="31.998"/><path fill="#FFF" d="M1013.129 1654.738c0 6.369-3.755 11.536-8.383 11.536-4.631 0-8.383-5.167-8.383-11.536 0-6.375 3.752-11.54 8.383-11.54 4.628 0 8.383 5.165 8.383 11.54"/><ellipse cx="1111.589" cy="1664.276" rx="23.249" ry="31.998"/><path fill="#FFF" d="M1113.34 1654.738c0 6.369-3.755 11.536-8.383 11.536-4.631 0-8.383-5.167-8.383-11.536 0-6.375 3.752-11.54 8.383-11.54 4.628 0 8.383 5.165 8.383 11.54"/><path d="M1061.484 1799.002c20.879 0 37.807-16.18 37.807-36.142h-75.613c0 19.962 16.926 36.142 37.806 36.142m-420.129 93.134c0 8.662-7.021 15.685-15.686 15.685h-389.38c-8.664 0-15.686-7.022-15.686-15.685v-389.382c0-8.662 7.021-15.686 15.686-15.686H625.67c8.664 0 15.686 7.023 15.686 15.686z"/><path fill="#FFF" d="M569.508 1682.76q-1.51.002-2.98.153c-10.43-49.48-47.266-89.23-95.077-103.813-.516-.922-1.054-1.834-1.589-3.83-2.725-11.934-10.685-21.883-21.299-27.854-11.277-5.309-25.207-2.654-33.168 7.295-5.971 7.298-6.633 16.584-1.327 24.547 5.308 6.633 16.585 9.286 21.893 1.324 3.316-4.644 0-11.938-5.97-11.938-3.318 0-4.645 3.316-5.971 5.308-2.654 3.314-5.309-2.656-5.309-5.308 0-3.319.664-7.298 3.318-9.951 7.961-8.624 21.227-6.633 28.523 1.989 9.951 12.605 2.654 29.854-11.276 35.822-15.257 5.971-31.179-3.315-39.546-15.355-1.996-3.025-3.257-3.218-4.441-2.92-11.832 2.98-23.42 7.405-34.227 13.777a139 139 0 0 0-28.035 21.665c-18.618 18.616-31.954 42.51-37.59 69.242a29 29 0 0 0-2.986-.153c-15.938 0-28.86 12.926-28.86 28.863 0 15.938 12.923 28.863 28.86 28.863q1.514-.002 2.986-.153c13.223 62.729 68.881 109.819 135.543 109.819s122.32-47.091 135.541-109.819a29 29 0 0 0 2.986.153c15.939 0 28.859-12.925 28.859-28.863.001-15.937-12.919-28.863-28.858-28.863"/><path d="M449.078 1711.918c-.948-6.347-5.07-11.646-10.712-14.235l-3.097-72.083h-9.387l-3.096 72.083a18.8 18.8 0 0 0-5.639 3.976l-14.695-4.723-5.238 19.085 15.283 3.499a18.76 18.76 0 0 0 8.859 11.467l-.675 15.708h19.79l-.674-15.709a18.8 18.8 0 0 0 4.961-4.08l71.66 16.404 2.039-9.098z"/><ellipse cx="380.875" cy="1664.276" rx="23.249" ry="31.998"/><path fill="#FFF" d="M382.625 1654.738c0 6.369-3.755 11.536-8.383 11.536-4.631 0-8.383-5.167-8.383-11.536 0-6.375 3.752-11.54 8.383-11.54 4.628 0 8.383 5.165 8.383 11.54"/><ellipse cx="481.085" cy="1664.276" rx="23.249" ry="31.998"/><path fill="#FFF" d="M482.836 1654.738c0 6.369-3.755 11.536-8.383 11.536-4.631 0-8.383-5.167-8.383-11.536 0-6.375 3.752-11.54 8.383-11.54 4.628 0 8.383 5.165 8.383 11.54"/><path d="M430.98 1799.002c20.879 0 37.807-16.18 37.807-36.142h-75.613c0 19.962 16.926 36.142 37.806 36.142"/><path fill="#FFF" d="M208.001 2719.221q-13.923 0-23.915-7.8-8.314-7.22-8.314-17.147 0-12.439-.193-35.969.708-7.412 2.062-11.218 3.417-8.12 10.83-11.667 7.349-3.415 18.179-3.416 14.955.001 24.431 3.416v15.922h-.193q-7.414-3.737-19.66-3.738h-2.063q-10.767 0-13.536 5.607-.711 1.678-1.033 4.062l.129.321v15.278l18.76-.387q22.239.387 27.267 12.313a22.8 22.8 0 0 1 1.677 8.639v1.998q-.001 14.567-15.793 20.885-7.42 2.9-18.635 2.901m21.982-83.93q15.794 6.382 15.794 20.886v1.998q0 4.513-1.677 8.703-5.029 11.86-27.268 12.247l-18.758-.387-18.309-.064q-.645-8.83-.645-21.337 0-9.862 8.316-17.147 9.992-7.798 23.916-7.799 11.219 0 18.631 2.9m-35.39 50.988v6.318q0 6.254 7.479 8.638 3.287.84 6.254.839H210q9.604 0 12.893-5.223a8.4 8.4 0 0 0 .71-3.415q0-7.157-12.57-7.157zm19.791-20.948q12.57 0 12.57-7.156 0-1.804-.709-3.352-3.288-5.285-12.893-5.286h-1.676q-2.967 0-6.254.838-7.477 2.387-7.477 8.702v6.254zm69.297-13.15q19.981 0 25.85 13.086 1.997 5.736 1.998 10.894v19.854q-.001 13.666-16.052 20.563-6.963 2.321-13.858 2.32-24.11 0-30.233-15.148-1.095-3.544-1.095-6.704v-1.869q0-12.505 11.988-16.824 6.769-1.997 15.6-1.998h16.053q.32.001.321-.322 0-9.54-13.407-9.541h-1.87q-11.025 0-18.241 3.481v-14.697q8.505-3.096 22.946-3.095m-16.116 43.511q0 6.188 10.766 7.477h3.287q9.345.001 12.313-6.124a10.4 10.4 0 0 0 .321-2.643v-5.736h-15.148q-8.574.001-10.7 3.545-.84 1.483-.839 3.481m68.587-41.255q6.382-4.061 14.632-4.062h.646q10.764 0 19.467 4.834 15.406 10.187 15.406 29.267 0 11.733-5.802 20.435-9.928 13.987-29.265 13.987-13.153 0-21.982-6.252-13.216-10.056-13.215-27.203v-58.982h20.112zm30.234 23.915q-4-11.86-15.473-11.861-2.898.001-6.769 1.418-9.154 4.966-9.153 16.244v.968q0 3.545 1.29 7.542 4.577 9.992 13.987 9.991h1.291q3.932 0 7.541-1.934 8.057-5.222 8.058-16.244 0-1.998-.772-6.124m37.387-25.333h1.288l14.247 43.318 18.242-43.318h19.339l-39.064 91.342-17.275-7.735 10.829-26.494-7.67-3.479-18.243-53.763q17.404.13 18.307.129m77.741 1.418q6.381-4.061 14.634-4.062h.644q10.764 0 19.468 4.834 15.405 10.187 15.406 29.267 0 11.733-5.802 20.435-9.927 13.987-29.266 13.987-13.151 0-21.981-6.252-13.216-10.056-13.215-27.203v-58.982h20.112zm30.233 23.915q-4-11.86-15.471-11.861-2.902.001-6.77 1.418-9.154 4.966-9.154 16.244v.968q0 3.545 1.29 7.542 4.576 9.992 13.987 9.991h1.29q3.93 0 7.542-1.934 8.058-5.222 8.058-16.244.001-1.998-.772-6.124m42.737-25.333h1.29l-.129 32.037q0 5.157 3.416 11.087 4.963 6.254 12.441 6.254h1.289q9.606-.001 14.246-10.121 1.289-4.124 1.289-7.734v-31.522h19.275v31.908q-.001 17.405-13.41 27.589-9.026 6.382-22.367 6.382-19.663.001-29.781-14.245-5.866-8.831-5.866-20.758v-31.006c11.644.087 17.749.129 18.307.129m107.781-26.559h20.111v58.982q0 17.148-13.215 27.203-8.831 6.252-21.979 6.252-19.339 0-29.267-13.987-5.8-8.702-5.801-20.435-.002-19.08 15.406-29.267 8.701-4.834 19.468-4.834h.644q8.25 0 14.633 4.062zm-31.007 58.016q0 11.023 8.06 16.244 3.607 1.935 7.542 1.934h1.288q9.412.001 13.988-9.991 1.29-3.997 1.29-7.542v-.968q-.001-11.28-9.154-16.244-3.868-1.417-6.768-1.418-11.476.001-15.472 11.861-.773 4.126-.774 6.124m105.783-58.016h20.113v58.982q-.001 17.148-13.215 27.203c-5.89 4.168-13.214 6.252-21.982 6.252q-19.34 0-29.267-13.987-5.8-8.702-5.801-20.435-.002-19.08 15.407-29.267 8.7-4.834 19.467-4.834h.644q8.253 0 14.634 4.062zm-31.007 58.016q-.002 11.023 8.059 16.244 3.608 1.935 7.542 1.934h1.289q9.41.001 13.988-9.991 1.289-3.997 1.289-7.542v-.968q-.002-11.28-9.153-16.244-3.868-1.417-6.769-1.418-11.475.001-15.471 11.861-.773 4.126-.774 6.124m73.94-31.457h1.289l14.248 43.318 18.242-43.318h19.337l-39.064 91.342-17.275-7.735 10.831-26.494-7.672-3.479-18.242-53.763q17.4.13 18.306.129M642.862 2404.31q-1.51.001-2.98.154c-10.43-49.48-47.266-89.23-95.076-103.813-.516-.923-1.055-1.835-1.59-3.831-2.725-11.934-10.684-21.883-21.299-27.854-11.277-5.308-25.207-2.653-33.168 7.295-5.971 7.299-6.633 16.585-1.326 24.547 5.307 6.633 16.584 9.287 21.893 1.324 3.316-4.643 0-11.938-5.971-11.938-3.318 0-4.645 3.316-5.971 5.307-2.654 3.314-5.309-2.655-5.309-5.307 0-3.319.664-7.298 3.318-9.951 7.961-8.625 21.227-6.633 28.523 1.988 9.951 12.605 2.654 29.854-11.275 35.822-15.258 5.971-31.18-3.314-39.547-15.355-1.996-3.025-3.256-3.217-4.441-2.92-11.832 2.98-23.42 7.406-34.227 13.777a139 139 0 0 0-28.035 21.666c-18.617 18.615-31.953 42.51-37.59 69.242a29 29 0 0 0-2.986-.154c-15.938 0-28.859 12.926-28.859 28.863 0 15.939 12.922 28.863 28.859 28.863q1.515-.002 2.986-.152c13.223 62.729 68.881 109.818 135.543 109.818s122.32-47.09 135.541-109.818q1.474.151 2.986.152c15.939 0 28.859-12.924 28.859-28.863.002-15.937-12.918-28.862-28.858-28.862m-88.422-50.485c12.84 0 23.248 14.33 23.248 32.002 0 17.67-10.408 31.998-23.248 31.998s-23.248-14.328-23.248-31.998c0-17.672 10.409-32.002 23.248-32.002m-123.459 32.002c0-17.672 10.408-32.002 23.248-32.002s23.248 14.33 23.248 32.002c0 17.67-10.408 31.998-23.248 31.998s-23.248-14.328-23.248-31.998m73.354 134.725c-20.881 0-37.807-16.18-37.807-36.141h75.613c.001 19.961-16.927 36.141-37.806 36.141m85.439-55.692-71.66-16.404a18.9 18.9 0 0 1-4.961 4.08l.674 15.709h-19.789l.674-15.709a18.77 18.77 0 0 1-8.859-11.467l-15.283-3.498 5.238-19.086 14.695 4.723a18.8 18.8 0 0 1 5.639-3.975l3.096-72.084h9.387l3.098 72.084c5.641 2.588 9.764 7.889 10.711 14.234l69.381 22.295zm787.713 23.253q-22.076 0-37.918-12.367-13.183-11.446-13.183-27.187 0-19.722-.307-57.028 1.122-11.753 3.269-17.785 5.417-12.875 17.17-18.498 11.653-5.415 28.823-5.416 23.71.001 38.735 5.416v25.243h-.307q-11.757-5.925-31.172-5.926h-3.271q-17.07 0-21.462 8.891-1.126 2.66-1.637 6.438l.204.511v24.223l29.742-.613q35.262.614 43.231 19.521 2.657 6.541 2.657 13.696v3.168q-.001 23.096-25.039 33.113-11.75 4.6-29.535 4.6m34.851-133.07q25.041 10.118 25.042 33.115v3.169q-.002 7.153-2.658 13.797-7.973 18.804-43.233 19.418l-29.739-.613-29.027-.102c-.682-9.336-1.021-20.609-1.021-33.83q0-15.636 13.185-27.187 15.841-12.363 37.917-12.365 17.78 0 29.534 4.598m-56.109 80.843v10.017q0 9.915 11.856 13.695 5.212 1.33 9.914 1.33h2.656q15.228 0 20.441-8.28a13.3 13.3 0 0 0 1.125-5.415q0-11.346-19.93-11.347zm31.375-33.215q19.93 0 19.931-11.344c0-1.907-.374-3.682-1.124-5.315q-5.214-8.38-20.44-8.38h-2.657q-4.702 0-9.914 1.327c-7.903 2.524-11.855 7.12-11.855 13.798v9.914zm109.871-20.85q31.682 0 40.983 20.747 3.168 9.096 3.169 17.272v31.479q0 21.67-25.45 32.603-11.037 3.68-21.973 3.679-38.225 0-47.934-24.018-1.736-5.619-1.736-10.629v-2.965q0-19.825 19.008-26.673 10.73-3.168 24.733-3.169h25.45q.509.002.511-.511-.002-15.125-21.258-15.127h-2.965c-11.65 0-21.294 1.84-28.923 5.52v-23.303q13.49-4.905 36.385-4.905m-25.55 68.988q-.001 9.813 17.068 11.855h5.211q14.819.002 19.521-9.71.509-1.938.511-4.19v-9.095h-24.019q-13.594.001-16.966 5.62-1.328 2.353-1.326 5.52m108.743-65.411q10.118-6.439 23.199-6.439h1.023q17.067 0 30.865 7.665 24.426 16.15 24.427 46.401 0 18.601-9.199 32.398c-10.492 14.785-25.961 22.177-46.399 22.177-13.899 0-25.519-3.305-34.852-9.914q-20.954-15.942-20.953-43.129v-93.516h31.889zm47.935 37.918q-6.34-18.805-24.531-18.807-4.597.001-10.731 2.249-14.514 7.872-14.513 25.754v1.534q0 5.621 2.045 11.957 7.255 15.844 22.178 15.843h2.045q6.234 0 11.957-3.066 12.775-8.28 12.775-25.755-.001-3.167-1.225-9.709m59.277-40.167h2.043l22.588 68.681 28.923-68.681h30.661l-61.936 144.822-27.391-12.265 17.17-42.006-12.16-5.518-28.926-85.238q27.597.207 29.028.205m123.256 2.249q10.117-6.438 23.201-6.439h1.021q17.067 0 30.865 7.665 24.426 16.15 24.427 46.401 0 18.601-9.198 32.398-15.739 22.177-46.4 22.177-20.85 0-34.852-9.914-20.952-15.942-20.951-43.129v-93.516h31.887zm47.934 37.918q-6.341-18.805-24.529-18.807-4.6.001-10.731 2.249-14.513 7.872-14.514 25.754v1.534q0 5.621 2.045 11.957 7.255 15.844 22.177 15.843h2.045q6.231 0 11.957-3.066 12.777-8.28 12.776-25.755 0-3.167-1.226-9.709m67.76-40.167h2.045l-.204 50.796q0 8.176 5.415 17.578 7.87 9.914 19.726 9.914h2.045q15.229-.001 22.586-16.046 2.045-6.537 2.045-12.264v-49.979h30.56v50.592q-.001 27.595-21.26 43.741-14.309 10.119-35.464 10.118-31.175.002-47.217-22.586c-6.201-9.335-9.302-20.302-9.302-32.91v-49.159q27.695.207 29.025.205m170.884-42.107h31.887v93.516q0 27.187-20.951 43.129-14.002 9.914-34.85 9.914-30.662 0-46.401-22.177-9.197-13.797-9.197-32.398-.002-30.251 24.427-46.401 13.795-7.664 30.865-7.665h1.021q13.08 0 23.199 6.439zm-49.16 91.983q0 17.475 12.776 25.755 5.722 3.067 11.959 3.066h2.043q14.923.002 22.177-15.843 2.046-6.336 2.045-11.957v-1.534q0-17.883-14.512-25.754-6.133-2.248-10.731-2.249-18.193.002-24.528 18.807-1.228 6.542-1.229 9.709m167.717-91.983h31.89v93.516c0 18.126-6.988 32.5-20.952 43.129-9.337 6.609-20.952 9.914-34.854 9.914-20.44 0-35.911-7.392-46.401-22.177q-9.197-13.797-9.197-32.398c0-20.168 8.137-35.634 24.427-46.401q13.793-7.664 30.865-7.665h1.021q13.084 0 23.201 6.439zm-49.162 91.983q-.002 17.475 12.776 25.755 5.722 3.067 11.959 3.066h2.043q14.921.002 22.18-15.843 2.042-6.336 2.043-11.957v-1.534q-.002-17.883-14.513-25.754-6.132-2.248-10.731-2.249-18.193.002-24.529 18.807-1.226 6.542-1.228 9.709m117.231-49.876h2.043l22.59 68.681 28.923-68.681h30.659l-61.936 144.822-27.391-12.265 17.173-42.006-12.164-5.518-28.923-85.238q27.59.207 29.026.205m-1057.47 21.161q-1.51.001-2.98.154c-10.43-49.48-47.266-89.23-95.077-103.813-.516-.923-1.054-1.835-1.589-3.831-2.725-11.934-10.685-21.883-21.299-27.854-11.277-5.308-25.207-2.653-33.168 7.295-5.971 7.299-6.633 16.585-1.327 24.547 5.308 6.633 16.585 9.287 21.893 1.324 3.316-4.643 0-11.938-5.97-11.938-3.318 0-4.645 3.316-5.971 5.307-2.654 3.314-5.309-2.655-5.309-5.307 0-3.319.664-7.298 3.318-9.951 7.961-8.625 21.227-6.633 28.523 1.988 9.951 12.605 2.654 29.854-11.276 35.822-15.257 5.971-31.179-3.314-39.546-15.355-1.996-3.025-3.257-3.217-4.441-2.92-11.832 2.98-23.42 7.406-34.227 13.777a139 139 0 0 0-28.035 21.666c-18.618 18.615-31.954 42.51-37.59 69.242a29 29 0 0 0-2.986-.154c-15.938 0-28.86 12.926-28.86 28.863 0 15.939 12.923 28.863 28.86 28.863q1.514-.002 2.986-.152c13.223 62.729 68.881 109.818 135.543 109.818s122.32-47.09 135.541-109.818q1.474.151 2.986.152c15.939 0 28.859-12.924 28.859-28.863.001-15.937-12.918-28.862-28.858-28.862m-88.422-50.485c12.839 0 23.248 14.33 23.248 32.002 0 17.67-10.409 31.998-23.248 31.998-12.841 0-23.249-14.328-23.249-31.998 0-17.672 10.408-32.002 23.249-32.002m-123.46 32.002c0-17.672 10.408-32.002 23.249-32.002 12.839 0 23.248 14.33 23.248 32.002 0 17.67-10.409 31.998-23.248 31.998-12.841 0-23.249-14.328-23.249-31.998m73.355 134.725c-20.881 0-37.807-16.18-37.807-36.141h75.613c0 19.961-16.927 36.141-37.806 36.141m85.439-55.692-71.66-16.404a18.9 18.9 0 0 1-4.961 4.08l.674 15.709h-19.79l.675-15.709a18.76 18.76 0 0 1-8.859-11.467l-15.283-3.498 5.238-19.086 14.695 4.723a18.8 18.8 0 0 1 5.639-3.975l3.096-72.084h9.387l3.097 72.084c5.642 2.588 9.764 7.889 10.712 14.234l69.381 22.295z"/><path fill="#37ABE9" d="M0 2845.83h2598.534v726.95H0z"/><path fill="#FFF" d="M208.001 3446.171q-13.923 0-23.915-7.8-8.314-7.22-8.314-17.147 0-12.439-.193-35.969.708-7.412 2.062-11.218 3.417-8.12 10.83-11.667 7.349-3.415 18.179-3.416 14.955.001 24.431 3.416v15.922h-.193q-7.414-3.737-19.66-3.738h-2.063q-10.767 0-13.536 5.607-.711 1.678-1.033 4.062l.129.321v15.278l18.76-.387q22.239.387 27.267 12.313a22.8 22.8 0 0 1 1.677 8.639v1.998q-.001 14.567-15.793 20.885-7.42 2.9-18.635 2.901m21.982-83.93q15.794 6.382 15.794 20.886v1.998q0 4.513-1.677 8.703-5.029 11.86-27.268 12.247l-18.758-.387-18.309-.064q-.645-8.83-.645-21.337 0-9.862 8.316-17.147 9.992-7.798 23.916-7.799 11.219 0 18.631 2.9m-35.39 50.988v6.318q0 6.254 7.479 8.638 3.287.84 6.254.839H210q9.604 0 12.893-5.223a8.4 8.4 0 0 0 .71-3.415q0-7.157-12.57-7.157zm19.791-20.948q12.57 0 12.57-7.156 0-1.804-.709-3.352-3.288-5.285-12.893-5.286h-1.676q-2.967 0-6.254.838-7.477 2.387-7.477 8.702v6.254zm69.297-13.15q19.981 0 25.85 13.086 1.997 5.736 1.998 10.894v19.854q-.001 13.666-16.052 20.563-6.963 2.321-13.858 2.32-24.11 0-30.233-15.148-1.095-3.544-1.095-6.704v-1.869q0-12.505 11.988-16.824 6.769-1.997 15.6-1.998h16.053q.32.001.321-.322 0-9.54-13.407-9.541h-1.87q-11.025 0-18.241 3.481v-14.697q8.505-3.096 22.946-3.095m-16.116 43.512q0 6.188 10.766 7.477h3.287q9.345.001 12.313-6.124a10.4 10.4 0 0 0 .321-2.643v-5.736h-15.148q-8.574.001-10.7 3.545-.84 1.483-.839 3.481m68.587-41.256q6.382-4.061 14.632-4.062h.646q10.764 0 19.467 4.834 15.406 10.187 15.406 29.267 0 11.733-5.802 20.435-9.928 13.987-29.265 13.987-13.153 0-21.982-6.252-13.216-10.056-13.215-27.203v-58.982h20.112zm30.234 23.915q-4-11.86-15.473-11.861-2.898.001-6.769 1.418-9.154 4.966-9.153 16.244v.968q0 3.545 1.29 7.542 4.577 9.992 13.987 9.991h1.291q3.932 0 7.541-1.934 8.057-5.222 8.058-16.244 0-1.998-.772-6.124m37.387-25.333h1.288l14.247 43.318 18.242-43.318h19.339l-39.064 91.342-17.275-7.735 10.829-26.494-7.67-3.479-18.243-53.763q17.404.13 18.307.129m77.741 1.418q6.381-4.061 14.634-4.062h.644q10.764 0 19.468 4.834 15.405 10.187 15.406 29.267 0 11.733-5.802 20.435-9.927 13.987-29.266 13.987-13.151 0-21.981-6.252-13.216-10.056-13.215-27.203v-58.982h20.112zm30.233 23.915q-4-11.86-15.471-11.861-2.902.001-6.77 1.418-9.154 4.966-9.154 16.244v.968q0 3.545 1.29 7.542 4.576 9.992 13.987 9.991h1.29q3.93 0 7.542-1.934 8.058-5.222 8.058-16.244.001-1.998-.772-6.124m42.737-25.333h1.29l-.129 32.037q0 5.157 3.416 11.087 4.963 6.254 12.441 6.254h1.289q9.606-.001 14.246-10.121 1.289-4.123 1.289-7.734v-31.522h19.275v31.908q-.001 17.405-13.41 27.589-9.026 6.382-22.367 6.382-19.663.001-29.781-14.245-5.866-8.831-5.866-20.758v-31.006c11.644.087 17.749.129 18.307.129m107.781-26.559h20.111v58.982q0 17.148-13.215 27.203-8.831 6.252-21.979 6.252-19.339 0-29.267-13.987-5.8-8.702-5.801-20.435-.002-19.08 15.406-29.267 8.701-4.834 19.468-4.834h.644q8.25 0 14.633 4.062zm-31.007 58.016q0 11.023 8.06 16.244 3.607 1.935 7.542 1.934h1.288q9.412.001 13.988-9.991 1.29-3.997 1.29-7.542v-.968q-.001-11.28-9.154-16.244-3.868-1.417-6.768-1.418-11.476.001-15.472 11.861-.773 4.126-.774 6.124m105.783-58.016h20.113v58.982q-.001 17.148-13.215 27.203c-5.89 4.168-13.214 6.252-21.982 6.252q-19.34 0-29.267-13.987-5.8-8.702-5.801-20.435-.002-19.08 15.407-29.267 8.7-4.834 19.467-4.834h.644q8.253 0 14.634 4.062zm-31.007 58.016q-.002 11.023 8.059 16.244 3.608 1.935 7.542 1.934h1.289q9.41.001 13.988-9.991 1.289-3.997 1.289-7.542v-.968q-.002-11.28-9.153-16.244-3.868-1.417-6.769-1.418-11.475.001-15.471 11.861-.773 4.126-.774 6.124m73.94-31.457h1.289l14.248 43.318 18.242-43.318h19.337l-39.064 91.342-17.275-7.735 10.831-26.494-7.672-3.479-18.242-53.763q17.4.13 18.306.129m597.513-164.906q-22.076 0-37.918-12.367-13.183-11.446-13.183-27.187 0-19.722-.307-57.028 1.122-11.753 3.269-17.785 5.417-12.875 17.17-18.498 11.653-5.415 28.823-5.416 23.71.001 38.735 5.416v25.243h-.307q-11.757-5.925-31.172-5.926h-3.271q-17.07 0-21.462 8.891-1.126 2.66-1.637 6.438l.204.511v24.223l29.742-.613q35.262.614 43.231 19.521 2.657 6.541 2.657 13.696v3.168q-.001 23.097-25.039 33.113-11.75 4.6-29.535 4.6m34.851-133.07q25.041 10.118 25.042 33.115v3.169q-.002 7.153-2.658 13.797-7.973 18.804-43.233 19.418l-29.739-.613-29.027-.102c-.682-9.336-1.021-20.609-1.021-33.83q0-15.636 13.185-27.187 15.841-12.363 37.917-12.365 17.78.001 29.534 4.598m-56.109 80.843v10.017q0 9.915 11.856 13.695c3.476.887 6.778 1.33 9.914 1.33h2.656q15.228 0 20.441-8.28a13.3 13.3 0 0 0 1.125-5.415q0-11.346-19.93-11.347zm31.375-33.215q19.93 0 19.931-11.344c0-1.907-.374-3.682-1.124-5.315q-5.214-8.38-20.44-8.38h-2.657q-4.702 0-9.914 1.327c-7.903 2.524-11.855 7.12-11.855 13.798v9.914zm109.871-20.85q31.682 0 40.983 20.747 3.168 9.096 3.169 17.272v31.479q0 21.67-25.45 32.603-11.037 3.68-21.973 3.679-38.225 0-47.934-24.018-1.736-5.619-1.736-10.629v-2.965q0-19.825 19.008-26.673 10.73-3.168 24.733-3.169h25.45q.509.002.511-.511-.001-15.125-21.258-15.127h-2.965c-11.65 0-21.294 1.84-28.923 5.52v-23.303q13.49-4.905 36.385-4.905m-25.55 68.988q-.001 9.813 17.068 11.855h5.211q14.819.002 19.521-9.71.509-1.938.511-4.19v-9.095h-24.019q-13.594.001-16.966 5.62-1.328 2.353-1.326 5.52m108.743-65.41q10.118-6.438 23.199-6.439h1.023q17.067 0 30.865 7.665 24.426 16.15 24.427 46.401 0 18.601-9.199 32.398c-10.492 14.785-25.961 22.177-46.399 22.177q-20.85 0-34.852-9.914-20.954-15.942-20.953-43.129v-93.516h31.889zm47.935 37.918q-6.34-18.805-24.531-18.807-4.597.001-10.731 2.249-14.514 7.872-14.513 25.754v1.534q0 5.622 2.045 11.957 7.255 15.844 22.178 15.843h2.045q6.234 0 11.957-3.066 12.775-8.28 12.775-25.755-.001-3.168-1.225-9.709m59.277-40.167h2.043l22.588 68.681 28.923-68.681h30.661l-61.936 144.822-27.391-12.265 17.17-42.006-12.16-5.518-28.926-85.238q27.597.206 29.028.205m123.256 2.249q10.117-6.439 23.201-6.439h1.021q17.067 0 30.865 7.665 24.426 16.15 24.427 46.401 0 18.601-9.198 32.398-15.739 22.177-46.4 22.177-20.85 0-34.852-9.914-20.952-15.942-20.951-43.129v-93.516h31.887zm47.934 37.918q-6.341-18.805-24.529-18.807-4.6.001-10.731 2.249-14.513 7.872-14.514 25.754v1.534q0 5.622 2.045 11.957 7.255 15.844 22.177 15.843h2.045q6.231 0 11.957-3.066 12.777-8.28 12.776-25.755 0-3.168-1.226-9.709m67.76-40.167h2.045l-.204 50.796q0 8.176 5.415 17.578 7.87 9.914 19.726 9.914h2.045q15.229-.001 22.586-16.046 2.045-6.537 2.045-12.264V3110.1h30.56v50.592q-.001 27.595-21.26 43.741-14.309 10.119-35.464 10.118-31.175.002-47.217-22.586c-6.201-9.335-9.302-20.302-9.302-32.91v-49.159q27.695.205 29.025.204m170.884-42.108h31.887v93.516q0 27.187-20.951 43.129-14.002 9.914-34.85 9.914-30.662 0-46.401-22.177-9.197-13.797-9.197-32.398-.002-30.251 24.427-46.401 13.795-7.664 30.865-7.665h1.021q13.08 0 23.199 6.439zm-49.16 91.984q0 17.475 12.776 25.755 5.722 3.067 11.959 3.066h2.043q14.923.001 22.177-15.843 2.046-6.335 2.045-11.957v-1.534q0-17.883-14.512-25.754-6.133-2.248-10.731-2.249-18.193.002-24.528 18.807-1.228 6.54-1.229 9.709m167.717-91.984h31.89v93.516c0 18.126-6.988 32.5-20.952 43.129-9.337 6.609-20.952 9.914-34.854 9.914-20.44 0-35.911-7.392-46.401-22.177q-9.197-13.797-9.197-32.398c0-20.168 8.137-35.634 24.427-46.401q13.793-7.664 30.865-7.665h1.021q13.084 0 23.201 6.439zm-49.162 91.984q-.002 17.475 12.776 25.755 5.722 3.067 11.959 3.066h2.043q14.921.001 22.18-15.843 2.042-6.335 2.043-11.957v-1.534q-.002-17.883-14.513-25.754-6.132-2.248-10.731-2.249-18.193.002-24.529 18.807c-.816 4.359-1.228 7.598-1.228 9.709m117.231-49.876h2.043l22.59 68.681 28.923-68.681h30.659l-61.936 144.822-27.391-12.265 17.173-42.006-12.164-5.518-28.923-85.238q27.59.206 29.026.205M714.71 3304.587c0 8.662-7.021 15.685-15.686 15.685h-389.38c-8.664 0-15.686-7.022-15.686-15.685v-389.382c0-8.662 7.021-15.686 15.686-15.686h389.381c8.664 0 15.686 7.023 15.686 15.686z"/><path fill="#37ABE9" d="M642.862 3095.211q-1.51.002-2.98.153c-10.43-49.48-47.266-89.23-95.077-103.813-.516-.922-1.054-1.834-1.589-3.83-2.725-11.934-10.685-21.883-21.299-27.854-11.277-5.309-25.207-2.654-33.168 7.295-5.971 7.298-6.633 16.584-1.327 24.547 5.308 6.633 16.585 9.286 21.893 1.324 3.316-4.644 0-11.938-5.97-11.938-3.318 0-4.645 3.316-5.971 5.308-2.654 3.314-5.309-2.656-5.309-5.308 0-3.319.664-7.298 3.318-9.951 7.961-8.624 21.227-6.633 28.523 1.989 9.951 12.605 2.654 29.854-11.276 35.822-15.257 5.971-31.179-3.315-39.546-15.355-1.996-3.025-3.257-3.218-4.441-2.92-11.832 2.98-23.42 7.405-34.227 13.777a139 139 0 0 0-28.035 21.665c-18.618 18.616-31.954 42.51-37.59 69.242a29 29 0 0 0-2.986-.153c-15.938 0-28.86 12.926-28.86 28.863 0 15.938 12.923 28.863 28.86 28.863q1.514-.001 2.986-.153c13.223 62.729 68.881 109.819 135.543 109.819s122.32-47.091 135.541-109.819a29 29 0 0 0 2.986.153c15.939 0 28.859-12.925 28.859-28.863.002-15.937-12.918-28.863-28.858-28.863"/><path fill="#FFF" d="M522.433 3124.369c-.948-6.347-5.07-11.646-10.712-14.235l-3.097-72.083h-9.387l-3.096 72.083a18.8 18.8 0 0 0-5.639 3.976l-14.695-4.723-5.238 19.085 15.283 3.499a18.76 18.76 0 0 0 8.859 11.467l-.675 15.708h19.79l-.674-15.709a18.8 18.8 0 0 0 4.961-4.08l71.66 16.404 2.039-9.098z"/><ellipse cx="454.229" cy="3076.728" fill="#FFF" rx="23.249" ry="31.998"/><path fill="#37ABE9" d="M455.979 3067.189c0 6.369-3.755 11.536-8.383 11.536-4.631 0-8.383-5.167-8.383-11.536 0-6.375 3.752-11.54 8.383-11.54 4.629 0 8.383 5.165 8.383 11.54"/><ellipse cx="554.44" cy="3076.728" fill="#FFF" rx="23.249" ry="31.998"/><path fill="#37ABE9" d="M556.19 3067.189c0 6.369-3.755 11.536-8.383 11.536-4.631 0-8.383-5.167-8.383-11.536 0-6.375 3.752-11.54 8.383-11.54 4.629 0 8.383 5.165 8.383 11.54"/><path fill="#FFF" d="M455.979 2376.458c0 6.369-3.755 11.536-8.383 11.536-4.631 0-8.383-5.167-8.383-11.536 0-6.375 3.752-11.54 8.383-11.54 4.628 0 8.383 5.165 8.383 11.54m100.211 0c0 6.369-3.755 11.536-8.383 11.536-4.631 0-8.383-5.167-8.383-11.536 0-6.375 3.752-11.54 8.383-11.54 4.628 0 8.383 5.165 8.383 11.54m483.193 0c0 6.369-3.755 11.536-8.383 11.536-4.631 0-8.383-5.167-8.383-11.536 0-6.375 3.752-11.54 8.383-11.54 4.628 0 8.383 5.165 8.383 11.54m100.211 0c0 6.369-3.755 11.536-8.383 11.536-4.631 0-8.383-5.167-8.383-11.536 0-6.375 3.752-11.54 8.383-11.54 4.628 0 8.383 5.165 8.383 11.54m-635.259 834.995c20.879 0 37.807-16.18 37.807-36.142h-75.613c-.001 19.962 16.925 36.142 37.806 36.142m784.375 93.134c0 8.662-7.021 15.685-15.686 15.685h-389.38c-8.664 0-15.686-7.022-15.686-15.685v-389.382c0-8.662 7.021-15.686 15.686-15.686h389.381c8.664 0 15.686 7.023 15.686 15.686z"/><path fill="#37ABE9" d="M1216.862 3095.211q-1.51.002-2.98.153c-10.43-49.48-47.266-89.23-95.077-103.813-.516-.922-1.054-1.834-1.589-3.83-2.725-11.934-10.685-21.883-21.299-27.854-11.277-5.309-25.207-2.654-33.168 7.295-5.971 7.298-6.633 16.584-1.327 24.547 5.308 6.633 16.585 9.286 21.893 1.324 3.316-4.644 0-11.938-5.97-11.938-3.318 0-4.645 3.316-5.971 5.308-2.654 3.314-5.309-2.656-5.309-5.308 0-3.319.664-7.298 3.318-9.951 7.961-8.624 21.227-6.633 28.523 1.989 9.951 12.605 2.654 29.854-11.276 35.822-15.257 5.971-31.179-3.315-39.546-15.355-1.996-3.025-3.257-3.218-4.441-2.92-11.832 2.98-23.42 7.405-34.227 13.777a139 139 0 0 0-28.035 21.665c-18.618 18.616-31.954 42.51-37.59 69.242a29 29 0 0 0-2.986-.153c-15.938 0-28.86 12.926-28.86 28.863 0 15.938 12.923 28.863 28.86 28.863q1.514-.001 2.986-.153c13.223 62.729 68.881 109.819 135.543 109.819s122.32-47.091 135.541-109.819a29 29 0 0 0 2.986.153c15.939 0 28.859-12.925 28.859-28.863.002-15.937-12.918-28.863-28.858-28.863"/><path fill="#FFF" d="M1096.433 3124.369c-.948-6.347-5.07-11.646-10.712-14.235l-3.097-72.083h-9.387l-3.096 72.083a18.8 18.8 0 0 0-5.639 3.976l-14.695-4.723-5.238 19.085 15.283 3.499a18.76 18.76 0 0 0 8.859 11.467l-.675 15.708h19.79l-.674-15.709a18.8 18.8 0 0 0 4.961-4.08l71.66 16.404 2.039-9.098z"/><ellipse cx="1028.229" cy="3076.728" fill="#FFF" rx="23.249" ry="31.998"/><path fill="#37ABE9" d="M1029.979 3067.189c0 6.369-3.755 11.536-8.383 11.536-4.631 0-8.383-5.167-8.383-11.536 0-6.375 3.752-11.54 8.383-11.54 4.629 0 8.383 5.165 8.383 11.54"/><ellipse cx="1128.44" cy="3076.728" fill="#FFF" rx="23.249" ry="31.998"/><path fill="#37ABE9" d="M1130.19 3067.189c0 6.369-3.755 11.536-8.383 11.536-4.631 0-8.383-5.167-8.383-11.536 0-6.375 3.752-11.54 8.383-11.54 4.629 0 8.383 5.165 8.383 11.54"/><path fill="#FFF" d="M1078.335 3211.453c20.879 0 37.807-16.18 37.807-36.142h-75.613c-.001 19.962 16.925 36.142 37.806 36.142"/></svg>