<svg baseProfile="full" viewBox="0 0 25 25" xmlns="http://www.w3.org/2000/svg"><path d="M0 0h24v24H0z" style="fill:none"/><path d="M20.278 18.382A8.9 8.9 0 0 1 12.003 24a8.8 8.8 0 0 1-4.097-.998c1.026-1.544 4.075-5.227 9.858-5.353l.326.733zm-.27-7.168h-2.404v.899c-9.367.496-11.892 7.145-12.372 8.766q-.205-.246-.402-.501c.016-.116 1.18-9.737 11.22-10.547v.567h2.85v-.91c.436.53.81 1.109 1.108 1.726z" style="fill:#fff;stroke:#fff;stroke-width:.1;stroke-linejoin:round"/><path d="M20.901 15.101v.182h-2.889l-.242.734c-7.096-.072-10.36 4.929-11.082 6.219a1 1 0 0 1-.105-.077c1.307-8.105 11.104-8.502 11.104-8.502l.165.49h3.005q.043.474.044.954zm-8.898-8.898a8.86 8.86 0 0 0-5.806 2.155V1.55a1.55 1.55 0 0 0-3.099 0v13.657a8.8 8.8 0 0 0 .668 3.292c.457-2.101 2.762-9.632 12.36-10.051l.282-1.07a8.74 8.74 0 0 0-4.405-1.174z" style="fill:#fff;stroke:#fff;stroke-width:.1;stroke-linejoin:round"/></svg>