<svg xmlns="http://www.w3.org/2000/svg" viewBox="0 0 390 462"><path d="M376.4 12.2c-3.7-3.7-8.1-5.6-13.1-5.6H26.7c-5.1 0-9.4 1.9-13.1 5.6-3.7 3.7-5.6 8-5.6 13.1v224.4c0 16.7 3.3 33.4 9.8 49.8 6.5 16.5 14.6 31.1 24.3 43.8 9.6 12.8 21.1 25.2 34.5 37.2 13.3 12.1 25.7 22.1 37 30.1s23.1 15.5 35.4 22.6c12.3 7.1 21 11.9 26.2 14.5 5.2 2.5 9.3 4.5 12.4 5.8 2.3 1.2 4.9 1.8 7.6 1.8 2.7 0 5.3-.6 7.6-1.8 3.1-1.4 7.3-3.3 12.4-5.8 5.2-2.5 13.9-7.4 26.2-14.5 12.3-7.1 24.1-14.7 35.4-22.6 11.3-8 23.6-18 37-30.1 13.3-12.1 24.8-24.5 34.5-37.2 9.6-12.8 17.7-27.4 24.2-43.8 6.5-16.5 9.8-33.1 9.8-49.8V25.3c-.3-5.1-2.2-9.4-5.9-13.1zM333 251.8C333 333 195 403 195 403V54.6h138v197.2z" fill="#175ddc"/></svg>