<svg viewBox="0 0 500 500" xmlns="http://www.w3.org/2000/svg"><path d="M140.612 16.07c-4.047-5.703-14.759 53.185-32.231 112.991-4.804 16.441 2.026 33.028 4.504 47.412 4.163 7.306 8.299 17.971 11.806 31.263 1.182 4.478 2.212 9.039 3.132 13.603-9.714 24.615-15.197 52.507-15.197 82.07 0 27.233 4.673 53.036 12.997 76.177 15.68 11.845 30.895 29.083 43.39 50.507a203 203 0 0 1 14.526 30.484c20.008 14.582 43.079 22.916 67.65 22.916 23.204 0 45.067-7.425 64.283-20.53 3.981-10.98 8.641-22.345 15.405-32.87 13.388-20.828 29.896-40.84 46.756-52.963 11.681-18.594 13.204-46.368 12.117-73.721-1.129-28.382-5.072-55.263-14.084-79.156.78-5.804 1.749-11.61 2.952-17.318 3.026-14.378 6.919-25.781 11.003-33.259 1.612-14.066 7.062-30.313 1.89-46.036-20.639-62.742-18.017-9.606-24.026-4.578-7.597 6.359-47.769-56.009-46.187 5.999a356 356 0 0 0 1.061 19.795c-20.802-16.219-45.978 3.808-71.999 3.808-26.675 0-50.755-19.548-71.897-2.569a353 353 0 0 0 .13-22.455c-1.583-62.009-12.812-76.107-37.981-111.57Z" style="fill:#fff;stroke:#000;stroke-miterlimit:4;stroke-dasharray:none;stroke-width:24.1239"/><path d="M248.613 379.622c-9.938 0-32.7 19.471-32.7 32.792 0 3.648 1.125 7.101 3.129 10.2 3.774 1.586 7.436 3.895 10.444 6.766 1.407 1.342 2.569 2.716 3.495 4.082 4.816 1.953 10.37 3.068 16.284 3.068 5.587 0 10.849-.994 15.473-2.75.96-1.469 2.191-2.953 3.708-4.4 3.223-3.076 7.196-5.505 11.255-7.094 1.872-3.012 2.917-6.354 2.917-9.872 0-13.321-23.416-32.792-34.005-32.792Z" style="fill:#000;stroke:#000;stroke-miterlimit:4;stroke-dasharray:none;stroke-width:24.1239"/><path d="M218.799 311.887c35.154-58.053-26.765-136.484-57.653-71.186-13.832 29.241 18.677 97.788 57.653 71.186Z" style="fill:#000;stroke:#000;stroke-linecap:butt;stroke-linejoin:miter;stroke-miterlimit:4;stroke-dasharray:none;stroke-width:24.1239"/><path d="M311.951 273.021c0 5.774-5.285 10.457-11.804 10.457-6.518 0-11.804-4.683-11.804-10.457 0-5.776 5.286-10.458 11.804-10.458s11.804 4.682 11.804 10.458Z" style="fill:#000;stroke:#000;stroke-miterlimit:4;stroke-width:18"/><path d="M229.289 269.988c0 15.501-12.88 28.07-28.771 28.07-15.887 0-28.769-12.569-28.769-28.07 0-15.51 12.882-28.076 28.769-28.076 15.891 0 28.771 12.566 28.771 28.076Z" style="stroke:#000;stroke-miterlimit:4;fill:#fff;stroke-width:24.1239"/></svg>