<svg viewBox="0 0 427.514 507.649" xmlns="http://www.w3.org/2000/svg"><path d="M128.014 292.801c-4.796-2.425-7.436-5.807-8.198-10.503l-.563-3.472h4.63c3.51 0 4.631.374 4.631 1.545 0 .85 1.105 2.65 2.455 4 2.016 2.016 3.445 2.455 8 2.455 6.036 0 9.545-2.198 9.545-5.977 0-2.821-3.291-4.585-13-6.965-4.675-1.147-9.625-2.91-11-3.918-7.74-5.676-6.105-17.804 3.02-22.389 4.958-2.49 15.125-2.344 20.582.298 4.628 2.24 7.124 5.327 8.05 9.955.595 2.98.575 2.996-4.001 2.996-4.056 0-4.775-.34-6.088-2.88-1.762-3.407-3.306-4.12-8.922-4.12-6.614 0-10.36 3.742-7.793 7.787.449.708 5.651 2.552 11.56 4.099 12.984 3.397 15.658 5.495 16.286 12.775.573 6.65-1.889 11.18-7.656 14.089-5.952 3.001-15.844 3.105-21.538.225zm88 0c-4.796-2.425-7.436-5.807-8.198-10.503l-.563-3.472h4.63c3.51 0 4.631.374 4.631 1.545 0 .85 1.105 2.65 2.455 4 2.016 2.016 3.445 2.455 8 2.455 6.036 0 9.545-2.198 9.545-5.977 0-2.821-3.291-4.585-13-6.965-4.675-1.147-9.625-2.91-11-3.918-7.74-5.676-6.105-17.804 3.02-22.389 4.958-2.49 15.125-2.344 20.582.298 4.628 2.24 7.124 5.327 8.05 9.955.595 2.98.575 2.996-4.001 2.996-4.056 0-4.775-.34-6.088-2.88-1.762-3.407-3.306-4.12-8.922-4.12-6.614 0-10.36 3.742-7.793 7.787.449.708 5.651 2.552 11.56 4.099 12.984 3.397 15.658 5.495 16.286 12.775.573 6.65-1.889 11.18-7.656 14.089-5.952 3.001-15.844 3.105-21.538.225zm-38.5-7.854c0-9.753 1.036-7.14-12.641-31.871l-3.457-6.25h11.678l9.887 20.095 9.4-20.095h11.273l-4.236 7.75a1909.446 1909.446 0 0 1-8.07 14.59c-3.646 6.504-3.834 7.274-3.834 15.75v8.91h-10v-8.879zm86-10.621v-19.5h-14v-8h39v8h-15v39h-10zm30-4v-23.5h35v8h-26v10h24v8h-24v13h27v8h-36zm44 0v-23.5h13.923l.957 3.75c.527 2.062 2.424 10.157 4.217 17.988 1.793 7.832 3.39 14.108 3.55 13.949.16-.16 1.88-7.243 3.82-15.74 1.943-8.496 3.765-16.46 4.051-17.697.479-2.07 1.083-2.25 7.501-2.25h6.981v47h-8.955l-.545-36.5-8.034 36-5.034.295-5.034.295-3.949-18.295-3.949-18.295-.545 36.5h-8.955v-23.5zm59.007-43.093c-4.578-1.986-7.714-4.993-10.332-9.907-1.687-3.168-2.135-5.773-2.153-12.521-.027-10.506 2.71-16.79 9.346-21.454 5.694-4.002 16.449-4.806 23.364-1.747 4.892 2.164 9.57 7.447 9.998 11.29.248 2.231-.114 2.457-4.396 2.733-3.953.255-4.764-.008-5.31-1.724-1.725-5.437-10.296-7.798-16.556-4.56-8.778 4.538-9.18 24.333-.603 29.564 5.867 3.577 12.946 2.03 16.689-3.649 3.082-4.675 2.587-5.432-3.554-5.432h-5.5v-8h20v26h-3.5c-3.066 0-3.5-.31-3.5-2.5 0-2.892-1.168-3.208-3.127-.845-3.514 4.237-14.193 5.646-20.866 2.752zm-275.007-22.907v-23.5l12.75.002c10.168 0 13.442.355 16.166 1.75 8.593 4.4 9.474 18.01 1.634 25.248-2.387 2.204-3.767 2.542-11.629 2.85l-8.92.35v16.8h-10v-23.5zm24-3.5c1.226-1.226 2-3.334 2-5.444 0-4.73-2.847-6.556-10.222-6.556h-5.778v14h6c4.667 0 6.445-.445 8-2zm20 3.5v-23.5h14.033c16.02 0 19.788 1.016 22.942 6.19 3.41 5.595 1.919 14.19-2.912 16.776-1.82.974-1.768 1.175 1.01 3.953 2.707 2.707 2.927 3.481 2.927 10.304 0 4.565.477 7.855 1.25 8.632 1.003 1.006.06 1.194-4.75.95l-6-.305-.5-7.833c-.627-9.827-1.548-10.667-11.69-10.667h-7.31v19h-9v-23.5zm27.172-5.155c2.4-2.172 2.324-5.85-.172-8.345-1.666-1.667-3.333-2-10-2h-8v12h8.172c6.2 0 8.612-.4 10-1.655zm19.828 5.155v-23.5h10v47h-10zm19-.053v-23.552l10.258.605 18.242 31.55.275-16.025.275-16.025h8.95v47h-9.865l-19.124-33.5-.01 33.5h-9v-23.553zm58 4.053v-19.5h-14v-8h39v8h-15v39h-10zm29-4v-23.5h10v47h-10zm19-.053v-23.552l10.258.605 18.242 31.55.275-16.025.275-16.025h8.95v47h-9.865l-19.124-33.5-.01 33.5h-9v-23.553zm-207.873-43.561c-7.141-3.62-8.078-6.875-8.105-28.136l-.022-17.75h9.874l.313 18.09c.305 17.627.374 18.14 2.674 20 3.467 2.804 9.599 2.54 12.685-.545 2.42-2.42 2.454-2.705 2.454-20v-17.545h10.122l-.311 18.93c-.34 20.708-.572 21.562-7.19 26.503-4.25 3.174-16.636 3.423-22.494.453zm39.873-22.439v-23.552l10.258.605 18.242 31.55.275-16.025.275-16.025h8.95v47h-9.865l-19.124-33.5-.01 33.5h-9v-23.553zm47 .053v-23.5h10v47h-10zm16.574 20.75c.992-1.513 4.452-6.953 7.689-12.089l5.885-9.339-5.762-9.16a6253.38 6253.38 0 0 0-7.188-11.412c-1.422-2.241-1.403-2.25 4.501-2.25h5.93l3.935 6.997c2.165 3.849 4.19 6.999 4.5 7 .31.001 2.336-3.146 4.5-6.995l3.936-6.998 5.781-.002 5.78-.002-3.69 5.75-7.109 11.075c-1.88 2.928-3.2 5.853-2.935 6.5.267.647 3.643 6.125 7.503 12.175l7.02 11-5.056.307c-2.78.169-5.566.111-6.19-.128-.623-.24-2.89-3.64-5.037-7.557-2.147-3.917-4.227-7.122-4.622-7.122-.396 0-2.65 3.376-5.01 7.5l-4.291 7.5h-11.874z"/><path d="M199.014 507.123c-19.53-1.336-45.952-7.055-63.286-13.7-27.714-10.623-49.95-25.255-70.261-46.235-35.148-36.304-55.802-84.792-63.622-149.362-2.447-20.212-2.463-69.848-.028-88.914C10.77 138.822 37.932 84.444 82.514 47.36 129.75 8.07 199.484-8.155 269.234 3.912c30.845 5.337 59.714 17.238 83.479 34.414 11.208 8.1 29.803 26.932 38.036 38.52 8.39 11.81 18.54 32.079 23.187 46.302 3.103 9.5 7.579 29.124 7.579 33.228 0 1.235-4.652 1.45-31.461 1.45h-31.462l-1.053-4.25c-14.236-57.463-55.225-89.877-119.849-94.778-55.636-4.219-104.274 17.294-134.76 59.605-13.748 19.08-25.521 47.204-30.738 73.422-4.095 20.585-5.145 32.776-5.126 59.5.02 25.901 1.199 41.802 4.561 61.5 11.453 67.086 44.036 110.768 95.389 127.881 28.052 9.348 65.913 11.262 91.981 4.65 50.913-12.916 85.119-51.523 101.031-114.03l3.31-13 63.274-.53-.656 3.765c-12.427 71.378-40.638 119.282-89.56 152.084-35.81 24.008-88.415 36.828-137.38 33.478z"/></svg>