<svg viewBox="0 0 65.131 65.131" xmlns="http://www.w3.org/2000/svg"><path fill="#3e4142" d="M28.214 64.754c-6.944-.806-14.478-4.704-19.429-10.053C.683 45.949-2.038 33.364 1.767 22.238 5.614 10.99 14.684 3.085 26.513.669 33.77-.813 41.326.393 48.135 4.119 55.652 8.23 60.703 14.369 63.426 22.7c5.568 17.038-4.194 35.667-21.417 40.87-4.693 1.417-8.767 1.767-13.795 1.183zm.44-17.263c2.005-2.799 3.765-5.088 3.911-5.088s1.911 2.296 3.923 5.102c2.01 2.806 3.827 5.057 4.034 5.003.901-.234 8.288-5.903 8.164-6.265-.076-.22-1.756-2.643-3.734-5.384s-3.552-5.022-3.497-5.069 2.81-.978 6.121-2.071 6.022-2.143 6.024-2.334c.007-.925-2.91-9.431-3.283-9.574-.236-.09-2.99.689-6.122 1.733-3.132 1.043-5.805 1.897-5.94 1.897s-.289-2.938-.34-6.53l-.092-6.53H27.307l-.092 6.53c-.05 3.592-.208 6.53-.35 6.53s-2.954-.902-6.25-2.004l-5.993-2.005-1.544 4.634c-.85 2.549-1.544 4.866-1.544 5.15 0 .367 1.73 1.087 6.02 2.503 3.312 1.093 6.067 2.025 6.122 2.071s-1.519 2.328-3.497 5.069-3.66 5.164-3.738 5.384c-.142.4 7.483 6.283 8.19 6.318.206.01 2.016-2.271 4.022-5.07z"/><path fill="#fff" d="M23.631 51.953c-2.348-1.542-6.915-5.174-7.053-5.609-.068-.211.45-.993 3.365-5.073 2.269-3.177 3.777-5.358 3.777-5.464 0-.037-1.606-.603-3.57-1.258-6.134-2.044-8.391-2.908-8.528-3.266-.033-.085.095-.686.284-1.335.643-2.212 2.703-8.413 2.795-8.413.051 0 2.683.86 5.848 1.911s5.897 1.922 6.07 1.936c.309.026.314.02.383-.44.098-.659.263-5.004.263-6.96 0-.903.028-2.53.062-3.616l.061-1.975H37.78l.065 4.456c.063 4.314.189 7.823.299 8.35.03.142.112.258.184.258s1.695-.51 3.608-1.13c4.522-1.47 6.254-2.005 7.397-2.283.874-.213.94-.217 1.05-.068.452.612 3.368 9.236 3.18 9.402-.337.297-2.492 1.105-6.982 2.62-5.3 1.788-5.132 1.728-5.132 1.828 0 .138.95 1.522 3.546 5.167 1.317 1.847 2.68 3.79 3.031 4.317l.639.959-.273.285c-1.11 1.164-7.388 5.87-7.83 5.87-.224 0-1.265-1.233-2.929-3.467l-3.023-4.059c-.759-1.019-1.529-2.02-1.711-2.226l-.332-.373-.327.373c-.44.502-2.226 2.867-3.807 5.04-2.166 2.976-3.632 4.805-3.853 4.805-.051 0-.479-.253-.949-.562"/></svg>