<svg viewBox="0 0 120 132" xmlns="http://www.w3.org/2000/svg"><path d="m19.973 30.653-7.515 60.61 80.485 9.097 8.107-61.105" style="fill:none;stroke:#cacd33;stroke-width:5;stroke-linecap:butt;stroke-linejoin:round;stroke-miterlimit:4;stroke-dasharray:none;stroke-opacity:1"/><path d="M7.762 33.459 64.17 8.406l48.536 37.187" style="fill:none;stroke:#cacd33;stroke-width:7;stroke-linecap:butt;stroke-linejoin:round;stroke-miterlimit:4;stroke-dasharray:none;stroke-opacity:1"/><path d="M9.826 34.194 63.96 10.569l46.492 35.206" style="fill:none;stroke:#02b025;stroke-width:4;stroke-linecap:butt;stroke-linejoin:miter;stroke-miterlimit:4;stroke-dasharray:none;stroke-opacity:1"/><path d="m23.433 27.885-7.91 61.302 75.343 8.8 7.712-61.105" style="fill:none;stroke:#02b025;stroke-width:4;stroke-linecap:butt;stroke-linejoin:round;stroke-miterlimit:4;stroke-dasharray:none;stroke-opacity:1"/><path d="m39.852 42.998 11.745-2.727m27.917 7.149-10.807-5.348M37.964 58.52s-1.558 19.005 17.898 20.624c18.875 1.571 19.786-15.521 19.786-15.521" style="fill:none;stroke:#02b025;stroke-width:3.5;stroke-linecap:round;stroke-linejoin:miter;stroke-miterlimit:4;stroke-dasharray:none;stroke-opacity:1"/><g style="font-style:normal;font-weight:400;font-size:40.52380753px;line-height:1.25;font-family:sans-serif;letter-spacing:0;word-spacing:0;fill:#02b025;fill-opacity:1;stroke:none;stroke-width:1.01309514"><path d="M23.14 111.472h-8.489v5.441h7.096q.987 0 1.466.45.493.435.493 1.175t-.493 1.176-1.466.435h-7.096v7.009q0 1.335-.609 1.988-.595.638-1.538.638-.958 0-1.567-.653-.595-.653-.595-1.973V110.79q0-.929.276-1.51.275-.594.856-.855.595-.276 1.509-.276H23.14q1.03 0 1.524.464.508.45.508 1.19 0 .755-.508 1.219-.494.45-1.524.45m9.563-1.074v6.094h9.3v-6.094q0-1.306.581-1.959.595-.653 1.553-.653.972 0 1.567.653.61.639.61 1.959v16.76q0 1.32-.61 1.973t-1.567.653q-.972 0-1.553-.653-.58-.667-.58-1.973v-7.154h-9.301v7.154q0 1.32-.61 1.973t-1.567.653q-.972 0-1.553-.653-.58-.667-.58-1.973v-16.76q0-1.306.566-1.959.58-.653 1.567-.653.972 0 1.567.653.61.639.61 1.959m32.257 1.074h-9.708v5.224h8.938q.987 0 1.466.45.493.435.493 1.16 0 .726-.479 1.19-.479.45-1.48.45h-8.938v6.05h10.041q1.016 0 1.524.48.522.464.522 1.248 0 .754-.522 1.233-.508.464-1.524.464h-11.71q-1.407 0-2.031-.624-.61-.624-.61-2.017v-15.99q0-.929.276-1.51.276-.594.856-.855.595-.276 1.51-.276h11.375q1.03 0 1.524.464.508.45.508 1.19 0 .755-.508 1.219-.493.45-1.524.45" aria-label="FHE" style="letter-spacing:0;fill:#02b025;fill-opacity:1;stroke-width:1.01309514" transform="scale(1.0131 .98707)"/></g><g style="font-style:normal;font-weight:400;font-size:44.07328415px;line-height:1.25;font-family:sans-serif;letter-spacing:0;word-spacing:0;fill:#02b025;fill-opacity:1;stroke:none;stroke-width:1.10183215"><path d="m72.639 137.303-4.232-14.779v15.971c0 .884.054 1.585-.346 2.027-.389.442-.64.663-1.293.663-.631 0-.967-.216-1.367-.647-.4-.442-.441-1.072-.441-1.966v-18.306c0-1.01.104-1.728.63-2.075.526-.358 1.057-.536 1.951-.536h1.452c.874 0 .765.079 1.154.236q.6.237.884.853.284.615.647 2.004l4.025 14.812 4.082-14.774q.363-1.389.647-2.004.286-.615.868-.852c.4-.158.392-.275 1.265-.275h1.452c.895 0 1.336.178 1.862.536.526.347.63 1.026.63 2.036v18.306c0 .884-.041 1.547-.441 1.989-.39.442-.646.663-1.309.663-.62 0-.907-.221-1.306-.663-.4-.442-.378-1.182-.378-2.066v-15.97l-4.155 14.817q-.363 1.436-.6 2.114-.22.663-.836 1.215-.615.553-1.705.553-.82 0-1.388-.363a2.5 2.5 0 0 1-.884-.9 5.5 5.5 0 0 1-.505-1.215z" aria-label="M" style="font-style:normal;font-variant:normal;font-weight:400;font-stretch:normal;font-size:32.32040787px;font-family:&quot;Arial Rounded MT Bold&quot;;-inkscape-font-specification:&quot;Arial Rounded MT Bold, &quot;;fill:#02b025;fill-opacity:1;stroke-width:1.10183215" transform="scale(1.10183 .90758)"/></g></svg>