<svg xmlns="http://www.w3.org/2000/svg" xmlns:xlink="http://www.w3.org/1999/xlink" width="473.292" height="511.768" viewBox="0 0 125.225 135.405"><defs><linearGradient id="b"><stop style="stop-color:#fff;stop-opacity:1" offset="0"/><stop style="stop-color:#fff;stop-opacity:0" offset="1"/></linearGradient><linearGradient id="a"><stop style="stop-color:#fff;stop-opacity:1" offset="0"/><stop style="stop-color:#fff;stop-opacity:0" offset="1"/></linearGradient><linearGradient xlink:href="#b" id="m" gradientUnits="userSpaceOnUse" gradientTransform="matrix(1.2231 0 0 1.72123 -174.64 -522.816)" x1="48.501" y1="196.648" x2="48.234" y2="217.22"/><linearGradient xlink:href="#b" id="k" gradientUnits="userSpaceOnUse" gradientTransform="matrix(.86267 0 0 1.21401 -162.905 -427.771)" x1="48.501" y1="196.648" x2="48.234" y2="217.22"/><linearGradient xlink:href="#b" id="h" gradientUnits="userSpaceOnUse" gradientTransform="matrix(1.41083 0 0 1.98542 -3.3 -267.84)" x1="48.501" y1="196.648" x2="48.234" y2="217.22"/><linearGradient xlink:href="#b" id="d" gradientUnits="userSpaceOnUse" gradientTransform="matrix(1.09685 0 0 1.54356 3.738 -123.139)" x1="48.501" y1="196.648" x2="48.234" y2="217.22"/><linearGradient xlink:href="#b" id="e" gradientUnits="userSpaceOnUse" gradientTransform="matrix(.93325 0 0 1.31333 3.796 -65.04)" x1="48.501" y1="196.648" x2="48.234" y2="217.22"/><radialGradient xlink:href="#b" id="n" cx="116.262" cy="207.331" fx="116.262" fy="207.331" r="17.964" gradientTransform="matrix(.16052 0 0 .16172 -133.601 -196.973)" gradientUnits="userSpaceOnUse"/><radialGradient xlink:href="#b" id="o" cx="116.262" cy="207.331" fx="116.262" fy="207.331" r="17.964" gradientTransform="matrix(.35482 0 0 .35745 52.845 85.748)" gradientUnits="userSpaceOnUse"/><radialGradient xlink:href="#b" id="l" cx="116.262" cy="207.331" fx="116.262" fy="207.331" r="17.964" gradientTransform="matrix(.14816 0 0 .14926 -138.46 -205.272)" gradientUnits="userSpaceOnUse"/><radialGradient xlink:href="#b" id="i" cx="116.262" cy="207.331" fx="116.262" fy="207.331" r="17.964" gradientTransform="matrix(.2423 0 0 .2441 36.677 96.04)" gradientUnits="userSpaceOnUse"/><radialGradient xlink:href="#b" id="p" cx="116.262" cy="207.331" fx="116.262" fy="207.331" r="17.964" gradientTransform="matrix(.1731 0 0 .17439 33.758 163.421)" gradientUnits="userSpaceOnUse"/><radialGradient xlink:href="#b" id="f" cx="116.262" cy="207.331" fx="116.262" fy="207.331" r="17.964" gradientTransform="matrix(.16028 0 0 .16147 30.24 175.663)" gradientUnits="userSpaceOnUse"/><filter style="color-interpolation-filters:sRGB" id="j" x="-.06" width="1.12" y="-.062" height="1.125"><feGaussianBlur stdDeviation="6.243"/></filter><filter style="color-interpolation-filters:sRGB" id="g" x="-.042" width="1.084" y="-.04" height="1.08"><feGaussianBlur stdDeviation="6.547"/></filter><filter style="color-interpolation-filters:sRGB" id="c" x="-.069" width="1.137" y="-.068" height="1.137"><feGaussianBlur stdDeviation="1.911"/></filter></defs><g transform="translate(-22.446 -113.172)"><path d="M59.27 174.818a18.487 18.625 0 0 0-18.488 18.625 18.487 18.625 0 0 0 .39 3.713 24.24 24.42 0 0 0-7.081 12.526 19.14 19.283 0 0 0-5.06 13.027 19.14 19.283 0 0 0 19.142 19.283 19.14 19.283 0 0 0 9.575-2.615 24.24 24.42 0 0 0 9.34-1.914 18.487 18.625 0 0 0 10.355 3.202A18.487 18.625 0 0 0 95.93 222.04a18.487 18.625 0 0 0-16.804-18.54 24.24 24.42 0 0 0-2.468-3.801 18.487 18.625 0 0 0 1.098-6.256 18.487 18.625 0 0 0-18.487-18.625z" style="opacity:1;fill:#000;fill-opacity:.73737368;stroke:none;stroke-width:.54457098;stroke-linecap:round;stroke-linejoin:round;stroke-miterlimit:4;stroke-dasharray:none;stroke-opacity:1;filter:url(#c)"/><ellipse style="opacity:1;fill:#ff02ef;fill-opacity:1;stroke:#000;stroke-width:.54457098;stroke-linecap:round;stroke-linejoin:round;stroke-miterlimit:4;stroke-dasharray:none;stroke-opacity:1" cx="57.946" cy="192.309" rx="18.487" ry="18.625"/><ellipse style="opacity:1;fill:#ff02ef;fill-opacity:1;stroke:#000;stroke-width:.5291667;stroke-linecap:round;stroke-linejoin:round;stroke-miterlimit:4;stroke-dasharray:none;stroke-opacity:1" cx="78.577" cy="221.095" rx="18.487" ry="18.625"/><ellipse style="opacity:1;fill:#ff0802;fill-opacity:1;stroke:#000;stroke-width:.5291667;stroke-linecap:round;stroke-linejoin:round;stroke-miterlimit:4;stroke-dasharray:none;stroke-opacity:1" cx="58.874" cy="214.013" rx="24.24" ry="24.42"/><ellipse style="opacity:1;fill:url(#d);fill-opacity:1;stroke:none;stroke-width:1.30133188;stroke-linecap:round;stroke-linejoin:round;stroke-miterlimit:4;stroke-dasharray:none;stroke-opacity:1" ry="8.87" rx="15.83" cy="201.014" cx="56.799"/><ellipse style="opacity:1;fill:#ff02ef;fill-opacity:1;stroke:#000;stroke-width:.5291667;stroke-linecap:round;stroke-linejoin:round;stroke-miterlimit:4;stroke-dasharray:none;stroke-opacity:1" cx="49.306" cy="221.764" rx="19.141" ry="19.283"/><ellipse style="opacity:1;fill:url(#e);fill-opacity:1;stroke:none;stroke-width:1.10723877;stroke-linecap:round;stroke-linejoin:round;stroke-miterlimit:4;stroke-dasharray:none;stroke-opacity:1" ry="7.547" rx="13.469" cy="210.765" cx="48.943"/><ellipse style="opacity:1;fill:url(#f);fill-opacity:1;stroke:none;stroke-width:.08481421;stroke-linecap:round;stroke-linejoin:round;stroke-miterlimit:4;stroke-dasharray:none;stroke-opacity:1" cx="48.875" cy="209.141" rx="2.879" ry="2.901"/><path transform="matrix(.26458 0 0 .26458 -.572 3.219)" d="M413.424 464.49a93.328 94.022 0 0 0-79.504 45.002 149.427 150.538 0 0 0-46.848 14.85 114.51 115.363 0 0 0-41.605-7.95 114.51 115.363 0 0 0-114.51 115.364A114.51 115.363 0 0 0 234.16 746.438a149.427 150.538 0 0 0 45.098 41.425 114.51 115.363 0 0 0 105.61 71.041 114.51 115.363 0 0 0 114.51-115.361 114.51 115.363 0 0 0-4.607-32.174 149.427 150.538 0 0 0 9.764-53.014 149.427 150.538 0 0 0-9.869-53.683 93.328 94.022 0 0 0 12.084-46.16 93.328 94.022 0 0 0-93.326-94.022z" style="opacity:1;fill:#000;fill-opacity:.51010102;stroke:none;stroke-width:2.00000024;stroke-linecap:round;stroke-linejoin:round;stroke-miterlimit:4;stroke-dasharray:none;stroke-opacity:1;filter:url(#g)"/><ellipse style="opacity:1;fill:#fd0802;fill-opacity:1;stroke:#000;stroke-width:.5291667;stroke-linecap:round;stroke-linejoin:round;stroke-miterlimit:4;stroke-dasharray:none;stroke-opacity:1" cx="109.385" cy="147.773" rx="24.693" ry="24.877"/><ellipse style="opacity:1;fill:#ff0802;fill-opacity:1;stroke:#000;stroke-width:.5291667;stroke-linecap:round;stroke-linejoin:round;stroke-miterlimit:4;stroke-dasharray:none;stroke-opacity:1" cx="101.83" cy="196.729" rx="30.298" ry="30.523"/><ellipse style="opacity:1;fill:#fdea05;fill-opacity:1;stroke:#000;stroke-width:.5291667;stroke-linecap:round;stroke-linejoin:round;stroke-miterlimit:4;stroke-dasharray:none;stroke-opacity:1" cx="93.956" cy="174.19" rx="39.536" ry="39.83"/><path style="opacity:1;fill:#ff0802;fill-opacity:1;stroke:#000;stroke-width:.5291667;stroke-linecap:round;stroke-linejoin:round;stroke-miterlimit:4;stroke-dasharray:none;stroke-opacity:1" d="M64.946 136.629a30.298 30.523 0 0 0-30.297 30.523 30.298 30.523 0 0 0 30.297 30.523 30.298 30.523 0 0 0 6.326-.71 71.898 72.433 0 0 0 20.232-44.437 30.298 30.523 0 0 0-26.558-15.9z"/><ellipse style="opacity:1;fill:url(#h);fill-opacity:1;stroke:none;stroke-width:1.67385292;stroke-linecap:round;stroke-linejoin:round;stroke-miterlimit:4;stroke-dasharray:none;stroke-opacity:1" ry="11.409" rx="20.362" cy="149.105" cx="64.949"/><ellipse style="opacity:1;fill:url(#i);fill-opacity:1;stroke:none;stroke-width:.12821671;stroke-linecap:round;stroke-linejoin:round;stroke-miterlimit:4;stroke-dasharray:none;stroke-opacity:1" cx="64.847" cy="146.65" rx="4.353" ry="4.385"/><path transform="matrix(.26458 0 0 .26458 -1.328 1.924)" d="M470.73 443.006a69.873 70.393 0 0 0-54.449 26.377 91.614 92.296 0 0 0-23.123 9.35 79.797 79.208 69.471 0 0-51.156 1.292 79.797 79.208 69.471 0 0-46.193 102.506 79.797 79.208 69.471 0 0 88.49 50.678 91.614 92.296 0 0 0 10.002 6.53 69.873 70.393 0 0 0 64.308 43.046 69.873 70.393 0 0 0 69.873-70.392 69.873 70.393 0 0 0-3.832-22.73 91.614 92.296 0 0 0 5.371-30.808 91.614 92.296 0 0 0-.378-7.753 69.873 70.393 0 0 0 10.96-37.704 69.873 70.393 0 0 0-69.873-70.392z" style="opacity:1;fill:#000;fill-opacity:.54040402;stroke:none;stroke-width:2.0582211;stroke-linecap:round;stroke-linejoin:round;stroke-miterlimit:4;stroke-dasharray:none;stroke-opacity:1;filter:url(#j)"/><ellipse style="opacity:1;fill:#04f0ff;fill-opacity:1;stroke:#000;stroke-width:.5291667;stroke-linecap:round;stroke-linejoin:round;stroke-miterlimit:4;stroke-dasharray:none;stroke-opacity:1" cx="121.34" cy="162.029" rx="18.487" ry="18.625"/><ellipse style="opacity:1;fill:url(#k);fill-opacity:1;stroke:none;stroke-width:1.02350378;stroke-linecap:round;stroke-linejoin:round;stroke-miterlimit:4;stroke-dasharray:none;stroke-opacity:1" ry="6.976" rx="12.451" cy="-172.824" cx="-121.172" transform="scale(-1)"/><ellipse style="opacity:1;fill:#04f0ff;fill-opacity:1;stroke:#000;stroke-width:.5291667;stroke-linecap:round;stroke-linejoin:round;stroke-miterlimit:4;stroke-dasharray:none;stroke-opacity:1" cx="124.548" cy="135.836" rx="18.487" ry="18.625"/><ellipse style="opacity:1;fill:#0915e8;fill-opacity:1;stroke:#000;stroke-width:.5291667;stroke-linecap:round;stroke-linejoin:round;stroke-miterlimit:4;stroke-dasharray:none;stroke-opacity:1" cx="115.995" cy="147.864" rx="24.24" ry="24.42"/><ellipse style="opacity:1;fill:url(#l);fill-opacity:1;stroke:none;stroke-width:.07840012;stroke-linecap:round;stroke-linejoin:round;stroke-miterlimit:4;stroke-dasharray:none;stroke-opacity:1" cx="-121.235" cy="-174.325" rx="2.662" ry="2.681" transform="scale(-1)"/><ellipse style="opacity:1;fill:url(#m);fill-opacity:1;stroke:none;stroke-width:1.45112658;stroke-linecap:round;stroke-linejoin:round;stroke-miterlimit:4;stroke-dasharray:none;stroke-opacity:1" ry="9.891" rx="17.652" cy="-161.351" cx="-115.472" transform="scale(-1)"/><path style="opacity:1;fill:#04f0ff;fill-opacity:1;stroke:#000;stroke-width:.5291667;stroke-linecap:round;stroke-linejoin:round;stroke-miterlimit:4;stroke-dasharray:none;stroke-opacity:1" d="M90.488 127.007a21.113 20.957 69.471 0 0-12.222 27.121 21.113 20.957 69.471 0 0 27.03 12.424 21.113 20.957 69.471 0 0 3.925-1.995 50.102 49.732 69.471 0 0 2.328-33.693 21.113 20.957 69.471 0 0-21.06-3.857z"/><ellipse style="opacity:1;fill:url(#n);fill-opacity:1;stroke:none;stroke-width:.08494285;stroke-linecap:round;stroke-linejoin:round;stroke-miterlimit:4;stroke-dasharray:none;stroke-opacity:1" cx="-114.938" cy="-163.444" rx="2.884" ry="2.905" transform="scale(-1)"/><ellipse style="opacity:.97000002;fill:url(#o);fill-opacity:1;stroke:none;stroke-width:.18775646;stroke-linecap:round;stroke-linejoin:round;stroke-miterlimit:4;stroke-dasharray:none;stroke-opacity:1" cx="94.097" cy="159.859" rx="6.374" ry="6.421"/><ellipse style="opacity:1;fill:url(#p);fill-opacity:1;stroke:none;stroke-width:.09159847;stroke-linecap:round;stroke-linejoin:round;stroke-miterlimit:4;stroke-dasharray:none;stroke-opacity:1" cx="53.883" cy="199.577" rx="3.11" ry="3.133"/></g></svg>