<svg version="1.0" viewBox="0 0 185 222" xmlns="http://www.w3.org/2000/svg"><path fill="#337ab7" d="M98.3 1C51.5 7.6 15.5 42.8 3.9 93 1 105.4.3 128.8 2.4 140.8c5.7 32.8 27.2 60.4 56.5 72.7 12.5 5.3 19.3 6.7 35.3 7.2 11.2.4 17.1.1 25-1.2 24.7-4.1 49.6-15.6 61.1-28.4l3.7-4.1-.5-17.2c-.3-9.5-.8-31.6-1.1-49.1l-.6-31.9-26.7.8c-14.6.3-34.2.9-43.6 1.3l-17 .6-.8 21.3c-.5 11.8-.7 21.5-.5 21.7s8.1.7 17.6 1.1l17.2.7v2.7c0 6.5-1.2 9-5.1 11.1-6 3-17.2 4.4-24.1 3-24.9-5.2-34.7-41.8-18-67.7 10.5-16.3 29-24.2 53.7-23.1 6.8.4 15.3 1.5 19.5 2.5 4.1 1.1 7.7 1.6 8 1.1.9-1.3 4.3-52.6 3.7-54.2-.8-2.2-12.4-6.4-23.6-8.7C130.6.7 107.9-.4 98.3 1"/></svg>