<svg viewBox="0 0 99.016 38.171" xmlns="http://www.w3.org/2000/svg"><path d="M100.563 289.882c.266-.222.665-.533 1.198-.488.532.044 1.73.133 2.173.044s.799.045.932-.31.177-1.509.532-1.952 1.331-.932 1.464-1.375c.133-.444.178-.622 0-1.065-.177-.444-.576-.843-1.153-1.11a12 12 0 0 0-1.11-.443s-1.153 1.065-1.197 1.331.089.532-.177.665c-.267.134-.71-.266-.799-.975-.089-.71.222-1.553.177-2.041-.044-.488-.354-.932-.088-1.42s.887-1.242 1.375-1.597 1.33-.399 1.464-.843-.843-2.129-.843-2.528c0-.4.133-1.154-.177-1.775-.311-.62-.666-1.952-1.997-2.795-1.33-.842-2.262-1.197-2.484-1.818s-.044-.621.222-.799c.266-.177-.71-1.198-1.02-2.174s-.843-2.928-.622-3.105c.222-.177.888 0 1.02.355.134.355.666 2.529.666 2.529s-.133-1.642.089-2.13.488-.976.754-.843.133 3.017.133 3.017.266-.666.444-1.065c.177-.4.31-.754.532-.532s.044 2.351.044 2.351.355-.532.622-.665c.266-.133.399-.222.576.088.178.31.133.71.133.71s.133-.444.444-.444c.31 0 .71.134.577.488-.133.355 1.197.045 1.109.666s0 1.198.355 1.198.576.488 1.286.31c.444.266-.222 1.908.089 1.686.31-.222 1.02-.4 1.286.089.267.488-.355 1.064 0 1.508s0 .843.533 1.198c.532.355.576.088.71.887.133.799.133 1.153.354 1.464.222.31.488.532.444 1.198s-.444 1.286.089 1.197c.532-.088.754-.62 1.153-.842.4-.222.488-.267 1.02-.666.533-.4.622-.931.932-1.065s.577-.088 1.02-.266c.444-.177.888-.576 1.11-.754.221-.177.221-.266.62-.62.4-.356.799-.578 1.065-1.154.266-.577.222-.621.533-1.464.31-.843.221-1.11.399-1.464.177-.355.177-.666.488-.976.31-.31.576-.666.62-.355.045.31.045.754.045 1.02s.4-.4.754-1.065c.355-.665.178-.754.31-1.33.134-.577 0-.976.045-1.642s.133-.71.178-1.686.123-1.14.123-1.85-.026-.996-.035-1.521c.155-.403.327-.526.444-.488.144.038.338.04.454.577.088.576.168 1.006.256 2.085-.089 1.064-.133 1.996.044 2.262.178.266.31.222.444-.089.133-.31.133-.443.31-.976.178-.532.167-.88.258-1.624-.044-1.109.008-1.614.053-2.457.044-.843-.005-.868.089-1.375.08-.48.192-.595.576-.533.222.267.267.932.355 1.509.089.576.089.532.133 1.597s.006 1.49-.082 1.844c-.021.396-.1.789-.05.95.265-.177.265-.487.532-1.109.266-.62.488-1.153.576-1.863.089-.71.326-.97.477-1.75.355-.755.433-.937.677-.956.257.185.38.351.355.932-.134.62-.134.931-.355 1.552-.222.621-.178.888-.488 1.553-.189.584-.212.782-.31.976.443.044.437-.132.709-.444.449-.854.279-.674.444-.931.246-.515.457-.705.665-.621.222.355.31.443.133.843s-.044.133-.31.71c-.267.576-.533.798-.178.754s.4 0 .621-.355c.222-.355 0-.4.488-.621.488-.222.799-.621.932-.311s.177.266-.133.71-.621.577-.488.798.488.267.754.267.31.044.177.488c-.133.443-.177.443-.222.665-.044.222.178.4.178.4s.4-.267.089.398c-.31.666-.488.488-.666.799-.177.31-.355.621-.089.621.267 0 .533-.044.488.178-.044.221-.443.443-.221.576.221.133.399-.044.576.133.178.178 0 .488 0 .71s-.044.4.045.621c.088.222.266.444.133.666-.133.221.044.266-.31.488-.356.221-.577.177-.577.399s-.045.177.177.355c.222.177.488.044.31.443-.177.4-.132.355-.221.71s.044.178-.355 1.02c-.4.843-.799 1.464-1.198 1.686-.4.222-.31.71-.044.799.266.088.31.488.044 1.064s-.577 1.331-.665 1.73c-.089.4-.178.444-.621.932-.444.488-.799.932-1.198 1.065-.4.133-.444.577-.71.798s-.355.355-.931.355-.577-.133-1.154.045c-.577.177-.843.355-.887.62-.045.267-.222.4-.577.311-.355-.088-.089.178-.532.355-.444.178-.31.4-.843.355-.532-.044-.799-.444-.932 0s-.177.799-.754.4c-.577-.4-.887-1.465-1.198-.356-.31 1.11-.31 1.376.045 1.686s.443.577 1.242.887.798.666 1.375.888.621.31 1.508.754c.888.443 1.11.577 1.642.887s.665.621.798.932c.133.31.71.665.488 1.109s-.665.177-.665.399.089.4-.089.843c-.177.444-.133.621-.754.798s-.976.267-1.286.134c-.311-.134-.4.399-.71.266s-.444-.533-.666-.31c-.221.221.178.354-.355.487s-.576-.222-.62.089c-.045.31.132.62-.444.31s-.4-.931-.843-.488c-.444.444-.222.976-1.02.533-.799-.444-.533-.488-1.154-.444-.621.045-.62.089-.843-.4-.222-.487.222-.354-.754-.398s-.488.576-1.109-.267c-.621-.842-.754-1.685-1.02-.754-.266.932 0 1.154-.4 1.42-.399.266-2.44.177-2.44.177s-.044 1.02-.221 1.198c-.178.177-.621-.177-1.02.177-.4.355-.134.577-.488.888-.355.31-1.065.355-1.065.355s.488-.4.62-.755c.134-.354.311-.975.311-.975s-.71.266-1.02.31-.798-.044-.798-.044l.133 1.02s-.843 0-.843-.355.266-1.33.488-1.464.532-.089.532-.089-.089-.443.133-.532.355 0 .71 0 1.952-.488 1.952-.488-.044-1.153.133-1.641 1.02-1.864.621-2.085c-.4-.222-.71-.045-.931.177s-.622.887-1.464 1.065c-.843.177-1.509.266-1.509.266s-.177.089-.177.444c0 .354.31.71-.133 1.153-.444.444-.799.843-1.287.621s-.577-.488-.577-.488.355.222.932.089.355-1.242.31-1.464-.487-.444-.754-.222c-.266.222-.62.799-.399 1.02.222.222-.62-.488-.577-.798.045-.31.178-.533.178-.533s-.577 0-.932-.044-.62-.222-.62.044c0 .267.177 1.464-.223.71-.399-.754-.576-.931-.177-1.33z" style="fill-rule:evenodd;stroke:#000;stroke-width:.12524493" transform="translate(-31.069 -258.173)"/><path d="M33.069 293.904v-27.316h4.101v12.305h9.557v-12.305h4.101v27.316h-4.101v-12.305H37.17v12.305zm43.635-3.316v-24h3.971l.83 23.869h8.16l.828-23.87h3.971v24l-3.316 3.317h-11.17Z" style="stroke-width:1.09089851" transform="translate(-33.069 -258.173)"/><path d="m79.993 281.026-15.943-6.564-15.942 6.564 7.971-13.807 7.971-13.806 7.971 13.806z" style="fill:#d80037;fill-opacity:1;stroke:none;stroke-width:.26458332;stroke-opacity:1" transform="matrix(.55694 0 0 .98973 -4.975 -242.41)"/></svg>