<svg fill-rule="evenodd" stroke-linejoin="round" stroke-miterlimit="1.414" clip-rule="evenodd" viewBox="0 0 286 99" xmlns="http://www.w3.org/2000/svg"><path fill="none" d="M0 0h286v99H0z"/><clipPath id="a"><path d="M0 0h286v99H0z"/></clipPath><g fill="#332931" fill-rule="nonzero" clip-path="url(#a)"><path d="M78.018 47.989c-.819.818-1.227 1.815-1.227 2.99v42.179c0 1.178.422 2.174 1.266 2.992.844.818 1.827 1.227 2.953 1.227 1.176 0 2.172-.409 2.99-1.227.818-.818 1.227-1.814 1.227-2.992V50.979c0-1.175-.421-2.172-1.265-2.99-.844-.818-1.829-1.227-2.952-1.227-1.177 0-2.175.409-2.992 1.227zm24.197 11.771a9.936 9.936 0 0 1 2.224-3.259 10.74 10.74 0 0 1 3.297-2.185 10.101 10.101 0 0 1 4.026-.806c2.198 0 4.154.613 5.867 1.841 1.712 1.226 2.953 2.787 3.719 4.679.817 1.686 2.096 2.53 3.835 2.53 1.329 0 2.351-.435 3.067-1.303.716-.87 1.073-1.815 1.073-2.839 0-.306-.037-.663-.114-1.073a3.691 3.691 0 0 0-.422-1.15 18.075 18.075 0 0 0-2.8-4.487 19.295 19.295 0 0 0-3.948-3.528 18.313 18.313 0 0 0-10.277-3.106c-2.607 0-5.049.487-7.323 1.457-2.277.972-4.256 2.301-5.945 3.989-1.686 1.686-3.016 3.669-3.987 5.942-.972 2.277-1.457 4.693-1.457 7.247v16.643c0 2.557.498 4.96 1.495 7.208.998 2.251 2.34 4.219 4.026 5.905 1.688 1.688 3.667 3.03 5.944 4.027 2.274.997 4.69 1.495 7.247 1.495 1.994 0 3.885-.281 5.676-.844a17.589 17.589 0 0 0 4.907-2.415 19.412 19.412 0 0 0 3.95-3.719 17.566 17.566 0 0 0 2.723-4.756c.203-.459.305-.996.305-1.61 0-1.022-.37-1.967-1.112-2.837-.741-.869-1.751-1.304-3.028-1.304-.666 0-1.369.23-2.109.69-.742.461-1.292 1.048-1.648 1.763-.819 1.894-2.085 3.465-3.797 4.717-1.713 1.254-3.669 1.879-5.867 1.879a9.929 9.929 0 0 1-3.948-.805 10.729 10.729 0 0 1-3.299-2.186 10.435 10.435 0 0 1-2.262-3.259 9.523 9.523 0 0 1-.843-3.949V63.709c0-1.38.268-2.695.805-3.949m39.457-12.998c-1.178 0-2.176.409-2.992 1.227-.819.818-1.227 1.815-1.227 2.99v42.179c0 1.178.421 2.174 1.265 2.992.844.818 1.828 1.227 2.954 1.227 1.174 0 2.171-.409 2.989-1.227.818-.818 1.227-1.814 1.227-2.992V50.979c0-1.175-.421-2.172-1.265-2.99-.844-.818-1.828-1.227-2.951-1.227m43.864 3.911c-1.687-1.687-3.669-3.03-5.943-4.027-2.276-.996-4.692-1.495-7.247-1.495-2.558 0-4.973.499-7.247 1.495-2.277.997-4.257 2.34-5.945 4.027a18.84 18.84 0 0 0-3.988 5.904c-.971 2.25-1.456 4.654-1.456 7.21v29.371c0 1.178.409 2.174 1.227 2.992.817.818 1.815 1.227 2.99 1.227 1.176 0 2.16-.409 2.954-1.227.791-.818 1.187-1.814 1.187-2.992V63.787c0-1.382.27-2.697.807-3.95a10.3 10.3 0 0 1 2.185-3.26c.92-.92 2.006-1.649 3.259-2.185 1.252-.537 2.594-.805 4.027-.805 1.43 0 2.772.268 4.026.805a10.769 10.769 0 0 1 3.298 2.185 10 10 0 0 1 2.223 3.26 9.9 9.9 0 0 1 .805 3.95v29.371c0 1.178.423 2.174 1.267 2.992.842.818 1.827 1.227 2.952 1.227 1.175 0 2.159-.409 2.952-1.227.792-.818 1.188-1.814 1.188-2.992V63.787c0-2.556-.498-4.96-1.495-7.21-.997-2.249-2.339-4.217-4.026-5.904m47.087 19.249h-8.359c-1.175 0-2.161.41-2.953 1.227-.792.819-1.188 1.79-1.188 2.915 0 1.175.396 2.173 1.188 2.99.792.818 1.778 1.227 2.953 1.227h4.141v2.071c0 1.38-.268 2.697-.804 3.949a10.28 10.28 0 0 1-2.186 3.259 10.292 10.292 0 0 1-3.259 2.186 10.14 10.14 0 0 1-4.027.805 9.933 9.933 0 0 1-3.949-.805 10.724 10.724 0 0 1-3.298-2.186 9.95 9.95 0 0 1-2.224-3.259 9.917 9.917 0 0 1-.806-3.949V63.787c0-1.382.269-2.697.806-3.95a10.302 10.302 0 0 1 2.186-3.26 10.279 10.279 0 0 1 3.259-2.185c1.252-.537 2.594-.805 4.026-.805 2.197 0 4.153.614 5.867 1.841a10.978 10.978 0 0 1 3.796 4.754c.356.819.893 1.432 1.611 1.841.715.41 1.431.614 2.147.614 1.329 0 2.351-.435 3.067-1.305.716-.868 1.073-1.813 1.073-2.836 0-.307-.012-.602-.038-.883a2.884 2.884 0 0 0-.19-.805 19.283 19.283 0 0 0-2.8-4.754 18.27 18.27 0 0 0-3.988-3.682 18.887 18.887 0 0 0-4.947-2.378 18.609 18.609 0 0 0-5.598-.843c-2.557 0-4.973.486-7.247 1.457-2.276.971-4.257 2.3-5.945 3.988-1.685 1.687-3.028 3.669-4.024 5.944-.998 2.275-1.497 4.691-1.497 7.247v16.565c0 2.557.499 4.96 1.497 7.208a19.354 19.354 0 0 0 4.024 5.905c1.688 1.687 3.669 3.03 5.945 4.027 2.274.996 4.69 1.494 7.247 1.494 2.556 0 4.973-.498 7.247-1.494 2.274-.997 4.257-2.34 5.944-4.027 1.688-1.687 3.029-3.654 4.026-5.905.997-2.248 1.496-4.651 1.496-7.208v-6.288c0-1.176-.41-2.161-1.228-2.954-.818-.792-1.814-1.188-2.991-1.188m24.695 5.444c.561-1.329 1.098-2.58 1.61-3.758.51-1.175 1.022-2.325 1.535-3.45a149.433 149.433 0 0 0 1.494-3.414 126.91 126.91 0 0 1 1.573-3.566l6.136 14.188zm28.298 16.335-18.252-42.715c-.41-.921-1.15-1.636-2.224-2.148a2.401 2.401 0 0 0-.805-.307 4.537 4.537 0 0 0-.805-.077c-1.739 0-3.018.844-3.836 2.532l-18.251 42.715c-.104.206-.18.461-.23.768a5.054 5.054 0 0 0-.077.843c0 .972.369 1.906 1.112 2.799.74.896 1.751 1.342 3.03 1.342.816 0 1.558-.204 2.224-.613.663-.41 1.2-1.048 1.609-1.917a232.743 232.743 0 0 1 2.34-5.561c.792-1.814 1.596-3.668 2.415-5.559h19.404l4.754 11.12c.664 1.687 1.942 2.53 3.835 2.53 1.276 0 2.286-.446 3.028-1.342.741-.893 1.113-1.827 1.113-2.799 0-.461-.129-.997-.384-1.611zM80.591 27.652a6.318 6.318 0 0 0-5.824 6.771c.04.528.15 1.032.309 1.512l-25.644 6.324a15.398 15.398 0 0 0-8.075-10.93l7.524-15.638a8.034 8.034 0 0 0 7.498-1.426 8.04 8.04 0 0 0 1.152-11.306 8.034 8.034 0 1 0-12.458 10.152 7.98 7.98 0 0 0 2.712 2.141L40.289 30.83c-5.101-2.164-11.2-1.509-15.791 2.232-.502.409-.959.851-1.395 1.307l-8.264-6.765c.67-1.262.757-2.81.084-4.19A4.608 4.608 0 0 0 8.758 21.3a4.612 4.612 0 0 0-2.116 6.165 4.612 4.612 0 0 0 6.167 2.117 4.57 4.57 0 0 0 1.345-1.017l8.158 6.678c-4.565 5.559-4.749 13.743-.022 19.531a15.365 15.365 0 0 0 3.801 3.337l-9.434 13.526a10.344 10.344 0 0 0-7.034-2.072c-5.73.43-10.025 5.422-9.593 11.147.429 5.731 5.422 10.024 11.151 9.593 5.728-.43 10.02-5.424 9.59-11.151a10.352 10.352 0 0 0-3.211-6.749l9.553-13.698a15.459 15.459 0 0 0 14.679-.229l5.378 8.984a3.203 3.203 0 0 0-1.347 2.255 3.235 3.235 0 1 0 6.428.743 3.235 3.235 0 0 0-2.843-3.584 3.2 3.2 0 0 0-1.164.086l-5.44-9.088c.409-.273.811-.564 1.201-.881 4.181-3.411 6.104-8.564 5.59-13.559l25.964-6.403a6.31 6.31 0 0 0 11.8-3.553 6.318 6.318 0 0 0-6.768-5.826"/></g></svg>