<?xml version="1.0" encoding="UTF-8"?>
<svg id="a" enable-background="new 0 0 792 792" version="1.1" viewBox="0 0 792 792" xmlns="http://www.w3.org/2000/svg">
 <style type="text/css">.st0{fill:#FA2921;}
	.st1{fill:#ED79B5;}
	.st2{fill:#FFB400;}
	.st3{fill:#1E83F7;}
	.st4{fill:#18C249;}</style>
 <g id="b" transform="matrix(1.3249 0 0 1.3249 -127.79 -112.11)">
  <path class="st0" d="m375.48 267.63c38.64 34.21 69.78 70.87 89.82 105.42 34.42-61.56 57.42-134.71 57.71-181.3v-0.91c0-68.94-68.77-95.77-128.01-95.77s-128.01 26.83-128.01 95.77v3.72c33.02 14.68 72.16 40.91 108.49 73.07z"/>
  <path class="st1" d="m164.7 455.63c24.15-26.87 61.2-55.99 103.01-80.61 44.48-26.18 88.97-44.47 128.02-52.84-47.91-51.76-110.37-96.24-154.6-110.91-0.31-0.1-0.6-0.19-0.86-0.28-65.57-21.3-112.34 35.81-130.64 92.15s-14.04 130.04 51.53 151.34c0.89 0.29 2.09 0.68 3.54 1.15z"/>
  <path class="st2" d="m681.07 302.19c-18.3-56.34-65.07-113.45-130.64-92.15-0.9 0.29-2.1 0.68-3.54 1.15-3.75 35.93-16.6 81.27-35.96 125.76-20.59 47.32-45.84 88.27-72.51 118 69.18 13.72 145.86 12.98 190.26-1.14 0.31-0.1 0.6-0.2 0.86-0.28 65.57-21.31 69.83-95.01 51.53-151.34z"/>
  <path class="st3" d="m336.54 510.71c-11.15-50.39-14.8-98.36-10.7-138.08-64.03 29.57-125.63 75.23-153.26 112.76-0.19 0.26-0.37 0.51-0.53 0.73-40.52 55.78-0.66 117.91 47.27 152.72 47.92 34.82 119.33 53.54 159.86-2.24 0.56-0.76 1.3-1.78 2.19-3.01-18.09-31.27-34.35-75.51-44.83-122.88z"/>
  <path class="st4" d="m617.57 482.52c-35.33 7.54-82.42 9.33-130.72 4.66-51.37-4.96-98.11-16.32-134.63-32.5 8.33 70.03 32.73 142.73 59.88 180.6 0.19 0.26 0.37 0.51 0.53 0.73 40.52 55.78 111.93 37.06 159.86 2.24 47.92-34.82 87.79-96.95 47.27-152.72-0.56-0.76-1.3-1.78-2.19-3.01z"/>
 </g>
</svg>
