<svg viewBox="0 0 400 400" xmlns="http://www.w3.org/2000/svg"><g stroke="#000" stroke-linecap="round" stroke-linejoin="round" stroke-width="2.676"><path fill="#ddbc91" d="M199.988 199.914v193.192l166.309-96.019V103.142z"/><path fill="#d9b383" d="M199.988 199.914v193.192L33.682 297.087V103.142z"/><path fill="#ddbc91" d="m366.303 103.147-166.308 96.769-166.307-96.77L199.995 6.905z"/><g fill="#f3f4e4"><path d="M75.263 127.093v145.452l124.73 72.01 124.73-72.01V127.093l-124.73 72.574z"/><path d="m324.716 127.093-124.725 72.575-124.725-72.575 124.725-72.18z"/></g><path fill="#d9dbbc" d="M199.988 54.935v144.758L75.258 272.58V127.118z"/><path fill="#eaeccf" d="M199.988 54.935v144.758l124.73 72.886V127.118z"/><path fill="#90a8d8" d="M200.004 199.918v96.6l83.153-48.01v-96.975zm0 0v96.6l-83.153-48.01v-96.975zm83.153-48.39-83.153 48.385-83.153-48.385 83.153-48.122z"/></g><path fill="none" d="M-787.97-253.365h482.57v946.752h-482.568z"/></svg>