<svg width="70.021" height="72.35" xmlns:xlink="http://www.w3.org/1999/xlink" xmlns="http://www.w3.org/2000/svg"><defs><linearGradient id="a" x1="38.11" y1="18.54" x2="23.17" y2="33.48" gradientUnits="userSpaceOnUse"><stop offset=".18" stop-color="#0052cc"/><stop offset="1" stop-color="#2684ff"/></linearGradient><linearGradient id="c" x1="42.07" y1="61.47" x2="56.98" y2="46.55" xlink:href="#a" gradientTransform="translate(-5.02 -3.9)"/><linearGradient xlink:href="#a" id="b" gradientUnits="userSpaceOnUse" x1="38.11" y1="18.54" x2="23.17" y2="33.48" gradientTransform="translate(-5.02 -3.9)"/></defs><path d="M69.16 34.1 37.98 3l-3-3-23.42 23.42L.84 34.1a2.86 2.86 0 0 0 0 4.05l21.42 21.46 12.72 12.74 23.47-23.44.36-.36 10.35-10.36a2.86 2.86 0 0 0 0-4.09zM34.98 46.87l-10.7-10.7 10.7-10.7 10.7 10.7z" fill="#2684ff"/><path d="M34.98 25.47a18 18 0 0 1 0-25.37L11.52 23.47l12.74 12.74z" fill="url(#a)" style="fill:url(#b)"/><path d="M45.73 36.1 34.98 46.87a18 18 0 0 1 0 25.48l23.5-23.47z" fill="url(#c)" style="fill:url(#c)"/></svg>