<svg xmlns="http://www.w3.org/2000/svg" xmlns:xlink="http://www.w3.org/1999/xlink" width="80" height="80"><defs><linearGradient id="prefix__a" x1="38.11" y1="18.54" x2="23.17" y2="33.48" gradientUnits="userSpaceOnUse"><stop offset=".18" stop-color="#0052cc"/><stop offset="1" stop-color="#2684ff"/></linearGradient><linearGradient id="prefix__b" x1="42.07" y1="61.47" x2="56.98" y2="46.55" xlink:href="#prefix__a"/></defs><path d="M74.18 38L43 6.9l-3-3-23.42 23.42L5.86 38a2.86 2.86 0 000 4.05l21.42 21.46L40 76.25l23.47-23.44.36-.36 10.35-10.36a2.86 2.86 0 000-4.09zM40 50.77l-10.7-10.7L40 29.37l10.7 10.7z" fill="#2684ff"/><path d="M40 29.37A18 18 0 0140 4L16.54 27.37l12.74 12.74L40 29.37z" fill="url(#prefix__a)"/><path d="M50.75 40L40 50.77a18 18 0 010 25.48l23.5-23.47z" fill="url(#prefix__b)"/></svg>