<svg xml:space="preserve" id="Layer_1" x="0" y="0" version="1.1" viewBox="0 0 54 54" xmlns="http://www.w3.org/2000/svg"><style>.st0{fill:#006bb8}</style><path d="m47.3 9.9-3.1-1.5-32.7 40.8 2.1 2.7c.1.1.2.3.3.4l33.8-42c-.1-.2-.2-.3-.4-.4M18.1 53.2h5l27.6-34.3-1.1-4.8zM37.2 5 21.9 24 6.6 43 9 46.1 40.7 6.7zm-.1 48.2c1.1 0 2.1-.5 2.8-1.3L53 35.6c.7-.9 1-2 .7-3l-1.9-8.9L28 53.2zM18.4 17.1c-1.4-1.1-3.4-.9-4.4.5s-.9 3.4.4 4.4c1.4 1.1 3.3.9 4.4-.5 1.2-1.3.9-3.3-.4-4.4" class="st0"/><path d="M12 25.1c-3-2.4-3.5-6.9-1.1-9.9s6.9-3.5 9.9-1.1c.9.7 1.6 1.6 2 2.6L33.6 3.3 28.7.9c-1-.5-2.1-.5-3.1 0l-18.8 9c-.5.3-1 .6-1.4 1.1-.3.4-.5.8-.6 1.3L.1 32.6c-.3 1.1 0 2.2.7 3l3.3 4.2 10.8-13.4c-1-.2-2-.6-2.9-1.3" class="st0"/></svg>