<svg xml:space="preserve" viewBox="0 0 245.402 244.457" xmlns="http://www.w3.org/2000/svg"><path d="M431.521 293.719c-.791 2.568-2.526 4.448-4.384 6.299-12.448 12.406-24.857 24.852-37.278 37.284-4.476 4.478-9.259 4.465-13.752-.032-12.82-12.83-25.641-25.659-38.456-38.491-4.366-4.372-4.364-9.144.013-13.526 12.888-12.906 25.778-25.809 38.671-38.708 4.195-4.198 9.124-4.2 13.318-.004 12.499 12.501 24.979 25.02 37.499 37.496 1.859 1.852 3.586 3.741 4.369 6.31zM307.953 413.914c-2.556-.812-4.408-2.582-6.251-4.436-12.395-12.458-24.828-24.877-37.247-37.312-4.444-4.45-4.449-9.198-.015-13.638 12.855-12.865 25.709-25.729 38.567-38.592 4.274-4.274 9.171-4.29 13.422-.037 12.856 12.864 25.711 25.729 38.563 38.597 4.415 4.421 4.428 9.264.031 13.664-12.527 12.541-25.075 25.066-37.573 37.633-1.789 1.798-3.629 3.415-6.123 4.12h-3.374zm-45.112-152.707c0-14.303.129-28.608-.081-42.909-.061-4.14.928-7.374 4.089-10.104 2.543-2.198 4.797-4.733 7.179-7.118 9.423-9.433 18.845-18.867 28.271-28.296 4.433-4.432 9.213-4.429 13.643.002a199342.53 199342.53 0 0 1 38.459 38.482c4.403 4.407 4.4 9.254-.003 13.663-15.16 15.179-30.326 30.356-45.49 45.533-13.391 13.405-26.78 26.809-40.173 40.212-2.481 2.482-4.679 1.905-5.581-1.536-.278-1.066-.3-2.219-.301-3.332-.018-14.866-.012-29.732-.012-44.597m-30.659 30.994c0 13.127.019 26.256-.026 39.383-.005 1.247-.203 2.567-.65 3.724-.876 2.279-2.52 2.561-4.241.844-6.037-6.027-12.057-12.071-18.083-18.107-6.965-6.977-13.932-13.953-20.894-20.934-2.882-2.889-2.895-6.898-.024-9.801 12.82-12.967 25.643-25.933 38.472-38.895.848-.857 1.648-2.02 3.089-1.475 1.378.52 1.922 1.763 2.118 3.141.122.854.218 1.722.22 2.583.013 13.179.009 26.359.009 39.537z" style="clip-rule:evenodd;fill:#31afe1;fill-rule:evenodd" transform="translate(-186.119 -169.457)"/></svg>