<svg fill="none" viewBox="0 0 120 120" xmlns="http://www.w3.org/2000/svg"><defs><linearGradient id="a" x1="0%" x2="100%" y1="0%" y2="100%"><stop offset="0%" stop-color="#ff4d4d"/><stop offset="100%" stop-color="#991b1b"/></linearGradient></defs><g><animateTransform additive="sum" attributeName="transform" calcMode="spline" dur="4s" keySplines="0.42 0 0.58 1; 0.42 0 0.58 1" keyTimes="0; 0.5; 1" repeatCount="indefinite" type="translate" values="0 0; 0 -5; 0 0"/><path fill="url(#a)" d="M60 10c-30 0-45 25-45 45s15 40 30 45v10h10v-10s5 2 10 0v10h10v-10c15-5 30-25 30-45S90 10 60 10"/><path fill="url(#a)" d="M20 45C5 40 0 50 5 60s15 5 20-5c3-7 0-10-5-10"><animateTransform attributeName="transform" calcMode="spline" dur="4s" keySplines="0.42 0 0.58 1; 0.42 0 0.58 1; 0.42 0 0.58 1; 0.42 0 0.58 1" keyTimes="0; 0.85; 0.9; 0.95; 1" repeatCount="indefinite" type="rotate" values="0 26 53; 0 26 53; -8 26 53; 0 26 53; 0 26 53"/></path><path fill="url(#a)" d="M100 45c15-5 20 5 15 15s-15 5-20-5c-3-7 0-10 5-10"><animateTransform attributeName="transform" begin="0.2s" calcMode="spline" dur="4s" keySplines="0.42 0 0.58 1; 0.42 0 0.58 1; 0.42 0 0.58 1; 0.42 0 0.58 1" keyTimes="0; 0.85; 0.9; 0.95; 1" repeatCount="indefinite" type="rotate" values="0 94 53; 0 94 53; -8 94 53; 0 94 53; 0 94 53"/></path><path stroke="#ff4d4d" stroke-linecap="round" stroke-width="3" d="M45 15Q35 5 30 8"><animateTransform attributeName="transform" calcMode="spline" dur="2s" keySplines="0.42 0 0.58 1; 0.42 0 0.58 1; 0.42 0 0.58 1" keyTimes="0; 0.25; 0.75; 1" repeatCount="indefinite" type="rotate" values="0 37.5 11; -3 37.5 11; 3 37.5 11; 0 37.5 11"/></path><path stroke="#ff4d4d" stroke-linecap="round" stroke-width="3" d="M75 15Q85 5 90 8"><animateTransform attributeName="transform" calcMode="spline" dur="2s" keySplines="0.42 0 0.58 1; 0.42 0 0.58 1; 0.42 0 0.58 1" keyTimes="0; 0.25; 0.75; 1" repeatCount="indefinite" type="rotate" values="0 82.5 11; -3 82.5 11; 3 82.5 11; 0 82.5 11"/></path><circle cx="45" cy="35" r="6" fill="#050810"/><circle cx="75" cy="35" r="6" fill="#050810"/><circle cx="46" cy="34" r="2.5" fill="#00e5cc"><animate attributeName="opacity" dur="3s" keyTimes="0; 0.9; 0.95; 1" repeatCount="indefinite" values="1; 1; 0.3; 1"/></circle><circle cx="76" cy="34" r="2.5" fill="#00e5cc"><animate attributeName="opacity" dur="3s" keyTimes="0; 0.9; 0.95; 1" repeatCount="indefinite" values="1; 1; 0.3; 1"/></circle></g></svg>