<svg viewBox="0 0 47.4 36.9" xmlns="http://www.w3.org/2000/svg"><path fill="#eb6e4b" d="M45.1 22.9a1.5 1.5 0 0 1-1.5 1.5H27.9a1.5 1.5 0 0 0-1.4 1.6 1.5 1.5 0 0 0 1.4 1.5h.7a1.5 1.5 0 0 1 1.5 1.5 1.5 1.5 0 0 1-1.5 1.5h-1.9a1.5 1.5 0 0 0-1.5 1.5 1.5 1.5 0 0 0 1.5 1.5h10.2a1.5 1.5 0 0 1 1.5 1.5 1.5 1.5 0 0 1-1.5 1.5h-27A1.5 1.5 0 0 1 8.4 35a1.5 1.5 0 0 1 1.5-1.5h6.5a1.5 1.5 0 0 0 1.5-1.5 1.5 1.5 0 0 0-1.5-1.5H6.8A1.5 1.5 0 0 1 5.3 29a1.3 1.3 0 0 1 .1-.6 1.6 1.6 0 0 1 1.4-.9h.5A1.5 1.5 0 0 0 8.8 26a1.5 1.5 0 0 0-1.5-1.5H1.5A1.5 1.5 0 0 1 0 23a1.5 1.5 0 0 1 1.5-1.5h1.1a26 26 0 0 1-.2-2.9 18.5 18.5 0 1 1 36.9 0 26 26 0 0 1-.2 2.9h4.5a1.5 1.5 0 0 1 1.5 1.4"/><path fill="#eb6e4b" d="M47.4 29.1a1.5 1.5 0 0 1-1.5 1.5h-3.3a1.5 1.5 0 0 1-1.5-1.5 1.5 1.5 0 0 1 1.5-1.5h3.3a1.5 1.5 0 0 1 1.5 1.5m-8.8 0a1.5 1.5 0 0 1-1.5 1.5h-3.4a1.5 1.5 0 0 1-1.4-1.5 1.5 1.5 0 0 1 1.4-1.5h3.4a1.5 1.5 0 0 1 1.5 1.5"/></svg>