<svg xmlns:xlink="http://www.w3.org/1999/xlink" data-ember-extension="1" viewBox="0 0 132.737 128.409" xmlns="http://www.w3.org/2000/svg"><defs><linearGradient xlink:href="#a" id="e" x1="99.569" x2="132.077" y1="45.882" y2="47.327" gradientTransform="translate(52.806 14.473) scale(.87361)" gradientUnits="userSpaceOnUse"/><linearGradient id="a"><stop offset="0" style="stop-color:#007f00;stop-opacity:1"/><stop offset="1" style="stop-color:#00ce00;stop-opacity:1"/></linearGradient><linearGradient xlink:href="#b" id="f" x1="97.572" x2="127.172" y1="39.673" y2="14.656" gradientTransform="translate(52.806 14.473) scale(.87361)" gradientUnits="userSpaceOnUse"/><linearGradient id="b"><stop offset="0" style="stop-color:#00a800;stop-opacity:1"/><stop offset="1" style="stop-color:#00e700;stop-opacity:1"/></linearGradient><filter id="d" style="color-interpolation-filters:sRGB"><feFlood flood-color="#000" flood-opacity=".498" result="flood"/><feComposite in="flood" in2="SourceGraphic" operator="in" result="composite1"/><feGaussianBlur in="composite1" result="blur" stdDeviation=".7"/><feOffset dx=".2" dy=".2" result="offset"/><feComposite in="SourceGraphic" in2="offset" result="fbSourceGraphic"/><feColorMatrix in="fbSourceGraphic" result="fbSourceGraphicAlpha" values="0 0 0 -1 0 0 0 0 -1 0 0 0 0 -1 0 0 0 0 1 0"/><feFlood flood-color="#000" flood-opacity=".498" result="flood"/><feComposite in="flood" in2="fbSourceGraphic" operator="in" result="composite1"/><feGaussianBlur in="composite1" result="blur" stdDeviation="1"/><feOffset dx=".1" dy=".5" result="offset"/><feComposite in="fbSourceGraphic" in2="offset" result="composite2"/></filter><filter id="c" style="color-interpolation-filters:sRGB"><feFlood flood-color="#000" flood-opacity=".498" result="flood"/><feComposite in="flood" in2="SourceGraphic" operator="in" result="composite1"/><feGaussianBlur in="composite1" result="blur" stdDeviation=".7"/><feOffset dy=".2" result="offset"/><feComposite in="SourceGraphic" in2="offset" result="composite2"/></filter></defs><path d="M57.462 35.32v87.642l-20.38-16.512V35.32Z" style="fill:#ccc;stroke:none;stroke-width:.264584px;stroke-linecap:butt;stroke-linejoin:miter;stroke-opacity:1" transform="translate(-35.555 -5.615)"/><path d="M117.33 35.32v87.642l20.381-16.512V35.32Z" style="fill:#ccc;fill-opacity:1;stroke:none;stroke-width:.264584px;stroke-linecap:butt;stroke-linejoin:miter;stroke-opacity:1" transform="translate(-35.555 -5.615)"/><path d="M50.107 18.844h21.167l43.656 59.532H93.763Z" style="fill:#f9f9f9;stroke:none;stroke-width:.275178px;stroke-linecap:butt;stroke-linejoin:miter;stroke-opacity:1;filter:url(#c)" transform="matrix(.96287 0 0 .96013 -46.72 11.611)"/><path d="M133.451 18.844 93.763 78.376v42.333h21.167V78.376l39.688-59.532z" style="fill:#fff;stroke:none;stroke-width:.275178px;stroke-linecap:butt;stroke-linejoin:miter;stroke-opacity:1;filter:url(#d)" transform="matrix(.96287 0 0 .96013 -46.72 11.611)"/><g style="stroke-width:.873613"><path d="M166.073 52.093c-1.884-2.274-4.098-4.274-6.495-5.998-5.494-3.951-12.396-6.748-19.275-5.673-4.95.773-9.105 4.272-11.303 8.668l-.012-.001.009.008-.029.055.094.012c.433.444.872.883 1.318 1.315 4.683 4.541 10.45 8.67 17.179 9.083 6.95.426 13.509-2.55 19.424-5.891l.34.04a29.69 29.69 0 0 0-1.25-1.618z" style="fill:url(#e);fill-opacity:1;stroke:none;stroke-width:.231144px;stroke-linecap:butt;stroke-linejoin:miter;stroke-opacity:1" transform="translate(-60.446 -16.567) scale(1.14467)"/><path d="M161.69 15.133c-3.7-.011-7.398.512-10.978 1.433-8.204 2.111-16.422 6.497-20.89 13.958-3.216 5.369-3.17 12.157-.694 17.785l-.011.01.015-.001.03.071.086-.08c.775-.061 1.549-.13 2.322-.213 8.123-.86 16.715-3.09 22.498-9.218 5.973-6.329 8.355-15.004 9.87-23.355l.311-.294a37.299 37.299 0 0 0-2.56-.096z" style="fill:url(#f);fill-opacity:1;stroke:none;stroke-width:.231144px;stroke-linecap:butt;stroke-linejoin:miter;stroke-opacity:1" transform="translate(-60.446 -16.567) scale(1.14467)"/></g></svg>