<svg xmlns="http://www.w3.org/2000/svg" width="200" height="200" aria-labelledby="pfsense-logo-svg" viewBox="0 0 88.2 84.2"><path fill="#fff" class="prefix__pf0" d="M27.8 57.7c2.9 0 5.4-.9 7.5-2.6 2.1-1.7 3.6-4 4.4-6.8.8-2.8.6-5.1-.5-6.8-1.1-1.7-3.2-2.6-6.1-2.6-2.9 0-5.4.9-7.5 2.6-2.1 1.7-3.5 4-4.3 6.8-.8 2.8-.7 5.1.5 6.8 1 1.8 3 2.6 6 2.6"/><path fill="#fff" class="prefix__pf1" d="M52.6 38.9l2.6-9.2h4.6l1.8-6.6c.6-2 1.3-4 2.2-5.8.8-1.8 2-3.4 3.4-4.8s3.2-2.5 5.3-3.3c2.1-.8 4.8-1.2 7.9-1.2.8 0 1.5 0 2.3.1-.7-2.9-3.3-5-6.3-5.1H11.9C8.3 3 5.4 6 5.4 9.6V67l10.5-37.3h10.6l-1.4 4.9h.2c.6-.7 1.4-1.3 2.4-2s2-1.3 3.1-1.9c1.1-.6 2.3-1 3.6-1.4 1.3-.4 2.6-.5 3.9-.5 2.8 0 5.1.5 7.1 1.4 2 .9 3.5 2.3 4.7 4 1 1.5 1.6 3.3 1.9 5.4l.8-.6h-.2z"/><path fill="#fff" class="prefix__pf2" d="M82.1 17.9c-.5-.1-1.1-.2-1.8-.2-1.8 0-3.3.4-4.5 1.2-1.1.8-2.1 2.4-2.8 4.9l-1.7 5.9h6.5l1.6 5.1-4.2 4.1h-6.5l-7.9 28H49.4l7.9-28h-4.4l-.9.6c0 .2.1.5.1.7.2 2.3-.1 4.9-.9 7.7-.7 2.6-1.8 5.1-3.3 7.5-1.5 2.4-3.2 4.5-5.1 6.3-2 1.8-4.2 3.3-6.6 4.4-2.4 1.1-4.9 1.6-7.6 1.6-2.4 0-4.5-.4-6.4-1.1-1.9-.7-3.2-2-4-3.8H18l-5 17.7h63.3c3.6 0 6.6-2.9 6.6-6.6V18.2c-.3-.1-.6-.2-.8-.3"/></svg>