<svg width="1024" height="1024" xmlns:xlink="http://www.w3.org/1999/xlink" xmlns="http://www.w3.org/2000/svg"><defs><clipPath id="prefix__b"><use xlink:href="#prefix__a" clip-rule="evenodd"/></clipPath><path id="prefix__a" d="M0 0h1024v1024H0z"/></defs><g clip-path="url(#prefix__b)"><use xlink:href="#prefix__a" fill="#FFF" fill-opacity="0"/><path d="M175.302 175.943l7.522 714.55c-60.173 7.521-105.302-22.566-105.302-82.738L70 213.55C70 25.511 242.996-19.618 348.298 55.598L882.33 363.982c75.216 52.651 90.259 150.431 52.651 218.125-7.521-52.65-30.086-82.737-75.216-112.823l-601.726-338.47c-45.129-30.087-82.737-22.565-82.737 45.13z" fill="#24292E"/><path d="M130.172 928.1c45.13 15.044 90.26 7.522 127.867-15.042l616.77-361.036c37.607 52.65 30.086 105.302-15.044 135.388L340.776 988.273c-75.216 37.608-172.996 0-210.604-60.172z" fill="#24292E"/><path d="M310.69 717.496l368.557-210.604L318.212 303.81l-7.522 413.687z" fill="#FFC230"/></g></svg>