<svg viewBox="0 0 204.545 250" xmlns="http://www.w3.org/2000/svg"><path d="M11.364 0h181.818a11.364 11.364 0 0 1 11.363 11.364v45.454a11.364 11.364 0 0 1-11.363 11.364H11.364A11.364 11.364 0 0 1 0 56.818V11.364A11.364 11.364 0 0 1 11.364 0m0 90.91h181.818a11.364 11.364 0 0 1 11.363 11.363v45.454a11.364 11.364 0 0 1-11.363 11.364H11.364A11.364 11.364 0 0 1 0 147.727v-45.454a11.364 11.364 0 0 1 11.364-11.364m0 90.91h181.818a11.364 11.364 0 0 1 11.363 11.363v45.454A11.364 11.364 0 0 1 193.182 250H11.364A11.364 11.364 0 0 1 0 238.636v-45.454a11.364 11.364 0 0 1 11.364-11.364M68.182 45.455h11.363V22.727H68.182v22.728m0 90.909h11.363v-22.728H68.182v22.728m0 90.909h11.363v-22.728H68.182v22.728M22.727 22.727v22.728h22.728V22.727H22.727m0 90.91v22.727h22.728v-22.728H22.727m0 90.91v22.727h22.728v-22.728z"/></svg>