<svg xmlns="http://www.w3.org/2000/svg" width="200.719" height="135.969"><path d="M100.469 0L16.156 24.531 0 44.97l73.375 25.593L94.656 44.75l5.594 2.375 5.594-2.375L128 71.219l72.719-25.813-17-22.156L100.469 0zm0 6.688l58.969 17.406-58.97 16.562-59.593-17.218 59.594-16.75zm4.625 51.187l-.219 77.875 78.313-32.063.218-43.656-58.719 19.344-17.218-21.5h-2.375zm-11.281.219l-17.22 21.5L17.876 60.25l.219 43.656 78.312 32.063-.219-77.875h-2.374z" fill="#644d3f"/><text style="line-height:125%;-inkscape-font-specification:Arial" x="249.546" y="204.766" font-size="64" font-weight="400" letter-spacing="0" word-spacing="0" font-family="Arial" transform="translate(-180.906 -335.344)"/></svg>