<svg xml:space="preserve" viewBox="0 0 512 512" xmlns="http://www.w3.org/2000/svg"><path d="M116.6 511.4c9.5-16.7 20.1-33.2 30-49.8l15.2-25.2c3.1-5.1 6.1-10.4 9.5-15.4.6-.9.8-1.2 1.7-1.7l.1 46.3c0 7.5.8 17.8-.7 25-.1.6-.3 1.2-.5 1.9l-.6 1.8c-.2.6-.5 1.2-.7 1.8-.3.6-.5 1.2-.8 1.7-.3.6-.6 1.1-1 1.7-.3.5-.7 1.1-1.1 1.6l-1.2 1.5c-.4.5-.8 1-1.3 1.4-6.3 6.4-14.1 7.8-22.7 7.8h-3.2c-3.9-1-17.8-.4-22.7-.4M365.4 185c8.4-.4 16.9-.1 25.3-.1 8.2 0 21.8-.9 29.4.8 3.9.9 7.8 2.9 10.8 5.6 5.3 4.6 8.6 11.4 9.1 18.4.4 6.1.1 12.3.1 18.4v245.5c0 4.6.3 9.5-.2 14.1-.1.7-.2 1.4-.3 2-.1.7-.3 1.3-.5 2s-.4 1.3-.6 2-.5 1.3-.8 1.9-.6 1.3-.9 1.9-.7 1.2-1 1.8c-.4.6-.8 1.1-1.2 1.7s-.8 1.1-1.3 1.6c-5.2 5.9-11.8 8.4-19.5 8.9-9.5.3-19 .1-28.5.1-8 0-18.8.9-26.4-.8-3.9-.9-7.6-2.9-10.7-5.5-5.2-4.5-8.7-11.1-9.2-17.9-.5-6.2-.2-12.6-.1-18.8V222.2c0-4.5-.3-9.3.2-13.8.6-5.3 3-10.6 6.5-14.6 5.5-5.9 12-8.2 19.8-8.8m-112.2 99.7c5.8-.1 11.5-.1 17.3-.1 10.5 0 20-.3 28 7.5 7 6.9 8 14.4 8.1 23.8V469c0 6.9.6 14.4-.5 21.2-.8 5.3-3.5 10-7.3 13.8-.8.8-1.7 1.6-2.6 2.3s-1.9 1.4-2.9 2-2.1 1.1-3.2 1.5-2.2.8-3.4 1.1c-6.5 1.6-14.2.9-20.9.9h-28.5c-9.3 0-17-.8-23.9-7.8-.5-.5-.9-1-1.3-1.4l-1.2-1.5c-.4-.5-.7-1.1-1.1-1.6-.3-.6-.7-1.1-1-1.7s-.6-1.2-.8-1.8c-.3-.6-.5-1.2-.7-1.8s-.4-1.3-.6-1.9-.3-1.3-.4-1.9c-1-5.5-.6-11.3-.6-16.8v-24.4c0-27.3-.4-54.8 0-82.1 0-1.6 0-3.2.2-4.7-.3-2-.2-4.2-.2-6.3v-27.8c0-7.5-.8-16.2 1-23.5.3-1.2.7-2.3 1.1-3.4s1-2.2 1.5-3.3c.6-1.1 1.2-2.1 2-3q1.05-1.5 2.4-2.7c7.3-7.2 16.4-7.5 26-7.5z" style="fill:#3a6cec"/><path d="M139.3 511.7c-6.3.3-12.7.1-19 .1h-14.1c-10 0-19.1-.3-26.6-7.8-4.2-4.2-6.7-10.1-7.4-16-.5-4.4-.3-9-.3-13.4v-327c0-8.5 1.7-16.1 8-22.2.9-.8 1.8-1.6 2.7-2.3 1-.7 2-1.4 3-1.9 1-.6 2.1-1.1 3.2-1.5s2.3-.8 3.4-1c7.2-1.7 15.5-.9 22.9-.9h28.5c8.2 0 15.6 1.9 21.5 7.9 3.8 3.9 6.7 9.6 7.4 15 .5 3.7.3 7.7.3 11.4v199.6c0 22.5.2 45.1 0 67.7l.1 46.3c0 7.5.8 17.8-.7 25-.1.6-.3 1.2-.5 1.9l-.6 1.8c-.2.6-.5 1.2-.7 1.8-.3.6-.5 1.2-.8 1.7-.3.6-.6 1.1-1 1.7-.3.5-.7 1.1-1.1 1.6l-1.2 1.5c-.4.5-.8 1-1.3 1.4-6.3 6.4-14.1 7.8-22.7 7.8-.8-.1-1.9-.1-3-.2m66.5-149.6c-.3-2-.2-4.2-.2-6.3V328c0-7.5-.8-16.2 1-23.5.3-1.2.7-2.3 1.1-3.4s1-2.2 1.5-3.3c.6-1.1 1.2-2.1 2-3q1.05-1.5 2.4-2.7c7.3-7.2 16.4-7.5 26-7.5l13.6.1c-1.9 1.8-5.5 9.4-7.2 12.1-5.1 8.4-36.8 62.5-40.2 65.3" style="fill:#1b4ed9"/><path d="M306.3 196.5c-.4 11.6.1 23.4 0 35.1-.4 7-3.2 13.3-8.4 18.1-4.7 4.3-10.4 6.5-16.7 6.7-3.6-.1-7.3 0-10.9 0 12.1-19.9 24.1-39.9 36-59.9m34.1-57.4c-.8-2.5-1-5-1.1-7.6-.3-6.6-.1-13.2-.1-19.8V43.8c0-5.8-.2-11.8.1-17.6.2-3.4.7-6.5 2-9.6 2.8-6.4 8.1-11.8 14.6-14.4 2.5-1 5.1-1.5 7.8-1.7 7.8-.6 15.9-.2 23.7-.2 9.5 0 19.2-.5 28.7.3 2.5.2 5.1.5 7.4 1.5 7.3 3.6 12.9 8.9 15.4 16.8.8 2.6 1 5.7 1.1 8.4.3 7.2.1 14.6.1 21.8V117c0 5.4.2 11-.2 16.4-.3 3.7-1.3 7.1-3.1 10.4-.2.4-.4.7-.6 1.1s-.5.7-.7 1.1-.5.7-.8 1-.5.7-.8 1-.6.7-.9 1l-.9.9-.9.9c-.3.3-.6.6-1 .8-.3.3-.7.5-1 .8s-.7.5-1.1.7-.7.5-1.1.7-.7.4-1.1.6l-1.2.6c-.4.2-.8.3-1.2.5s-.8.3-1.2.5c-.4.1-.8.3-1.2.4-2.3.6-4.6 1-7 1.2-9.2.6-18.8.1-28 .1-7.8 0-16.3.7-24-.4-1.7-.2-3.3-.6-4.9-1.1s-3.1-1.2-4.6-2.1c-6-3.3-10-8.7-12.2-15" style="fill:#3e3e3e"/><path d="M281.1 256.4c-3.6.8-48.6.4-53.5-.3-7-1-12.7-4.5-16.9-10.3-2.8-3.8-4.4-8.1-4.9-12.8-.5-5.4-.3-10.9-.3-16.3V53.4c0-9.1-.8-23 .6-31.7 1.1-6.5 5.2-12.7 10.6-16.5l2.4-1.5c.8-.4 1.7-.9 2.5-1.2.9-.4 1.7-.7 2.6-.9q1.35-.45 2.7-.6c8.5-1.5 19.2-.6 27.9-.6 9 0 21.5-.9 30.1.6 6.7 1.2 12.5 4.8 16.4 10.4 2.8 4.1 4.3 8.5 4.8 13.5.5 5.5.2 11.1.2 16.7v117.1l.1 48.3c0 6.5.8 18.7-.3 24.8-.4 7-3.2 13.3-8.4 18.1-4.6 4-10.3 6.3-16.6 6.5m59.3-117.3c-.8-2.5-1-5-1.1-7.6-.3-6.6-.1-13.2-.1-19.8V43.8c0-5.8-.2-11.8.1-17.6.2-3.4.7-6.5 2-9.6 2.8-6.4 8.1-11.8 14.6-14.4 2.5-1 5.1-1.5 7.8-1.7 7.8-.6 15.9-.2 23.7-.2 9.5 0 19.2-.5 28.7.3 2.5.2 5.1.5 7.4 1.5l-57.9 96.1c-5.5 9.3-11.1 18.6-16.7 27.9-2.5 4-5.1 9.7-8.5 13M99.4.3c8.8-.4 17.8-.1 26.6-.1 8.5 0 19-.9 27.3 1q1.5.3 3 .9c1.5.6 1.9.8 2.8 1.3s1.8 1 2.6 1.6 1.6 1.2 2.4 1.9c5.9 5.4 8.6 12.6 8.9 20.5.3 6.6 0 13.3 0 19.9 0 12.2 1.7 25.3-7.4 34.9-5.4 5.7-12.1 7.8-19.7 8-8.6.5-17.4.2-26.1.2-8.6 0-19.8.9-28-1-4-.9-7.6-2.9-10.7-5.6-5.7-5.1-8.6-12.1-9-19.7-.4-5.6-.1-11.6-.1-17.4 0-8-1-18.7 1-26.4.3-1.1.6-2.1 1-3.2.4-1 .9-2 1.4-3s1.1-1.9 1.7-2.8 1.3-1.8 2.1-2.6c5.5-6 12.2-8 20.2-8.4" style="fill:#202020"/></svg>