<svg xmlns="http://www.w3.org/2000/svg" width="352.862" height="156.869"><g fill="#fff"><text style="line-height:0%" x="-459.071" y="-560.056" transform="translate(907.063 1000.902) scale(1.67805)" font-weight="400" font-family="sans-serif" letter-spacing="0" word-spacing="0" fill="#000"><tspan style="line-height:1.25" x="-459.071" y="-560.056" font-size="23.837"></tspan></text><g fill="#ee304d" stroke-width="1.192" font-weight="400" font-family="Smoothy" letter-spacing=".162" word-spacing="0"><path style="line-height:125%;-inkscape-font-specification:Smoothy;text-align:start" d="M135.7 77.935q3.718 0 6.971 1.427 3.254 1.36 5.511 3.874 2.258 2.446 2.988 5.572.065.271.066.68 0 1.018-.73 1.63-.664.544-1.793.544h-2.59q-1.128 0-1.725-.476-.532-.544-1.196-1.767-.995-1.63-3.054-2.65-1.992-1.02-4.448-1.02-3.254 0-5.71 1.768-2.39 1.766-2.39 4.145 0 2.174 2.19 3.465 2.258 1.223 7.902 2.922 4.647 1.427 7.768 2.854 3.187 1.36 5.51 4.145 2.39 2.786 2.39 7.135 0 4.01-2.39 7.407-2.39 3.33-6.44 5.3-4.05 1.971-8.83 1.971-4.183 0-7.901-1.495-3.652-1.563-6.175-4.28-2.456-2.719-3.253-6.049-.066-.271-.067-.747 0-1.02.664-1.563.664-.544 1.86-.544h2.522q1.13 0 1.727.544.597.476 1.195 1.699 1.062 2.038 3.651 3.33 2.59 1.29 5.777 1.29 2.656 0 4.98-.95 2.323-.952 3.651-2.515 1.394-1.563 1.394-3.398 0-1.495-.996-2.514-.929-1.087-3.054-1.97-2.124-.884-6.174-2.107-4.648-1.427-7.769-2.786-3.12-1.427-5.444-4.145-2.324-2.718-2.324-7 0-3.737 2.125-6.863 2.125-3.193 5.71-5.028 3.651-1.835 7.9-1.835zM164.612 78.616c-.709 0-1.262.157-1.66.474-.399.272-.598.658-.598 1.157 0 .498.2 1.063.598 1.697l11.384 16.5 4.705-6.42-8.056-11.711c-.443-.589-.93-1.02-1.461-1.291-.487-.272-1.085-.406-1.793-.406zm32.334 0c-.709 0-1.306.134-1.793.406-.487.226-.952.636-1.395 1.225l-8.25 11.294-8.18 11.264c.585.891.893 1.906.893 3.059v17.6c0 1.811.886 2.718 2.656 2.718h2.125c1.77 0 2.657-.907 2.657-2.719v-17.6c0-1.222.376-2.356 1.128-3.398l15.004-20.521c.487-.634.731-1.2.73-1.697 0-.499-.22-.885-.663-1.157-.399-.317-.952-.474-1.66-.474zM216.932 78.614c-1.77 0-2.654.906-2.654 2.718v42.131c0 1.812.883 2.72 2.654 2.72h2.125c1.77 0 2.656-.908 2.656-2.72v-17.802c0-.725.11-1.292.332-1.7.266-.407.598-.611.996-.61.709 0 1.284.564 1.727 1.696l7.834 19.028c.575 1.404 1.594 2.107 3.055 2.107h3.718c1.461 0 2.478-.703 3.053-2.107l7.836-19.028c.03-.077.066-.13.098-.203l10.215-24.728c-.339-1-1.164-1.5-2.479-1.5v-.002h-2.922c-1.46 0-2.479.703-3.055 2.107l-12.814 31.258c-.487 1.132-1.085 1.7-1.793 1.7s-1.304-.568-1.79-1.7L222.908 80.72c-.576-1.404-1.594-2.107-3.055-2.107h-2.922zm43.822 14.039l-7.437 18.16v12.65c0 1.812.885 2.72 2.656 2.72h2.125c1.77 0 2.656-.908 2.656-2.72zM274.725 78.616c-1.77 0-2.654.904-2.654 2.716v4.893H293.45c1.814 0 3.185.613 4.115 1.836.974 1.223 1.46 2.718 1.46 4.484 0 1.812-.486 3.353-1.46 4.621-.93 1.224-2.323 1.834-4.182 1.834h-11.22l-2.657.004v-.029h-7.435v24.488c0 1.813.883 2.72 2.654 2.72h2.125c1.77 0 2.656-.908 2.656-2.72V109.33c0-1.812.886-2.717 2.656-2.717h11.221c2.479 0 4.713-.59 6.705-1.768 1.992-1.223 3.542-2.898 4.649-5.027 1.15-2.13 1.726-4.553 1.726-7.272 0-2.672-.575-5.073-1.726-7.203-1.107-2.129-2.657-3.783-4.649-4.96-1.992-1.178-4.204-1.766-6.638-1.766h-18.725zM329.159 78.616c-1.505 0-2.524.7-3.055 2.105l-16.531 42.334a3.22 3.22 0 00-.268 1.291c0 .59.2 1.042.598 1.36.398.317.974.476 1.726.476h2.79c1.504 0 2.523-.703 3.054-2.107l2.258-5.707c.01-.028.024-.051.035-.078l4.865-12.385c.043-.24.107-.48.211-.72l4.45-11.417c.11-.283.23-.53.36-.742l.003-.004 5.402-13.752c-.535-.431-1.214-.654-2.047-.654h-3.852zm8.777 6.898l-4.137 10.621 3.526 9.049c.177.408.265.815.265 1.223 0 .589-.221 1.065-.664 1.427-.398.318-.974.477-1.726.477h-6.188l-3.096 7.95h13.467c1.505 0 2.524.702 3.055 2.107l2.256 5.707c.53 1.404 1.55 2.107 3.054 2.107h2.79c.752 0 1.328-.16 1.726-.476.398-.318.597-.771.598-1.36 0-.453-.089-.883-.266-1.29z"/></g><path style="line-height:normal;text-indent:0;text-align:start;text-decoration-line:none;text-decoration-style:solid;text-decoration-color:#000;text-transform:none;white-space:normal;isolation:auto;mix-blend-mode:normal;solid-color:#000;solid-opacity:1" d="M95.214 28.867a57.525 57.525 0 018.422 2.468l2.104.796-1.59 4.21-2.105-.795a53.202 53.202 0 00-15.973-3.357l-2.247-.121.242-4.495 2.247.12a58.01 58.01 0 018.9 1.174zm41.046 33.354l.822 2.095c1.382 2.52 2.354 6.766 2.708 9.444l-4.632.157c-.376-3.312-1.223-6.11-2.26-7.952l-.826-2.093zM29.685 83.318l.001 2.25a53.4 53.4 0 002.63 16.614l.7 2.139-4.278 1.399-.7-2.139a57.936 57.936 0 01-2.852-18.014v-2.25zm93.686 45.513c-3.014 2.71-10.38 6.865-11.915 7.321l-1.96 1.103-2.2-3.927 1.959-1.1c1.999-.852 8.716-4.57 10.546-6.63zm-41.44 10.228l-.287 4.491-2.244-.14a57.924 57.924 0 01-8.828-1.252l-2.2-.485.974-4.395 2.195.487c2.646.586 5.368.977 8.147 1.154l2.244.14z" color="#000" font-weight="400" font-family="sans-serif" overflow="visible" fill="#ee304d"/><path d="M145.713 49.09a23.622 23.622 0 01-8.707 15.641 23.82 23.82 0 01-3.89 2.538 23.59 23.59 0 01-13.781 2.495C106.34 68.19 97.085 56.38 98.659 43.386c1.576-12.994 13.386-22.25 26.38-20.675 12.993 1.575 22.25 13.385 20.674 26.378z" fill="#ac0e26"/><path d="M111.936 141.517a16.347 16.348 79.246 01-18.195 14.261 16.347 16.348 79.246 01-14.262-18.195 16.347 16.348 79.246 0118.196-14.262 16.347 16.348 79.246 0114.261 18.196z" fill="#f68c9c"/><path d="M75.08 129.961a29.131 29.131 79.285 01-32.426 25.414A29.131 29.131 79.285 0117.24 122.95a29.131 29.131 79.285 0132.426-25.414A29.131 29.131 79.285 0175.08 129.96z" fill="#e31333"/><path d="M89.63 50.816A44.49 44.49 79.225 0140.108 89.63a44.49 44.49 79.225 01-38.812-49.52 44.49 44.49 79.225 0149.52-38.813 44.49 44.49 79.225 0138.814 49.52z" fill="#f1556d"/><path style="line-height:normal;text-indent:0;text-align:start;text-decoration-line:none;text-decoration-style:solid;text-decoration-color:#000;text-transform:none;white-space:normal;isolation:auto;mix-blend-mode:normal;solid-color:#000;solid-opacity:1" d="M88.515 32.35c-1.518-.222-4.561-.241-5.37-.241-29.552 0-53.237 26.01-53.237 55.562-1.405-.495-3.78-1.497-4.746-2.05.471-31.578 26.294-58.012 57.984-58.012.875 0 2.184-.013 3.675.15.614 1.36 1.246 2.901 1.694 4.592zm14.883-1.138c15.233 5.81 28.184 18.407 34.132 33.572-.491.595-2.55 1.893-4.002 2.622-5.483-13.98-18.639-26.822-32.681-32.179.8-1.825 1.539-2.745 2.55-4.015zm-71.452 69.345c5.863 17.825 22.834 33.402 41.42 37.418-.816 1.813-1.197 2.964-2.28 4.31-19.779-4.58-36.889-19.986-43.162-39.06a27.455 27.455 0 014.022-2.668zm80.262 35.573c-8.307 4.597-18.907 7.396-29.064 7.396-.903 0-2.926-.083-3.82-.124-.473-1.316-.567-3.008-.444-4.533 1.07.064 3.179.157 4.265.157 9.384 0 19.727-3.224 27.387-7.464 1.267 1.863 1.676 4.568 1.676 4.568z" color="#000" font-weight="400" font-family="sans-serif" overflow="visible"/><path d="M146.84 48.946a24.503 24.503 0 01-9.031 16.225 24.709 24.709 0 01-4.036 2.632 24.47 24.47 0 01-14.295 2.589C106 68.758 96.398 56.507 98.032 43.029c1.634-13.478 13.885-23.08 27.363-21.446 13.478 1.634 23.08 13.885 21.446 27.363z" fill="none"/><path d="M90.595 50.933a45.462 45.463 79.225 01-50.604 39.66A45.462 45.463 79.225 01.331 39.992 45.462 45.463 79.225 0150.933.331a45.462 45.463 79.225 0139.66 50.602zM75.957 130.067a30.015 30.015 79.3 01-33.41 26.185 30.015 30.015 79.3 01-26.184-33.409 30.015 30.015 79.3 0133.409-26.185 30.015 30.015 79.3 0126.185 33.41z" fill="none"/><path d="M112.902 141.634a17.32 17.32 79.1 01-19.278 15.11 17.32 17.32 79.1 01-15.11-19.278 17.32 17.32 79.1 0119.278-15.11 17.32 17.32 79.1 0115.11 19.278z" fill="none"/></g></svg>