<svg xmlns="http://www.w3.org/2000/svg" width="250" height="253.24" viewBox="0 0 66.146 67.003"><g fill="#f49700"><path d="M50.047 46.173a9.182 9.182 0 01-2.824.403c-8.51 0-21.005-29.738-21.005-39.636 0-3.642.862-4.859 2.08-5.902-10.416 1.216-22.913 5.037-26.91 9.896C.524 12.152 0 14.059 0 16.491c0 15.452 16.492 50.512 28.126 50.512 5.381 0 14.454-8.848 21.92-20.83M44.614 0c10.762 0 21.532 1.736 21.532 7.81 0 12.325-7.817 27.26-11.806 27.26-7.118 0-15.972-19.794-15.972-29.692C38.368.865 40.103 0 44.614 0"/></g></svg>