<svg xmlns:xlink="http://www.w3.org/1999/xlink" viewBox="0 0 100 100" xmlns="http://www.w3.org/2000/svg"><defs><filter id="c" width="139.9%" height="140.3%" x="-20%" y="-11.7%" filterUnits="objectBoundingBox"><feOffset dy="4" in="SourceAlpha" result="shadowOffsetOuter1"/><feGaussianBlur in="shadowOffsetOuter1" result="shadowBlurOuter1" stdDeviation="2.5"/><feComposite in="shadowBlurOuter1" in2="SourceAlpha" operator="out" result="shadowBlurOuter1"/><feColorMatrix in="shadowBlurOuter1" values="0 0 0 0 0 0 0 0 0 0 0 0 0 0 0 0 0 0 0.0906646286 0"/></filter><filter id="e" width="191.3%" height="269.6%" x="-45.7%" y="-49.1%" filterUnits="objectBoundingBox"><feOffset dy="4" in="SourceAlpha" result="shadowOffsetOuter1"/><feGaussianBlur in="shadowOffsetOuter1" result="shadowBlurOuter1" stdDeviation="2.5"/><feComposite in="shadowBlurOuter1" in2="SourceAlpha" operator="out" result="shadowBlurOuter1"/><feColorMatrix in="shadowBlurOuter1" values="0 0 0 0 0 0 0 0 0 0 0 0 0 0 0 0 0 0 0.0906646286 0"/></filter><path id="a" d="M48 17.6 32.8 48H24L.4.8h15.2l12.8 25.6 4.4-8.8z"/><path id="d" d="M50.8 12H35.6L41.2.8h15.2z"/></defs><g fill="none" fill-rule="evenodd"><rect width="100" height="100" fill="#F7F8F6" rx="37"/><g transform="translate(22 29)"><use xlink:href="#a" fill="#000" filter="url(#c)"/><path fill="#405236" stroke="#405236" stroke-linejoin="square" stroke-width="2.4" d="M46.058 18.8H33.542L28.4 29.083 14.858 2H2.342l22.4 44.8h7.316z"/></g><g transform="translate(22 29)"><use xlink:href="#d" fill="#000" filter="url(#e)"/><path fill="#CD4000" stroke="#CD4000" stroke-linejoin="square" stroke-width="2.4" d="m50.058 10.8 4.4-8.8H41.942l-4.4 8.8z"/></g><path fill="#4A5E3F" stroke="#405236" stroke-width="2.4" d="m54.06 75.8 2.575-5.112L36.857 31H24.342l22.4 44.8z"/><path stroke="#CD4000" stroke-linecap="square" stroke-width="2.4" d="M59.6 31h15.221M55.6 35h15.221M51.6 39.8h15.221"/></g></svg>