<svg xmlns="http://www.w3.org/2000/svg" width="256" height="256"><path d="M43.693 170.327c-14.31-.06-42.675-37.083-42.654-41.873.013-2.977 28.462 18.514 42.755 18.573 14.343.06 43.167-21.197 43.154-18.216-.02 4.786-28.928 41.575-43.255 41.516z" fill="#58cc00"/><path d="M212.307 85.673c14.31.06 42.675 37.083 42.654 41.873-.013 2.977-28.462-18.514-42.755-18.573-14.343-.06-43.167 21.197-43.154 18.216.02-4.786 28.928-41.575 43.255-41.516z" fill="#005ebd"/><path d="M192.746 59.39c13.467-4.837 52.785 20.252 54.403 24.76 1.006 2.801-33.077-7.663-46.53-2.83-13.497 4.85-33.313 34.683-34.32 31.878-1.617-4.505 12.963-48.963 26.447-53.807zM63.254 196.61c-13.467 4.837-52.785-20.252-54.403-24.76-1.006-2.801 33.077 7.663 46.53 2.83 13.497-4.85 33.313-34.683 34.32-31.878 1.617 4.505-12.963 48.963-26.447 53.807z" fill="#005ebd"/><path d="M165.376 41.384c11-9.152 56.527.976 59.59 4.659 1.904 2.288-33.703 4.113-44.691 13.255-11.025 9.174-19.443 43.985-21.349 41.693-3.06-3.68-4.564-50.443 6.45-59.607zM90.624 214.616c-11 9.152-56.527-.976-59.59-4.659-1.904-2.289 33.703-4.113 44.691-13.255 11.025-9.174 19.443-43.985 21.349-41.693 3.06 3.68 4.564 50.443-6.45 59.607z" fill="#005ebd"/><path d="M133.498 33.824c7.205-12.362 53.452-18.416 57.59-16.003 2.57 1.5-30.265 15.392-37.463 27.741-7.223 12.392-3.226 47.982-5.801 46.48-4.134-2.41-21.542-45.84-14.326-58.218zM122.502 222.176c-7.205 12.362-53.452 18.416-57.59 16.003-2.57-1.5 30.265-15.392 37.463-27.742 7.223-12.39 3.226-47.981 5.801-46.48 4.135 2.411 21.542 45.84 14.326 58.219z" fill="#005ebd"/><path d="M100.956 37.623c2.543-14.08 43.93-35.587 48.643-34.735 2.93.53-23.174 24.815-25.715 38.882-2.549 14.114 13.38 46.191 10.446 45.661-4.71-.852-35.92-35.708-33.374-49.808zM155.044 218.377c-2.543 14.08-43.93 35.587-48.643 34.735-2.93-.53 23.174-24.815 25.715-38.882 2.549-14.114-13.38-46.191-10.446-45.661 4.71.852 35.92 35.708 33.374 49.808z" fill="#005ebd"/><path d="M71.676 52.323c-2.426-14.102 29.11-48.466 33.83-49.277 2.934-.504-13.29 31.244-10.866 45.331 2.432 14.136 28.37 38.83 25.433 39.335-4.717.81-45.967-21.268-48.397-35.389zM184.324 203.676c2.426 14.102-29.11 48.466-33.83 49.277-2.934.505 13.29-31.244 10.866-45.33-2.432-14.136-28.37-38.831-25.433-39.336 4.717-.81 45.967 21.269 48.397 35.39z" fill="#005ebd"/><path d="M49.19 76.15c-7.103-12.42 10.777-55.498 14.936-57.875 2.584-1.477-1.802 33.906 5.293 46.314 7.12 12.45 39.94 26.785 37.353 28.264-4.155 2.375-50.47-4.264-57.582-16.702zM206.81 179.849c7.103 12.421-10.777 55.499-14.936 57.875-2.584 1.478 1.802-33.905-5.294-46.314-7.12-12.45-39.94-26.785-37.352-28.264 4.155-2.375 50.47 4.265 57.582 16.703z" fill="#005ebd"/><path d="M36.21 106.232c-10.924-9.243-8.855-55.838-5.76-59.493 1.923-2.273 9.903 32.477 20.814 41.71 10.95 9.265 46.693 11.51 44.767 13.784-3.092 3.653-48.884 13.255-59.822 4zM219.79 149.767c10.924 9.243 8.855 55.838 5.76 59.494-1.923 2.272-9.903-32.477-20.815-41.71-10.949-9.265-46.692-11.51-44.766-13.785 3.092-3.653 48.884-13.254 59.821-3.999z" fill="#005ebd"/><path d="M34.3 138.94C20.875 133.99 6.882 89.496 8.54 85.002c1.03-2.793 20.413 27.132 33.825 32.076 13.457 4.962 47.813-5.155 46.782-2.358-1.657 4.49-41.403 29.175-54.847 24.218zM221.7 117.06c13.425 4.95 27.418 49.443 25.76 53.936-1.03 2.793-20.414-27.131-33.825-32.076-13.457-4.961-47.813 5.155-46.782 2.359 1.657-4.49 41.403-29.175 54.847-24.219z" fill="#005ebd"/></svg>