<svg viewBox="0 0 24 24" xmlns="http://www.w3.org/2000/svg"><path d="M4.95.75h14.16a4.233 4.233 45 0 1 4.234 4.233v14.062a4.233 4.233 135 0 1-4.233 4.234H4.95a4.233 4.233 45 0 1-4.234-4.234V4.983A4.233 4.233 135 0 1 4.95.749" style="fill:#14141c;fill-opacity:1;fill-rule:evenodd;stroke:#311a1a;stroke-width:1.41432;stroke-linecap:round;stroke-linejoin:round;stroke-miterlimit:4;stroke-dasharray:none;stroke-opacity:0;paint-order:markers fill stroke"/><path d="m14.273 6.129-3.04 7.43h-2.19l-.46-4.89-1.954 4.89H4.44l-.781-7.43h1.936l.267 5.408 2.125-5.408h1.99l.467 5.408 1.882-5.408zm3.362 6.117h-2.773l-.536 1.312H12.43l3.207-7.43h2.096l2.17 7.43h-1.916zm-.368-1.397-.731-2.72-1.1 2.72z" style="font-weight:700;font-size:40px;line-height:1.25;font-family:Poppins;-inkscape-font-specification:&quot;Poppins Bold&quot;;white-space:pre;fill:#bfcce7;fill-opacity:1;stroke-width:.264583" transform="translate(-1.004 1.128)scale(1.10464)"/></svg>