<svg fill="none" viewBox="0 0 100 100" xmlns="http://www.w3.org/2000/svg"><path fill="#FC3" d="M0 32.3c0 5.708 4.627 10.336 10.336 10.336 5.708 0 10.336-4.628 10.336-10.336s-4.628-10.336-10.336-10.336S0 26.592 0 32.3m0 51.68c0 5.707 4.627 10.335 10.336 10.335 5.708 0 10.336-4.627 10.336-10.336 0-5.708-4.628-10.336-10.336-10.336S0 78.271 0 83.98m3.876-25.84a6.46 6.46 0 1 0 12.92 0 6.46 6.46 0 0 0-12.92 0m0-51.68a6.46 6.46 0 1 0 12.92 0 6.46 6.46 0 0 0-12.92 0M39.664 67.7c0 5.708 4.627 10.336 10.336 10.336 5.708 0 10.336-4.628 10.336-10.336S55.708 57.364 50 57.364 39.664 61.992 39.664 67.7m3.876 25.84a6.46 6.46 0 1 0 12.92 0 6.46 6.46 0 0 0-12.92 0m0-51.68a6.46 6.46 0 1 0 12.92 0 6.46 6.46 0 0 0-12.92 0m0-25.84a6.46 6.46 0 1 0 12.92 0 6.46 6.46 0 0 0-12.92 0M79.328 32.3c0 5.708 4.628 10.336 10.336 10.336S100 38.008 100 32.3s-4.627-10.336-10.336-10.336c-5.708 0-10.336 4.628-10.336 10.336m3.876-25.84a6.46 6.46 0 1 0 12.92 0 6.46 6.46 0 0 0-12.92 0m0 51.68a6.46 6.46 0 1 0 12.92 0 6.46 6.46 0 0 0-12.92 0m0 25.84a6.46 6.46 0 1 0 12.92 0 6.46 6.46 0 0 0-12.92 0"/></svg>