<svg viewBox="0 0 918.535 111.3" xmlns="http://www.w3.org/2000/svg"><defs><path id="a" d="M876.105 22.104h38.344v62.425h-38.344z"/></defs><path d="m85.814 8.834-6.922 24.507h-3.366l-5.042-17.91a11.2 11.2 0 0 1-.393-2.495h-.068a12.7 12.7 0 0 1-.444 2.461l-5.075 17.944h-3.333L53.993 8.834h3.161l5.213 18.799q.324 1.179.41 2.461h.086q.084-.906.529-2.461L68.81 8.834h2.751l5.195 18.936q.273.974.41 2.29h.068q.067-.888.462-2.358l5.007-18.867zm3.86 2.563q-.753 0-1.282-.513-.53-.512-.529-1.299 0-.785.529-1.308.53-.52 1.282-.521.769.001 1.308.521.537.522.538 1.308 0 .753-.538 1.282-.54.53-1.308.53m1.367 21.944h-2.803v-17.5h2.803zm18.836 0h-2.803v-9.98q0-5.571-4.067-5.571-2.102 0-3.478 1.581t-1.376 3.99v9.98H95.35v-17.5h2.803v2.905h.068q1.981-3.315 5.742-3.315 2.871 0 4.392 1.854t1.521 5.357v10.699zm19.938 0h-2.803v-2.974h-.068q-1.949 3.384-6.016 3.384-3.298 0-5.272-2.35-1.973-2.35-1.974-6.4 0-4.341 2.188-6.955 2.187-2.615 5.828-2.615 3.605 0 5.246 2.837h.068V7.433h2.803zm-2.802-7.912v-2.581q0-2.118-1.401-3.589-1.402-1.47-3.555-1.47-2.564 0-4.033 1.88t-1.47 5.195q0 3.025 1.41 4.776 1.409 1.752 3.785 1.752 2.341 0 3.803-1.692 1.46-1.691 1.461-4.271m15.054 8.322q-3.88 0-6.195-2.452t-2.315-6.503q0-4.409 2.41-6.887 2.408-2.479 6.511-2.479 3.913 0 6.109 2.41 2.196 2.409 2.196 6.682 0 4.187-2.367 6.708t-6.349 2.521m.205-15.962q-2.701 0-4.272 1.837-1.573 1.838-1.572 5.067 0 3.11 1.59 4.905 1.589 1.793 4.255 1.794 2.717 0 4.179-1.761 1.461-1.76 1.461-5.007 0-3.281-1.461-5.059-1.462-1.775-4.18-1.776m33.768-1.948-5.246 17.5h-2.906l-3.605-12.527a8 8 0 0 1-.273-1.623h-.068q-.051.614-.359 1.59l-3.913 12.561h-2.803l-5.298-17.5h2.939L158.13 29q.17.599.239 1.572h.137a7.3 7.3 0 0 1 .308-1.606l4.033-13.125h2.563l3.623 13.193q.17.633.257 1.572h.137q.033-.666.29-1.572l3.555-13.193zm1.299 16.867V29.7q2.29 1.693 5.041 1.692 3.691 0 3.691-2.461 0-.7-.315-1.188a3.2 3.2 0 0 0-.854-.863 6.6 6.6 0 0 0-1.264-.675 91 91 0 0 0-1.564-.624 20 20 0 0 1-2.042-.932 6.2 6.2 0 0 1-1.47-1.06 3.95 3.95 0 0 1-.889-1.342q-.299-.751-.299-1.76 0-1.23.563-2.179a5 5 0 0 1 1.504-1.59 7 7 0 0 1 2.146-.966 9.5 9.5 0 0 1 2.485-.324q2.273 0 4.068.786v2.837q-1.933-1.265-4.444-1.265-.786 0-1.418.18a3.5 3.5 0 0 0-1.085.504 2.3 2.3 0 0 0-.7.777 2.05 2.05 0 0 0-.248 1q0 .683.248 1.146.248.46.726.82.48.358 1.162.648.685.291 1.557.633a22 22 0 0 1 2.084.914 7.2 7.2 0 0 1 1.572 1.06q.65.591 1 1.358.35.77.35 1.829.001 1.299-.572 2.256a4.9 4.9 0 0 1-1.529 1.589 7 7 0 0 1-2.205.94 11 11 0 0 1-2.614.308q-2.704.004-4.685-1.04m20.171-.358v-3.384q.581.513 1.393.923t1.709.692 1.803.436 1.676.154q2.648 0 3.955-.983 1.309-.982 1.309-2.828 0-.99-.437-1.726a4.9 4.9 0 0 0-1.205-1.342 12 12 0 0 0-1.82-1.162q-1.05-.556-2.265-1.171a40 40 0 0 1-2.393-1.315 10.4 10.4 0 0 1-1.93-1.471 6.1 6.1 0 0 1-1.29-1.819q-.472-1.017-.472-2.384 0-1.675.736-2.914a6.3 6.3 0 0 1 1.93-2.043 8.8 8.8 0 0 1 2.727-1.195 12.4 12.4 0 0 1 3.119-.394q3.623 0 5.281.872v3.229q-2.171-1.504-5.571-1.504a9 9 0 0 0-1.881.196 5.4 5.4 0 0 0-1.675.641q-.736.446-1.195 1.146-.463.701-.463 1.709 0 .94.352 1.624.348.683 1.033 1.247t1.666 1.094q.983.53 2.265 1.162 1.316.65 2.495 1.367a11.4 11.4 0 0 1 2.068 1.589 7.1 7.1 0 0 1 1.41 1.932q.522 1.06.521 2.427 0 1.812-.709 3.067a5.8 5.8 0 0 1-1.915 2.043q-1.206.785-2.776 1.136a15.3 15.3 0 0 1-3.316.351q-.58 0-1.436-.094a20 20 0 0 1-1.742-.273 14 14 0 0 1-1.684-.444q-.795-.266-1.273-.591m31.844-7.058h-12.355q.066 2.92 1.572 4.512 1.502 1.589 4.135 1.589 2.956 0 5.436-1.948v2.632q-2.308 1.675-6.102 1.675-3.71 0-5.828-2.384t-2.119-6.708q0-4.084 2.316-6.656t5.75-2.572q3.437 0 5.315 2.222 1.88 2.222 1.88 6.169zm-2.871-2.376q-.018-2.426-1.17-3.776-1.155-1.35-3.205-1.351-1.983 0-3.367 1.419-1.384 1.418-1.709 3.708zm15.719-4.238q-.735-.563-2.119-.563-1.793 0-2.999 1.691-1.205 1.692-1.204 4.614v8.921h-2.804v-17.5h2.804v3.605h.067q.599-1.844 1.829-2.879t2.752-1.034q1.093 0 1.674.239zm17.741-2.837-6.972 17.5h-2.752l-6.631-17.5h3.076l4.443 12.715q.495 1.402.616 2.443h.067q.17-1.315.547-2.375l4.648-12.783Zm15.74 9.451h-12.357q.067 2.92 1.573 4.512 1.503 1.589 4.135 1.589 2.957 0 5.436-1.948v2.632q-2.308 1.675-6.102 1.675-3.71 0-5.828-2.384t-2.119-6.708q0-4.084 2.316-6.656t5.75-2.572q3.437 0 5.314 2.222 1.882 2.222 1.882 6.169zm-2.872-2.376q-.018-2.426-1.17-3.776-1.155-1.35-3.205-1.351-1.983 0-3.367 1.419-1.385 1.418-1.709 3.708zm15.294-4.238q-.734-.563-2.118-.563-1.796 0-3 1.691-1.205 1.692-1.205 4.614v8.921h-2.803v-17.5h2.803v3.605h.068q.598-1.844 1.83-2.879 1.23-1.034 2.75-1.034 1.093 0 1.675.239zm19.275-3.418q0-1.128-.351-1.966a3.9 3.9 0 0 0-.957-1.393 3.9 3.9 0 0 0-1.427-.828 5.6 5.6 0 0 0-1.776-.273q-.822 0-1.607.222a8 8 0 0 0-1.529.615 9.4 9.4 0 0 0-1.436.94q-.692.547-1.289 1.213v-3.008a8.4 8.4 0 0 1 2.639-1.752q1.462-.606 3.564-.606 1.503 0 2.784.436a6.4 6.4 0 0 1 2.224 1.273 5.9 5.9 0 0 1 1.477 2.067q.538 1.23.538 2.82 0 1.453-.333 2.632a8.1 8.1 0 0 1-1.008 2.222 10.8 10.8 0 0 1-1.7 2 24 24 0 0 1-2.409 1.947 82 82 0 0 0-2.846 2.103q-1.12.871-1.778 1.632-.657.762-.923 1.521-.264.76-.264 1.752h12.201v2.512H296.05v-1.213q0-1.573.342-2.77a7.2 7.2 0 0 1 1.128-2.272q.785-1.077 2.059-2.153a58 58 0 0 1 3.119-2.427q1.333-.957 2.23-1.829a9.5 9.5 0 0 0 1.445-1.742 6.3 6.3 0 0 0 .776-1.77 7.6 7.6 0 0 0 .231-1.905m22.558 5.725q0 3.076-.555 5.451-.556 2.376-1.607 4.008t-2.58 2.478-3.479.847q-1.845 0-3.289-.813t-2.436-2.367q-.99-1.555-1.504-3.819-.513-2.263-.513-5.187.001-3.213.539-5.674.537-2.462 1.581-4.127 1.04-1.666 2.588-2.513 1.546-.845 3.547-.846 7.709 0 7.708 12.562m-2.871.274q0-10.46-4.973-10.459-5.246 0-5.246 10.646 0 9.93 5.143 9.93 5.076 0 5.076-10.117m13.254 12.082h-2.803V12.167q-.326.324-.947.743-.625.419-1.402.829t-1.641.769-1.684.563v-2.836a17 17 0 0 0 1.957-.692 24 24 0 0 0 2.033-.975 24 24 0 0 0 1.89-1.128 15 15 0 0 0 1.538-1.153h1.059zm-48.58-13.772a2.17 2.17 0 0 1-1.586-.654 2.16 2.16 0 0 1-.654-1.584q0-.93.654-1.585a2.16 2.16 0 0 1 1.586-.656q.928 0 1.582.656.656.655.656 1.585t-.656 1.584a2.15 2.15 0 0 1-1.582.654m.004-4.128c-.521 0-.97.184-1.338.552q-.557.553-.556 1.338-.001.782.556 1.333.553.555 1.338.554.782 0 1.332-.554a1.8 1.8 0 0 0 .551-1.333q.001-.784-.551-1.338a1.8 1.8 0 0 0-1.332-.552m1.084 3.291h-.516l-.309-.684q-.237-.517-.51-.516h-.194v1.199h-.438V15.88h.804q.498 0 .768.209.272.21.271.568 0 .29-.189.499a1 1 0 0 1-.531.278v.011q.236.051.471.526zm-1.529-2.48v.915h.353q.59 0 .589-.46 0-.266-.159-.359-.158-.096-.502-.096zM44.971 39.974h-.711v2.2h-.288v-2.2h-.708v-.26h1.707zm2.719 2.2h-.287v-1.65q.001-.195.023-.479h-.006q-.042.166-.074.239l-.84 1.891h-.141l-.841-1.877a1.5 1.5 0 0 1-.073-.253h-.007q.014.148.014.483v1.646h-.277v-2.46h.38l.756 1.716q.087.198.113.295h.01a5 5 0 0 1 .119-.302l.77-1.709h.361zM18.502 3.389v16.83h23.225V0zM0 20.219h16.865V3.627L0 6.087zm16.865 18.436v-16.8H0v14.312zm24.862-16.8H18.502v17.042l23.225 3.426z" style="fill:#001589;fill-opacity:1" transform="translate(2 2)scale(2.53528)"/><g style="font-size:8px;font-family:&quot;Segoe Pro&quot;;-inkscape-font-specification:&quot;Segoe Pro, Normal&quot;;white-space:pre;shape-inside:url(#a)" transform="translate(10.197 206.253)"><path d="M880.098 27.422q0 .531-.23.965-.227.434-.63.672-.402.238-.902.238-.84 0-1.32-.676-.477-.675-.477-1.886 0-.961.281-1.696.285-.738.805-1.136.52-.399 1.2-.399.577 0 .929.16v.606q-.434-.223-.914-.223-.742 0-1.192.668-.445.664-.445 1.774h.016q.386-.793 1.277-.793.727 0 1.164.476.438.473.438 1.25m-.657.082q0-.586-.289-.926-.285-.34-.8-.34-.47 0-.79.333-.32.328-.32.796 0 .59.317.989.32.394.804.394.48 0 .778-.343.3-.348.3-.903" aria-label="6" style="fill:#001589" transform="matrix(10.8233 0 0 10.8502 -8619.227 -437.618)"/></g></svg>