<svg viewBox="0 0 377.953 378.02" xmlns="http://www.w3.org/2000/svg"><path d="M118.727 39.117c-35.728.55-72.068 9.19-95.411 4.999-1.752-.31-2.848 1.782-1.577 3.02 19.685 18.687 27.148 37.58 49.014 40.123l.637.134c-10.1 10.409-18.728 24.045-24.792 41.6-6.527 18.825-8.37 39.268-10.534 62.869-3.263 35.143-6.899 74.934-26.738 124.832A329 329 0 0 0 0 343.969v34.05h21.84a295 295 0 0 1 15.03-50.422c21.419-53.883 25.437-97.77 28.683-133.052 1.992-21.694 3.767-40.45 9.091-55.857 15.545-44.745 52.598-54.58 81.489-48.98 28.032 5.427 55.59 27.36 54.146 58.742-1.03 21.334-10.357 30.918-17.176 37.943-3.728 3.848-7.274 7.494-8.958 12.681-4.053 12.264.14 25.947 11.34 36.803 29.68 27.671 45.797 79.689 44.92 142.143h29.624c.79-70.648-18.645-130.566-54.08-163.648-2.8-2.696-3.59-4.805-4.26-4.462 1.631-2.06 4.316-4.483 6.206-6.44 39.214-29.08 103.856-2.526 142.881 12.882 10.117 3.985 15.02-5.788 5.401-11.507-33.494-19.805-102.124-72.08-140.6-106.381-5.376-4.724-9.08-10.411-15.298-15.667-20.749-36.62-55.842-44.212-91.552-43.68m47.034 80.448a20 20 0 0 0-2.684.302 20.234 20.234 0 0 0-2.013 39.285 20.237 20.237 0 1 0 12.648-38.446 20.2 20.2 0 0 0-7.95-1.14zm-59.112 196.39a2.7 2.7 0 0 0-1.51.504c-1.442 1.03-2.585 4.077-1.04 7.616 7.18 16.54 12.155 33.968 16.741 53.945h29.992c-7.575-22.192-21.764-45.466-37.171-58.71-2.68-2.318-5.225-3.44-7.012-3.354z" style="stroke-width:17.1766"/></svg>