<svg width="126" height="108" viewBox="0 0 42 36" xmlns="http://www.w3.org/2000/svg"><g fill="none" fill-rule="evenodd"><path d="M28.337 12.6l9.383-2.88-5.557 3.532-3.825-.652z" fill="#CA2317"/><path d="M34.053 19.62l-1.89-6.368L37.72 9.72l-1.665 5.715-2.002 4.185z" fill="#E84F83"/><path d="M40.465 7.987L39.43 9.72l-3.375 5.715L37.72 9.72l2.745-1.733z" fill="#CA2317"/><path d="M40.803 9.113l-2.61 2.677 1.237-2.07 1.373-.607zM28.9 10.822l7.672-.764L31.24 11.7l-2.34-.877z" fill="#E54011"/><path d="M29.192 15.165l2.97-1.912 1.89 6.367-.99 2.025-3.87-6.48z" fill="#CA2317"/><path d="M24.76 22.725L23.342 5.4l9.72 16.245-8.302 1.08z" fill="#B7DFF2"/><path d="M20.733 27.157l4.027-4.432 8.302-1.08-12.33 5.512z" fill="#E54011"/><path d="M1.157 35.865l19.576-8.708 4.027-4.432-6.39-.652L1.157 35.864z" fill="#FFCE33"/><path d="M1.9 28.755l10.057-1.53 3.128-2.52-1.53-.675L1.9 28.755z" fill="#D6B12D"/><path d="M5.522 20.543l9.563 4.162 3.285-2.632-12.848-1.53z" fill="#FFDE85"/><path d="M22.622 11.678l-1.215.202-3.037 10.193 3.285-2.07.967-8.325z" fill="#009EC6"/><path d="M24.4 18.247l-2.745 1.756L23.343 5.4 24.4 18.247z" fill="#5EAFCE"/><path d="M14.027 13.05l8.595-1.373.383-3.397-8.977 4.77z" fill="#045972"/><path d="M13.105 5.085l7.47 4.5 2.43-1.305.068-.472-9.968-2.723z" fill="#5A8591"/><path d="M14.568.18l6.795 7.155 1.71.473.27-2.408L14.568.18z" fill="#009EC6"/><path d="M18.37 22.073l6.03-3.826.36 4.478-6.39-.652z" fill="#F39804"/></g></svg>