<svg viewBox="0 0 39.646 35.685" xmlns="http://www.w3.org/2000/svg"><g fill="none" fill-rule="evenodd"><path fill="#ca2317" d="m27.18 12.42 9.383-2.88-5.557 3.532-3.825-.652Z"/><path fill="#e84f83" d="m32.896 19.44-1.89-6.368 5.557-3.532-1.665 5.715Z"/><path fill="#ca2317" d="M39.308 7.807 38.273 9.54l-3.375 5.715 1.665-5.715Z"/><path fill="#e54011" d="m39.646 8.933-2.61 2.677 1.237-2.07Zm-11.903 1.709 7.672-.764-5.332 1.642-2.34-.877Z"/><path fill="#ca2317" d="m28.035 14.985 2.97-1.912 1.89 6.367-.99 2.025z"/><path fill="#b7dff2" d="M23.603 22.545 22.185 5.22l9.72 16.245z"/><path fill="#e54011" d="m19.576 26.977 4.027-4.432 8.302-1.08-12.33 5.512z"/><path fill="#ffce33" d="m0 35.685 19.576-8.708 4.027-4.432-6.39-.652L0 35.684Z"/><path fill="#d6b12d" d="m.743 28.575 10.057-1.53 3.128-2.52-1.53-.675z"/><path fill="#ffde85" d="m4.365 20.363 9.563 4.162 3.285-2.632z"/><path fill="#009ec6" d="m21.465 11.498-1.215.202-3.037 10.193 3.285-2.07z"/><path fill="#5eafce" d="m23.243 18.067-2.745 1.756L22.186 5.22Z"/><path fill="#045972" d="m12.87 12.87 8.595-1.373.383-3.397-8.977 4.77z"/><path fill="#5a8591" d="m11.948 4.905 7.47 4.5 2.43-1.305.068-.472z"/><path fill="#009ec6" d="m13.411 0 6.795 7.155 1.71.473.27-2.408z"/><path fill="#f39804" d="m17.213 21.893 6.03-3.826.36 4.478z"/></g></svg>