<svg id="Layer_1" data-name="Layer 1" viewBox="0 0 239.87 247" xmlns="http://www.w3.org/2000/svg"><defs><style>.cls-1{fill:#0071bc}</style></defs><path d="M43.31 99.56 30 91.87 63.43 34a7.68 7.68 0 0 1 6.66-3.84H137V45.5H74.53Z" class="cls-1" transform="translate(-5.07 -1.5)"/><path d="M18.38 85.16 5.07 77.48 46.71 5.34a7.7 7.7 0 0 1 6.66-3.84H137v15.38H57.81Zm225.52 65-50.14-86.91a7.71 7.71 0 0 0-6.66-3.85H86.8a7.71 7.71 0 0 0-6.66 3.85L30 150.11a7.66 7.66 0 0 0 0 7.69l50.14 86.86a7.72 7.72 0 0 0 6.66 3.84h100.3a7.72 7.72 0 0 0 6.66-3.84l8.76-15.19a.65.65 0 0 0-.24-.91l-12.16-7a.67.67 0 0 0-.92.24l-6.54 11.34H91.24L45.53 154l45.71-79.22h91.42L228.37 154l-24.9 43.13h-82.63l48.93-84.75a7.69 7.69 0 0 0-6.66-11.53h-68a.67.67 0 0 0-.67.66v14.05a.66.66 0 0 0 .67.66h54.63l-48.93 84.75a7.7 7.7 0 0 0 6.66 11.54h100.44a7.71 7.71 0 0 0 6.66-3.85l29.33-50.86a7.66 7.66 0 0 0 0-7.69Z" class="cls-1" transform="translate(-5.07 -1.5)"/></svg>