<svg viewBox="0 0 400.83 104.99" xmlns="http://www.w3.org/2000/svg"><path fill="#d40000" d="M0 0h400.83v104.99H0zm0 0"/><path fill="#fff" d="M17.14 16H75.1v7.53L28.45 80.68h47.79v8.31H16v-7.53l46.65-57.15H17.14zm98.3 9.73L101.9 62.06h27.13zM109.8 16h11.32l28.12 72.99h-10.38l-6.71-18.72H98.88l-6.72 18.72H81.63zm60.14 38.13v26.74h16.01c5.37 0 9.35-1.1 11.94-3.3s3.88-5.57 3.88-10.09c0-4.56-1.29-7.93-3.88-10.1-2.59-2.16-6.57-3.25-11.94-3.25zm0-30.02v22h14.78c4.88 0 8.51-.91 10.9-2.71 2.39-1.81 3.58-4.57 3.58-8.28 0-3.68-1.2-6.44-3.58-8.26-2.39-1.82-6.02-2.74-10.9-2.74h-14.78zM159.96 16h25.5c7.61 0 13.48 1.56 17.59 4.69 4.12 3.13 6.17 7.58 6.17 13.35 0 4.46-1.05 8.02-3.16 10.66s-5.21 4.29-9.29 4.94c4.91 1.04 8.72 3.21 11.44 6.52s4.08 7.44 4.08 12.39c0 6.52-2.24 11.55-6.72 15.11-4.48 3.55-10.86 5.33-19.12 5.33h-26.49zm78.32 38.13v26.74h16.02c5.37 0 9.35-1.1 11.93-3.3 2.59-2.2 3.88-5.57 3.88-10.09 0-4.56-1.29-7.93-3.88-10.1-2.59-2.16-6.57-3.25-11.93-3.25zm0-30.02v22h14.78c4.88 0 8.51-.91 10.9-2.71 2.39-1.81 3.58-4.57 3.58-8.28 0-3.68-1.19-6.44-3.58-8.26s-6.02-2.74-10.9-2.74h-14.78zM228.3 16h25.5c7.61 0 13.48 1.56 17.59 4.69 4.12 3.13 6.18 7.58 6.18 13.35 0 4.46-1.05 8.02-3.16 10.66s-5.21 4.29-9.29 4.94c4.91 1.04 8.72 3.21 11.44 6.52s4.08 7.44 4.08 12.39c0 6.52-2.24 11.55-6.72 15.11-4.48 3.55-10.86 5.33-19.12 5.33h-26.5zm97.24 0h10.98l17.35 26.21L371.39 16H382l-22.84 34.19 25.68 38.8h-10.98l-20.21-30.54-20.41 30.54h-10.61l25.74-38.52zm-28.91 0h9.98v72.99h-9.98zm0 0"/></svg>