<svg viewBox="0 0 512 512" xmlns="http://www.w3.org/2000/svg"><svg x="31" y="31" viewBox="299.225 397.804 401.541 315.357"><path fill="#db2777" d="M318.552 580.372c7.576 21.18 23.963 33.328 44.96 33.328h18.151V501.155h-18.15c-21.276 0-37.717 11.724-45.098 32.154-2.644 7.197-4.042 15.312-4.042 23.47 0 7.84 1.446 16 4.18 23.593M394.51 445.21c7.915-8.056 19.048-12.674 30.542-12.674H574.94c11.521 0 22.373 4.506 30.57 12.702 8.054 7.915 12.673 19.05 12.673 30.544v10.08h20.884v-6.766c0-16.855-4.4-31.76-12.705-43.07-8.86-12.406-22.55-20.08-39.548-22.186a76 76 0 0 0-10.72-.744H423.9c-3.65 0-7.258.25-10.676.739-17.198 2.114-30.564 9.575-39.732 22.182-8.075 11.192-12.386 25.775-12.538 42.2v7.646h20.71v-10.081c0-11.407 4.671-22.54 12.847-30.572m2.59 105.796h34.724c3.014 0 5.535 1.517 6.994 4.303l13.465 22.148 22.213-54.207c.713-2.14 2.207-3.76 4.265-4.582a7.5 7.5 0 0 1 2.963-.61c3.04 0 5.763 1.822 6.945 4.66l22.973 53.709 24.537-72.2c.056-.167.113-.305.168-.443.09-.222.177-.444.268-.713.15-.45.573-.983.948-1.456 1.04-1.171 2.14-1.955 3.27-2.33a8.5 8.5 0 0 1 2.694-.444c1.081 0 2.116.217 2.937.599.734.368 1.37.685 1.814 1.128l.107.108.121.092c.841.657 1.648 1.84 2.224 3.214l16.72 47.024h35.441v-75.224c0-7.33-2.992-14.526-8.21-19.743-5.219-5.22-12.415-8.21-19.742-8.21H425.053c-7.437 0-14.448 2.915-19.744 8.21-5.217 5.217-8.209 12.413-8.209 19.743zm0 74.664c0 7.436 2.914 14.447 8.208 19.74 5.293 5.296 12.305 8.21 19.744 8.21h39.921c1.392 0 2.963.492 4.376 1.389l66.67 37.07v-30.811c0-4.217 3.43-7.647 7.645-7.647h31.275c7.33 0 14.527-2.994 19.742-8.211 5.294-5.293 8.21-12.304 8.21-19.74v-59.371H561.97c-3.48 0-6.413-2.226-7.358-5.735l-11.015-30.656-23.847 70.429c-1.13 3.13-4.093 5.234-7.373 5.234-.81 0-1.618-.13-2.349-.365-2.055-.721-3.794-2.395-4.758-4.561l-23.484-55.12-20.858 51.268c-.56 1.679-1.688 3.065-3.272 4.014a7.74 7.74 0 0 1-4.014 1.128c-2.677 0-5.094-1.352-6.473-3.628l-19.595-32.008H397.1zm221.082-11.97h18.153c20.777 0 37.64-12.46 45.103-33.323 2.64-7.333 4.034-15.493 4.034-23.598 0-8.537-1.31-16.435-3.892-23.457-7.386-20.443-23.878-32.167-45.245-32.167h-18.153zM303.98 528.207c7.253-20.1 21.476-34.198 40.05-39.706l1.603-.476v-8.93c0-20.137 5.37-38.126 15.537-52.043 11.508-15.991 28.816-25.811 50.081-28.404a96 96 0 0 1 12.65-.844h152.192c4.196 0 8.45.283 12.673.846 21.387 2.624 38.231 12.184 50.065 28.417 10.158 13.902 15.527 31.89 15.527 52.029v8.973l1.465.432c18.724 5.515 32.942 19.61 40.054 39.735 3.244 8.649 4.89 18.252 4.89 28.543 0 9.727-1.697 19.662-4.9 28.717-9.952 27.644-31.65 43.496-59.53 43.496h-18.15l-.272 2.135c-1.207 9.522-5.612 18.43-12.419 25.099-8.183 8.18-19.035 12.687-30.556 12.687h-23.774l.006 36.062c.112 1.572-.223 3.077-.965 4.35-1.413 2.402-3.883 3.836-6.609 3.836a7.47 7.47 0 0 1-3.876-1.095l-76.816-43.153h-37.853c-11.494 0-22.627-4.618-30.575-12.706-6.79-6.65-11.196-15.558-12.4-25.08l-.27-2.135h-18.296c-27.789 0-49.435-15.852-59.382-43.484-3.209-9.065-4.905-19-4.905-28.765-.138-9.627 1.508-19.496 4.755-28.536"/></svg></svg>