<?xml version="1.0" encoding="UTF-8" standalone="no"?>
<svg
   width="250"
   height="581.9986"
   viewBox="0 0 2500 581.99859"
   fill="none"
   version="1.1"
   id="svg6"
   sodipodi:docname="linkace.svg"
   inkscape:version="1.1.2 (0a00cf5339, 2022-02-04, custom)"
   xmlns:inkscape="http://www.inkscape.org/namespaces/inkscape"
   xmlns:sodipodi="http://sodipodi.sourceforge.net/DTD/sodipodi-0.dtd"
   xmlns="http://www.w3.org/2000/svg"
   xmlns:svg="http://www.w3.org/2000/svg">
  <defs
     id="defs10" />
  <sodipodi:namedview
     id="namedview8"
     pagecolor="#ffffff"
     bordercolor="#666666"
     borderopacity="1.0"
     inkscape:pageshadow="2"
     inkscape:pageopacity="0.0"
     inkscape:pagecheckerboard="0"
     showgrid="false"
     fit-margin-top="0"
     fit-margin-left="0"
     fit-margin-right="0"
     fit-margin-bottom="0"
     inkscape:zoom="1.4140893"
     inkscape:cx="48.441069"
     inkscape:cy="144.26245"
     inkscape:window-width="1920"
     inkscape:window-height="1009"
     inkscape:window-x="-8"
     inkscape:window-y="-8"
     inkscape:window-maximized="1"
     inkscape:current-layer="svg6" />
  <!-- (C) Copyright 2020 LinkAce / Kevin Woblick -->
  <path
     fill-rule="evenodd"
     clip-rule="evenodd"
     d="m 1231.5783,-2339.0189 c -253.09569,-2.5626 -496.91122,95.8079 -676.03904,272.337 -179.05771,176.4624 -278.07161,415.764 -275.48955,663.3078 l 0.002,0.2793 23.04594,3577.7238 v 0.2937 c 0.54039,274.2797 74.24394,457.4588 179.31381,571.1793 104.10378,112.6792 254.30359,173.7998 443.18735,174.8197 347.81339,1.8353 651.84099,-297.0996 648.70299,-755.5787 l -14.908,-2871.99218 c 0,-0.2 0,-0.2403 0,-0.3793 -2.044,-166.34979 -138.2919,-303.32372 -311.9835,-305.26762 -81.0919,-0.6793 -159.0498,30.91002 -216.1897,87.22183 -57.09589,56.268 -88.36389,132.1659 -87.64979,210.23969 v 0.2206 l 14.1299,2392.37288 c 0.4579,77.3201 -61.8519,140.3799 -139.16979,140.8395 -77.31797,0.4458 -140.36789,-61.8592 -140.82385,-139.1793 L 663.57913,-712.27858 c -0.002,0 -0.002,-0.2 -0.002,-0.2404 -1.35,-154.72189 60.66384,-303.14962 171.10177,-411.98552 110.42581,-108.8258 260.1495,-169.1596 415.3293,-167.7796 h 0.2596 c 322.3996,3.4661 585.5393,259.9997 589.107,582.53332 l 0.01,0.4 14.9145,2872.76358 c 0,0 0,0 0,0.2063 3.9537,585.3993 -398.9354,1040.1987 -930.19059,1037.3597 C 673.44127,3199.6571 443.34958,3116.4968 276.75773,2936.197 111.18438,2756.9969 23.791105,2498.5973 23.099905,2175.8779 c -3.9e-4,-0.2063 -6e-4,-0.2238 -8e-4,-0.3199 L 0.06454451,-1400.3883 c -0.001,0 -0.002,-0.2 -0.003,-0.2793 -3.30293001,-324.3016 126.46449549,-636.2639 358.93998549,-865.3693 232.45568,-229.0853 548.10114,-356.1868 875.33677,-352.8944 684.0351,6.2352 1238.5782,549.9639 1244.9182,1228.9196 v 0.2 l 20.7403,3121.1397 c 0.5174,77.3194 -61.7607,140.3996 -139.0801,140.9192 -77.2998,0.5175 -140.3998,-61.7399 -140.9196,-139.0591 l -20.7204,-3120.6618 c 0,0 0,-0.2 0,-0.2 -4.9794,-522.5275 -432.4112,-946.4969 -967.5484,-951.3434 z"
     fill="#44679f"
     id="path4"
     style="stroke-width:20" />
</svg>
