<svg fill="none" viewBox="0 0 2500 581.999" xmlns="http://www.w3.org/2000/svg"><path fill="#44679f" fill-rule="evenodd" d="M1231.578-2339.019c-253.095-2.563-496.91 95.808-676.039 272.337-179.057 176.462-278.071 415.764-275.49 663.308l.003.28 23.046 3577.723v.294c.54 274.28 74.244 457.459 179.313 571.179 104.104 112.68 254.304 173.8 443.188 174.82 347.813 1.835 651.84-297.1 648.703-755.579l-14.908-2871.992v-.38c-2.044-166.35-138.292-303.323-311.984-305.267-81.092-.68-159.05 30.91-216.19 87.222-57.095 56.268-88.363 132.166-87.65 210.24v.22l14.13 2392.373c.459 77.32-61.851 140.38-139.17 140.84-77.317.445-140.367-61.86-140.823-139.18L663.58-712.279c-.002 0-.002-.2-.002-.24-1.35-154.722 60.664-303.15 171.102-411.986 110.426-108.825 260.15-169.16 415.33-167.78h.259c322.4 3.467 585.54 260 589.107 582.534l.01.4 14.914 2872.764v.206c3.954 585.4-398.935 1040.199-930.19 1037.36-250.668-1.322-480.76-84.482-647.351-264.782-165.574-179.2-252.967-437.6-253.658-760.32v-.319L.064-1400.388l-.003-.28c-3.303-324.301 126.464-636.264 358.94-865.369 232.455-229.085 548.1-356.187 875.336-352.894 684.035 6.235 1238.578 549.964 1244.918 1228.92v.2l20.74 3121.139c.518 77.32-61.76 140.4-139.08 140.92-77.3.517-140.4-61.74-140.919-139.06l-20.72-3120.662v-.2c-4.98-522.527-432.412-946.497-967.549-951.343z" clip-rule="evenodd" style="stroke-width:20"/></svg>