<svg xml:space="preserve" id="Layer_1" x="0" y="0" version="1.1" viewBox="0 0 817.2 597.9" xmlns="http://www.w3.org/2000/svg"><style id="style76" type="text/css">.st0{fill:#fff}</style><g id="XMLID_2_" transform="translate(-231.4 -101.1)"><path id="XMLID_10_" d="M263.4 217h173.7v450H263.4z"/><path id="XMLID_3_" d="M282.3 274.8h138.2v353.5H282.3z" class="st0"/><g id="XMLID_21_"><g id="XMLID_59_"><path id="XMLID_60_" d="M290.7 453.9v-.3c0-35.1 27.5-62.7 64.9-62.7 21.2 0 36.2 6.5 48.9 17.6l-19.6 23.6c-8.6-7.2-17.2-11.4-29.1-11.4-17.4 0-30.8 14.6-30.8 33.1v.3c0 19.5 13.6 33.4 32.7 33.4 8.1 0 14.3-1.7 19.3-5v-14.6h-23.8v-24.5h55.4v54.2c-12.7 10.5-30.5 18.6-52.3 18.6-37.5.1-65.6-25.8-65.6-62.3" style="fill:#501f00"/></g></g><path id="XMLID_28_" d="M456 133.1h173.7v450H456z"/><path id="XMLID_27_" d="M474.9 190.9h138.2v353.5H474.9z" class="st0"/><g id="XMLID_11_"><g id="XMLID_72_"><path id="XMLID_73_" d="M529.7 311h30.9l49.3 116.6h-34.4l-8.4-20.7h-44.7l-8.3 20.7h-33.7zm28.1 70.9L544.9 349l-13.1 32.9z" style="fill:#5c767c"/></g></g><path id="XMLID_36_" d="M842.9 217h173.7v450H842.9z"/><path id="XMLID_33_" d="M861.8 274.8H1000v353.5H861.8z" class="st0"/><g id="XMLID_7_"><g id="XMLID_57_"><path id="XMLID_58_" d="m880.5 495.9 18.6-22.2c11.9 9.5 25.1 14.5 39.1 14.5 9 0 13.8-3.1 13.8-8.3v-.3c0-5-4-7.8-20.3-11.5-25.7-5.9-45.5-13.1-45.5-37.9v-.3c0-22.4 17.7-38.6 46.7-38.6 20.5 0 36.5 5.5 49.6 16l-16.7 23.6c-11-7.7-23.1-11.9-33.7-11.9-8.1 0-12.1 3.4-12.1 7.8v.3c0 5.5 4.1 7.9 20.8 11.7 27.7 6 44.9 15 44.9 37.5v.3c0 24.6-19.5 39.3-48.7 39.3-21.4 0-41.7-6.7-56.5-20" style="fill:#79abff"/></g></g><path id="XMLID_35_" d="M650.2 217h173.7v450H650.2z"/><path id="XMLID_34_" d="M669.1 274.8h138.2v353.5H669.1z" class="st0"/><g id="XMLID_1_"><g id="XMLID_76_"><path id="XMLID_77_" d="M692.2 393.3h51.7c30.5 0 50.1 15.7 50.1 42.4v.3c0 28.4-21.9 43.4-51.8 43.4h-16.5v34.4h-33.4V393.3Zm49.2 59.9c11.9 0 19.1-6.2 19.1-15.7v-.3c0-10.3-7.2-15.8-19.3-15.8h-15.7v31.9h15.9z" style="fill:#dbbd68"/></g></g></g></svg>