<svg xmlns="http://www.w3.org/2000/svg" width="250" height="250" viewBox="0 0 234.375 234.375"><path d="M220.788 140.27c-3.182 16.366-28.493 34.278-57.563 37.749-15.159 1.809-30.084 3.471-45.999 2.741-26.027-1.192-46.565-6.212-46.565-6.212 0 2.533.157 4.946.47 7.202 3.383 25.686 25.47 27.225 46.39 27.943 21.117.722 39.92-5.207 39.92-5.207l.867 19.09s-14.77 7.932-41.082 9.39c-14.508.798-32.523-.365-53.506-5.918-45.507-12.045-53.334-60.554-54.531-109.774-.365-14.614-.14-28.394-.14-39.919 0-50.33 32.976-65.082 32.976-65.082 16.628-7.637 45.159-10.848 74.82-11.09h.729c29.661.242 58.211 3.453 74.837 11.09 0 0 32.975 14.752 32.975 65.082 0 0 .414 37.134-4.598 62.915" fill="#2b90d9"/><path d="M186.49 81.26v60.94h-24.144V83.05c0-12.468-5.246-18.797-15.74-18.797-11.602 0-17.417 7.508-17.417 22.353v32.376h-24.001V86.606c0-14.845-5.817-22.353-17.42-22.353-10.493 0-15.74 6.33-15.74 18.798v59.15H47.886V81.26c0-12.455 3.171-22.353 9.541-29.675 6.57-7.323 15.172-11.077 25.85-11.077 12.355 0 21.712 4.75 27.898 14.248l6.014 10.081 6.015-10.081c6.185-9.499 15.54-14.248 27.897-14.248 10.678 0 19.28 3.754 25.85 11.077 6.369 7.322 9.54 17.22 9.54 29.675" fill="#fff"/></svg>