<svg viewBox="0 0 216.414 232.009" xmlns="http://www.w3.org/2000/svg"><path fill="#2b90d9" d="M211.808 139.087c-3.182 16.366-28.493 34.278-57.563 37.749-15.16 1.809-30.084 3.471-46 2.741-26.026-1.192-46.564-6.212-46.564-6.212 0 2.533.157 4.946.47 7.202 3.383 25.686 25.47 27.225 46.39 27.943 21.117.722 39.92-5.207 39.92-5.207l.867 19.09s-14.77 7.932-41.082 9.39c-14.508.798-32.523-.365-53.506-5.918C9.233 213.82 1.406 165.311.209 116.091c-.365-14.614-.14-28.394-.14-39.919 0-50.33 32.976-65.082 32.976-65.082C49.673 3.453 78.204.242 107.865 0h.729c29.66.242 58.21 3.453 74.837 11.09 0 0 32.975 14.752 32.975 65.082 0 0 .414 37.134-4.598 62.915"/><path fill="#fff" d="M177.51 80.077v60.94h-24.144v-59.15c0-12.468-5.246-18.797-15.74-18.797-11.602 0-17.417 7.508-17.417 22.353v32.376H96.208V85.423c0-14.845-5.817-22.353-17.42-22.353-10.493 0-15.74 6.33-15.74 18.798v59.15H38.906V80.077c0-12.455 3.17-22.353 9.54-29.675 6.57-7.323 15.173-11.077 25.85-11.077 12.356 0 21.713 4.75 27.899 14.248l6.014 10.081 6.015-10.081c6.185-9.499 15.54-14.248 27.897-14.248 10.678 0 19.28 3.754 25.85 11.077 6.369 7.322 9.54 17.22 9.54 29.675"/></svg>