<svg fill="none" viewBox="0 0 180 88" xmlns="http://www.w3.org/2000/svg"><path fill="#74BF4B" d="M.256 87.26h29.001c15.515 0 28.191-12.2 28.95-27.536H.256z" opacity=".85"/><path fill="#74BF4B" d="M29.249 29.257H.256v27.535h57.943c-.76-15.345-13.427-27.535-28.95-27.535m121.775 0c-15.515 0-28.191 12.199-28.95 27.535h57.918c-.759-15.345-13.427-27.535-28.95-27.535"/><path fill="#74BF4B" d="M151.024 87.26c15.516 0 28.192-12.2 28.951-27.536h-57.918c.759 15.345 13.427 27.535 28.95 27.535" opacity=".85"/><path fill="#74BF4B" d="M61.14 29.257v29.001c0 15.515 12.199 28.191 27.535 28.95V29.257z"/><path fill="#74BF4B" d="M91.598 29.257v58.002h27.535V29.257z" opacity=".85"/><path fill="#fff" d="M19.564.264h-3.623v14.5h3.623zM37.833 7.51c0 4.672 3.58 7.51 7.655 7.51 1.611 0 2.847-.383 3.308-.52v-3.895c-.154.085-1.347.767-3.044.767-2.412 0-3.972-1.713-3.972-3.87s1.628-3.87 3.972-3.87c1.73 0 2.899.707 3.044.775V.53c-.341-.103-1.603-.52-3.308-.52-4.416 0-7.655 3.17-7.655 7.501M0 7.51c0 4.672 3.572 7.51 7.647 7.51 1.62 0 2.855-.383 3.307-.52v-3.895c-.162.085-1.347.767-3.043.767-2.421 0-3.973-1.713-3.973-3.87s1.629-3.87 3.973-3.87c1.73 0 2.89.707 3.043.775V.53C10.614.427 9.352.01 7.647.01 3.239 0 0 3.179 0 7.51M60.202 0c-4.416 0-7.587 3.359-7.587 7.502s3.171 7.51 7.587 7.51 7.587-3.359 7.587-7.51C67.789 3.35 64.618 0 60.202 0m0 11.33c-2.157 0-3.751-1.706-3.751-3.82S58.053 3.7 60.2 3.7c2.149 0 3.752 1.713 3.752 3.81s-1.603 3.82-3.751 3.82M30.902 6.01l-.997-.324c-.597-.188-1.663-.503-1.663-1.381 0-.699.785-1.193 2.242-1.193 1.254 0 2.78.426 2.83.443V.46C33.205.435 31.55 0 29.786 0c-3.341 0-5.353 1.824-5.353 4.535 0 2.404 1.688 3.598 3.7 4.237.23.077.554.179.775.256.895.281 1.612.707 1.612 1.44 0 .827-.827 1.356-2.635 1.356-1.585 0-3.103-.46-3.427-.537v3.342c.18.034 1.987.392 3.913.392 2.77 0 5.95-1.22 5.95-4.868 0-1.765-1.074-3.393-3.426-4.143z"/></svg>