<svg id="prefix__Guides" xmlns="http://www.w3.org/2000/svg" viewBox="0 0 256 256"><defs><clipPath id="prefix__clip-path"><path class="prefix__cls-1" d="M.02.02H256V256H.02z"/></clipPath><style>.prefix__cls-1{fill:none}.prefix__cls-12{fill:#d0d0d0}.prefix__cls-14{fill:#d9d9d9}.prefix__cls-16{fill:#d8d8d8}.prefix__cls-17{fill:#e2e2e2}.prefix__cls-19{fill:#dedede}.prefix__cls-24{fill:#00b8e3}.prefix__cls-25{fill:#33c6e9}.prefix__cls-26{fill:#008aaa}</style></defs><g clip-path="url(#prefix__clip-path)"><path d="M219.24 76a1.9 1.9 0 01-1.66-.95L188.7 25a2 2 0 00-1.7-1H69.18a1.9 1.9 0 00-1.66.95l-30 52-28.92 50.1a1.94 1.94 0 000 1.91L37.5 179l30 52a1.9 1.9 0 001.66.95H187a2 2 0 001.68-.95l28.92-50a1.9 1.9 0 011.66-.95h36a2.16 2.16 0 002.16-2.16V78.17a2.16 2.16 0 00-2.2-2.17h-36z" fill="#4d4d4d"/><path class="prefix__cls-1" d="M255.23 76h-216a2 2 0 00-1.66.93l-1.07 1.85-13.28 22.97-14.61 25.31a1.9 1.9 0 000 1.92l3.17 5.5L37.51 179a1.92 1.92 0 001.67 1h216.08a2.14 2.14 0 002.12-2.14V78.18a2.16 2.16 0 00-2.15-2.18z"/><path d="M44.06 122.76l-32.28 11.72L8.61 129a1.9 1.9 0 010-1.92l14.61-25.31z" fill="#e1e1e1"/><path fill="#c8c8c8" d="M236.11 132.11l21.27-3.04v24.68l-21.27-21.64z"/><path d="M236.11 132.11l21.27 21.64v24.1a2.14 2.14 0 01-2.12 2.14H230.5z" fill="#c2c2c2"/><path fill="#c7c7c7" d="M236.11 132.11l-5.61 47.88h-29.76l-9.03-21.72 44.4-26.16z"/><path fill="#cecece" d="M236.11 132.11l21.27-25.9v22.86l-21.27 3.04z"/><path d="M257.38 78.17v28l-21.27 25.9L220.06 76h35.16a2.16 2.16 0 012.16 2.17z" fill="#d3d3d3"/><path fill="#c6c6c6" d="M200.74 179.99h-15.71l-4.07-5.83 10.75-15.89 9.03 21.72z"/><path fill="#d5d5d5" d="M236.11 132.11l-58.89-24.89 30.97-31.2h11.87l16.05 56.09z"/><path class="prefix__cls-12" d="M177.22 107.22l14.49 51.05 44.4-26.16z"/><path fill="#bfbfbf" d="M185.03 179.99h-4.26l.19-5.83 4.07 5.83z"/><path class="prefix__cls-14" d="M208.19 76.02l-30.97 31.2-5.59-27.91 11.96-3.29h24.6z"/><path d="M177.22 107.22l-71.48 16.48L181 174.16z" fill="#d4d4d4"/><path class="prefix__cls-12" d="M177.22 107.22l3.78 66.94 10.75-15.89z"/><path class="prefix__cls-14" d="M171.63 79.31l-65.89 44.39 71.48-16.48z"/><path class="prefix__cls-16" d="M105.74 123.7l-30.98 56.29H57.11l-13.05-57.23 61.68.94z"/><path class="prefix__cls-17" d="M74 76l-29.94 46.76-7.62-43.93L37.51 77a2 2 0 011.67-1H74z"/><path class="prefix__cls-16" d="M57.11 180H39.18a1.92 1.92 0 01-1.67-1l-25.73-44.52 32.28-11.72z"/><path fill="#e4e4e4" d="M44.06 122.76l-20.84-21.02 13.22-22.91 7.62 43.93z"/><path class="prefix__cls-19" d="M138.4 76.02H86.2l19.54 47.68 65.89-44.39-19.86-3.29H138.4z"/><path class="prefix__cls-19" d="M78.06 76.02h-4.08l-29.92 46.74 61.68.94L86.2 76.02h-8.14z"/><path fill="#c5c5c5" d="M166.62 179.99h14.15l.19-5.83-14.34 5.83z"/><path class="prefix__cls-12" d="M180.96 174.16l-75.22-50.46 13.55 56.29h47.33l14.34-5.83z"/><path fill="#d1d1d1" d="M74.76 179.99H119.29l-13.55-56.29-30.98 56.29z"/><path fill="#ddd" d="M171.83 76.02l-.2 3.29 11.96-3.29h-11.76z"/><path fill="#e3e3e3" d="M151.77 76.02l19.86 3.29-1.84-3.29h-18.02z"/><path class="prefix__cls-17" d="M169.79 76.02l1.84 3.29.2-3.29h-2.04z"/><path class="prefix__cls-24" d="M117.58 76.91l-29.06 50.33a1.69 1.69 0 00-.21.82H68L107.91 59a1.57 1.57 0 01.59.58l.05.05 9 15.7a1.74 1.74 0 01.03 1.58z"/><path class="prefix__cls-25" d="M117.55 181l-9 15.63a1.75 1.75 0 01-.61.58L68 128.08h20.31a1.54 1.54 0 00.19.79.18.18 0 000 .09l29 50.29a1.7 1.7 0 01.05 1.75z"/><path class="prefix__cls-26" d="M107.91 59L68 128.06 58 145.4l-9.55-16.56a1.54 1.54 0 01-.19-.79 1.69 1.69 0 01.21-.82l9.67-16.75 29.4-50.86a1.7 1.7 0 011.46-.87h18a1.79 1.79 0 01.91.25z"/><path class="prefix__cls-24" d="M107.91 197.16a1.79 1.79 0 01-.86.23H89a1.7 1.7 0 01-1.49-.87L60.69 150 58 145.4l10-17.33z"/><path class="prefix__cls-26" d="M188.1 128.06l-39.9 69.1a1.87 1.87 0 01-.59-.58v-.05l-9-15.67a1.74 1.74 0 010-1.61l29-50.32a1.69 1.69 0 00.24-.87h20.25z"/><path class="prefix__cls-24" d="M207.84 128.06a1.69 1.69 0 01-.24.87l-39.06 67.65a1.71 1.71 0 01-1.45.8h-18a1.86 1.86 0 01-.87-.23l39.9-69.1 10-17.31 9.49 16.45a1.68 1.68 0 01.23.87zM188.1 128.06h-20.28a1.68 1.68 0 00-.24-.86l-29-50.27a1.7 1.7 0 010-1.73l9-15.65a1.87 1.87 0 01.62-.55z"/><path class="prefix__cls-25" d="M198.1 110.73l-10 17.31L148.2 59a1.86 1.86 0 01.87-.23h18a1.71 1.71 0 011.45.8z"/></g></svg>