<svg id="prefix__Guides" version="1.1" viewBox="0 0 247.651 207.95" xmlns="http://www.w3.org/2000/svg"><defs id="defs7"><clipPath id="prefix__clip-path"><path id="path2" d="M.02.02H256V256H.02Z" class="prefix__cls-1"/></clipPath><style id="style5">.prefix__cls-1{fill:none}.prefix__cls-12{fill:#d0d0d0}.prefix__cls-14{fill:#d9d9d9}.prefix__cls-16{fill:#d8d8d8}.prefix__cls-17{fill:#e2e2e2}.prefix__cls-19{fill:#dedede}.prefix__cls-24{fill:#00b8e3}.prefix__cls-25{fill:#33c6e9}.prefix__cls-26{fill:#008aaa}</style></defs><g id="g79" clip-path="url(#prefix__clip-path)" transform="translate(-8.349 -24)"><path id="path9" fill="#4d4d4d" d="M219.24 76a1.9 1.9 0 0 1-1.66-.95L188.7 25a2 2 0 0 0-1.7-1H69.18a1.9 1.9 0 0 0-1.66.95l-30 52-28.92 50.1a1.94 1.94 0 0 0 0 1.91L37.5 179l30 52a1.9 1.9 0 0 0 1.66.95H187a2 2 0 0 0 1.68-.95l28.92-50a1.9 1.9 0 0 1 1.66-.95h36a2.16 2.16 0 0 0 2.16-2.16V78.17a2.16 2.16 0 0 0-2.2-2.17h-36z"/><path id="path11" d="M255.23 76h-216a2 2 0 0 0-1.66.93l-1.07 1.85-13.28 22.97-14.61 25.31a1.9 1.9 0 0 0 0 1.92l3.17 5.5L37.51 179a1.92 1.92 0 0 0 1.67 1h216.08a2.14 2.14 0 0 0 2.12-2.14V78.18a2.16 2.16 0 0 0-2.15-2.18Z" class="prefix__cls-1"/><path id="path13" fill="#e1e1e1" d="m44.06 122.76-32.28 11.72L8.61 129a1.9 1.9 0 0 1 0-1.92l14.61-25.31z"/><path id="path15" fill="#c8c8c8" d="m236.11 132.11 21.27-3.04v24.68z"/><path id="path17" fill="#c2c2c2" d="m236.11 132.11 21.27 21.64v24.1a2.14 2.14 0 0 1-2.12 2.14H230.5Z"/><path id="path19" fill="#c7c7c7" d="m236.11 132.11-5.61 47.88h-29.76l-9.03-21.72z"/><path id="path21" fill="#cecece" d="m236.11 132.11 21.27-25.9v22.86z"/><path id="path23" fill="#d3d3d3" d="M257.38 78.17v28l-21.27 25.9L220.06 76h35.16a2.16 2.16 0 0 1 2.16 2.17z"/><path id="path25" fill="#c6c6c6" d="M200.74 179.99h-15.71l-4.07-5.83 10.75-15.89z"/><path id="path27" fill="#d5d5d5" d="m236.11 132.11-58.89-24.89 30.97-31.2h11.87z"/><path id="path29" d="m177.22 107.22 14.49 51.05 44.4-26.16z" class="prefix__cls-12"/><path id="path31" fill="#bfbfbf" d="M185.03 179.99h-4.26l.19-5.83z"/><path id="path33" d="m208.19 76.02-30.97 31.2-5.59-27.91 11.96-3.29z" class="prefix__cls-14"/><path id="path35" fill="#d4d4d4" d="m177.22 107.22-71.48 16.48L181 174.16Z"/><path id="path37" d="m177.22 107.22 3.78 66.94 10.75-15.89z" class="prefix__cls-12"/><path id="path39" d="m171.63 79.31-65.89 44.39 71.48-16.48z" class="prefix__cls-14"/><path id="path41" d="m105.74 123.7-30.98 56.29H57.11l-13.05-57.23Z" class="prefix__cls-16"/><path id="path43" d="m74 76-29.94 46.76-7.62-43.93L37.51 77a2 2 0 0 1 1.67-1z" class="prefix__cls-17"/><path id="path45" d="M57.11 180H39.18a1.92 1.92 0 0 1-1.67-1l-25.73-44.52 32.28-11.72Z" class="prefix__cls-16"/><path id="path47" fill="#e4e4e4" d="m44.06 122.76-20.84-21.02 13.22-22.91Z"/><path id="path49" d="M138.4 76.02H86.2l19.54 47.68 65.89-44.39-19.86-3.29H138.4Z" class="prefix__cls-19"/><path id="path51" d="M78.06 76.02h-4.08l-29.92 46.74 61.68.94L86.2 76.02Z" class="prefix__cls-19"/><path id="path53" fill="#c5c5c5" d="M166.62 179.99h14.15l.19-5.83z"/><path id="path55" d="m180.96 174.16-75.22-50.46 13.55 56.29h47.33z" class="prefix__cls-12"/><path id="path57" fill="#d1d1d1" d="M74.76 179.99h44.53l-13.55-56.29Z"/><path id="path59" fill="#ddd" d="m171.83 76.02-.2 3.29 11.96-3.29z"/><path id="path61" fill="#e3e3e3" d="m151.77 76.02 19.86 3.29-1.84-3.29z"/><path id="path63" d="m169.79 76.02 1.84 3.29.2-3.29z" class="prefix__cls-17"/><path id="path65" d="m117.58 76.91-29.06 50.33a1.69 1.69 0 0 0-.21.82H68L107.91 59a1.57 1.57 0 0 1 .59.58l.05.05 9 15.7a1.74 1.74 0 0 1 .03 1.58z" class="prefix__cls-24"/><path id="path67" d="m117.55 181-9 15.63a1.75 1.75 0 0 1-.61.58L68 128.08h20.31a1.54 1.54 0 0 0 .19.79.18.18 0 0 0 0 .09l29 50.29a1.7 1.7 0 0 1 .05 1.75z" class="prefix__cls-25"/><path id="path69" d="M107.91 59 68 128.06 58 145.4l-9.55-16.56a1.54 1.54 0 0 1-.19-.79 1.69 1.69 0 0 1 .21-.82l9.67-16.75 29.4-50.86a1.7 1.7 0 0 1 1.46-.87h18a1.79 1.79 0 0 1 .91.25z" class="prefix__cls-26"/><path id="path71" d="M107.91 197.16a1.79 1.79 0 0 1-.86.23H89a1.7 1.7 0 0 1-1.49-.87L60.69 150 58 145.4l10-17.33Z" class="prefix__cls-24"/><path id="path73" d="m188.1 128.06-39.9 69.1a1.87 1.87 0 0 1-.59-.58v-.05l-9-15.67a1.74 1.74 0 0 1 0-1.61l29-50.32a1.69 1.69 0 0 0 .24-.87z" class="prefix__cls-26"/><path id="path75" d="M207.84 128.06a1.69 1.69 0 0 1-.24.87l-39.06 67.65a1.71 1.71 0 0 1-1.45.8h-18a1.86 1.86 0 0 1-.87-.23l39.9-69.1 10-17.31 9.49 16.45a1.68 1.68 0 0 1 .23.87zm-19.74 0h-20.28a1.68 1.68 0 0 0-.24-.86l-29-50.27a1.7 1.7 0 0 1 0-1.73l9-15.65a1.87 1.87 0 0 1 .62-.55Z" class="prefix__cls-24"/><path id="path77" d="m198.1 110.73-10 17.31L148.2 59a1.86 1.86 0 0 1 .87-.23h18a1.71 1.71 0 0 1 1.45.8z" class="prefix__cls-25"/></g></svg>