<svg xml:space="preserve" viewBox="0 0 512 512" xmlns="http://www.w3.org/2000/svg"><path d="M256 10.449C120.275 10.449 10.449 120.276 10.449 256c0 135.725 109.826 245.551 245.551 245.551S501.551 391.725 501.551 256c0-135.724-109.826-245.551-245.551-245.551Z" style="fill:#0084ff"/><path d="M256 168.229c-48.515 0-87.771 39.257-87.771 87.771s39.257 87.771 87.771 87.771 87.771-39.257 87.771-87.771-39.256-87.771-87.771-87.771z" style="fill:#fff"/><path d="M437.061 74.94C388.735 26.615 324.434 0 256 0 187.566 0 123.265 26.615 74.939 74.94 26.613 123.265 0 187.566 0 256s26.614 132.735 74.939 181.061C123.264 485.387 187.566 512 256 512c68.434 0 132.735-26.614 181.061-74.939C485.387 388.736 512 324.434 512 256c0-68.434-26.614-132.734-74.939-181.06ZM256 491.102C126.365 491.102 20.898 385.635 20.898 256S126.365 20.898 256 20.898 491.102 126.365 491.102 256 385.635 491.102 256 491.102Z"/><path d="M354.22 256c0-54.158-44.061-98.22-98.22-98.22s-98.22 44.062-98.22 98.22 44.062 98.22 98.22 98.22 98.22-44.061 98.22-98.22zm-175.542 0c0-42.636 34.686-77.322 77.322-77.322s77.322 34.686 77.322 77.322-34.686 77.322-77.322 77.322-77.322-34.686-77.322-77.322z"/><path d="M285.257 256c0-16.132-13.124-29.257-29.257-29.257-16.133 0-29.257 13.125-29.257 29.257s13.125 29.257 29.257 29.257 29.257-13.124 29.257-29.257zm-37.616 0c0-4.609 3.75-8.359 8.359-8.359s8.359 3.75 8.359 8.359-3.75 8.359-8.359 8.359-8.359-3.75-8.359-8.359zM256 391.837c-5.771 0-10.449 4.678-10.449 10.449s4.678 10.449 10.449 10.449c41.897 0 81.265-16.294 110.853-45.883 29.587-29.587 45.881-68.955 45.881-110.852 0-5.771-4.678-10.449-10.449-10.449s-10.449 4.678-10.449 10.449C391.837 330.9 330.9 391.837 256 391.837Zm193.306-146.286c-5.771 0-10.449 4.678-10.449 10.449 0 1.481-.018 2.958-.052 4.43-.136 5.769 4.43 10.557 10.199 10.692l.252.003c5.656 0 10.307-4.517 10.442-10.202.039-1.637.059-3.279.059-4.925-.002-5.769-4.68-10.447-10.451-10.447z"/><path d="M447.55 284.239c-5.656-1.145-11.168 2.52-12.308 8.178-17.107 84.854-92.489 146.44-179.242 146.44-5.771 0-10.449 4.678-10.449 10.449s4.678 10.449 10.449 10.449c47.353 0 93.467-16.573 129.847-46.668 35.9-29.697 60.717-71.084 69.881-116.54 1.14-5.656-2.521-11.167-8.178-12.308zM256 120.163c5.771 0 10.449-4.678 10.449-10.449S261.771 99.265 256 99.265c-41.897 0-81.265 16.294-110.853 45.883C115.559 174.735 99.265 214.103 99.265 256c0 5.771 4.678 10.449 10.449 10.449s10.449-4.678 10.449-10.449c0-74.9 60.937-135.837 135.837-135.837zM62.996 240.876c-5.759-.14-10.557 4.43-10.692 10.199a206.793 206.793 0 0 0-.059 4.925c0 5.771 4.678 10.449 10.449 10.449S73.143 261.771 73.143 256c0-1.481.018-2.958.052-4.43.136-5.77-4.43-10.557-10.199-10.694z"/><path d="M256 73.143c5.771 0 10.449-4.678 10.449-10.449S261.771 52.245 256 52.245c-47.353 0-93.467 16.573-129.847 46.668-35.9 29.697-60.717 71.084-69.881 116.54-1.14 5.657 2.521 11.168 8.178 12.308.697.141 1.392.208 2.076.208 4.872 0 9.232-3.426 10.232-8.386C93.864 134.729 169.247 73.143 256 73.143Z"/></svg>