<?xml version="1.0" encoding="UTF-8" standalone="no"?>
<svg
   id="Layer_1"
   x="0"
   y="0"
   version="1.1"
   viewBox="0 0 512 512"
   xml:space="preserve"
   sodipodi:docname="navidrome.svg"
   width="512"
   height="512"
   inkscape:version="1.1.2 (0a00cf5339, 2022-02-04, custom)"
   xmlns:inkscape="http://www.inkscape.org/namespaces/inkscape"
   xmlns:sodipodi="http://sodipodi.sourceforge.net/DTD/sodipodi-0.dtd"
   xmlns="http://www.w3.org/2000/svg"
   xmlns:svg="http://www.w3.org/2000/svg"><defs
     id="defs27" /><sodipodi:namedview
     id="namedview25"
     pagecolor="#ffffff"
     bordercolor="#666666"
     borderopacity="1.0"
     inkscape:pageshadow="2"
     inkscape:pageopacity="0.0"
     inkscape:pagecheckerboard="0"
     showgrid="false"
     fit-margin-top="0"
     fit-margin-left="0"
     fit-margin-right="0"
     fit-margin-bottom="0"
     inkscape:zoom="1.6074219"
     inkscape:cx="256"
     inkscape:cy="256.31106"
     inkscape:window-width="1920"
     inkscape:window-height="1009"
     inkscape:window-x="-1928"
     inkscape:window-y="-8"
     inkscape:window-maximized="1"
     inkscape:current-layer="Layer_1" /><path
     style="fill:#0084ff"
     d="M 256,10.449 C 120.275,10.449 10.449,120.276 10.449,256 10.449,391.725 120.275,501.551 256,501.551 391.725,501.551 501.551,391.725 501.551,256 501.551,120.276 391.725,10.449 256,10.449 Z"
     id="path2" /><path
     style="fill:#ffffff"
     d="m 256,168.229 c -48.515,0 -87.771,39.257 -87.771,87.771 0,48.514 39.257,87.771 87.771,87.771 48.514,0 87.771,-39.257 87.771,-87.771 0,-48.514 -39.256,-87.771 -87.771,-87.771 z"
     id="path4" /><path
     d="M 437.061,74.94 C 388.735,26.615 324.434,0 256,0 187.566,0 123.265,26.615 74.939,74.94 26.613,123.265 0,187.566 0,256 0,324.434 26.614,388.735 74.939,437.061 123.264,485.387 187.566,512 256,512 324.434,512 388.735,485.386 437.061,437.061 485.387,388.736 512,324.434 512,256 512,187.566 485.386,123.266 437.061,74.94 Z M 256,491.102 C 126.365,491.102 20.898,385.635 20.898,256 20.898,126.365 126.365,20.898 256,20.898 385.635,20.898 491.102,126.365 491.102,256 491.102,385.635 385.635,491.102 256,491.102 Z"
     id="path6" /><path
     d="m 354.22,256 c 0,-54.158 -44.061,-98.22 -98.22,-98.22 -54.159,0 -98.22,44.062 -98.22,98.22 0,54.158 44.062,98.22 98.22,98.22 54.158,0 98.22,-44.061 98.22,-98.22 z m -175.542,0 c 0,-42.636 34.686,-77.322 77.322,-77.322 42.636,0 77.322,34.686 77.322,77.322 0,42.636 -34.686,77.322 -77.322,77.322 -42.636,0 -77.322,-34.686 -77.322,-77.322 z"
     id="path8" /><path
     d="m 285.257,256 c 0,-16.132 -13.124,-29.257 -29.257,-29.257 -16.133,0 -29.257,13.125 -29.257,29.257 0,16.132 13.125,29.257 29.257,29.257 16.132,0 29.257,-13.124 29.257,-29.257 z m -37.616,0 c 0,-4.609 3.75,-8.359 8.359,-8.359 4.609,0 8.359,3.75 8.359,8.359 0,4.609 -3.75,8.359 -8.359,8.359 -4.609,0 -8.359,-3.75 -8.359,-8.359 z"
     id="path10" /><path
     d="m 256,391.837 c -5.771,0 -10.449,4.678 -10.449,10.449 0,5.771 4.678,10.449 10.449,10.449 41.897,0 81.265,-16.294 110.853,-45.883 29.587,-29.587 45.881,-68.955 45.881,-110.852 0,-5.771 -4.678,-10.449 -10.449,-10.449 -5.771,0 -10.449,4.678 -10.449,10.449 C 391.837,330.9 330.9,391.837 256,391.837 Z"
     id="path12" /><path
     d="m 449.306,245.551 c -5.771,0 -10.449,4.678 -10.449,10.449 0,1.481 -0.018,2.958 -0.052,4.43 -0.136,5.769 4.43,10.557 10.199,10.692 0.085,0.002 0.168,0.003 0.252,0.003 5.656,0 10.307,-4.517 10.442,-10.202 0.039,-1.637 0.059,-3.279 0.059,-4.925 -0.002,-5.769 -4.68,-10.447 -10.451,-10.447 z"
     id="path14" /><path
     d="m 447.55,284.239 c -5.656,-1.145 -11.168,2.52 -12.308,8.178 -17.107,84.854 -92.489,146.44 -179.242,146.44 -5.771,0 -10.449,4.678 -10.449,10.449 0,5.771 4.678,10.449 10.449,10.449 47.353,0 93.467,-16.573 129.847,-46.668 35.9,-29.697 60.717,-71.084 69.881,-116.54 1.14,-5.656 -2.521,-11.167 -8.178,-12.308 z"
     id="path16" /><path
     d="m 256,120.163 c 5.771,0 10.449,-4.678 10.449,-10.449 0,-5.771 -4.678,-10.449 -10.449,-10.449 -41.897,0 -81.265,16.294 -110.853,45.883 -29.588,29.587 -45.882,68.955 -45.882,110.852 0,5.771 4.678,10.449 10.449,10.449 5.771,0 10.449,-4.678 10.449,-10.449 0,-74.9 60.937,-135.837 135.837,-135.837 z"
     id="path18" /><path
     d="m 62.996,240.876 c -5.759,-0.14 -10.557,4.43 -10.692,10.199 -0.039,1.637 -0.059,3.279 -0.059,4.925 0,5.771 4.678,10.449 10.449,10.449 5.771,0 10.449,-4.678 10.449,-10.449 0,-1.481 0.018,-2.958 0.052,-4.43 0.136,-5.77 -4.43,-10.557 -10.199,-10.694 z"
     id="path20" /><path
     d="m 256,73.143 c 5.771,0 10.449,-4.678 10.449,-10.449 0,-5.771 -4.678,-10.449 -10.449,-10.449 -47.353,0 -93.467,16.573 -129.847,46.668 -35.9,29.697 -60.717,71.084 -69.881,116.54 -1.14,5.657 2.521,11.168 8.178,12.308 0.697,0.141 1.392,0.208 2.076,0.208 4.872,0 9.232,-3.426 10.232,-8.386 C 93.864,134.729 169.247,73.143 256,73.143 Z"
     id="path22" /></svg>
