<svg xml:space="preserve" viewBox="0 0 512 512" xmlns="http://www.w3.org/2000/svg"><linearGradient id="a" x1="159.202" x2="159.202" y1="116.9" y2="399.5" gradientTransform="matrix(1 0 0 -1 0 514)" gradientUnits="userSpaceOnUse"><stop offset="0" style="stop-color:#3c84dc"/><stop offset=".22" style="stop-color:#6984d3"/><stop offset=".759" style="stop-color:#d284bd"/><stop offset="1" style="stop-color:#fc84b4"/></linearGradient><path d="M312.7 253.1c-7.1-6.2-17.9-5.4-24.2 1.7l-6.1 7c0 .5 0 1.1 0 0-26.3 30.5-80.9 101.3-141.9 100-56.4-1.2-104.8-48.5-104.8-106s46.6-104.1 104.1-104.1c32.5 0 60.5 16 79.6 39.3l24.8-27c-25.9-28.8-61.1-49.5-102.9-49.5C63.2 114.7 0 177.9 0 255.9s63.2 141.2 141.2 141.2c38 0 72.4-15 97.8-39.4 7.6-6.8 14.8-13.9 21.6-21.5l53.4-59c6.4-7.1 5.7-17.9-1.3-24.1" style="fill:url(#a)"/><linearGradient id="b" x1="350.423" x2="350.423" y1="116.554" y2="399.3" gradientTransform="matrix(1 0 0 -1 0 514)" gradientUnits="userSpaceOnUse"><stop offset="0" style="stop-color:#6474e4"/><stop offset=".134" style="stop-color:#647ce5"/><stop offset=".347" style="stop-color:#6293ea"/><stop offset=".612" style="stop-color:#60b9f0"/><stop offset=".916" style="stop-color:#5decf9"/><stop offset="1" style="stop-color:#5cfcfc"/></linearGradient><path d="M194.6 258.7c7.1 6.2 17.9 5.4 24.2-1.7l6.1-7c0-.5 0-1.1 0 0 27.5-31.5 79-97.7 141.9-100 63.3-2.3 109.7 48.5 109.7 106s-48 108-108.9 104.1c-32.4-2.1-54.4-19.3-73.5-42.6l-26 25.5c25.9 28.8 59 52.4 100 54.3C451.8 401 512 333.9 512 255.9s-62-141.2-146-141.2c-34 0-53.8 9.6-80.1 28-5.3 3.7-10.4 7.7-15.3 11.9-3.1 2.7-7 6-17.3 15-4.4 3.9-8.6 8-12.6 12.4l-47.5 52.5c-6.3 7.2-5.7 18 1.4 24.2" style="fill:url(#b)"/></svg>