<?xml version="1.0" encoding="UTF-8" standalone="no"?>
<svg
   viewBox="-0.12 -0.79 55.936489 63.37293"
   fill="#ffffff"
   fill-rule="evenodd"
   stroke="#000000"
   stroke-linecap="round"
   stroke-linejoin="round"
   width="2110.1157"
   height="2414.354"
   version="1.1"
   id="svg79"
   sodipodi:docname="traefik.svg"
   inkscape:version="1.1.2 (0a00cf5339, 2022-02-04, custom)"
   xmlns:inkscape="http://www.inkscape.org/namespaces/inkscape"
   xmlns:sodipodi="http://sodipodi.sourceforge.net/DTD/sodipodi-0.dtd"
   xmlns:xlink="http://www.w3.org/1999/xlink"
   xmlns="http://www.w3.org/2000/svg"
   xmlns:svg="http://www.w3.org/2000/svg">
  <defs
     id="defs83" />
  <sodipodi:namedview
     id="namedview81"
     pagecolor="#ffffff"
     bordercolor="#666666"
     borderopacity="1.0"
     inkscape:pageshadow="2"
     inkscape:pageopacity="0.0"
     inkscape:pagecheckerboard="0"
     showgrid="false"
     fit-margin-top="0"
     fit-margin-left="0"
     fit-margin-right="0"
     fit-margin-bottom="0"
     inkscape:zoom="0.3292"
     inkscape:cx="1034.3256"
     inkscape:cy="1190.7655"
     inkscape:window-width="1920"
     inkscape:window-height="1009"
     inkscape:window-x="-1928"
     inkscape:window-y="-8"
     inkscape:window-maximized="1"
     inkscape:current-layer="svg79" />
  <use
     xlink:href="#a"
     x="0.5"
     y="0.5"
     id="use2"
     width="100%"
     height="100%" />
  <symbol
     id="a"
     overflow="visible"
     transform="translate(-0.61871961,-1.6157845)">
    <g
       stroke="none"
       fill-rule="nonzero"
       id="g76">
      <path
         d="m 8.467,25.152 c 0,0 4.6,-3.998 18.212,-3.998 12.488,0 15.998,2.83 19.562,4 l -18.596,9.075 z"
         fill="#c9781f"
         id="path4" />
      <path
         d="m 6.526,37.187 c 0.084,1.735 1.82,0.932 2.605,0.4 0.746,-0.515 0.964,-0.087 1.03,-1.103 l 0.082,-2.006 c -1.13,-0.102 -2.355,0.166 -3.28,0.837 -0.478,0.348 -1.37,1.45 -0.435,1.882"
         fill="#f6d2a2"
         id="path6" />
      <path
         d="m 6.526,37.187 c 0.253,-0.093 0.52,-0.16 0.69,-0.39"
         fill="#c6b198"
         id="path8" />
      <path
         d="M 10.535,16.524 C 3.885,14.654 8.83,6.21 14.169,9.684 Z M 40.075,9.05 c 5.263,-3.692 10.02,4.637 3.902,6.733 z"
         fill="#37abc8"
         id="path10" />
      <path
         d="m 41.21,58.534 c 1.337,0.826 3.78,3.324 1.775,4.535 -1.927,1.762 -3.005,-1.934 -4.696,-2.446 0.728,-0.988 1.65,-1.888 2.92,-2.09 z m -23.883,2.823 c -1.57,0.242 -2.452,1.656 -3.76,2.374 -1.233,0.734 -1.704,-0.235 -1.815,-0.432 -0.196,-0.088 -0.177,0.082 -0.475,-0.218 -1.143,-1.8 1.19,-3.118 2.406,-4.012 1.692,-0.342 2.753,1.123 3.645,2.288 z"
         fill="#f6d2a2"
         id="path12" />
      <path
         d="m 10.813,14.2 c -0.877,-0.46 -1.52,-1.092 -0.984,-2.106 0.497,-0.938 1.42,-0.836 2.297,-0.373 z m 31.78,-0.88 c 0.877,-0.463 1.52,-1.093 0.984,-2.106 -0.497,-0.938 -1.42,-0.836 -2.297,-0.373 z"
         fill="#077e91"
         id="path14" />
      <path
         d="m 48.63,36.966 c -0.084,1.734 -1.82,0.932 -2.605,0.4 -0.746,-0.515 -0.964,-0.087 -1.03,-1.103 l -0.082,-2.006 c 1.13,-0.102 2.355,0.166 3.28,0.837 0.478,0.348 1.37,1.45 0.435,1.882"
         fill="#f6d2a2"
         id="path16" />
      <path
         d="m 48.63,36.967 c -0.253,-0.093 -0.52,-0.16 -0.69,-0.388"
         fill="#c6b198"
         id="path18" />
      <path
         d="m 26.912,5.54 c 6.657,0 12.897,0.95 16.15,7.337 2.92,7.16 1.882,14.878 2.327,22.444 0.383,6.496 1.23,14 -1.788,20.022 -3.175,6.334 -11.11,7.927 -17.643,7.693 C 20.824,62.853 14.623,61.18 11.726,56.496 8.326,51.001 9.926,42.83 10.183,36.716 10.475,29.473 8.219,22.209 10.601,15.121 13.073,7.769 19.739,6.107 26.913,5.541"
         fill="#37abc8"
         id="path20" />
      <path
         d="m 28.087,14.465 c 1.195,6.938 12.55,5.104 10.92,-1.89 C 37.545,6.3 27.69,8.037 28.087,14.465 m -13.57,1.122 c 1.55,6.04 11.233,4.494 10.868,-1.565 C 24.95,6.765 13.035,8.166 14.517,15.587 m 15.775,6.966 c 0.005,0.927 0.217,1.833 0.034,2.874 -0.23,0.435 -0.683,0.48 -1.073,0.657 a 1.58,1.58 0 0 1 -1.209,-0.942 c -0.14,-1.095 0.052,-2.156 0.087,-3.25 z"
         id="path22" />
      <path
         d="m 15.553,14.602 c 0,-0.98 0.73,-1.77 1.635,-1.77 0.905,0 1.635,0.79 1.635,1.77 0,0.98 -0.73,1.77 -1.635,1.77 -0.905,0 -1.635,-0.79 -1.635,-1.77 z"
         fill="#000000"
         id="path24" />
      <path
         d="m 17.546,15 c 0,-0.25 0.172,-0.45 0.386,-0.45 0.214,0 0.385,0.2 0.385,0.45 0,0.25 -0.172,0.45 -0.385,0.45 -0.213,0 -0.386,-0.2 -0.386,-0.45 z"
         id="path26" />
      <path
         d="m 29.28,14.162 c 0,-0.98 0.717,-1.77 1.608,-1.77 0.891,0 1.608,0.79 1.608,1.77 0,0.98 -0.717,1.77 -1.608,1.77 -0.891,0 -1.608,-0.79 -1.608,-1.77 z"
         fill="#000000"
         id="path28" />
      <path
         d="m 31.24,14.56 c 0,-0.25 0.17,-0.45 0.38,-0.45 0.21,0 0.38,0.2 0.38,0.45 0,0.25 -0.17,0.45 -0.38,0.45 -0.21,0 -0.38,-0.2 -0.38,-0.45 z m -5.62,8.132 c -0.713,1.727 0.398,5.18 2.334,2.63 -0.14,-1.095 0.052,-2.156 0.086,-3.25 z"
         id="path30" />
      <path
         d="m 25.506,19.367 c -1.33,0.113 -2.417,1.692 -1.725,2.942 0.916,1.652 2.96,-0.146 4.232,0.022 1.465,0.03 2.665,1.547 3.842,0.274 1.31,-1.413 -0.563,-2.794 -2.026,-3.4 z"
         fill="#f6d2a2"
         id="path32" />
      <path
         d="m 8.467,25.152 0.392,6.517 c -0.03,1.963 1.854,0.723 1.952,3.81 0.098,3.087 -1.14,2.502 -1.794,4.013 -0.654,1.511 -1.096,8.587 -1.096,8.587 0,0 0.67,1.322 2.76,2.513 2.09,1.191 5.457,1.86 8.367,1.728 2.91,-0.132 4.992,-0.755 5.513,-1.1 0.521,-0.345 1.383,-1.434 1.708,-2.277 0.325,-0.843 1.003,-7.785 0.956,-11.757 -0.047,-3.972 -0.705,-7.637 -0.705,-7.637 z"
         fill="#ef9325"
         id="path34" />
      <path
         d="M 26.914,44.493 C 18.338,45.449 8.387,42.806 8.387,42.806 c 0,0 0.146,-2.68 0.8,-3.624 8.92,2.76 17.918,1.885 17.918,1.885 0.133,1.25 0.04,2.246 -0.18,3.426 z m -1.077,5.283 C 17.261,50.732 7.924,47.983 7.924,47.983 c 0,0 -0.03,-2.575 0.31,-3.706 8.92,2.76 18.446,2.072 18.446,2.072 -0.08,1.36 -0.272,2.696 -0.844,3.426 z"
         fill="#e5e5e5"
         id="path36" />
      <path
         d="m 46.242,25.152 -0.03,6.517 c 0.03,1.963 -1.14,0.723 -1.24,3.81 -0.1,3.087 1.155,2.502 1.816,4.013 0.661,1.511 1.1,8.587 1.1,8.587 0,0 -0.678,1.322 -2.796,2.513 -2.118,1.191 -5.523,1.86 -8.472,1.728 -2.949,-0.132 -5.055,-0.755 -5.582,-1.1 -0.527,-0.345 -1.4,-1.434 -1.73,-2.277 -0.33,-0.843 -1.016,-7.785 -0.967,-11.757 0.049,-3.972 0.713,-7.637 0.713,-7.637 z"
         fill="#ef9325"
         id="path38" />
      <path
         d="m 28.667,44.493 c 8.684,0.956 18.762,-1.687 18.762,-1.687 0,0 -0.148,-2.68 -0.8,-3.624 -9.032,2.76 -18.143,1.885 -18.143,1.885 -0.135,1.25 -0.04,2.246 0.183,3.426 z m 1.093,5.283 c 8.684,0.956 18.138,-1.793 18.138,-1.793 0,0 0.03,-2.575 -0.315,-3.706 -9.03,2.76 -18.678,2.072 -18.678,2.072 0.08,1.36 0.275,2.696 0.855,3.426 z"
         fill="#e5e5e5"
         id="path40" />
      <path
         d="m 49.705,33.504 c -0.27,0.51 -0.804,0.754 -1.193,0.548 L 48.2,33.887 c -0.39,-0.206 -0.486,-0.783 -0.216,-1.294 l 6.077,-11.455 c 0.27,-0.51 0.804,-0.754 1.193,-0.548 l 0.312,0.165 c 0.39,0.206 0.486,0.783 0.216,1.294 z"
         fill="#d2e261"
         id="path42" />
      <path
         d="m 46.836,38.914 c -0.157,0.296 -0.6,0.37 -0.99,0.164 l -0.312,-0.165 c -0.39,-0.206 -0.577,-0.613 -0.42,-0.91 l 2.85,-5.374 c 0.157,-0.296 0.6,-0.37 0.99,-0.164 l 0.312,0.165 c 0.39,0.206 0.577,0.613 0.42,0.91 z"
         fill="#000000"
         id="path44" />
      <path
         d="M 49.37,32.435 49.058,32.27 c -0.39,-0.206 -0.787,-0.217 -0.89,-0.025 l -0.182,0.343 c 0.102,-0.192 0.5,-0.18 0.89,0.025 l 0.312,0.165 c 0.39,0.206 0.622,0.528 0.52,0.72 l 0.182,-0.343 c 0.102,-0.192 -0.13,-0.515 -0.52,-0.72 z"
         fill="#9b9b9b"
         id="path46" />
      <path
         d="m 45.55,35.076 c 0.2,-0.537 0.92,-0.76 1.614,-0.502 0.694,0.258 1.093,0.9 0.893,1.435 -0.2,0.535 -0.92,0.76 -1.614,0.502 -0.694,-0.258 -1.093,-0.9 -0.893,-1.435 z"
         fill="#f6d2a2"
         id="path48" />
      <path
         d="m 5.67,33.687 c 0.246,0.52 0.77,0.8 1.167,0.602 l 0.32,-0.15 c 0.398,-0.188 0.52,-0.762 0.275,-1.282 L 1.887,21.137 C 1.641,20.617 1.119,20.337 0.72,20.535 l -0.32,0.15 c -0.398,0.188 -0.52,0.762 -0.275,1.282 z"
         fill="#d2e261"
         id="path50" />
      <path
         d="m 8.3,39.225 c 0.143,0.303 0.583,0.397 0.978,0.21 l 0.32,-0.15 c 0.398,-0.188 0.604,-0.586 0.46,-0.89 l -2.6,-5.497 C 7.315,32.595 6.875,32.502 6.48,32.688 l -0.32,0.15 c -0.398,0.188 -0.604,0.586 -0.46,0.89 z"
         fill="#000000"
         id="path52" />
      <path
         d="m 6.055,32.637 0.32,-0.15 c 0.398,-0.188 0.796,-0.18 0.89,0.016 l 0.166,0.352 C 7.338,32.658 6.941,32.652 6.541,32.839 l -0.32,0.15 c -0.398,0.188 -0.646,0.5 -0.553,0.696 L 5.502,33.333 C 5.409,33.137 5.654,32.825 6.055,32.637 Z"
         fill="#9b9b9b"
         id="path54" />
      <path
         d="M 10,35.226 C 10.2,35.763 9.8,36.403 9.107,36.661 8.414,36.919 7.692,36.696 7.493,36.159 7.294,35.622 7.693,34.982 8.386,34.724 9.079,34.466 9.8,34.69 10,35.226 Z"
         fill="#f6d2a2"
         id="path56" />
      <path
         d="m 11.316,19.126 c -0.264,0.48 -0.888,0.644 -1.393,0.367 l -0.58,-0.32 c -0.505,-0.277 -0.7,-0.89 -0.436,-1.37 L 14.95,6.825 c 0.264,-0.48 0.888,-0.644 1.393,-0.367 l 0.58,0.32 c 0.505,0.277 0.635,0.796 0.436,1.37 -2.118,6.1 -6.045,10.978 -6.045,10.978 z"
         fill="#960000"
         id="path58" />
      <path
         d="m 12.915,12.856 c 1.838,-3.338 3.044,-6.2 2.758,-6.535 L 15.679,6.309 15.657,6.299 15.654,6.297 C 12.828,4.767 9.027,6.28 7.15,9.69 5.273,13.1 6.028,17.116 8.834,18.68 H 8.833 c 0.012,0.004 0.018,0.01 0.026,0.014 l 0.007,-0.012 c 0.43,0.068 2.2,-2.488 4.048,-5.826 z"
         fill="#595959"
         id="path60" />
      <path
         d="m 43.207,19.15 c 0.25,0.487 0.87,0.67 1.382,0.407 l 0.6,-0.304 c 0.513,-0.263 0.726,-0.87 0.475,-1.358 L 39.93,6.746 C 39.68,6.259 39.06,6.076 38.548,6.339 l -0.6,0.304 c -0.513,0.263 -0.658,0.778 -0.475,1.358 1.94,6.16 5.725,11.148 5.725,11.148 z"
         fill="#960000"
         id="path62" />
      <path
         d="M 41.79,12.838 C 40.05,9.438 38.925,6.543 39.222,6.226 L 39.215,6.214 c 0.008,-0.004 0.017,-0.006 0.024,-0.01 l 0.003,-10e-4 c 2.87,-1.446 6.623,0.174 8.4,3.64 1.777,3.466 0.907,7.454 -1.943,8.936 v 0.002 c -0.012,0.004 -0.02,0.01 -0.027,0.014 l -0.007,-0.012 c -0.43,0.056 -2.138,-2.55 -3.88,-5.94 z"
         fill="#595959"
         id="path64" />
      <path
         d="m 47.457,11.406 c 0,0 -2.115,-5.3 -4.568,-8.087 -2.453,-2.787 -26.453,-3.75 -30.394,0 -3.941,3.75 -5.427,8.088 -5.427,8.088 v -1.174 c 0,0 1.822,-5.153 5.427,-8.088 3.605,-2.935 27.288,-2.783 30.344,0 3.056,2.783 4.618,8.087 4.618,8.087 z"
         fill="#353535"
         id="path66" />
      <path
         d="m 48.165,9.638 c 0.5,0.996 0.593,1.967 0.185,2.176 -0.408,0.209 -1.148,-0.424 -1.66,-1.42 -0.512,-0.996 -0.593,-1.966 -0.185,-2.176 0.408,-0.21 1.148,0.424 1.66,1.42 z M 6.638,9.48 c 0.54,-0.98 1.297,-1.593 1.7,-1.372 0.403,0.221 0.292,1.2 -0.248,2.17 -0.54,0.97 -1.297,1.593 -1.7,1.37 -0.403,-0.223 -0.292,-1.2 0.248,-2.17 z"
         fill="#960000"
         id="path68" />
      <path
         d="M 38.414,10.29 H 16.03 c -4.02,0 -4.005,10.666 -0.232,11.28 l 7.805,-0.5 c 0.944,0 2.827,-3.65 3.18,-3.936 0.353,-0.286 1.518,-0.322 1.976,0 0.458,0.322 1.5,3.568 2.444,3.568 l 7.805,0.87 c 3.645,-1.675 2.726,-11.28 -0.587,-11.28 z"
         opacity="0.6"
         id="path70" />
      <path
         d="m 21.972,12.495 -8.43,-0.015 c -0.353,1.157 -0.747,2.62 -0.552,4.044 l 9.033,0.01 c 1.78,0 3.28,0.336 4.674,0.7 a 0.79,0.79 0 0 1 0.086,-0.094 c 0.353,-0.287 1.517,-0.322 1.976,0 0.118,0.083 0.277,0.364 0.462,0.732 a 10.92,10.92 0 0 0 2.164,0.262 l 9.782,0.01 c 0.387,-1.292 0.102,-2.678 0.015,-3.98 -2.968,0 -7.686,-0.067 -9.948,-0.067 -3.187,0 -5.97,-1.526 -9.258,-1.6 z"
         opacity="0.5"
         id="path72" />
      <path
         d="m 25.338,19.297 c -0.098,-2.3 4.294,-2.588 4.813,-0.662 0.519,1.926 -4.596,2.37 -4.812,0.662 -0.173,-1.36 0,0 0,0 z"
         fill="#000000"
         id="path74" />
    </g>
  </symbol>
</svg>
