<svg fill-rule="evenodd" stroke-linejoin="round" stroke-miterlimit="1.414" clip-rule="evenodd" viewBox="0 0 286 99" xmlns="http://www.w3.org/2000/svg"><path fill="none" d="M0 0h286v99H0z"/><clipPath id="a"><path d="M0 0h286v99H0z"/></clipPath><g fill="#332931" fill-rule="nonzero" clip-path="url(#a)"><path d="M78.018 47.989q-1.228 1.227-1.227 2.99v42.179q0 1.766 1.266 2.992 1.265 1.227 2.953 1.227 1.763 0 2.99-1.227 1.227-1.226 1.227-2.992V50.979q0-1.763-1.265-2.99-1.267-1.227-2.952-1.227-1.766 0-2.992 1.227m24.197 11.771a9.9 9.9 0 0 1 2.224-3.259 10.7 10.7 0 0 1 3.297-2.185 10.1 10.1 0 0 1 4.026-.806q3.297 0 5.867 1.841t3.719 4.679q1.226 2.53 3.835 2.53 1.993 0 3.067-1.303 1.074-1.304 1.073-2.839 0-.458-.114-1.073a3.7 3.7 0 0 0-.422-1.15 18 18 0 0 0-2.8-4.487 19.3 19.3 0 0 0-3.948-3.528 18.3 18.3 0 0 0-10.277-3.106q-3.911.001-7.323 1.457c-2.277.972-4.256 2.301-5.945 3.989q-2.53 2.53-3.987 5.942-1.457 3.416-1.457 7.247v16.643q0 3.836 1.495 7.208 1.497 3.376 4.026 5.905 2.53 2.532 5.944 4.027 3.411 1.495 7.247 1.495 2.99 0 5.676-.844a17.6 17.6 0 0 0 4.907-2.415 19.4 19.4 0 0 0 3.95-3.719 17.6 17.6 0 0 0 2.723-4.756q.305-.689.305-1.61 0-1.532-1.112-2.837-1.112-1.304-3.028-1.304-.999 0-2.109.69-1.113.691-1.648 1.763-1.229 2.84-3.797 4.717-2.57 1.88-5.867 1.879a9.9 9.9 0 0 1-3.948-.805 10.7 10.7 0 0 1-3.299-2.186 10.4 10.4 0 0 1-2.262-3.259 9.5 9.5 0 0 1-.843-3.949V63.709q0-2.069.805-3.949m39.457-12.998q-1.767 0-2.992 1.227-1.228 1.227-1.227 2.99v42.179q0 1.766 1.265 2.992 1.266 1.227 2.954 1.227 1.762 0 2.989-1.227 1.227-1.226 1.227-2.992V50.979q0-1.763-1.265-2.99-1.266-1.227-2.951-1.227m43.864 3.911q-2.531-2.531-5.943-4.027-3.414-1.495-7.247-1.495-3.837 0-7.247 1.495-3.414 1.496-5.945 4.027a18.8 18.8 0 0 0-3.988 5.904q-1.456 3.375-1.456 7.21v29.371q0 1.766 1.227 2.992 1.226 1.227 2.99 1.227 1.763 0 2.954-1.227 1.187-1.226 1.187-2.992V63.787q0-2.072.807-3.95a10.3 10.3 0 0 1 2.185-3.26q1.38-1.38 3.259-2.185 1.878-.805 4.027-.805 2.145 0 4.026.805a10.8 10.8 0 0 1 3.298 2.185 10 10 0 0 1 2.223 3.26 9.9 9.9 0 0 1 .805 3.95v29.371q0 1.766 1.267 2.992 1.264 1.227 2.952 1.227 1.763 0 2.952-1.227 1.188-1.226 1.188-2.992V63.787q0-3.834-1.495-7.21-1.495-3.374-4.026-5.904m47.087 19.249h-8.359q-1.764 0-2.953 1.227t-1.188 2.915q0 1.764 1.188 2.99 1.19 1.227 2.953 1.227h4.141v2.071q0 2.07-.804 3.949a10.3 10.3 0 0 1-2.186 3.259 10.3 10.3 0 0 1-3.259 2.186 10.1 10.1 0 0 1-4.027.805 9.9 9.9 0 0 1-3.949-.805 10.7 10.7 0 0 1-3.298-2.186 9.95 9.95 0 0 1-2.224-3.259 9.9 9.9 0 0 1-.806-3.949V63.787q0-2.072.806-3.95a10.3 10.3 0 0 1 2.186-3.26 10.3 10.3 0 0 1 3.259-2.185q1.878-.805 4.026-.805 3.296 0 5.867 1.841a11 11 0 0 1 3.796 4.754q.534 1.228 1.611 1.841 1.073.614 2.147.614 1.993 0 3.067-1.305 1.074-1.302 1.073-2.836 0-.461-.038-.883a3 3 0 0 0-.19-.805 19.3 19.3 0 0 0-2.8-4.754 18.3 18.3 0 0 0-3.988-3.682 18.9 18.9 0 0 0-4.947-2.378 18.6 18.6 0 0 0-5.598-.843q-3.836 0-7.247 1.457-3.413 1.456-5.945 3.988-2.529 2.531-4.024 5.944-1.497 3.413-1.497 7.247v16.565q0 3.836 1.497 7.208a19.4 19.4 0 0 0 4.024 5.905q2.531 2.531 5.945 4.027 3.411 1.494 7.247 1.494t7.247-1.494q3.412-1.496 5.944-4.027 2.531-2.53 4.026-5.905 1.496-3.372 1.496-7.208v-6.288q0-1.764-1.228-2.954-1.226-1.188-2.991-1.188m24.695 5.444q.842-1.992 1.61-3.758.765-1.763 1.535-3.45a149 149 0 0 0 1.494-3.414 127 127 0 0 1 1.573-3.566l6.136 14.188zm28.298 16.335-18.252-42.715q-.614-1.38-2.224-2.148a2.4 2.4 0 0 0-.805-.307 4.5 4.5 0 0 0-.805-.077q-2.609 0-3.836 2.532l-18.251 42.715q-.156.308-.23.768a5 5 0 0 0-.077.843q-.001 1.459 1.112 2.799 1.11 1.343 3.03 1.342 1.225 0 2.224-.613.995-.614 1.609-1.917a233 233 0 0 1 2.34-5.561q1.187-2.722 2.415-5.559h19.404l4.754 11.12q.996 2.53 3.835 2.53 1.915.001 3.028-1.342 1.112-1.34 1.113-2.799 0-.69-.384-1.611M80.591 27.652a6.32 6.32 0 0 0-5.824 6.771c.04.528.15 1.032.309 1.512l-25.644 6.324a15.4 15.4 0 0 0-8.075-10.93l7.524-15.638a8.03 8.03 0 0 0 7.498-1.426 8.04 8.04 0 0 0 1.152-11.306 8.034 8.034 0 1 0-12.458 10.152 8 8 0 0 0 2.712 2.141L40.289 30.83c-5.101-2.164-11.2-1.509-15.791 2.232-.502.409-.959.851-1.395 1.307l-8.264-6.765c.67-1.262.757-2.81.084-4.19A4.61 4.61 0 0 0 8.758 21.3a4.61 4.61 0 0 0-2.116 6.165 4.61 4.61 0 0 0 6.167 2.117 4.6 4.6 0 0 0 1.345-1.017l8.158 6.678c-4.565 5.559-4.749 13.743-.022 19.531a15.4 15.4 0 0 0 3.801 3.337l-9.434 13.526a10.34 10.34 0 0 0-7.034-2.072c-5.73.43-10.025 5.422-9.593 11.147.429 5.731 5.422 10.024 11.151 9.593 5.728-.43 10.02-5.424 9.59-11.151a10.35 10.35 0 0 0-3.211-6.749l9.553-13.698a15.46 15.46 0 0 0 14.679-.229l5.378 8.984a3.2 3.2 0 0 0-1.347 2.255 3.235 3.235 0 1 0 6.428.743 3.235 3.235 0 0 0-2.843-3.584 3.2 3.2 0 0 0-1.164.086l-5.44-9.088c.409-.273.811-.564 1.201-.881 4.181-3.411 6.104-8.564 5.59-13.559l25.964-6.403a6.31 6.31 0 0 0 11.8-3.553 6.32 6.32 0 0 0-6.768-5.826"/></g></svg>