<svg viewBox="0 0 15.524 11.112" xmlns="http://www.w3.org/2000/svg"><path d="M5.3 1.804C1.5 1.804.239 6.722.239 9.347c0 2.612 1.03 3.569 3.177 3.569 1.32 0 3.366-.754 4.135-2.698l-.334-.145c-.667.9-1.697 1.45-2.829 1.45-1.392 0-1.74-.928-1.74-2.263 0-2.959 1.421-6.774 3.017-6.774.653 0 .885.42.885.885 0 .55-.32 1.16-.668 1.334.276.32.595.377.827.377.287 0 .504-.086.662-.235a2.28 2.28 0 0 0-.124.729c0 1.044.551 1.407 1.552 1.407-.014-.13-.203-.247-.203-.987 0-2.205 1.408-3.525 3.758-3.525 1.276 0 1.799.9 1.799 1.973 0 1.552-1.074 3.453-2.54 3.569l1.03-4.846-2.146.29-1.973 9.227h2.089l.885-4.134h.072c2.612 0 4.193-2.046 4.193-3.888 0-1.494-1.045-2.858-3.424-2.858-1.829 0-3.798 1.05-4.653 2.395.026-.14.039-.29.039-.451 0-1.407-1.06-1.944-2.423-1.944z" style="fill:#fff" transform="translate(-.238 -1.804)"/></svg>