<svg fill="#FD4B2D" fill-rule="evenodd" viewBox="0 0 250 250" xmlns="http://www.w3.org/2000/svg"><path d="M27.059 162.102h6.313v25.359H27.06v-2.68a12.4 12.4 0 0 1-3.707 2.551 10.3 10.3 0 0 1-4.031.781q-4.87 0-8.426-3.809c-3.556-3.809-3.559-5.699-3.559-9.477 0-3.914 1.148-7.125 3.441-9.625s5.078-3.754 8.359-3.754a10.6 10.6 0 0 1 4.25.863 11.6 11.6 0 0 1 3.672 2.586zm-6.637 5.223a6.34 6.34 0 0 0-4.859 2.086q-1.938 2.085-1.937 5.348c.001 3.263.66 3.977 1.98 5.406a6.35 6.35 0 0 0 4.852 2.121 6.48 6.48 0 0 0 4.934-2.086q1.945-2.082 1.945-5.465 0-3.306-1.957-5.359c-1.957-2.053-2.957-2.055-4.957-2.051zm22.148-5.223h6.383v12.215q0 3.563.477 4.953a4.34 4.34 0 0 0 1.566 2.156 4.46 4.46 0 0 0 2.672.77 4.64 4.64 0 0 0 2.676-.758 4.47 4.47 0 0 0 1.637-2.227q.392-1.096.391-4.684v-12.426h6.309v10.746c0 4.43-.348 7.457-1.039 9.09a9.9 9.9 0 0 1-3.75 4.586q-2.473 1.599-6.289 1.598-4.137 0-6.703-1.863c-2.566-1.863-2.902-2.977-3.59-5.199q-.738-2.303-.738-8.391zm32.047-9.348h6.313v9.348h3.742v5.477H80.93v19.883h-6.312v-19.883h-3.234v-5.477h3.238zm16.297-.441h6.266v12.352a14.3 14.3 0 0 1 3.723-2.41 9.5 9.5 0 0 1 3.793-.805 8.53 8.53 0 0 1 6.313 2.609q2.196 2.262 2.195 6.645v16.758h-6.223v-11.117c0-2.937-.141-4.93-.418-5.969s-.75-1.816-1.422-2.328a3.95 3.95 0 0 0-2.484-.77 4.66 4.66 0 0 0-3.293 1.281q-1.382 1.282-1.914 3.496c-.184.762-.277 2.5-.281 5.223v10.184h-6.254zm56.438 24.32h-20.277c.289 1.801 1.074 3.234 2.344 4.301s2.895 1.594 4.871 1.594a8.35 8.35 0 0 0 6.078-2.492l5.32 2.52a12.64 12.64 0 0 1-4.766 4.203c-1.852.91-4.047 1.367-6.59 1.363q-5.918 0-9.641-3.762c-3.723-3.762-3.723-5.652-3.723-9.43q0-5.787 3.711-9.637c3.711-3.85 5.574-3.844 9.305-3.832q5.948 0 9.668 3.832c3.72 3.832 3.723 5.934 3.723 10.137zm-6.312-5.023a6.38 6.38 0 0 0-2.465-3.445 7.1 7.1 0 0 0-4.273-1.332 7.5 7.5 0 0 0-4.633 1.496q-1.249.926-2.316 3.281zm14.265-9.508h6.309v2.602q2.156-1.829 3.891-2.539a9.3 9.3 0 0 1 3.566-.723 8.6 8.6 0 0 1 6.352 2.645q2.193 2.238 2.195 6.621v16.758h-6.246v-11.102q0-4.542-.402-6.031a4.14 4.14 0 0 0-1.41-2.27 3.9 3.9 0 0 0-2.477-.781 4.62 4.62 0 0 0-3.289 1.293q-1.37 1.29-1.902 3.57-.276 1.19-.277 5.145v10.176h-6.309zm32.015-9.348h6.313v9.348h3.75v5.477h-3.75v19.883h-6.312v-19.883h-3.234v-5.477h3.234zm18.743-1.094a3.84 3.84 0 0 1 2.844 1.207 4.05 4.05 0 0 1 1.199 2.938 4 4 0 0 1-1.176 2.895 3.8 3.8 0 0 1-2.812 1.207 3.86 3.86 0 0 1-2.875-1.227 4.1 4.1 0 0 1-1.195-2.969c0-2.238 1.793-4.055 4.012-4.059zm-3.161 10.442h6.313v25.359h-6.312zm14.938-9.789h6.313v20.242l9.289-10.453h7.926l-10.836 12.152 12.133 13.207h-7.828l-10.684-11.687v11.688h-6.312zM116.984 80.051h3.984v11.48h-3.984zm10.368-.485h3.984v8.98h-3.984zM69.25 92.68c-5.336.004-10.238 2.953-12.773 7.68h6.766c2.992-2.602 7.34-3.359 10.484 0h7.152c-2.793-3.805-6.992-7.68-11.629-7.68m0 0"/><path d="M78.902 107.289c-9.32 19.648-25.664 2.895-15.672-6.93h-6.754c-5.305 9.316 2.023 21.879 12.773 21.594 8.309 0 15.172-12.437 15.172-14.637 0-.965-1.34-3.941-3.555-6.957h-7.152c2.371 2.168 4.438 5.332 5.188 6.93m0 0"/><path d="M168.621 79.91v51.879c-.012 9.957-8.016 18.023-17.895 18.035h-7.59V132.16H106.87v17.664h-7.594c-9.879-.012-17.883-8.078-17.895-18.035v-16.312h57.504V84.273h-27.77v17.531H81.383V79.91q-.001-1.038.121-2.07c.094-.82.238-1.633.441-2.43.066-.258.141-.512.215-.762.016-.062.035-.129.063-.191l.117-.367c.043-.129.09-.242.133-.371a11 11 0 0 1 .156-.414c.051-.133.113-.266.168-.402a18.3 18.3 0 0 1 1.625-3.043l.02-.027a14 14 0 0 1 .5-.707l.445-.574a14 14 0 0 1 .535-.625c.18-.203.355-.398.539-.586l.02-.023c.094-.105.195-.203.305-.305a18 18 0 0 1 2.125-1.793 15 15 0 0 1 .629-.43c.219-.145.48-.305.719-.453q.718-.416 1.438-.762a9 9 0 0 1 .48-.215 16.5 16.5 0 0 1 2.094-.762q.408-.122.828-.227c.133-.031.266-.066.41-.094a18 18 0 0 1 2.422-.355l.352-.02h.176c.266-.016.543-.02.816-.02h51.453c.277 0 .551 0 .816.02h.176l.355.02a18 18 0 0 1 2.422.355c.141.027.277.063.406.094.285.07.555.145.832.227a16.5 16.5 0 0 1 2.094.762l.48.215c.492.23.957.48 1.434.762l.719.453a10 10 0 0 1 .629.43q1.32.95 2.453 2.121.281.282.539.586l.539.625c.172.211.293.379.441.574l.5.707.023.027c.633.961 1.176 1.98 1.625 3.043q.078.205.168.402c.09.197.098.27.152.414s.094.242.133.371l.121.367a2 2 0 0 1 .059.191 18 18 0 0 1 .215.762 18 18 0 0 1 .441 2.43q.122 1.033.121 2.07m0 0"/><path d="M165.582 69.859H84.434c3.32-4.984 8.883-7.977 14.84-7.98h51.469c5.957.004 11.52 2.996 14.84 7.98zm2.926 7.981H81.496a17.96 17.96 0 0 1 2.926-7.98h81.148a17.9 17.9 0 0 1 2.938 7.98m.117 2.07v5.914h-29.738v-1.551h-27.77v1.551H81.379V79.91a18 18 0 0 1 .117-2.07h87.012a17 17 0 0 1 .117 2.07m-87.246 5.914h29.746v7.984H81.379zm57.5 0h29.746v7.984h-29.746zm-57.5 7.989h29.746v7.977H81.379zm57.5 0h29.746v7.977h-29.746zm0 0"/></svg>