<svg viewBox="78.712 58.488 640 350" xmlns="http://www.w3.org/2000/svg"><path fill="#1976d2" fill-opacity=".714" d="M648.541 145.679c-9.947 0-17.009-7.278-17.009-17.048 0-9.777 7.062-17.057 17.01-17.057 10.023 0 17.085 7.279 17.085 17.057 0 9.77-7.062 17.048-17.086 17.048zm-.03-50.786c-19.693 0-33.679 14.4-33.679 33.738 0 19.33 13.985 33.729 33.68 33.729 19.821 0 33.807-14.4 33.807-33.729 0-19.338-13.986-33.738-33.808-33.738zm-.029 84.95c-29.889 0-51.123-21.868-51.123-51.212 0-29.353 21.234-51.209 51.123-51.209 30.082 0 51.307 21.856 51.307 51.209 0 29.344-21.225 51.212-51.307 51.212zm-.04-121.355c-40.929 0-69.995 29.946-69.995 70.143 0 40.189 29.066 70.125 69.995 70.125 41.194 0 70.27-29.937 70.27-70.125 0-40.197-29.075-70.143-70.27-70.143zM158.166 183.902l-21.018-5.008c-19.13-4.396-28.849-9.413-28.849-23.21 0-15.684 15.99-21.965 30.42-21.965 14.666 0 25.381 7.329 31.692 18.737.02.048.051.097.09.157.127.247.276.484.403.731l.03-.02c1.985 3.002 5.323 5.008 8.92 5.008 6.121 0 10.557-4.425 10.557-10.547 0-2.341-.504-4.82-1.6-6.688-10.765-18.302-28.514-26.192-48.839-26.192-27.594 0-54.262 13.797-54.262 44.218 0 27.921 27.605 36.079 37.64 38.578l20.07 4.71c15.367 3.763 27.911 8.791 27.911 23.517 0 16.938-17.56 23.943-34.499 23.943-17.245 0-30.015-9.37-38.814-22.37h-.01c-1.956-3-4.988-4.328-8.702-4.328-5.984 0-10.805 5.185-10.587 11.162a11.943 11.943 0 0 0 2.153 6.405c13.787 20.633 33.728 28.41 55.96 28.41 28.543 0 57.085-13.143 57.085-45.132.001-20.693-15.366-35.405-35.75-40.116zm140.313 66.41c-33.866 0-55.199-25.403-55.199-58.331 0-32.939 21.333-58.343 55.2-58.343 34.191 0 55.515 25.403 55.515 58.343.001 32.929-21.323 58.331-55.516 58.331zm0-135.489c-45.47 0-77.777 32.93-77.777 77.158 0 44.217 32.306 77.146 77.777 77.146 45.786 0 78.093-32.929 78.093-77.146 0-44.228-32.306-77.158-78.093-77.158zm220.236 119.489c-.77.74-1.549 1.472-2.399 2.175a50.594 50.594 0 0 1-3.854 3.208c-8.829 6.391-19.979 10.094-33.017 10.094-33.876 0-55.198-25.402-55.198-58.332 0-32.939 21.322-58.342 55.198-58.342 34.183 0 55.506 25.403 55.506 58.342 0 17.196-5.816 32.317-16.236 42.855zm-50.618 83.626c2.528 0 5.146-.168 7.863-.504 5.018-.631 9.588-.909 13.73-.909 19.24.109 29.035 5.7 34.942 12.158 5.895 6.499 8.168 15.311 8.158 22.796.01 3.586-.555 6.795-1.177 8.721-2.944 8.93-8.888 15.002-17.996 19.576-9.035 4.484-21.095 6.777-33.707 6.757-4.514 0-9.105-.288-13.639-.831-8.573-.987-19.91-4.671-28.13-11.093-4.138-3.199-6.458-6.991-8.858-11.485-2.379-4.514-2.783-9.748-2.783-16.442v-.742c0-12.346 4.84-20.544 11.051-26.5 3.07-2.904 5.69-5.064 7.99-6.438.366-.218.438-.416.755-.593 6.094 3.605 13.388 5.559 21.801 5.529zm11.348-203.637c-45.47 0-77.786 32.929-77.786 77.157 0 29.887 14.765 54.598 38.378 67.489-.314.314-.62.641-.916.966-6.104 6.687-9.226 15.25-9.236 23.913a33.765 33.765 0 0 0 1.977 11.494 71.985 71.985 0 0 0-10.46 8.147c-9.026 8.408-18.734 22.541-19.02 42.097-.01.454-.01.829-.01 1.118-.01 10.071 2.378 19.157 6.458 26.774 6.133 11.466 15.683 19.445 25.54 24.77 9.916 5.334 20.256 8.166 29.272 9.274 5.373.643 10.826.988 16.268.988 15.151-.02 30.261-2.578 43.41-9.019 13.084-6.34 24.332-17.253 29.191-32.562 1.443-4.553 2.212-9.719 2.231-15.428-.02-11.595-3.349-25.759-13.767-37.452-10.42-11.734-27.654-19.566-51.288-19.459-5.138 0-10.606.356-16.426 1.078a43.159 43.159 0 0 1-5.166.334c-7.239-.048-10.872-2.053-13.036-4.098-2.133-2.084-3.2-4.839-3.229-8.058-.01-3.28 1.284-6.727 3.467-9.078 2.231-2.332 5.008-3.91 9.846-3.97.436 0 .9.01 1.374.05 3.101.216 6.112.325 9.037.325 24.188.047 42.38-7.448 54.756-17.759 12.415-10.312 18.971-22.854 22.071-32.76l-.04-.01c3.37-8.899 5.197-18.715 5.197-29.166.001-44.227-32.304-77.155-78.093-77.155z"/><path fill="#acef29" d="M288.402 225.96c-4.348 3.417 6.64 25.607 14.226 23.235 7.587-2.37-7.588-28.451-14.226-23.235z"/><path fill="#3d5263" d="m248.408 161.635-8.684 25.382 7.967 34.128 14.033 13.419"/><path fill="#fef3df" d="m230.49 140.215 8.563 18.834 10.836 4.86 15.304-20.519"/><path fill="#b58765" d="M258.364 151.2s-12.2-13.096-26.459-9.227c0 0 2.965 17.863 25.024 22.442l1.5 4.446s-34.634-4.107-32.206-34.638c0 0 25.462-11.188 38.388 6.85"/><path fill="#fef3df" d="m362.664 136.438-7.472 19.293-10.54 5.47-16.452-19.61"/><path fill="#b58765" d="M335.466 148.997s11.433-13.771 25.887-10.722c0 0-1.94 18.003-23.7 23.835l-1.246 4.524s34.342-6.078 30.176-36.42c0 0-26.058-9.717-37.935 9.03M269.376 242.35l29.407-.84 10.814-111.332c-29.338.838-63.907 20.892-63.189 46.036.022.764.087 1.464.126 2.193.126 2.066.35 3.98.617 5.84 1.111 7.763 3.274 14.204 5.1 22.677.88 4.094 2.98 12.211 2.98 12.211.036.214.1.42.136.633 1.581 8.66 6.7 16.658 14.01 22.581z"/><path fill="#b58765" d="m295.276 129.252 3.207 112.266 29.407-.84c6.96-6.331 11.613-14.609 12.7-23.344.023-.215.073-.425.097-.64 0 0 1.632-8.223 2.28-12.361 1.34-8.564 3.131-15.119 3.796-22.93a70.07 70.07 0 0 0 .278-5.868c.001-.73.025-1.432.003-2.196-.719-25.144-22.427-44.925-51.768-44.087z"/><path fill="#fef3df" d="M339.48 222.69c.425 14.886-17.676 27.486-40.432 28.137-22.76.65-41.549-10.896-41.974-25.783-.426-14.89 17.674-27.487 40.434-28.137 22.756-.65 41.547 10.893 41.972 25.783z"/><path fill="#5a3620" d="M279.49 220.237a5.92 5.92 0 1 1-11.835.336 5.92 5.92 0 0 1 11.835-.336zm49.312-1.409a5.921 5.921 0 0 1-11.836.338 5.919 5.919 0 0 1 5.75-6.086 5.917 5.917 0 0 1 6.086 5.748z"/><path fill="#87654a" d="M345.672 176.393c.14-1.642.24-3.327.244-5.138 0-.64.022-1.255.002-1.926-.612-21.438-18.65-38.42-43.314-38.626l-3.855.113h-.004c-.003.01-13.3 49.014 42.783 74.687.433-2.284 6.843-6.755 7.134-8.605 1.174-7.502-3.573-13.663-2.99-20.505z"/><path fill="#5a3620" d="M329.116 173.629a6.634 6.634 0 0 1-13.263.38 6.633 6.633 0 0 1 6.441-6.821 6.634 6.634 0 0 1 6.822 6.44zm-48.296 1.38a6.633 6.633 0 0 1-6.44 6.818 6.63 6.63 0 0 1-6.818-6.44 6.63 6.63 0 0 1 6.44-6.819 6.63 6.63 0 0 1 6.818 6.44z"/><path fill="#fff" d="M279.04 173.067a2.435 2.435 0 0 1-4.869.139 2.436 2.436 0 0 1 4.87-.14zm47.845-1.367a2.435 2.435 0 1 1-4.867.14 2.435 2.435 0 0 1 4.867-.14z"/><path fill="#f1f2f2" d="M297.5 128.387c-34.9.997-62.388 30.1-61.39 65 .997 34.9 30.1 62.386 65 61.389 34.901-.997 62.386-30.099 61.39-65-.998-34.9-30.1-62.386-65-61.39zm-3.049 113.562c-27.864.796-51.11-21.61-51.923-50.047-.813-28.436 21.118-52.134 48.982-52.93 27.863-.796 51.11 21.61 51.922 50.048.812 28.436-21.118 52.134-48.98 52.93z"/></svg>