<svg xmlns:xlink="http://www.w3.org/1999/xlink" version="1.0" viewBox="0 0 434.306 503.473" xmlns="http://www.w3.org/2000/svg"><defs><linearGradient id="b"><stop offset="0" stop-color="#fab434"/><stop offset="1" stop-color="#fb9143"/></linearGradient><linearGradient id="a"><stop offset="0" stop-color="#e4e4e4"/><stop offset="1" stop-color="#fff"/></linearGradient><linearGradient xlink:href="#a" id="e" x1="209.005" x2="200.967" y1="-22.632" y2="-2.039" gradientTransform="translate(-131.825 85.905)scale(2.20924)" gradientUnits="userSpaceOnUse"/><linearGradient xlink:href="#b" id="g" x1="116.743" x2="190.064" y1="62.911" y2="149.744" gradientTransform="translate(-174.857 107.78)scale(2.18124)" gradientUnits="userSpaceOnUse"/><linearGradient xlink:href="#b" id="f" x1="116.743" x2="190.064" y1="62.911" y2="149.744" gradientTransform="translate(-144.643 107.78)scale(2.18124)" gradientUnits="userSpaceOnUse"/><filter id="c" width="1.091" height="1.071" x="-.046" y="-.036" color-interpolation-filters="sRGB"><feGaussianBlur stdDeviation="2.934"/></filter><filter id="d" width="1.078" height="1.162" x="-.039" y="-.082" color-interpolation-filters="sRGB"><feGaussianBlur stdDeviation=".753"/></filter></defs><path fill="#666" fill-opacity=".99" stroke="#7d7d7d" stroke-linecap="round" stroke-width="1.085" d="M20 279.274h88.35c33.989 0 77.492 12.815 77.492 29.153V492H20Z" filter="url(#c)" transform="translate(-27.43 -600.228)scale(2.20924)"/><path fill="#fff" fill-opacity=".99" stroke="#7d7d7d" stroke-linecap="round" stroke-width="2" d="M16.755 16.716h194.983c61.897 0 171.017 39.636 171.017 64.41v405.59h-366Z"/><path fill="#fff" stroke="#7d7d7d" stroke-linecap="round" stroke-linejoin="bevel" stroke-width="1.085" d="M172.44-29.206c12.44 5.333 24.4 11.17 29.071 28.605 8.513-4.597 30.965-11.89 31.367-1.198" filter="url(#d)" transform="translate(-131.825 85.905)scale(2.20924)"/><path fill="url(#e)" stroke="#7d7d7d" stroke-linecap="round" stroke-linejoin="bevel" stroke-width="2" d="M211.741 16.716c32.902 0 87.165 12.824 101.62 66.769 18.808-10.155 68.41-26.267 69.296-2.647 0-40.095-127.944-64.122-170.916-64.122z" style="fill:url(#e)"/><path fill="url(#f)" stroke="#000" stroke-width="1.3" d="M37.565 236.906H75.93l93.372 176.165V236.905h27.645v210.58h-38.364L65.21 271.32v176.166H37.565v-210.58" font-family="'Droid Sans'" font-size="267.697" font-weight="400" letter-spacing="0" style="line-height:125%;-inkscape-font-specification:&quot;Droid Sans&quot;;fill:url(#f)" word-spacing="0"/><path fill="url(#g)" stroke="#000" stroke-width="1.3" d="M335.705 368.642q0-28.634-11.848-44.853-11.706-16.36-32.3-16.361-20.591 0-32.44 16.36-11.707 16.221-11.707 44.854t11.707 44.993q11.849 16.22 32.44 16.22 20.594 0 32.3-16.22 11.849-16.36 11.848-44.993m-88.295-55.15q8.18-14.103 20.593-20.874 12.554-6.91 29.902-6.911 28.773 0 46.686 22.85 18.053 22.848 18.054 60.085 0 37.236-18.054 60.085-17.913 22.85-46.686 22.85-17.349 0-29.902-6.77-12.412-6.912-20.593-21.017v23.696h-26.093V228.019h26.093v85.474" font-family="'Droid Sans'" font-size="267.697" font-weight="400" letter-spacing="0" style="line-height:125%;-inkscape-font-specification:&quot;Droid Sans&quot;;fill:url(#g)" word-spacing="0"/><text x="36.648" y="158.735" fill="#4d4d4d" font-family="'Myriad Pro'" font-size="106.891" font-weight="400" letter-spacing="0" style="line-height:125%;-inkscape-font-specification:&quot;Myriad Pro&quot;" word-spacing="0"><tspan x="36.648" y="158.735">Jupyter</tspan></text></svg>