<svg xmlns="http://www.w3.org/2000/svg" xmlns:xlink="http://www.w3.org/1999/xlink" version="1.0" width="512" height="512"><defs><linearGradient id="prefix__b"><stop offset="0" stop-color="#fab434"/><stop offset="1" stop-color="#fb9143"/></linearGradient><linearGradient id="prefix__a"><stop offset="0" stop-color="#e4e4e4"/><stop offset="1" stop-color="#fff"/></linearGradient><linearGradient xlink:href="#prefix__a" id="prefix__e" x1="209.005" y1="-22.632" x2="200.967" y2="-2.039" gradientUnits="userSpaceOnUse" gradientTransform="matrix(2.20924 0 0 2.20924 -68.58 91.189)"/><linearGradient xlink:href="#prefix__b" id="prefix__g" gradientUnits="userSpaceOnUse" gradientTransform="matrix(2.18124 0 0 2.18124 -111.612 113.065)" x1="116.743" y1="62.911" x2="190.064" y2="149.744"/><linearGradient xlink:href="#prefix__b" id="prefix__f" gradientUnits="userSpaceOnUse" gradientTransform="matrix(2.18124 0 0 2.18124 -81.398 113.065)" x1="116.743" y1="62.911" x2="190.064" y2="149.744"/><filter id="prefix__c" color-interpolation-filters="sRGB"><feGaussianBlur stdDeviation="2.934"/></filter><filter id="prefix__d" color-interpolation-filters="sRGB"><feGaussianBlur stdDeviation=".753"/></filter></defs><path d="M20 279.274h88.35c33.989 0 77.492 12.815 77.492 29.153V492H20z" transform="matrix(2.20924 0 0 2.20924 35.815 -594.944)" fill="#666" fill-opacity=".99" stroke="#7d7d7d" stroke-width="1.085" stroke-linecap="round" filter="url(#prefix__c)"/><path d="M80 22h194.983C336.88 22 446 61.636 446 86.41V492H80z" fill="#fff" fill-opacity=".99" stroke="#7d7d7d" stroke-width="2" stroke-linecap="round"/><path d="M172.44-29.206c12.44 5.333 24.4 11.17 29.071 28.605 8.513-4.597 30.965-11.89 31.367-1.198" transform="matrix(2.20924 0 0 2.20924 -68.58 91.189)" fill="#fff" stroke="#7d7d7d" stroke-width="1.085" stroke-linecap="round" stroke-linejoin="bevel" filter="url(#prefix__d)"/><path d="M274.986 22c32.902 0 87.165 12.824 101.62 66.769 18.808-10.155 68.41-26.267 69.296-2.647C445.902 46.027 317.958 22 274.986 22z" fill="url(#prefix__e)" stroke="#7d7d7d" stroke-width="2" stroke-linecap="round" stroke-linejoin="bevel"/><path style="line-height:125%;-inkscape-font-specification:'Droid Sans'" d="M100.81 242.19h38.364l93.372 176.165V242.189h27.645v210.58h-38.364l-93.372-176.165V452.77H100.81V242.19" font-weight="400" font-size="267.697" font-family="Droid Sans" letter-spacing="0" word-spacing="0" fill="url(#prefix__f)" stroke="#000" stroke-width="1.3"/><path style="line-height:125%;-inkscape-font-specification:'Droid Sans'" d="M398.95 373.926c0-19.089-3.95-34.04-11.848-44.853-7.805-10.907-18.571-16.361-32.3-16.361-13.728 0-24.541 5.454-32.44 16.361-7.804 10.814-11.707 25.764-11.707 44.853 0 19.088 3.903 34.086 11.707 44.993 7.899 10.814 18.712 16.22 32.44 16.22 13.729 0 24.495-5.406 32.3-16.22 7.899-10.907 11.848-25.905 11.848-44.993m-88.295-55.15c5.454-9.402 12.318-16.36 20.593-20.874 8.369-4.607 18.336-6.911 29.902-6.911 19.182 0 34.744 7.616 46.686 22.85 12.035 15.232 18.053 35.26 18.054 60.085 0 24.824-6.019 44.852-18.054 60.085-11.942 15.233-27.504 22.85-46.686 22.85-11.566 0-21.533-2.257-29.902-6.77-8.275-4.608-15.139-11.614-20.593-21.017v23.696h-26.093V233.303h26.093v85.474" font-weight="400" font-size="267.697" font-family="Droid Sans" letter-spacing="0" word-spacing="0" fill="url(#prefix__g)" stroke="#000" stroke-width="1.3"/><text y="164.019" x="99.893" style="line-height:125%;-inkscape-font-specification:'Myriad Pro'" font-weight="400" font-size="106.891" font-family="Myriad Pro" letter-spacing="0" word-spacing="0" fill="#4d4d4d"><tspan y="164.019" x="99.893">Jupyter</tspan></text><text style="line-height:125%" x="-919.78" y="540.889" font-weight="400" font-size="40" font-family="sans-serif" letter-spacing="0" word-spacing="0"/></svg>