<svg width="185pt" height="222pt" version="1.0" viewBox="0 0 185 222" xmlns="http://www.w3.org/2000/svg"><g transform="translate(0 222) scale(.1 -.1)" fill="#337ab7"><path d="m983 2210c-468-66-828-418-944-920-29-124-36-358-15-478 57-328 272-604 565-727 125-53 193-67 353-72 112-4 171-1 250 12 247 41 496 156 611 284l37 41-5 172c-3 95-8 316-11 491l-6 319-267-8c-146-3-342-9-436-13l-170-6-8-213c-5-118-7-215-5-217s81-7 176-11l172-7v-27c0-65-12-90-51-111-60-30-172-44-241-30-249 52-347 418-180 677 105 163 290 242 537 231 68-4 153-15 195-25 41-11 77-16 80-11 9 13 43 526 37 542-8 22-124 64-236 87-115 23-342 34-438 20z"/></g></svg>
