<svg fill="none" viewBox="0 0 41 25" xmlns="http://www.w3.org/2000/svg"><g clip-path="url(#a)"><path fill="#fff" d="M6.402 25c-1.217-.1-5.02-3.735-5.02-8.325S5.175 8.35 9.833 8.35h.179l.585.011.238-.526C12.624 3.891 16.617 1.344 21 1.344c6.138 0 11.136 4.92 11.136 10.972v.022l-.004.955.965-.083q.27-.022.527-.022c3.305 0 5.992 2.648 5.992 5.904 0 3.257-3.137 5.865-6.442 5.865l-26.769.04z"/><path fill="#4598D3" d="M33.58 12.233C33.58 5.695 27.678 0 21.042 0c-4.888 0-9.25 2.91-11.129 7.043h-.066C4.698 7.039.5 11.596.5 16.675c0 3.613 1.528 6.427 4.607 7.929.49-.505 1.707-.512 2.336-.854-1.104-.36-2-1.102-2.962-1.805-3.297-2.42-2.804-8.325-.64-10.317 3.466-3.191 7.32-2.38 7.32-2.38l.479-1.053c.797-1.754 2.405-6.848 9.74-6.758 7.757.094 9.87 8.178 9.87 10.872v1.934l1.92-.165a5 5 0 0 1 .45-.018c2.818 0 5.696 2.161 5.696 4.935s-2.878 4.222-5.696 4.222H17.69c.183.09 2.018 1.74 5.042 1.74H33.62c3.798 0 6.876-2.122 6.876-5.865s-3.118-6.859-6.917-6.859"/><path fill="#fff" d="M26.144 22.22c1.108-1.74 1.876-3.398 2.625-6.186 1.346-4.996-2.742-11.059-6.42-10.836-5.846.36-8.913 5.044-10.043 10.09-1.228 3.066-2.226 5.649-3.001 7.839l16.84-.911z"/><path fill="#4598D3" d="M28.483 8.49c-.724-.266-2.588-.086-3.9.419-.644.248-1.152.573-1.328.958-.479 1.066 2.465 2.914 3.649 2.576.567-.162 1.378-1.348 1.74-2.385.256-.739.29-1.401-.16-1.567m-6.587.875c-.336-.043-1.03-.133-1.254-.381-.497-.555-1.29-.703-1.868-.577-.614.134-.94.836-.519 1.708.19.392.143.868-.051 1.22.603-.55 1.166-1.004 1.583-1.22.822-.425 1.554-.649 2.11-.75m-3.625 5.904c.04.195.088.375.136.552l-.048-.051s.04.086.099.238q.125.414.27.767c.322 1.02.666 2.587.154 3.57-.384.735-5.254 3.138 3.071 4.578l7.473-1.703c-3.29-.44-1.97-2.133-1.185-3.527.94-1.671 1.262-2.738 1.466-4.276a6.7 6.7 0 0 0 .008-1.78l-.008-.04s0 .051-.014.141l.014-.23s-.596 2.352-1.765 3.195c-.275.195-.447.328-.56.414.117-.44.56-2.287-.073-3.3 0 0-.263 4.255-2.563 4.482-2.303.227-5.546-2.097-6.475-3.026zm9.638 2.201s-.6 2.014-1.02 2.929c-.37.807-.487.746-.757.84.102-.253.172-.58.307-1.135.157-.667 0-.843 0-.843-.208.997-.534 1.714-.808 2.183-.358.119-.797.194-1.115.068-.45-.176-.527-2.266-.527-2.381 1.96.133 3.006-.652 3.923-1.657z"/><path fill="#4598D3" d="M11.65 15.13a6.5 6.5 0 0 0-.118 1.372c-.446.7-3.678 8.264-7.688 4.867.687.594 1.265 3.238 1.265 3.238 3.773 2.173 6.387-6.347 6.683-6.909.245.512.654 1.553 2.936 1.6 0 0-2.677-1.294-1.481-4.723 1.195-3.43 2.961-6.34 5.385-7.687s4.874-1.254 7.126-.306c0 0-3.4-3.08-7.309-.753-2.244 1.336-3.74 2.82-4.767 4.344-.863.151-1.912.014-2.336.014-.538 0-1.368.36-.991 1.661.366 1.272 1.382 2.561 1.298 3.285z"/></g><defs><clipPath id="a"><path fill="#fff" d="M.5 0h40v25H.5z"/></clipPath></defs></svg>