<svg id="Layer_1" data-name="Layer 1" viewBox="0 0 239.87 247" xmlns="http://www.w3.org/2000/svg"><defs><style>.cls-1{fill:#0071bc}</style></defs><path d="m38.24 98.06-13.31-7.69L58.36 32.5a7.68 7.68 0 0 1 6.66-3.84h66.91V44H69.46Z" class="cls-1"/><path d="M13.31 83.66 0 75.98 41.64 3.84A7.7 7.7 0 0 1 48.3 0h83.63v15.38H52.74Zm225.52 65-50.14-86.91a7.71 7.71 0 0 0-6.66-3.85H81.73a7.71 7.71 0 0 0-6.66 3.85l-50.14 86.86a7.66 7.66 0 0 0 0 7.69l50.14 86.86a7.72 7.72 0 0 0 6.66 3.84h100.3a7.72 7.72 0 0 0 6.66-3.84l8.76-15.19a.65.65 0 0 0-.24-.91l-12.16-7a.67.67 0 0 0-.92.24l-6.54 11.34H86.17L40.46 152.5l45.71-79.22h91.42l45.71 79.22-24.9 43.13h-82.63l48.93-84.75a7.69 7.69 0 0 0-6.66-11.53h-68a.67.67 0 0 0-.67.66v14.05a.66.66 0 0 0 .67.66h54.63l-48.93 84.75a7.7 7.7 0 0 0 6.66 11.54h100.44a7.71 7.71 0 0 0 6.66-3.85l29.33-50.86a7.66 7.66 0 0 0 0-7.69Z" class="cls-1"/></svg>