<svg viewBox="0 0 234.375 213.968" xmlns="http://www.w3.org/2000/svg"><g transform="translate(-666.302 -3014.236) scale(5.0988)"><rect width="43.93" height="39.927" x="131.697" y="592.184" ry="1.857" style="fill:none;stroke:#fff;stroke-width:2.03694;stroke-miterlimit:4;stroke-dasharray:none;stroke-opacity:1"/><path d="M163.948 686.423c-.38 0-.689.285-.689.639v7.086c0 .354.308.64.689.64h32.443c.379 0 .688-.288.688-.64v-7.086c0-.354-.307-.639-.688-.639zm3.939 1.696a2.486 2.486 0 0 1 2.486 2.486 2.486 2.486 0 0 1-2.486 2.487 2.486 2.486 0 0 1-2.486-2.487 2.486 2.486 0 0 1 2.486-2.486zm0 1.188a1.299 1.299 0 0 0-1.298 1.298 1.299 1.299 0 0 0 1.298 1.299 1.299 1.299 0 0 0 1.299-1.299 1.299 1.299 0 0 0-1.3-1.298zm-3.939 7.519c-.38 0-.689.286-.689.64v7.086c0 .353.308.639.689.639h32.443c.379 0 .688-.288.688-.64v-7.086c0-.353-.307-.639-.688-.639zm3.939 1.696a2.486 2.486 0 0 1 2.486 2.486 2.486 2.486 0 0 1-2.486 2.487 2.486 2.486 0 0 1-2.486-2.487 2.486 2.486 0 0 1 2.486-2.486zm0 1.188a1.299 1.299 0 0 0-1.298 1.298 1.299 1.299 0 0 0 1.298 1.3 1.299 1.299 0 0 0 1.299-1.3 1.299 1.299 0 0 0-1.3-1.298zm-3.939 7.52c-.38 0-.689.285-.689.638v7.087c0 .353.308.639.689.639h32.443c.379 0 .688-.288.688-.64v-7.086c0-.353-.307-.638-.688-.638zm3.939 1.695a2.486 2.486 0 0 1 2.486 2.487 2.486 2.486 0 0 1-2.486 2.486 2.486 2.486 0 0 1-2.486-2.486 2.486 2.486 0 0 1 2.486-2.487zm0 1.188a1.299 1.299 0 0 0-1.298 1.299 1.299 1.299 0 0 0 1.298 1.299 1.299 1.299 0 0 0 1.299-1.3 1.299 1.299 0 0 0-1.3-1.298z" style="fill:#fff;fill-opacity:1" transform="translate(-26.508 -88.86)"/></g></svg>