<svg viewBox="0 0 144 203" xmlns="http://www.w3.org/2000/svg"><path d="M70.016 191.253s13.012 36.144 40.068 51.221c0 0 8.622 4.106 18.498 2.084 10.01-1.19 16.9-7.803 16.9-7.803 20.933-22.83 21.9-61.233 21.9-61.233" style="fill:#d3ab5f;fill-opacity:1;fill-rule:nonzero;stroke:#000;stroke-width:2.26513;stroke-linecap:butt;stroke-linejoin:miter;stroke-miterlimit:4;stroke-dasharray:none;stroke-opacity:1" transform="matrix(1.03658 -.28904 .27748 1.1006 -85.317 -36.715)"/><path d="m5.37 67.95 31.6 86.54s79.93 11.772 102.855-44.819l-29.534-81.995S81.582 71.462 5.37 67.95z" style="display:inline;fill:#564f4b;fill-opacity:1;stroke:#000;stroke-width:1.965;stroke-linecap:butt;stroke-linejoin:round;stroke-miterlimit:4;stroke-dasharray:none;stroke-opacity:1"/><path d="M5.37 67.95S0 54.32 51.015 35.73c51.014-18.587 59.276-8.054 59.276-8.054S82.2 71.668 5.37 67.95z" style="display:inline;fill:#27201e;fill-opacity:1;stroke:#000;stroke-width:1.865;stroke-linecap:butt;stroke-linejoin:miter;stroke-miterlimit:4;stroke-dasharray:none;stroke-opacity:1"/><path d="M14.045 91.496s70.232 4.256 104.653-40.325m-88.715 84.474s72.778 7.162 102.614-44.562" style="fill:none;stroke:#000;stroke-width:1.365;stroke-linecap:butt;stroke-linejoin:miter;stroke-miterlimit:4;stroke-dasharray:none;stroke-opacity:1"/><circle cx="54.009" cy="111.22" r="7.332" style="fill:#000;fill-opacity:1;stroke-width:1.365;stroke-miterlimit:4;stroke-dasharray:none"/><circle cx="105.644" cy="93.458" r="7.332" style="fill:#000;fill-opacity:1;stroke-width:1.365;stroke-miterlimit:4;stroke-dasharray:none"/><path d="M74.25 108.535s6.61 9.294 8.261-2.065c0 0 7.849 7.125 7.23-4.234" style="fill:none;stroke:#000;stroke-width:1.565;stroke-linecap:butt;stroke-linejoin:miter;stroke-miterlimit:4;stroke-dasharray:none;stroke-opacity:1"/><path d="m94.594 89.844 4.75-7.642M60.722 101.41l-9.5-2.066" style="fill:none;stroke:#000;stroke-width:1.865;stroke-linecap:butt;stroke-linejoin:miter;stroke-miterlimit:4;stroke-dasharray:none;stroke-opacity:1"/><ellipse cx="27.471" cy="57.572" rx="55.164" ry="17.623" style="fill:#453e3b;fill-opacity:1;stroke:#000;stroke-width:1.97856;stroke-miterlimit:4;stroke-dasharray:none;stroke-opacity:1" transform="matrix(.86133 -.50805 .48947 .87202 0 0)"/><ellipse cx="27.316" cy="56.34" rx="45.598" ry="11.324" style="fill:#453e3b;fill-opacity:1;stroke:#000;stroke-width:1.25033;stroke-miterlimit:4;stroke-dasharray:none;stroke-opacity:1" transform="matrix(.86225 -.50648 .49102 .87115 0 0)"/><ellipse cx="27.289" cy="55.713" rx="36.561" ry="6.177" style="fill:#453e3b;fill-opacity:1;stroke:#000;stroke-width:1.31497;stroke-miterlimit:4;stroke-dasharray:none;stroke-opacity:1" transform="matrix(.85885 -.51223 .48535 .87432 0 0)"/><path d="M52.46 106.366c-1.998.051-4.167 2.307-3.963 4.228.936 1.895 3.806 1.587 4.865-.039 1.276-1.483.349-3.119-.902-4.189zm51.221-17.556c-1.998.051-4.167 2.307-3.963 4.228.936 1.896 3.806 1.588 4.865-.039 1.276-1.483.35-3.118-.901-4.188z" style="fill:#e3dbdb;stroke:#000;stroke-width:.264583px;stroke-linecap:butt;stroke-linejoin:miter;stroke-opacity:1"/><path d="M56.57 113.566c-.866.818-.677 3.39.557 2.796.833-.143 1.959-.536 2.202-1.926-.052-1.378-1.261-1.464-1.966-1.4-.287.079-.556.275-.792.53zm52.048-18.176c-.867.82-.678 3.391.557 2.796.832-.142 1.958-.535 2.2-1.925-.051-1.378-1.26-1.464-1.965-1.4-.287.078-.556.275-.792.53z" style="fill:#e3dbdb;stroke:#000;stroke-width:.302963px;stroke-linecap:butt;stroke-linejoin:miter;stroke-opacity:1"/><path d="M62.787 157.02c8.067 14.744 26.21 25.775 37.586 30.863 4.198 1.686 10.776 3.212 15.291 3.54 5.498.4-6.324 4.769-11.208 5.15-13.254.338-25.232-7.776-36.603-16.437-7.265-5.787-18.032-17.423-22.15-23.123" style="fill:#a77b49;fill-opacity:1;stroke:none;stroke-width:.264583px;stroke-linecap:butt;stroke-linejoin:miter;stroke-opacity:1"/><path d="M131.461 133.723c-3.318.011-2.169 5.417-2.162 8.258.445 2.273-.821 8.114 3.016 6.397 2.268-2.565 1.868-6.43 1.937-9.518-.173-1.825-.907-5.143-2.79-5.137z" style="fill:#fea;stroke:none;stroke-width:.264583px;stroke-linecap:butt;stroke-linejoin:miter;stroke-opacity:1"/><path d="M102.296 41.489c-1.613 1.97-5.087 3.934-2.416 6.697a263.422 263.422 0 0 0 4.278 11.58c1.672 4.48 5.23-.602 3.072-3.161-.784-2.504-1.501-5.132-2.518-7.602-.94-2.472-1.129-5.164-2.416-7.514zm8.408 22.124c-1.613 1.97-5.087 3.934-2.416 6.698 1.328 3.898 9.79 25.716 11.3 29.548 1.672 4.48 4.196-1.222 2.039-3.78-.784-2.504-7.49-22.481-8.507-24.952-.94-2.471-1.13-5.163-2.416-7.514z" style="fill:#ac9d93;stroke:none;stroke-width:.264583px;stroke-linecap:butt;stroke-linejoin:miter;stroke-opacity:1"/><path d="M24.991 69.81c2.151 5.293 3.965 10.73 6.448 15.884 2.708 2.076-1.045 4.433-3.28 3.73-3.675.071-7.34 1.217-10.997.775-3.351-.375-2.873-3.951-3.496-6.354-.934-3.211-2.249-6.312-3.549-9.38-2.177-2.447.234-4.596 2.948-4.03 3.215.181 6.503 1.298 9.663.097a21.892 21.892 0 0 0 2.263-.723zm8.468 22.719c2.151 5.293 12.02 32.003 14.503 37.157 2.708 2.077-1.045 4.433-3.28 3.73-3.675.072-7.34 1.218-10.997.775-3.351-.374-10.928-25.224-11.55-27.627-.935-3.211-2.25-6.312-3.55-9.38-2.177-2.447.234-4.596 2.948-4.03 3.215.181 6.503 1.298 9.663.097a21.89 21.89 0 0 0 2.263-.723zm16.936 45.025c2.151 5.293 2.106 5.773 4.59 10.927 2.707 2.076-1.046 5.465-3.28 4.763-3.676.071-7.34.185-10.998-.258-3.351-.374-2.873-3.951-3.496-6.354-.934-3.211-.39-1.355-1.69-4.423-2.177-2.447.234-4.596 2.948-4.03 3.215.181 6.503 1.298 9.663.097a21.892 21.892 0 0 0 2.263-.722z" style="fill:#453e3b;fill-opacity:1;stroke:none;stroke-width:.264583px;stroke-linecap:butt;stroke-linejoin:miter;stroke-opacity:1"/><path d="M81.369 29.156C69.497 40.262 55.01 48.032 40.797 55.613c6.773-1.437 12.77-5.961 19.163-8.759 7.742-4.159 15.562-8.894 21.156-15.764l.283-.92z" style="fill:#6e625a;fill-opacity:1;stroke:none;stroke-width:.264583px;stroke-linecap:butt;stroke-linejoin:miter;stroke-opacity:1"/><path d="M73.342 28.572c-9.437 8.47-20.954 14.395-32.253 20.177 5.385-1.096 10.152-4.546 15.234-6.68 6.155-3.172 12.372-6.783 16.818-12.022l.225-.703z" style="fill:#6e625a;fill-opacity:1;stroke:none;stroke-width:.206015px;stroke-linecap:butt;stroke-linejoin:miter;stroke-opacity:1"/><path d="M131.608 153.147c-3.319.01-2.9 4.103-2.893 6.943.299 7.969-3.45 18.63-.782 18.08 2.268-2.564 5.227-17.091 5.296-20.178-.172-1.825.262-4.851-1.621-4.845z" style="fill:#fea;stroke:none;stroke-width:.264583px;stroke-linecap:butt;stroke-linejoin:miter;stroke-opacity:1"/></svg>