<svg fill="none" style="transition:none!important;animation-duration:0s!important;animation-delay:-.0001s;animation-play-state:paused;display:inline;fill:none;transition-property:none;visibility:visible;width:18px" viewBox="0 0 18 18" xmlns="http://www.w3.org/2000/svg"><path fill="currentcolor" d="M0 2a2 2 0 1 1 4 0 2 2 0 0 1-4 0m0 7a2 2 0 1 1 4 0 2 2 0 0 1-4 0m0 7a2 2 0 1 1 4 0 2 2 0 0 1-4 0M7 2a2 2 0 1 1 4 0 2 2 0 0 1-4 0m0 7a2 2 0 1 1 4 0 2 2 0 0 1-4 0m0 7a2 2 0 1 1 4 0 2 2 0 0 1-4 0m7-14a2 2 0 1 1 4 0 2 2 0 0 1-4 0m0 7a2 2 0 1 1 4 0 2 2 0 0 1-4 0m0 7a2 2 0 1 1 4 0 2 2 0 0 1-4 0" style="transition:none!important;animation-duration:0s!important;animation-delay:-.0001s;animation-play-state:paused;fill:#191d88;transform-origin:0 0;transition-property:none;visibility:visible"/></svg>