<?xml version="1.0" encoding="UTF-8"?>
<svg b-jj7ji9pauu="" xmlns="http://www.w3.org/2000/svg" viewBox="0 0 18 18" fill="none" style="transition: none !important; animation-duration: 0s !important; animation-delay: -0.0001s; animation-play-state: paused; display: inline; fill: none; transition-property: none; visibility: visible; width: 18px"><path b-jj7ji9pauu="" d="M0 2C0 0.895431 0.895431 0 2 0C3.10457 0 4 0.895431 4 2C4 3.10457 3.10457 4 2 4C0.895431 4 0 3.10457 0 2Z" fill="currentcolor" style="transition: none !important; animation-duration: 0s !important; animation-delay: -0.0001s; animation-play-state: paused; fill: rgb(25, 29, 136); transform-origin: 0px 0px; transition-property: none; visibility: visible"></path><path b-jj7ji9pauu="" d="M0 9C0 7.89543 0.895431 7 2 7C3.10457 7 4 7.89543 4 9C4 10.1046 3.10457 11 2 11C0.895431 11 0 10.1046 0 9Z" fill="currentcolor" style="transition: none !important; animation-duration: 0s !important; animation-delay: -0.0001s; animation-play-state: paused; fill: rgb(25, 29, 136); transform-origin: 0px 0px; transition-property: none; visibility: visible"></path><path b-jj7ji9pauu="" d="M0 16C0 14.8954 0.895431 14 2 14C3.10457 14 4 14.8954 4 16C4 17.1046 3.10457 18 2 18C0.895431 18 0 17.1046 0 16Z" fill="currentcolor" style="transition: none !important; animation-duration: 0s !important; animation-delay: -0.0001s; animation-play-state: paused; fill: rgb(25, 29, 136); transform-origin: 0px 0px; transition-property: none; visibility: visible"></path><path b-jj7ji9pauu="" d="M7 2C7 0.895431 7.89543 0 9 0C10.1046 0 11 0.895431 11 2C11 3.10457 10.1046 4 9 4C7.89543 4 7 3.10457 7 2Z" fill="currentcolor" style="transition: none !important; animation-duration: 0s !important; animation-delay: -0.0001s; animation-play-state: paused; fill: rgb(25, 29, 136); transform-origin: 0px 0px; transition-property: none; visibility: visible"></path><path b-jj7ji9pauu="" d="M7 9C7 7.89543 7.89543 7 9 7C10.1046 7 11 7.89543 11 9C11 10.1046 10.1046 11 9 11C7.89543 11 7 10.1046 7 9Z" fill="currentcolor" style="transition: none !important; animation-duration: 0s !important; animation-delay: -0.0001s; animation-play-state: paused; fill: rgb(25, 29, 136); transform-origin: 0px 0px; transition-property: none; visibility: visible"></path><path b-jj7ji9pauu="" d="M7 16C7 14.8954 7.89543 14 9 14C10.1046 14 11 14.8954 11 16C11 17.1046 10.1046 18 9 18C7.89543 18 7 17.1046 7 16Z" fill="currentcolor" style="transition: none !important; animation-duration: 0s !important; animation-delay: -0.0001s; animation-play-state: paused; fill: rgb(25, 29, 136); transform-origin: 0px 0px; transition-property: none; visibility: visible"></path><path b-jj7ji9pauu="" d="M14 2C14 0.895431 14.8954 0 16 0C17.1046 0 18 0.895431 18 2C18 3.10457 17.1046 4 16 4C14.8954 4 14 3.10457 14 2Z" fill="currentcolor" style="transition: none !important; animation-duration: 0s !important; animation-delay: -0.0001s; animation-play-state: paused; fill: rgb(25, 29, 136); transform-origin: 0px 0px; transition-property: none; visibility: visible"></path><path b-jj7ji9pauu="" d="M14 9C14 7.89543 14.8954 7 16 7C17.1046 7 18 7.89543 18 9C18 10.1046 17.1046 11 16 11C14.8954 11 14 10.1046 14 9Z" fill="currentcolor" style="transition: none !important; animation-duration: 0s !important; animation-delay: -0.0001s; animation-play-state: paused; fill: rgb(25, 29, 136); transform-origin: 0px 0px; transition-property: none; visibility: visible"></path><path b-jj7ji9pauu="" d="M14 16C14 14.8954 14.8954 14 16 14C17.1046 14 18 14.8954 18 16C18 17.1046 17.1046 18 16 18C14.8954 18 14 17.1046 14 16Z" fill="currentcolor" style="transition: none !important; animation-duration: 0s !important; animation-delay: -0.0001s; animation-play-state: paused; fill: rgb(25, 29, 136); transform-origin: 0px 0px; transition-property: none; visibility: visible"></path></svg>