<?xml version="1.0" encoding="UTF-8" standalone="no"?>
<svg
   id="svg"
   width="365.625"
   height="400.10013"
   viewBox="0 0 365.625 400.10013"
   version="1.1"
   sodipodi:docname="jackett.svg"
   inkscape:version="1.1.2 (0a00cf5339, 2022-02-04, custom)"
   xmlns:inkscape="http://www.inkscape.org/namespaces/inkscape"
   xmlns:sodipodi="http://sodipodi.sourceforge.net/DTD/sodipodi-0.dtd"
   xmlns="http://www.w3.org/2000/svg"
   xmlns:svg="http://www.w3.org/2000/svg">
  <defs
     id="defs7" />
  <sodipodi:namedview
     id="namedview5"
     pagecolor="#ffffff"
     bordercolor="#666666"
     borderopacity="1.0"
     inkscape:pageshadow="2"
     inkscape:pageopacity="0.0"
     inkscape:pagecheckerboard="0"
     showgrid="false"
     fit-margin-top="0"
     fit-margin-left="0"
     fit-margin-right="0"
     fit-margin-bottom="0"
     inkscape:zoom="2.0575"
     inkscape:cx="182.98906"
     inkscape:cy="239.12515"
     inkscape:window-width="1920"
     inkscape:window-height="1009"
     inkscape:window-x="-1928"
     inkscape:window-y="-8"
     inkscape:window-maximized="1"
     inkscape:current-layer="svgg" />
  <g
     id="svgg"
     transform="translate(-17.188,0.10012826)">
    <path
       id="path0"
       d="m 163.489,2.426 c -5.902,1.173 -14.163,3.272 -18.36,4.666 L 137.5,9.626 v 13.096 13.095 l -6.641,1.664 c -33.481,8.391 -91.797,33.437 -91.796,39.425 0,2.773 -2.737,41.917 -16.431,235.019 -2.995,42.223 -5.444,79.313 -5.444,82.422 V 400 h 29.687 29.688 v -15.234 c 0.003,-45.699 6.993,-124.89 14.205,-160.938 1.439,-7.194 2.108,-8.203 5.437,-8.203 H 100 v 34.965 c 0,40.932 -2.168,36.866 22.266,41.758 l 18.359,3.676 v 6.705 c 0,6.156 -0.288,6.638 -3.516,5.882 -7.17,-1.68 -34.376,-7.048 -35.718,-7.048 -0.765,0 -1.391,11.295 -1.391,25.1 v 25.101 l 12.891,5.922 c 23.123,10.622 48.107,17.724 69.531,19.764 l 11.328,1.079 V 202.777 27.026 L 181.641,26.08 c -22.723,-1.775 -31.08,-7.408 -17.578,-11.849 9.939,-3.27 60.677,-3.343 69.531,-0.1 12.398,4.541 4.97,9.877 -16.532,11.875 l -10.812,1.005 v 175.782 175.781 l 12.416,-1.035 c 21.973,-1.833 58.37,-13.096 74.693,-23.115 l 5.079,-3.116 v -24.873 c 0,-13.68 -0.626,-24.872 -1.391,-24.872 -1.342,0 -28.549,5.368 -35.719,7.048 -3.228,0.756 -3.515,0.274 -3.515,-5.882 v -6.705 l 18.359,-3.698 c 10.098,-2.034 19.238,-4.027 20.312,-4.429 1.485,-0.556 1.954,-9.338 1.954,-36.605 v -35.875 l 4.278,0.495 c 4.856,0.561 4.341,-1.293 9.675,34.869 4.858,32.932 7.853,69.56 8.817,107.813 0.476,18.906 1.186,35.957 1.577,37.89 0.708,3.498 0.866,3.516 30.37,3.516 h 29.658 l -0.002,-5.078 C 382.81,390.465 371.4,236.93 362.485,121.419 c -1.71,-22.165 -3.11,-41.915 -3.11,-43.89 0,-6.575 -66.616,-35.59 -90.468,-39.404 L 262.5,37.101 V 23.281 9.462 L 254.264,7.068 C 229.379,-0.166 187.349,-2.316 163.489,2.426"
       stroke="none"
       fill="#000000"
       fill-rule="evenodd" />
  </g>
</svg>
