<svg viewBox="0 0 298.341 242.402" xmlns="http://www.w3.org/2000/svg"><defs><linearGradient id="a" x1="209.009" x2="310.784" y1="113.002" y2="392.627" gradientUnits="userSpaceOnUse"><stop offset="0" stop-color="#e64f97"/><stop offset=".188" stop-color="#e64f8c"/><stop offset=".691" stop-color="#e64f74"/><stop offset="1" stop-color="#e64f6b"/></linearGradient></defs><path d="M106.659 176.378a37.293 37.293 0 0 1 37.292-37.293h223.756A37.293 37.293 0 0 1 405 176.378V306.9a37.29 37.29 0 0 1-37.293 37.3H143.951a37.29 37.29 0 0 1-37.292-37.3Zm37.292-18.646a18.646 18.646 0 0 0-18.646 18.646V306.9a18.646 18.646 0 0 0 18.646 18.647h223.756a18.646 18.646 0 0 0 18.647-18.647V176.378a18.646 18.646 0 0 0-18.647-18.646ZM162.6 372.165a9.324 9.324 0 0 1 9.323-9.324h167.815a9.324 9.324 0 0 1 0 18.647H171.921a9.324 9.324 0 0 1-9.321-9.323M369 297.046V185.954a9.983 9.983 0 0 0-9.954-9.954H154.954a9.983 9.983 0 0 0-9.954 9.954v111.092a9.983 9.983 0 0 0 9.954 9.954h204.092a9.983 9.983 0 0 0 9.954-9.954" style="fill:url(#a)" transform="translate(-106.659 -139.085)"/></svg>