<svg xml:space="preserve" id="Layer_1" x="0" y="0" version="1.1" viewBox="0 0 512 512" xmlns="http://www.w3.org/2000/svg"><style>.st1{fill:#479386}.st2{fill:#00d1b2}</style><path d="M390.5 193.9h30.3c18.5 49.6 13.9 104.8-12.7 150.6-5.1 8.8-11 17.2-17.6 24.9z" style="fill:#107a66"/><path d="M440.3 163.9h-79.8v269.6c93.3-55 128.1-172.7 79.8-269.6" class="st1"/><path d="M256 432c-97 0-176-79-176-176S159 80 256 80c26.9-.1 53.4 6.1 77.5 17.9H187.9v96h99.8v235.2c-10.5 1.9-21.1 2.9-31.7 2.9" class="st2"/><path d="M157.9 147.8v76.1h99.8v178H256c-80.6 0-146-65.4-145.9-146.1 0-38.7 15.4-75.8 42.7-103.1 1.6-1.7 3.3-3.3 5.1-4.9M256 50C142.2 50 50 142.2 50 256s92.2 206 206 206c20.9 0 41.7-3.2 61.7-9.4V163.9h-99.8v-36h199.4c-39-49.3-98.5-78-161.3-77.9" class="st1"/><path d="M429.7 183.5c19.7 46.8 19.7 99.6 0 146.4-12.9 30.1-33.2 56.4-59.2 76.3v3.8c48.5-36 77-92.9 77-153.3.1-28.4-6.3-56.4-18.5-82h-3.3c1.4 2.9 2.8 5.8 4 8.8" class="st2"/><path d="M434 256.7c.1-28.5-6.8-56.7-20-82h-3.4c2.4 4.6 4.7 9.3 6.7 14.1 18.3 43.4 18.3 92.4 0 135.8-8.8 20.7-21.5 39.6-37.4 55.5-3 3-6.2 5.9-9.4 8.7v3.9c40.3-33.7 63.5-83.5 63.5-136" class="st2"/><path d="M420.5 256.7c0-28.8-7.5-57.1-21.9-82h-3.5c3.7 6.2 6.9 12.7 9.8 19.3 25.6 60.3 11.9 130.1-34.4 176.4v4.2c32-30.9 50-73.4 50-117.9" class="st2"/><path d="M382.7 174.7h-3.5q7.8 11.7 13.2 24.6c21.3 50.5 12.9 108.7-21.9 151v4.7c43.7-50.7 48.6-124.2 12.2-180.3" class="st2"/><path d="M370.5 180.7v5.5c26.7 43.2 26.7 97.8 0 141v5.5c30.6-46 30.6-106 0-152" class="st2"/><path d="M417.3 127.9H217.9v36h99.8v288.7c15.1-4.7 29.5-11.2 42.8-19.1V163.9h79.8c-6.4-12.8-14.1-24.9-23-36" style="fill:#fff"/></svg>