<svg version="1.1" id="prefix__Layer_1" xmlns="http://www.w3.org/2000/svg" x="0" y="0" viewBox="0 0 547.21 389.47" xml:space="preserve"><style>.prefix__st0{display:none}.prefix__st1,.prefix__st2{display:inline;fill:#faeda1}.prefix__st2{fill:#5d2815}.prefix__st3{fill:#faeda1}.prefix__st4{fill:#5d2815}.prefix__st8{fill:#ff4b4b}.prefix__st13{fill:#fff}.prefix__st14{fill:#a4ce39}</style><g class="prefix__st0"><path class="prefix__st1" d="M176.12 377l-45.94-73.5 45.94-73.5h73.67l45.93 73.5-45.93 73.5z"/><path class="prefix__st2" d="M248.95 231.5l45 72-45 72h-72l-45-72 45-72h72m1.67-3H175.3l-.88 1.41-45 72-.99 1.59.99 1.59 45 72 .88 1.41h75.32l.88-1.41 45-72 .99-1.59-.99-1.59-45-72-.88-1.41z"/></g><path class="prefix__st3" d="M416.57 378l-46.56-74.5 46.56-74.5h74.77l46.56 74.5-46.56 74.5z"/><path class="prefix__st4" d="M489.95 231.5l45 72-45 72h-72l-45-72 45-72h72m2.78-5H415.19l-1.47 2.35-45 72-1.66 2.65 1.66 2.65 45 72 1.47 2.35H492.73l1.47-2.35 45-72 1.66-2.65-1.66-2.65-45-72-1.47-2.35z"/><path class="prefix__st3" d="M416.57 231l-46.56-74.5L416.57 82h74.77l46.56 74.5-46.56 74.5z"/><path class="prefix__st4" d="M489.95 84.5l45 72-45 72h-72l-45-72 45-72h72m2.78-5H415.19l-1.47 2.35-45 72-1.66 2.65 1.66 2.65 45 72 1.47 2.35H492.73l1.47-2.35 45-72 1.66-2.65-1.66-2.65-45-72-1.47-2.35z"/><g class="prefix__st0"><path class="prefix__st1" d="M57.12 451l-45.94-73.5L57.12 304h73.67l45.93 73.5-45.93 73.5z"/><path class="prefix__st2" d="M129.95 305.5l45 72-45 72h-72l-45-72 45-72h72m1.67-3H56.3l-.88 1.41-45 72-.99 1.59.99 1.59 45 72 .88 1.41h75.32l.88-1.41 45-72 .99-1.59-.99-1.59-45-72-.88-1.41z"/></g><path class="prefix__st3" d="M176.57 231l-46.56-74.5L176.57 82h74.77l46.56 74.5-46.56 74.5z"/><path class="prefix__st4" d="M249.95 84.5l45 72-45 72h-72l-45-72 45-72h72m2.78-5H175.19l-1.47 2.35-45 72-1.66 2.65 1.66 2.65 45 72 1.47 2.35H252.73l1.47-2.35 45-72 1.66-2.65-1.66-2.65-45-72-1.47-2.35z"/><path class="prefix__st3" d="M56.57 158L10.01 83.5 56.57 9h74.77l46.56 74.5-46.56 74.5z"/><path class="prefix__st4" d="M129.95 11.5l45 72-45 72h-72l-45-72 45-72h72m2.78-5H55.19l-1.47 2.35-45 72-1.66 2.65 1.66 2.65 45 72 1.47 2.35H132.73l1.47-2.35 45-72 1.66-2.65-1.66-2.65-45-72-1.47-2.35zM250.95 320.5h40v55h-40z"/><path d="M430.45 341h-320c-8.25 0-15-6.75-15-15V136c0-8.25 6.75-15 15-15h320c8.25 0 15 6.75 15 15v190c0 8.25-6.75 15-15 15z" fill="#2d8cce"/><path class="prefix__st4" d="M318.45 384h-95c-4.12 0-7.5-3.38-7.5-7.5s3.38-7.5 7.5-7.5h95c4.12 0 7.5 3.38 7.5 7.5s-3.37 7.5-7.5 7.5z"/><path fill="#794532" d="M280.95 320.02h10v49h-10z"/><path d="M95.95 272.5v54l349 1v-6s-132-4-242-13-107-36-107-36z" fill="#026dae"/><path class="prefix__st8" d="M445.45 326c0 8.25-6.75 15-15 15h-320c-8.25 0-15-6.75-15-15"/><path d="M444.95 185.5v-54c-5.99-10-13.99-9-29.99-9-46.86 0-97.14-.87-144-1-45.41-.13-90.59.13-136 0-13-.04-34 0-39.01 9v6s132 4 242 13 107 36 107 36z" fill="#abdbf7"/><path fill="#cb2d2f" d="M95.77 325.95h50.89l8.17 13.71-47.06.29-9-5z"/><path fill="#fca2a3" d="M445.53 326.13h-60.21l9.26 14.71 38.96.27 8.44-5.45z"/><path d="M430.45 341h-320c-8.25 0-15-6.75-15-15V136c0-8.25 6.75-15 15-15h320c8.25 0 15 6.75 15 15v190c0 8.25-6.75 15-15 15z" fill="none" stroke="#5d2815" stroke-width="5" stroke-miterlimit="10"/><path class="prefix__st13" d="M207.93 188.72h24.16l8.7 46.08 12.73-46.08h24.07l12.76 46.02 8.71-46.02h24.04l-18.15 82.32h-24.94l-14.44-51.83-14.38 51.83h-24.95l-18.31-82.32zM325.79 188.72h28.02l14.57 25.32 14.18-25.32h27.74l-25.62 39.87 28.04 42.45h-28.58l-16.26-26.45-16.26 26.45h-28.41l28.4-42.9-25.82-39.42z"/><g><path class="prefix__st13" d="M187.02 257.45h-28.88l-4.01 13.59h-25.97l30.94-82.32h27.75l30.93 82.32h-26.64l-4.12-13.59zm-5.28-17.8l-9.09-29.59-8.99 29.59h18.08z"/></g><g><circle class="prefix__st14" cx="490.45" cy="83" r="11"/><path class="prefix__st4" d="M490.45 74.5c4.69 0 8.5 3.81 8.5 8.5s-3.81 8.5-8.5 8.5-8.5-3.81-8.5-8.5 3.82-8.5 8.5-8.5m0-5c-7.46 0-13.5 6.04-13.5 13.5s6.04 13.5 13.5 13.5 13.5-6.04 13.5-13.5-6.04-13.5-13.5-13.5z"/></g><g><circle class="prefix__st14" cx="57.45" cy="157" r="11"/><path class="prefix__st4" d="M57.45 148.5c4.69 0 8.5 3.81 8.5 8.5s-3.81 8.5-8.5 8.5-8.5-3.81-8.5-8.5 3.82-8.5 8.5-8.5m0-5c-7.46 0-13.5 6.04-13.5 13.5s6.04 13.5 13.5 13.5 13.5-6.04 13.5-13.5-6.04-13.5-13.5-13.5z"/></g><g><circle class="prefix__st8" cx="491.45" cy="231" r="11"/><path class="prefix__st4" d="M491.45 222.5c4.69 0 8.5 3.81 8.5 8.5s-3.81 8.5-8.5 8.5-8.5-3.81-8.5-8.5 3.82-8.5 8.5-8.5m0-5c-7.46 0-13.5 6.04-13.5 13.5s6.04 13.5 13.5 13.5 13.5-6.04 13.5-13.5-6.04-13.5-13.5-13.5z"/></g></svg>