<svg xml:space="preserve" id="prefix__Layer_1" x="0" y="0" version="1.1" viewBox="0 0 533.8 377.5" xmlns="http://www.w3.org/2000/svg"><style id="style2">.prefix__st3{fill:#faeda1}.prefix__st4{fill:#5d2815}.prefix__st8{fill:#ff4b4b}.prefix__st13{fill:#fff}.prefix__st14{fill:#a4ce39}</style><path id="path10" d="M409.51 371.5 362.95 297l46.56-74.5h74.77l46.56 74.5-46.56 74.5z" class="prefix__st3"/><path id="path12" d="m482.89 225 45 72-45 72h-72l-45-72 45-72h72m2.78-5h-77.54l-1.47 2.35-45 72L360 297l1.66 2.65 45 72 1.47 2.35h77.54l1.47-2.35 45-72 1.66-2.65-1.66-2.65-45-72z" class="prefix__st4"/><path id="path14" d="M409.51 224.5 362.95 150l46.56-74.5h74.77l46.56 74.5-46.56 74.5z" class="prefix__st3"/><path id="path16" d="m482.89 78 45 72-45 72h-72l-45-72 45-72h72m2.78-5h-77.54l-1.47 2.35-45 72L360 150l1.66 2.65 45 72 1.47 2.35h77.54l1.47-2.35 45-72 1.66-2.65-1.66-2.65-45-72z" class="prefix__st4"/><path id="path24" d="M169.51 224.5 122.95 150l46.56-74.5h74.77l46.56 74.5-46.56 74.5z" class="prefix__st3"/><path id="path26" d="m242.89 78 45 72-45 72h-72l-45-72 45-72h72m2.78-5h-77.54l-1.47 2.35-45 72L120 150l1.66 2.65 45 72 1.47 2.35h77.54l1.47-2.35 45-72 1.66-2.65-1.66-2.65-45-72z" class="prefix__st4"/><path id="path28" d="M49.51 151.5 2.95 77 49.51 2.5h74.77L170.84 77l-46.56 74.5z" class="prefix__st3"/><path id="path30" d="m122.89 5 45 72-45 72h-72l-45-72 45-72h72m2.78-5H48.13l-1.47 2.35-45 72L0 77l1.66 2.65 45 72 1.47 2.35h77.54l1.47-2.35 45-72L173.8 77l-1.66-2.65-45-72zm118.22 314h40v55h-40z" class="prefix__st4"/><path id="path32" fill="#2d8cce" d="M423.39 334.5h-320c-8.25 0-15-6.75-15-15v-190c0-8.25 6.75-15 15-15h320c8.25 0 15 6.75 15 15v190c0 8.25-6.75 15-15 15z"/><path id="path34" d="M311.39 377.5h-95c-4.12 0-7.5-3.38-7.5-7.5s3.38-7.5 7.5-7.5h95c4.12 0 7.5 3.38 7.5 7.5s-3.37 7.5-7.5 7.5z" class="prefix__st4"/><path id="path36" fill="#794532" d="M273.89 313.52h10v49h-10z"/><path id="path38" fill="#026dae" d="M88.89 266v54l349 1v-6s-132-4-242-13-107-36-107-36z"/><path id="path40" d="M438.39 319.5c0 8.25-6.75 15-15 15h-320c-8.25 0-15-6.75-15-15" class="prefix__st8"/><path id="path42" fill="#abdbf7" d="M437.89 179v-54c-5.99-10-13.99-9-29.99-9-46.86 0-97.14-.87-144-1-45.41-.13-90.59.13-136 0-13-.04-34 0-39.01 9v6s132 4 242 13 107 36 107 36z"/><path id="path44" fill="#cb2d2f" d="M88.71 319.45h50.89l8.17 13.71-47.06.29-9-5z"/><path id="path46" fill="#fca2a3" d="M438.47 319.63h-60.21l9.26 14.71 38.96.27 8.44-5.45z"/><path id="path48" fill="none" stroke="#5d2815" stroke-miterlimit="10" stroke-width="5" d="M423.39 334.5h-320c-8.25 0-15-6.75-15-15v-190c0-8.25 6.75-15 15-15h320c8.25 0 15 6.75 15 15v190c0 8.25-6.75 15-15 15z"/><path id="path50" d="M200.87 182.22h24.16l8.7 46.08 12.73-46.08h24.07l12.76 46.02 8.71-46.02h24.04l-18.15 82.32h-24.94l-14.44-51.83-14.38 51.83h-24.95zm117.86 0h28.02l14.57 25.32 14.18-25.32h27.74l-25.62 39.87 28.04 42.45h-28.58l-16.26-26.45-16.26 26.45h-28.41l28.4-42.9z" class="prefix__st13"/><g id="g54" transform="translate(-7.06 -6.5)"><path id="path52" d="M187.02 257.45h-28.88l-4.01 13.59h-25.97l30.94-82.32h27.75l30.93 82.32h-26.64zm-5.28-17.8-9.09-29.59-8.99 29.59z" class="prefix__st13"/></g><g id="g60" transform="translate(-7.06 -6.5)"><circle id="circle56" cx="490.45" cy="83" r="11" class="prefix__st14"/><path id="path58" d="M490.45 74.5c4.69 0 8.5 3.81 8.5 8.5 0 4.69-3.81 8.5-8.5 8.5-4.69 0-8.5-3.81-8.5-8.5 0-4.69 3.82-8.5 8.5-8.5m0-5c-7.46 0-13.5 6.04-13.5 13.5s6.04 13.5 13.5 13.5 13.5-6.04 13.5-13.5-6.04-13.5-13.5-13.5z" class="prefix__st4"/></g><g id="g66" transform="translate(-7.06 -6.5)"><circle id="circle62" cx="57.45" cy="157" r="11" class="prefix__st14"/><path id="path64" d="M57.45 148.5c4.69 0 8.5 3.81 8.5 8.5 0 4.69-3.81 8.5-8.5 8.5-4.69 0-8.5-3.81-8.5-8.5 0-4.69 3.82-8.5 8.5-8.5m0-5c-7.46 0-13.5 6.04-13.5 13.5s6.04 13.5 13.5 13.5 13.5-6.04 13.5-13.5-6.04-13.5-13.5-13.5z" class="prefix__st4"/></g><g id="g72" transform="translate(-7.06 -6.5)"><circle id="circle68" cx="491.45" cy="231" r="11" class="prefix__st8"/><path id="path70" d="M491.45 222.5c4.69 0 8.5 3.81 8.5 8.5 0 4.69-3.81 8.5-8.5 8.5-4.69 0-8.5-3.81-8.5-8.5 0-4.69 3.82-8.5 8.5-8.5m0-5c-7.46 0-13.5 6.04-13.5 13.5s6.04 13.5 13.5 13.5 13.5-6.04 13.5-13.5-6.04-13.5-13.5-13.5z" class="prefix__st4"/></g></svg>