<svg viewBox="0 0 46 29" xmlns="http://www.w3.org/2000/svg"><path fill="#0052FF" d="M22.752 0c12.566 0 22.752 10.186 22.752 22.752a22.8 22.8 0 0 1-.843 6.157h-4.34a18.6 18.6 0 0 0 1.043-6.157c0-10.28-8.333-18.612-18.612-18.612-10.28 0-18.612 8.333-18.612 18.612q.001 1.059.116 2.088H30.05a3.07 3.07 0 0 0 0-6.139h-.041l-1.791.001-.259-1.772a5.284 5.284 0 0 0-10.296-.716l-.436 1.488h-2.024a2.855 2.855 0 0 0-2.852 2.998H8.21v-.053l-.001-.09a7 7 0 0 1 5.971-6.92l.056-.008.032-.068a9.43 9.43 0 0 1 8.34-5.28l.126-.001a9.43 9.43 0 0 1 8.944 6.45l.005.017.1.024a7.21 7.21 0 0 1 5.476 6.88v.12a7.21 7.21 0 0 1-6.192 7.138H.843A22.8 22.8 0 0 1 0 22.752C0 10.186 10.186 0 22.752 0"/></svg>