<svg fill="none" stroke-linecap="round" stroke-width="7.318" viewBox="0 0 236.422 292.069" xmlns="http://www.w3.org/2000/svg"><path fill="#a2ddef" d="M86.652 84.65v41.254l41.958-.043c.533 0 1.019-.015 1.503-.046 11.032-.726 19.655-9.757 19.655-20.558 0-11.365-9.47-20.607-21.116-20.607zM45.156 288.41c-22.917 0-41.497-18.129-41.497-40.494V170.74a40.054 40.054 0 0 1 0-8.605V44.155c0-22.364 18.58-40.496 41.497-40.496h83.496c57.407 0 104.111 45.577 104.111 101.597 0 53.263-42.63 97.785-97.052 101.36-2.313.156-4.697.235-7.06.235l-41.999.041v41.024c0 22.365-18.578 40.494-41.496 40.494z"/><path stroke="#368bd6" d="M86.652 84.65v41.254l41.958-.043c.533 0 1.019-.015 1.503-.046 11.032-.726 19.655-9.757 19.655-20.558 0-11.365-9.47-20.607-21.116-20.607zM3.659 247.916V44.156c0-22.365 18.58-40.497 41.497-40.497h83.496c57.407 0 104.111 45.577 104.111 101.597 0 53.263-42.63 97.785-97.052 101.36-2.313.156-4.697.235-7.06.235l-41.999.041v41.024c0 22.365-18.578 40.494-41.496 40.494-22.917 0-41.497-18.129-41.497-40.494z"/><path stroke="#368bd6" d="M45.156 247.915V44.155h83.496c34.58 0 62.613 27.356 62.613 61.1 0 32.346-25.755 58.82-58.34 60.96a64.761 64.761 0 0 1-4.273.141l-83.727.082"/><path fill="#368bd6" d="M79.349 20.931c6.362 8.858 8.805 19.607 6.88 30.253-1.927 10.653-7.992 19.933-17.077 26.137-18.757 12.807-44.703 8.348-57.837-9.942-6.362-8.858-8.805-19.605-6.877-30.255 1.925-10.65 7.99-19.933 17.077-26.135 18.757-12.807 44.7-8.348 57.834 9.942Zm112.257 267.456c-13.077 0-25.944-6.015-34.02-17.26l-58.647-81.673c-13.15-18.316-8.596-43.568 10.17-56.4 18.767-12.84 44.645-8.393 57.796 9.923l58.647 81.673c13.154 18.316 8.599 43.569-10.168 56.4-7.248 4.957-15.555 7.337-23.778 7.337z"/></svg>