<svg fill="none" viewBox="0 0 322 323" xmlns="http://www.w3.org/2000/svg"><path fill="#009F76" fill-rule="evenodd" d="M156.664 9.952a7.126 7.126 0 0 1 6.205 0l118.665 57.37a7.171 7.171 0 0 1 3.869 4.87l29.308 128.907a7.2 7.2 0 0 1-1.381 6.073l-82.119 103.376a7.14 7.14 0 0 1-5.59 2.703H93.912a7.14 7.14 0 0 1-5.59-2.703L6.203 207.172a7.2 7.2 0 0 1-1.38-6.073L34.13 72.191a7.173 7.173 0 0 1 3.87-4.87l118.665-57.37Z" clip-rule="evenodd"/><mask id="a" width="311" height="305" x="4" y="9" mask-type="alpha" maskUnits="userSpaceOnUse"><path fill="#fff" fill-rule="evenodd" d="M156.664 9.952a7.126 7.126 0 0 1 6.205 0l118.665 57.37a7.171 7.171 0 0 1 3.869 4.87l29.308 128.907a7.2 7.2 0 0 1-1.381 6.073l-82.119 103.376a7.14 7.14 0 0 1-5.59 2.703H93.912a7.14 7.14 0 0 1-5.59-2.703L6.203 207.172a7.2 7.2 0 0 1-1.38-6.073L34.13 72.191a7.173 7.173 0 0 1 3.87-4.87l118.665-57.37Z" clip-rule="evenodd"/></mask><g mask="url(#a)"><path fill="#000" fill-rule="evenodd" d="M-59.517 203.675 113.77 98.006 230.485 217.95 91.991 340.578-59.517 203.675Z" clip-rule="evenodd" opacity=".29"/></g><path fill="url(#b)" fill-rule="evenodd" d="M202.474 93.845c.498 1.25.764 2.602.764 3.99v49.88c0 3.631-1.824 7.018-4.851 9.007l-36.075 23.711a10.686 10.686 0 0 1-11.749 0l-36.075-23.711a10.763 10.763 0 0 1-4.698-7.202l92.684-55.675Z" clip-rule="evenodd"/><path fill="url(#c)" fill-rule="evenodd" d="M202.963 156.713a10.727 10.727 0 0 1-3.391 3.587l-36.075 23.711a10.686 10.686 0 0 1-11.749 0L115.673 160.3a10.776 10.776 0 0 1-4.85-9.008v-49.88c0-1.39.267-2.744.766-3.997l91.374 59.298Z" clip-rule="evenodd"/><path fill="url(#d)" fill-rule="evenodd" d="M86.881 131.967a10.794 10.794 0 0 0-1.083 4.715v73.701c0 3.846 2.044 7.401 5.362 9.324l63.579 36.85a10.686 10.686 0 0 0 10.725 0l63.578-36.85a10.758 10.758 0 0 0 4.776-5.81l-146.937-81.93Z" clip-rule="evenodd"/><path fill="url(#e)" fill-rule="evenodd" d="M87.59 216.34a10.727 10.727 0 0 0 3.57 3.367l63.579 36.85a10.69 10.69 0 0 0 10.725 0l63.579-36.85a10.775 10.775 0 0 0 5.362-9.324v-73.702c0-1.368-.259-2.7-.742-3.934L87.59 216.34Z" clip-rule="evenodd"/><defs><linearGradient id="b" x1="239.57" x2="174.075" y1="110.714" y2="205.455" gradientUnits="userSpaceOnUse"><stop stop-color="#fff"/><stop offset="1" stop-color="#439246"/></linearGradient><linearGradient id="c" x1="235.479" x2="150.083" y1="145.405" y2="299.227" gradientUnits="userSpaceOnUse"><stop stop-color="#fff"/><stop offset="1" stop-color="#439246"/></linearGradient><linearGradient id="d" x1="49.799" x2="124.559" y1="160.303" y2="281.373" gradientUnits="userSpaceOnUse"><stop stop-color="#fff"/><stop offset="1" stop-color="#439246"/></linearGradient><linearGradient id="e" x1="75.195" x2="168.121" y1="216.138" y2="394.367" gradientUnits="userSpaceOnUse"><stop stop-color="#fff"/><stop offset="1" stop-color="#439246"/></linearGradient></defs></svg>