<svg fill="none" viewBox="0 0 36 36" xmlns="http://www.w3.org/2000/svg"><circle cx="18.024" cy="18.025" r="17.839" style="fill:#4ade80;fill-opacity:1;stroke-width:.03"/><path stroke="#fff" stroke-linecap="round" stroke-linejoin="round" stroke-width="2" d="M20.3 8.27v4.13c0 .56 0 .84.109 1.054a1 1 0 0 0 .437.437C21.06 14 21.34 14 21.9 14h4.13m.27 1.988V23.2c0 1.68 0 2.52-.327 3.162a3 3 0 0 1-1.311 1.311C24.02 28 23.18 28 21.5 28h-6.4c-1.68 0-2.52 0-3.162-.327a3 3 0 0 1-1.311-1.311C10.3 25.72 10.3 24.88 10.3 23.2V12.8c0-1.68 0-2.52.327-3.162a3 3 0 0 1 1.311-1.311C12.58 8 13.42 8 15.1 8h3.212c.733 0 1.1 0 1.446.083.306.073.598.195.867.36.303.185.562.444 1.08.963l3.19 3.188c.518.519.777.778.963 1.081a3 3 0 0 1 .36.867c.082.346.082.712.082 1.446"/></svg>