<svg viewBox="0 0 253.922 250.273" xmlns="http://www.w3.org/2000/svg"><path fill="#58cc00" d="M42.654 167.464C28.344 167.404-.021 130.38 0 125.59c.013-2.977 28.462 18.514 42.755 18.573 14.343.06 43.167-21.197 43.154-18.216-.02 4.786-28.928 41.575-43.255 41.516z"/><path fill="#005ebd" d="M211.268 82.81c14.31.06 42.675 37.083 42.654 41.873-.013 2.977-28.462-18.514-42.755-18.573-14.343-.06-43.167 21.197-43.154 18.216.02-4.786 28.928-41.575 43.255-41.516z"/><path fill="#005ebd" d="M191.707 56.527c13.467-4.837 52.785 20.252 54.403 24.76 1.006 2.8-33.077-7.663-46.53-2.83-13.497 4.85-33.313 34.683-34.32 31.878-1.617-4.505 12.963-48.963 26.447-53.807zM62.215 193.747c-13.467 4.837-52.785-20.252-54.403-24.76-1.006-2.801 33.077 7.663 46.53 2.83 13.497-4.85 33.313-34.683 34.32-31.878 1.617 4.505-12.963 48.963-26.447 53.807z"/><path fill="#005ebd" d="M164.337 38.52c11-9.151 56.527.977 59.59 4.66 1.904 2.288-33.703 4.113-44.691 13.255-11.025 9.174-19.443 43.985-21.349 41.693-3.06-3.68-4.564-50.443 6.45-59.607zM89.585 211.754c-11 9.152-56.527-.976-59.59-4.66-1.904-2.288 33.703-4.112 44.691-13.254 11.025-9.174 19.443-43.985 21.349-41.693 3.06 3.68 4.564 50.443-6.45 59.607z"/><path fill="#005ebd" d="M132.459 30.96c7.205-12.361 53.452-18.415 57.59-16.002 2.57 1.5-30.265 15.392-37.463 27.74-7.223 12.393-3.226 47.983-5.801 46.48-4.134-2.41-21.542-45.84-14.326-58.217zm-10.996 188.353c-7.205 12.362-53.452 18.416-57.59 16.003-2.57-1.5 30.265-15.392 37.463-27.742 7.223-12.39 3.226-47.981 5.801-46.48 4.135 2.41 21.542 45.84 14.326 58.219z"/><path fill="#005ebd" d="M99.917 34.76C102.46 20.68 143.847-.827 148.56.025c2.93.53-23.174 24.815-25.715 38.882-2.549 14.114 13.38 46.19 10.446 45.66-4.71-.851-35.92-35.707-33.374-49.807zm54.088 180.754c-2.543 14.08-43.93 35.587-48.643 34.735-2.93-.53 23.174-24.815 25.715-38.882 2.549-14.114-13.38-46.191-10.446-45.661 4.71.852 35.92 35.708 33.374 49.808z"/><path fill="#005ebd" d="M70.637 49.46C68.211 35.358 99.747.994 104.467.183c2.934-.504-13.29 31.244-10.866 45.33 2.432 14.137 28.37 38.83 25.433 39.336-4.717.81-45.967-21.268-48.397-35.39zm112.648 151.353c2.426 14.102-29.11 48.466-33.83 49.277-2.934.505 13.29-31.244 10.866-45.33-2.432-14.136-28.37-38.831-25.433-39.336 4.717-.81 45.967 21.269 48.397 35.39z"/><path fill="#005ebd" d="M48.151 73.287c-7.103-12.42 10.777-55.498 14.936-57.875 2.584-1.477-1.802 33.906 5.293 46.314 7.12 12.45 39.94 26.785 37.353 28.264-4.155 2.375-50.47-4.264-57.582-16.702zm157.62 103.699c7.103 12.42-10.777 55.499-14.936 57.875-2.584 1.478 1.802-33.905-5.294-46.314-7.12-12.45-39.94-26.785-37.352-28.264 4.155-2.375 50.47 4.265 57.582 16.703z"/><path fill="#005ebd" d="M35.171 103.369c-10.924-9.243-8.855-55.838-5.76-59.493 1.923-2.273 9.903 32.477 20.814 41.71 10.95 9.265 46.693 11.51 44.767 13.784-3.092 3.653-48.884 13.255-59.822 4zm183.58 43.535c10.924 9.243 8.855 55.838 5.76 59.494-1.923 2.272-9.903-32.477-20.815-41.71-10.949-9.265-46.692-11.51-44.766-13.785 3.092-3.653 48.884-13.254 59.821-4z"/><path fill="#005ebd" d="M33.261 136.077c-13.425-4.95-27.418-49.444-25.76-53.938 1.03-2.793 20.413 27.132 33.825 32.076 13.457 4.962 47.813-5.155 46.782-2.358-1.657 4.49-41.403 29.175-54.847 24.218zm187.4-21.88c13.425 4.95 27.418 49.443 25.76 53.936-1.03 2.793-20.414-27.131-33.825-32.076-13.457-4.961-47.813 5.155-46.782 2.359 1.657-4.49 41.403-29.175 54.847-24.22z"/></svg>