<svg viewBox="0 0 127 144" xmlns="http://www.w3.org/2000/svg"><path fill="#eb743b" d="M127 109V35L66 0v144z"/><path fill="#ba478f" d="m0 109 61 35V60l-1-1v-5l1-1V41h-1V20l1-1V0L0 35Z"/><path d="M60.971 53.04 34 69V57.384l26.97-16.21V18.586l-32.515 19.27c-.023.015-.04.033-.063.048a2.882 2.882 0 0 0-.263.195c-.07.057-.143.108-.207.169-.07.067-.13.143-.192.217-.063.073-.128.144-.185.222-.056.078-.1.163-.146.248-.047.083-.097.162-.134.247-.041.09-.067.184-.1.275-.03.09-.063.182-.084.274-.021.086-.03.177-.042.268a2.928 2.928 0 0 0-.031.32c-.002.029-.008.053-.008.08v50.58c-2.597-.415-5.291.2-8 2-4.843 3.219-6.477 9.277-4 13 2.478 3.728 8.192 3.898 13.036.68 2.765-1.836 5.378-4.073 5.964-6.68.124-.326 0-2 0-2 .007-.143.002-.283 0-.423V76l26.97-16.15v-6.81z" opacity=".07"/><path fill="#9d356d" d="M61 56 34 72V60l27-16V21L28.484 40.683c-.023.014-.04.032-.063.047a2.882 2.882 0 0 0-.263.195c-.07.057-.143.108-.207.169-.07.067-.13.143-.192.217-.063.073-.128.144-.185.222-.056.078-.1.163-.146.248-.047.083-.097.162-.134.247-.041.09-.067.184-.1.275-.03.09-.063.182-.084.274-.021.086-.03.177-.042.268a2.928 2.928 0 0 0-.031.32c-.002.029-.008.053-.008.08v50.58c-2.597-.415-5.291.2-8 2-4.843 3.219-6.477 9.277-4 13 2.478 3.728 8.192 3.898 13.036.68 2.765-1.836 5.378-4.073 5.964-6.68.124-.326 0-2 0-2 .007-.143.002-.283 0-.423L33.999 79l27-16v-7z"/><path fill="#fffedb" d="M61 53 34 69V57l27-16V18L28.455 37.857c-.023.014-.04.032-.063.047a2.882 2.882 0 0 0-.263.195c-.07.057-.143.108-.207.169-.07.067-.13.143-.192.217-.063.073-.128.144-.185.222-.056.078-.1.163-.146.248-.047.083-.097.162-.134.247-.041.09-.067.184-.1.275-.03.09-.063.182-.084.274-.021.086-.03.177-.042.268a2.928 2.928 0 0 0-.031.32c-.002.029-.008.053-.008.08v50.58c-2.597-.415-5.291.2-8 2-4.843 3.219-6.477 9.277-4 13 2.478 3.728 8.192 3.898 13.036.68 2.765-1.836 5.378-4.073 5.964-6.68.124-.326 0-2 0-2 .007-.143.002-.283 0-.423V76l27-16Z"/><g opacity=".07"><path d="M83.302 91.734a2.102 2.102 0 0 1 1.819-1.03c.378 0 .752.104 1.078.297a2.12 2.12 0 0 1 .735 2.898 2.114 2.114 0 0 1-3.632-2.165zm12.603 22.362a2.121 2.121 0 0 1-2.981-.225 2.117 2.117 0 0 1 .23-2.981 2.08 2.08 0 0 1 1.374-.512c.617 0 1.2.269 1.605.74.368.43.547.976.504 1.538a2.09 2.09 0 0 1-.732 1.44zM75.001 45.611Zm11.379 9.646a2.128 2.128 0 0 1 2.916-.656 2.117 2.117 0 0 1-2.259 3.58 2.128 2.128 0 0 1-.657-2.924zm6.379-20.187c-.6.95-1.938 1.27-2.912.653l-.096-.063a2.108 2.108 0 0 1-.558-2.851 2.095 2.095 0 0 1 1.784-.98 2.11 2.11 0 0 1 1.782 3.241zm16.767 11.597a2.096 2.096 0 0 1 1.783-.98c.399 0 .79.114 1.125.326a2.107 2.107 0 0 1 .658 2.914c-.598.95-1.938 1.272-2.912.653l-.094-.063a2.102 2.102 0 0 1-.56-2.85zm0 23.464a2.096 2.096 0 0 1 1.783-.98c.399 0 .79.112 1.125.326a2.105 2.105 0 0 1 .658 2.914c-.598.95-1.938 1.27-2.912.652l-.094-.063a2.102 2.102 0 0 1-.56-2.85zm0 26.303a2.098 2.098 0 0 1 1.783-.98c.399 0 .79.113 1.125.326a2.107 2.107 0 0 1 .658 2.914c-.598.95-1.938 1.27-2.912.653l-.094-.063a2.103 2.103 0 0 1-.56-2.85z"/><path d="M99.176 106.104a6.11 6.11 0 0 0-8.631-.662 6.123 6.123 0 0 0-2.087 5.397c-1.948.7-4.258 1.365-5.328 1.332-.821-.044-1.302-.346-2.224-.972-1.172-.795-2.418-1.512-4.148-1.847 2.936-2.761 6.009-6.83 8.584-12.834a6.147 6.147 0 0 0 5.038-2.972c1.725-2.896.773-6.66-2.124-8.394a6.128 6.128 0 0 0-3.134-.864 6.156 6.156 0 0 0-5.261 2.986 6.079 6.079 0 0 0-.678 4.636 6.07 6.07 0 0 0 2.302 3.429c-4.053 9.218-9.22 13.08-12.565 14.685a1.975 1.975 0 0 0-.36.168c-1.187.53-2.05.704-2.56.808v4c.276-.03 1.886-.118 4.248-1.192 5.348-1.357 6.839-.354 8.407.709 1.02.692 2.29 1.554 4.263 1.656.1.005.204.008.309.008 2.109 0 5.172-1.022 7.02-1.723a6.134 6.134 0 0 0 4.286 1.75 6.112 6.112 0 0 0 3.983-1.476 6.075 6.075 0 0 0 2.118-4.176 6.077 6.077 0 0 0-1.458-4.452zM83.302 89.327a2.102 2.102 0 0 1 1.819-1.03c.378 0 .752.104 1.078.297a2.12 2.12 0 0 1 .735 2.898 2.114 2.114 0 0 1-3.632-2.165zm12.603 22.363a2.121 2.121 0 0 1-2.981-.225 2.117 2.117 0 0 1 .23-2.981 2.08 2.08 0 0 1 1.374-.512c.617 0 1.2.269 1.605.74.368.43.547.976.504 1.538a2.09 2.09 0 0 1-.732 1.44zM75.001 43.205Zm21.95-13.001a6.122 6.122 0 0 0-5.973-4.788 6.076 6.076 0 0 0-5.174 2.85 6.112 6.112 0 0 0 .144 6.759c-3.646 4.124-8.706 4.313-9.942 4.293-3.692-1.604-7.234-2.164-10.005-2.317v3.996c2.44.144 5.553.686 8.748 2.136.005.002.01.002.015.005 3.445 1.563 6.334 3.928 8.607 7.04a6.309 6.309 0 0 0-.382.539c-1.796 2.854-.942 6.644 1.903 8.444.98.622 2.11.95 3.27.95a6.105 6.105 0 0 0 5.183-2.851c1.806-2.851.95-6.642-1.908-8.453-1.384-.871-3.092-1.113-4.667-.755-1.538-2.154-3.323-4.017-5.345-5.566 2.517-.778 5.4-2.27 7.78-5.096a6.141 6.141 0 0 0 1.77.267 6.08 6.08 0 0 0 5.172-2.85 6.061 6.061 0 0 0 .804-4.603zM86.38 52.852a2.128 2.128 0 0 1 2.916-.656 2.117 2.117 0 0 1-2.259 3.58 2.128 2.128 0 0 1-.657-2.924zm6.379-20.188c-.6.95-1.938 1.27-2.912.653l-.096-.063a2.108 2.108 0 0 1-.558-2.851 2.095 2.095 0 0 1 1.784-.98 2.11 2.11 0 0 1 1.782 3.241z"/><path d="M105.646 71.187a6.04 6.04 0 0 0 2.109 2.65 6.1 6.1 0 0 0 3.551 1.14 6.081 6.081 0 0 0 5.173-2.85 6.063 6.063 0 0 0 .805-4.603 6.122 6.122 0 0 0-5.975-4.788c-.125 0-.25.008-.375.018-.71-3.157-.92-7.77.035-11.265.112.01.225.024.337.024a6.079 6.079 0 0 0 5.173-2.85 6.062 6.062 0 0 0 .805-4.603 6.122 6.122 0 0 0-5.975-4.788 6.079 6.079 0 0 0-5.173 2.85 6.105 6.105 0 0 0 1.024 7.765c.02.02.048.037.07.059-1.348 4.518-1.145 10.324-.035 14.417-.144.132-.294.254-.426.399a6.231 6.231 0 0 0-.634.824 6.166 6.166 0 0 0-.71 1.578c-3.371.488-5.198 1.67-6.824 2.729-2.035 1.324-3.961 2.572-9.636 2.665-1.964-.23-3.553-.177-5.29-.116-1.431.052-2.91.106-4.85.003-1.334-.071-2.103-.882-3.457-2.424-1.803-2.055-4.22-4.648-9.37-5.022v4c3.296.3 4.797 1.888 6.357 3.667 1.487 1.694 3.175 3.615 6.256 3.782 2.118.114 3.76.052 5.208 0 2.49-.091 4.453-.16 7.855.685 2.607.643 12.099 9.673 14.773 14.322-.108.142-.22.282-.313.434-1.743 2.755-1.026 6.385 1.619 8.25a6.098 6.098 0 0 0 3.551 1.139 6.081 6.081 0 0 0 5.173-2.848 6.06 6.06 0 0 0 .805-4.603 6.122 6.122 0 0 0-7.518-4.594c-2.561-4.187-8.652-10.455-13.19-13.792 1.814-.628 3.05-1.435 4.213-2.188 1.429-.928 2.616-1.688 4.859-2.065zm3.88-26.924a2.096 2.096 0 0 1 1.783-.98 2.107 2.107 0 0 1 1.783 3.239c-.598.95-1.938 1.272-2.912.653l-.094-.063a2.102 2.102 0 0 1-.56-2.85zm0 23.463a2.096 2.096 0 0 1 1.783-.98c.399 0 .79.112 1.125.326a2.105 2.105 0 0 1 .658 2.914c-.598.95-1.938 1.27-2.912.652l-.094-.063a2.102 2.102 0 0 1-.56-2.85zm0 26.303a2.098 2.098 0 0 1 1.783-.98c.399 0 .79.113 1.125.326a2.107 2.107 0 0 1 .658 2.914c-.598.95-1.938 1.27-2.912.653l-.094-.063a2.103 2.103 0 0 1-.56-2.85z"/></g><path fill="#d3562c" d="M99.176 109.104a6.11 6.11 0 0 0-8.631-.662 6.123 6.123 0 0 0-2.087 5.397c-1.948.7-4.258 1.365-5.328 1.332-.821-.044-1.302-.346-2.224-.972-1.172-.795-2.418-1.512-4.148-1.847 2.936-2.761 6.009-6.83 8.584-12.834a6.147 6.147 0 0 0 5.038-2.972c1.725-2.896.773-6.66-2.124-8.394a6.128 6.128 0 0 0-3.134-.864 6.156 6.156 0 0 0-5.261 2.986 6.079 6.079 0 0 0-.678 4.636 6.07 6.07 0 0 0 2.302 3.429c-4.053 9.218-9.22 13.08-12.565 14.685a1.975 1.975 0 0 0-.36.168c-1.187.53-2.05.704-2.56.808v4c.276-.03 1.886-.118 4.248-1.192 5.348-1.357 6.839-.354 8.407.709 1.02.692 2.29 1.554 4.263 1.656.1.005.204.008.309.008 2.109 0 5.172-1.022 7.02-1.723a6.134 6.134 0 0 0 4.286 1.75 6.112 6.112 0 0 0 3.983-1.476 6.075 6.075 0 0 0 2.118-4.176 6.077 6.077 0 0 0-1.458-4.452zM83.302 92.327a2.102 2.102 0 0 1 1.819-1.03c.378 0 .752.104 1.078.297a2.12 2.12 0 0 1 .735 2.898 2.114 2.114 0 0 1-3.632-2.165zm12.603 22.363a2.121 2.121 0 0 1-2.981-.225 2.117 2.117 0 0 1 .23-2.981 2.08 2.08 0 0 1 1.374-.512c.617 0 1.2.269 1.605.74.368.43.547.976.504 1.538a2.09 2.09 0 0 1-.732 1.44z"/><path d="M75.001 45.611Z"/><path fill="#d3562c" d="M96.951 33.207a6.122 6.122 0 0 0-5.973-4.788 6.076 6.076 0 0 0-5.174 2.85 6.112 6.112 0 0 0 .144 6.76c-3.646 4.124-8.706 4.313-9.942 4.293-3.692-1.604-7.234-2.164-10.005-2.317v3.996c2.44.144 5.553.686 8.748 2.136.005.002.01.002.015.005 3.445 1.563 6.334 3.928 8.607 7.04a6.309 6.309 0 0 0-.382.539c-1.796 2.854-.942 6.644 1.903 8.444.98.622 2.11.95 3.27.95a6.105 6.105 0 0 0 5.183-2.851c1.806-2.851.95-6.642-1.908-8.453-1.384-.871-3.092-1.113-4.667-.755-1.538-2.154-3.323-4.017-5.345-5.566 2.517-.778 5.4-2.27 7.78-5.096a6.141 6.141 0 0 0 1.77.267 6.08 6.08 0 0 0 5.172-2.85 6.061 6.061 0 0 0 .804-4.603zM86.38 55.857a2.128 2.128 0 0 1 2.916-.656 2.117 2.117 0 0 1-2.259 3.58 2.128 2.128 0 0 1-.657-2.924Zm6.379-20.188c-.6.95-1.938 1.27-2.912.653l-.096-.063a2.108 2.108 0 0 1-.558-2.851 2.095 2.095 0 0 1 1.784-.98 2.11 2.11 0 0 1 1.782 3.241z"/><path fill="#d3562c" d="M105.646 74.187a6.04 6.04 0 0 0 2.109 2.65 6.1 6.1 0 0 0 3.551 1.14 6.081 6.081 0 0 0 5.173-2.85 6.063 6.063 0 0 0 .805-4.603 6.122 6.122 0 0 0-5.975-4.788c-.125 0-.25.008-.375.018-.71-3.157-.92-7.77.035-11.265.112.01.225.024.337.024a6.079 6.079 0 0 0 5.173-2.85 6.062 6.062 0 0 0 .805-4.603 6.122 6.122 0 0 0-5.975-4.788 6.079 6.079 0 0 0-5.173 2.85 6.105 6.105 0 0 0 1.024 7.765c.02.02.048.037.07.059-1.348 4.518-1.145 10.324-.035 14.417-.144.132-.294.254-.426.399a6.231 6.231 0 0 0-.634.824 6.166 6.166 0 0 0-.71 1.578c-3.371.488-5.198 1.67-6.824 2.729-2.035 1.324-3.961 2.572-9.636 2.665-1.964-.23-3.553-.177-5.29-.116-1.431.052-2.91.106-4.85.003-1.334-.071-2.103-.882-3.457-2.424-1.803-2.055-4.22-4.648-9.37-5.022v4c3.296.3 4.797 1.888 6.357 3.667 1.487 1.694 3.175 3.615 6.256 3.782 2.118.114 3.76.052 5.208 0 2.49-.091 4.453-.16 7.855.685 2.607.643 12.099 9.673 14.773 14.322-.108.142-.22.282-.313.434-1.743 2.755-1.026 6.385 1.619 8.25a6.098 6.098 0 0 0 3.551 1.139 6.081 6.081 0 0 0 5.173-2.848 6.06 6.06 0 0 0 .805-4.603 6.122 6.122 0 0 0-7.518-4.594c-2.561-4.187-8.652-10.455-13.19-13.792 1.814-.628 3.05-1.435 4.213-2.188 1.429-.928 2.616-1.688 4.859-2.065zm3.88-26.924a2.096 2.096 0 0 1 1.783-.98 2.107 2.107 0 0 1 1.783 3.239c-.598.95-1.938 1.272-2.912.653l-.094-.063a2.102 2.102 0 0 1-.56-2.85zm0 23.463a2.096 2.096 0 0 1 1.783-.98c.399 0 .79.112 1.125.326a2.105 2.105 0 0 1 .658 2.914c-.598.95-1.938 1.27-2.912.652l-.094-.063a2.102 2.102 0 0 1-.56-2.85zm0 26.303a2.098 2.098 0 0 1 1.783-.98c.399 0 .79.113 1.125.326a2.107 2.107 0 0 1 .658 2.914c-.598.95-1.938 1.27-2.912.653l-.094-.063a2.103 2.103 0 0 1-.56-2.85z"/><g fill="#fffedb"><path d="M99.176 106.104a6.11 6.11 0 0 0-8.631-.662 6.123 6.123 0 0 0-2.087 5.397c-1.948.7-4.258 1.365-5.328 1.332-.821-.044-1.302-.346-2.224-.972-1.172-.795-2.418-1.512-4.148-1.847 2.936-2.761 6.009-6.83 8.584-12.834a6.147 6.147 0 0 0 5.038-2.972c1.725-2.896.773-6.66-2.124-8.394a6.128 6.128 0 0 0-3.134-.864 6.156 6.156 0 0 0-5.261 2.986 6.079 6.079 0 0 0-.678 4.636 6.07 6.07 0 0 0 2.302 3.429c-4.053 9.218-9.22 13.08-12.565 14.685a1.975 1.975 0 0 0-.36.168c-1.187.53-2.05.704-2.56.808v4c.276-.03 1.886-.118 4.248-1.192 5.348-1.357 6.839-.354 8.407.709 1.02.692 2.29 1.554 4.263 1.656.1.005.204.008.309.008 2.109 0 5.172-1.022 7.02-1.723a6.134 6.134 0 0 0 4.286 1.75 6.112 6.112 0 0 0 3.983-1.476 6.075 6.075 0 0 0 2.118-4.176 6.077 6.077 0 0 0-1.458-4.452zM83.302 89.327a2.102 2.102 0 0 1 1.819-1.03c.378 0 .752.104 1.078.297a2.12 2.12 0 0 1 .735 2.898 2.114 2.114 0 0 1-3.632-2.165zm12.603 22.363a2.121 2.121 0 0 1-2.981-.225 2.117 2.117 0 0 1 .23-2.981 2.08 2.08 0 0 1 1.374-.512c.617 0 1.2.269 1.605.74.368.43.547.976.504 1.538a2.09 2.09 0 0 1-.732 1.44zM75.001 43.205Zm21.95-13.001a6.122 6.122 0 0 0-5.973-4.788 6.076 6.076 0 0 0-5.174 2.85 6.112 6.112 0 0 0 .144 6.759c-3.646 4.124-8.706 4.313-9.942 4.293-3.692-1.604-7.234-2.164-10.005-2.317v3.996c2.44.144 5.553.686 8.748 2.136.005.002.01.002.015.005 3.445 1.563 6.334 3.928 8.607 7.04a6.309 6.309 0 0 0-.382.539c-1.796 2.854-.942 6.644 1.903 8.444.98.622 2.11.95 3.27.95a6.105 6.105 0 0 0 5.183-2.851c1.806-2.851.95-6.642-1.908-8.453-1.384-.871-3.092-1.113-4.667-.755-1.538-2.154-3.323-4.017-5.345-5.566 2.517-.778 5.4-2.27 7.78-5.096a6.141 6.141 0 0 0 1.77.267 6.08 6.08 0 0 0 5.172-2.85 6.061 6.061 0 0 0 .804-4.603zM86.38 52.852a2.128 2.128 0 0 1 2.916-.656 2.117 2.117 0 0 1-2.259 3.58 2.128 2.128 0 0 1-.657-2.924zm6.379-20.188c-.6.95-1.938 1.27-2.912.653l-.096-.063a2.108 2.108 0 0 1-.558-2.851 2.095 2.095 0 0 1 1.784-.98 2.11 2.11 0 0 1 1.782 3.241z"/><path d="M105.646 71.187a6.04 6.04 0 0 0 2.109 2.65 6.1 6.1 0 0 0 3.551 1.14 6.081 6.081 0 0 0 5.173-2.85 6.063 6.063 0 0 0 .805-4.603 6.122 6.122 0 0 0-5.975-4.788c-.125 0-.25.008-.375.018-.71-3.157-.92-7.77.035-11.265.112.01.225.024.337.024a6.079 6.079 0 0 0 5.173-2.85 6.062 6.062 0 0 0 .805-4.603 6.122 6.122 0 0 0-5.975-4.788 6.079 6.079 0 0 0-5.173 2.85 6.105 6.105 0 0 0 1.024 7.765c.02.02.048.037.07.059-1.348 4.518-1.145 10.324-.035 14.417-.144.132-.294.254-.426.399a6.231 6.231 0 0 0-.634.824 6.166 6.166 0 0 0-.71 1.578c-3.371.488-5.198 1.67-6.824 2.729-2.035 1.324-3.961 2.572-9.636 2.665-1.964-.23-3.553-.177-5.29-.116-1.431.052-2.91.106-4.85.003-1.334-.071-2.103-.882-3.457-2.424-1.803-2.055-4.22-4.648-9.37-5.022v4c3.296.3 4.797 1.888 6.357 3.667 1.487 1.694 3.175 3.615 6.256 3.782 2.118.114 3.76.052 5.208 0 2.49-.091 4.453-.16 7.855.685 2.607.643 12.099 9.673 14.773 14.322-.108.142-.22.282-.313.434-1.743 2.755-1.026 6.385 1.619 8.25a6.098 6.098 0 0 0 3.551 1.139 6.081 6.081 0 0 0 5.173-2.848 6.06 6.06 0 0 0 .805-4.603 6.122 6.122 0 0 0-7.518-4.594c-2.561-4.187-8.652-10.455-13.19-13.792 1.814-.628 3.05-1.435 4.213-2.188 1.429-.928 2.616-1.688 4.859-2.065zm3.88-26.924a2.096 2.096 0 0 1 1.783-.98 2.107 2.107 0 0 1 1.783 3.239c-.598.95-1.938 1.272-2.912.653l-.094-.063a2.102 2.102 0 0 1-.56-2.85zm0 23.463a2.096 2.096 0 0 1 1.783-.98c.399 0 .79.112 1.125.326a2.105 2.105 0 0 1 .658 2.914c-.598.95-1.938 1.27-2.912.652l-.094-.063a2.102 2.102 0 0 1-.56-2.85zm0 26.303a2.098 2.098 0 0 1 1.783-.98c.399 0 .79.113 1.125.326a2.107 2.107 0 0 1 .658 2.914c-.598.95-1.938 1.27-2.912.653l-.094-.063a2.103 2.103 0 0 1-.56-2.85z"/></g></svg>