<svg xml:space="preserve" viewBox="0 0 159.9 43.5" xmlns="http://www.w3.org/2000/svg"><path d="M41.8 36.4h10.1v-3h-6.3V23.1h-3.8zM55.1 25c1.1.1 2.1-.7 2.2-1.8V23c0-1.1-1-1.9-2-1.9h-.2c-1.1-.1-2.1.7-2.2 1.8v.1c0 1.1 1 2 2.1 1.9 0 .1 0 .1.1.1m-1.9 11.4h3.6V26.1h-3.6zm19.4-10.5c-1.4 0-2.7.6-3.6 1.6-.8-1.1-2-1.7-3.3-1.6-1.2 0-2.3.4-3.1 1.3v-1.1h-3.4v10.3h3.6v-5.1c0-1.6.8-2.3 1.8-2.3s1.6.6 1.6 2.1v5.3h3.6v-5.1c0-1.6.8-2.3 1.8-2.3.9 0 1.6.6 1.6 2.1v5.3h3.6v-5.9c0-3.2-1.8-4.6-4.2-4.6m17.1 5.4c.1-2.8-2.1-5.2-5-5.3h-.5c-3.2 0-5.7 2.2-5.7 5.3s2.4 5.3 6 5.3c1.6.1 3.2-.5 4.4-1.7l-1.9-2c-.6.6-1.5.9-2.4.9-1.1.1-2.2-.6-2.5-1.7h7.5c.1-.2.1-.6.1-.8m-5.5-2.8c1.1 0 2 .7 2.1 1.8h-4.2c.2-1.1 1.1-1.8 2.1-1.8m12 8.2c4 0 5.9-2 5.9-4.3 0-4.9-7.5-3.4-7.5-5.4 0-.7.6-1.2 2.1-1.2 1.3 0 2.6.4 3.7 1l1.2-2.8q-2.25-1.2-4.8-1.2c-4 0-5.9 1.9-5.9 4.3 0 4.9 7.6 3.4 7.6 5.5 0 .6-.6 1.1-2.2 1.1s-3.1-.5-4.4-1.3l-1.2 2.8c1.6 1 3.6 1.5 5.5 1.5m14.7-10.6v5c0 1.7-.9 2.4-1.9 2.4-1.1 0-1.7-.6-1.7-2.2v-5.2h-3.6v5.8c0 3.3 1.8 4.7 4.4 4.7 1.2 0 2.3-.4 3.1-1.3v1.1h3.4V26.1zm9.4 1.2v-1.2h-3.4v10.3h3.6v-4.7c-.2-1.2.7-2.4 1.9-2.5h.6c.3 0 .5 0 .8.1v-3.2c-1.4-.3-2.6.3-3.5 1.2m12.7-1.2-2.6 6.3-2.5-6.3h-3.7l4.2 10.3h3.7l4.3-10.3zm14.6 5.2c.1-2.8-2.1-5.2-5-5.3h-.5c-3.2 0-5.7 2.2-5.7 5.3s2.4 5.3 6 5.3c1.6.1 3.2-.5 4.4-1.7l-1.9-2c-.6.6-1.5.9-2.4.9-1.1.1-2.2-.6-2.5-1.7h7.5c0-.2.1-.6.1-.8m-5.5-2.8c1.1 0 2 .7 2.1 1.8H140c.1-1.1 1-1.8 2.1-1.8m14.4-2.4-2.5 6.3-2.5-6.3h-3.7l4.4 10.4c-.2.6-.8.9-1.4.9s-1.2-.2-1.6-.6l-1.3 2.5q1.35.9 3 .9c2 0 3.6-.8 4.6-3.4l4.5-10.7zM5.4 4.2c1.3 0 2.6.3 3.9.7 1.2.4 2.4 1 3.6 1.6q1.65.9 3.3 2.1l1.5 1.2c.3.2.5.4.7.6.1.1.2.2.4.3l.2.3.2.2h-3.6l.3-.4.3-.3.6-.6c.4-.5.8-.9 1.2-1.3s.9-.8 1.3-1.1c.2-.2.5-.4.7-.5l.3-.3.3-.3c.9-.7 1.9-1.3 2.9-1.9s2-1.1 3.1-1.6c2.1-1 4.3-1.7 6.5-2.2 1.1-.2 2.3-.4 3.4-.5C37.7 0 38.9 0 40 .1l-1.5.9c-.2.1-.5.3-.7.4-.1.1-.2.1-.4.2l-.4.2c-.9.6-1.9 1.1-2.8 1.7C32.5 4.7 30.8 5.8 29 7s-3.4 2.4-5.1 3.6l-1.2.9c-.4.3-.8.6-1.2 1s-.8.7-1.2 1c-.2.2-.4.3-.6.5l-.5.5-2.2 1.9-1.4-1.9-.1-.1-.1-.2-.4-.3-.6-.7c-.4-.5-.8-.9-1.2-1.3l-2.4-2.7c-.8-.9-1.6-1.8-2.5-2.6-.9-.9-1.9-1.7-2.9-2.4m12.1 32.409c-4 0-7.7-2.3-9.5-5.9l-6.3 2.7c3.9 8.3 13.6 12.2 22.2 8.9l-2.7-6.3c-1.2.4-2.4.6-3.7.6m-10.6-10.7c0-3.7 2-7.2 5.1-9.1l-4.4-5.3c-6.6 4.5-9.3 13-6.5 20.5l6.4-2.7c-.4-1.1-.6-2.3-.6-3.4m21.2-14-6 4.4c2 1 3.7 2.6 4.7 4.5l6.3-2.7c-1.1-2.4-2.8-4.5-5-6.2m7 14c0-2.2-.4-4.4-1.2-6.4l-6.3 2.7c1.8 5-.3 10.6-5 13.1l2.7 6.3c6-2.9 9.8-9 9.8-15.7" style="fill:#14ae5c"/></svg>