<svg xml:space="preserve" viewBox="0 0 512.001 428.801" xmlns="http://www.w3.org/2000/svg"><path d="M120.32 25.597c0-1.175.284-3.477 2.258-5.422 1.946-1.974 4.239-2.258 5.422-2.258h217.603V38.4a25.54 25.54 0 0 0 7.488 18.102 25.575 25.575 0 0 0 18.109 7.496h20.48v135.685h17.917V63.997L345.603 0H128c-6.561 0-13.112 2.509-18.092 7.506a25.52 25.52 0 0 0-7.508 18.092v174.085h17.92z"/><path d="M360.963 171.52H151.04c-3.515 0-6.395 2.877-6.395 6.4 0 3.52 2.88 6.405 6.395 6.405h209.923c3.523 0 6.403-2.885 6.403-6.405-.001-3.523-2.881-6.4-6.403-6.4zm0-34.56H151.04c-3.515 0-6.395 2.88-6.395 6.4 0 3.52 2.88 6.4 6.395 6.4h209.923c3.523 0 6.403-2.883 6.403-6.4-.001-3.52-2.881-6.4-6.403-6.4zm0-34.557H151.04c-3.515 0-6.395 2.875-6.395 6.395 0 3.523 2.88 6.403 6.395 6.403h209.923c3.523 0 6.403-2.88 6.403-6.403-.001-3.521-2.881-6.398-6.403-6.395zM151.04 80.64h168.955c3.533 0 6.405-2.88 6.405-6.4 0-3.52-2.872-6.4-6.403-6.4H151.04c-3.515 0-6.395 2.88-6.395 6.4 0 3.52 2.88 6.4 6.395 6.4z"/><path d="M493.256 127.539c-12.495-12.49-28.872-18.744-45.261-18.744h-20.477V209.92a7.635 7.635 0 0 1-2.248 5.427 7.65 7.65 0 0 1-5.432 2.253H92.163a7.67 7.67 0 0 1-5.44-2.253 7.67 7.67 0 0 1-2.248-5.427V108.797h-20.47c-16.387 0-32.763 6.252-45.261 18.744C6.249 140.047 0 156.424 0 172.8v174.08c0 4.582 1.754 9.17 5.248 12.669a17.898 17.898 0 0 0 12.672 5.253h92.16V326.4c0-1.966.745-3.927 2.248-5.427a7.658 7.658 0 0 1 5.432-2.253H128v84.483a25.524 25.524 0 0 0 7.496 18.102 25.544 25.544 0 0 0 18.102 7.496h204.795c6.561 0 13.11-2.506 18.112-7.496a25.584 25.584 0 0 0 7.506-18.102V318.72h10.23c1.974 0 3.924.753 5.43 2.253a7.63 7.63 0 0 1 2.25 5.427v38.405h92.163c4.588 0 9.172-1.759 12.669-5.253a17.842 17.842 0 0 0 5.248-12.669v-174.08c-.001-16.379-6.24-32.756-18.745-45.264ZM366.083 403.203a7.65 7.65 0 0 1-2.258 5.432c-1.946 1.953-4.239 2.248-5.432 2.248H153.6a7.652 7.652 0 0 1-5.432-2.248 7.68 7.68 0 0 1-2.248-5.432V318.72h220.163zm110.08-71.686h-12.8c-3.512 0-6.403-2.875-6.403-6.395 0-3.523 2.89-6.403 6.403-6.403h12.8c3.523 0 6.405 2.88 6.405 6.403 0 3.521-2.883 6.395-6.405 6.395zm-6.395-136.11c-7.084 0-12.808-5.724-12.808-12.8 0-7.066 5.724-12.8 12.808-12.8 7.066 0 12.8 5.734 12.8 12.8 0 7.076-5.735 12.8-12.8 12.8z"/></svg>