<svg viewBox="0 0 1252 1252" xmlns="http://www.w3.org/2000/svg"><path fill="#70c6be" d="M634.37 138.38c11.88-1.36 24.25 1.3 34.18 8.09 14.96 9.66 25.55 24.41 34.49 39.51 40.59 68.03 81.45 135.91 122.02 203.96C879.08 480.93 933.12 571.91 987 663c37.28 63 74.65 125.96 112.18 188.82 24.72 41.99 50.21 83.54 73.84 126.16 10.18 17.84 15.77 38.44 14.93 59.03-.59 15.92-3.48 32.28-11.84 46.08-11.73 19.46-31.39 33.2-52.71 40.36-11.37 4.09-23.3 6.87-35.43 6.89-132.32-.05-264.64.04-396.95.03-11.38-.29-22.95-1.6-33.63-5.72-7.81-3.33-15.5-7.43-21.61-13.42-10.43-10.32-17.19-24.96-15.38-39.83.94-10.39 3.48-20.64 7.76-30.16 4.15-9.77 9.99-18.67 15.06-27.97 22.13-39.47 45.31-78.35 69.42-116.65 7.72-12.05 14.44-25.07 25.12-34.87 11.35-10.39 25.6-18.54 41.21-19.6 12.55-.52 24.89 3.82 35.35 10.55 11.8 6.92 21.09 18.44 24.2 31.88 4.49 17.01-.34 34.88-7.55 50.42-8.09 17.65-19.62 33.67-25.81 52.18-1.13 4.21-2.66 9.52.48 13.23 3.19 3 7.62 4.18 11.77 5.22 12 2.67 24.38 1.98 36.59 2.06 45-.01 90 0 135 0 8.91-.15 17.83.3 26.74-.22 6.43-.74 13.44-1.79 18.44-6.28 3.3-2.92 3.71-7.85 2.46-11.85-2.74-8.86-7.46-16.93-12.12-24.89-119.99-204.91-239.31-410.22-360.56-614.4-3.96-6.56-7.36-13.68-13.03-18.98-2.8-2.69-6.95-4.22-10.77-3.11-3.25 1.17-5.45 4.03-7.61 6.57-5.34 6.81-10.12 14.06-14.51 21.52-20.89 33.95-40.88 68.44-61.35 102.64-117.9 198.43-235.82 396.85-353.71 595.29-7.31 13.46-15.09 26.67-23.57 39.43-7.45 10.96-16.49 21.23-28.14 27.83-13.73 7.94-30.69 11.09-46.08 6.54-11.23-3.47-22.09-9.12-30.13-17.84-10.18-10.08-14.69-24.83-14.17-38.94.52-14.86 5.49-29.34 12.98-42.1 71.58-121.59 143.62-242.92 215.93-364.09 37.2-62.8 74.23-125.69 111.64-188.36 37.84-63.5 75.77-126.94 113.44-190.54 21.02-35.82 42.19-71.56 64.28-106.74 6.79-11.15 15.58-21.15 26.16-28.85 8.68-5.92 18.42-11 29.05-11.94"/><path fill="#1ba0d8" d="M628.35 608.38c17.83-2.87 36.72 1.39 51.5 11.78 11.22 8.66 19.01 21.64 21.26 35.65 1.53 10.68.49 21.75-3.44 31.84-3.02 8.73-7.35 16.94-12.17 24.81-68.76 115.58-137.5 231.17-206.27 346.75-8.8 14.47-16.82 29.47-26.96 43.07-7.37 9.11-16.58 16.85-27.21 21.89-22.47 11.97-51.79 4.67-68.88-13.33-8.66-8.69-13.74-20.63-14.4-32.84-.98-12.64 1.81-25.42 7.53-36.69 5.03-10.96 10.98-21.45 17.19-31.77 30.22-50.84 60.17-101.84 90.3-152.73 41.24-69.98 83.16-139.55 124.66-209.37 4.41-7.94 9.91-15.26 16.09-21.9 8.33-8.46 18.9-15.3 30.8-17.16"/></svg>