<?xml version="1.0" encoding="UTF-8"?>
<svg xmlns="http://www.w3.org/2000/svg"
     xmlns:xlink="http://www.w3.org/1999/xlink"
     version="1.1" baseProfile="full"
     viewBox="0 0 25 25"
>
    <path d="M0 0h24v24H0z" style="fill: none;"></path>
    <path d="M 20.2784 18.3818 c -1.3067 3.2915 -4.5155 5.6182 -8.2757 5.6182 c -1.4776 0 -2.8725 -0.3584 -4.0965 -0.9979 c 1.0255 -1.5438 4.0744 -5.2267 9.858 -5.3535 l 0.3253 0.7333 z "
          style="fill: #FFFFFF; stroke: rgb(255, 255, 255); stroke-width: 0.1; stroke-linejoin: round;"></path>
    <path d="M 20.0083 11.2143 h -2.4039 v 0.8987 c -9.3673 0.4962 -11.8925 7.1454 -12.3722 8.7664 c -0.1378 -0.1654 -0.2702 -0.3308 -0.4025 -0.5017 c 0.0165 -0.1158 1.1799 -9.7367 11.2198 -10.5472 v 0.5679 h 2.8504 v -0.9097 c 0.4356 0.5293 0.8105 1.1082 1.1082 1.7257 z "
          style="fill: #FFFFFF; stroke: rgb(255, 255, 255); stroke-width: 0.1; stroke-linejoin: round;"></path>
    <path d="M 20.9014 15.1013 v 0.1819 h -2.889 l -0.2426 0.7333 c -7.0958 -0.0717 -10.3598 4.929 -11.082 6.2192 c -0.0331 -0.0221 -0.0717 -0.0496 -0.1048 -0.0772 c 1.3067 -8.1048 11.1041 -8.5017 11.1041 -8.5017 l 0.1654 0.4907 h 3.0048 c 0.0276 0.3143 0.0441 0.634 0.0441 0.9538 z "
          style="fill: #FFFFFF; stroke: rgb(255, 255, 255); stroke-width: 0.1; stroke-linejoin: round;"></path>
    <path d="M 12.0028 6.2026 c -2.2164 0 -4.2453 0.8105 -5.8057 2.1558 v -6.8091 c 0 -0.8546 -0.6947 -1.5493 -1.5493 -1.5493 s -1.5493 0.6947 -1.5493 1.5493 v 13.6568 c 0.011 1.1633 0.2481 2.2771 0.6671 3.2915 c 0.4576 -2.1006 2.7622 -9.632 12.3611 -10.051 l 0.2812 -1.0696 c -1.2901 -0.7498 -2.7953 -1.1744 -4.4052 -1.1744 z"
          style="fill: #FFFFFF; stroke: rgb(255, 255, 255); stroke-width: 0.1; stroke-linejoin: round;"></path>
    <path d=""></path>
</svg>