<svg width="322" height="96" viewBox="0 0 322 96" fill="none" xmlns="http://www.w3.org/2000/svg">
<circle cx="52" cy="52" r="28" fill="#131928"/>
<path fill-rule="evenodd" clip-rule="evenodd" d="M48 96C74.5097 96 96 74.5097 96 48C96 21.4903 74.5097 0 48 0C21.4903 0 0 21.4903 0 48C0 74.5097 21.4903 96 48 96ZM80.0001 52C80.0001 67.464 67.4641 80 52.0001 80C36.5361 80 24.0001 67.464 24.0001 52C24.0001 49.1303 24.4318 46.3615 25.2338 43.7548C27.4288 48.6165 32.3194 52 38.0001 52C45.7321 52 52.0001 45.732 52.0001 38C52.0001 32.3192 48.6166 27.4287 43.755 25.2337C46.3616 24.4317 49.1304 24 52.0001 24C67.4641 24 80.0001 36.536 80.0001 52Z" fill="url(#paint0_linear_311_158)"/>
<path opacity="0.2" fill-rule="evenodd" clip-rule="evenodd" d="M80.0002 52C80.0002 67.464 67.4642 80 52.0002 80C36.864 80 24.5329 67.9897 24.017 52.9791C24.0057 53.318 24 53.6583 24 54C24 70.5685 37.4315 84 54 84C70.5685 84 84 70.5685 84 54C84 37.4315 70.5685 24 54 24C53.6597 24 53.3207 24.0057 52.9831 24.0169C67.9919 24.5347 80.0002 36.865 80.0002 52Z" fill="#131928"/>
<path fill-rule="evenodd" clip-rule="evenodd" d="M48 12C28.1177 12 12 28.1177 12 48C12 50.2091 10.2091 52 8 52C5.79086 52 4 50.2091 4 48C4 23.6995 23.6995 4 48 4C50.2091 4 52 5.79086 52 8C52 10.2091 50.2091 12 48 12Z" fill="url(#paint1_linear_311_158)"/>
<path fill-rule="evenodd" clip-rule="evenodd" d="M298.984 30.8668V70.2724H308.169V46.8278C308.169 42.3005 309.082 39.1207 310.909 37.2882C312.789 35.4558 315.528 34.5395 319.127 34.5395H321.463V25C318.402 25 315.743 25.6467 313.487 26.9402C311.285 28.1798 309.512 29.9315 308.169 32.1951V25.7276H307.886L298.984 30.8668Z" fill="white"/>
<path fill-rule="evenodd" clip-rule="evenodd" d="M269.573 31.1166V70.2724H278.758V46.8278C278.758 42.3005 279.671 39.1207 281.498 37.2882C283.377 35.4558 286.117 34.5395 289.716 34.5395H292.052V25C288.99 25 286.332 25.6467 284.076 26.9402C281.874 28.1798 280.101 29.9315 278.758 32.1951V25.8137L269.573 31.1166Z" fill="white"/>
<path fill-rule="evenodd" clip-rule="evenodd" d="M260.689 43.8748C260.922 45.5294 261.026 47.0387 261 48.4029L232.595 52.395L233.533 44.7524L250.79 42.3272C250.264 38.9722 248.689 36.4452 246.063 34.746C243.438 33.0468 240.396 32.4402 236.939 32.9261C233.801 33.3671 231.257 34.7587 229.308 37.1008C227.756 38.9167 226.837 41.1061 226.55 43.6692C226.192 46.3457 226.195 50.8608 227.977 55.1055C228.886 57.629 230.398 59.6138 232.513 61.0602C235.153 62.8661 238.176 63.5299 241.58 63.0514C246.473 62.3637 249.642 59.823 251.085 55.4294L260.899 54.0501C260.139 58.2932 258.188 61.9691 255.045 65.0776C251.948 68.1254 247.819 70.0118 242.66 70.7369C238.458 71.3274 234.55 70.9242 230.936 69.5272C227.369 68.0693 224.387 65.767 221.992 62.6204C219.643 59.4129 218.15 55.5408 217.512 51.0043C216.875 46.4677 217.22 42.3645 218.549 38.6946C219.923 34.9638 222.127 31.9327 225.163 29.6012C228.251 27.2623 231.949 25.7901 236.258 25.1846C240.407 24.6015 244.231 24.9892 247.731 26.3479C251.23 27.7065 254.117 29.9132 256.39 32.9681C258.656 35.9696 260.089 39.6051 260.689 43.8748Z" fill="white"/>
<path fill-rule="evenodd" clip-rule="evenodd" d="M209.921 43.8748C210.154 45.5293 210.258 47.0387 210.232 48.4029L181.827 52.395L182.765 44.7524L200.022 42.3272C199.496 38.9722 197.921 36.4452 195.295 34.746C192.67 33.0468 189.628 32.4402 186.171 32.9261C183.033 33.3671 180.489 34.7587 178.54 37.1008C176.988 38.9166 176.069 41.1059 175.782 43.6688C175.424 46.3453 175.427 50.8605 177.209 55.1055C178.118 57.629 179.63 59.6138 181.745 61.0602C184.385 62.8661 187.407 63.5299 190.812 63.0514C195.705 62.3637 198.874 59.823 200.317 55.4294L210.131 54.0501C209.371 58.2932 207.42 61.9691 204.277 65.0776C201.18 68.1254 197.051 70.0118 191.892 70.7369C187.69 71.3274 183.782 70.9242 180.168 69.5272C176.601 68.0693 173.619 65.767 171.224 62.6204C168.875 59.4129 167.382 55.5408 166.744 51.0043C166.107 46.4677 166.452 42.3645 167.78 38.6946C169.155 34.9638 171.359 31.9327 174.395 29.6012C177.483 27.2623 181.181 25.7901 185.49 25.1846C189.639 24.6015 193.463 24.9892 196.962 26.3479C200.462 27.7065 203.349 29.9132 205.622 32.9681C207.888 35.9696 209.321 39.6051 209.921 43.8748Z" fill="white"/>
<path fill-rule="evenodd" clip-rule="evenodd" d="M143.297 71C139.806 71 136.664 70.3802 133.87 69.1406C131.131 67.8471 128.956 66.1224 127.344 63.9666C126.751 63.153 126.26 62.3066 125.87 61.4272L134.397 57.451C134.721 58.9735 135.566 60.2831 136.932 61.3796C138.597 62.6192 140.665 63.239 143.136 63.239C145.714 63.239 147.702 62.754 149.098 61.7838C150.548 60.7598 151.273 59.4663 151.273 57.9033C151.273 56.2326 150.468 54.993 148.856 54.1845C147.299 53.3761 144.801 52.4868 141.363 51.5167C138.033 50.6005 135.321 49.7112 133.226 48.8489C131.131 47.9865 129.305 46.6661 127.747 44.8875C126.243 43.109 125.491 40.7645 125.491 37.8541C125.491 35.4827 126.189 33.3269 127.586 31.3866C128.983 29.3925 130.97 27.8295 133.548 26.6977C136.18 25.5659 139.188 25 142.572 25C147.621 25 151.676 26.2935 154.738 28.8805C156.667 30.4488 158.04 32.3787 158.857 34.6701L150.459 38.5862C150.177 36.9271 149.402 35.5782 148.131 34.5395C146.681 33.3538 144.72 32.761 142.25 32.761C139.833 32.761 137.979 33.2191 136.69 34.1353C135.401 35.0516 134.757 36.2642 134.757 37.7733C134.757 38.959 135.186 39.9561 136.046 40.7645C136.905 41.5729 137.953 42.2197 139.188 42.7047C140.423 43.1359 142.25 43.7018 144.667 44.4025C147.89 45.2648 150.521 46.1541 152.563 47.0703C154.657 47.9326 156.457 49.2261 157.961 50.9508C159.465 52.6755 160.244 54.966 160.297 57.8225C160.297 60.3556 159.599 62.6192 158.202 64.6134C156.806 66.6075 154.818 68.1705 152.24 69.3023C149.716 70.4341 146.735 71 143.297 71Z" fill="white"/>
<defs>
<linearGradient id="paint0_linear_311_158" x1="48" y1="-2.07126e-06" x2="117.5" y2="69.5" gradientUnits="userSpaceOnUse">
<stop stop-color="#C395FC"/>
<stop offset="1" stop-color="#4F65F5"/>
</linearGradient>
<linearGradient id="paint1_linear_311_158" x1="28" y1="8" x2="28" y2="48" gradientUnits="userSpaceOnUse">
<stop stop-color="white" stop-opacity="0.4"/>
<stop offset="1" stop-color="white" stop-opacity="0"/>
</linearGradient>
</defs>
</svg>
