<svg xml:space="preserve" viewBox="0 0 490 490" xmlns="http://www.w3.org/2000/svg"><linearGradient id="a" x1="0" x2="490" y1="245" y2="245" gradientUnits="userSpaceOnUse"><stop offset="0" style="stop-color:#00c6ff"/><stop offset="1" style="stop-color:#0072ff"/></linearGradient><path d="M464 58.2c-24.5-14.9-57.5-22.8-95.5-22.8-58.3 0-122.5 18.4-180.2 50.4l-.4-.2s-.1.3-.1.5c-17.5 9.7-34.4 20.5-50.3 32.6C43.8 190 17.6 274.6 39.7 319.8 15.5 361.1.6 403.9 0 454.6 46.5 365.9 74.5 294 226.1 173c-43.3 9.3-118.2 53.3-168.6 120.2-4.8-39.1 26.1-102.2 95-154.6 8.7-6.6 17.8-12.8 27-18.7-7.2 22.5-4.9 16.9-19.9 48.4 22.2-21 36.8-33.9 58.7-69.9 28.4-14 58-24.4 87.3-30.7-4.9 16.1-14.1 43.3-26.6 64.9 0 0 31.7-6.8 57.9-5.3-14.3 15.8-27.2 32.9-40.3 50.4-17.9 23.9-36.4 48.7-60.1 71.7-2.9 2.8-5.6 5.3-8.3 7.9-36.4-3.5-60.5 10.1-83 34.2 17.8-8.3 41.6-15.1 56.6-11-27.6 22.5-71 52.1-106.7 49.7-6.8 10.3-7.2 10.6-14.6 23.1 57.9 14.4 130.6-44.4 173.3-86 25.1-24.4 44.2-49.9 62.7-74.6 38-50.9 70.9-94.8 143.8-111.5l29.7-6.8z" style="fill:url(#a)"/></svg>