<svg xmlns="http://www.w3.org/2000/svg" fill="none" viewBox="10 110 680.32 465.18"><path fill="#4CE7FF" d="M180.08 574.45c93.933 0 170.08-76.147 170.08-170.08s-76.147-170.08-170.08-170.08S10 310.437 10 404.37s76.147 170.08 170.08 170.08" opacity=".95"/><path fill="#0067C2" d="M350.16 575.18c128.456 0 232.59-104.134 232.59-232.59S478.616 110 350.16 110 117.57 214.134 117.57 342.59s104.134 232.59 232.59 232.59" opacity=".95"/><path fill="#4CE7FF" d="M520.24 574.45c93.932 0 170.08-76.147 170.08-170.08s-76.148-170.08-170.08-170.08-170.08 76.147-170.08 170.08 76.147 170.08 170.08 170.08" opacity=".95"/></svg>