<svg fill="none" viewBox="0 0 256 256" xmlns="http://www.w3.org/2000/svg"><path fill="url(#a)" d="M242.496 10h-14.998v14.882h14.998z" style="fill:url(#a);stroke-width:1.86774"/><path fill="url(#b)" d="M190.019 114.226V84.409l.007.01h29.987v29.762H250v9.435c0 10.904-.934 23.825-3.082 33.973-1.204 5.67-3.029 11.306-5.168 16.718-2.192 5.537-4.717 10.841-7.466 15.595a117.713 116.803 0 0 1-12.553 17.762l-.255.294-.42.488c-1.157 1.347-2.301 2.679-3.56 3.98a118.528 117.612 0 0 1-4.527 4.492c-19.195 18.343-44.203 29.8-70.352 32.43-3.146.32-9.463.652-12.617.652-3.163-.009-9.47-.331-12.617-.651-26.149-2.63-51.157-14.097-70.35-32.43a118.416 117.5 0 0 1-4.53-4.494c-1.32-1.356-2.51-2.748-3.712-4.154l-.004-.004-.518-.603a117.491 116.583 0 0 1-12.553-17.762c-2.748-4.761-5.274-10.058-7.468-15.595-2.137-5.412-3.962-11.048-5.166-16.718C10.935 147.432 10 134.52 10 123.616V11.864h59.981v102.362s0 7.847.1 10.415l.022.599v.004c.126 3.32.25 6.575.598 9.812.988 9.193 3.038 17.913 7.26 25.288 1.223 2.13 2.462 4.2 3.945 6.16 9.023 11.94 22.753 20.901 39.881 23.398 2.039.294 6.154.553 8.213.553s6.172-.259 8.212-.553c17.129-2.497 30.86-11.459 39.882-23.398 1.49-1.96 2.722-4.03 3.945-6.16 4.222-7.375 6.272-16.095 7.26-25.288.348-3.245.472-6.502.598-9.83l.022-.585c.1-2.567.1-10.415.1-10.415" style="fill:url(#b);stroke-width:1.86774"/><path fill="url(#c)" d="M197.504 32.326h22.5v22.319H250v29.764h-29.996V54.654h-22.5V32.328Z" style="fill:url(#c);stroke-width:1.86774"/><defs><linearGradient id="a" x1="106.283" x2="193.978" y1="265.313" y2="153.158" gradientTransform="matrix(1.875 0 0 1.8605 -110 -114.654)" gradientUnits="userSpaceOnUse"><stop stop-color="#C2C4CE"/><stop offset=".397" stop-color="#D6D9E2"/><stop offset="1" stop-color="#fff"/></linearGradient><linearGradient id="b" x1="106.283" x2="193.978" y1="265.313" y2="153.158" gradientTransform="matrix(1.875 0 0 1.8605 -110 -114.654)" gradientUnits="userSpaceOnUse"><stop stop-color="#C2C4CE"/><stop offset=".397" stop-color="#D6D9E2"/><stop offset="1" stop-color="#fff"/></linearGradient><linearGradient id="c" x1="106.283" x2="193.978" y1="265.313" y2="153.158" gradientTransform="matrix(1.875 0 0 1.8605 -110 -114.654)" gradientUnits="userSpaceOnUse"><stop stop-color="#C2C4CE"/><stop offset=".397" stop-color="#D6D9E2"/><stop offset="1" stop-color="#fff"/></linearGradient></defs></svg>