<svg xml:space="preserve" id="Layer_1" x="0" y="0" version="1.1" viewBox="0 0 209.6 177.3" xmlns="http://www.w3.org/2000/svg"><style>.st3{fill:none;stroke:#000;stroke-width:3.83;stroke-linecap:round;stroke-linejoin:round}</style><g id="Layer_17"><path d="M96.8 32.7 111.5 18l19-12.7s14.6-3.3 15.3-3.4 22.6 2.9 22.6 2.9l11.4 4.8 13 9.7 6.6 8 7.6 18.2.8 19.8-11.2 23.3-9.9 9.3-20.4 13.5-20.5 8.8-14.9 6.5-12.9 15.2-12 10.1c-.1.1-25.2 15.6-25.2 15.6l-25.5 7.7-10.4-1-16.2-3.2-7.6-4.6-7 3.1-6.1-2.2-3-6s1.5-11.9 1.5-13.1-2.5-7.5-2.5-7.5l-2-19s5.9-23 6.2-23.5 11.3-16.9 11.3-16.9S36.4 66.6 37 66.2s16.7-9.4 16.7-9.4C65.5 53 77 48.2 88.1 42.4z" style="fill:#fada9d"/><path d="M159.2 17.9c1.1 1.1 3.6 2.9 4 4.4.7 2.4-2 3.9-3.7 4.7l-10 4.7c-2.1 1.2-4.5 1.9-6.9 2.2-4.8.2-8.9-3.1-12.5-6.2-1.7-1.5-3.6-3.3-3.5-5.5.2-1.5.9-3 2.1-4 4.6-4.7 11.1-7.1 17.7-6.5 4.9.6 9.4 2.8 12.8 6.2m-69.8 35c1.9-.9 4.1-2.5 6.2-2.7 3.5-.4 7.3 4.1 6.7 7.4-.4 2.8-3.2 4.5-5.7 5.8-15 8.2-30.2 16.4-45.3 24.6-1.4.9-3.1 1.5-4.8 1.8-2.4.2-4.7-1.1-6.8-2.4-1.7-1-3.5-2.2-4-4.2-.3-1.7.3-3.5 1.6-4.7s2.8-2.1 4.4-2.8L82 56.4zM38.1 92.7c1.5 2.4-.9 4.6-2.2 6.6-3.3 4.9-6.9 9.6-10.8 14-1.2 1.6-2.8 2.9-4.7 3.8-1.9.7-4.4.4-5.5-1.3-1.2-1.9-.4-4.3.4-6.4l4.6-11.1c1.1-2.7 2.3-5.4 4.4-7.3 2.2-1.9 5.1-2.6 7.9-2.1 2.4.5 4.5 1.8 5.9 3.8m-25.7 37.4q-.15-4.65.9-9.3l3.9 1.4c-1.6 2.7-3.2 5.2-4.8 7.9m7.1 20.9c5-.8 10-2.1 14.8-3.8 2.6-.9 6.4-1.9 4.5-5.4q-1.05-2.1-2.4-3.9c-1.6-2.3-3.7-4.3-6-5.9-5.4-3.7-9.3 2.3-11.7 6.8-1.6 2.9-2.6 6-3 9.2-.2.7-.1 1.5.3 2.2.7 1.1 2.2 1 3.5.8m22.8 6c-4.3 1.4-8.9 2.2-13.4 2.4 4.5 2.3 9.4 3.4 14.4 3.4-.4-1.9-.5-4-1-5.8m29.6-.8c0 1-.2 2-.6 2.9-.9 1.1-2.2 1.9-3.6 2.2-4.5 1.4-9.2 2.2-14 2.3h-.2c-1.7-.1-3-1.5-2.9-3.2 0-2 .5-3.9 1.4-5.6 1.3-2.1 3.5-3.5 5.6-4.7 2.7-1.5 5.4-2.9 8.2-4.2.1 0 .2-.1.3-.1 1.6-.5 3.3.3 3.9 1.9 1 2.7 2 5.7 1.9 8.5m-32.3-23.3c-2.4-2.5-4.9-4.8-7.5-7-1.8-1.6-2.3-4.3-1.1-6.4 3.3-5.6 7.7-10.6 13-14.5 1.6-1.2 3.6-2.4 5.6-2.2 2.2.2 4 1.9 5.5 3.6q3.9 3.9 6.9 8.4c2 3.1 2.9 6.7 2.6 10.4-.5 4.3-3.3 8.1-6.7 10.8-2.2 1.7-4.7 3.2-7.2 4.3-2.3 1.1-5.1.3-6.6-1.8-1.4-2-2.9-3.8-4.5-5.6m65.2-2.1c.6 2.9.3 6-.9 8.7-1.7 3.4-5.2 5.5-8.5 7.5l-14 8.3c-.3.2-.7.3-1.1.4-1.6.2-3.1-.9-3.3-2.5-.6-4.4-.7-8.9 1.2-12.8 1.5-2.7 3.4-5.1 5.7-7.1l8.9-9c.8-.8 1.6-1.5 2.6-2 6.6-3.6 8.5 3.9 9.4 8.5M79 84.5c3.6-1.3 7.9 3.3 9.8 6 2.2 3 3.1 6.7 2.8 10.4-.8 6.3-5.8 11.2-10.6 15.5-1.4 1.4-3 2.6-4.7 3.5s-3.8 1.1-5.7.4c-1.8-.8-3-2.6-4-4.2L60 105.4c-1.3-2.1-2.8-4.6-2.3-7.1.6-3.2 3.8-5.1 6.7-6.5 4.7-2.4 9.5-5.5 14.6-7.3m39.6 26.6c1.8 1.3 3.2 3.1 3.9 5.2.8 2.8-.2 5.9-2 8.3-1 1.3-2.2 2.6-3.4 3.7-.3.3-.6.5-1 .6-1.6.6-3.4-.2-4-1.8l-8.1-21.9c5.3 1.6 10.3 2.5 14.6 5.9m-19.3-39c-1.7 1.3-5.2 2.7-3.8 5.2 1.1 2 3.7 3.4 5.1 5.3.3.4 3.2 6 2.9 6 2.6-.2 5.2-.8 7.7-1.7s4.5-2.9 5.5-5.3c.4-1.1.5-2.3.4-3.4-.1-3.8-2.1-7.1-4.1-10.2-.8-1.2-1.8-2.6-3.2-2.7-1.2-.2-2.4.6-3.4 1.4zm38.3 34.3c.3 3.7 1.2 3.4 4.8 3q8.55-1.05 16.8-3.6c1.4-.4 2.6-1.6 3-3 1.3-4.2 1.6-8.6.8-12.8-.1-1.6-.8-3.1-2-4.3-1.8-1.4-4.3-.9-6.4-.4l-16.6 4c-.9.2-1.7.6-2.4 1.1-2.6 2.2-1.3 4.7-.3 7 1.2 2.9 2 5.9 2.3 9M118.5 30c2.5 1 4.6 3 6.8 4.5 1.7 1.2 3.6 3 3.2 5.1-.3 1.5-1.7 2.5-3 3.3l-6.3 4c-3 1.9-6.6 3.9-10 2.9-2.9-.9-4.7-3.7-4.4-6.7.3-2.5 2.1-4.5 3.9-6.4 2.5-2.8 5.1-8.5 9.8-6.7m4.6 23c-1.9 1.6-4.7 3.6-5 6.3-.5 4.9 4.8 11.6 8.6 14 3.5 2.2 7.9 2.7 12.1 2.1 4.1-.8 8.1-2 11.9-3.7 1.4-.6 3-1.3 3.2-2.8 0-.9-.2-1.8-.7-2.5l-7.5-14.1c-1.5-2.7-3.2-5.7-6.2-6.6-2.5-.7-5.2.3-7.5 1.5-3.2 1.7-6.1 3.6-8.9 5.8m27.2-9.9c-.7-.9-2.8-2.8-2.4-4s2.9-2.1 4-2.6c3.1-1.5 6.5-2.6 9.9-3.3 2.6-.7 5.4-.6 8 .2 3.1 1.2 5.3 3.9 6.9 6.8 2.2 3.7 3.2 7.9 3 12.1-.2 4.3-2.5 8.2-6 10.6-1.8 1.1-4.2 1.7-6 .7-.8-.5-1.5-1.2-2.1-2zm36.3 30c4 3.9 2.2 12.5 0 16.7-2.7 5.1-7.5 8.8-13.1 10.2l-.9-15.9c-.3-1.9-.1-3.8.5-5.6 1.5-4.1 9.5-9.3 13.5-5.4m6.2-42.2c-4-1.4-8.3-.4-12.3 1.2 2.6 3.1 4.7 6.5 6.3 10.3 2.9-3.3 5-7.2 6-11.5m-8.8-8.7c-3.9.4-8.2 1.6-12.1 2-1.3-4.8-4.1-9.1-7.9-12.3 8 .4 14.6 4.3 20 10.3M198.8 46c-.9 4.9-2.9 9.5-5.9 13.5 2.1 4.3 3.1 9.1 3 13.9 4.7-8.1 5.2-18.3 2.9-27.4" style="fill:#d59950"/><path d="M10.5 168.2c3.4 1.3 7.3.4 9.9-2.2 18.6 11.2 42.9 9.6 62.6.5s34.9-25.3 49.1-41.6c14.1-4.8 28.3-9.6 41-17.3s24-18.5 29.6-32.3c4.7-11.6 5.5-25.4 1.3-37.2-13.3 25.9-36.2 42.5-64.6 48.7-3 11.1-9.6 21-17.7 29.2s-17.9 14.6-28.1 20C72.2 147.4 48 154.4 24 157.2c-5 4.3-12.1 5-17.9 1.9.3 3.6 1 7.9 4.4 9.1" style="opacity:.21"/><path d="M141.2 98.7c-1.2 12.5-6.9 24.3-14.7 34.1s-17.7 17.8-28.1 24.8c-11.4 7.7-23.8 14.3-37.3 16.8s-29.1.7-39.9-7.8c-2.4 1.2-5 1.9-7.7 2.2-2.7.1-5.6-.9-7.1-3s-1.4-4.9-1.2-7.5c.2-4.1 2.5-8.4.9-12.1-7.7-17.9-4.1-39.3 6.5-55.7S39.8 62.6 57.8 55 94.9 43.5 114 39.7" class="st3"/><path d="M130.9 126.7c18.4-9 37.6-13.5 53.3-26.7 14.9-12.4 25.4-31.4 23.4-50.7-1.3-12.4-7.8-24.1-17.1-32.4-9.7-8.1-21.5-13.2-34-14.6C146.4 1.1 136 2.3 127 7c-18.2 9.5-31.3 34.6-50.7 41.5" class="st3"/></g></svg>