<?xml version="1.0" encoding="UTF-8" standalone="no"?>
<svg
   width="1019"
   height="1019"
   version="1.1"
   viewBox="0 0 1019 1019"
   id="svg32"
   sodipodi:docname="lidarr.svg"
   inkscape:version="1.1.2 (0a00cf5339, 2022-02-04, custom)"
   xmlns:inkscape="http://www.inkscape.org/namespaces/inkscape"
   xmlns:sodipodi="http://sodipodi.sourceforge.net/DTD/sodipodi-0.dtd"
   xmlns="http://www.w3.org/2000/svg"
   xmlns:svg="http://www.w3.org/2000/svg">
  <sodipodi:namedview
     id="namedview34"
     pagecolor="#ffffff"
     bordercolor="#666666"
     borderopacity="1.0"
     inkscape:pageshadow="2"
     inkscape:pageopacity="0.0"
     inkscape:pagecheckerboard="0"
     showgrid="false"
     fit-margin-top="0"
     fit-margin-left="0"
     fit-margin-right="0"
     fit-margin-bottom="0"
     inkscape:zoom="0.80371094"
     inkscape:cx="509.51154"
     inkscape:cy="510.13366"
     inkscape:window-width="1920"
     inkscape:window-height="1009"
     inkscape:window-x="-1928"
     inkscape:window-y="-8"
     inkscape:window-maximized="1"
     inkscape:current-layer="svg32" />
  <defs
     id="defs10">
    <clipPath
       id="a">
      <circle
         cx="512"
         cy="512"
         r="410"
         fill="#989898"
         stroke-width="3.5906"
         id="circle2" />
    </clipPath>
    <clipPath
       id="b">
      <path
         d="M 512,636 V 71 L 182,636 Z"
         fill="#000000"
         id="path5" />
      <path
         d="M 512,388 V 953 L 842,388 Z"
         fill="#000000"
         id="path7" />
    </clipPath>
  </defs>
  <g
     id="lidarr-group-logo"
     transform="translate(-2.5,-2.5)">
    <circle
       id="lidarr-black-circle"
       cx="512"
       cy="512"
       r="410"
       stroke-width="1.8" />
    <path
       id="lidarr-honeycomb-a"
       d="M 852.12,33.49 875.58,47.93 898.8,33.49 V 4.62 L 875.58,-9.82 852.12,4.62 Z M 805.68,4.62 782.46,-9.82 759.26,4.62 v 28.87 l 23.2,14.44 23.22,-14.44 V 4.62 L 828.9,-9.82 852.12,4.62 m -46.44,28.87 23.22,14.44 23.22,-14.44 m -46.44,57.49 v 28.87 l 23.22,14.44 23.22,-14.44 V 90.98 L 828.9,76.8 805.68,90.98 782.46,76.8 759.26,90.98 m 92.86,28.87 23.46,14.44 23.22,-14.44 V 90.98 L 875.58,76.8 852.12,90.98 M 875.58,47.93 V 76.8 M 828.9,47.93 V 76.8 m 69.9,-72.18 23.22,-14.44 23.22,14.44 23.22,-14.44 23.22,14.44 23.2,-14.44 23.22,14.44 v 28.87 l 23.22,14.44 V 76.8 l -23.22,14.18 v 28.87 l 23.22,14.44 v 28.87 l -23.22,14.44 v 28.87 l 23.22,14.44 v 28.87 l -23.22,14.16 v 28.87 l 23.22,14.44 v 28.87 l -23.22,14.44 v 28.87 l 23.22,14.44 v 28.87 l -23.22,14.16 v 28.87 l 23.22,14.44 v 28.87 l -23.22,14.45 v 28.87 l 23.22,14.44 v 28.87 l -23.22,14.16 v 28.87 l 23.22,14.44 v 28.87 l -23.22,14.44 v 28.87 l 23.22,14.44 v 28.87 l -23.22,14.16 v 28.87 l 23.22,14.44 v 28.87 l -23.22,14.44 v 28.87 l 23.22,14.44 v 28.87 l -23.22,14.18 v 28.87 l 23.22,14.44 v 28.87 l -23.22,14.44 -23.22,-14.44 -23.2,14.44 -23.22,-14.44 -23.22,14.44 -23.22,-14.44 -23.22,14.44 -23.22,-14.44 -23.46,14.44 -23.22,-14.44 -23.22,14.44 -23.22,-14.44 -23.2,14.44 -23.22,-14.44 -23.22,14.44 -23.22,-14.44 -23.22,14.44 -23.22,-14.44 -23.46,14.44 -23.22,-14.44 -23.22,14.44 -23.22,-14.44 -23.2,14.44 -23.22,-14.44 -23.22,14.44 -23.22,-14.44 -23.22,14.44 -23.22,-14.44 -23.2,14.44 -23.22,-14.44 -23.22,14.44 -23.22,-14.44 -23.46,14.44 -23.22,-14.44 -23.22,14.44 -23.22,-14.44 -23.22,14.44 -23.22,-14.44 -23.22,14.44 -23.2,-14.44 -23.22,14.44 -23.22,-14.44 -23.46,14.44 -23.22,-14.44 -23.22,14.44 -23.22,-14.44 -23.22,14.44 -23.22,-14.44 V 999.12 L -77.32,984.68 V 955.81 L -54.1,941.63 V 912.76 L -77.32,898.32 V 869.45 L -54.1,855.01 V 826.14 L -77.32,811.7 V 782.83 L -54.1,768.67 V 739.8 L -77.32,725.36 V 696.49 L -54.1,682.05 V 653.18 L -77.32,638.74 V 609.87 L -54.1,595.71 V 566.84 L -77.32,552.4 V 523.53 L -54.1,509.08 V 480.21 L -77.32,465.77 V 436.9 L -54.1,422.74 V 393.87 L -77.32,379.43 V 350.56 L -54.1,336.12 V 307.25 L -77.32,292.81 V 263.94 L -54.1,249.78 V 220.91 L -77.32,206.47 V 177.6 L -54.1,163.16 V 134.29 L -77.32,119.85 V 90.98 L -54.1,76.8 V 47.93 L -77.32,33.49 V 4.62 L -54.1,-9.82 -30.88,4.62 -7.66,-9.82 15.56,4.62 38.78,-9.82 62,4.62 85.46,-9.82 108.68,4.62 131.9,-9.82 155.1,4.62 178.32,-9.82 201.54,4.62 224.76,-9.82 247.98,4.62 271.2,-9.82 294.42,4.62 317.88,-9.82 341.1,4.62 364.32,-9.82 387.54,4.62 410.74,-9.82 433.96,4.62 457.18,-9.82 480.4,4.62 503.62,-9.82 526.84,4.62 550.04,-9.82 573.26,4.62 596.48,-9.82 619.7,4.62 643.16,-9.82 666.38,4.62 689.6,-9.82 712.82,4.62 736.04,-9.82 759.26,4.62 m -46.44,0 v 28.87 l 23.22,14.44 23.22,-14.44 m -46.44,57.49 v 28.87 l 23.22,14.44 23.22,-14.44 V 90.98 L 736.04,76.8 712.82,90.98 689.6,76.8 666.38,90.98 M 782.46,47.93 V 76.8 M 736.04,47.93 V 76.8 m 23.22,100.79 v 28.87 l 23.2,14.44 23.22,-14.44 v -28.87 l -23.22,-14.44 -23.2,14.44 -23.22,-14.44 -23.22,14.44 v 28.87 l 23.22,14.44 23.22,-14.44 m 46.42,-86.61 -23.22,14.44 v 28.87 m -23.2,-43.31 23.2,14.44 m -46.42,0 v 28.87 m 0,57.74 v 28.87 l 23.22,14.16 23.2,-14.16 V 220.9 m 46.44,-86.61 v 28.87 l 23.22,14.44 23.46,-14.44 v -28.87 m -46.68,28.87 -23.22,14.44 m -23.22,72.18 23.22,14.16 23.22,-14.16 v -28.87 l -23.22,-14.44 m 46.44,-28.87 v 28.87 l 23.46,14.44 23.22,-14.44 V 177.6 l -23.22,-14.44 m 0,57.74 v 28.87 l 23.22,14.16 23.22,-14.16 V 220.9 L 898.8,206.46 m -69.9,14.44 23.22,-14.44 M 666.38,4.62 V 33.49 L 689.6,47.93 712.82,33.49 M 573.26,4.62 V 33.49 L 596.48,47.93 619.7,33.49 V 4.62 m 0,28.87 23.46,14.44 23.22,-14.44 M 619.7,90.98 v 28.87 l 23.46,14.44 23.22,-14.44 V 90.98 L 643.16,76.8 619.7,90.98 596.48,76.8 573.26,90.98 v 28.87 l 23.22,14.44 23.22,-14.44 M 596.48,47.93 V 76.8 M 689.6,47.93 V 76.8 M 643.16,47.93 V 76.8 M 526.84,4.62 v 28.87 l 23.2,14.44 23.22,-14.44 M 480.4,4.62 v 28.87 l 23.22,14.44 23.22,-14.44 M 503.62,76.8 480.4,90.98 v 28.87 l 23.22,14.44 23.22,-14.44 V 90.98 Z M 573.26,90.98 550.04,76.8 526.84,90.98 M 503.62,47.93 V 76.8 M 550.04,47.93 V 76.8 m 23.22,43.05 -23.22,14.44 v 28.87 l 23.22,14.44 23.22,-14.44 v -28.87 m -92.86,0 v 28.87 l 23.22,14.44 23.2,-14.44 m -46.42,86.61 23.22,14.16 23.2,-14.16 V 220.9 l -23.2,-14.44 -23.22,14.44 v 28.87 l -23.22,14.16 v 28.87 l 23.22,14.44 23.22,-14.44 v -28.87 m 23.2,-43.03 23.22,-14.44 v -28.87 m -46.42,-57.74 23.2,14.44 m -23.2,72.18 V 177.6 m 116.32,-43.31 v 28.87 l 23.22,14.44 23.22,-14.44 v -28.87 l -23.22,-14.44 m -93.12,86.61 23.22,14.44 23.22,-14.44 v -28.87 l -23.22,-14.44 m 46.68,0 -23.46,14.44 m 23.46,72.18 23.22,14.16 23.22,-14.16 V 220.9 l -23.22,-14.44 -23.22,14.44 v 28.87 l -23.46,14.16 v 28.87 l -23.22,14.44 v 28.87 l 23.22,14.44 23.46,-14.44 V 307.24 L 619.7,292.8 m -69.66,-43.03 23.22,14.16 23.22,-14.16 V 220.9 m 23.22,-14.44 23.46,14.44 m 23.22,-14.44 v -28.87 m 0,86.34 v 28.87 l 23.22,14.44 23.22,-14.44 V 263.93 L 689.6,249.77 m -69.9,100.77 v 28.87 l 23.46,14.44 23.22,-14.44 V 350.54 L 643.16,336.1 m 23.22,43.31 23.22,14.44 23.22,-14.44 V 350.54 L 689.6,336.1 666.38,350.54 m -23.22,-43.31 23.22,-14.44 m 23.22,14.44 v 28.87 m -93.12,-28.87 -23.22,-14.44 -23.22,14.44 v 28.87 l 23.22,14.44 23.22,-14.44 m -23.22,-43.31 v -28.87 m -69.64,72.18 -23.22,14.44 v 28.87 l 23.22,14.44 23.22,-14.44 v -28.87 z m 23.22,43.31 23.2,14.44 23.22,-14.44 v -28.87 m -69.64,-43.31 v 28.87 m 46.42,0 -23.2,14.44 m 0,-57.74 23.2,14.44 m 0,115.48 -23.2,14.16 v 28.87 l 23.2,14.44 23.22,-14.44 v -28.87 z m 0,-28.87 v 28.87 m -46.42,-28.87 v 28.87 l 23.22,14.16 m 0,28.87 -23.22,14.44 v 28.87 l 23.22,14.45 23.2,-14.45 v -28.87 m 116.34,-43.31 v 28.87 l 23.22,14.44 23.22,-14.44 V 436.88 L 689.6,422.72 Z m 23.22,-43.03 v 28.87 m -69.9,-43.31 -23.22,14.44 v 28.87 l 23.22,14.16 23.46,-14.16 v -28.87 m -69.9,71.9 23.22,14.44 23.22,-14.44 v -28.87 m 46.68,28.87 -23.22,14.44 v 28.87 l 23.22,14.45 23.22,-14.45 v -28.87 m -139.56,28.87 23.22,14.45 23.22,-14.45 v -28.87 m 23.22,-14.44 23.46,14.44 m 0,-57.47 23.22,14.16 m -93.12,-57.47 23.22,14.44 m 0,28.87 -23.22,14.16 m 302.31,-187.11 -23.46,14.16 v 28.87 l 23.46,14.44 23.22,-14.44 v -28.87 m -93.12,0 v 28.87 l 23.22,14.44 23.22,-14.44 m -46.44,86.61 23.22,14.44 23.22,-14.44 v -28.87 l -23.22,-14.44 -23.22,14.44 v 28.87 l -23.22,14.44 v 28.87 m 69.66,-43.31 23.46,14.44 23.22,-14.44 v -28.87 l -23.22,-14.44 -23.46,14.44 m 23.46,-43.31 v 28.87 m -46.68,-28.87 v 28.87 m -69.64,-72.18 v 28.87 l 23.2,14.44 23.22,-14.44 m -92.86,0 23.22,14.44 23.22,-14.44 m -46.44,86.61 23.22,14.44 23.22,-14.44 v -28.87 l -23.22,-14.44 -23.22,14.44 m 92.86,0 -23.22,-14.44 -23.2,14.44 m 23.2,-43.31 v 28.87 m -46.42,-28.87 v 28.87 m 23.22,100.77 v 28.87 l 23.2,14.44 23.22,-14.44 v -28.87 l -23.22,-14.16 -23.2,14.16 -23.22,-14.16 -23.22,14.16 m 23.22,-43.03 v 28.87 m 23.22,43.03 -23.22,14.44 v 28.87 l 23.22,14.45 23.2,-14.45 v -28.87 m -69.64,-14.44 23.22,14.44 M 875.56,393.83 V 422.7 L 898.78,436.86 922,422.7 v -28.87 l -23.22,-14.44 m -23.22,43.31 -23.46,14.16 v 28.87 l 23.46,14.44 23.22,-14.44 v -28.87 m -69.9,-43.03 v 28.87 l 23.22,14.16 m -23.22,-14.16 -23.22,14.16 m 46.44,28.87 -23.22,14.44 v 28.87 l 23.22,14.45 23.46,-14.45 v -28.87 m -69.9,-14.44 23.22,14.44 m -69.64,-100.77 23.2,14.44 M 712.8,177.58 689.58,163.14 m 0,57.74 23.22,-14.44 M 689.58,134.26 712.8,119.82 M 828.88,249.74 852.1,263.9 M 736.02,249.74 712.8,263.9 m -93.12,0 -23.22,-14.16 M 1014.85,47.9 991.65,33.46 968.43,47.9 v 28.87 l 23.22,14.18 23.2,-14.18 V 47.9 l 23.22,-14.44 m 0,57.49 -23.22,-14.18 M 991.65,4.59 v 28.87 m -92.88,0 23.22,14.44 23.22,-14.44 V 4.59 m -46.44,115.23 23.22,14.44 23.22,-14.44 V 90.95 L 921.99,76.77 898.77,90.95 m 46.44,0 23.22,-14.18 M 921.99,47.9 v 28.87 m 23.22,-43.31 23.22,14.44 m 0,86.36 v 28.87 l 23.22,14.44 23.2,-14.44 v -28.87 l -23.2,-14.44 -23.22,14.44 -23.22,-14.44 m -23.22,101.05 23.22,-14.44 v -28.87 l -23.22,-14.44 -23.22,14.44 m 23.22,-43.31 v 28.87 m 46.44,57.74 v 28.87 l 23.22,14.16 23.2,-14.16 v -28.87 l -23.2,-14.44 -23.22,14.44 -23.22,-14.44 m 46.44,-28.87 v 28.87 m -46.44,-28.87 23.22,-14.44 m 69.64,14.44 -23.22,-14.44 m 0,-28.87 23.22,-14.44 m -23.22,101.05 23.22,-14.44 M 991.65,90.93 v 28.87 m 0,144.08 v 28.87 l 23.2,14.44 23.22,-14.44 m -46.42,0 -23.22,14.44 v 28.87 l 23.22,14.44 23.2,-14.44 v -28.87 m 23.22,43.31 -23.22,-14.44 m -116.08,-43.31 23.22,14.44 23.22,-14.44 v -28.87 l -23.22,-14.16 m 0,144.08 23.22,-14.44 v -28.87 l -23.22,-14.44 -23.22,14.44 m 92.88,0 v 28.87 l 23.2,14.44 23.22,-14.44 m -92.86,-28.87 23.22,-14.44 m -46.44,-28.87 v 28.87 m 23.22,-43.31 23.22,14.44 m -46.44,115.48 23.22,14.16 23.22,-14.16 v -28.87 l -23.22,-14.44 m 0,57.47 v 28.87 l 23.22,14.44 23.22,-14.44 v -28.87 l -23.22,-14.16 m -69.66,43.03 23.22,14.44 23.22,-14.44 m -23.22,14.44 V 509 l 23.22,14.45 23.22,-14.45 v -28.87 m 23.22,-43.31 23.2,-14.16 v -28.87 m 23.22,43.03 -23.22,-14.16 m -23.2,43.03 23.2,14.44 23.22,-14.44 m -69.64,43.31 23.22,14.45 23.2,-14.45 v -28.87 m -46.42,-86.34 23.22,-14.44 m 46.42,-115.48 -23.22,-14.16 m -69.64,14.16 23.22,-14.16 m 46.42,317.04 -23.2,-14.44 -23.22,14.44 v 28.87 l 23.22,14.16 23.2,-14.16 v -28.87 l 23.22,-14.44 m 0,57.47 -23.22,-14.16 m -23.2,-72.18 v 28.87 m -46.44,-28.87 v 28.87 l 23.22,14.44 m -69.66,-14.44 -23.22,14.44 v 28.87 l 23.22,14.16 23.22,-14.16 v -28.87 l -23.22,-14.44 v -28.87 l -23.22,-14.45 m 69.66,43.32 -23.22,14.44 m 46.44,28.87 -23.22,14.16 v 28.87 l 23.22,14.44 23.22,-14.44 v -28.87 m -116.1,-14.16 -23.46,14.16 v 28.87 l 23.46,14.44 23.22,-14.44 v -28.87 m 23.22,-14.16 23.22,14.16 m 23.22,72.18 -23.22,14.44 v 28.87 l 23.22,14.44 23.22,-14.44 V 696.4 Z m 0,-28.87 v 28.87 m -23.22,-43.31 -23.22,14.44 v 28.87 l 23.22,14.44 m -23.22,-14.44 -23.22,14.44 v 28.87 l 23.22,14.44 23.22,-14.44 m -23.22,14.44 v 28.87 l 23.22,14.16 23.22,-14.16 v -28.87 m 23.22,-43.31 23.2,-14.44 v -28.87 l -23.2,-14.44 m 46.42,57.74 -23.22,-14.44 m -46.42,86.61 23.22,14.16 23.2,-14.16 v -28.87 l -23.2,-14.44 m 23.2,14.44 23.22,-14.44 m -139.3,-86.61 23.22,14.44 m 92.86,0 23.22,-14.44 m -46.42,144.08 v 28.87 l 23.2,14.44 23.22,-14.44 m 0,57.74 -23.22,-14.44 -23.2,14.44 v 28.87 l 23.2,14.44 23.22,-14.44 m -23.22,-43.31 v -28.87 m -23.2,-14.44 -23.22,14.44 v 28.87 l 23.22,14.44 m -69.66,-100.77 -23.22,14.16 v 28.87 l 23.22,14.44 23.22,-14.44 v -28.87 m -23.22,129.92 23.22,-14.44 v -28.87 l -23.22,-14.44 -23.22,14.44 v 28.87 l 23.22,14.44 v 28.87 l 23.22,14.18 23.22,-14.18 m -23.22,-43.31 23.22,14.44 23.22,-14.44 m -23.22,-43.31 -23.22,14.44 m 0,-57.74 23.22,14.44 m -46.44,0 v 28.87 m 46.44,57.74 v 28.87 l 23.22,14.18 23.2,-14.18 V 912.64 M 898.77,898.2 875.55,912.64 v 28.87 l 23.22,14.18 23.22,-14.18 m -23.22,14.18 v 28.87 L 921.99,999 945.21,984.56 V 955.69 M 921.99,999 v 28.87 m 92.86,0 V 999 L 991.65,984.56 968.43,999 v 28.87 m 23.22,-72.18 v 28.87 M 968.43,999 945.21,984.56 m 92.86,-28.87 -23.22,-14.18 m 0,57.49 23.22,-14.44 m 0,-201.84 -23.22,-14.16 M 852.09,523.44 v 28.87 l 23.46,14.44 m -46.68,-57.76 -23.22,14.45 v 28.87 l 23.22,14.44 23.22,-14.44 m 0,57.47 -23.22,-14.16 -23.22,14.16 v 28.87 l 23.22,14.44 23.22,-14.44 m -23.22,-43.03 v -28.87 m -69.64,-43.31 v 28.87 l 23.2,14.44 23.22,-14.44 m -69.64,-43.32 -23.22,14.45 v 28.87 l 23.22,14.44 23.22,-14.44 m -46.44,86.34 23.22,14.44 23.22,-14.44 v -28.87 l -23.22,-14.16 -23.22,14.16 v 28.87 l -23.22,14.44 v 28.87 m 69.66,-72.18 23.2,-14.16 v -28.87 m -46.42,0 v 28.87 m 23.22,100.77 v 28.87 l 23.2,14.44 23.22,-14.44 v -28.87 l -23.22,-14.44 z m 46.42,-57.74 -23.22,14.44 v 28.87 m -46.42,-28.87 v 28.87 l 23.22,14.44 m -23.22,-14.44 -23.22,14.44 v 28.87 l 23.22,14.44 23.22,-14.44 m -23.22,14.44 v 28.87 l 23.22,14.16 23.2,-14.16 v -28.87 m 93.12,-86.61 v 28.87 l 23.22,14.44 m -23.22,-14.44 -23.46,14.44 v 28.87 l 23.46,14.44 23.22,-14.44 m -93.12,-28.87 23.22,-14.44 V 653.1 m 23.22,72.18 -23.22,14.44 v 28.87 l 23.22,14.16 23.46,-14.16 v -28.87 m -69.9,-14.44 23.22,14.44 m 23.22,-43.31 -23.22,-14.44 m -69.64,-43.31 23.2,14.44 m 0,-57.47 23.22,14.16 M 643.13,509 619.67,523.45 v 28.87 l 23.46,14.44 23.22,-14.44 v -28.87 m -23.22,43.31 v 28.87 l 23.22,14.16 23.22,-14.16 v -28.87 l -23.22,-14.44 m -93.12,-28.87 v 28.87 l 23.22,14.44 23.22,-14.44 m 23.46,43.31 -23.46,14.16 v 28.87 l 23.46,14.44 23.22,-14.44 v -28.87 m -46.68,0 -23.22,-14.16 -23.22,14.16 v 28.87 l 23.22,14.44 23.22,-14.44 m -23.22,-43.03 v -28.87 m -23.22,-14.44 -23.22,14.44 v 28.87 l 23.22,14.16 M 503.59,509 480.37,523.45 v 28.87 l 23.22,14.44 23.22,-14.44 v -28.87 m 0,86.34 -23.22,-14.16 -23.22,14.16 v 28.87 l 23.22,14.44 23.22,-14.44 v -28.87 l 23.2,-14.16 m 0,-28.87 -23.2,-14.44 m -23.22,14.44 v 28.87 m 46.42,86.34 -23.2,14.44 v 28.87 l 23.2,14.44 23.22,-14.44 v -28.87 z m 23.22,-43.31 -23.22,14.44 v 28.87 M 503.59,653.1 v 28.87 l 23.22,14.44 m 0,28.87 -23.22,14.44 v 28.87 l 23.22,14.16 23.2,-14.16 v -28.87 m 162.77,-43.31 -23.22,-14.44 -23.22,14.44 v 28.87 l 23.22,14.44 23.22,-14.44 M 596.44,653.1 v 28.87 l 23.22,14.44 23.46,-14.44 V 653.1 m -46.68,115.48 23.22,14.16 23.46,-14.16 v -28.87 l -23.46,-14.44 -23.22,14.44 v 28.87 l -23.22,14.16 v 28.87 l 23.22,14.44 23.22,-14.44 m 23.46,-43.03 23.22,14.16 23.22,-14.16 v -28.87 m -46.44,0 23.22,-14.44 M 619.66,696.4 v 28.87 m 46.68,-28.87 -23.22,-14.44 m 23.22,-43.31 23.22,14.44 m -93.12,28.87 -23.22,14.44 m 0,28.87 23.22,14.44 M 526.8,638.66 550,653.1 m 116.34,158.52 -23.22,14.44 v 28.87 l 23.22,14.44 23.22,-14.44 v -28.87 l -23.22,-14.44 v -28.87 m -46.68,0 v 28.87 l 23.46,14.44 m 0,28.87 -23.46,14.44 v 28.87 l 23.46,14.44 23.22,-14.44 v -28.87 m -46.68,0 -23.22,-14.44 -23.22,14.44 v 28.87 l 23.22,14.44 23.22,-14.44 m 23.46,14.44 v 28.87 l 23.22,14.18 23.22,-14.18 v -28.87 l -23.22,-14.44 m -69.9,-43.31 V 826.06 M 526.8,782.75 v 28.87 l 23.2,14.44 23.22,-14.44 m -69.64,-43.03 -23.22,14.16 v 28.87 l 23.22,14.44 23.22,-14.44 m -23.22,43.31 -23.22,14.44 v 28.87 l 23.22,14.44 23.22,-14.44 v -28.87 z m 69.64,43.31 -23.22,14.44 v 28.87 l 23.22,14.18 23.22,-14.18 V 912.68 M 550,826.07 v 28.87 l 23.22,14.44 m -69.64,-43.31 v 28.87 m 23.22,14.44 23.2,-14.44 m 0,57.74 -23.2,-14.44 m -23.22,14.44 v 28.87 l 23.22,14.18 23.2,-14.18 m 0,86.36 v -28.87 l -23.2,-14.44 -23.22,14.44 v 28.87 m 92.86,0 V 999.04 L 573.22,984.6 550,999.04 M 526.8,984.6 v -28.87 m 46.42,28.87 v -28.87 m 23.22,43.31 23.22,-14.44 v -28.87 l -23.22,-14.18 m 46.68,0 -23.46,14.18 m 23.46,72.18 V 999.04 L 619.66,984.6 M 736,1027.91 v -28.87 l -23.22,-14.44 -23.22,14.44 v 28.87 m -23.22,-72.18 v 28.87 l 23.22,14.44 m -46.44,0 23.22,-14.44 M 852.08,782.76 v 28.87 l 23.46,14.44 23.22,-14.44 m -69.9,-43.03 -23.22,14.16 v 28.87 l 23.22,14.44 23.22,-14.44 m -23.22,101.05 23.22,-14.44 v -28.87 l -23.22,-14.44 -23.22,14.44 v 28.87 l 23.22,14.44 v 28.87 l 23.22,14.18 23.46,-14.18 m 23.22,-72.18 -23.22,-14.44 -23.46,14.44 m 0,28.87 23.46,14.44 m 0,-57.74 v -28.87 m -46.68,0 v 28.87 m -69.64,-72.18 v 28.87 l 23.2,14.44 23.22,-14.44 M 736,768.6 712.78,782.76 v 28.87 l 23.22,14.44 23.22,-14.44 m -46.44,57.74 v 28.87 L 736,912.68 759.22,898.24 V 869.37 L 736,854.93 712.78,869.37 689.56,854.93 m 116.08,14.44 -23.22,-14.44 -23.2,14.44 m 0,28.87 23.2,14.44 23.22,-14.44 m -23.22,-72.18 v 28.87 M 736,826.06 v 28.87 m 0,57.74 v 28.87 l 23.22,14.18 23.2,-14.18 V 912.67 M 736,941.54 712.78,955.72 v 28.87 m 69.64,43.31 V 999.03 L 759.22,984.59 736,999.03 m 23.22,-14.44 v -28.87 m 23.2,-14.18 23.22,14.18 23.22,-14.18 m -23.22,14.18 v 28.87 l 23.22,14.44 23.22,-14.44 v -28.87 m -23.22,43.31 v 28.87 m 46.68,0 v -28.87 l -23.46,-14.44 m -69.66,14.44 23.22,-14.44 M 712.78,609.8 689.56,595.64 m 0,-28.87 23.22,-14.44 m -23.22,360.34 23.22,-14.44 m -23.22,-72.18 23.22,-14.44 m 0,-28.87 -23.22,-14.16 m 116.08,14.16 -23.22,-14.16 M 573.22,782.74 550,768.58 m 162.77,187.13 -23.22,-14.18 m 185.97,57.49 23.22,-14.44 m 0,-201.84 -23.22,-14.16 M 921.96,509 898.74,523.45 m -185.97,0 L 689.55,509 M 805.63,523.45 782.41,509 M 1038.05,523.45 1014.83,509 M 619.66,523.45 596.44,509 M 15.53,4.56 V 33.43 L 38.75,47.87 61.97,33.43 V 4.56 m 0,28.87 23.46,14.44 23.22,-14.44 V 4.56 m -139.56,0 V 33.43 L -7.69,47.87 15.53,33.43 M -7.69,76.74 -30.91,90.92 v 28.87 l 23.22,14.44 23.22,-14.44 V 90.92 Z m 23.22,43.05 23.22,14.44 23.22,-14.44 V 90.92 L 38.75,76.74 15.53,90.92 m 46.44,28.87 23.46,14.44 23.22,-14.44 V 90.92 L 85.43,76.74 61.97,90.92 M -7.69,47.87 V 76.74 M 38.75,47.87 V 76.74 M 85.43,47.87 V 76.74 M -54.13,47.87 -30.91,33.43 m 0,57.49 -23.22,-14.18 m 0,144.1 23.22,-14.44 v -28.87 l -23.22,-14.44 m 0,-28.87 23.22,-14.44 m 69.66,43.31 -23.22,14.44 V 206.4 L 38.75,220.84 61.97,206.4 V 177.53 L 38.75,163.09 v -28.87 m 23.22,72.18 23.46,14.44 23.22,-14.44 V 177.53 L 85.43,163.09 61.97,177.53 m 23.46,-43.31 v 28.87 M -7.69,134.22 v 28.87 l 23.22,14.44 m 0,28.87 -23.22,14.44 v 28.87 l 23.22,14.16 23.22,-14.16 v -28.87 m 46.68,0 v 28.87 l 23.22,14.16 23.22,-14.16 V 220.84 L 108.65,206.4 M -7.69,163.09 -30.91,177.53 m 0,28.87 23.22,14.44 m 69.66,71.9 -23.22,14.44 v 28.87 l 23.22,14.44 23.46,-14.44 v -28.87 z m 23.46,-43.03 -23.46,14.16 v 28.87 m -69.66,-43.03 -23.22,14.16 v 28.87 l 23.22,14.44 23.22,-14.44 v -28.87 m 0,86.61 -23.22,-14.44 -23.22,14.44 v 28.87 l 23.22,14.44 23.22,-14.44 v -28.87 l 23.22,-14.44 m 23.22,14.44 v 28.87 l 23.46,14.44 23.22,-14.44 V 350.48 L 85.43,336.04 M -7.69,307.17 v 28.87 M 38.75,307.17 15.53,292.73 m -69.66,14.44 23.22,-14.44 m 0,57.74 -23.22,-14.44 m 0,144.08 23.22,-14.44 V 436.8 l -23.22,-14.16 m 116.1,14.16 v 28.87 l 23.46,14.44 23.22,-14.44 V 436.8 L 85.43,422.64 Z m 23.46,-43.03 v 28.87 M 61.97,379.33 38.75,393.77 v 28.87 L 61.97,436.8 M -7.69,393.77 v 28.87 l 23.22,14.16 23.22,-14.16 m -46.44,57.47 v 28.87 l 23.22,14.45 23.22,-14.45 V 480.11 L 15.53,465.67 Z m 93.12,0 v 28.87 l 23.22,14.45 23.22,-14.45 v -28.87 l -23.22,-14.44 m -69.9,14.44 23.22,-14.44 M 15.53,436.8 v 28.87 m 0,-86.34 23.22,14.44 m -46.44,28.87 -23.22,14.16 m 0,28.87 23.22,14.44 m -46.44,-86.34 23.22,-14.44 M 61.97,263.85 38.75,249.69 m -69.66,14.16 -23.22,-14.16 M 433.92,4.54 v 28.87 l 23.22,14.44 23.22,-14.44 M 387.5,4.54 v 28.87 l 23.2,14.44 23.22,-14.44 M 410.7,76.72 387.5,90.9 v 28.87 l 23.2,14.44 23.22,-14.44 V 90.9 L 410.7,76.72 V 47.85 M 480.36,90.9 457.14,76.72 433.92,90.9 M 457.14,76.72 V 47.85 M 341.06,4.54 V 33.41 L 364.28,47.85 387.5,33.41 M 294.38,4.54 v 28.87 l 23.46,14.44 23.22,-14.44 M 294.38,90.9 v 28.87 l 23.46,14.44 23.22,-14.44 V 90.9 L 317.84,76.72 294.38,90.9 271.16,76.72 247.94,90.9 M 387.5,90.9 364.28,76.72 341.06,90.9 M 317.84,47.85 v 28.87 m 46.44,-28.87 v 28.87 m 23.22,43.05 -23.22,14.44 v 28.87 l 23.22,14.44 23.2,-14.44 v -28.87 m -69.64,-14.44 23.22,14.44 m 0,28.87 -23.22,14.44 v 28.87 l 23.22,14.44 23.22,-14.44 v -28.87 m -93.12,-57.74 -23.22,14.44 v 28.87 l 23.22,14.44 23.46,-14.44 v -28.87 m 23.22,72.18 -23.22,14.44 v 28.87 l 23.22,14.16 23.22,-14.16 v -28.87 m -69.9,-43.31 v 28.87 l 23.46,14.44 m 23.22,-43.31 -23.22,-14.44 m 116.08,-43.31 23.22,14.44 23.22,-14.44 m -23.22,43.31 -23.22,14.44 v 28.87 l 23.22,14.44 23.22,-14.44 v -28.87 l -23.22,-14.44 v -28.87 m -46.44,28.87 23.22,14.44 m 0,28.87 -23.22,14.44 v 28.87 l 23.22,14.16 23.22,-14.16 v -28.87 m -46.44,0 -23.2,-14.44 M 247.94,4.56 v 28.87 l 23.22,14.44 23.22,-14.44 M 201.5,4.56 v 28.87 l 23.22,14.44 23.22,-14.44 M 201.5,90.92 v 28.87 l 23.22,14.44 23.22,-14.44 V 90.92 L 224.72,76.74 201.5,90.92 178.28,76.74 155.06,90.92 M 271.16,47.87 V 76.74 M 224.72,47.87 V 76.74 M 155.06,4.56 v 28.87 l 23.22,14.44 23.22,-14.44 m -92.86,0 23.22,14.44 23.2,-14.44 m -46.42,86.36 23.22,14.44 23.2,-14.44 V 90.92 L 131.86,76.74 108.64,90.92 M 178.28,47.87 V 76.74 M 131.86,47.87 v 28.87 m 23.2,43.05 23.22,14.44 23.22,-14.44 m -23.22,14.44 v 28.87 l 23.22,14.44 23.22,-14.44 v -28.87 m -46.44,28.87 -23.22,14.44 v 28.87 l 23.22,14.44 23.22,-14.44 v -28.87 m -92.86,0 23.22,-14.44 v -28.87 m 46.42,86.61 v 28.87 l 23.22,14.16 23.22,-14.16 V 220.84 L 201.5,206.4 m -46.44,-28.87 -23.2,-14.44 m 0,57.74 23.2,-14.44 m 92.88,-86.61 23.22,14.44 m 0,28.87 -23.22,14.44 v 28.87 l 23.22,14.44 23.22,-14.44 m -69.66,43.31 23.22,14.16 23.22,-14.16 v -28.87 m -46.44,-57.74 23.22,14.44 m -23.22,43.31 23.22,-14.44 m 0,57.47 v 28.87 l 23.22,14.44 23.22,-14.44 v -28.87 l -23.22,-14.16 m -69.66,14.16 v 28.87 l 23.22,14.44 23.22,-14.44 m -46.44,86.61 23.22,14.44 23.22,-14.44 v -28.87 l -23.22,-14.44 -23.22,14.44 v 28.87 l -23.22,14.44 v 28.87 m 69.66,-43.31 23.22,14.44 23.22,-14.44 v -28.87 l -23.22,-14.44 -23.22,14.44 m 23.22,-43.31 v 28.87 m -46.44,-28.87 v 28.87 m -46.44,-86.34 -23.22,14.16 v 28.87 l 23.22,14.44 23.22,-14.44 m -92.86,-28.87 v 28.87 l 23.22,14.44 23.2,-14.44 m -46.42,86.61 23.22,14.44 23.2,-14.44 v -28.87 l -23.2,-14.44 -23.22,14.44 m 92.86,0 -23.22,-14.44 -23.22,14.44 m -23.2,-43.31 v 28.87 m 46.42,-28.87 v 28.87 m -23.22,100.77 v 28.87 l 23.22,14.44 23.22,-14.44 v -28.87 l -23.22,-14.16 -23.22,14.16 -23.2,-14.16 -23.22,14.16 m 23.22,-43.03 v 28.87 m 46.42,57.47 v 28.87 l 23.22,14.45 23.22,-14.45 V 480.12 L 201.5,465.68 m -69.64,14.44 23.2,-14.44 m 116.1,-71.9 v 28.87 l 23.22,14.16 23.46,-14.16 v -28.87 l -23.46,-14.44 m -23.22,43.31 -23.22,14.16 v 28.87 l 23.22,14.44 23.22,-14.44 v -28.87 m -46.44,0 -23.22,-14.16 -23.22,14.16 m 23.22,-43.03 v 28.87 m 46.44,57.47 v 28.87 l 23.22,14.45 23.46,-14.45 v -28.87 l -23.46,-14.44 m -69.66,14.44 23.22,-14.44 m -92.88,-86.34 23.22,14.44 M 433.92,263.86 v 28.87 l 23.22,14.44 23.22,-14.44 m -46.44,0 -23.22,14.44 v 28.87 l 23.22,14.44 23.22,-14.44 v -28.87 m -46.44,28.87 -23.2,14.44 v 28.87 l 23.2,14.44 23.22,-14.44 v -28.87 m 46.44,0 -23.22,-14.44 M 341.06,263.86 v 28.87 l 23.22,14.44 23.22,-14.44 V 263.86 L 364.28,249.7 m -69.9,43.03 23.46,14.44 23.22,-14.44 m -23.22,101.05 23.22,-14.44 v -28.87 l -23.22,-14.44 -23.46,14.44 m 93.12,0 -23.22,-14.44 -23.22,14.44 m -23.22,-43.31 v 28.87 m 46.44,-28.87 v 28.87 m 23.22,43.31 -23.22,14.44 v 28.87 l 23.22,14.16 23.2,-14.16 v -28.87 m -46.42,28.87 -23.22,14.16 v 28.87 l 23.22,14.44 23.22,-14.44 v -28.87 m -23.22,43.31 v 28.87 l 23.22,14.45 23.2,-14.45 v -28.87 l -23.2,-14.44 m -46.44,-28.87 -23.22,-14.16 m 0,57.47 23.22,-14.44 m 116.08,-43.03 -23.22,14.16 v 28.87 l 23.22,14.44 23.22,-14.44 v -28.87 l -23.22,-14.16 v -28.87 l -23.22,-14.44 m 0,57.47 -23.22,-14.16 m 0,57.47 23.22,-14.44 m -23.22,43.31 23.22,14.45 23.22,-14.45 v -28.87 m 0,-86.34 23.22,-14.44 m -139.3,0 23.22,14.44 M 410.7,307.17 387.5,292.73 M 155.06,263.86 131.86,249.7 m 348.5,14.16 -23.22,-14.16 m -139.3,0 -23.46,14.16 M 410.7,249.7 387.5,263.86 m -302.07,43.31 23.22,-14.44 m 325.27,230.7 v 28.87 l 23.22,14.44 23.22,-14.44 m -46.44,0 -23.22,14.44 v 28.87 l 23.22,14.16 23.22,-14.16 v -28.87 m -46.44,28.87 -23.2,14.16 v 28.87 l 23.2,14.44 23.22,-14.44 v -28.87 m 46.44,0 -23.22,-14.16 M 387.5,523.43 v 28.87 l 23.2,14.44 m -23.2,-14.44 -23.22,14.44 v 28.87 l 23.22,14.16 m -23.22,-43.03 -23.22,-14.44 -23.22,14.44 v 28.87 l 23.22,14.16 23.22,-14.16 M 341.06,552.3 v -28.87 l -23.22,-14.45 m -23.46,14.45 v 28.87 l 23.46,14.44 m 0,28.87 -23.46,14.16 v 28.87 l 23.46,14.44 23.22,-14.44 v -28.87 m 0,86.61 v 28.87 l 23.22,14.44 23.22,-14.44 v -28.87 l -23.22,-14.44 -23.22,14.44 -23.22,-14.44 -23.46,14.44 v 28.87 l 23.46,14.44 23.22,-14.44 m 46.44,-86.61 -23.22,14.44 v 28.87 m -46.44,-28.87 v 28.87 m -23.46,43.31 -23.22,14.44 v 28.87 l 23.22,14.16 23.46,-14.16 V 739.7 m 46.44,0 v 28.87 l 23.22,14.16 23.2,-14.16 V 739.7 l -23.2,-14.44 m 69.64,-43.31 -23.22,14.44 v 28.87 l 23.22,14.44 23.22,-14.44 v -28.87 l -23.22,-14.44 v -28.87 l -23.22,-14.44 m -23.22,14.44 v 28.87 l 23.22,14.44 m -23.22,43.31 23.22,-14.44 m -23.22,43.31 23.22,14.16 23.22,-14.16 V 739.7 m -116.08,-101.05 23.22,14.44 m 46.42,28.87 -23.2,14.44 m 69.64,-43.31 23.22,-14.44 m -209.2,-129.66 -23.22,14.45 v 28.87 l 23.22,14.44 23.22,-14.44 M 201.5,523.44 v 28.87 l 23.22,14.44 23.22,-14.44 m -46.44,0 -23.22,14.44 v 28.87 l 23.22,14.16 23.22,-14.16 v -28.87 m -46.44,28.87 -23.22,14.16 v 28.87 l 23.22,14.44 23.22,-14.44 v -28.87 m 92.88,0 -23.22,-14.16 -23.22,14.16 v 28.87 l 23.22,14.44 23.22,-14.44 m -23.22,-71.9 v 28.87 m -46.44,0 23.22,14.16 m -69.66,-100.79 -23.22,14.45 v 28.87 l 23.22,14.44 m -69.64,-14.44 -23.22,14.44 v 28.87 l 23.22,14.16 23.22,-14.16 v -28.87 l -23.22,-14.44 v -28.87 m 0,86.34 v 28.87 l 23.22,14.44 23.2,-14.44 m 0,-28.87 -23.2,-14.16 m 0,-28.87 23.2,-14.44 m 0,144.08 v 28.87 l 23.22,14.44 23.22,-14.44 v -28.87 l -23.22,-14.44 z m 23.22,-43.31 v 28.87 m -46.42,-28.87 v 28.87 l 23.2,14.44 m -23.2,-14.44 -23.22,14.44 v 28.87 l 23.22,14.44 23.2,-14.44 m -46.42,0 -23.22,14.44 v 28.87 l 23.22,14.16 23.22,-14.16 V 739.7 m 46.42,0 v 28.87 l 23.22,14.16 23.22,-14.16 V 739.7 L 201.5,725.26 m 69.66,-72.18 v 28.87 l 23.22,14.44 m -23.22,-14.44 -23.22,14.44 v 28.87 l 23.22,14.44 m -23.22,-43.31 -23.22,-14.44 -23.22,14.44 m 46.44,-57.74 -23.22,14.44 v 28.87 m 0,57.74 23.22,-14.44 m -46.44,-86.61 23.22,14.44 M 201.5,782.73 v 28.87 l 23.22,14.44 23.22,-14.44 v -28.87 l -23.22,-14.16 m 23.22,43.03 23.22,14.44 23.22,-14.44 v -28.87 m -92.88,115.48 23.22,14.44 23.22,-14.44 V 869.34 L 224.72,854.9 201.5,869.34 Z m 46.44,0 23.22,14.44 23.22,-14.44 v -28.87 l -23.22,-14.44 -23.22,14.44 m 23.22,-43.31 V 854.9 M 224.72,826.03 V 854.9 M 108.64,782.72 v 28.87 l 23.22,14.44 23.2,-14.44 v -28.87 l -23.2,-14.16 m 23.2,43.03 23.22,14.44 23.22,-14.44 m -92.86,0 -23.22,14.44 v 28.87 l 23.22,14.44 23.22,-14.44 V 826.03 M 85.42,854.9 61.96,869.34 v 28.87 l 23.46,14.44 23.22,-14.44 v -28.87 m -23.22,43.31 v 28.87 l 23.22,14.18 23.22,-14.18 v -28.87 l -23.22,-14.44 m 92.86,-28.87 -23.22,-14.44 -23.22,14.44 v 28.87 l 23.22,14.44 23.22,-14.44 m -23.22,-72.18 v 28.87 m -46.42,57.74 23.2,-14.44 m 0,-28.87 -23.2,-14.44 m 23.2,100.79 v 28.87 l 23.22,14.44 23.22,-14.44 v -28.87 l -23.22,-14.18 -23.22,14.18 -23.2,-14.18 m -23.22,14.18 v 28.87 l 23.22,14.44 23.2,-14.44 m -23.2,14.44 v 28.87 m 46.42,-28.87 v 28.87 m 46.44,-115.23 v 28.87 l 23.22,14.18 23.22,-14.18 v -28.87 m -69.66,43.05 23.22,-14.18 m -23.22,43.05 23.22,14.44 23.22,-14.44 v -28.87 m -23.22,43.31 v 28.87 m 46.44,0 V 998.99 L 247.94,984.55 M 178.28,912.63 V 941.5 M 433.92,782.71 v 28.87 l 23.22,14.44 23.22,-14.44 M 387.5,782.71 v 28.87 l 23.2,14.44 23.22,-14.44 m -23.22,43.31 -23.2,14.44 v 28.87 l 23.2,14.44 23.22,-14.44 V 869.33 L 410.7,854.89 v -28.87 m 69.66,43.31 -23.22,-14.44 -23.22,14.44 m 0,28.87 23.22,14.44 23.22,-14.44 m -23.22,-43.31 v -28.87 m -92.86,-57.47 -23.22,14.16 v 28.87 l 23.22,14.44 23.22,-14.44 m -93.12,0 23.46,14.44 23.22,-14.44 m -46.68,86.61 23.46,14.44 23.22,-14.44 v -28.87 l -23.22,-14.44 -23.46,14.44 m 93.12,28.87 -23.22,14.44 v 28.87 l 23.22,14.18 23.2,-14.18 v -28.87 m -23.2,-43.31 -23.22,-14.44 -23.22,14.44 m 23.22,43.31 -23.22,-14.44 m -23.22,-43.31 v -28.87 m 46.44,0 v 28.87 m -46.44,57.74 v 28.87 l 23.22,14.18 23.22,-14.18 m -93.12,0 23.22,14.18 23.46,-14.18 m -23.46,14.18 v 28.87 l 23.46,14.44 23.22,-14.44 v -28.87 m -23.22,43.31 v 28.87 m 92.86,0 v -28.87 l -23.2,-14.44 -23.22,14.44 v 28.87 m 0,-28.87 -23.22,-14.44 m 46.44,-28.87 v 28.87 m 69.64,-43.05 -23.22,14.18 v 28.87 l 23.22,14.44 23.22,-14.44 v -28.87 l -23.22,-14.18 v -28.87 m -46.44,28.87 23.22,14.18 m 0,28.87 -23.22,14.44 m 46.44,28.87 v -28.87 m -185.97,0 23.22,-14.44 m -116.1,-216 -23.22,14.16 m 116.1,-14.16 -23.22,14.16 m 93.12,0 -23.22,-14.16 M 480.37,782.7 457.15,768.54 M 15.54,523.42 v 28.87 l 23.22,14.44 23.22,-14.44 V 523.42 L 38.76,508.97 m 23.22,43.32 23.46,14.44 M -7.68,508.97 -30.9,523.42 v 28.87 l 23.22,14.44 23.22,-14.44 m 0,57.47 -23.22,-14.16 -23.22,14.16 v 28.87 l 23.22,14.44 23.22,-14.44 z m 0,28.87 23.22,14.44 23.22,-14.44 V 609.76 L 38.76,595.6 15.54,609.76 M 85.44,595.6 61.98,609.76 M -7.68,566.73 v 28.87 m 46.44,0 v -28.87 m -92.88,0 23.22,-14.44 m 0,57.47 -23.22,-14.16 m 0,144.08 23.22,-14.44 v -28.87 l -23.22,-14.44 m 92.88,-28.87 v 28.87 l 23.22,14.44 23.46,-14.44 V 653.06 L 61.98,638.62 m -69.66,14.44 v 28.87 l 23.22,14.44 23.22,-14.44 M -7.68,768.54 15.54,782.7 38.76,768.54 V 739.67 L 15.54,725.23 -7.68,739.67 v 28.87 L -30.9,782.7 m 69.66,-43.03 23.22,-14.44 v -28.87 m 0,28.87 23.46,14.44 m -69.9,-43.31 v 28.87 m -69.66,-72.18 23.22,-14.44 m 23.22,43.31 -23.22,14.44 m 0,28.87 23.22,14.44 m 23.22,43.03 v 28.87 l 23.22,14.44 23.22,-14.44 V 782.7 L 38.76,768.54 m 23.22,43.03 23.46,14.44 m -69.9,-14.44 -23.22,14.44 v 28.87 l 23.22,14.44 23.22,-14.44 v -28.87 m -46.44,28.87 -23.22,14.44 v 28.87 l 23.22,14.44 23.22,-14.44 v -28.87 m 0,28.87 23.22,14.44 23.22,-14.44 m 0,-28.87 -23.22,-14.44 M -54.12,826.01 -30.9,811.57 V 782.7 l -23.22,-14.16 m 0,144.08 23.22,-14.44 m 0,-28.87 -23.22,-14.44 m 0,144.1 23.22,-14.44 v -28.87 l -23.22,-14.18 m 139.56,0 -23.46,14.18 v 28.87 l 23.46,14.44 23.22,-14.44 M 61.98,955.66 38.76,941.48 15.54,955.66 v 28.87 l 23.22,14.44 23.22,-14.44 M -7.68,912.61 v 28.87 l 23.22,14.18 m 0,28.87 -23.22,14.44 v 28.87 m 93.12,0 v -28.87 m -46.68,28.87 v -28.87 m 0,-57.49 V 912.61 M -30.9,811.56 -7.68,826 m 0,115.48 -23.22,14.18 m 0,28.87 23.22,14.44 M 85.44,768.53 61.98,782.69 m 46.68,-86.34 -23.22,-14.44 m 0,-28.87 23.22,-14.44 m 46.42,-115.21 -23.2,-14.45 m -162.77,14.45 -23.22,-14.45 m 139.56,0 -23.46,14.45 m 302.31,-14.45 -23.22,14.45 m -116.34,-14.45 23.22,14.45 m 232.41,0 -23.22,-14.45 m 23.22,-302.6 23.22,14.44 m 0,-57.74 -23.22,14.44 m 0,547.75 23.22,14.44 m 0,-57.74 -23.22,14.44 m 23.22,245.12 -23.22,14.18 m 0,28.87 23.22,14.44 m -23.22,-533.33 23.22,14.44 m 0,-57.47 -23.22,14.16"
       clip-path="url(#a)"
       fill="none"
       stroke="#989898"
       stroke-linecap="square"
       stroke-miterlimit="1"
       stroke-width="2.0228" />
    <circle
       cx="512"
       cy="512"
       style="fill:none;stroke:#e5e5e5;stroke-width:99"
       id="ellipse14"
       r="460" />
    <circle
       cx="512"
       cy="512"
       style="fill:#e5e5e5;stroke:#e5e5e5;stroke-width:76"
       id="ellipse16"
       r="270" />
    <circle
       cy="512"
       cx="512"
       style="fill:none;stroke:#009252;stroke-width:12"
       id="ellipse18"
       r="410" />
    <path
       d="M 512,636 V 71 L 182,636 Z"
       fill="#000000"
       id="path20" />
    <path
       d="M 512,388 V 953 L 842,388 Z"
       fill="#000000"
       id="path22" />
    <path
       id="lidarr-honeycomb-b"
       d="M 852.12,33.49 875.58,47.93 898.8,33.49 V 4.62 L 875.58,-9.82 852.12,4.62 Z M 805.68,4.62 782.46,-9.82 759.26,4.62 v 28.87 l 23.2,14.44 23.22,-14.44 V 4.62 L 828.9,-9.82 852.12,4.62 m -46.44,28.87 23.22,14.44 23.22,-14.44 m -46.44,57.49 v 28.87 l 23.22,14.44 23.22,-14.44 V 90.98 L 828.9,76.8 805.68,90.98 782.46,76.8 759.26,90.98 m 92.86,28.87 23.46,14.44 23.22,-14.44 V 90.98 L 875.58,76.8 852.12,90.98 M 875.58,47.93 V 76.8 M 828.9,47.93 V 76.8 m 69.9,-72.18 23.22,-14.44 23.22,14.44 23.22,-14.44 23.22,14.44 23.2,-14.44 23.22,14.44 v 28.87 l 23.22,14.44 V 76.8 l -23.22,14.18 v 28.87 l 23.22,14.44 v 28.87 l -23.22,14.44 v 28.87 l 23.22,14.44 v 28.87 l -23.22,14.16 v 28.87 l 23.22,14.44 v 28.87 l -23.22,14.44 v 28.87 l 23.22,14.44 v 28.87 l -23.22,14.16 v 28.87 l 23.22,14.44 v 28.87 l -23.22,14.45 v 28.87 l 23.22,14.44 v 28.87 l -23.22,14.16 v 28.87 l 23.22,14.44 v 28.87 l -23.22,14.44 v 28.87 l 23.22,14.44 v 28.87 l -23.22,14.16 v 28.87 l 23.22,14.44 v 28.87 l -23.22,14.44 v 28.87 l 23.22,14.44 v 28.87 l -23.22,14.18 v 28.87 l 23.22,14.44 v 28.87 l -23.22,14.44 -23.22,-14.44 -23.2,14.44 -23.22,-14.44 -23.22,14.44 -23.22,-14.44 -23.22,14.44 -23.22,-14.44 -23.46,14.44 -23.22,-14.44 -23.22,14.44 -23.22,-14.44 -23.2,14.44 -23.22,-14.44 -23.22,14.44 -23.22,-14.44 -23.22,14.44 -23.22,-14.44 -23.46,14.44 -23.22,-14.44 -23.22,14.44 -23.22,-14.44 -23.2,14.44 -23.22,-14.44 -23.22,14.44 -23.22,-14.44 -23.22,14.44 -23.22,-14.44 -23.2,14.44 -23.22,-14.44 -23.22,14.44 -23.22,-14.44 -23.46,14.44 -23.22,-14.44 -23.22,14.44 -23.22,-14.44 -23.22,14.44 -23.22,-14.44 -23.22,14.44 -23.2,-14.44 -23.22,14.44 -23.22,-14.44 -23.46,14.44 -23.22,-14.44 -23.22,14.44 -23.22,-14.44 -23.22,14.44 -23.22,-14.44 V 999.12 L -77.32,984.68 V 955.81 L -54.1,941.63 V 912.76 L -77.32,898.32 V 869.45 L -54.1,855.01 V 826.14 L -77.32,811.7 V 782.83 L -54.1,768.67 V 739.8 L -77.32,725.36 V 696.49 L -54.1,682.05 V 653.18 L -77.32,638.74 V 609.87 L -54.1,595.71 V 566.84 L -77.32,552.4 V 523.53 L -54.1,509.08 V 480.21 L -77.32,465.77 V 436.9 L -54.1,422.74 V 393.87 L -77.32,379.43 V 350.56 L -54.1,336.12 V 307.25 L -77.32,292.81 V 263.94 L -54.1,249.78 V 220.91 L -77.32,206.47 V 177.6 L -54.1,163.16 V 134.29 L -77.32,119.85 V 90.98 L -54.1,76.8 V 47.93 L -77.32,33.49 V 4.62 L -54.1,-9.82 -30.88,4.62 -7.66,-9.82 15.56,4.62 38.78,-9.82 62,4.62 85.46,-9.82 108.68,4.62 131.9,-9.82 155.1,4.62 178.32,-9.82 201.54,4.62 224.76,-9.82 247.98,4.62 271.2,-9.82 294.42,4.62 317.88,-9.82 341.1,4.62 364.32,-9.82 387.54,4.62 410.74,-9.82 433.96,4.62 457.18,-9.82 480.4,4.62 503.62,-9.82 526.84,4.62 550.04,-9.82 573.26,4.62 596.48,-9.82 619.7,4.62 643.16,-9.82 666.38,4.62 689.6,-9.82 712.82,4.62 736.04,-9.82 759.26,4.62 m -46.44,0 v 28.87 l 23.22,14.44 23.22,-14.44 m -46.44,57.49 v 28.87 l 23.22,14.44 23.22,-14.44 V 90.98 L 736.04,76.8 712.82,90.98 689.6,76.8 666.38,90.98 M 782.46,47.93 V 76.8 M 736.04,47.93 V 76.8 m 23.22,100.79 v 28.87 l 23.2,14.44 23.22,-14.44 v -28.87 l -23.22,-14.44 -23.2,14.44 -23.22,-14.44 -23.22,14.44 v 28.87 l 23.22,14.44 23.22,-14.44 m 46.42,-86.61 -23.22,14.44 v 28.87 m -23.2,-43.31 23.2,14.44 m -46.42,0 v 28.87 m 0,57.74 v 28.87 l 23.22,14.16 23.2,-14.16 V 220.9 m 46.44,-86.61 v 28.87 l 23.22,14.44 23.46,-14.44 v -28.87 m -46.68,28.87 -23.22,14.44 m -23.22,72.18 23.22,14.16 23.22,-14.16 v -28.87 l -23.22,-14.44 m 46.44,-28.87 v 28.87 l 23.46,14.44 23.22,-14.44 V 177.6 l -23.22,-14.44 m 0,57.74 v 28.87 l 23.22,14.16 23.22,-14.16 V 220.9 L 898.8,206.46 m -69.9,14.44 23.22,-14.44 M 666.38,4.62 V 33.49 L 689.6,47.93 712.82,33.49 M 573.26,4.62 V 33.49 L 596.48,47.93 619.7,33.49 V 4.62 m 0,28.87 23.46,14.44 23.22,-14.44 M 619.7,90.98 v 28.87 l 23.46,14.44 23.22,-14.44 V 90.98 L 643.16,76.8 619.7,90.98 596.48,76.8 573.26,90.98 v 28.87 l 23.22,14.44 23.22,-14.44 M 596.48,47.93 V 76.8 M 689.6,47.93 V 76.8 M 643.16,47.93 V 76.8 M 526.84,4.62 v 28.87 l 23.2,14.44 23.22,-14.44 M 480.4,4.62 v 28.87 l 23.22,14.44 23.22,-14.44 M 503.62,76.8 480.4,90.98 v 28.87 l 23.22,14.44 23.22,-14.44 V 90.98 Z M 573.26,90.98 550.04,76.8 526.84,90.98 M 503.62,47.93 V 76.8 M 550.04,47.93 V 76.8 m 23.22,43.05 -23.22,14.44 v 28.87 l 23.22,14.44 23.22,-14.44 v -28.87 m -92.86,0 v 28.87 l 23.22,14.44 23.2,-14.44 m -46.42,86.61 23.22,14.16 23.2,-14.16 V 220.9 l -23.2,-14.44 -23.22,14.44 v 28.87 l -23.22,14.16 v 28.87 l 23.22,14.44 23.22,-14.44 v -28.87 m 23.2,-43.03 23.22,-14.44 v -28.87 m -46.42,-57.74 23.2,14.44 m -23.2,72.18 V 177.6 m 116.32,-43.31 v 28.87 l 23.22,14.44 23.22,-14.44 v -28.87 l -23.22,-14.44 m -93.12,86.61 23.22,14.44 23.22,-14.44 v -28.87 l -23.22,-14.44 m 46.68,0 -23.46,14.44 m 23.46,72.18 23.22,14.16 23.22,-14.16 V 220.9 l -23.22,-14.44 -23.22,14.44 v 28.87 l -23.46,14.16 v 28.87 l -23.22,14.44 v 28.87 l 23.22,14.44 23.46,-14.44 V 307.24 L 619.7,292.8 m -69.66,-43.03 23.22,14.16 23.22,-14.16 V 220.9 m 23.22,-14.44 23.46,14.44 m 23.22,-14.44 v -28.87 m 0,86.34 v 28.87 l 23.22,14.44 23.22,-14.44 V 263.93 L 689.6,249.77 m -69.9,100.77 v 28.87 l 23.46,14.44 23.22,-14.44 V 350.54 L 643.16,336.1 m 23.22,43.31 23.22,14.44 23.22,-14.44 V 350.54 L 689.6,336.1 666.38,350.54 m -23.22,-43.31 23.22,-14.44 m 23.22,14.44 v 28.87 m -93.12,-28.87 -23.22,-14.44 -23.22,14.44 v 28.87 l 23.22,14.44 23.22,-14.44 m -23.22,-43.31 v -28.87 m -69.64,72.18 -23.22,14.44 v 28.87 l 23.22,14.44 23.22,-14.44 v -28.87 z m 23.22,43.31 23.2,14.44 23.22,-14.44 v -28.87 m -69.64,-43.31 v 28.87 m 46.42,0 -23.2,14.44 m 0,-57.74 23.2,14.44 m 0,115.48 -23.2,14.16 v 28.87 l 23.2,14.44 23.22,-14.44 v -28.87 z m 0,-28.87 v 28.87 m -46.42,-28.87 v 28.87 l 23.22,14.16 m 0,28.87 -23.22,14.44 v 28.87 l 23.22,14.45 23.2,-14.45 v -28.87 m 116.34,-43.31 v 28.87 l 23.22,14.44 23.22,-14.44 V 436.88 L 689.6,422.72 Z m 23.22,-43.03 v 28.87 m -69.9,-43.31 -23.22,14.44 v 28.87 l 23.22,14.16 23.46,-14.16 v -28.87 m -69.9,71.9 23.22,14.44 23.22,-14.44 v -28.87 m 46.68,28.87 -23.22,14.44 v 28.87 l 23.22,14.45 23.22,-14.45 v -28.87 m -139.56,28.87 23.22,14.45 23.22,-14.45 v -28.87 m 23.22,-14.44 23.46,14.44 m 0,-57.47 23.22,14.16 m -93.12,-57.47 23.22,14.44 m 0,28.87 -23.22,14.16 m 302.31,-187.11 -23.46,14.16 v 28.87 l 23.46,14.44 23.22,-14.44 v -28.87 m -93.12,0 v 28.87 l 23.22,14.44 23.22,-14.44 m -46.44,86.61 23.22,14.44 23.22,-14.44 v -28.87 l -23.22,-14.44 -23.22,14.44 v 28.87 l -23.22,14.44 v 28.87 m 69.66,-43.31 23.46,14.44 23.22,-14.44 v -28.87 l -23.22,-14.44 -23.46,14.44 m 23.46,-43.31 v 28.87 m -46.68,-28.87 v 28.87 m -69.64,-72.18 v 28.87 l 23.2,14.44 23.22,-14.44 m -92.86,0 23.22,14.44 23.22,-14.44 m -46.44,86.61 23.22,14.44 23.22,-14.44 v -28.87 l -23.22,-14.44 -23.22,14.44 m 92.86,0 -23.22,-14.44 -23.2,14.44 m 23.2,-43.31 v 28.87 m -46.42,-28.87 v 28.87 m 23.22,100.77 v 28.87 l 23.2,14.44 23.22,-14.44 v -28.87 l -23.22,-14.16 -23.2,14.16 -23.22,-14.16 -23.22,14.16 m 23.22,-43.03 v 28.87 m 23.22,43.03 -23.22,14.44 v 28.87 l 23.22,14.45 23.2,-14.45 v -28.87 m -69.64,-14.44 23.22,14.44 M 875.56,393.83 V 422.7 L 898.78,436.86 922,422.7 v -28.87 l -23.22,-14.44 m -23.22,43.31 -23.46,14.16 v 28.87 l 23.46,14.44 23.22,-14.44 v -28.87 m -69.9,-43.03 v 28.87 l 23.22,14.16 m -23.22,-14.16 -23.22,14.16 m 46.44,28.87 -23.22,14.44 v 28.87 l 23.22,14.45 23.46,-14.45 v -28.87 m -69.9,-14.44 23.22,14.44 m -69.64,-100.77 23.2,14.44 M 712.8,177.58 689.58,163.14 m 0,57.74 23.22,-14.44 M 689.58,134.26 712.8,119.82 M 828.88,249.74 852.1,263.9 M 736.02,249.74 712.8,263.9 m -93.12,0 -23.22,-14.16 M 1014.85,47.9 991.65,33.46 968.43,47.9 v 28.87 l 23.22,14.18 23.2,-14.18 V 47.9 l 23.22,-14.44 m 0,57.49 -23.22,-14.18 M 991.65,4.59 v 28.87 m -92.88,0 23.22,14.44 23.22,-14.44 V 4.59 m -46.44,115.23 23.22,14.44 23.22,-14.44 V 90.95 L 921.99,76.77 898.77,90.95 m 46.44,0 23.22,-14.18 M 921.99,47.9 v 28.87 m 23.22,-43.31 23.22,14.44 m 0,86.36 v 28.87 l 23.22,14.44 23.2,-14.44 v -28.87 l -23.2,-14.44 -23.22,14.44 -23.22,-14.44 m -23.22,101.05 23.22,-14.44 v -28.87 l -23.22,-14.44 -23.22,14.44 m 23.22,-43.31 v 28.87 m 46.44,57.74 v 28.87 l 23.22,14.16 23.2,-14.16 v -28.87 l -23.2,-14.44 -23.22,14.44 -23.22,-14.44 m 46.44,-28.87 v 28.87 m -46.44,-28.87 23.22,-14.44 m 69.64,14.44 -23.22,-14.44 m 0,-28.87 23.22,-14.44 m -23.22,101.05 23.22,-14.44 M 991.65,90.93 v 28.87 m 0,144.08 v 28.87 l 23.2,14.44 23.22,-14.44 m -46.42,0 -23.22,14.44 v 28.87 l 23.22,14.44 23.2,-14.44 v -28.87 m 23.22,43.31 -23.22,-14.44 m -116.08,-43.31 23.22,14.44 23.22,-14.44 v -28.87 l -23.22,-14.16 m 0,144.08 23.22,-14.44 v -28.87 l -23.22,-14.44 -23.22,14.44 m 92.88,0 v 28.87 l 23.2,14.44 23.22,-14.44 m -92.86,-28.87 23.22,-14.44 m -46.44,-28.87 v 28.87 m 23.22,-43.31 23.22,14.44 m -46.44,115.48 23.22,14.16 23.22,-14.16 v -28.87 l -23.22,-14.44 m 0,57.47 v 28.87 l 23.22,14.44 23.22,-14.44 v -28.87 l -23.22,-14.16 m -69.66,43.03 23.22,14.44 23.22,-14.44 m -23.22,14.44 V 509 l 23.22,14.45 23.22,-14.45 v -28.87 m 23.22,-43.31 23.2,-14.16 v -28.87 m 23.22,43.03 -23.22,-14.16 m -23.2,43.03 23.2,14.44 23.22,-14.44 m -69.64,43.31 23.22,14.45 23.2,-14.45 v -28.87 m -46.42,-86.34 23.22,-14.44 m 46.42,-115.48 -23.22,-14.16 m -69.64,14.16 23.22,-14.16 m 46.42,317.04 -23.2,-14.44 -23.22,14.44 v 28.87 l 23.22,14.16 23.2,-14.16 v -28.87 l 23.22,-14.44 m 0,57.47 -23.22,-14.16 m -23.2,-72.18 v 28.87 m -46.44,-28.87 v 28.87 l 23.22,14.44 m -69.66,-14.44 -23.22,14.44 v 28.87 l 23.22,14.16 23.22,-14.16 v -28.87 l -23.22,-14.44 v -28.87 l -23.22,-14.45 m 69.66,43.32 -23.22,14.44 m 46.44,28.87 -23.22,14.16 v 28.87 l 23.22,14.44 23.22,-14.44 v -28.87 m -116.1,-14.16 -23.46,14.16 v 28.87 l 23.46,14.44 23.22,-14.44 v -28.87 m 23.22,-14.16 23.22,14.16 m 23.22,72.18 -23.22,14.44 v 28.87 l 23.22,14.44 23.22,-14.44 V 696.4 Z m 0,-28.87 v 28.87 m -23.22,-43.31 -23.22,14.44 v 28.87 l 23.22,14.44 m -23.22,-14.44 -23.22,14.44 v 28.87 l 23.22,14.44 23.22,-14.44 m -23.22,14.44 v 28.87 l 23.22,14.16 23.22,-14.16 v -28.87 m 23.22,-43.31 23.2,-14.44 v -28.87 l -23.2,-14.44 m 46.42,57.74 -23.22,-14.44 m -46.42,86.61 23.22,14.16 23.2,-14.16 v -28.87 l -23.2,-14.44 m 23.2,14.44 23.22,-14.44 m -139.3,-86.61 23.22,14.44 m 92.86,0 23.22,-14.44 m -46.42,144.08 v 28.87 l 23.2,14.44 23.22,-14.44 m 0,57.74 -23.22,-14.44 -23.2,14.44 v 28.87 l 23.2,14.44 23.22,-14.44 m -23.22,-43.31 v -28.87 m -23.2,-14.44 -23.22,14.44 v 28.87 l 23.22,14.44 m -69.66,-100.77 -23.22,14.16 v 28.87 l 23.22,14.44 23.22,-14.44 v -28.87 m -23.22,129.92 23.22,-14.44 v -28.87 l -23.22,-14.44 -23.22,14.44 v 28.87 l 23.22,14.44 v 28.87 l 23.22,14.18 23.22,-14.18 m -23.22,-43.31 23.22,14.44 23.22,-14.44 m -23.22,-43.31 -23.22,14.44 m 0,-57.74 23.22,14.44 m -46.44,0 v 28.87 m 46.44,57.74 v 28.87 l 23.22,14.18 23.2,-14.18 V 912.64 M 898.77,898.2 875.55,912.64 v 28.87 l 23.22,14.18 23.22,-14.18 m -23.22,14.18 v 28.87 L 921.99,999 945.21,984.56 V 955.69 M 921.99,999 v 28.87 m 92.86,0 V 999 L 991.65,984.56 968.43,999 v 28.87 m 23.22,-72.18 v 28.87 M 968.43,999 945.21,984.56 m 92.86,-28.87 -23.22,-14.18 m 0,57.49 23.22,-14.44 m 0,-201.84 -23.22,-14.16 M 852.09,523.44 v 28.87 l 23.46,14.44 m -46.68,-57.76 -23.22,14.45 v 28.87 l 23.22,14.44 23.22,-14.44 m 0,57.47 -23.22,-14.16 -23.22,14.16 v 28.87 l 23.22,14.44 23.22,-14.44 m -23.22,-43.03 v -28.87 m -69.64,-43.31 v 28.87 l 23.2,14.44 23.22,-14.44 m -69.64,-43.32 -23.22,14.45 v 28.87 l 23.22,14.44 23.22,-14.44 m -46.44,86.34 23.22,14.44 23.22,-14.44 v -28.87 l -23.22,-14.16 -23.22,14.16 v 28.87 l -23.22,14.44 v 28.87 m 69.66,-72.18 23.2,-14.16 v -28.87 m -46.42,0 v 28.87 m 23.22,100.77 v 28.87 l 23.2,14.44 23.22,-14.44 v -28.87 l -23.22,-14.44 z m 46.42,-57.74 -23.22,14.44 v 28.87 m -46.42,-28.87 v 28.87 l 23.22,14.44 m -23.22,-14.44 -23.22,14.44 v 28.87 l 23.22,14.44 23.22,-14.44 m -23.22,14.44 v 28.87 l 23.22,14.16 23.2,-14.16 v -28.87 m 93.12,-86.61 v 28.87 l 23.22,14.44 m -23.22,-14.44 -23.46,14.44 v 28.87 l 23.46,14.44 23.22,-14.44 m -93.12,-28.87 23.22,-14.44 V 653.1 m 23.22,72.18 -23.22,14.44 v 28.87 l 23.22,14.16 23.46,-14.16 v -28.87 m -69.9,-14.44 23.22,14.44 m 23.22,-43.31 -23.22,-14.44 m -69.64,-43.31 23.2,14.44 m 0,-57.47 23.22,14.16 M 643.13,509 619.67,523.45 v 28.87 l 23.46,14.44 23.22,-14.44 v -28.87 m -23.22,43.31 v 28.87 l 23.22,14.16 23.22,-14.16 v -28.87 l -23.22,-14.44 m -93.12,-28.87 v 28.87 l 23.22,14.44 23.22,-14.44 m 23.46,43.31 -23.46,14.16 v 28.87 l 23.46,14.44 23.22,-14.44 v -28.87 m -46.68,0 -23.22,-14.16 -23.22,14.16 v 28.87 l 23.22,14.44 23.22,-14.44 m -23.22,-43.03 v -28.87 m -23.22,-14.44 -23.22,14.44 v 28.87 l 23.22,14.16 M 503.59,509 480.37,523.45 v 28.87 l 23.22,14.44 23.22,-14.44 v -28.87 m 0,86.34 -23.22,-14.16 -23.22,14.16 v 28.87 l 23.22,14.44 23.22,-14.44 v -28.87 l 23.2,-14.16 m 0,-28.87 -23.2,-14.44 m -23.22,14.44 v 28.87 m 46.42,86.34 -23.2,14.44 v 28.87 l 23.2,14.44 23.22,-14.44 v -28.87 z m 23.22,-43.31 -23.22,14.44 v 28.87 M 503.59,653.1 v 28.87 l 23.22,14.44 m 0,28.87 -23.22,14.44 v 28.87 l 23.22,14.16 23.2,-14.16 v -28.87 m 162.77,-43.31 -23.22,-14.44 -23.22,14.44 v 28.87 l 23.22,14.44 23.22,-14.44 M 596.44,653.1 v 28.87 l 23.22,14.44 23.46,-14.44 V 653.1 m -46.68,115.48 23.22,14.16 23.46,-14.16 v -28.87 l -23.46,-14.44 -23.22,14.44 v 28.87 l -23.22,14.16 v 28.87 l 23.22,14.44 23.22,-14.44 m 23.46,-43.03 23.22,14.16 23.22,-14.16 v -28.87 m -46.44,0 23.22,-14.44 M 619.66,696.4 v 28.87 m 46.68,-28.87 -23.22,-14.44 m 23.22,-43.31 23.22,14.44 m -93.12,28.87 -23.22,14.44 m 0,28.87 23.22,14.44 M 526.8,638.66 550,653.1 m 116.34,158.52 -23.22,14.44 v 28.87 l 23.22,14.44 23.22,-14.44 v -28.87 l -23.22,-14.44 v -28.87 m -46.68,0 v 28.87 l 23.46,14.44 m 0,28.87 -23.46,14.44 v 28.87 l 23.46,14.44 23.22,-14.44 v -28.87 m -46.68,0 -23.22,-14.44 -23.22,14.44 v 28.87 l 23.22,14.44 23.22,-14.44 m 23.46,14.44 v 28.87 l 23.22,14.18 23.22,-14.18 v -28.87 l -23.22,-14.44 m -69.9,-43.31 V 826.06 M 526.8,782.75 v 28.87 l 23.2,14.44 23.22,-14.44 m -69.64,-43.03 -23.22,14.16 v 28.87 l 23.22,14.44 23.22,-14.44 m -23.22,43.31 -23.22,14.44 v 28.87 l 23.22,14.44 23.22,-14.44 v -28.87 z m 69.64,43.31 -23.22,14.44 v 28.87 l 23.22,14.18 23.22,-14.18 V 912.68 M 550,826.07 v 28.87 l 23.22,14.44 m -69.64,-43.31 v 28.87 m 23.22,14.44 23.2,-14.44 m 0,57.74 -23.2,-14.44 m -23.22,14.44 v 28.87 l 23.22,14.18 23.2,-14.18 m 0,86.36 v -28.87 l -23.2,-14.44 -23.22,14.44 v 28.87 m 92.86,0 V 999.04 L 573.22,984.6 550,999.04 M 526.8,984.6 v -28.87 m 46.42,28.87 v -28.87 m 23.22,43.31 23.22,-14.44 v -28.87 l -23.22,-14.18 m 46.68,0 -23.46,14.18 m 23.46,72.18 V 999.04 L 619.66,984.6 M 736,1027.91 v -28.87 l -23.22,-14.44 -23.22,14.44 v 28.87 m -23.22,-72.18 v 28.87 l 23.22,14.44 m -46.44,0 23.22,-14.44 M 852.08,782.76 v 28.87 l 23.46,14.44 23.22,-14.44 m -69.9,-43.03 -23.22,14.16 v 28.87 l 23.22,14.44 23.22,-14.44 m -23.22,101.05 23.22,-14.44 v -28.87 l -23.22,-14.44 -23.22,14.44 v 28.87 l 23.22,14.44 v 28.87 l 23.22,14.18 23.46,-14.18 m 23.22,-72.18 -23.22,-14.44 -23.46,14.44 m 0,28.87 23.46,14.44 m 0,-57.74 v -28.87 m -46.68,0 v 28.87 m -69.64,-72.18 v 28.87 l 23.2,14.44 23.22,-14.44 M 736,768.6 712.78,782.76 v 28.87 l 23.22,14.44 23.22,-14.44 m -46.44,57.74 v 28.87 L 736,912.68 759.22,898.24 V 869.37 L 736,854.93 712.78,869.37 689.56,854.93 m 116.08,14.44 -23.22,-14.44 -23.2,14.44 m 0,28.87 23.2,14.44 23.22,-14.44 m -23.22,-72.18 v 28.87 M 736,826.06 v 28.87 m 0,57.74 v 28.87 l 23.22,14.18 23.2,-14.18 V 912.67 M 736,941.54 712.78,955.72 v 28.87 m 69.64,43.31 V 999.03 L 759.22,984.59 736,999.03 m 23.22,-14.44 v -28.87 m 23.2,-14.18 23.22,14.18 23.22,-14.18 m -23.22,14.18 v 28.87 l 23.22,14.44 23.22,-14.44 v -28.87 m -23.22,43.31 v 28.87 m 46.68,0 v -28.87 l -23.46,-14.44 m -69.66,14.44 23.22,-14.44 M 712.78,609.8 689.56,595.64 m 0,-28.87 23.22,-14.44 m -23.22,360.34 23.22,-14.44 m -23.22,-72.18 23.22,-14.44 m 0,-28.87 -23.22,-14.16 m 116.08,14.16 -23.22,-14.16 M 573.22,782.74 550,768.58 m 162.77,187.13 -23.22,-14.18 m 185.97,57.49 23.22,-14.44 m 0,-201.84 -23.22,-14.16 M 921.96,509 898.74,523.45 m -185.97,0 L 689.55,509 M 805.63,523.45 782.41,509 M 1038.05,523.45 1014.83,509 M 619.66,523.45 596.44,509 M 15.53,4.56 V 33.43 L 38.75,47.87 61.97,33.43 V 4.56 m 0,28.87 23.46,14.44 23.22,-14.44 V 4.56 m -139.56,0 V 33.43 L -7.69,47.87 15.53,33.43 M -7.69,76.74 -30.91,90.92 v 28.87 l 23.22,14.44 23.22,-14.44 V 90.92 Z m 23.22,43.05 23.22,14.44 23.22,-14.44 V 90.92 L 38.75,76.74 15.53,90.92 m 46.44,28.87 23.46,14.44 23.22,-14.44 V 90.92 L 85.43,76.74 61.97,90.92 M -7.69,47.87 V 76.74 M 38.75,47.87 V 76.74 M 85.43,47.87 V 76.74 M -54.13,47.87 -30.91,33.43 m 0,57.49 -23.22,-14.18 m 0,144.1 23.22,-14.44 v -28.87 l -23.22,-14.44 m 0,-28.87 23.22,-14.44 m 69.66,43.31 -23.22,14.44 V 206.4 L 38.75,220.84 61.97,206.4 V 177.53 L 38.75,163.09 v -28.87 m 23.22,72.18 23.46,14.44 23.22,-14.44 V 177.53 L 85.43,163.09 61.97,177.53 m 23.46,-43.31 v 28.87 M -7.69,134.22 v 28.87 l 23.22,14.44 m 0,28.87 -23.22,14.44 v 28.87 l 23.22,14.16 23.22,-14.16 v -28.87 m 46.68,0 v 28.87 l 23.22,14.16 23.22,-14.16 V 220.84 L 108.65,206.4 M -7.69,163.09 -30.91,177.53 m 0,28.87 23.22,14.44 m 69.66,71.9 -23.22,14.44 v 28.87 l 23.22,14.44 23.46,-14.44 v -28.87 z m 23.46,-43.03 -23.46,14.16 v 28.87 m -69.66,-43.03 -23.22,14.16 v 28.87 l 23.22,14.44 23.22,-14.44 v -28.87 m 0,86.61 -23.22,-14.44 -23.22,14.44 v 28.87 l 23.22,14.44 23.22,-14.44 v -28.87 l 23.22,-14.44 m 23.22,14.44 v 28.87 l 23.46,14.44 23.22,-14.44 V 350.48 L 85.43,336.04 M -7.69,307.17 v 28.87 M 38.75,307.17 15.53,292.73 m -69.66,14.44 23.22,-14.44 m 0,57.74 -23.22,-14.44 m 0,144.08 23.22,-14.44 V 436.8 l -23.22,-14.16 m 116.1,14.16 v 28.87 l 23.46,14.44 23.22,-14.44 V 436.8 L 85.43,422.64 Z m 23.46,-43.03 v 28.87 M 61.97,379.33 38.75,393.77 v 28.87 L 61.97,436.8 M -7.69,393.77 v 28.87 l 23.22,14.16 23.22,-14.16 m -46.44,57.47 v 28.87 l 23.22,14.45 23.22,-14.45 V 480.11 L 15.53,465.67 Z m 93.12,0 v 28.87 l 23.22,14.45 23.22,-14.45 v -28.87 l -23.22,-14.44 m -69.9,14.44 23.22,-14.44 M 15.53,436.8 v 28.87 m 0,-86.34 23.22,14.44 m -46.44,28.87 -23.22,14.16 m 0,28.87 23.22,14.44 m -46.44,-86.34 23.22,-14.44 M 61.97,263.85 38.75,249.69 m -69.66,14.16 -23.22,-14.16 M 433.92,4.54 v 28.87 l 23.22,14.44 23.22,-14.44 M 387.5,4.54 v 28.87 l 23.2,14.44 23.22,-14.44 M 410.7,76.72 387.5,90.9 v 28.87 l 23.2,14.44 23.22,-14.44 V 90.9 L 410.7,76.72 V 47.85 M 480.36,90.9 457.14,76.72 433.92,90.9 M 457.14,76.72 V 47.85 M 341.06,4.54 V 33.41 L 364.28,47.85 387.5,33.41 M 294.38,4.54 v 28.87 l 23.46,14.44 23.22,-14.44 M 294.38,90.9 v 28.87 l 23.46,14.44 23.22,-14.44 V 90.9 L 317.84,76.72 294.38,90.9 271.16,76.72 247.94,90.9 M 387.5,90.9 364.28,76.72 341.06,90.9 M 317.84,47.85 v 28.87 m 46.44,-28.87 v 28.87 m 23.22,43.05 -23.22,14.44 v 28.87 l 23.22,14.44 23.2,-14.44 v -28.87 m -69.64,-14.44 23.22,14.44 m 0,28.87 -23.22,14.44 v 28.87 l 23.22,14.44 23.22,-14.44 v -28.87 m -93.12,-57.74 -23.22,14.44 v 28.87 l 23.22,14.44 23.46,-14.44 v -28.87 m 23.22,72.18 -23.22,14.44 v 28.87 l 23.22,14.16 23.22,-14.16 v -28.87 m -69.9,-43.31 v 28.87 l 23.46,14.44 m 23.22,-43.31 -23.22,-14.44 m 116.08,-43.31 23.22,14.44 23.22,-14.44 m -23.22,43.31 -23.22,14.44 v 28.87 l 23.22,14.44 23.22,-14.44 v -28.87 l -23.22,-14.44 v -28.87 m -46.44,28.87 23.22,14.44 m 0,28.87 -23.22,14.44 v 28.87 l 23.22,14.16 23.22,-14.16 v -28.87 m -46.44,0 -23.2,-14.44 M 247.94,4.56 v 28.87 l 23.22,14.44 23.22,-14.44 M 201.5,4.56 v 28.87 l 23.22,14.44 23.22,-14.44 M 201.5,90.92 v 28.87 l 23.22,14.44 23.22,-14.44 V 90.92 L 224.72,76.74 201.5,90.92 178.28,76.74 155.06,90.92 M 271.16,47.87 V 76.74 M 224.72,47.87 V 76.74 M 155.06,4.56 v 28.87 l 23.22,14.44 23.22,-14.44 m -92.86,0 23.22,14.44 23.2,-14.44 m -46.42,86.36 23.22,14.44 23.2,-14.44 V 90.92 L 131.86,76.74 108.64,90.92 M 178.28,47.87 V 76.74 M 131.86,47.87 v 28.87 m 23.2,43.05 23.22,14.44 23.22,-14.44 m -23.22,14.44 v 28.87 l 23.22,14.44 23.22,-14.44 v -28.87 m -46.44,28.87 -23.22,14.44 v 28.87 l 23.22,14.44 23.22,-14.44 v -28.87 m -92.86,0 23.22,-14.44 v -28.87 m 46.42,86.61 v 28.87 l 23.22,14.16 23.22,-14.16 V 220.84 L 201.5,206.4 m -46.44,-28.87 -23.2,-14.44 m 0,57.74 23.2,-14.44 m 92.88,-86.61 23.22,14.44 m 0,28.87 -23.22,14.44 v 28.87 l 23.22,14.44 23.22,-14.44 m -69.66,43.31 23.22,14.16 23.22,-14.16 v -28.87 m -46.44,-57.74 23.22,14.44 m -23.22,43.31 23.22,-14.44 m 0,57.47 v 28.87 l 23.22,14.44 23.22,-14.44 v -28.87 l -23.22,-14.16 m -69.66,14.16 v 28.87 l 23.22,14.44 23.22,-14.44 m -46.44,86.61 23.22,14.44 23.22,-14.44 v -28.87 l -23.22,-14.44 -23.22,14.44 v 28.87 l -23.22,14.44 v 28.87 m 69.66,-43.31 23.22,14.44 23.22,-14.44 v -28.87 l -23.22,-14.44 -23.22,14.44 m 23.22,-43.31 v 28.87 m -46.44,-28.87 v 28.87 m -46.44,-86.34 -23.22,14.16 v 28.87 l 23.22,14.44 23.22,-14.44 m -92.86,-28.87 v 28.87 l 23.22,14.44 23.2,-14.44 m -46.42,86.61 23.22,14.44 23.2,-14.44 v -28.87 l -23.2,-14.44 -23.22,14.44 m 92.86,0 -23.22,-14.44 -23.22,14.44 m -23.2,-43.31 v 28.87 m 46.42,-28.87 v 28.87 m -23.22,100.77 v 28.87 l 23.22,14.44 23.22,-14.44 v -28.87 l -23.22,-14.16 -23.22,14.16 -23.2,-14.16 -23.22,14.16 m 23.22,-43.03 v 28.87 m 46.42,57.47 v 28.87 l 23.22,14.45 23.22,-14.45 V 480.12 L 201.5,465.68 m -69.64,14.44 23.2,-14.44 m 116.1,-71.9 v 28.87 l 23.22,14.16 23.46,-14.16 v -28.87 l -23.46,-14.44 m -23.22,43.31 -23.22,14.16 v 28.87 l 23.22,14.44 23.22,-14.44 v -28.87 m -46.44,0 -23.22,-14.16 -23.22,14.16 m 23.22,-43.03 v 28.87 m 46.44,57.47 v 28.87 l 23.22,14.45 23.46,-14.45 v -28.87 l -23.46,-14.44 m -69.66,14.44 23.22,-14.44 m -92.88,-86.34 23.22,14.44 M 433.92,263.86 v 28.87 l 23.22,14.44 23.22,-14.44 m -46.44,0 -23.22,14.44 v 28.87 l 23.22,14.44 23.22,-14.44 v -28.87 m -46.44,28.87 -23.2,14.44 v 28.87 l 23.2,14.44 23.22,-14.44 v -28.87 m 46.44,0 -23.22,-14.44 M 341.06,263.86 v 28.87 l 23.22,14.44 23.22,-14.44 V 263.86 L 364.28,249.7 m -69.9,43.03 23.46,14.44 23.22,-14.44 m -23.22,101.05 23.22,-14.44 v -28.87 l -23.22,-14.44 -23.46,14.44 m 93.12,0 -23.22,-14.44 -23.22,14.44 m -23.22,-43.31 v 28.87 m 46.44,-28.87 v 28.87 m 23.22,43.31 -23.22,14.44 v 28.87 l 23.22,14.16 23.2,-14.16 v -28.87 m -46.42,28.87 -23.22,14.16 v 28.87 l 23.22,14.44 23.22,-14.44 v -28.87 m -23.22,43.31 v 28.87 l 23.22,14.45 23.2,-14.45 v -28.87 l -23.2,-14.44 m -46.44,-28.87 -23.22,-14.16 m 0,57.47 23.22,-14.44 m 116.08,-43.03 -23.22,14.16 v 28.87 l 23.22,14.44 23.22,-14.44 v -28.87 l -23.22,-14.16 v -28.87 l -23.22,-14.44 m 0,57.47 -23.22,-14.16 m 0,57.47 23.22,-14.44 m -23.22,43.31 23.22,14.45 23.22,-14.45 v -28.87 m 0,-86.34 23.22,-14.44 m -139.3,0 23.22,14.44 M 410.7,307.17 387.5,292.73 M 155.06,263.86 131.86,249.7 m 348.5,14.16 -23.22,-14.16 m -139.3,0 -23.46,14.16 M 410.7,249.7 387.5,263.86 m -302.07,43.31 23.22,-14.44 m 325.27,230.7 v 28.87 l 23.22,14.44 23.22,-14.44 m -46.44,0 -23.22,14.44 v 28.87 l 23.22,14.16 23.22,-14.16 v -28.87 m -46.44,28.87 -23.2,14.16 v 28.87 l 23.2,14.44 23.22,-14.44 v -28.87 m 46.44,0 -23.22,-14.16 M 387.5,523.43 v 28.87 l 23.2,14.44 m -23.2,-14.44 -23.22,14.44 v 28.87 l 23.22,14.16 m -23.22,-43.03 -23.22,-14.44 -23.22,14.44 v 28.87 l 23.22,14.16 23.22,-14.16 M 341.06,552.3 v -28.87 l -23.22,-14.45 m -23.46,14.45 v 28.87 l 23.46,14.44 m 0,28.87 -23.46,14.16 v 28.87 l 23.46,14.44 23.22,-14.44 v -28.87 m 0,86.61 v 28.87 l 23.22,14.44 23.22,-14.44 v -28.87 l -23.22,-14.44 -23.22,14.44 -23.22,-14.44 -23.46,14.44 v 28.87 l 23.46,14.44 23.22,-14.44 m 46.44,-86.61 -23.22,14.44 v 28.87 m -46.44,-28.87 v 28.87 m -23.46,43.31 -23.22,14.44 v 28.87 l 23.22,14.16 23.46,-14.16 V 739.7 m 46.44,0 v 28.87 l 23.22,14.16 23.2,-14.16 V 739.7 l -23.2,-14.44 m 69.64,-43.31 -23.22,14.44 v 28.87 l 23.22,14.44 23.22,-14.44 v -28.87 l -23.22,-14.44 v -28.87 l -23.22,-14.44 m -23.22,14.44 v 28.87 l 23.22,14.44 m -23.22,43.31 23.22,-14.44 m -23.22,43.31 23.22,14.16 23.22,-14.16 V 739.7 m -116.08,-101.05 23.22,14.44 m 46.42,28.87 -23.2,14.44 m 69.64,-43.31 23.22,-14.44 m -209.2,-129.66 -23.22,14.45 v 28.87 l 23.22,14.44 23.22,-14.44 M 201.5,523.44 v 28.87 l 23.22,14.44 23.22,-14.44 m -46.44,0 -23.22,14.44 v 28.87 l 23.22,14.16 23.22,-14.16 v -28.87 m -46.44,28.87 -23.22,14.16 v 28.87 l 23.22,14.44 23.22,-14.44 v -28.87 m 92.88,0 -23.22,-14.16 -23.22,14.16 v 28.87 l 23.22,14.44 23.22,-14.44 m -23.22,-71.9 v 28.87 m -46.44,0 23.22,14.16 m -69.66,-100.79 -23.22,14.45 v 28.87 l 23.22,14.44 m -69.64,-14.44 -23.22,14.44 v 28.87 l 23.22,14.16 23.22,-14.16 v -28.87 l -23.22,-14.44 v -28.87 m 0,86.34 v 28.87 l 23.22,14.44 23.2,-14.44 m 0,-28.87 -23.2,-14.16 m 0,-28.87 23.2,-14.44 m 0,144.08 v 28.87 l 23.22,14.44 23.22,-14.44 v -28.87 l -23.22,-14.44 z m 23.22,-43.31 v 28.87 m -46.42,-28.87 v 28.87 l 23.2,14.44 m -23.2,-14.44 -23.22,14.44 v 28.87 l 23.22,14.44 23.2,-14.44 m -46.42,0 -23.22,14.44 v 28.87 l 23.22,14.16 23.22,-14.16 V 739.7 m 46.42,0 v 28.87 l 23.22,14.16 23.22,-14.16 V 739.7 L 201.5,725.26 m 69.66,-72.18 v 28.87 l 23.22,14.44 m -23.22,-14.44 -23.22,14.44 v 28.87 l 23.22,14.44 m -23.22,-43.31 -23.22,-14.44 -23.22,14.44 m 46.44,-57.74 -23.22,14.44 v 28.87 m 0,57.74 23.22,-14.44 m -46.44,-86.61 23.22,14.44 M 201.5,782.73 v 28.87 l 23.22,14.44 23.22,-14.44 v -28.87 l -23.22,-14.16 m 23.22,43.03 23.22,14.44 23.22,-14.44 v -28.87 m -92.88,115.48 23.22,14.44 23.22,-14.44 V 869.34 L 224.72,854.9 201.5,869.34 Z m 46.44,0 23.22,14.44 23.22,-14.44 v -28.87 l -23.22,-14.44 -23.22,14.44 m 23.22,-43.31 V 854.9 M 224.72,826.03 V 854.9 M 108.64,782.72 v 28.87 l 23.22,14.44 23.2,-14.44 v -28.87 l -23.2,-14.16 m 23.2,43.03 23.22,14.44 23.22,-14.44 m -92.86,0 -23.22,14.44 v 28.87 l 23.22,14.44 23.22,-14.44 V 826.03 M 85.42,854.9 61.96,869.34 v 28.87 l 23.46,14.44 23.22,-14.44 v -28.87 m -23.22,43.31 v 28.87 l 23.22,14.18 23.22,-14.18 v -28.87 l -23.22,-14.44 m 92.86,-28.87 -23.22,-14.44 -23.22,14.44 v 28.87 l 23.22,14.44 23.22,-14.44 m -23.22,-72.18 v 28.87 m -46.42,57.74 23.2,-14.44 m 0,-28.87 -23.2,-14.44 m 23.2,100.79 v 28.87 l 23.22,14.44 23.22,-14.44 v -28.87 l -23.22,-14.18 -23.22,14.18 -23.2,-14.18 m -23.22,14.18 v 28.87 l 23.22,14.44 23.2,-14.44 m -23.2,14.44 v 28.87 m 46.42,-28.87 v 28.87 m 46.44,-115.23 v 28.87 l 23.22,14.18 23.22,-14.18 v -28.87 m -69.66,43.05 23.22,-14.18 m -23.22,43.05 23.22,14.44 23.22,-14.44 v -28.87 m -23.22,43.31 v 28.87 m 46.44,0 V 998.99 L 247.94,984.55 M 178.28,912.63 V 941.5 M 433.92,782.71 v 28.87 l 23.22,14.44 23.22,-14.44 M 387.5,782.71 v 28.87 l 23.2,14.44 23.22,-14.44 m -23.22,43.31 -23.2,14.44 v 28.87 l 23.2,14.44 23.22,-14.44 V 869.33 L 410.7,854.89 v -28.87 m 69.66,43.31 -23.22,-14.44 -23.22,14.44 m 0,28.87 23.22,14.44 23.22,-14.44 m -23.22,-43.31 v -28.87 m -92.86,-57.47 -23.22,14.16 v 28.87 l 23.22,14.44 23.22,-14.44 m -93.12,0 23.46,14.44 23.22,-14.44 m -46.68,86.61 23.46,14.44 23.22,-14.44 v -28.87 l -23.22,-14.44 -23.46,14.44 m 93.12,28.87 -23.22,14.44 v 28.87 l 23.22,14.18 23.2,-14.18 v -28.87 m -23.2,-43.31 -23.22,-14.44 -23.22,14.44 m 23.22,43.31 -23.22,-14.44 m -23.22,-43.31 v -28.87 m 46.44,0 v 28.87 m -46.44,57.74 v 28.87 l 23.22,14.18 23.22,-14.18 m -93.12,0 23.22,14.18 23.46,-14.18 m -23.46,14.18 v 28.87 l 23.46,14.44 23.22,-14.44 v -28.87 m -23.22,43.31 v 28.87 m 92.86,0 v -28.87 l -23.2,-14.44 -23.22,14.44 v 28.87 m 0,-28.87 -23.22,-14.44 m 46.44,-28.87 v 28.87 m 69.64,-43.05 -23.22,14.18 v 28.87 l 23.22,14.44 23.22,-14.44 v -28.87 l -23.22,-14.18 v -28.87 m -46.44,28.87 23.22,14.18 m 0,28.87 -23.22,14.44 m 46.44,28.87 v -28.87 m -185.97,0 23.22,-14.44 m -116.1,-216 -23.22,14.16 m 116.1,-14.16 -23.22,14.16 m 93.12,0 -23.22,-14.16 M 480.37,782.7 457.15,768.54 M 15.54,523.42 v 28.87 l 23.22,14.44 23.22,-14.44 V 523.42 L 38.76,508.97 m 23.22,43.32 23.46,14.44 M -7.68,508.97 -30.9,523.42 v 28.87 l 23.22,14.44 23.22,-14.44 m 0,57.47 -23.22,-14.16 -23.22,14.16 v 28.87 l 23.22,14.44 23.22,-14.44 z m 0,28.87 23.22,14.44 23.22,-14.44 V 609.76 L 38.76,595.6 15.54,609.76 M 85.44,595.6 61.98,609.76 M -7.68,566.73 v 28.87 m 46.44,0 v -28.87 m -92.88,0 23.22,-14.44 m 0,57.47 -23.22,-14.16 m 0,144.08 23.22,-14.44 v -28.87 l -23.22,-14.44 m 92.88,-28.87 v 28.87 l 23.22,14.44 23.46,-14.44 V 653.06 L 61.98,638.62 m -69.66,14.44 v 28.87 l 23.22,14.44 23.22,-14.44 M -7.68,768.54 15.54,782.7 38.76,768.54 V 739.67 L 15.54,725.23 -7.68,739.67 v 28.87 L -30.9,782.7 m 69.66,-43.03 23.22,-14.44 v -28.87 m 0,28.87 23.46,14.44 m -69.9,-43.31 v 28.87 m -69.66,-72.18 23.22,-14.44 m 23.22,43.31 -23.22,14.44 m 0,28.87 23.22,14.44 m 23.22,43.03 v 28.87 l 23.22,14.44 23.22,-14.44 V 782.7 L 38.76,768.54 m 23.22,43.03 23.46,14.44 m -69.9,-14.44 -23.22,14.44 v 28.87 l 23.22,14.44 23.22,-14.44 v -28.87 m -46.44,28.87 -23.22,14.44 v 28.87 l 23.22,14.44 23.22,-14.44 v -28.87 m 0,28.87 23.22,14.44 23.22,-14.44 m 0,-28.87 -23.22,-14.44 M -54.12,826.01 -30.9,811.57 V 782.7 l -23.22,-14.16 m 0,144.08 23.22,-14.44 m 0,-28.87 -23.22,-14.44 m 0,144.1 23.22,-14.44 v -28.87 l -23.22,-14.18 m 139.56,0 -23.46,14.18 v 28.87 l 23.46,14.44 23.22,-14.44 M 61.98,955.66 38.76,941.48 15.54,955.66 v 28.87 l 23.22,14.44 23.22,-14.44 M -7.68,912.61 v 28.87 l 23.22,14.18 m 0,28.87 -23.22,14.44 v 28.87 m 93.12,0 v -28.87 m -46.68,28.87 v -28.87 m 0,-57.49 V 912.61 M -30.9,811.56 -7.68,826 m 0,115.48 -23.22,14.18 m 0,28.87 23.22,14.44 M 85.44,768.53 61.98,782.69 m 46.68,-86.34 -23.22,-14.44 m 0,-28.87 23.22,-14.44 m 46.42,-115.21 -23.2,-14.45 m -162.77,14.45 -23.22,-14.45 m 139.56,0 -23.46,14.45 m 302.31,-14.45 -23.22,14.45 m -116.34,-14.45 23.22,14.45 m 232.41,0 -23.22,-14.45 m 23.22,-302.6 23.22,14.44 m 0,-57.74 -23.22,14.44 m 0,547.75 23.22,14.44 m 0,-57.74 -23.22,14.44 m 23.22,245.12 -23.22,14.18 m 0,28.87 23.22,14.44 m -23.22,-533.33 23.22,14.44 m 0,-57.47 -23.22,14.16"
       clip-path="url(#b)"
       fill="none"
       stroke="#989898"
       stroke-linecap="square"
       stroke-miterlimit="1"
       stroke-width="2.0228" />
    <path
       d="M 512,636 V 71 L 182,636 Z"
       style="fill:none;stroke:#009252;stroke-width:16"
       id="path25" />
    <path
       d="M 512,388 V 953 L 842,388 Z"
       style="fill:none;stroke:#009252;stroke-width:16"
       id="path27" />
    <circle
       cx="512"
       cy="512"
       style="fill:#009252"
       id="ellipse29"
       r="150" />
  </g>
</svg>
