<?xml version="1.0" encoding="UTF-8" standalone="no"?>
<svg
   width="387.03128"
   height="443.45496"
   viewBox="0 0 387.03128 443.45496"
   fill="none"
   version="1.1"
   id="svg4"
   sodipodi:docname="frigate.svg"
   inkscape:version="1.1.2 (0a00cf5339, 2022-02-04, custom)"
   xmlns:inkscape="http://www.inkscape.org/namespaces/inkscape"
   xmlns:sodipodi="http://sodipodi.sourceforge.net/DTD/sodipodi-0.dtd"
   xmlns="http://www.w3.org/2000/svg"
   xmlns:svg="http://www.w3.org/2000/svg">
  <defs
     id="defs8" />
  <sodipodi:namedview
     id="namedview6"
     pagecolor="#ffffff"
     bordercolor="#666666"
     borderopacity="1.0"
     inkscape:pageshadow="2"
     inkscape:pageopacity="0.0"
     inkscape:pagecheckerboard="0"
     showgrid="false"
     fit-margin-top="0"
     fit-margin-left="0"
     fit-margin-right="0"
     fit-margin-bottom="0"
     inkscape:zoom="1.6074219"
     inkscape:cx="180.72418"
     inkscape:cy="229.56015"
     inkscape:window-width="1920"
     inkscape:window-height="1009"
     inkscape:window-x="-1928"
     inkscape:window-y="-8"
     inkscape:window-maximized="1"
     inkscape:current-layer="svg4" />
  <path
     d="m 54.973089,419.91015 c 1.6,12.8 15,21.5 7,23.5 -8,2 -43,-63.5 -51,-91.5 -7.9999997,-28 -12.4999997,-59.5 -10.49999972,-77.5 1.99990002,-18 105.50000072,-46 105.50000072,-53.5 0,-7.5 -33.500001,-0.5 -35.000001,-6.5 -1.5,-6 25.3,-2.4 32.500001,-12 11.25,-15 25.5,-12.5 34.5,-20.5 9,-8 20,-38.5 22,-51.5 2,-13 -20,-28 -26,-37.999998 -6,-10 13,-17 59,-36 46,-19 192,-61.0000004 194,-56.00000045 2,5.00000005 -48,26.00000045 -83,39.00000045 -35,13 -92,38 -92,45 0,7 3,12.5 1,28.499998 -2,16 -2.24,23.471 -6,34 -2.5,7 -5,23.5 0,38.5 4,12 17,21 23,23 5,0.333 18.8,0.8 34,0 19,-1 46,1 46,6 0,5 -41,2 -41,9 0,7 42,-1 41,6 -1,7 -35,4 -53,4 -14.4,0 -35.667,-0.667 -45,-4 l -2,7 c -3.333,0 -10.3,2 -17.5,2 -9,0 -9.5,3 -26,3 -16.5,0 -11.5,-1 -26.5,-2 -15,-1 -71.000001,42 -81.000001,56 -10,14 -4,48 -4,63.5 0,13.928 -2,45 0,61 z"
     fill="#000000"
     id="path2" />
</svg>
