<svg xmlns="http://www.w3.org/2000/svg" viewBox="0 0 512 512"><circle cx="256" cy="256" r="256" style="fill:#fff"/><path d="m453.3 267.8-1-1.7c-.2-.3-.3-.5-.5-.8l-73.4-111.8-94.9 70.7L352.9 331c.3.5.6.9.9 1.4l.4.6c10.8 15.3 28.5 25.3 48.6 25.3 32.8 0 59.4-26.6 59.4-59.4-.1-11.4-3.3-22-8.9-31.1" style="fill:#95c748"/><circle cx="109.2" cy="298.9" r="59.4" style="fill:#35bfc0"/><circle cx="327.9" cy="184.9" r="59.5" style="fill:#f38334"/><path d="M327.8 244.3c-20.7 0-39-10.7-49.6-26.8L233 153.7c-10.5-16.9-29.2-28.3-50.6-28.3s-40.1 11.3-50.5 28.3L60 265.7c10.7-15.8 28.7-26.2 49.2-26.2 21.6 0 40.4 11.5 50.8 28.7h.1l46.9 65.9h.1c10.8 14.6 28.1 24.2 47.8 24.2 19.6 0 37-9.5 47.8-24.2h.1l.5-.8c1.2-1.7 2.3-3.5 3.4-5.3l70.6-109.9c-10.7 15.8-29 26.2-49.5 26.2M58.5 268c.5-.7.9-1.4 1.4-2.2z" style="fill:#3152a0"/></svg>
