<svg xmlns:xlink="http://www.w3.org/1999/xlink" viewBox="0 0 48 44.316" xmlns="http://www.w3.org/2000/svg"><defs><linearGradient id="a"><stop offset="0" style="stop-color:#f0f0f0"/><stop offset="1" style="stop-color:#f0f0f0;stop-opacity:0"/></linearGradient><linearGradient xlink:href="#a" id="e" x1="17.236" x2="18.562" y1="14.987" y2="24" gradientUnits="userSpaceOnUse"/><linearGradient id="d" x1="175.59" x2="219.59" y1="521.4" y2="521.4" gradientTransform="translate(-176.46 -504.98) scale(1.0145)" gradientUnits="userSpaceOnUse"><stop offset="0" style="stop-color:#bf4823"/><stop offset="1" style="stop-color:#610905"/></linearGradient><linearGradient id="c" x1="175.59" x2="219.59" y1="521.4" y2="521.4" gradientTransform="translate(-176.46 -504.98) scale(1.0145)" gradientUnits="userSpaceOnUse"><stop offset="0" style="stop-color:#e24e20"/><stop offset="1" style="stop-color:#b30700"/></linearGradient><linearGradient id="b" x1="175.89" x2="219.29" y1="521.29" y2="521.29" gradientTransform="matrix(1.0145 0 0 1.0196 -176.46 -507.5)" gradientUnits="userSpaceOnUse"><stop offset="0" style="stop-color:#ea5729;stop-opacity:.99608"/><stop offset="1" style="stop-color:#990600"/></linearGradient><linearGradient xlink:href="#a" id="f" x1="17.236" x2="18.562" y1="14.987" y2="24" gradientUnits="userSpaceOnUse"/><linearGradient xlink:href="#a" id="g" x1="17.236" x2="18.562" y1="14.987" y2="24" gradientUnits="userSpaceOnUse"/></defs><g transform="translate(0 -1.842)"><rect width="44.024" height="43.697" x="1.988" y="2.152" rx="5.073" style="fill:url(#b);fill-rule:evenodd"/><path d="M7.057 2.75a4.45 4.45 0 0 0-4.466 4.477v33.547a4.45 4.45 0 0 0 4.466 4.476h33.885a4.45 4.45 0 0 0 4.467-4.476V7.227a4.45 4.45 0 0 0-4.467-4.477z" style="fill:none;stroke:url(#c);stroke-width:.64967"/><path d="M7.054 2.253a5.356 5.356 0 0 0-5.359 5.358v26.061c13.48-10.1 30.308-12.656 44.608-7.83V7.611a5.356 5.356 0 0 0-5.358-5.359H7.053Z" style="opacity:.21;fill:#fff"/><rect width="44.024" height="43.697" x="1.988" y="2.152" rx="5.073" style="fill:none;stroke:url(#d);stroke-width:.61873"/><path d="M1.813-79.781a1.5 1.5 0 0 0-1.344 1.5V-58a1.5 1.5 0 0 0 1.5 1.5H14.53c18 0 32.53 14.62 32.53 32.625 0 18.005-14.525 32.531-32.53 32.531H1.969a1.5 1.5 0 0 0-1.5 1.5v20.281a1.5 1.5 0 0 0 1.5 1.5H14.53c30.834 0 55.938-24.974 55.938-55.812 0-30.839-25.1-55.906-55.938-55.906H1.969a1.5 1.5 0 0 0-.157 0zm139.747 0c-30.835 0-55.938 25.07-55.938 55.906s25.105 55.812 55.938 55.812h12.562a1.496 1.496 0 0 0 1.5-1.5V10.156a1.496 1.496 0 0 0-1.5-1.5H141.56c-18.007 0-32.531-14.524-32.531-32.531 0-18.007 14.529-32.625 32.531-32.625h12.562a1.496 1.496 0 0 0 1.5-1.5v-20.281a1.496 1.496 0 0 0-1.5-1.5z" style="fill:#e5e5e5" transform="translate(-.145 31.401) scale(.30937)"/><path d="M14.531-78.281c-6.816 0-12.555-.004-12.555-.004v20.29S7.435-58 14.531-58c18.814 0 34.031 15.311 34.031 34.125S33.344 10.156 14.531 10.156H1.976V30.45s5.822-.012 12.555-.012c30.025 0 54.438-24.287 54.438-54.312S44.557-78.28 14.531-78.28zm127.029 0c6.816 0 12.555-.004 12.555-.004v20.29S148.657-58 141.56-58c-18.814 0-34.031 15.311-34.031 34.125s15.218 34.031 34.031 34.031h12.555V30.45s-5.822-.012-12.555-.012c-30.026 0-54.438-24.287-54.438-54.312S111.534-78.28 141.56-78.28z" style="fill:#d3d3d3" transform="translate(-.144 31.399) scale(.30937)"/><g style="fill:url(#e)"><path d="m43.649 7.182 3.884-.001v6.276h-3.884c-5.82 0-10.528 4.736-10.528 10.556a10.52 10.52 0 0 0 10.528 10.528h3.884v6.278s-1.801-.004-3.884-.004c-9.289 0-16.841-7.513-16.841-16.802 0-9.288 7.552-16.83 16.841-16.83z" style="fill:url(#f)"/><path d="M4.351 7.182.467 7.18v6.276h3.884c5.82 0 10.528 4.736 10.528 10.556A10.52 10.52 0 0 1 4.351 34.541H.467v6.278s1.801-.004 3.884-.004c9.289 0 16.841-7.513 16.841-16.802 0-9.288-7.552-16.83-16.84-16.83z" style="fill:url(#g)"/></g></g></svg>