<svg fill="none" viewBox="0 0 800 800" xmlns="http://www.w3.org/2000/svg"><g clip-path="url(#a)"><circle cx="400" cy="400" r="400" fill="#35373C"/><path fill="url(&quot;#b&quot;)" d="M223 207c0-19.33 15.67-35 35-35h283c19.33 0 35 15.67 35 35v408.292c0 25.063-25.572 42.003-48.651 32.228l-114.198-48.37a35 35 0 0 0-27.302 0l-114.198 48.37C248.572 657.295 223 640.355 223 615.292z"/><path fill="#E1E7F0" d="M223 207c0-19.33 15.67-35 35-35h283c19.33 0 35 15.67 35 35v335.921l-171.937-88.165a10 10 0 0 0-9.126 0L223 542.921z"/></g><defs><linearGradient id="b" x1="399.891" x2="399.43" y1="444.7" y2="668.127" gradientUnits="userSpaceOnUse"><stop stop-color="#7F8BA3"/><stop offset="1" stop-color="#B5C1D1"/></linearGradient><clipPath id="a"><path fill="#fff" d="M0 0h800v800H0z"/></clipPath></defs></svg>