<svg viewBox="0 0 118.136 91.499" xmlns="http://www.w3.org/2000/svg"><defs><filter id="a" width="1.032" height="1.098" x="-.016" y="-.049" style="color-interpolation-filters:sRGB"><feGaussianBlur stdDeviation=".315"/></filter></defs><g transform="translate(-49.874 -54.159)"><path d="M49.874 54.159H168.01v25.486H49.874z" style="opacity:.60100002;fill:#6961ff;fill-opacity:.29145729;stroke:none;stroke-width:.59457326;stroke-linecap:butt;stroke-linejoin:round;stroke-miterlimit:4;stroke-dasharray:none;stroke-opacity:.90055249"/><ellipse cx="110.85" cy="81.708" rx="23.48" ry="7.717" style="opacity:.60100002;fill:#ff8e00;fill-opacity:1;stroke:none;stroke-width:.77102125;stroke-linecap:butt;stroke-linejoin:round;stroke-miterlimit:4;stroke-dasharray:none;stroke-opacity:.90055249;filter:url(#a)" transform="matrix(1.0609 0 0 1.10002 -7.222 -8.824)"/><path d="M49.874 79.645H168.01v66.014H49.874z" style="opacity:1;fill:#0081ff;fill-opacity:1;stroke:none;stroke-width:.141;stroke-linecap:butt;stroke-linejoin:round;stroke-miterlimit:4;stroke-dasharray:none;stroke-opacity:1"/><path d="M93.17 81.287c.183-1.89-1.83.966.242.063 2.36-1.028 4.835-.211 7.297-.268 6.96-.159 13.933-.728 20.884-.344 4.204.232 8.345.923 12.56 1.203 1.626.107 1.584.103.14.094-5.61-.033-11.226.002-16.827-.312-4.997-.281-9.981-.38-15.002-.491-2.86-.063-6.221 2.079-8.545.429-1.26-.894-6.024.257-4.722.346 2.302.158 4.362-.734 6.766-.783 3.3-.068 6.586-.312 9.888-.514 6.999-.43 14.128-1.422 21.039-.017 2.821.574 11.322-.018 8.562.78-1.265.367-2.791.183-4.168.188-6.49.025-12.975-.101-19.463-.252-5.128-.12-10.19.797-15.32.874-1.873.028-7.245.3-5.962.087 3.665-.608 7.348-.902 11.05-1.27 4.413-.44 17.708-.022 13.283 0-1.8.008-4.144.367-6.17.28-5.909-.252-11.954-1.545-17.735-.286-.908.198-4.264-.528-1.607-.32 1.938.152 3.545.102 5.498-.078 2.431-.225 4.92-.51 7.393-.563 6.916-.15 13.88-.204 20.71.845 1.004.155 4.105.586 3.675.566-3.424-.162-6.877-.033-10.312-.07-1.733-.019-6.925.115-5.193.187 2.73.114 5.44-.569 8.193-.602 4.372-.054 8.723.644 13.113.597 1.977-.02-1.82.165-2.382.242-3.216.444-12.792.192-9.646-.416 2.183-.422 4.4-.69 6.639-.47 2.36.233 4.729.326 7.095.462 1.86.107-.958-.168-1.626-.187-2.886-.082-11.505.276-8.664-.187 2.833-.463 5.793-.773 8.633-.345 1.139.171 2.945.242.751.131-3.506-.178-13.8.465-10.515-.797.976-.375 3.922.032 5.665-.071 1.404-.083 5.69.224 4.259.146-2.615-.141-10.456.436-7.858.374 2.245-.053 8.935.623 6.735.187-2.768-.548-5.634 1.211-8.321.578-1.09-.257-3.81.208-1.151.093 2.405-.104 9.62-.027 7.227-.296-2.892-.326-5.833-.176-8.75-.187-4.56-.019-9.105.208-13.667.357-2.777.09-5.527-.162-8.338-.343-3.349-.216-6.947 1.65-10.03.36-2.843-1.19 1.528-1.196 2.61-1.17 2.354.057 9.394-.145 7.119.234-1.807.302-3.97 1.01-5.65.749-.968-.15-4.834-.702-1.855-.712 2.159-.007 8.2-1.158 6.526.076-.891.656-4.613 1.297-3.8.79 1.63-1.015 3.569-.67 5.391-.91 2.317-.307 4.645.244 6.954.054.942-.077 4.621-.097 2.095.458-3.056.672-7.564-2.331-9.287.244-.22.328 2.792.04 3.925-.046 3.613-.273 14.4-1.073 10.855-.329-2.582.543-5.27.211-7.85.78-.956.212-3.999.132-3.842.122 8.409-.551 17.028 1.113 25.263-.66 1.002-.216 5.039.64 2.027.704-3.128.065-6.268-.013-9.391-.112-1.086-.034-2.647-.356-.572-.491 3.729-.242 7.475.074 11.203-.155 1.838-.114-1.922.346-2.521.437-5.021.765-10.116.22-15.174.31-1.088.02-2.81-.083-.706-.075 3.076.01 12.316.183 9.233.076-3.567-.124-7.114.048-10.677.223-4.076.2-8.16.312-12.235.377-3.173.05 1.108-.201 2.15-.243 5.484-.22 11.28-1.982 16.46-.17.84.294-2.328.258-2.985.322-5.154.497-10.34.161-15.51.24-1.99.03-7.838.71-5.976.125 1.64-.516 4.079-.19 6.011-.383 4.975-.493 9.966-.392 14.966-.366 3.615.019 7.291-.387 10.84.274 2.143.4-2.366.163-3.116.137-4.135-.146-8.282.619-12.391.227-3.524-.337-14.064.525-10.549.36 2.135-.101 4.533-.125 6.767-.28 4.233-.294 8.49.585 12.705.068.578-.07 4.914.178 2.54.215-6.591.102-13.494-1.486-19.766.558-1.237.403-1.73.076-.188-.039 3.841-.286 7.682-.695 11.543-.6 4.074.1 16.3.585 12.218.452-6.589-.216-13.188-.451-19.786-.375-2.931.035-5.882.303-8.798.053-2.192-.187 1.915-.21 2.622-.21 5.756.002 11.676-1.711 17.267-.345.669.164 3.079.362 1.076.332-3.001-.045-5.984.317-8.996.296-2.343-.016-4.661.47-6.99.613-1.356.084 2.126.015 2.65.01 5.185-.05 10.44-1.115 15.561-.29 1.388.224-2.75.185-3.71.256-4.633.343-18.552.77-13.908.782 2.516.007 5.206-.42 7.8-.5 2.93-.092 11.728-.13 8.85-.061-1.942.046-4.127.199-6.176.223-3.443.041-13.688 1.237-10.287.712a75 75 0 0 1 7.181-.755c3.777-.208 7.561-.08 11.34-.18 1.77-.047-.742-.004-1.309 0-4.471.031-8.951.204-13.412-.061-1.251-.075-5.15-.107-4.364.011 3.433.515 6.963-.288 10.412.073 1.738.182 6.989.46 5.578.296-2.106-.245-4.252.004-6.383.118-2.699.145-10.791.17-8.108.498 2.953.362 5.944-.676 8.892-.21.8.127 5.364-.141 2.495.083-2.852.224-6.898 2.899-8.563.578-.43-.6 1.371-.285 1.928-.264 2.661.104 10.616-.354 7.97-.187-3.365.213-13.46.258-10.102.562 2.854.258 5.832-.932 8.606-.187.94.252-2.254-.036-2.912.073-1.907.316-3.868-.408-5.722.119-1.78.505 2.364.157 3.068.14 2.229-.05 8.864-.633 6.688-.145-2.631.59-10.68.306-8.045.935 2.02.482 8.46-.164 6.361 0-1.868.147-7.78.84-5.976.665 1.362-.132 5.204-.325 4.564-.12-1.482.473-6.318.665-5.322.639 1.623-.043 6.49-.404 4.863-.248-.706.067-3.622.484-3.1.363.879-.204 4.148-.327 1.518.165-.954.179-2.573.596-.67.413.951-.092 4.93-.019 2.117-.02-1.042 0-4.722.603-1.693.487.882-.034 3.887.147 1.409.104-1.09-.02-3.11 1.082-.837 1.025 1.042-.027.47.18-.24 1.204-.186.268-.59 1.075.187.562" style="opacity:.60100002;fill:none;fill-opacity:1;stroke:#19b0f8;stroke-width:.60000002;stroke-linecap:butt;stroke-linejoin:round;stroke-miterlimit:4;stroke-dasharray:none;stroke-opacity:.90055249"/><path d="M54.443 137.975c2.66 1.089 5.274-.305 7.99-.09 2.774.218 5.527-.504 8.284-.295 3.92.297 7.768-.439 11.697-.394 8.003.092 16.01.015 24.012.004 2.01-.003 4.019.715 6.014.214m49.392-4.678c-2.372 1.89-5.588 1.385-8.39 1.226a155 155 0 0 0-14.532-.16c-3.21.12-6.401-.947-9.581-.604-2.052.22-4.065-.33-6.105-.262-2.56.085-5.067-.069-7.679-.338-1.68-.174-3.305.485-4.976.512m51.263-11.038c-4.415 1.67-9.079.456-13.67.978-6.369.723-12.746-.287-19.072-.785-5.055-.398-10.191-.382-15.205-1.224-7.518-1.263-15.05.149-22.586.283m-36.295-8.419c11.967.422 23.936.47 35.912.701 4.628.09 9.197.88 13.855.552 5.166-.363 10.316-.054 15.477.288 3.322.22 6.627.74 9.966.704m31.244-5.426c-3.535 1.202-7.217.586-10.748-.117-4.18-.832-8.393-.768-12.627-.325-3.432.359-6.832-.298-10.274-.443-3.997-.17-7.939-.736-11.956-.893-4.304-.168-8.576-.601-12.91-.306-2.507.17-5.013.399-7.528.4m-40.411-6.548c11.97.952 23.896.696 35.947.517 5.546-.082 11.042.049 16.606.244 8.386.293 16.716 1.436 25.118 1.81 2.18.096 4.364.25 6.519.61m22.638-5.239c-2.513 2.097-6.296.847-9.353.705-6.583-.304-13.14-1.122-19.753-.855-4.448.18-8.854-.34-13.222-1.108-4.897-.86-9.797.251-14.728-.21-5.232-.49-10.378.726-15.63.596-2.468-.06-4.964-.104-7.388-.624m-28.251-4.49c6.849-1.043 13.778-.202 20.668-.47 2.656-.103 5.236.69 7.91.369 2.219-.266 4.408.11 6.636.28 3.33.254 6.737.626 10.062.195m64.171-.187c-4.635.84-9.339.175-14.02.24-5.414.074-10.825-1.269-16.248-.665-2.62.292-5.208.12-7.848-.268-2.116-.311-4.207-.788-6.368-.909a50 50 0 0 0-2.662-.082m3.742-3.929c6.97.71 13.874 1.283 20.962 1.039 2.004-.07 3.964.795 5.921.487 2.198-.347 4.35.14 6.544.246 2.074.1 4.132-.077 6.232-.27 2.081-.192 4.173.983 6.202.374l.162-.192M55.752 88.022c5.726.1 11.364 1.335 17.134 1.365 1.795.01 3.54.195 5.363.156 4.054-.086 8.072.536 12.122.81 2.934.199 6.022.648 8.874-.262l.286-.198m-45.649-6.361c4.06.78 8.085 1.014 12.289.854 1.745-.066 3.379-.083 5.18.244 5.659 1.027 11.654-.672 17.142.96 2.723.81 5.66 1.325 8.452.894.294-.046.631.012.902-.146m66.043-2.806c-1.164.695-2.487.653-3.844.605-2.69-.096-5.387-.038-8.08-.044-3.864-.009-7.731.21-11.591.044-1.143-.049-2.343-.002-3.426-.418" style="opacity:1;fill:none;fill-opacity:.29145729;stroke:#1f71f8;stroke-width:.60000002;stroke-linecap:butt;stroke-linejoin:round;stroke-miterlimit:4;stroke-dasharray:none;stroke-opacity:.7845304"/><path d="M122.169 141.53c1.163-1.215 2.992-.653 4.447-.5 1.716.18 3.422.103 5.147-.1 5.415-.634 10.894-.7 16.315-.3 2.014.15 4.09.775 6.083.15M52.572 121.885c6.31-.067 12.645.309 18.933-.224 1.828-.155 3.637.032 5.47.252 1.565.188 3.26.54 4.783-.028M56.127 97.19c.999-.48 1.927.196 2.954.316 3.82.446 7.678-.599 11.477-.004 1.746.274 3.501.96 5.286.656l.114-.033m82.319 6.548c-2.73-.759-5.575-.229-8.357-.223-1.088.002-2.184-.073-3.242-.338m-88.868 5.051c7.93 1.056 15.949.732 23.91 1.49 2.19.209 4.385.38 6.586.38" style="opacity:1;fill:none;fill-opacity:.29145729;stroke:#1f2980;stroke-width:.60000002;stroke-linecap:butt;stroke-linejoin:round;stroke-miterlimit:4;stroke-dasharray:none;stroke-opacity:.23204423"/><g transform="translate(-5.62 10.636)"><ellipse cx="84.924" cy="112.356" rx="10.755" ry="3.937" style="opacity:1;fill:#2ca02c;stroke:#000;stroke-width:.14086863;stroke-miterlimit:4;stroke-dasharray:none;stroke-opacity:1"/><path d="M74.17 97.802h21.512v14.552H74.17z" style="fill:#2ca02c;stroke:#000;stroke-width:.141;stroke-miterlimit:4;stroke-dasharray:none;stroke-opacity:1"/></g><path d="M74.246 112.103H95.61v.456H74.246z" style="fill:#2ca02c;stroke:none;stroke-width:.03521674;stroke-opacity:1" transform="translate(-5.62 10.636)"/><g transform="translate(-5.62 10.636)"><ellipse cx="84.954" cy="95.456" rx="13.089" ry="3.93" style="opacity:1;fill:#2ca02c;stroke:#000;stroke-width:.14096071;stroke-miterlimit:4;stroke-dasharray:none;stroke-opacity:1"/><path d="M71.866 88.14h26.177v7.256H71.866z" style="fill:#2ca02c;stroke:#000;stroke-width:.141;stroke-miterlimit:4;stroke-dasharray:none;stroke-opacity:1"/><path d="M71.936 93.762h26.037v1.859H71.936z" style="fill:#2ca02c;stroke:none;stroke-width:.07848974;stroke-opacity:1"/></g><g transform="translate(-5.62 10.636)"><ellipse cx="84.954" cy="88.088" rx="13.096" ry="3.93" style="opacity:1;fill:#2ca02c;stroke:#000;stroke-width:.141;stroke-miterlimit:4;stroke-dasharray:none;stroke-opacity:1"/><ellipse cx="84.865" cy="87.979" rx="11.113" ry="2.373" style="fill:#000;stroke:#000;stroke-width:.24420536;stroke-opacity:1"/></g><path d="M65.107 124.878c1.11-.3 2.053-.805 3.386-1.118 1.303-.306 2.374.488 3.61.775 1.8.417 3.696-1.642 5.21-.665.917.593 1.926.794 2.995.837 1.531.062 2.96-.727 4.456-.852 1.183-.1 2.217.624 3.325.39.89-.187 1.954-.201 2.683.775.873 1.17-.265 2.041-1.372 2.387-3.445 1.075-7.12 1.011-10.68.862-3.31-.139-6.64.156-9.938-.335-1.097-.164-1.816-1.01-2.905-1.07-.984-.053-.812-1.314-.77-1.986" style="opacity:1;fill:#0081ff;fill-opacity:1;stroke:none;stroke-width:.60000002;stroke-linecap:butt;stroke-linejoin:round;stroke-miterlimit:4;stroke-dasharray:none;stroke-opacity:.90055249" transform="translate(-.561 -.468)"/><path d="M54.069 126.001c7.141.175 14.256.538 21.417.732 3.482.094 6.943.624 10.429.545 3.459-.078 6.89.202 10.358.192 3.641-.01 7.256-.093 10.911.313 3.236.36 6.489.628 9.746.65" style="opacity:1;fill:none;fill-opacity:.29145729;stroke:#1f71f8;stroke-width:.60000002;stroke-linecap:butt;stroke-linejoin:round;stroke-miterlimit:4;stroke-dasharray:none;stroke-opacity:.7845304"/><path d="M133.394 112.905c3.423-.33 6.795.655 10.206.82 1.46.07 2.907.173 4.375.212 2.027.054 4.04-.074 6.076.287 1.831.325 3.672.687 5.536.739M59.307 142.09c1.492-.485 3.056-.858 4.665-.755 2.618.168 5.227.364 7.856.4 7.054.097 14.1.543 21.155.543m41.347-55.753c4.736-.014 9.47.138 14.208.155 1.904.007 3.797.148 5.7.24 1.333.065 2.67-.08 4.01-.002.212.013.438-.235.216-.393m-46.024 9.168c5.362.138 10.96 1.898 16.09.33 1.737-.531 3.226.82 4.883.312 1.514-.464 2.978.14 4.513.177 1.977.046 3.982.186 5.945-.071" style="opacity:1;fill:none;fill-opacity:.29145729;stroke:#1f2980;stroke-width:.60000002;stroke-linecap:butt;stroke-linejoin:round;stroke-miterlimit:4;stroke-dasharray:none;stroke-opacity:.23204423"/><g transform="translate(53.326 11.574)"><ellipse cx="84.924" cy="112.356" rx="10.755" ry="3.937" style="opacity:1;fill:#2ca02c;stroke:#000;stroke-width:.14086863;stroke-miterlimit:4;stroke-dasharray:none;stroke-opacity:1"/><path d="M74.17 97.802h21.512v14.552H74.17z" style="fill:#2ca02c;stroke:#000;stroke-width:.141;stroke-miterlimit:4;stroke-dasharray:none;stroke-opacity:1"/></g><path d="M74.246 112.103H95.61v.456H74.246z" style="fill:#2ca02c;stroke:none;stroke-width:.03521674;stroke-opacity:1" transform="translate(53.326 11.574)"/><g transform="translate(53.326 11.574)"><ellipse cx="84.954" cy="95.456" rx="13.089" ry="3.93" style="opacity:1;fill:#2ca02c;stroke:#000;stroke-width:.14096071;stroke-miterlimit:4;stroke-dasharray:none;stroke-opacity:1"/><path d="M71.866 88.14h26.177v7.256H71.866z" style="fill:#2ca02c;stroke:#000;stroke-width:.141;stroke-miterlimit:4;stroke-dasharray:none;stroke-opacity:1"/><path d="M71.936 93.762h26.037v1.859H71.936z" style="fill:#2ca02c;stroke:none;stroke-width:.07848974;stroke-opacity:1"/></g><g transform="translate(53.326 11.574)"><ellipse cx="84.954" cy="88.088" rx="13.096" ry="3.93" style="opacity:1;fill:#2ca02c;stroke:#000;stroke-width:.141;stroke-miterlimit:4;stroke-dasharray:none;stroke-opacity:1"/><ellipse cx="84.865" cy="87.979" rx="11.113" ry="2.373" style="fill:#000;stroke:#000;stroke-width:.24420536;stroke-opacity:1"/></g><path d="M125.724 124.972c1.286-1.04 3.195-1.915 4.73-1.302 1.596.638 3.468 2.105 5.096 1.248 1.117-.589 2.372-1.688 3.633-.779 1.514 1.092 3.526.76 4.973-.08 1.531-.888 3.034 1.276 4.392.539 1.396-.758 2.868.227 4.284.013 1.7-.258 3.586.119 4.927 1.121 1.81 1.352-.546 2.276-2.272 2.622-2.18.437-4.416.531-6.608.904-2.462.419-4.85 1.27-7.346 1.42-1.559.094-3.089.336-4.64.515-1.51.175-2.999-.054-4.487-.283-1.746-.268-3.412-.896-5.125-1.335-1.281-.33-3.417-.804-2.727-2.736.278-.78 1.621-1.619.983-2.428" style="opacity:1;fill:#0081ff;fill-opacity:1;stroke:none;stroke-width:.60000002;stroke-linecap:butt;stroke-linejoin:round;stroke-miterlimit:4;stroke-dasharray:none;stroke-opacity:.90055249"/><path d="M160.522 128.62c.243 1.68-2.041.599-3.033.548-3.232-.167-6.444-.595-9.694-.53-3.527.07-7.043-.155-10.57-.475-1.523-.138-3.079.08-4.58-.291M63.049 86.9c5.163.245 10.332.69 15.501.528 1.06-.033 2.213-.386 3.208.033 1.16.488 2.486.455 3.727.426 1.001-.024 2.036.033 3.008-.24" style="opacity:1;fill:none;fill-opacity:.29145729;stroke:#1f2980;stroke-width:.60000002;stroke-linecap:butt;stroke-linejoin:round;stroke-miterlimit:4;stroke-dasharray:none;stroke-opacity:.23204423"/><path d="M128.72 100.944c.788-.888 1.824-1.592 2.953-1.856.76-.178 1.482-.484 2.272-.559.907-.085 1.812-.218 2.735-.2.83.017 1.667.072 2.474.243 1.243.264 2.506.376 3.676 1.04.679.384 1.362.624 2.117.888.403.14 1.66 1.017.506.988-1.052-.026-2.07-.412-3.116-.402-1.099.01-2.15-.34-3.253-.366-1.087-.027-2.172-.145-3.258-.083-.987.055-1.962.174-2.954.185-1.285.015-2.586-.127-3.854.108l-.119.008-.18.006z" style="opacity:1;fill:#06f;fill-opacity:1;stroke:#1f2980;stroke-width:.60000002;stroke-linecap:butt;stroke-linejoin:round;stroke-miterlimit:4;stroke-dasharray:none;stroke-opacity:.23204423"/><path d="M128.72 100.944c2.683.73 2.834.702 2.844.694 1.266.113 2.468.302 3.803.331.92.07 1.844.107 2.779.1 1.521.024 3-.028 4.455-.205l1.597-.181 1.475-.22-.09-.253-6.677-1.126-7.706.033z" style="fill:#06f;fill-opacity:1;stroke:none;stroke-width:.26458332px;stroke-linecap:butt;stroke-linejoin:miter;stroke-opacity:1"/><ellipse cx="136.54" cy="99.236" rx=".877" ry=".246" style="opacity:1;fill:#00002d;fill-opacity:1;stroke:none;stroke-width:.60000002;stroke-linecap:butt;stroke-linejoin:round;stroke-miterlimit:4;stroke-dasharray:none;stroke-opacity:.23204423"/><g style="fill:#13c9fe;fill-opacity:.65829145;stroke:#0056e3;stroke-width:.2;stroke-miterlimit:4;stroke-dasharray:none;stroke-opacity:1"><path d="M135.974 99.395c.178-1.064.287-2.117.353-3.21.014-.246 0-.857.021-.96.14-.69.02-2.274.152-3.3.137-1.066-.974-2.7-1.754-2.059-.887.73-1.182 1.92-1.946 2.719-.73.764-1.535 2.763-2.41 2.103-.946-.714.608-2.152.965-3.006.268-.64 1.81-2.544 1.123-2.204-1.344.665-2.697 1.351-3.927 2.23-.792.565-3.003.557-2.145-.896.712-1.206 1.885-1.96 3.041-2.634 1.26-.735 2.587-1.545 4.032-1.678 1.494-.137 2.906-.657 4.43-.717 1.468-.058 2.782.74 4.218.953 1.288.19 2.05 1.303 2.904 2.163.738.743 1.008 1.74 1.492 2.658.357.676 1.17 1.973-.335 1.686-.929-.177-1.511-1.202-2.274-1.747-.692-.494-3.342-1.96-2.734-.95.656 1.088 1.92 1.51 2.404 2.89.504 1.433-1.314 1.124-1.925.453-.672-.738-1.433-1.168-2.142-2.005-.589-.695-1.243-.535-1.376.45-.14 1.04-.531 2.028-.666 3.042a49 49 0 0 0-.38 3.98m11.667-5.821c.236.077.4.282.5.498.07.153.207.257.257.422.11.362.19.748.141 1.124-.016.127-.016.328-.158.357-.135.028-.253-.073-.36-.14-.272-.168-.629-.32-.722-.623-.051-.166.065-.337-.016-.505-.116-.24-.115-.56.085-.76a.6.6 0 0 1 .405-.174m-24.077.86c.196-.251.548-.411.864-.289.171.067.252.261.213.436-.087.385-.346.71-.63.97-.268.246-.578.48-.946.55a.405.405 0 0 1-.444-.25c-.11-.274.054-.558.22-.77.34-.435.836-.727 1.159-1.174.067-.093.148-.216.093-.333" style="opacity:1;fill:#13c9fe;fill-opacity:.65829145;stroke:#0056e3;stroke-width:.2;stroke-linecap:butt;stroke-linejoin:round;stroke-miterlimit:4;stroke-dasharray:none;stroke-opacity:1"/><path d="M145.058 94.33c.288.187.543.435.698.744.152.302.342.592.427.922.027.106.052.282-.087.313a1 1 0 0 1-.617-.051c-.426-.198-.774-.623-.786-1.106-.008-.313.145-.608.365-.823zm-12.568 1.851c.172-.357.32-.74.621-1.016.265-.243.546-.495.896-.61.158-.052.344.025.398.187.105.314.03.655-.078.956-.157.437-.404.866-.796 1.133-.243.164-.589.204-.829.03-.12-.087-.31-.167-.306-.338.006-.27.085-.534.094-.805" style="opacity:1;fill:#13c9fe;fill-opacity:.65829145;stroke:#0056e3;stroke-width:.2;stroke-linecap:butt;stroke-linejoin:round;stroke-miterlimit:4;stroke-dasharray:none;stroke-opacity:1"/></g><path d="M86.188 100.547c.855-1.589 1.111-3.516 2.4-4.843.99-1.017 2.083-1.866 3.448-2.23 1.512-.402 2.996-.374 4.56-.647 1.262-.22 2.957 1.99 3.218 1.313.604-1.566-.722-2.568-1.843-3.396-1.89-1.395-4.775-2.52-6.635-1.267-1.57 1.057-1.283-1.475-2.162-2.45-1.641-1.82-8.56-4.01-6.492-2.818 1.173.676 2.256 2.02 2.12 3.424-.152 1.56-1.208 2.826-2.186 3.984-.69.818-1.75 1.575-2.658 2.313-.914.743-1.86 1.437-2.766 1.92-.968.517-1.637 1.326-2.549 2.071-.892.73-1.574 1.625-2.28 2.494" style="opacity:1;fill:#06f;fill-opacity:1;stroke:#0757e1;stroke-width:.2;stroke-linecap:butt;stroke-linejoin:round;stroke-miterlimit:4;stroke-dasharray:none;stroke-opacity:1"/><path d="M72.374 100.358c-.034.186-.037.248-.037.248l.9.141 1.36.15 1.39.116 1.298.08 1.976.035 1.546-.027 1.676-.06 1.51-.126 1.39-.147.666-.127.208-.034-.059-.107" style="fill:#06f;fill-opacity:1;stroke:none;stroke-width:.27356979px;stroke-linecap:butt;stroke-linejoin:miter;stroke-opacity:1"/></g></svg>