<?xml version="1.0" encoding="UTF-8" standalone="no"?>
<!-- Generator: Adobe Illustrator 15.0.0, SVG Export Plug-In . SVG Version: 6.00 Build 0)  -->

<svg
   enable-background="new 0 0 800 600"
   xml:space="preserve"
   height="145.80391"
   viewBox="0 0 170.11645 145.80205"
   width="170.11748"
   version="1.1"
   y="0px"
   x="0px"
   id="svg38"
   sodipodi:docname="redisinsight.svg"
   inkscape:version="1.1.2 (0a00cf5339, 2022-02-04, custom)"
   xmlns:inkscape="http://www.inkscape.org/namespaces/inkscape"
   xmlns:sodipodi="http://sodipodi.sourceforge.net/DTD/sodipodi-0.dtd"
   xmlns="http://www.w3.org/2000/svg"
   xmlns:svg="http://www.w3.org/2000/svg"
   xmlns:rdf="http://www.w3.org/1999/02/22-rdf-syntax-ns#"
   xmlns:cc="http://creativecommons.org/ns#"
   xmlns:dc="http://purl.org/dc/elements/1.1/"><defs
     id="defs42" /><sodipodi:namedview
     id="namedview40"
     pagecolor="#ffffff"
     bordercolor="#666666"
     borderopacity="1.0"
     inkscape:pageshadow="2"
     inkscape:pageopacity="0.0"
     inkscape:pagecheckerboard="0"
     showgrid="false"
     fit-margin-top="0"
     fit-margin-left="0"
     fit-margin-right="0"
     fit-margin-bottom="0"
     inkscape:zoom="2.2637796"
     inkscape:cx="229.04173"
     inkscape:cy="72.886954"
     inkscape:window-width="1920"
     inkscape:window-height="1009"
     inkscape:window-x="-8"
     inkscape:window-y="-8"
     inkscape:window-maximized="1"
     inkscape:current-layer="g36" /><metadata
     id="metadata2"><rdf:RDF><cc:Work
         rdf:about=""><dc:format>image/svg+xml</dc:format><dc:type
           rdf:resource="http://purl.org/dc/dcmitype/StillImage" /></cc:Work></rdf:RDF></metadata><g
     transform="translate(-171.32186,-227.11347)"
     id="g36"><path
       fill="#a41e11"
       d="m 334.77,339.54 c -9.078,4.732 -56.106,24.068 -66.118,29.287 -10.012,5.221 -15.574,5.17 -23.483,1.389 -7.909,-3.781 -57.955,-23.996 -66.97,-28.305 -4.506,-2.154 -6.875,-3.971 -6.875,-5.688 v -17.195 c 0,0 65.153,-14.184 75.672,-17.957 10.518,-3.774 14.167,-3.91 23.118,-0.631 8.952,3.279 62.474,12.936 71.321,16.176 0,0 -0.004,15.357 -0.004,16.951 0.001,1.7 -2.04,3.565 -6.661,5.973 z"
       id="path14" /><path
       fill="#d82c20"
       d="m 334.77,322.34 c -9.078,4.73 -56.106,24.068 -66.118,29.287 -10.012,5.221 -15.574,5.17 -23.483,1.389 -7.91,-3.779 -57.955,-23.998 -66.97,-28.305 -9.015,-4.309 -9.204,-7.275 -0.348,-10.742 8.855,-3.469 58.626,-22.996 69.146,-26.77 10.518,-3.772 14.167,-3.91 23.118,-0.63 8.952,3.279 55.699,21.886 64.545,25.126 8.848,3.243 9.188,5.913 0.11,10.645 z"
       id="path16" /><path
       fill="#a41e11"
       d="m 334.77,311.5 c -9.078,4.732 -56.106,24.068 -66.118,29.289 -10.012,5.219 -15.574,5.168 -23.483,1.387 -7.91,-3.779 -57.955,-23.996 -66.97,-28.305 -4.506,-2.154 -6.875,-3.969 -6.875,-5.686 v -17.197 c 0,0 65.153,-14.183 75.672,-17.957 10.518,-3.773 14.167,-3.91 23.118,-0.631 8.952,3.279 62.474,12.934 71.321,16.175 0,0 -0.004,15.357 -0.004,16.953 0.001,1.699 -2.04,3.564 -6.661,5.972 z"
       id="path18" /><path
       fill="#d82c20"
       d="m 334.77,294.3 c -9.078,4.732 -56.106,24.068 -66.118,29.289 -10.012,5.219 -15.574,5.168 -23.483,1.387 -7.91,-3.779 -57.955,-23.997 -66.97,-28.305 -9.015,-4.308 -9.204,-7.274 -0.348,-10.743 8.855,-3.467 58.626,-22.995 69.146,-26.768 10.518,-3.773 14.167,-3.91 23.118,-0.631 8.952,3.279 55.699,21.885 64.545,25.126 8.848,3.242 9.188,5.913 0.11,10.645 z"
       id="path20" /><path
       fill="#a41e11"
       d="m 334.77,282.42 c -9.078,4.732 -56.106,24.069 -66.118,29.29 -10.012,5.219 -15.574,5.168 -23.483,1.387 -7.91,-3.779 -57.955,-23.997 -66.97,-28.305 -4.506,-2.154 -6.875,-3.97 -6.875,-5.686 v -17.197 c 0,0 65.153,-14.183 75.672,-17.956 10.518,-3.774 14.167,-3.91 23.118,-0.631 8.952,3.279 62.474,12.934 71.321,16.175 0,0 -0.004,15.357 -0.004,16.952 0.001,1.698 -2.04,3.563 -6.661,5.971 z"
       id="path22" /><path
       fill="#d82c20"
       d="m 334.77,265.22 c -9.078,4.732 -56.106,24.069 -66.118,29.289 -10.012,5.219 -15.574,5.168 -23.483,1.388 -7.909,-3.78 -57.955,-23.997 -66.97,-28.305 -9.015,-4.308 -9.204,-7.275 -0.348,-10.743 8.855,-3.468 58.626,-22.994 69.146,-26.768 10.518,-3.774 14.167,-3.91 23.118,-0.63 8.952,3.279 55.699,21.885 64.545,25.126 8.848,3.24 9.188,5.912 0.11,10.643 z"
       id="path24" /><polygon
       points="260.63,258.13 255.3,249.27 238.28,247.74 250.98,243.16 247.17,236.13 259.06,240.78 270.27,237.11 267.24,244.38 278.67,248.66 263.93,250.19 "
       fill="#ffffff"
       id="polygon26" /><polygon
       points="271.66,269.72 259.75,287.18 232.24,275.77 "
       fill="#ffffff"
       id="polygon28" /><ellipse
       cx="221.61"
       rx="21.069"
       ry="8.1669998"
       cy="261.23999"
       fill="#ffffff"
       id="ellipse30" /><polygon
       points="296.11,269.26 296.09,250.83 319.42,260.05 "
       fill="#7a0c00"
       id="polygon32" /><polygon
       points="296.11,269.26 293.58,270.25 270.28,261.04 296.09,250.83 "
       fill="#ad2115"
       id="polygon34" /></g></svg>
