<svg xmlns:xlink="http://www.w3.org/1999/xlink" viewBox="0 0 126 126" xmlns="http://www.w3.org/2000/svg"><defs><linearGradient id="a"><stop offset="0" stop-color="#babdb6"/><stop offset="1" stop-color="#4e9a06"/></linearGradient><linearGradient id="b"><stop offset="0" stop-color="#f1f1f0"/><stop offset="1" stop-color="#FFF"/></linearGradient><linearGradient id="c"><stop offset="0" stop-color="#FFF"/><stop offset="1" stop-color="#FFF" stop-opacity="0"/></linearGradient><linearGradient xlink:href="#a" id="e" x1="23.25" x2="23.25" y1="39.25" y2="40.63" gradientTransform="translate(162.333 -112.444) scale(2.77777)" gradientUnits="userSpaceOnUse"/><linearGradient xlink:href="#b" id="f" x1="7.5" x2="10.25" y1="-.377" y2="16.88" gradientTransform="matrix(2.76744 0 0 2.76923 162.581 -112.192)" gradientUnits="userSpaceOnUse"/><linearGradient xlink:href="#c" id="g" x1="10.88" x2="17.88" y1="5.625" y2="17.75" gradientTransform="matrix(2.76744 0 0 2.76923 162.581 -112.192)" gradientUnits="userSpaceOnUse"/><filter id="j" width="1.106" height="1.106" x="-.053" y="-.053"><feGaussianBlur stdDeviation=".308"/></filter><filter id="i" width="1.076" height="1.073" x="-.038" y="-.037"><feGaussianBlur stdDeviation=".308"/></filter><filter id="h" width="1.031" height="1.034" x="-.016" y="-.017"><feGaussianBlur stdDeviation=".568"/></filter><filter id="d" width="1.036" height="1.072" x="-.018" y="-.036"><feGaussianBlur stdDeviation=".909"/></filter></defs><g transform="translate(-166 106)"><rect width="125" height="89" x="166.5" y="-69.5" fill="#8ae234" fill-rule="evenodd" stroke="#4e9a06" color="#000" enable-background="accumulate" rx="17" ry="17"/><rect width="121" height="60.83" x="168.5" y="-15.5" fill="#73d216" fill-rule="evenodd" color="#000" enable-background="accumulate" filter="url(#d)" rx="16.18" ry="16" transform="matrix(.98912 0 0 -1 2.491 .318)"/><rect width="125" height="113.9" x="166.5" y="-105.5" fill="#fff" fill-rule="evenodd" stroke="url(#e)" color="#000" enable-background="accumulate" rx="16.67" ry="16.67"/><rect width="119" height="108" x="169.5" y="-102.5" fill="url(#f)" fill-rule="evenodd" stroke="url(#g)" color="#000" enable-background="accumulate" filter="url(#h)" rx="14" ry="14"/><path fill="#4e9a06" stroke="#418005" stroke-linecap="round" stroke-linejoin="round" stroke-width=".36" d="m128-8.5 1.888 1.283 4.97 12.17 4.237 11.547h2.35l4.815-12.442c1.54-4.043 3.968-9.836 4.931-11.78l.847-.778h-2.465l.038.194-3.813 10.537-4.276 10.381-.501-.078-3.66-9.292-4.276-11.12c-.038-.233-.038-.428-.038-.622H128" filter="url(#i)" opacity=".1" style="text-align:start" transform="translate(-140.444 -51.333) scale(2.77777)"/><path fill="#4e9a06" d="m213.722-76.333 5.244 3.564 13.804 33.804 11.77 32.076h6.528l13.376-34.56c4.28-11.232 11.022-27.324 13.697-32.724l2.354-2.16h-6.848l.107.54-10.594 29.268-11.878 28.836-1.391-.216-10.166-25.812-11.878-30.888c-.107-.648-.107-1.188-.107-1.728h-14.018" style="text-align:start"/><path fill="#96d15c" stroke="#6cac2d" stroke-width=".36" d="M124.2-.808a8.66 8.66 0 0 0-8.659 8.66c0 4.78 3.877 8.647 8.659 8.647a8.643 8.643 0 0 0 8.649-8.648c0-4.78-3.867-8.659-8.649-8.659zm0 1.371c3.022 0 5.467 3.268 5.467 7.29 0 4.02-2.445 7.277-5.467 7.277s-5.478-3.257-5.478-7.278c0-4.02 2.455-7.289 5.478-7.289z" filter="url(#j)" opacity=".1" transform="translate(-140.444 -51.333) scale(2.77777)"/><path fill="#96d15c" d="M203.1-54.97c-13.28 0-24.05 10.77-24.05 24.05 0 13.28 10.77 24.02 24.05 24.02 13.28 0 24.02-10.74 24.02-24.02s-10.74-24.05-24.02-24.05zm0 3.807c8.396 0 15.19 9.077 15.19 20.25s-6.791 20.22-15.19 20.22c-8.396 0-15.22-9.047-15.22-20.22 0-11.173 6.821-20.25 15.22-20.25z"/></g></svg>