<svg height="126" width="126" xmlns:xlink="http://www.w3.org/1999/xlink" xmlns="http://www.w3.org/2000/svg"><defs><linearGradient id="prefix__a"><stop stop-color="#babdb6" offset="0"/><stop stop-color="#4e9a06" offset="1"/></linearGradient><linearGradient id="prefix__b"><stop stop-color="#f1f1f0" offset="0"/><stop stop-color="#FFF" offset="1"/></linearGradient><linearGradient id="prefix__c"><stop stop-color="#FFF" offset="0"/><stop stop-color="#FFF" stop-opacity="0" offset="1"/></linearGradient><linearGradient id="prefix__e" x1="23.25" xlink:href="#prefix__a" gradientUnits="userSpaceOnUse" y1="39.25" gradientTransform="translate(162.333 -112.444) scale(2.77777)" x2="23.25" y2="40.63"/><linearGradient id="prefix__h" x1="7.5" xlink:href="#prefix__b" gradientUnits="userSpaceOnUse" y1="-.377" gradientTransform="matrix(2.76744 0 0 2.76923 162.581 -112.192)" x2="10.25" y2="16.88"/><linearGradient id="prefix__g" x1="10.88" xlink:href="#prefix__c" gradientUnits="userSpaceOnUse" y1="5.625" gradientTransform="matrix(2.76744 0 0 2.76923 162.581 -112.192)" x2="17.88" y2="17.75"/><filter id="prefix__j" x="-.053" y="-.053" width="1.106" height="1.106"><feGaussianBlur stdDeviation=".308"/></filter><filter id="prefix__i" x="-.038" y="-.037" width="1.076" height="1.073"><feGaussianBlur stdDeviation=".308"/></filter><filter id="prefix__f" x="-.016" y="-.017" width="1.031" height="1.034"><feGaussianBlur stdDeviation=".568"/></filter><filter id="prefix__d" x="-.018" y="-.036" width="1.036" height="1.072"><feGaussianBlur stdDeviation=".909"/></filter></defs><g transform="translate(-166 106)"><rect fill-rule="evenodd" rx="17" ry="17" height="89" width="125" stroke="#4e9a06" x="166.5" y="-69.5" fill="#8ae234" color="#000" enable-background="accumulate"/><rect transform="matrix(.98912 0 0 -1 2.491 .318)" fill-rule="evenodd" rx="16.18" ry="16" height="60.83" filter="url(#prefix__d)" width="121" y="-15.5" x="168.5" fill="#73d216" color="#000" enable-background="accumulate"/><rect fill-rule="evenodd" rx="16.67" ry="16.67" height="113.9" width="125" stroke="url(#prefix__e)" x="166.5" y="-105.5" fill="#fff" color="#000" enable-background="accumulate"/><rect fill-rule="evenodd" rx="14" ry="14" height="108" filter="url(#prefix__f)" width="119" stroke="url(#prefix__g)" x="169.5" y="-102.5" fill="url(#prefix__h)" color="#000" enable-background="accumulate"/><path stroke-linejoin="round" opacity=".1" style="text-align:start" d="M128-8.5l1.888 1.283 4.97 12.17 4.237 11.547h2.35l4.815-12.442c1.54-4.043 3.968-9.836 4.931-11.78l.847-.778h-2.465l.038.194-3.813 10.537-4.276 10.381-.501-.078-3.66-9.292-4.276-11.12c-.038-.233-.038-.428-.038-.622H128" transform="translate(-140.444 -51.333) scale(2.77777)" filter="url(#prefix__i)" stroke="#418005" stroke-linecap="round" stroke-width=".36" fill="#4e9a06"/><path style="text-align:start" d="M213.722-76.333l5.244 3.564 13.804 33.804 11.77 32.076h6.528l13.376-34.56c4.28-11.232 11.022-27.324 13.697-32.724l2.354-2.16h-6.848l.107.54-10.594 29.268-11.878 28.836-1.391-.216-10.166-25.812-11.878-30.888c-.107-.648-.107-1.188-.107-1.728h-14.018" fill="#4e9a06"/><path opacity=".1" d="M124.2-.808a8.66 8.66 0 00-8.659 8.66c0 4.78 3.877 8.647 8.659 8.647a8.643 8.643 0 008.649-8.648c0-4.78-3.867-8.659-8.649-8.659zm0 1.371c3.022 0 5.467 3.268 5.467 7.29 0 4.02-2.445 7.277-5.467 7.277s-5.478-3.257-5.478-7.278c0-4.02 2.455-7.289 5.478-7.289z" transform="translate(-140.444 -51.333) scale(2.77777)" filter="url(#prefix__j)" stroke="#6cac2d" stroke-width=".36" fill="#96d15c"/><path d="M203.1-54.97c-13.28 0-24.05 10.77-24.05 24.05 0 13.28 10.77 24.02 24.05 24.02 13.28 0 24.02-10.74 24.02-24.02s-10.74-24.05-24.02-24.05zm0 3.807c8.396 0 15.19 9.077 15.19 20.25s-6.791 20.22-15.19 20.22c-8.396 0-15.22-9.047-15.22-20.22 0-11.173 6.821-20.25 15.22-20.25z" fill="#96d15c"/></g></svg>