<?xml version="1.0" encoding="UTF-8"?>
<svg width="64.956mm" height="64.956mm" version="1.1" viewBox="0 0 64.956 64.956" xmlns="http://www.w3.org/2000/svg">
 <defs>
  <linearGradient id="a" x1="104" x2="200" y1="44" y2="268" gradientTransform="matrix(.26458 0 0 .26458 -202.75 -217.02)" gradientUnits="userSpaceOnUse">
   <stop stop-color="#fff" offset="0"/>
   <stop stop-color="#fff" offset="1"/>
  </linearGradient>
  <filter id="b" x="-.012" y="-.012" width="1.024" height="1.024" color-interpolation-filters="sRGB">
   <feGaussianBlur stdDeviation="1.12"/>
  </filter>
 </defs>
 <g transform="translate(-130.05 -144.33)">
  <circle transform="matrix(.26458 0 0 .26458 130.05 144.33)" cx="122.75" cy="120.75" r="112" enable-background="new" filter="url(#b)" opacity=".1"/>
  <circle cx="162.53" cy="175.75" r="30.162" enable-background="new" opacity=".1"/>
  <circle transform="scale(-1)" cx="-162.53" cy="-175.75" r="29.633" enable-background="new" fill="url(#a)"/>
  <g transform="matrix(.66107 0 0 .66107 137.13 150.4)" enable-background="new">
   <polygon class="st1" points="20.618 38.831 20.618 48.012 43.32 32.877 20.618 17.742 20.618 26.923 29.549 32.877" fill="#20aa73"/>
   <polygon class="st2" points="55.388 38.143 55.388 28.962 32.685 44.097 55.388 59.232 55.388 50.051 46.457 44.097" fill="#4a93dd"/>
   <path class="st1" d="m64.776 23.074c2.632 4.509 4.147 9.75 4.147 15.348 0 16.845-13.656 30.5-30.5 30.5-9.922 0-18.734-4.741-24.304-12.077l-6.589 4.393c7.005 9.461 18.243 15.607 30.892 15.607 21.186 0 38.423-17.236 38.423-38.423 0-7.215-2.002-13.97-5.476-19.744z" fill="#20aa73"/>
   <path class="st2" d="m7.922 38.423c0-16.845 13.656-30.5 30.5-30.5 9.826 0 18.561 4.652 24.139 11.868l6.596-4.397c-7.015-9.341-18.181-15.394-30.734-15.394-21.187 0-38.423 17.236-38.423 38.423 0 7.12 1.954 13.789 5.343 19.513l6.594-4.396c-2.55-4.457-4.015-9.615-4.015-15.117z" fill="#4a93dd"/>
  </g>
 </g>
</svg>
