<svg viewBox="0 0 64.956 64.956" xmlns="http://www.w3.org/2000/svg"><defs><linearGradient id="b" x1="104" x2="200" y1="44" y2="268" gradientTransform="translate(-202.75 -217.02) scale(.26458)" gradientUnits="userSpaceOnUse"><stop offset="0" stop-color="#fff"/><stop offset="1" stop-color="#fff"/></linearGradient><filter id="a" width="1.024" height="1.024" x="-.012" y="-.012" color-interpolation-filters="sRGB"><feGaussianBlur stdDeviation="1.12"/></filter></defs><g transform="translate(-130.05 -144.33)"><circle cx="122.75" cy="120.75" r="112" enable-background="new" filter="url(#a)" opacity=".1" transform="translate(130.05 144.33) scale(.26458)"/><circle cx="162.53" cy="175.75" r="30.162" enable-background="new" opacity=".1"/><circle cx="-162.53" cy="-175.75" r="29.633" fill="url(#b)" enable-background="new" transform="scale(-1)"/><path fill="#20aa73" d="M150.76 176.07v6.07l15.008-10.006-15.008-10.005v6.069l5.904 3.936z" class="st1"/><path fill="#4a93dd" d="M173.745 175.615v-6.07l-15.008 10.006 15.008 10.005v-6.069l-5.904-3.936z" class="st2"/><path fill="#20aa73" d="M179.951 165.654a20.06 20.06 0 0 1 2.742 10.146c0 11.135-9.028 20.162-20.163 20.162-6.559 0-12.384-3.134-16.066-7.983l-4.356 2.904c4.63 6.254 12.06 10.317 20.422 10.317 14.005 0 25.4-11.394 25.4-25.4 0-4.77-1.324-9.236-3.62-13.053z" class="st1"/><path fill="#4a93dd" d="M142.367 175.8c0-11.135 9.028-20.162 20.163-20.162 6.495 0 12.27 3.075 15.957 7.845l4.36-2.906C178.21 154.4 170.83 150.4 162.53 150.4c-14.006 0-25.4 11.394-25.4 25.4a25.24 25.24 0 0 0 3.532 12.9l4.36-2.906a20.06 20.06 0 0 1-2.655-9.994z" class="st2"/></g></svg>