<svg xmlns="http://www.w3.org/2000/svg" viewBox="0 0 140 140"><linearGradient id="prefix__a" gradientUnits="userSpaceOnUse" x1="63.166" y1="62.628" x2="107.666" y2="110.628"><stop offset="0" stop-color="#22adf6"/><stop offset="1" stop-color="#9394ff"/></linearGradient><path d="M136.7 90.2v-.3l-15.5-67c0-.1-.1-.2-.1-.3v-.1c-.1-.1-.2-.2-.3-.2-.1 0-.2-.1-.2-.1L54.8 2h-.3c-.1 0-.2 0-.4.1-.1 0-.2.1-.3.2L3.6 49.2c-.1.1-.2.2-.2.3v.1c0 .1-.1.2-.1.3v.3l15.5 67c0 .1.1.2.1.2.1.1.1.2.2.3l.1.1c.1.1.2.1.3.2l65.7 20h.3c.1 0 .2 0 .3-.1h.1c.1 0 .1-.1.2-.1l50.3-46.9.2-.2c.1-.2.1-.3.1-.5 0 .1 0 .1 0 0zM21 116.2l11-36.1 63.8 19.5-11 36.1L21 116.2zM6.1 53.3l24.1 25.9L19.8 113 6.1 53.3zm89.6 44.3L33.3 78.5 81 33.9l10.7 46.5 4 17.2zM31.4 77.5L5.7 49.9 54.5 4.4 80.2 32 31.4 77.5zm66.4 20.3l-15-65.1 36.7-8.5 15 65.1-36.7 8.5zM81.9 30.9L57.8 5l58.6 18-34.5 7.9zm16 69l34.5-8-44.8 41.8 10.3-33.8z" fill="url(#prefix__a)"/></svg>