<svg xml:space="preserve" viewBox="0 0 130 94" xmlns="http://www.w3.org/2000/svg"><path fill="#FFF" d="M62 30h64v60H62z"/><path fill="#585858" d="M124 94H64c-3.3 0-6-2.7-6-6V32c0-3.3 2.7-6 6-6h60c3.3 0 6 2.7 6 6v56c0 3.3-2.7 6-6 6M64 30c-1.1 0-2 .9-2 2v56c0 1.1.9 2 2 2h60c1.1 0 2-.9 2-2V32c0-1.1-.9-2-2-2z"/><path fill="#585858" d="M76 42c0 1.1-.9 2-2 2h-4c-1.1 0-2-.9-2-2v-4c0-1.1.9-2 2-2h4c1.1 0 2 .9 2 2zm0 24c0 1.1-.9 2-2 2h-4c-1.1 0-2-.9-2-2v-4c0-1.1.9-2 2-2h4c1.1 0 2 .9 2 2zm0-12c0 1.1-.9 2-2 2h-4c-1.1 0-2-.9-2-2v-4c0-1.1.9-2 2-2h4c1.1 0 2 .9 2 2zm44-12c0 1.1-.9 2-2 2H82c-1.1 0-2-.9-2-2v-4c0-1.1.9-2 2-2h36c1.1 0 2 .9 2 2zm0 12c0 1.1-.9 2-2 2H82c-1.1 0-2-.9-2-2v-4c0-1.1.9-2 2-2h36c1.1 0 2 .9 2 2zm0 28c0 1.1-.9 2-2 2H82c-1.1 0-2-.9-2-2V62c0-1.1.9-2 2-2h36c1.1 0 2 .9 2 2z"/><g fill="#FFF"><path d="M99.3 74.8c.8.8.8 2 0 2.8L97.9 79c-.8.8-2 .8-2.8 0l-5.7-5.7c-.8-.8-.8-2 0-2.8l1.4-1.4c.8-.8 2-.8 2.8 0z"/><path d="M107.8 66.3c.8.8.8 2 0 2.8L97.9 79c-.8.8-2 .8-2.8 0l-1.4-1.4c-.8-.8-.8-2 0-2.8l9.9-9.9c.8-.8 2-.8 2.8 0z"/></g><path fill="#FFF" d="M4 31h64v48H4z"/><path fill="#585858" d="M22 45c0 1.1-.9 2-2 2h-4c-1.1 0-2-.9-2-2v-4c0-1.1.9-2 2-2h4c1.1 0 2 .9 2 2zm12 0c0 1.1-.9 2-2 2h-4c-1.1 0-2-.9-2-2v-4c0-1.1.9-2 2-2h4c1.1 0 2 .9 2 2zm12 0c0 1.1-.9 2-2 2h-4c-1.1 0-2-.9-2-2v-4c0-1.1.9-2 2-2h4c1.1 0 2 .9 2 2zm12 0c0 1.1-.9 2-2 2h-4c-1.1 0-2-.9-2-2v-4c0-1.1.9-2 2-2h4c1.1 0 2 .9 2 2zM22 57c0 1.1-.9 2-2 2h-4c-1.1 0-2-.9-2-2v-4c0-1.1.9-2 2-2h4c1.1 0 2 .9 2 2zm12 0c0 1.1-.9 2-2 2h-4c-1.1 0-2-.9-2-2v-4c0-1.1.9-2 2-2h4c1.1 0 2 .9 2 2zm12 0c0 1.1-.9 2-2 2h-4c-1.1 0-2-.9-2-2v-4c0-1.1.9-2 2-2h4c1.1 0 2 .9 2 2zm12 0c0 1.1-.9 2-2 2h-4c-1.1 0-2-.9-2-2v-4c0-1.1.9-2 2-2h4c1.1 0 2 .9 2 2zM22 69c0 1.1-.9 2-2 2h-4c-1.1 0-2-.9-2-2v-4c0-1.1.9-2 2-2h4c1.1 0 2 .9 2 2zm12 0c0 1.1-.9 2-2 2h-4c-1.1 0-2-.9-2-2v-4c0-1.1.9-2 2-2h4c1.1 0 2 .9 2 2zm12 0c0 1.1-.9 2-2 2h-4c-1.1 0-2-.9-2-2v-4c0-1.1.9-2 2-2h4c1.1 0 2 .9 2 2zm12 0c0 1.1-.9 2-2 2h-4c-1.1 0-2-.9-2-2v-4c0-1.1.9-2 2-2h4c1.1 0 2 .9 2 2z"/><g fill="#585858"><path d="M48 13v8c0 1.1.9 2 2 2h2c1.1 0 2-.9 2-2v-8c0-1.1-.9-2-2-2h-2c-1.1 0-2 .9-2 2"/><path d="M66 17h-8v4c0 3.3-2.7 6-6 6h-2c-3.3 0-6-2.7-6-6v-4H28v4c0 3.3-2.7 6-6 6h-2c-3.3 0-6-2.7-6-6v-4H6c-3.3 0-6 2.7-6 6v54c0 3.3 2.7 6 6 6h60c3.3 0 6-2.7 6-6V23c0-3.3-2.7-6-6-6m2 60c0 1.1-.9 2-2 2H6c-1.1 0-2-.9-2-2V31h64z"/><path d="M18 13v8c0 1.1.9 2 2 2h2c1.1 0 2-.9 2-2v-8c0-1.1-.9-2-2-2h-2c-1.1 0-2 .9-2 2"/></g><path fill="#FFF" d="M36 4h64v60H36z"/><path fill="#585858" d="M98 68H38c-3.3 0-6-2.7-6-6V6c0-3.3 2.7-6 6-6h60c3.3 0 6 2.7 6 6v56c0 3.3-2.7 6-6 6M38 4c-1.1 0-2 .9-2 2v56c0 1.1.9 2 2 2h60c1.1 0 2-.9 2-2V6c0-1.1-.9-2-2-2z"/><path fill="#585858" d="M77 53.2c-.2-1.3-.4-2.7-1.6-3.5-2.7-1.9-6.2-3.5-9.3-5-1.5-.7-1.5-.8-1.8-2.1-.2-.8-1.3-.4-1.2-1.8.3-2.5 2.6-3.9 3.4-6.1.4-.9.7-2.1.5-3.1-.1-.3-.2-.7-.6-.8-.7-.3-.2-1.3-.1-2 .2-1.4.7-3.1.6-4.8-.3-2.4-2.2-4.1-3.5-6.2-.8-1.2-1-1.3-2.5-2l.7-.7c-1.5-.5-4.1-1.4-5.6-1-1.2.3-2 1.2-3.2 1.5-1 .3-2.1.6-3 1.2-.4.3 0 .4 0 .7.1.6-.8 1.3-1.2 1.7-.8 1.1-1.8 2.4-2.3 3.7-.1.3-.2.7-.2 1-.1 1.7.4 3.4.6 4.8.1.7.6 1.7-.1 2-.4.1-.5.5-.6.8-.2 1 .1 2.2.5 3.1.8 2.2 3.1 3.6 3.4 6.1.2 1.4-1 1-1.2 1.8-.3 1.3-.3 1.4-1.8 2.1s-3.2 1.5-4.8 2.3v11H78c-.6-2.3-.7-3.1-1-4.7m16.5-1.5c-.1-.8-.2-1.6-1-2.1-1.6-1.1-3.7-2.1-5.5-2.9-.9-.4-.9-.5-1-1.2-.1-.5-.8-.3-.7-1.1.2-1.5 1.5-2.3 2-3.6.2-.6.4-1.2.3-1.8 0-.2-.1-.4-.4-.5-.4-.2-.1-.8-.1-1.2.1-.8.4-1.8.4-2.8-.2-1.4-1.3-2.4-2.1-3.7-.4-.8-.6-.8-1.4-1.3.1-.1.2-.3.4-.4-.9-.3-2.4-.8-3.3-.6-.7.2-1.2.7-1.9.9-.6.2-1.3.4-1.8.7-.2.2 0 .2 0 .4 0 .4-.5.8-.7 1-.5.6-1.1 1.4-1.4 2.2-.1.2-.1.4-.1.6-.1 1 .2 2 .4 2.8 0 .4.3 1-.1 1.2-.2.1-.3.3-.4.5-.1.6.1 1.3.3 1.8.5 1.3 1.8 2.1 2 3.6.1.8-.6.6-.7 1.1-.1.3-.1.5-.2.7.7.4 1.4.9 2.1 1.3 1.2.8 1.4 2.3 1.6 3.5.2 1.3.4 2.1.6 3.6H94c-.2-1.3-.3-1.8-.5-2.7"/></svg>