<?xml version="1.0" encoding="utf-8"?>
<!-- Generator: Adobe Illustrator 18.1.0, SVG Export Plug-In . SVG Version: 6.00 Build 0)  -->
<svg version="1.1" id="Layer_1" xmlns="http://www.w3.org/2000/svg" xmlns:xlink="http://www.w3.org/1999/xlink" x="0px" y="0px"
	 width="130px" height="94px" viewBox="0 0 130 94" enable-background="new 0 0 130 94" xml:space="preserve">
<g>
	<rect x="62" y="30" fill="#FFFFFF" width="64" height="60"/>
	<path fill="#585858" d="M124,94H64c-3.3,0-6-2.7-6-6V32c0-3.3,2.7-6,6-6h60c3.3,0,6,2.7,6,6v56C130,91.3,127.3,94,124,94z M64,30
		c-1.1,0-2,0.9-2,2v56c0,1.1,0.9,2,2,2h60c1.1,0,2-0.9,2-2V32c0-1.1-0.9-2-2-2H64z"/>
	<path fill="#585858" d="M76,42c0,1.1-0.9,2-2,2h-4c-1.1,0-2-0.9-2-2v-4c0-1.1,0.9-2,2-2h4c1.1,0,2,0.9,2,2V42z"/>
	<path fill="#585858" d="M76,66c0,1.1-0.9,2-2,2h-4c-1.1,0-2-0.9-2-2v-4c0-1.1,0.9-2,2-2h4c1.1,0,2,0.9,2,2V66z"/>
	<path fill="#585858" d="M76,54c0,1.1-0.9,2-2,2h-4c-1.1,0-2-0.9-2-2v-4c0-1.1,0.9-2,2-2h4c1.1,0,2,0.9,2,2V54z"/>
	<path fill="#585858" d="M120,42c0,1.1-0.9,2-2,2H82c-1.1,0-2-0.9-2-2v-4c0-1.1,0.9-2,2-2h36c1.1,0,2,0.9,2,2V42z"/>
	<path fill="#585858" d="M120,54c0,1.1-0.9,2-2,2H82c-1.1,0-2-0.9-2-2v-4c0-1.1,0.9-2,2-2h36c1.1,0,2,0.9,2,2V54z"/>
	<path fill="#585858" d="M120,82c0,1.1-0.9,2-2,2H82c-1.1,0-2-0.9-2-2V62c0-1.1,0.9-2,2-2h36c1.1,0,2,0.9,2,2V82z"/>
	<g>
		<path fill="#FFFFFF" d="M99.3,74.8c0.8,0.8,0.8,2,0,2.8l-1.4,1.4c-0.8,0.8-2,0.8-2.8,0l-5.7-5.7c-0.8-0.8-0.8-2,0-2.8l1.4-1.4
			c0.8-0.8,2-0.8,2.8,0L99.3,74.8z"/>
		<path fill="#FFFFFF" d="M107.8,66.3c0.8,0.8,0.8,2,0,2.8l-9.9,9.9c-0.8,0.8-2,0.8-2.8,0l-1.4-1.4c-0.8-0.8-0.8-2,0-2.8l9.9-9.9
			c0.8-0.8,2-0.8,2.8,0L107.8,66.3z"/>
	</g>
</g>
<g>
	<g>
		<rect x="4" y="31" fill="#FFFFFF" width="64" height="48"/>
		<g>
			<path fill="#585858" d="M22,45c0,1.1-0.9,2-2,2h-4c-1.1,0-2-0.9-2-2v-4c0-1.1,0.9-2,2-2h4c1.1,0,2,0.9,2,2V45z"/>
			<path fill="#585858" d="M34,45c0,1.1-0.9,2-2,2h-4c-1.1,0-2-0.9-2-2v-4c0-1.1,0.9-2,2-2h4c1.1,0,2,0.9,2,2V45z"/>
			<path fill="#585858" d="M46,45c0,1.1-0.9,2-2,2h-4c-1.1,0-2-0.9-2-2v-4c0-1.1,0.9-2,2-2h4c1.1,0,2,0.9,2,2V45z"/>
			<path fill="#585858" d="M58,45c0,1.1-0.9,2-2,2h-4c-1.1,0-2-0.9-2-2v-4c0-1.1,0.9-2,2-2h4c1.1,0,2,0.9,2,2V45z"/>
			<path fill="#585858" d="M22,57c0,1.1-0.9,2-2,2h-4c-1.1,0-2-0.9-2-2v-4c0-1.1,0.9-2,2-2h4c1.1,0,2,0.9,2,2V57z"/>
			<path fill="#585858" d="M34,57c0,1.1-0.9,2-2,2h-4c-1.1,0-2-0.9-2-2v-4c0-1.1,0.9-2,2-2h4c1.1,0,2,0.9,2,2V57z"/>
			<path fill="#585858" d="M46,57c0,1.1-0.9,2-2,2h-4c-1.1,0-2-0.9-2-2v-4c0-1.1,0.9-2,2-2h4c1.1,0,2,0.9,2,2V57z"/>
			<path fill="#585858" d="M58,57c0,1.1-0.9,2-2,2h-4c-1.1,0-2-0.9-2-2v-4c0-1.1,0.9-2,2-2h4c1.1,0,2,0.9,2,2V57z"/>
			<path fill="#585858" d="M22,69c0,1.1-0.9,2-2,2h-4c-1.1,0-2-0.9-2-2v-4c0-1.1,0.9-2,2-2h4c1.1,0,2,0.9,2,2V69z"/>
			<path fill="#585858" d="M34,69c0,1.1-0.9,2-2,2h-4c-1.1,0-2-0.9-2-2v-4c0-1.1,0.9-2,2-2h4c1.1,0,2,0.9,2,2V69z"/>
			<path fill="#585858" d="M46,69c0,1.1-0.9,2-2,2h-4c-1.1,0-2-0.9-2-2v-4c0-1.1,0.9-2,2-2h4c1.1,0,2,0.9,2,2V69z"/>
			<path fill="#585858" d="M58,69c0,1.1-0.9,2-2,2h-4c-1.1,0-2-0.9-2-2v-4c0-1.1,0.9-2,2-2h4c1.1,0,2,0.9,2,2V69z"/>
		</g>
	</g>
	<g>
		<path fill="#585858" d="M48,13v8c0,1.1,0.9,2,2,2h2c1.1,0,2-0.9,2-2v-8c0-1.1-0.9-2-2-2h-2C48.9,11,48,11.9,48,13z"/>
		<path fill="#585858" d="M66,17h-8v4c0,3.3-2.7,6-6,6h-2c-3.3,0-6-2.7-6-6v-4H28v4c0,3.3-2.7,6-6,6h-2c-3.3,0-6-2.7-6-6v-4H6
			c-3.3,0-6,2.7-6,6v54c0,3.3,2.7,6,6,6h60c3.3,0,6-2.7,6-6V23C72,19.7,69.3,17,66,17z M68,77c0,1.1-0.9,2-2,2H6c-1.1,0-2-0.9-2-2
			V31h64V77z"/>
		<path fill="#585858" d="M18,13v8c0,1.1,0.9,2,2,2h2c1.1,0,2-0.9,2-2v-8c0-1.1-0.9-2-2-2h-2C18.9,11,18,11.9,18,13z"/>
	</g>
</g>
<rect x="36" y="4" fill="#FFFFFF" width="64" height="60"/>
<path fill="#585858" d="M98,68H38c-3.3,0-6-2.7-6-6V6c0-3.3,2.7-6,6-6h60c3.3,0,6,2.7,6,6v56C104,65.3,101.3,68,98,68z M38,4
	c-1.1,0-2,0.9-2,2v56c0,1.1,0.9,2,2,2h60c1.1,0,2-0.9,2-2V6c0-1.1-0.9-2-2-2H38z"/>
<g>
	<g>
		<path fill="#585858" d="M77,53.2c-0.2-1.3-0.4-2.7-1.6-3.5c-2.7-1.9-6.2-3.5-9.3-5c-1.5-0.7-1.5-0.8-1.8-2.1
			c-0.2-0.8-1.3-0.4-1.2-1.8c0.3-2.5,2.6-3.9,3.4-6.1c0.4-0.9,0.7-2.1,0.5-3.1c-0.1-0.3-0.2-0.7-0.6-0.8c-0.7-0.3-0.2-1.3-0.1-2
			c0.2-1.4,0.7-3.1,0.6-4.8h0c-0.3-2.4-2.2-4.1-3.5-6.2c-0.8-1.2-1-1.3-2.5-2c0.2-0.2,0.4-0.4,0.7-0.7c-1.5-0.5-4.1-1.4-5.6-1
			c-1.2,0.3-2,1.2-3.2,1.5c-1,0.3-2.1,0.6-3,1.2c-0.4,0.3,0,0.4,0,0.7c0.1,0.6-0.8,1.3-1.2,1.7c-0.8,1.1-1.8,2.4-2.3,3.7
			c-0.1,0.3-0.2,0.7-0.2,1h0c-0.1,1.7,0.4,3.4,0.6,4.8c0.1,0.7,0.6,1.7-0.1,2c-0.4,0.1-0.5,0.5-0.6,0.8c-0.2,1,0.1,2.2,0.5,3.1
			c0.8,2.2,3.1,3.6,3.4,6.1c0.2,1.4-1,1-1.2,1.8c-0.3,1.3-0.3,1.4-1.8,2.1c-1.5,0.7-3.2,1.5-4.8,2.3v11h14.5h21.4
			C77.4,55.6,77.3,54.8,77,53.2z"/>
	</g>
	<path fill="#585858" d="M93.5,51.7c-0.1-0.8-0.2-1.6-1-2.1c-1.6-1.1-3.7-2.1-5.5-2.9c-0.9-0.4-0.9-0.5-1-1.2
		c-0.1-0.5-0.8-0.3-0.7-1.1c0.2-1.5,1.5-2.3,2-3.6c0.2-0.6,0.4-1.2,0.3-1.8c0-0.2-0.1-0.4-0.4-0.5c-0.4-0.2-0.1-0.8-0.1-1.2
		c0.1-0.8,0.4-1.8,0.4-2.8h0c-0.2-1.4-1.3-2.4-2.1-3.7C85,30,84.8,30,84,29.5c0.1-0.1,0.2-0.3,0.4-0.4c-0.9-0.3-2.4-0.8-3.3-0.6
		c-0.7,0.2-1.2,0.7-1.9,0.9c-0.6,0.2-1.3,0.4-1.8,0.7c-0.2,0.2,0,0.2,0,0.4c0,0.4-0.5,0.8-0.7,1c-0.5,0.6-1.1,1.4-1.4,2.2
		c-0.1,0.2-0.1,0.4-0.1,0.6h0c-0.1,1,0.2,2,0.4,2.8c0,0.4,0.3,1-0.1,1.2c-0.2,0.1-0.3,0.3-0.4,0.5c-0.1,0.6,0.1,1.3,0.3,1.8
		c0.5,1.3,1.8,2.1,2,3.6c0.1,0.8-0.6,0.6-0.7,1.1c-0.1,0.3-0.1,0.5-0.2,0.7c0.7,0.4,1.4,0.9,2.1,1.3c1.2,0.8,1.4,2.3,1.6,3.5
		c0.2,1.3,0.4,2.1,0.6,3.6h0.5H94C93.8,53.1,93.7,52.6,93.5,51.7z"/>
</g>
</svg>
