<svg version="1" viewBox="0 0 122.878 150.338" xmlns="http://www.w3.org/2000/svg"><path fill="#ff6c60" d="M.892.892 0 1.819v146.7l.892.926.927.893h29.999l.926-.893.893-.926v-42.493c0-35.216.068-42.527.446-42.527.275 0 14.107 19.255 30.788 42.802 16.647 23.58 30.617 43.11 31.029 43.419.652.55 1.888.618 12.94.618h12.22l.926-.893.892-.926V1.819l-.892-.927-.927-.892H91.06l-.926.892-.893.927v42.493c0 35.216-.068 42.527-.446 42.527-.275 0-14.107-19.256-30.788-42.836C41.359 20.457 27.389.927 26.978.618 26.326.068 25.09 0 14.038 0H1.818Zm54.54 50.49c17.574 24.817 32.402 45.685 32.985 46.303.996 1.064 1.236 1.167 3.124 1.167 1.785 0 2.197-.137 2.986-.892l.892-.927V6.179H116.7v137.982l-8.65-.035h-8.683l-31.921-45.17C49.906 74.139 35.044 53.27 34.461 52.653c-.996-1.064-1.236-1.167-3.124-1.167-1.785 0-2.197.137-2.986.892l-.892.927v90.855H6.178V6.178l8.684.035h8.65z"/></svg>