<svg xmlns="http://www.w3.org/2000/svg" version="1" width="250" height="250" viewBox="0 0 187.5 187.5"><path d="M33.203 19.473l-.892.927v146.7l.892.926.927.893h29.999l.926-.893.893-.926v-42.493c0-35.216.068-42.527.446-42.527.275 0 14.107 19.255 30.788 42.802 16.647 23.58 30.617 43.11 31.029 43.419.652.55 1.888.618 12.94.618h12.22l.926-.893.892-.926V20.4l-.892-.927-.927-.892h-29.999l-.926.892-.893.927v42.493c0 35.216-.068 42.527-.446 42.527-.275 0-14.107-19.256-30.788-42.836C73.67 39.038 59.7 19.508 59.289 19.199c-.652-.55-1.888-.618-12.94-.618h-12.22zm54.54 50.49c17.574 24.817 32.402 45.685 32.985 46.303.996 1.064 1.236 1.167 3.124 1.167 1.785 0 2.197-.137 2.986-.892l.892-.927V24.76h21.281v137.982l-8.65-.035h-8.683l-31.921-45.17C82.217 92.72 67.355 71.851 66.772 71.234c-.996-1.064-1.236-1.167-3.124-1.167-1.785 0-2.197.137-2.986.892l-.892.927v90.855H38.489V24.759l8.684.035h8.65z" fill="#ff6c60"/></svg>