<svg xml:space="preserve" id="prefix__Calque_1" x="0" y="0" version="1.1" viewBox="0 0 252.654 228.436" xmlns="http://www.w3.org/2000/svg"><style id="style2" type="text/css">.prefix__st1{fill:#009fe3}</style><g id="prefix__g18" transform="translate(-48.105 -68.371) scale(1.36275)"><g id="prefix__g16"><g id="prefix__g12"><path id="prefix__path6" fill="#009fe3" d="M128 157.1c17.7 0 32.1-14.4 32.1-32.1 0-.9-.8-1.7-1.7-1.7h-12.1c-.9 0-1.7.8-1.7 1.7 0 9.1-7.4 16.6-16.6 16.6-9.1 0-16.6-7.4-16.6-16.6 0-.9-.8-1.7-1.7-1.7H97.6c-.9 0-1.7.8-1.7 1.7 0 17.8 14.4 32.1 32.1 32.1z" class="prefix__st1"/><path id="prefix__path8" fill="#009fe3" d="M128 187.4c34.3 0 62.3-28 62.3-62.3 0-.9-.8-1.7-1.7-1.7h-12.1c-.9 0-1.7.8-1.7 1.7 0 25.9-21 46.9-46.9 46.9S81 151 81 125.1c0-.9-.8-1.7-1.7-1.7H67.4c-.9 0-1.7.8-1.7 1.7-.2 34.3 27.8 62.3 62.3 62.3z" class="prefix__st1"/><path id="prefix__path10" fill="#009fe3" d="M219 123.4h-12.1c-.9 0-1.7.8-1.7 1.7 0 42.6-34.8 77.3-77.3 77.3-42.6 0-77.3-34.6-77.3-77.3 0-.9-.8-1.7-1.7-1.7H37c-.9 0-1.7.8-1.7 1.7 0 51.1 41.6 92.7 92.7 92.7s92.7-41.6 92.7-92.7c0-.9-.8-1.7-1.7-1.7z" class="prefix__st1"/></g><path id="prefix__path14" fill="#3c3c3b" d="M86.3 83.3c6.2 3.2 12.9 3.8 18.9 7.3 3.9 2.3 6.4 4.8 8.8 8.6 3.8 5.7 3.6 12.9 3.6 12.9l.5 7.9s3 7.9 9.7 7.9c7.1 0 9.7-7.9 9.7-7.9l.5-7.9s-.2-7.1 3.6-12.9c2.4-3.8 4.8-6.5 8.8-8.6 6-3.5 12.7-4.1 18.9-7.3 6.2-3.2 12.2-7.3 16.3-13 4.1-5.7 6-13.3 3.8-20-11.8-.6-25.4.8-35.8 6.4-14.5 7.7-23.3 5-25.9 16.5h-.2c-2.6-11.6-11.3-8.8-25.9-16.5-10.4-5.6-24-7-35.8-6.4-2.3 6.7-.3 14.2 3.8 20 4.4 5.8 10.5 9.9 16.7 13z"/></g></g></svg>