<svg xml:space="preserve" viewBox="0 0 120 120" xmlns="http://www.w3.org/2000/svg"><g transform="translate(47.35 52.15)"><linearGradient id="a" x1="54.782" x2="-187.485" y1="-16.008" y2="173.421" gradientTransform="matrix(1 0 0 -1 10.48 32.98)" gradientUnits="userSpaceOnUse"><stop offset="0" style="stop-color:#f69f13"/><stop offset=".938" style="stop-color:#fff"/><stop offset="1" style="stop-color:#e88f37"/></linearGradient><path d="M12.65-52.15c33.12 0 60 26.88 60 60s-26.88 60-60 60-60-26.88-60-60 26.88-60 60-60" style="fill:url(#a)" vector-effect="non-scaling-stroke"/></g><path d="M20.129 84.99c.096-.526.155-1.06.294-1.574.989-3.668 3.21-6.304 6.653-7.916 1.455-.681 3.006-.952 4.586-1.064 3.064-.218 6.04-.803 8.882-1.995 1.118-.47 2.056-1.21 2.903-2.047 3.563-3.524 7.126-7.049 10.645-10.616 5.926-6.007 11.824-12.043 17.724-18.076.984-1.006 1.969-2.02 2.867-3.1 1.304-1.57 2.079-3.398 2.351-5.428.224-1.672.355-3.363.695-5.01.582-2.82 2.211-4.984 4.55-6.62 1.297-.907 2.705-1.585 4.298-1.773.488-.057.989-.009 1.55-.009-.068.218-.108.395-.178.56-1.161 2.718-2.32 5.437-3.497 8.148-.127.293-.07.44.151.646 2.05 1.918 4.543 2.916 7.23 3.518.224.05.454.074.683.094.734.065.73.06 1.036-.613q1.7-3.742 3.403-7.481c.082-.18.184-.35.295-.559.097.104.172.161.22.236.903 1.448 1.695 2.951 2.15 4.607.099.36.13.745.15 1.12.024.5-.049 1.01.016 1.502.26 1.987-.683 3.542-1.825 4.983-1.915 2.416-4.496 3.775-7.458 4.494-1.727.42-3.455.845-5.152 1.367a14.35 14.35 0 0 0-6.08 3.67c-5.008 5.067-10.047 10.104-15.044 15.183-4.464 4.537-8.89 9.113-13.33 13.676-.472.485-.895 1.02-1.385 1.485-.964.914-1.398 2.074-1.578 3.339-.25 1.75-.433 3.509-.667 5.261-.414 3.096-.928 6.167-2.427 8.97-1.485 2.776-3.646 4.78-6.67 5.763a9.3 9.3 0 0 1-3.315.449c-.186-.009-.37-.063-.596-.104.077-.166.14-.31.21-.452 1.575-3.167 3.136-6.341 4.737-9.495.34-.67.25-1.219-.12-1.81-.826-1.326-2.012-2.252-3.327-3.034-1.107-.658-2.27-1.2-3.557-1.397a9.6 9.6 0 0 0-3.228.067 1.18 1.18 0 0 0-.89.69c-.649 1.35-1.308 2.696-1.946 4.05-.875 1.857-1.728 3.723-2.604 5.578-.308.652-.522.683-1.02.148-.925-.994-1.46-2.208-1.791-3.5-.234-.909-.343-1.85-.51-2.778-.02-.104-.056-.206-.084-.309z"/></svg>