<?xml version="1.0" encoding="iso-8859-1"?>
<!-- Generator: Adobe Illustrator 28.2.0, SVG Export Plug-In . SVG Version: 6.00 Build 0)  -->
<svg version="1.1" id="Lager_1" xmlns="http://www.w3.org/2000/svg" xmlns:xlink="http://www.w3.org/1999/xlink" x="0px" y="0px"
	 viewBox="0 0 120 120" style="enable-background:new 0 0 120 120;" xml:space="preserve">
<g>
	<g id="zxE8tNeRRR_YNeisEkyEv" transform="matrix(1 0 0 1 47.35 52.15)">
		
			<linearGradient id="SVGID_1_" gradientUnits="userSpaceOnUse" x1="54.7822" y1="-16.0075" x2="-187.4851" y2="173.4211" gradientTransform="matrix(1 0 0 -1 10.48 32.98)">
			<stop  offset="0" style="stop-color:#F69F13"/>
			<stop  offset="0.9383" style="stop-color:#FFFFFF"/>
			<stop  offset="1" style="stop-color:#E88F37"/>
		</linearGradient>
		<path vector-effect="non-scaling-stroke" style="fill:url(#SVGID_1_);" d="M12.65-52.15c33.12,0,60,26.88,60,60s-26.88,60-60,60
			s-60-26.88-60-60S-20.47-52.15,12.65-52.15z"/>
	</g>
	<g id="_x34_RH3q-lZIv7kkl6ZLI6ip" transform="matrix(0.05 0 0 0.05 47.35 52.15)">
		<g>
			<path d="M-544.423,656.791c1.921-10.503,3.111-21.203,5.881-31.478c19.775-73.344,64.195-126.082,133.052-158.311
				c29.105-13.622,60.14-19.04,91.726-21.286c61.28-4.357,120.795-16.056,177.638-39.902c22.356-9.379,41.131-24.189,58.071-40.94
				c71.261-70.471,142.507-140.97,212.893-212.312c118.53-120.14,236.476-240.857,354.478-361.516
				c19.687-20.13,39.385-40.391,57.353-62.025c26.065-31.382,41.571-67.932,47.011-108.551
				c4.478-33.429,7.109-67.241,13.906-100.193c11.63-56.384,44.214-99.686,90.99-132.401c25.935-18.139,54.096-31.694,85.968-35.451
				c9.758-1.151,19.767-0.179,31.006-0.179c-1.376,4.355-2.177,7.899-3.58,11.186c-23.209,54.366-46.382,108.748-69.92,162.971
				c-2.542,5.857-1.392,8.789,3.018,12.917c40.996,38.366,90.856,58.326,144.598,70.354c4.468,1,9.076,1.488,13.647,1.889
				c14.683,1.288,14.618,1.197,20.729-12.263c22.651-49.893,45.338-99.77,68.061-149.629c1.632-3.58,3.667-6.976,5.891-11.167
				c1.955,2.073,3.453,3.221,4.389,4.72c18.082,28.963,33.923,59.021,43.013,92.138c1.978,7.207,2.619,14.892,2.993,22.401
				c0.498,9.999-0.962,20.186,0.331,30.041c5.213,39.731-13.653,70.836-36.502,99.654c-38.306,48.313-89.918,75.506-149.165,89.889
				c-34.529,8.383-69.097,16.899-103.042,27.327c-46.421,14.26-87.158,38.603-121.572,73.411
				C538.259-20.586,437.487,80.162,337.549,181.731c-89.296,90.754-177.813,182.275-266.603,273.526
				c-9.441,9.703-17.9,20.404-27.706,29.702c-19.28,18.281-27.951,41.49-31.568,66.771c-5.007,34.999-8.655,70.189-13.339,105.237
				C-9.942,718.882-20.218,780.305-50.2,836.364c-29.692,55.516-72.915,95.6-133.402,115.26
				c-21.395,6.954-43.681,9.971-66.306,8.968c-3.715-0.165-7.389-1.262-11.904-2.077c1.538-3.314,2.799-6.205,4.201-9.026
				c31.488-63.349,62.704-126.837,94.725-189.916c6.796-13.387,4.998-24.374-2.384-36.211c-16.526-26.502-40.25-45.02-66.544-60.655
				c-22.154-13.173-45.399-24.022-71.138-27.938c-21.524-3.275-43.119-2.674-64.576,1.329c-8.33,1.554-14.151,6.234-17.792,13.81
				c-12.979,27.002-26.157,53.911-38.929,81.011c-17.493,37.12-34.544,74.449-52.079,111.549
				c-6.161,13.035-10.426,13.651-20.391,2.948c-18.51-19.88-29.184-44.161-35.822-69.979c-4.678-18.195-6.858-37.032-10.207-55.572
				c-0.378-2.093-1.108-4.121-1.676-6.18C-544.423,694.721-544.423,675.756-544.423,656.791z"/>
		</g>
	</g>
</g>
</svg>
